<svg xmlns="http://www.w3.org/2000/svg" width="121" height="121" viewBox="0 0 121 121"><g fill="none" fill-rule="evenodd" transform="translate(11 1)"><path fill="#FFF" d="M49.4394392,0.0318675407 C22.3057387,1.05655877 0,24.0129849 0,51.0632884 C0,74.1581311 15.7531577,94.1840908 37.6796234,100.284188 L39.123,100.664864 L42.9875735,113.982705 L43.1785408,114.537893 C46.0893205,121.820521 56.3606795,121.820521 59.2714592,114.537893 L59.414029,114.18119 L62.886,100.712864 L63.516,100.496864 L63.2562825,100.567939 C85.9193193,94.8977587 102,74.3341875 102,50.6129372 C102,22.1810388 78.2198674,-0.978760095 49.4394392,0.0318675407 Z M49.65,6.02817175 C75.3,5.12746941 96,25.8436231 96,50.6129372 C96,71.7794421 81.6,89.7934887 61.8,94.7473516 L60.7909333,95.0889513 C58.9125333,95.7454632 57.8597333,96.3059002 57.4021333,97.9231613 L57.3,98.3501609 L53.7,112.311047 C52.8473684,114.444289 49.9753463,114.556565 48.9101473,112.647875 L48.75,112.311047 L44.7,98.3501609 C44.3210526,96.4539455 43.9421053,95.8351804 41.6820674,95.1491811 L40.742703,94.8861535 C40.5702216,94.8409148 40.3894737,94.7947569 40.2,94.7473516 C20.85,89.7934887 6,72.2297932 6,51.0632884 C6,27.1946766 25.8,6.92887408 49.65,6.02817175 Z"/><path fill="#192BC2" d="M49.65,6.02817175 C75.3,5.12746941 96,25.8436231 96,50.6129372 C96,71.7794421 81.6,89.7934887 61.8,94.7473516 L60.7909333,95.0889513 C58.9125333,95.7454632 57.8597333,96.3059002 57.4021333,97.9231613 L57.3,98.3501609 L53.7,112.311047 C52.8473684,114.444289 49.9753463,114.556565 48.9101473,112.647875 L48.75,112.311047 L44.7,98.3501609 C44.3210526,96.4539455 43.9421053,95.8351804 41.6820674,95.1491811 L40.742703,94.8861535 C40.5702216,94.8409148 40.3894737,94.7947569 40.2,94.7473516 C20.85,89.7934887 6,72.2297932 6,51.0632884 C6,27.1946766 25.8,6.92887408 49.65,6.02817175 Z"/><path fill="#FFF" d="M83.9164933,52.6854474 C83.9164933,52.6854474 90.8543834,60.5732731 83.9164933,68.496478 L83.3990436,68.4973014 C83.1325017,68.4976961 82.854449,68.4980656 82.5658526,68.4984111 L81.6693992,68.4993767 L81.5142471,68.4995241 L80.7154849,68.5002052 C80.606517,68.5002899 80.4965925,68.5003722 80.3857472,68.5004522 L79.0136949,68.5013009 L78.8366577,68.5013918 L76.059399,68.5023849 L75.8673527,68.5024279 L68.8903682,68.5024487 C68.7565047,68.5024263 68.6227947,68.5024028 68.4892741,68.5023783 L64.9563444,68.501504 C64.8291334,68.501465 64.7024342,68.5014253 64.5762825,68.501385 L62.0198637,68.5004711 C61.9031319,68.500425 61.7871983,68.5003787 61.6720988,68.5003321 L59.6981162,68.49948 C59.5943142,68.4994323 59.491561,68.4993848 59.3898925,68.4993373 L58.568886,68.4989448 L61.9425572,65.1573752 L61.9425572,65.1467614 L56.522441,59.7266453 L52.9597407,56.1745587 L56.4497407,52.685386 L83.9164933,52.6854474 Z M82.1855587,54.067011 C81.083492,54.067011 80.1919324,56.9893451 80.1919324,60.5945007 C80.1919324,64.1996562 81.083492,67.1202214 82.1855587,67.1202214 C83.2876254,67.1202214 85.5359829,64.2474183 85.5359829,60.6422628 C85.5359829,57.0371072 83.2876254,54.067011 82.1855587,54.067011 Z M52.0404083,64.5966125 L44.297638,56.8538422 L44.3082519,56.8432284 L44.297638,56.8326146 L48.4440976,52.686155 L17.7171339,52.686155 C17.7171339,52.686155 11.6035826,60.3227873 17.7171339,68.4971856 C25.8136977,68.5113374 48.1416042,68.4971856 48.1416042,68.4971856 L52.0404083,64.5966125 Z M32.1092758,27.3177473 L36.9509395,24.8146585 L45.3588416,47.3159238 L32.1092758,27.3177473 Z M69.902026,27.3177473 L65.0603622,24.8146585 L56.6524601,47.3159238 L69.902026,27.3177473 Z M47.5498846,24.2531882 L52.9983042,24.1063639 L50.7782501,48.0245721 L47.5498846,24.2531882 Z"/></g></svg>