<svg xmlns="http://www.w3.org/2000/svg" width="121" height="121" viewBox="0 0 121 121"><g fill="none" fill-rule="evenodd" transform="translate(11 1)"><path fill="#FFF" d="M49.4394392,0.0318675407 C22.3057387,1.05655877 0,24.0129849 0,51.0632884 C0,74.1581311 15.7531577,94.1840908 37.6796234,100.284188 L39.123,100.664864 L42.9875735,113.982705 L43.1785408,114.537893 C46.0893205,121.820521 56.3606795,121.820521 59.2714592,114.537893 L59.414029,114.18119 L62.886,100.712864 L63.516,100.496864 L63.2562825,100.567939 C85.9193193,94.8977587 102,74.3341875 102,50.6129372 C102,22.1810388 78.2198674,-0.978760095 49.4394392,0.0318675407 Z M49.65,6.02817175 C75.3,5.12746941 96,25.8436231 96,50.6129372 C96,71.7794421 81.6,89.7934887 61.8,94.7473516 L60.7909333,95.0889513 C58.9125333,95.7454632 57.8597333,96.3059002 57.4021333,97.9231613 L57.3,98.3501609 L53.7,112.311047 C52.8473684,114.444289 49.9753463,114.556565 48.9101473,112.647875 L48.75,112.311047 L44.7,98.3501609 C44.3210526,96.4539455 43.9421053,95.8351804 41.6820674,95.1491811 L40.742703,94.8861535 C40.5702216,94.8409148 40.3894737,94.7947569 40.2,94.7473516 C20.85,89.7934887 6,72.2297932 6,51.0632884 C6,27.1946766 25.8,6.92887408 49.65,6.02817175 Z"/><path fill="#192BC2" d="M49.65,6.02817175 C75.3,5.12746941 96,25.8436231 96,50.6129372 C96,71.7794421 81.6,89.7934887 61.8,94.7473516 L60.7909333,95.0889513 C58.9125333,95.7454632 57.8597333,96.3059002 57.4021333,97.9231613 L57.3,98.3501609 L53.7,112.311047 C52.8473684,114.444289 49.9753463,114.556565 48.9101473,112.647875 L48.75,112.311047 L44.7,98.3501609 C44.3210526,96.4539455 43.9421053,95.8351804 41.6820674,95.1491811 L40.742703,94.8861535 C40.5702216,94.8409148 40.3894737,94.7947569 40.2,94.7473516 C20.85,89.7934887 6,72.2297932 6,51.0632884 C6,27.1946766 25.8,6.92887408 49.65,6.02817175 Z"/><path fill="#FFF" fill-rule="nonzero" d="M59.0262671,28.3138639 L59.0258859,61.9958558 C59.1780244,62.0786718 59.3535662,62.1789625 59.5411618,62.2949756 C59.5411618,62.2949756 60.0359051,62.5882046 60.1147023,62.6347079 C60.1883325,62.6825029 60.6882428,62.938271 60.8057927,62.9873578 L60.8621694,63.0068564 C60.98447,63.0489794 61.2722609,63.1471052 61.385792,63.1772462 C61.385792,63.1772462 62.1918489,63.3723016 63.061202,63.1384934 C63.061202,63.1384934 63.6269919,63.0002754 64.1062341,62.7535496 C64.1062341,62.7535496 65.4432035,62.0443745 65.6447177,61.9397421 C65.8475237,61.8351098 66.6161196,61.4695423 67.1702838,61.4023709 C67.1702838,61.4023709 67.3222765,61.4073158 67.5768463,61.4307571 L72.479,41.6508639 L72.4799253,39.7678809 L87.702,39.7678809 L87.702,43.05928 L75.79,43.0588639 L67.594,76.1288639 L67.594497,76.141199 L35.6234898,76.141199 L27.415,43.0588639 L15.702,43.05928 L15.702,39.7678809 L30.9240747,39.7678809 L30.924,42.4498639 L35.6043724,61.335398 C35.9163498,61.3461108 36.2721885,61.391103 36.6382948,61.5018362 C36.6382948,61.5018362 37.127871,61.5922593 38.141901,62.154174 L38.1773658,62.1728101 C38.2571975,62.2147465 38.4614074,62.3219447 38.6827031,62.4375156 L38.9281785,62.565449 C39.1699335,62.6911319 39.384572,62.801603 39.4284918,62.820721 C39.539583,62.8685161 40.2836355,63.1811215 40.7435013,63.2198742 C40.7435013,63.2198742 41.6102708,63.3723016 42.5080426,63.0480704 C42.5080426,63.0480704 42.948532,62.8917677 43.2404693,62.735465 C43.3532497,62.6748517 43.580301,62.5467843 43.8264464,62.4071927 L44.1248948,62.2377308 L44.1925882,62.1992773 L44.1917198,28.3138639 L59.0262671,28.3138639 Z M45.3434511,66.9853484 C45.3434511,66.9853484 44.6562359,67.206239 44.4095101,67.3379983 C44.1640761,67.4697576 43.8217603,67.654479 43.6615823,67.7474855 C43.6086203,67.7784877 43.5137478,67.8331721 43.4082543,67.8936455 L43.1923765,68.0170093 C43.0513782,68.0973286 42.9285815,68.1667327 42.8981534,68.1828079 C42.8296903,68.2176854 42.3788668,68.4463265 42.1631432,68.5134979 C41.9487114,68.5819611 41.7743241,68.6530078 41.3557945,68.7020946 C41.3557945,68.7020946 40.8403831,68.7666825 40.281052,68.6349232 C40.281052,68.6349232 39.6015874,68.4967051 39.0835925,68.1647233 C39.0835925,68.1647233 38.3266223,67.7332762 38.1716114,67.6299356 C38.1716114,67.6299356 37.7104538,67.3625417 37.3578039,67.206239 C37.3578039,67.206239 37.2355885,67.1464314 37.0300312,67.0790027 L38.394,72.5888639 L64.812,72.5888639 L66.1436136,67.2128775 C66.0300497,67.2560397 65.9298526,67.2940459 65.8849847,67.3108714 L65.8441286,67.3314418 C65.8311884,67.3379609 65.815522,67.3458565 65.7976382,67.3548752 L65.6677978,67.4204392 C65.64308,67.4329374 65.6171625,67.4460522 65.5905541,67.4595303 L65.3940711,67.5593479 C65.2645032,67.6254091 65.1471561,67.6858334 65.0983041,67.7126081 C65.0983041,67.7126081 64.4395076,68.0600909 64.3374588,68.1143448 C64.2367016,68.1685986 63.8323814,68.35332 63.7458337,68.3894892 C63.6579941,68.4243666 63.3518475,68.5457919 63.141291,68.5948787 C62.9294427,68.6452572 62.698218,68.7072616 62.3223165,68.7201792 C62.3223165,68.7201792 62.3078488,68.7212126 62.2811766,68.7219773 L62.1668095,68.7221633 C62.0203552,68.7189391 61.7844285,68.7015779 61.5201348,68.6349232 C61.5201348,68.6349232 61.1946119,68.5457919 60.9595119,68.4540771 C60.9595119,68.4540771 60.7683318,68.3707587 60.5513164,68.270163 L60.3318133,68.1662543 C60.1879019,68.0964037 60.0570038,68.0286581 59.98811,67.9825855 C59.98811,67.9825855 59.0154163,67.4658823 58.8759065,67.3948356 C58.8759065,67.3948356 58.339827,67.1519851 58.1912748,67.1054819 C58.0427227,67.0589786 57.7029903,66.9517627 57.5027679,66.9310945 C57.3025454,66.9091347 56.9783142,66.880716 56.7135038,66.9091347 C56.4486935,66.9375533 56.040498,67.0344352 55.8286497,67.0951478 C55.6180932,67.1558604 55.0006329,67.3870851 54.8417467,67.4555482 C54.7755441,67.4835363 54.5532541,67.5779064 54.3046692,67.6831533 L54.0020525,67.8111181 C53.7531985,67.9161855 53.5299666,68.0099277 53.4621493,68.0368393 C53.2993878,68.1001354 52.7620165,68.3094002 52.4468276,68.3752798 C52.1355139,68.438576 51.5852251,68.5780858 50.9290121,68.4592441 C50.9290121,68.4592441 50.1797925,68.3391106 49.6023768,68.1065942 C49.0236692,67.8766613 48.5263425,67.6402696 48.2176123,67.5020515 C47.9075904,67.3625417 47.3482593,67.1235665 47.0653643,67.0421857 C47.0653643,67.0421857 46.5202425,66.8845913 46.2463898,66.8936336 C46.2463898,66.8936336 45.818818,66.8600479 45.3434511,66.9853484 Z M56.4414596,30.8973797 L46.7752355,30.8973797 L46.775,38.0458639 L53.3166973,38.0459677 L53.3166973,39.415231 L46.775,39.4148639 L46.775,44.1758639 L53.3166973,44.1766505 L53.3166973,45.5459139 L46.775,45.5458639 L46.775,50.2718639 L53.3166973,50.2724559 L53.3166973,51.6417193 L46.775,51.6408639 L46.775,56.0088639 L53.3166973,56.0091526 L53.3166973,57.3784159 L46.775,57.3778639 L46.7747746,61.4530952 C47.0206352,61.4866893 47.3289422,61.5539033 47.6879916,61.6826823 C47.6879916,61.6826823 48.4875897,61.9875372 48.7950281,62.1632163 C48.7950281,62.1632163 50.3386787,62.9021018 50.4446029,62.9343957 C50.494849,62.9501354 50.6432571,63.0053102 50.8310603,63.0644206 L52.9779125,63.0657725 C53.0515463,63.042669 53.1261414,63.0166463 53.2012142,62.9873578 C53.2012142,62.9873578 53.4216397,62.8980715 53.6348108,62.8082271 L53.8371311,62.721483 C53.8981434,62.6946971 53.949917,62.6711355 53.9840194,62.6540842 C53.9840194,62.6540842 54.6143973,62.3453541 54.8662901,62.207136 C55.1194746,62.0689179 55.8519013,61.716268 56.1154199,61.631012 C56.2058187,61.6013222 56.3155232,61.5640317 56.4402575,61.529205 L56.4414596,30.8973797 Z"/></g></svg>