<svg xmlns="http://www.w3.org/2000/svg" width="121" height="121" viewBox="0 0 121 121"><g fill="none" fill-rule="evenodd" transform="translate(11 1)"><path fill="#000" d="M49.4394392,0.0318675407 C22.3057387,1.05655877 0,24.0129849 0,51.0632884 C0,74.1581311 15.7531577,94.1840908 37.6796234,100.284188 L39.123,100.664864 L42.9875735,113.982705 L43.1785408,114.537893 C46.0893205,121.820521 56.3606795,121.820521 59.2714592,114.537893 L59.414029,114.18119 L62.886,100.712864 L63.516,100.496864 L63.2562825,100.567939 C85.9193193,94.8977587 102,74.3341875 102,50.6129372 C102,22.1810388 78.2198674,-0.978760095 49.4394392,0.0318675407 Z M49.65,6.02817175 C75.3,5.12746941 96,25.8436231 96,50.6129372 C96,71.7794421 81.6,89.7934887 61.8,94.7473516 L60.7909333,95.0889513 C58.9125333,95.7454632 57.8597333,96.3059002 57.4021333,97.9231613 L57.3,98.3501609 L53.7,112.311047 C52.8473684,114.444289 49.9753463,114.556565 48.9101473,112.647875 L48.75,112.311047 L44.7,98.3501609 C44.3210526,96.4539455 43.9421053,95.8351804 41.6820674,95.1491811 L40.742703,94.8861535 C40.5702216,94.8409148 40.3894737,94.7947569 40.2,94.7473516 C20.85,89.7934887 6,72.2297932 6,51.0632884 C6,27.1946766 25.8,6.92887408 49.65,6.02817175 Z"/><path fill="#D5D5D5" d="M49.65,6.02817175 C75.3,5.12746941 96,25.8436231 96,50.6129372 C96,71.7794421 81.6,89.7934887 61.8,94.7473516 L60.7909333,95.0889513 C58.9125333,95.7454632 57.8597333,96.3059002 57.4021333,97.9231613 L57.3,98.3501609 L53.7,112.311047 C52.8473684,114.444289 49.9753463,114.556565 48.9101473,112.647875 L48.75,112.311047 L44.7,98.3501609 C44.3210526,96.4539455 43.9421053,95.8351804 41.6820674,95.1491811 L40.742703,94.8861535 C40.5702216,94.8409148 40.3894737,94.7947569 40.2,94.7473516 C20.85,89.7934887 6,72.2297932 6,51.0632884 C6,27.1946766 25.8,6.92887408 49.65,6.02817175 Z"/><path fill="#000" fill-rule="nonzero" d="M9.78515625 20.2148438C8.671875 20.2148438 7.65380859 20.078125 6.73095703 19.8046875 5.80810547 19.53125 4.98535156 19.1577148 4.26269531 18.684082 3.54003906 18.2104492 2.91015625 17.6513672 2.37304688 17.0068359 1.8359375 16.3623047 1.39160156 15.6665039 1.04003906 14.9194336.688476562 14.1723633.427246094 13.3886719.256347656 12.5683594.0854492187 11.7480469 0 10.9277344 0 10.1074219 0 9.28710938.0854492187 8.46679688.256347656 7.64648438.427246094 6.82617188.688476562 6.04003906 1.04003906 5.28808594 1.39160156 4.53613281 1.8359375 3.83789062 2.37304688 3.19335938 2.91015625 2.54882812 3.54003906 1.98974609 4.26269531 1.51611328 4.98535156 1.04248047 5.80566406.671386719 6.72363281.402832031 7.64160156.134277344 8.66210938 0 9.78515625 0 10.9765625 0 12.1191406.163574219 13.2128906.490722656 14.3066406.817871094 15.2783203 1.30615234 16.1279297 1.95556641 16.9775391 2.60498047 17.6733398 3.42041016 18.215332 4.40185547 18.7573242 5.38330078 19.0722656 6.5234375 19.1601562 7.82226562L13.7109375 7.82226562C13.6816406 7.3828125 13.5620117 6.97265625 13.3520508 6.59179688 13.1420898 6.2109375 12.8637695 5.87890625 12.5170898 5.59570312 12.1704102 5.3125 11.7675781 5.09033203 11.3085938 4.92919922 10.8496094 4.76806641 10.3613281 4.6875 9.84375 4.6875 9.24804688 4.6875 8.69140625 4.80224609 8.17382812 5.03173828 7.65625 5.26123047 7.20458984 5.60302734 6.81884766 6.05712891 6.43310547 6.51123047 6.12792969 7.07763672 5.90332031 7.75634766 5.67871094 8.43505859 5.56640625 9.22851562 5.56640625 10.1367188 5.56640625 11.0351563 5.67871094 11.8237305 5.90332031 12.5024414 6.12792969 13.1811523 6.43310547 13.7475586 6.81884766 14.2016602 7.20458984 14.6557617 7.65625 14.9951172 8.17382812 15.2197266 8.69140625 15.4443359 9.24804688 15.5566406 9.84375 15.5566406 10.3613281 15.5566406 10.8496094 15.4736328 11.3085938 15.3076172 11.7675781 15.1416016 12.1704102 14.9169922 12.5170898 14.6337891 12.8637695 14.3505859 13.1420898 14.0161133 13.3520508 13.6303711 13.5620117 13.2446289 13.6816406 12.8320312 13.7109375 12.3925781L19.1601562 12.3925781C19.0722656 13.7011719 18.7573242 14.84375 18.215332 15.8203125 17.6733398 16.796875 16.9775391 17.6098633 16.1279297 18.2592773 15.2783203 18.9086914 14.3066406 19.3969727 13.2128906 19.7241211 12.1191406 20.0512695 10.9765625 20.2148438 9.78515625 20.2148438ZM30.234375 6.29882812 27.9785156 12.8320312 32.4609375 12.8320312 30.234375 6.29882812ZM33.8378906 16.8457031 26.6015625 16.8457031 25.5761719 19.8632812 20.1269531 19.8632812 27.3925781.3515625 33.1640625.3515625 40.4296875 19.8632812 34.8632812 19.8632812 33.8378906 16.8457031ZM42.421875.3515625 50.390625.3515625C52.0019531.3515625 53.4228516.5859375 54.6533203 1.0546875 55.8837891 1.5234375 56.9165039 2.18505859 57.7514648 3.03955078 58.5864258 3.89404297 59.21875 4.921875 59.6484375 6.12304688 60.078125 7.32421875 60.2929688 8.65234375 60.2929688 10.1074219 60.2929688 11.5625 60.078125 12.890625 59.6484375 14.0917969 59.21875 15.2929687 58.5864258 16.3208008 57.7514648 17.175293 56.9165039 18.0297852 55.8837891 18.6914062 54.6533203 19.1601562 53.4228516 19.6289062 52.0019531 19.8632812 50.390625 19.8632812L42.421875 19.8632812 42.421875.3515625ZM50.15625 15.46875C50.9960938 15.46875 51.7041016 15.3149414 52.2802734 15.0073242 52.8564453 14.699707 53.3203125 14.2944336 53.671875 13.7915039 54.0234375 13.2885742 54.2773438 12.7148438 54.4335938 12.0703125 54.5898438 11.4257812 54.6679688 10.7714844 54.6679688 10.1074219 54.6679688 9.44335938 54.5898438 8.7890625 54.4335938 8.14453125 54.2773438 7.5 54.0234375 6.92626953 53.671875 6.42333984 53.3203125 5.92041016 52.8564453 5.51513672 52.2802734 5.20751953 51.7041016 4.89990234 50.9960938 4.74609375 50.15625 4.74609375L47.8125 4.74609375 47.8125 15.46875 50.15625 15.46875ZM72.5976562 20.2148438C71.4257812 20.2148438 70.3564453 20.078125 69.3896484 19.8046875 68.4228516 19.53125 67.5537109 19.1577148 66.7822266 18.684082 66.0107422 18.2104492 65.3417969 17.6513672 64.7753906 17.0068359 64.2089844 16.3623047 63.7353516 15.6665039 63.3544922 14.9194336 62.9736328 14.1723633 62.6904297 13.3886719 62.5048828 12.5683594 62.3193359 11.7480469 62.2265625 10.9277344 62.2265625 10.1074219 62.2265625 9.28710938 62.3193359 8.46679688 62.5048828 7.64648438 62.6904297 6.82617188 62.9736328 6.04003906 63.3544922 5.28808594 63.7353516 4.53613281 64.2089844 3.83789062 64.7753906 3.19335938 65.3417969 2.54882812 66.0107422 1.98974609 66.7822266 1.51611328 67.5537109 1.04248047 68.4228516.671386719 69.3896484.402832031 70.3564453.134277344 71.4257812 0 72.5976562 0 73.7695312 0 74.8413086.134277344 75.8129883.402832031 76.784668.671386719 77.6538086 1.04248047 78.4204102 1.51611328 79.1870117 1.98974609 79.855957 2.54882812 80.4272461 3.19335938 80.9985352 3.83789062 81.472168 4.53613281 81.8481445 5.28808594 82.2241211 6.04003906 82.5048828 6.82617188 82.6904297 7.64648438 82.8759766 8.46679688 82.96875 9.28710938 82.96875 10.1074219 82.96875 10.9277344 82.8759766 11.7480469 82.6904297 12.5683594 82.5048828 13.3886719 82.2241211 14.1723633 81.8481445 14.9194336 81.472168 15.6665039 80.9985352 16.3623047 80.4272461 17.0068359 79.855957 17.6513672 79.1870117 18.2104492 78.4204102 18.684082 77.6538086 19.1577148 76.784668 19.53125 75.8129883 19.8046875 74.8413086 20.078125 73.7695312 20.2148438 72.5976562 20.2148438ZM72.5976562 15.5859375C73.2519531 15.5859375 73.8647461 15.4711914 74.4360352 15.2416992 75.0073242 15.012207 75.5053711 14.6679688 75.9301758 14.2089844 76.3549805 13.75 76.6870117 13.1787109 76.9262695 12.4951172 77.1655273 11.8115234 77.2851562 11.015625 77.2851562 10.1074219 77.2851562 9.19921875 77.1655273 8.40332031 76.9262695 7.71972656 76.6870117 7.03613281 76.3549805 6.46484375 75.9301758 6.00585938 75.5053711 5.546875 75.0073242 5.20263672 74.4360352 4.97314453 73.8647461 4.74365234 73.2519531 4.62890625 72.5976562 4.62890625 71.9433594 4.62890625 71.3330078 4.74365234 70.7666016 4.97314453 70.2001953 5.20263672 69.7045898 5.546875 69.2797852 6.00585938 68.8549805 6.46484375 68.5205078 7.03613281 68.2763672 7.71972656 68.0322266 8.40332031 67.9101562 9.19921875 67.9101562 10.1074219 67.9101562 11.015625 68.0322266 11.8115234 68.2763672 12.4951172 68.5205078 13.1787109 68.8549805 13.75 69.2797852 14.2089844 69.7045898 14.6679688 70.2001953 15.012207 70.7666016 15.2416992 71.3330078 15.4711914 71.9433594 15.5859375 72.5976562 15.5859375Z" transform="translate(9.516 43.137)"/></g></svg>