<svg xmlns="http://www.w3.org/2000/svg" width="121" height="121" viewBox="0 0 121 121"><g fill="none" fill-rule="evenodd" transform="translate(11 1)"><path fill="#000" d="M49.4394392,0.0318675407 C22.3057387,1.05655877 0,24.0129849 0,51.0632884 C0,74.1581311 15.7531577,94.1840908 37.6796234,100.284188 L39.123,100.664864 L42.9875735,113.982705 L43.1785408,114.537893 C46.0893205,121.820521 56.3606795,121.820521 59.2714592,114.537893 L59.414029,114.18119 L62.886,100.712864 L63.516,100.496864 L63.2562825,100.567939 C85.9193193,94.8977587 102,74.3341875 102,50.6129372 C102,22.1810388 78.2198674,-0.978760095 49.4394392,0.0318675407 Z M49.65,6.02817175 C75.3,5.12746941 96,25.8436231 96,50.6129372 C96,71.7794421 81.6,89.7934887 61.8,94.7473516 L60.7909333,95.0889513 C58.9125333,95.7454632 57.8597333,96.3059002 57.4021333,97.9231613 L57.3,98.3501609 L53.7,112.311047 C52.8473684,114.444289 49.9753463,114.556565 48.9101473,112.647875 L48.75,112.311047 L44.7,98.3501609 C44.3210526,96.4539455 43.9421053,95.8351804 41.6820674,95.1491811 L40.742703,94.8861535 C40.5702216,94.8409148 40.3894737,94.7947569 40.2,94.7473516 C20.85,89.7934887 6,72.2297932 6,51.0632884 C6,27.1946766 25.8,6.92887408 49.65,6.02817175 Z"/><path fill="#D5D5D5" d="M49.65,6.02817175 C75.3,5.12746941 96,25.8436231 96,50.6129372 C96,71.7794421 81.6,89.7934887 61.8,94.7473516 L60.7909333,95.0889513 C58.9125333,95.7454632 57.8597333,96.3059002 57.4021333,97.9231613 L57.3,98.3501609 L53.7,112.311047 C52.8473684,114.444289 49.9753463,114.556565 48.9101473,112.647875 L48.75,112.311047 L44.7,98.3501609 C44.3210526,96.4539455 43.9421053,95.8351804 41.6820674,95.1491811 L40.742703,94.8861535 C40.5702216,94.8409148 40.3894737,94.7947569 40.2,94.7473516 C20.85,89.7934887 6,72.2297932 6,51.0632884 C6,27.1946766 25.8,6.92887408 49.65,6.02817175 Z"/><g fill="#000" fill-rule="nonzero" transform="translate(15.325 41.15)"><path d="M10.7636719 22.2363281C9.5390625 22.2363281 8.41918945 22.0859375 7.40405273 21.7851563 6.38891602 21.484375 5.48388672 21.0734863 4.68896484 20.5524902 3.89404297 20.0314941 3.20117188 19.4165039 2.61035156 18.7075195 2.01953125 17.9985352 1.53076172 17.2331543 1.14404297 16.411377.757324219 15.5895996.469970703 14.7275391.281982422 13.8251953.0939941406 12.9228516 0 12.0205078 0 11.1181641 0 10.2158203.0939941406 9.31347656.281982422 8.41113281.469970703 7.50878906.757324219 6.64404297 1.14404297 5.81689453 1.53076172 4.98974609 2.01953125 4.22167969 2.61035156 3.51269531 3.20117188 2.80371094 3.89404297 2.1887207 4.68896484 1.66772461 5.48388672 1.14672852 6.38623047.738525391 7.39599609.443115234 8.40576172.147705078 9.52832031 0 10.7636719 0 12.0742188 0 13.3310547.179931641 14.5341797.539794922 15.7373047.899658203 16.8061523 1.43676758 17.7407227 2.15112305 18.675293 2.86547852 19.4406738 3.76245117 20.0368652 4.84204102 20.6330566 5.92163086 20.9794922 7.17578125 21.0761719 8.60449219L15.0820312 8.60449219C15.0498047 8.12109375 14.9182129 7.66992188 14.6872559 7.25097656 14.4562988 6.83203125 14.1501465 6.46679688 13.7687988 6.15527344 13.3874512 5.84375 12.9443359 5.59936523 12.4394531 5.42211914 11.9345703 5.24487305 11.3974609 5.15625 10.828125 5.15625 10.1728516 5.15625 9.56054688 5.2824707 8.99121094 5.53491211 8.421875 5.78735352 7.92504883 6.16333008 7.50073242 6.6628418 7.07641602 7.16235352 6.74072266 7.78540039 6.49365234 8.53198242 6.24658203 9.27856445 6.12304688 10.1513672 6.12304688 11.1503906 6.12304688 12.1386719 6.24658203 13.0061035 6.49365234 13.7526855 6.74072266 14.4992676 7.07641602 15.1223145 7.50073242 15.6218262 7.92504883 16.1213379 8.421875 16.4946289 8.99121094 16.7416992 9.56054688 16.9887695 10.1728516 17.1123047 10.828125 17.1123047 11.3974609 17.1123047 11.9345703 17.0209961 12.4394531 16.8383789 12.9443359 16.6557617 13.3874512 16.4086914 13.7687988 16.097168 14.1501465 15.7856445 14.4562988 15.4177246 14.6872559 14.9934082 14.9182129 14.5690918 15.0498047 14.1152344 15.0820312 13.6318359L21.0761719 13.6318359C20.9794922 15.0712891 20.6330566 16.328125 20.0368652 17.4023438 19.4406738 18.4765625 18.675293 19.3708496 17.7407227 20.0852051 16.8061523 20.7995605 15.7373047 21.3366699 14.5341797 21.6965332 13.3310547 22.0563965 12.0742188 22.2363281 10.7636719 22.2363281ZM31.8398438 22.2363281C30.4648438 22.2363281 29.2375488 22.0322266 28.157959 21.6240234 27.0783691 21.2158203 26.1652832 20.6411133 25.4187012 19.8999023 24.6721191 19.1586914 24.1000977 18.2697754 23.7026367 17.2331543 23.3051758 16.1965332 23.1064453 15.0498047 23.1064453 13.7929688 23.1064453 12.5361328 23.3051758 11.3894043 23.7026367 10.3527832 24.1000977 9.31616211 24.6721191 8.42724609 25.4187012 7.68603516 26.1652832 6.94482422 27.0783691 6.37011719 28.157959 5.96191406 29.2375488 5.55371094 30.4648438 5.34960938 31.8398438 5.34960938 33.2041016 5.34960938 34.4287109 5.55371094 35.5136719 5.96191406 36.5986328 6.37011719 37.5144043 6.94482422 38.2609863 7.68603516 39.0075684 8.42724609 39.5795898 9.31616211 39.9770508 10.3527832 40.3745117 11.3894043 40.5732422 12.5361328 40.5732422 13.7929688 40.5732422 15.0498047 40.3745117 16.1965332 39.9770508 17.2331543 39.5795898 18.2697754 39.0075684 19.1586914 38.2609863 19.8999023 37.5144043 20.6411133 36.5986328 21.2158203 35.5136719 21.6240234 34.4287109 22.0322266 33.2041016 22.2363281 31.8398438 22.2363281ZM31.8398438 17.8857422C32.2802734 17.8857422 32.6643066 17.7810059 32.9919434 17.5715332 33.3195801 17.3620605 33.5908203 17.0720215 33.8056641 16.701416 34.0205078 16.3308105 34.1816406 15.895752 34.2890625 15.3962402 34.3964844 14.8967285 34.4501953 14.3623047 34.4501953 13.7929688 34.4501953 13.2236328 34.3964844 12.689209 34.2890625 12.1896973 34.1816406 11.6901855 34.0205078 11.255127 33.8056641 10.8845215 33.5908203 10.513916 33.3195801 10.223877 32.9919434 10.0144043 32.6643066 9.80493164 32.2802734 9.70019531 31.8398438 9.70019531 31.3994141 9.70019531 31.0153809 9.80493164 30.6877441 10.0144043 30.3601074 10.223877 30.0888672 10.513916 29.8740234 10.8845215 29.6591797 11.255127 29.4980469 11.6901855 29.390625 12.1896973 29.2832031 12.689209 29.2294922 13.2236328 29.2294922 13.7929688 29.2294922 14.3623047 29.2832031 14.8967285 29.390625 15.3962402 29.4980469 15.895752 29.6591797 16.3308105 29.8740234 16.701416 30.0888672 17.0720215 30.3601074 17.3620605 30.6877441 17.5715332 31.0153809 17.7810059 31.3994141 17.8857422 31.8398438 17.8857422ZM43.7314453.38671875 51.2724609.38671875C52.765625.38671875 54.1137695.553222656 55.3168945.886230469 56.5200195 1.21923828 57.548584 1.72412109 58.4025879 2.40087891 59.2565918 3.07763672 59.9145508 3.92358398 60.3764648 4.9387207 60.8383789 5.95385742 61.0693359 7.14355469 61.0693359 8.5078125 61.0693359 9.87207031 60.8383789 11.0617676 60.3764648 12.0769043 59.9145508 13.092041 59.2565918 13.9379883 58.4025879 14.6147461 57.548584 15.2915039 56.5200195 15.7963867 55.3168945 16.1293945 54.1137695 16.4624023 52.765625 16.6289063 51.2724609 16.6289063L49.6611328 16.6289063 49.6611328 21.8496094 43.7314453 21.8496094 43.7314453.38671875ZM51.4658203 11.9560547C52.6367188 11.9560547 53.5095215 11.6660156 54.0842285 11.0859375 54.6589355 10.5058594 54.9462891 9.64648438 54.9462891 8.5078125 54.9462891 7.36914063 54.6589355 6.50976563 54.0842285 5.9296875 53.5095215 5.34960938 52.6367188 5.05957031 51.4658203 5.05957031L49.6611328 5.05957031 49.6611328 11.9560547 51.4658203 11.9560547Z"/><polygon points="64.292 .387 70.222 .387 70.222 21.85 64.292 21.85"/></g></g></svg>