<svg xmlns="http://www.w3.org/2000/svg" width="121" height="121" viewBox="0 0 121 121"><g fill="none" fill-rule="evenodd" transform="translate(11 1)"><path fill="#D5D5D5" d="M49.65,6.02817175 C75.3,5.12746941 96,25.8436231 96,50.6129372 C96,71.7794421 81.6,89.7934887 61.8,94.7473516 L60.7909333,95.0889513 C58.9125333,95.7454632 57.8597333,96.3059002 57.4021333,97.9231613 L57.3,98.3501609 L53.7,112.311047 C52.8473684,114.444289 49.9753463,114.556565 48.9101473,112.647875 L48.75,112.311047 L44.7,98.3501609 C44.3210526,96.4539455 43.9421053,95.8351804 41.6820674,95.1491811 L40.742703,94.8861535 C40.5702216,94.8409148 40.3894737,94.7947569 40.2,94.7473516 C20.85,89.7934887 6,72.2297932 6,51.0632884 C6,27.1946766 25.8,6.92887408 49.65,6.02817175 Z"/></g></svg>