<svg xmlns="http://www.w3.org/2000/svg" width="121" height="121" viewBox="0 0 121 121"><g fill="none" fill-rule="evenodd" transform="translate(11 1)"><path fill="#000" d="M49.4394392,0.0320036075 C22.3057387,1.05669484 0,24.0131209 0,51.0634245 C0,74.1582672 15.7531577,94.1842269 37.6796234,100.284324 L39.123,100.665 L42.9875735,113.982841 L43.1785408,114.538029 C46.0893205,121.820657 56.3606795,121.820657 59.2714592,114.538029 L59.414029,114.181326 L62.886,100.713 L63.516,100.497 L63.2562825,100.568075 C85.9193193,94.8978948 102,74.3343236 102,50.6130733 C102,22.1811749 78.2198674,-0.978624028 49.4394392,0.0320036075 Z M49.65,6.02830781 C75.3,5.12760548 96,25.8437591 96,50.6130733 C96,71.7795781 81.6,89.7936248 61.8,94.7474876 L60.7909333,95.0890873 C58.9125333,95.7455993 57.8597333,96.3060363 57.4021333,97.9232973 L57.3,98.350297 L53.7,112.311183 C52.8473684,114.444425 49.9753463,114.556701 48.9101473,112.648011 L48.75,112.311183 L44.7,98.350297 C44.3210526,96.4540815 43.9421053,95.8353165 41.6820674,95.1493172 L40.742703,94.8862895 C40.5702216,94.8410509 40.3894737,94.794893 40.2,94.7474876 C20.85,89.7936248 6,72.2299293 6,51.0634245 C6,27.1948126 25.8,6.92901015 49.65,6.02830781 Z"/><path fill="#D5D5D5" d="M49.65,6.02830781 C75.3,5.12760548 96,25.8437591 96,50.6130733 C96,71.7795781 81.6,89.7936248 61.8,94.7474876 L60.7909333,95.0890873 C58.9125333,95.7455993 57.8597333,96.3060363 57.4021333,97.9232973 L57.3,98.350297 L53.7,112.311183 C52.8473684,114.444425 49.9753463,114.556701 48.9101473,112.648011 L48.75,112.311183 L44.7,98.350297 C44.3210526,96.4540815 43.9421053,95.8353165 41.6820674,95.1493172 L40.742703,94.8862895 C40.5702216,94.8410509 40.3894737,94.794893 40.2,94.7474876 C20.85,89.7936248 6,72.2299293 6,51.0634245 C6,27.1948126 25.8,6.92901015 49.65,6.02830781 Z"/><path fill="#000" fill-rule="nonzero" d="M0 0 10.96875 0C13.140625 0 15.1015625.2421875 16.8515625.7265625 18.6015625 1.2109375 20.0976562 1.9453125 21.3398438 2.9296875 22.5820312 3.9140625 23.5390625 5.14453125 24.2109375 6.62109375 24.8828125 8.09765625 25.21875 9.828125 25.21875 11.8125 25.21875 13.796875 24.8828125 15.5273438 24.2109375 17.0039062 23.5390625 18.4804688 22.5820312 19.7109375 21.3398438 20.6953125 20.0976562 21.6796875 18.6015625 22.4140625 16.8515625 22.8984375 15.1015625 23.3828125 13.140625 23.625 10.96875 23.625L8.625 23.625 8.625 31.21875 0 31.21875 0 0ZM11.25 16.828125C12.953125 16.828125 14.2226562 16.40625 15.0585938 15.5625 15.8945312 14.71875 16.3125 13.46875 16.3125 11.8125 16.3125 10.15625 15.8945312 8.90625 15.0585938 8.0625 14.2226562 7.21875 12.953125 6.796875 11.25 6.796875L8.625 6.796875 8.625 16.828125 11.25 16.828125ZM29.90625 0 42.65625 0C45.234375 0 47.5078125.375 49.4765625 1.125 51.4453125 1.875 53.0976562 2.93359375 54.4335938 4.30078125 55.7695312 5.66796875 56.78125 7.3125 57.46875 9.234375 58.15625 11.15625 58.5 13.28125 58.5 15.609375 58.5 17.9375 58.15625 20.0625 57.46875 21.984375 56.78125 23.90625 55.7695312 25.5507813 54.4335938 26.9179688 53.0976562 28.2851562 51.4453125 29.34375 49.4765625 30.09375 47.5078125 30.84375 45.234375 31.21875 42.65625 31.21875L29.90625 31.21875 29.90625 0ZM42.28125 24.1875C43.625 24.1875 44.7578125 23.9414062 45.6796875 23.4492188 46.6015625 22.9570312 47.34375 22.3085938 47.90625 21.5039062 48.46875 20.6992188 48.875 19.78125 49.125 18.75 49.375 17.71875 49.5 16.671875 49.5 15.609375 49.5 14.546875 49.375 13.5 49.125 12.46875 48.875 11.4375 48.46875 10.5195312 47.90625 9.71484375 47.34375 8.91015625 46.6015625 8.26171875 45.6796875 7.76953125 44.7578125 7.27734375 43.625 7.03125 42.28125 7.03125L38.53125 7.03125 38.53125 24.1875 42.28125 24.1875Z" transform="translate(22.57 34.781)"/></g></svg>