<svg xmlns="http://www.w3.org/2000/svg" width="121" height="121" viewBox="0 0 121 121"><g fill="none" fill-rule="evenodd" transform="translate(11 1)"><path fill="#000" d="M49.4394392,0.0320036075 C22.3057387,1.05669484 0,24.0131209 0,51.0634245 C0,74.1582672 15.7531577,94.1842269 37.6796234,100.284324 L39.123,100.665 L42.9875735,113.982841 L43.1785408,114.538029 C46.0893205,121.820657 56.3606795,121.820657 59.2714592,114.538029 L59.414029,114.181326 L62.886,100.713 L63.516,100.497 L63.2562825,100.568075 C85.9193193,94.8978948 102,74.3343236 102,50.6130733 C102,22.1811749 78.2198674,-0.978624028 49.4394392,0.0320036075 Z M49.65,6.02830781 C75.3,5.12760548 96,25.8437591 96,50.6130733 C96,71.7795781 81.6,89.7936248 61.8,94.7474876 L60.7909333,95.0890873 C58.9125333,95.7455993 57.8597333,96.3060363 57.4021333,97.9232973 L57.3,98.350297 L53.7,112.311183 C52.8473684,114.444425 49.9753463,114.556701 48.9101473,112.648011 L48.75,112.311183 L44.7,98.350297 C44.3210526,96.4540815 43.9421053,95.8353165 41.6820674,95.1493172 L40.742703,94.8862895 C40.5702216,94.8410509 40.3894737,94.794893 40.2,94.7474876 C20.85,89.7936248 6,72.2299293 6,51.0634245 C6,27.1948126 25.8,6.92901015 49.65,6.02830781 Z"/><path fill="#D5D5D5" d="M49.65,6.02830781 C75.3,5.12760548 96,25.8437591 96,50.6130733 C96,71.7795781 81.6,89.7936248 61.8,94.7474876 L60.7909333,95.0890873 C58.9125333,95.7455993 57.8597333,96.3060363 57.4021333,97.9232973 L57.3,98.350297 L53.7,112.311183 C52.8473684,114.444425 49.9753463,114.556701 48.9101473,112.648011 L48.75,112.311183 L44.7,98.350297 C44.3210526,96.4540815 43.9421053,95.8353165 41.6820674,95.1493172 L40.742703,94.8862895 C40.5702216,94.8410509 40.3894737,94.794893 40.2,94.7474876 C20.85,89.7936248 6,72.2299293 6,51.0634245 C6,27.1948126 25.8,6.92901015 49.65,6.02830781 Z"/><path fill="#000" d="M46.5,11.6249999 L49.1249998,25.4999999 L59.6249998,29.2499999 L65.2500001,36.75 L65.6249998,46.875 L76.8750001,58.1249999 L69.0000001,66.0000001 L56.6249998,53.6249999 L54.75,45.75 C49.875,48 36.75,54 28.4999999,58.8750001 C28.7249999,60.4500001 29.2199999,63.2400001 29.7419999,66.111 L29.9166666,67.0694445 C30.2083333,68.6666667 30.4999999,70.2499999 30.7499999,71.6249999 L31.1249998,73.1249999 L19.4999999,76.8750001 L16.4999999,54.75 L26.6249998,49.5 L22.8749999,42.375 L12.3749999,47.6249999 L8.62499985,36 L27.3749999,29.9999999 L32.6249998,40.1249999 L44.25,33.75 L37.875,30.3749999 L37.875,11.6249999 L46.5,11.6249999 Z M43.5,15.3749999 L41.6249999,15.3749999 L41.6249999,28.1249999 L52.5,33.75 L31.1249999,45 L25.4999999,34.5 L13.1249999,38.625 L14.6249999,42.75 L24.3749999,37.5 L31.4999999,51.3749999 L20.2499999,57 L22.4999999,72.0000001 L26.6249999,70.5000001 C24.5338234,59.6955881 24.386211,58.6089966 24.3757913,58.2083687 L24.3749999,57 L25.1249999,56.625 C35.25,50.625 54.375,42 55.1249999,41.625 L57.3750001,40.5 L60.0000001,51.75 L69.0000001,60.7500001 L71.6249999,58.1250001 L61.8750001,48.3749999 L61.5000001,37.8749999 L57.3750001,32.2499999 L46.1249999,28.1249999 L43.5,15.3749999 Z M66.0000001,24.7499999 C68.6250001,21.7499999 73.5000001,21.7499999 76.5000001,24.7499999 C79.5000001,27.7499999 79.5000001,32.2499999 76.5000001,35.25 C73.8750001,38.25 69.0000001,38.25 66.0000001,35.25 C63.0000001,32.6249999 63.0000001,27.7499999 66.0000001,24.7499999 Z M71.2500001,26.2499999 C70.1250001,26.2499999 69.3750001,26.6249999 68.6250001,27.3749999 C67.1250001,28.4999999 67.1250001,31.1249999 68.6250001,32.6249999 C70.1250001,34.125 72.3750001,34.125 73.8750001,32.6249999 C75.3750001,31.1249999 75.3750001,28.8749999 73.8750001,27.3749999 C73.1250001,26.6249999 72.3750001,26.2499999 71.2500001,26.2499999 Z" transform="translate(6 6)"/></g></svg>