<svg xmlns="http://www.w3.org/2000/svg" width="121" height="121" viewBox="0 0 121 121"><g fill="none" fill-rule="evenodd" transform="translate(11 1)"><path fill="#FFF" fill-rule="nonzero" d="M49.4394392,0.0320036075 C22.3057387,1.05669484 0,24.0131209 0,51.0634245 C0,74.1582672 15.7531577,94.1842269 37.6796234,100.284324 L39.123,100.665 L42.9875735,113.982841 L43.1785408,114.538029 C46.0893205,121.820657 56.3606795,121.820657 59.2714592,114.538029 L59.414029,114.181326 L62.886,100.713 L63.516,100.497 L63.2562825,100.568075 C85.9193193,94.8978948 102,74.3343236 102,50.6130733 C102,22.1811749 78.2198674,-0.978624028 49.4394392,0.0320036075 Z M49.65,6.02830781 C75.3,5.12760548 96,25.8437591 96,50.6130733 C96,71.7795781 81.6,89.7936248 61.8,94.7474876 L60.7909333,95.0890873 C58.9125333,95.7455993 57.8597333,96.3060363 57.4021333,97.9232973 L57.3,98.350297 L53.7,112.311183 C52.8473684,114.444425 49.9753463,114.556701 48.9101473,112.648011 L48.75,112.311183 L44.7,98.350297 C44.3210526,96.4540815 43.9421053,95.8353165 41.6820674,95.1493172 L40.742703,94.8862895 C40.5702216,94.8410509 40.3894737,94.794893 40.2,94.7474876 C20.85,89.7936248 6,72.2299293 6,51.0634245 C6,27.1948126 25.8,6.92901015 49.65,6.02830781 Z"/><path fill="#009EE0" d="M49.65,6.02830781 C75.3,5.12760548 96,25.8437591 96,50.6130733 C96,71.7795781 81.6,89.7936248 61.8,94.7474876 L60.7909333,95.0890873 C58.9125333,95.7455993 57.8597333,96.3060363 57.4021333,97.9232973 L57.3,98.350297 L53.7,112.311183 C52.8473684,114.444425 49.9753463,114.556701 48.9101473,112.648011 L48.75,112.311183 L44.7,98.350297 C44.3210526,96.4540815 43.9421053,95.8353165 41.6820674,95.1493172 L40.742703,94.8862895 C40.5702216,94.8410509 40.3894737,94.794893 40.2,94.7474876 C20.85,89.7936248 6,72.2299293 6,51.0634245 C6,27.1948126 25.8,6.92901015 49.65,6.02830781 Z"/><path fill="#FFF" fill-rule="nonzero" d="M15.7170449,60 L15.7170449,19.65 C10.9769837,18.65 7.17246097,16.5125 4.30347658,13.2375 C1.43449219,9.9625 0,6.15 0,1.8 L4.49058426,1.8 C4.49058426,5.7 5.99991952,8.975 9.01859005,11.625 C12.0372606,14.275 15.7170449,15.6 20.057943,15.6 L27.5422501,15.6 C29.4382746,15.6 30.8353452,15.7625 31.7334621,16.0875 C32.6315789,16.4125 33.7791727,17.175 35.1762434,18.375 L48.9473684,31.275 L45.7291164,34.5 L31.8831482,21.45 L31.8831482,60 L27.392564,60 L27.392564,40.875 L20.2076292,40.875 L20.2076292,60 L15.7170449,60 Z M23.8000966,10.95 C22.3032352,10.95 21.0184291,10.4125 19.9456784,9.3375 C18.8729277,8.2625 18.3365524,6.975 18.3365524,5.475 C18.3365524,3.975 18.8729277,2.6875 19.9456784,1.6125 C21.0184291,0.5375 22.3032352,0 23.8000966,0 C25.296958,0 26.581764,0.5375 27.6545147,1.6125 C28.7272654,2.6875 29.2636408,3.975 29.2636408,5.475 C29.2636408,6.975 28.7272654,8.2625 27.6545147,9.3375 C26.581764,10.4125 25.296958,10.95 23.8000966,10.95 L23.8000966,10.95 Z" transform="translate(27 21)"/></g></svg>