<svg xmlns="http://www.w3.org/2000/svg" width="121" height="121" viewBox="0 0 121 121"><g fill="none" fill-rule="evenodd" transform="translate(12 12)"><g opacity=".9"><path fill="#FFF" d="M48,0 C21.490332,0 0,21.490332 0,48 C0,74.509668 21.490332,96 48,96 C74.509668,96 96,74.509668 96,48 C96,21.490332 74.509668,0 48,0 Z M48,6 C71.1959595,6 90,24.8040405 90,48 C90,71.1959595 71.1959595,90 48,90 C24.8040405,90 6,71.1959595 6,48 C6,24.8040405 24.8040405,6 48,6 Z"/><circle cx="48" cy="48" r="42" fill="#004535"/></g><path fill="#FFF" fill-rule="nonzero" d="M34.6365105,69.9430712 L26.4230589,81.0258634 L33.0894276,69.2137416 C32.7015776,69.0009926 32.2680668,68.7422655 31.7976629,68.4294469 L30.4016619,69.700805 C30.4016619,69.700805 27.996053,68.003168 26.9714879,66.1833809 L28.048403,64.749987 C28.048403,64.749987 26.8667878,63.2816931 26.368216,61.9380421 L24.830122,61.903142 C24.3248682,60.7274081 24.0433467,59.4677476 24,58.1887821 L25.4682939,57.3586601 C25.2853826,56.3153854 25.3031501,55.2467963 25.520644,54.2101792 L24.388886,53.6268502 C24.388886,53.6268502 24.6257076,51.4082057 25.3860296,50.1368476 L26.7845235,50.1169047 C26.7845235,50.1169047 27.8265386,47.2102311 29.2250325,45.7145157 L26.9415736,45.6621657 C26.0496828,43.4497473 25.6868905,41.0595865 25.8821085,38.6821605 L27.9362244,38.1511815 C27.9362244,38.1511815 27.7766814,34.9329005 28.8186964,33.2876136 L27.1210595,31.7320696 C27.1210595,31.7320696 27.7243313,29.6280966 30.5163334,27.2922877 L32.6028564,28.2645027 C32.6028564,28.2645027 33.263464,27.2274734 35.7164373,26.190444 L35.4671514,24.3507141 C35.4671514,24.3507141 36.9379382,23.4557777 39.8620618,23.2189561 L40.7096339,24.6822643 C40.7096339,24.6822643 42.8310569,24.3507141 44.0101792,24.8218645 L44.6234225,23.4557777 C44.6234225,23.4557777 44.6305576,23.4553567 44.6445472,23.4549623 L44.7528203,23.4548775 C45.1768372,23.4635333 46.6060763,23.5812516 48.4923397,24.6822643 L48.3028824,26.0483511 L48.3460126,26.0684613 C48.6543928,26.213503 50.5283822,27.1161257 51.0973773,27.8930667 L52.2640353,27.1152947 L52.2961497,27.1475703 C52.4414757,27.2940155 53.0560635,27.917499 53.6460933,28.5782243 L64.6685017,15 L54.7416283,32.2275047 C55.3502567,33.0331381 55.8849191,33.8923707 56.3389601,34.7947543 L56.555,35.241 L57.7782394,33.0582706 L57.8214728,33.0585115 C58.1330853,33.0667298 60.1482058,33.223807 64.4815373,35.7804726 L63.8807582,37.8844456 C63.8807582,37.8844456 66.0021813,38.6447676 67.6649182,41.1575695 L69.7863412,40.4097118 C69.7863412,40.4097118 71.4490782,42.1422488 71.8903142,45.5026227 L70.1453129,46.6343807 C70.3867125,47.903932 70.4579698,49.1999771 70.3572059,50.4883407 L72,51.1888341 C72,51.1888341 71.8753571,53.823786 70.8308491,55.6286159 L69.1157621,55.6286159 C69.1157621,55.6286159 68.8041548,56.618281 67.3707608,58.403168 L68.2731758,59.694469 C68.2731758,59.694469 67.0167749,61.4992989 65.2318878,62.364321 L63.885744,61.5740847 C63.1433592,62.2529785 62.2340868,62.7226689 61.250792,62.9351857 L61.2133991,64.2987795 C61.2133991,64.2987795 59.0844975,65.1638016 57.7233965,65.2186445 L57.0677746,63.9971436 C57.0677746,63.9971436 54.3630226,64.4034796 52.0122566,63.9796936 L51.8527136,64.2289795 L53.1440145,66.1210595 C53.1440145,66.1210595 50.1376266,69.6933264 47.4478317,70.6680343 L46.0169307,69.1723189 C46.0169307,69.1723189 44.2644508,70.6007271 41.2057128,70.850013 L40.8342768,73.0088289 C40.8342768,73.0088289 37.6882888,73.2730719 35.3001298,72.353207 L35.1231368,70.1096339 C35.1231368,70.1096339 34.9856035,70.0730613 34.7327232,69.9793856 L34.6365105,69.9430712 Z M32.1541418,50.8248767 C32.1541418,50.8248767 25.9992729,56.0125162 30.9974552,62.9675928 C30.9974552,62.9675928 31.0144428,62.9866196 31.0478413,63.0210297 L31.0957599,63.0694726 C31.4914029,63.462549 33.0616792,64.8666008 35.4499223,65.0279938 L38.2616463,60.0459621 L40.0515191,61.3173202 L41.6768632,60.4423267 L38.6829828,64.4820067 C40.0402606,63.9400069 41.5371651,62.9548908 43.1401714,61.3148273 L41.6294988,60.3027266 L40.1337834,61.2026487 C40.1337834,61.2026487 34.4051935,58.0018177 32.2488704,54.5890937 L33.1662425,52.3455206 C33.1662425,52.3455206 32.2713062,51.2137627 32.1541418,50.8248767 Z M58.4189042,44.1415217 C58.4189042,44.1415217 58.2867827,45.8715658 58.2593612,45.9887302 C58.2319398,46.1058946 59.9096339,47.2027525 59.9096339,47.2027525 C59.7750195,53.3775643 58.1795897,57.1043885 58.1795897,57.1043885 L55.7041807,57.3536744 L55.063516,59.0837185 C55.9434952,59.1884186 64.2222799,60.8137627 66.1367956,53.6517788 C68.0538042,46.4922877 58.4189042,44.1415217 58.4189042,44.1415217 Z M50.3145249,43.8416773 L50.2227806,43.8453778 C50.1780425,43.8481321 50.1333412,43.8510516 50.0886788,43.8541333 L44.578551,51.0218125 L47.7868606,53.1905998 L47.0788886,53.8985718 C46.3343978,53.3433014 45.6081159,52.7646564 44.9011025,52.1635743 C45.8372792,53.0670644 46.8081847,53.9352624 47.8117891,54.7660867 C47.8117891,54.7660867 49.5418333,48.7732537 49.9556479,46.0859517 C50.0529647,45.4501483 50.1833534,44.6849879 50.3145249,43.8416773 Z M44.5359371,44.9916306 C42.5699044,45.6362084 40.9871088,46.3938615 40.1131317,46.8493447 L40.5875859,47.4473192 C40.9698244,47.921469 41.3603508,48.3886163 41.7589637,48.8485537 L44.5359371,44.9916306 Z M39.0568683,28.7780317 C35.243288,31.9595186 34.866858,35.8472445 36.0850925,39.6346112 L36.0978447,39.626954 L38.0597247,38.6298104 L38.0597247,36.7377305 C38.0597247,36.7377305 40.4528694,34.5465074 47.3855103,33.4546352 L48.385,35.059 L49.9447778,33.1387388 C49.3946322,31.8543351 48.399466,30.443174 46.2516824,28.9835025 L45.9421449,28.7780317 C42.4521423,26.5145157 39.0568683,28.7780317 39.0568683,28.7780317 Z"/></g></svg>