<svg xmlns="http://www.w3.org/2000/svg" width="121" height="121" viewBox="0 0 121 121"><g fill="none" transform="translate(12 12)"><path fill="#FFF" d="M48,0 C21.490332,0 0,21.490332 0,48 C0,74.509668 21.490332,96 48,96 C74.509668,96 96,74.509668 96,48 C96,21.490332 74.509668,0 48,0 Z M48,6 C71.1959595,6 90,24.8040405 90,48 C90,71.1959595 71.1959595,90 48,90 C24.8040405,90 6,71.1959595 6,48 C6,24.8040405 24.8040405,6 48,6 Z"/><circle cx="48" cy="48" r="42" fill="#185648" fill-rule="evenodd"/><path fill="#FFF" d="M70.3290001,27.513 C71.2530001,27.513 71.9999999,26.763 71.9999999,25.842 C71.9999999,24.918 71.2530001,24.171 70.3290001,24.171 L58.6710001,24.171 C57.7470001,24.171 56.9999999,24.918 56.9999999,25.842 C56.9999999,26.766 57.7470001,27.513 58.6710001,27.513 L62.9999999,27.513 L62.9999999,33.192 C61.3650001,33.624 60.0150001,34.737 59.2320001,36.225 L47.9999999,36.225 C47.9999999,32.91 42.627,30.225 35.9999999,30.225 C29.373,30.225 23.9999999,32.91 23.9999999,36.225 L12.6389999,36.225 C11.8409999,34.83 10.5479999,33.795 8.99999985,33.375 L8.99999985,27.567 L13.3289999,27.567 C14.2529999,27.567 14.9999999,26.82 14.9999999,25.896 C14.9999999,24.972 14.2529999,24.225 13.3289999,24.225 L1.67099986,24.225 C0.746999853,24.225 -1.49999991e-07,24.975 -1.49999991e-07,25.896 C-1.49999991e-07,26.817 0.746999853,27.567 1.67099986,27.567 L5.99999985,27.567 L5.99999985,33.378 C3.41699986,34.074 1.49999985,36.498 1.49999985,39.408 C1.49999985,42.861 4.18499987,45.657 7.49999985,45.657 C9.83399989,45.657 11.8349999,44.253 12.8279999,42.228 L27.18,42.228 C28.014,45.651 31.644,48.2280001 35.9999999,48.2280001 C40.356,48.2280001 43.983,45.651 44.82,42.228 L59.3670001,42.228 C60.4140001,44.016 62.3100001,45.228 64.5030001,45.228 C67.8180001,45.228 70.5030001,42.486 70.5030001,39.102 C70.5030001,36.252 68.5860001,33.876 66.0030001,33.195 L66.0030001,27.513 L70.3290001,27.513 L70.3290001,27.513 Z" transform="translate(12 12)"/></g></svg>