<svg xmlns="http://www.w3.org/2000/svg" width="121" height="121" viewBox="0 0 121 121"><g fill="none" fill-rule="evenodd" transform="translate(12 12)"><path fill="#FFF" d="M48,0 C21.490332,0 0,21.490332 0,48 C0,74.509668 21.490332,96 48,96 C74.509668,96 96,74.509668 96,48 C96,21.490332 74.509668,0 48,0 Z M48,6 C71.1959595,6 90,24.8040405 90,48 C90,71.1959595 71.1959595,90 48,90 C24.8040405,90 6,71.1959595 6,48 C6,24.8040405 24.8040405,6 48,6 Z"/><circle cx="48" cy="48" r="42" fill="#004535"/><path fill="#FFF" fill-rule="nonzero" d="M75.6462185,41.5848739 C75.5537815,43.8218487 73.5016807,45.8554622 70.2109244,45.4117647 C71.3016807,45.0420168 72.207563,44.394958 72.2260504,43.4151261 C72.2815126,42.4907563 71.7823529,41.5848739 70.3403361,41.6218487 C68.1403361,41.6403361 67.1605042,44.2285714 67.9369748,46.2806723 C69.8226891,47.4823529 71.2831933,49.3495798 70.7840336,53.3243697 C72.6512605,53.2319328 73.6310924,54.3042017 73.5201681,55.487395 C72.910084,55.0067227 71.412605,54.8588235 70.1739496,55.4134454 C68.6210084,58.3529412 65.7,59.7394958 61.9285714,59.3512605 C62.6680672,61.292437 62.6680672,63.4739496 62.2983193,64.7865546 C64.0176471,65.6184874 65.2747899,67.005042 66.5134454,68.8352941 C68.2697479,68.7058824 70.1369748,69.7226891 70.5067227,71.2201681 C68.2882353,70.5361345 65.6260504,72.0336134 64.7571429,76.7848739 C61.7991597,77.8386555 59.6546218,79.1882353 57.2697479,81 C57.2327731,79.8907563 57.1957983,78.892437 58.0462185,77.5243697 C56.8815126,77.8756303 55.3470588,78.6890756 53.6277311,79.8907563 C53.1470588,78.9848739 53.4613445,77.6907563 54.7554622,76.3226891 C53.7756303,76.507563 52.0747899,77.1361345 50.6327731,78.005042 C49.7823529,74.8067227 54.1268908,73.2168067 60.9487395,73.0319328 C60.9857143,72.3663866 61.0596639,71.2201681 61.1521008,70.5915966 C59.0630252,70.1109244 57.787395,69.7411765 56.5857143,69.0941176 C55.6243697,69.8705882 54.4411765,70.5361345 53.1840336,70.9798319 C53.6647059,70.1663866 53.8495798,68.7798319 53.6462185,67.7445378 C52.3705882,64.712605 52.9067227,61.4588235 55.0142857,59.4436975 C52.9067227,55.3394958 49.1722689,53.0470588 43.607563,51.2722689 C49.3201681,49.9596639 52.0932773,47.389916 53.9420168,45.189916 C57.2697479,48.3327731 58.4529412,52.0117647 59.4142857,53.9529412 C60.1907563,55.487395 61.5957983,56.7260504 63.7218487,56.7260504 C66.1067227,56.7260504 68.0848739,55.2840336 68.0848739,52.7327731 C68.0848739,50.6621849 67.2344538,49.3310924 65.4226891,49.3680672 C63.0747899,49.405042 62.797479,52.0672269 64.294958,52.6773109 C62.1689076,53.3613445 60.8008403,51.4941176 60.8008403,49.6453782 C60.8008403,47.7781513 62.4831933,45.5596639 66.0512605,45.9294118 C63.9067227,41.6218487 66.6243697,37.5731092 71.0983193,37.4991597 C73.8159664,37.4436975 75.7571429,39.1445378 75.6462185,41.5848739 Z M45.6781513,55.4504202 C49.1537815,56.2453782 50.7621849,57.3361345 52.4630252,59.5731092 C49.7453782,60.6084034 44.1621849,63.4739496 44.2546218,67.5226891 C45.8445378,67.892437 47.4529412,68.0033613 48.9504202,67.9663866 C48.2663866,69.0571429 47.1386555,69.9630252 46.0294118,70.4067227 C46.7319328,71.1831933 47.6563025,71.7747899 48.710084,72.3109244 C45.6226891,73.1983193 43.4226891,75.0655462 43.3117647,77.5428571 C40.4831933,77.9865546 36.7117647,78.6336134 35.4546218,80.2789916 C35.0109244,79.1327731 35.2512605,77.6352941 36.1201681,76.6369748 C34.5487395,76.8588235 32.9403361,77.9310924 32.1453782,79.2436975 C31.4798319,77.6907563 31.7016807,75.5462185 33.2731092,74.9915966 C32.2378151,74.5478992 30.7033613,74.4554622 29.8529412,75.0470588 C30.0563025,70.7764706 36.305042,72.2184874 39.0042017,73.512605 C39.9470588,68.2067227 35.0663866,65.3966387 31.8865546,65.692437 C32.8663866,64.805042 34.9554622,64.3243697 35.9537815,64.1210084 C36.212605,58.5747899 42.3504202,57.0773109 47.7487395,57.6689076 C47.4529412,56.9663866 46.9352941,56.3193277 45.6781513,55.4504202 Z M27.412605,54.3781513 C27.2831933,55.2470588 27.7268908,56.4487395 28.4848739,56.9663866 C28.0781513,57.1327731 27.3386555,57.594958 26.5991597,58.389916 C25.8226891,59.2403361 25.5268908,60.2016807 24.9907563,61.3478992 C24.6210084,60.4235294 24.6394958,59.3327731 24.8798319,58.6117647 C24.4731092,58.9815126 23.5672269,59.2403361 22.494958,59.1848739 C23.3084034,58.6302521 24.1033613,57.2991597 24.4915966,56.707563 C25.1571429,55.7092437 26.2478992,54.7663866 27.412605,54.3781513 Z M39.8731092,54.692437 C37.7840336,57.3176471 35.3067227,59.2588235 32.2563025,60.312605 L32.1638655,55.6537815 C33.2915966,54.1378151 35.787395,53.8235294 39.8731092,54.692437 Z M46.4546218,44.8016807 C46.3621849,48.6470588 42.997479,49.8302521 34.0865546,52.6403361 C32.2378151,53.2319328 30.2781513,54.6369748 29.889916,55.8756303 C28.9655462,54.4336134 29.5386555,53.2134454 30.6109244,52.3815126 C29.2243697,52.2151261 27.8193277,52.7512605 27.412605,53.5647059 C26.9319328,52.1596639 28.0781513,50.8655462 29.5571429,50.2739496 C28.2445378,50.0521008 26.9319328,50.2369748 26.3588235,50.5697479 C26.5806723,48.9613445 27.7268908,47.3344538 33.4579832,48.2588235 C39.7621849,44.0436975 43.9033613,44.487395 46.4546218,44.8016807 Z M30.9067227,38.2571429 L32.9033613,40.9008403 C32.4966387,42.194958 32.1823529,44.5798319 32.4596639,46.2621849 C27.4680672,45.4857143 24.8428571,46.9647059 24.3252101,49.5159664 C23.2529412,48.9613445 22.0697479,48.8504202 21.1823529,48.9983193 L19.5,46.3361345 L22.310084,47.1310924 L21.0159664,44.5428571 L23.7151261,45.6151261 L22.6983193,42.9159664 L25.2680672,44.2470588 L24.5470588,41.4369748 L26.9504202,43.0453782 L26.5436975,40.1798319 L28.7621849,41.9915966 L28.6697479,39.107563 L30.6848739,41.1411765 L30.9067227,38.2571429 Z M57.7504202,20.0285714 L58.2310924,22.5613445 C57.8983193,22.7831933 57.6764706,23.1529412 57.6764706,23.5781513 C57.6764706,24.2436975 58.2310924,24.7798319 58.9151261,24.7613445 C59.5806723,24.7428571 60.1352941,24.1882353 60.1352941,23.5226891 L62.3168067,23.4857143 L62.3168067,25.6672269 C61.6327731,25.6857143 61.0966387,26.2403361 61.0966387,26.9058824 C61.0966387,27.5714286 61.6327731,28.107563 62.3168067,28.0890756 C62.7420168,28.0890756 63.1117647,27.8487395 63.3336134,27.5159664 L65.9033613,27.9226891 L61.7991597,30.4554622 C61.6882353,30.4 61.5957983,30.3445378 61.4848739,30.2890756 L61.3184874,30.4369748 C62.1319328,32.5260504 61.5773109,36.6117647 60.9487395,38.7193277 C60.8193277,40.1798319 60.9487395,42.0655462 61.5957983,43.5260504 C60.1537815,42.9529412 59.0630252,42.0840336 58.3789916,41.1411765 C57.7689076,42.4907563 57.4176471,44.210084 57.3806723,45.7630252 C56.197479,44.9865546 54.792437,43.4151261 53.9789916,42.0655462 C52.6848739,43.7478992 50.0226891,45.892437 48.0815126,46.8537815 C48.5621849,45.2823529 48.6361345,43.6184874 48.4882353,42.4907563 C47.4714286,42.6201681 45.4378151,42.4537815 43.4966387,42.4537815 C41.0563025,42.4537815 37.9319328,43.0823529 35.8428571,44.4689076 C36.6563025,40.4756303 40.4831933,38.0352941 46.3252101,37.3697479 C49.9672269,36.9445378 51.797479,36.1495798 51.9268908,34.6705882 C50.0966387,35.4840336 47.6008403,35.6689076 47.397479,33.7831933 C49.2462185,33.9865546 51.3168067,33.2840336 51.3907563,31.6571429 C51.4647059,30.2151261 50.392437,29.6605042 49.2647059,29.6789916 C48.2663866,29.697479 47.2495798,30.1781513 47.1941176,30.6218487 L46.9722689,30.6403361 C45.9554622,30.0117647 45.2529412,28.4033613 45.6781513,27.0352941 C46.5840336,26.2957983 48.6546218,25.7596639 50.1336134,25.9445378 C51.0764706,25.0386555 52.6663866,24.2806723 55.2915966,24.5210084 L55.4210084,24.3915966 C55.3840336,24.2806723 55.3285714,24.2067227 55.2731092,24.0957983 L57.7504202,20.0285714 Z M35.9168067,29.9563025 C37.6176471,33.1731092 39.9285714,35.1882353 42.1655462,35.6504202 C38.412605,37.092437 36.305042,38.4420168 35.1033613,40.9008403 C33.7352941,38.7747899 33.2731092,36.5747899 33.2176471,34.5966387 C32.7369748,34.9848739 32.1084034,35.3546218 31.3134454,35.594958 C31.5722689,34.3747899 31.2394958,32.5815126 31.0915966,31.3613445 C32.7,31.7310924 34.5487395,30.9731092 35.9168067,29.9563025 Z M43.4042017,27.0168067 C43.1084034,27.4605042 42.9235294,28.1445378 42.9235294,28.5882353 C42.9235294,31.5277311 45.9369748,32.2672269 48.9689076,31.287395 C49.7638655,31.0285714 50.0966387,31.2689076 50.1336134,31.6016807 C50.1890756,31.9714286 49.8378151,32.2487395 49.0798319,32.507563 C39.4478992,35.8352941 38.9487395,27.3865546 43.4042017,27.0168067 Z M55.7907563,15 L53.3319328,18.4756303 C45.9739496,21.1563025 42.1470588,22.4689076 36.6193277,25.4453782 C37.0815126,26.2033613 37.8764706,27.0168067 38.689916,27.5714286 C37.987395,28.292437 36.8781513,28.994958 35.9168067,29.2537815 C35.8428571,28.0151261 35.4361345,26.4806723 34.6411765,25.5008403 L34.4747899,25.5378151 C34.012605,26.2218487 34.012605,27.6084034 34.197479,28.6252101 C33.4764706,28.3294118 32.6260504,27.7008403 32.2193277,26.9983193 C32.1268908,27.589916 32.2008403,28.6621849 32.4596639,29.6420168 C31.5722689,29.4756303 30.7957983,28.902521 30.3705882,28.3109244 C30.2966387,28.9394958 30.3336134,29.8823529 30.6109244,30.6588235 C30.0378151,30.4 29.3537815,30.0672269 28.9470588,29.6789916 C28.8546218,30.6218487 27.9857143,31.3428571 26.987395,31.3058824 C25.9705882,31.2689076 25.1941176,30.4369748 25.2680672,29.4756303 C25.3235294,28.4957983 26.2294118,27.7378151 27.2462185,27.7932773 C27.4495798,27.7932773 27.6344538,27.8487395 27.8193277,27.9226891 C27.3571429,26.4806723 28.5957983,25.4268908 29.6865546,25.6672269 C29.8344538,24.8168067 30.8882353,24.3361345 31.7016807,24.7058824 C31.9235294,24.0403361 33.0142857,23.6336134 33.7168067,24.0957983 L33.8092437,24.0218487 C33.2361345,23.097479 32.4411765,22.3579832 31.5722689,21.7663866 C32.3672269,21.0453782 33.5689076,20.3798319 34.5302521,20.1210084 C34.6042017,21.1378151 35.1033613,22.5428571 35.4731092,23.2823529 C41.592437,19.6773109 44.6243697,18.1428571 51.6680672,15 L55.7907563,15 Z M57.8243697,26.2403361 C57.6764706,26.2403361 57.5285714,26.2588235 57.3991597,26.2957983 C57.6210084,26.8134454 57.7319328,27.4420168 57.7319328,28.107563 C57.7319328,28.7546218 57.6210084,29.3647059 57.3991597,29.9008403 C57.5470588,29.9193277 57.6764706,29.9378151 57.8243697,29.9378151 C58.8596639,29.9193277 59.6915966,29.0689076 59.6915966,28.0521008 C59.6915966,27.0352941 58.8596639,26.2218487 57.8243697,26.2403361 Z M50.7806723,26.0369748 L50.7067227,26.2588235 C51.6310924,26.7579832 52.2596639,27.589916 52.4260504,28.1815126 C53.6092437,28.0521008 54.6445378,27.405042 55.0697479,26.3142857 C53.4983193,26.3142857 52.2781513,26.2033613 50.7806723,26.0369748 Z"/></g></svg>