<svg xmlns="http://www.w3.org/2000/svg" width="121" height="121" viewBox="0 0 121 121"><g fill="none" fill-rule="evenodd" transform="translate(12 12)"><g opacity=".9"><path fill="#FFF" d="M48,0 C21.490332,0 0,21.490332 0,48 C0,74.509668 21.490332,96 48,96 C74.509668,96 96,74.509668 96,48 C96,21.490332 74.509668,0 48,0 Z M48,6 C71.1959595,6 90,24.8040405 90,48 C90,71.1959595 71.1959595,90 48,90 C24.8040405,90 6,71.1959595 6,48 C6,24.8040405 24.8040405,6 48,6 Z"/><circle cx="48" cy="48" r="42" fill="#004535"/></g><path fill="#FFF" d="M46.3648767,40.1537612 C46.2331147,40.1537612 46.1262262,40.0565723 46.1262262,39.9368149 L46.1262262,36.8593272 C46.1262262,36.7395698 46.2331147,36.6423809 46.3648767,36.6423809 L50.4245291,36.6423809 C50.5564831,36.6423809 50.6632757,36.7395698 50.6632757,36.8593272 L50.6632757,39.9368149 C50.6632757,40.0565723 50.5564831,40.1537612 50.4245291,40.1537612 L46.3648767,40.1537612 Z M52.0538833,36.8593272 C52.0538833,36.7395698 52.1608679,36.6423809 52.2924378,36.6423809 L56.3522822,36.6423809 C56.4841403,36.6423809 56.5909328,36.7395698 56.5909328,36.8593272 L56.5909328,39.9368149 C56.5909328,40.0565723 56.4841403,40.1537612 56.3522822,40.1537612 L52.2924378,40.1537612 C52.1608679,40.1537612 52.0538833,40.0565723 52.0538833,39.9368149 L52.0538833,36.8593272 Z M44.7354265,39.9368149 C44.7354265,40.0565723 44.62873,40.1537612 44.4966799,40.1537612 L40.4371236,40.1537612 C40.3054576,40.1537612 40.198377,40.0565723 40.198377,39.9368149 L40.198377,36.8593272 C40.198377,36.7395698 40.3054576,36.6423809 40.4371236,36.6423809 L44.4966799,36.6423809 C44.62873,36.6423809 44.7354265,36.7395698 44.7354265,36.8593272 L44.7354265,39.9368149 Z M38.8077693,39.9368149 C38.8077693,40.0565723 38.7008808,40.1537612 38.5689267,40.1537612 L34.5093704,40.1537612 C34.3776084,40.1537612 34.2706238,40.0565723 34.2706238,39.9368149 L34.2706238,36.8593272 C34.2706238,36.7395698 34.3776084,36.6423809 34.5093704,36.6423809 L38.5689267,36.6423809 C38.7008808,36.6423809 38.8077693,36.7395698 38.8077693,36.8593272 L38.8077693,39.9368149 Z M57.9817325,36.8593272 C57.9817325,36.7395698 58.088429,36.6423809 58.220287,36.6423809 L62.2801314,36.6423809 C62.4117014,36.6423809 62.518782,36.7395698 62.518782,36.8593272 L62.518782,39.9368149 C62.518782,40.0565723 62.4117014,40.1537612 62.2801314,40.1537612 L58.220287,40.1537612 C58.088429,40.1537612 57.9817325,40.0565723 57.9817325,39.9368149 L57.9817325,36.8593272 Z M49.1948785,51.4603232 C49.1948785,50.8864095 64.0305876,54.3934682 68.6906598,55.7130088 C68.7224478,55.1697307 67.3957044,45.3747822 66.8262083,41.7220362 L69.3518707,41.7220362 C69.468843,41.7220362 69.563631,41.6272483 69.563631,41.5102759 L69.563631,40.659393 C69.563631,40.5424207 69.468843,40.4477287 69.3518707,40.4477287 L64.9464871,40.4472486 C64.8147251,40.4472486 64.7078366,40.3500597 64.7078366,40.2303022 L64.7078366,36.8933241 C64.7078366,36.7736627 64.8147251,36.6764738 64.9464871,36.6764738 L69.31336,36.6764738 C69.4452181,36.6764738 69.5520106,36.5792849 69.5520106,36.4595275 L69.5520106,34.563192 C69.5520106,34.4435306 69.4452181,34.3463417 69.31336,34.3463417 L64.9826929,34.3463417 C64.9826929,34.3463417 61.9875084,34.2843982 60.4600488,33.8444553 C60.4897241,33.6797528 62.5914816,33.5016052 63.7423823,33.3173113 L63.1070052,28.9861639 C63.1070052,28.7524112 62.8699872,28.5629313 62.5777484,28.5629313 L60.1967169,28.5629313 C59.904478,28.5629313 59.6675561,28.7524112 59.6675561,28.9861639 L59.6675561,33.6446995 C58.894943,33.532721 58.1640097,33.4268888 57.5963383,33.3446816 L57.3192731,31.3695002 C57.3192731,31.1071286 57.0852323,30.8943119 56.7965468,30.8943119 L56.3969392,30.8943119 C56.2980216,29.8866015 52.5049665,20.8466915 52.0958512,19.8738424 C51.2164456,19.9279109 48.2696635,19.9980175 46.7073427,19.9003485 C46.7401871,19.7178792 49.7695606,19.5449176 51.6486095,18.9708118 L51.6486095,18.6150928 C51.6486095,18.3814362 51.4590336,18.1917642 51.2251849,18.1917642 L51.1584395,18.1917642 C51.4039087,17.7410652 51.5434496,17.2241971 51.5434496,16.6748686 C51.5434496,14.9215314 50.1221103,13.5 48.368677,13.5 C46.6152437,13.5 45.1939044,14.9215314 45.1939044,16.6748686 C45.1939044,17.2241971 45.3335414,17.7410652 45.5791066,18.1917642 L45.5121692,18.1917642 C45.2784165,18.1917642 45.0889366,18.3814362 45.0889366,18.6150928 L45.0889366,19.6417223 C45.0889366,19.6931979 45.0995006,19.7418884 45.116211,19.7875057 L44.6779006,19.7875057 C44.6779006,19.7875057 40.4449986,29.8291718 40.3405109,30.8943119 L39.9409993,30.8943119 C39.6522178,30.8943119 39.4180809,31.1071286 39.4180809,31.3695002 C39.4180809,31.3695002 39.0789763,33.3480429 39.0469001,33.3584148 C38.4936342,33.4385092 37.8003471,33.5387713 37.06999,33.6446995 L37.06999,28.9861639 C37.06999,28.7524112 36.8330681,28.5629313 36.5408292,28.5629313 L34.1597017,28.5629313 C33.8674629,28.5629313 33.6304449,28.7524112 33.6304449,28.9861639 L32.9229445,33.3173113 C34.0738452,33.5016052 36.2059501,33.7071232 36.2356254,33.8717296 C34.7083579,34.3116725 31.7548533,34.3463417 31.7548533,34.3463417 L27.4240901,34.3463417 C27.292232,34.3463417 27.1855355,34.4435306 27.1855355,34.563192 L27.1855355,36.4595275 C27.1855355,36.5792849 27.292232,36.6764738 27.4240901,36.6764738 L31.791059,36.6764738 C31.922821,36.6764738 32.0296135,36.7736627 32.0296135,36.8933241 L32.0296135,40.2303022 C32.0296135,40.3500597 31.922821,40.4472486 31.791059,40.4472486 L30.4136084,40.4472486 C30.4129361,40.4472486 30.4121678,40.4474406 30.4113995,40.4474406 L27.3855794,40.4477287 C27.2686071,40.4477287 27.1738191,40.5424207 27.1738191,40.659393 L27.1738191,41.5102759 C27.1738191,41.6272483 27.2686071,41.7220362 27.3855794,41.7220362 L29.9113378,41.7220362 C29.3417457,45.3747822 28.0150023,55.1697307 28.0466943,55.7130088 L28.0468864,55.7124326 L28.0468864,55.7130088 C32.7070546,54.3934682 47.5426676,50.8864095 47.5426676,51.4603232 C47.5426676,51.4603232 30.5301006,59.1699365 25.5,63.4626693 C25.7117603,65.0310403 29.6334083,76.5 29.6334083,76.5 L67.1042338,76.5 C67.1042338,76.5 71.0257858,65.0310403 71.2374501,63.4626693 C66.2075416,59.1699365 49.1948785,51.4603232 49.1948785,51.4603232 L49.1948785,51.4603232 Z"/></g></svg>