<svg xmlns="http://www.w3.org/2000/svg" width="121" height="121" viewBox="0 0 121 121"><g fill="none" transform="translate(12 12)"><path fill="#FFF" d="M48,0 C21.490332,0 0,21.490332 0,48 C0,74.509668 21.490332,96 48,96 C74.509668,96 96,74.509668 96,48 C96,21.490332 74.509668,0 48,0 Z M48,6 C71.1959595,6 90,24.8040405 90,48 C90,71.1959595 71.1959595,90 48,90 C24.8040405,90 6,71.1959595 6,48 C6,24.8040405 24.8040405,6 48,6 Z"/><circle cx="48" cy="48" r="42" fill="#185648" fill-rule="evenodd"/><path fill="#FFF" d="M47.7,20.9999999 L54.9000001,35.9999999 L56.9999999,35.9999999 C62.1000001,35.9999999 65.9999999,39.9 65.9999999,44.9999999 C65.9999999,50.1000001 62.1000001,53.9999999 56.9999999,53.9999999 C51.9000001,53.9999999 47.9999999,50.1000001 47.9999999,44.9999999 C47.9999999,41.7 49.8000001,38.9999999 52.2000001,37.4999999 L50.4000001,33.9 L43.4999999,45.6 C42.6,47.1 40.8,47.9999999 38.9999999,47.9999999 L23.6999999,47.9999999 C22.4999999,51.6000001 19.1999999,53.9999999 15.2999999,53.9999999 C10.1999999,53.9999999 6.29999988,50.1000001 6.29999988,44.9999999 C6.29999988,39.9 10.1999999,35.9999999 15.2999999,35.9999999 C19.1999999,35.9999999 22.4999999,38.4 23.6999999,41.9999999 L26.7,41.9999999 C25.2,36.9 20.6999999,32.9999999 14.9999999,32.9999999 C11.9999999,32.9999999 9.29999989,34.2 7.19999988,35.9999999 L5.99999988,35.9999999 L8.99999988,29.9999999 L21.8999999,29.9999999 C23.3999999,29.9999999 24.6,30.6 25.4999999,31.4999999 L26.9999999,32.9999999 L32.9999999,32.9999999 L37.8,28.4999999 C38.7,27.6 39.9,26.9999999 41.4,26.9999999 L47.4,26.9999999 L45.9,23.9999999 L38.9999999,23.9999999 L38.9999999,20.9999999 L47.7,20.9999999 Z M14.9999999,40.8 C12.5999999,40.8 10.7999999,42.6 10.7999999,45 C10.7999999,47.4 12.5999999,49.2000001 14.9999999,49.2000001 C16.7999999,49.2000001 18.2999999,48 18.8999999,46.5 L14.9999999,46.5 L14.9999999,43.5 L18.8999999,43.5 C18.2999999,42 16.7999999,40.8 14.9999999,40.8 Z M57.0000001,40.8 C54.6000001,40.8 52.8000001,42.6 52.8000001,45 C52.8000001,47.4 54.6000001,49.2000001 57.0000001,49.2000001 C59.4000001,49.2000001 61.2000001,47.4 61.2000001,45 C61.2000001,42.6 59.4000001,40.8 57.0000001,40.8 Z M54.0000001,24 C55.8000001,24 55.8000001,30 54.0000001,30 C52.5000001,30 51.0000001,28.8 51.0000001,27 C51.0000001,25.2 52.2000001,24 54.0000001,24 Z" transform="translate(12 12)"/></g></svg>