<?xml version="1.0" encoding="UTF-8"?>
<svg xmlns="http://www.w3.org/2000/svg" version="1.1" viewBox="0 0 24 24">
  <defs>
    <style>
      .cls-1 {
        fill: blue;
      }

      .cls-2 {
        fill: black;
      }
    </style>
  </defs>
  <!-- Generator: Adobe Illustrator 28.6.0, SVG Export Plug-In . SVG Version: 1.2.0 Build 709)  -->
  <g>
    <g id="Layer_2">
      <path class="cls-1" d="M12,2c5.5,0,10,4.5,10,10s-4.5,10-10,10S2,17.5,2,12,6.5,2,12,2M12,0C5.4,0,0,5.4,0,12s5.4,12,12,12,12-5.4,12-12S18.6,0,12,0h0Z"/>
    </g>
    <g id="Layer_1">
      <g>
        <path class="cls-2" d="M19.3,11.1l-1-2.9c-.2-.5-.7-.9-1.3-.9h-.4v-.7c0-.4-.3-.7-.7-.7h-.7c-.4,0-.7.3-.7.7v.7h-1.3c-.7,0-1.3.6-1.3,1.3v2.7h-7.4v3.3c0,.7.6,1.3,1.3,1.3h.7c0,1.1.9,2,2,2s2-.9,2-2h2.7c0,1.1.9,2,2,2s2-.9,2-2h2v-4.5c0-.1,0-.3,0-.4ZM13.3,8.7h3.7l.9,2.7h-4.6v-2.7ZM8.7,16.7c-.4,0-.7-.3-.7-.7s.3-.7.7-.7.7.3.7.7-.3.7-.7.7ZM12,14.7h-1.9c-.4-.4-.9-.7-1.5-.7s-1.1.3-1.5.7h-1.2v-2h6v2ZM15.3,16.7c-.4,0-.7-.3-.7-.7s.3-.7.7-.7.7.3.7.7-.3.7-.7.7ZM16.8,14.7c-.4-.4-.9-.7-1.5-.7s-1.1.3-1.5.7h-.5v-2h4.7v2h-1.2Z"/>
        <path class="cls-2" d="M11.3,9.7h-.7v-1.3h.7v-1h-6.7v1h.7v1.3h-.7v1h6.7v-1ZM9.7,9.7h-1.2v-1.3h1.2v1.3ZM6.3,8.3h1.2v1.3h-1.2v-1.3Z"/>
      </g>
    </g>
  </g>
</svg>