<svg xmlns="http://www.w3.org/2000/svg" width="121" height="121" viewBox="0 0 121 121"><g fill="none" fill-rule="evenodd" transform="translate(13 7)"><path fill="#FFF" fill-rule="nonzero" d="M82.9902865,0 C90.1531567,0 95.9887651,5.83560848 95.9887651,12.9984786 L95.9887651,82.9902865 C95.9887651,90.1531567 90.1531567,95.9887651 82.9902865,95.9887651 L60.005,95.988 L47.9943826,108 L35.982,95.988 L12.9984786,95.9887651 C5.9379352,95.9887651 0.167002541,90.3186974 0.00355967765,83.2964409 L0,82.9902865 L0,12.9984786 C0,5.83560848 5.83560848,0 12.9984786,0 Z"/><path fill="#192BC2" d="M82.9902865,5.99929782 C86.839836,5.99929782 89.9894673,9.14892918 89.9894673,12.9984786 L89.9894673,82.9902865 C89.9894673,86.839836 86.839836,89.9894673 82.9902865,89.9894673 L57.5152978,89.9892978 L47.9943826,99.5109936 L38.4732978,89.9892978 L12.9984786,89.9894673 C9.14892918,89.9894673 5.99929782,86.839836 5.99929782,82.9902865 L5.99929782,12.9984786 C5.99929782,9.14892918 9.14892918,5.99929782 12.9984786,5.99929782 L82.9902865,5.99929782 Z"/><path fill="#FFF" d="M45.5292281,65.2004685 C45.4550842,65.2005081 45.3794497,65.2005481 45.3023608,65.2005887 L43.7655276,65.201367 C43.6722928,65.2014123 43.5778213,65.2014579 43.4821495,65.2015038 L41.3090424,65.2024852 C41.1983444,65.2025321 41.0867001,65.202579 40.9741458,65.2026258 L38.8577299,65.2034459 C38.7355623,65.2034898 38.6127025,65.2035333 38.4891868,65.2035764 L35.8113832,65.2044066 C35.6804627,65.2044419 35.5491404,65.2044765 35.4174525,65.2045103 L23.9233588,65.2045336 C23.8009887,65.2044885 23.6793056,65.2044413 23.5583456,65.2043922 L21.8027221,65.2034981 C21.6899014,65.2034277 21.5779853,65.203355 21.4670102,65.2032801 L20.4946195,65.2025434 C20.3896167,65.2024545 20.2856637,65.2023632 20.1827968,65.2022694 L19.5789194,65.2016772 C19.4805422,65.2015735 19.3833237,65.2014673 19.2873001,65.2013585 L18.7257893,65.2006745 C18.634691,65.2005553 18.5448602,65.2004334 18.4563333,65.2003088 L17.9411087,65.1995285 L17.6957757,65.1991135 C11.6263306,57.9549877 17.6957757,51.18293 17.6957757,51.18293 L39.2071023,51.1858069 C39.3927321,50.2601788 39.4842992,47.4501701 39.4842992,47.0505318 C39.4842992,46.6176722 39.0545762,46.1863809 39.1612228,43.8103578 C39.256443,41.6917092 39.7842547,41.3784429 40.2032488,41.028651 L40.3014408,40.9430566 L40.3484502,40.8979652 C40.7797415,40.4666739 43.0475496,39.1696633 43.8019173,38.0922192 C44.5578534,37.0116384 43.9101322,35.7161961 43.9101322,35.7161961 L29.6618356,35.7161961 C29.6618356,33.3417414 30.6342014,31.8298693 31.3901375,31.0739332 C32.1445052,30.3195655 38.2970718,29.9964891 38.2970718,29.9964891 L50.9393965,29.9964891 C57.6375381,29.9964891 58.2694425,34.5622209 58.2866451,36.1503016 L58.286421,36.3061443 C58.2830486,36.5464663 58.2666438,36.6869936 58.2666438,36.6869936 L50.2791287,36.6869936 C50.1709138,36.9034235 50.6022051,38.1988657 50.9393965,39.0614484 C51.2765879,39.9255993 52.4371536,40.4666739 53.624381,41.1128267 C54.8131767,41.7605478 54.380317,44.8909386 54.380317,44.8909386 C54.0572406,45.5386597 54.1654555,46.5094573 54.1654555,46.5094573 L54.1660628,46.6516142 C54.1688562,47.0837689 54.1844996,48.4837073 54.2721021,50.6106456 C54.2806079,50.8144158 54.2924469,51.0048243 54.307514,51.1831848 L76.1227316,51.1823026 C76.1227316,51.1823026 83.0108459,58.1754952 76.1227316,65.2000545 L75.8698077,65.2004271 L75.340679,65.201127 L75.0649009,65.2014549 L74.4919836,65.2020676 L74.1952711,65.2023528 L73.2666777,65.2031272 L72.9450391,65.203359 L71.6036356,65.2041603 L71.255639,65.2043303 L68.3228464,65.2052914 L60.8078033,65.2052855 L56.9232768,65.204405 L56.5492406,65.2042964 L53.6999499,65.2033471 L53.3648631,65.2032218 L51.1822425,65.2023382 L50.8962832,65.2022138 L49.1053373,65.2013889 L48.8821577,65.2012803 L47.0553997,65.2003373 Z M74.763615,52.3643545 C73.7865442,52.3643545 72.9961048,54.955239 72.9961048,58.1514998 C72.9961048,61.3477605 73.7865442,63.9370767 74.763615,63.9370767 C75.7406859,63.9370767 77.7340359,61.3901054 77.7340359,58.1938447 C77.7340359,54.997584 75.7406859,52.3643545 74.763615,52.3643545 Z"/></g></svg>