<svg xmlns="http://www.w3.org/2000/svg" width="121" height="121" viewBox="0 0 121 121"><g fill="none" fill-rule="evenodd" transform="translate(13 7)"><path fill="#FFF" fill-rule="nonzero" d="M82.9902865,0 C90.1531567,0 95.9887651,5.83560848 95.9887651,12.9984786 L95.9887651,82.9902865 C95.9887651,90.1531567 90.1531567,95.9887651 82.9902865,95.9887651 L60.005,95.988 L47.9943826,108 L35.982,95.988 L12.9984786,95.9887651 C5.9379352,95.9887651 0.167002541,90.3186974 0.00355967765,83.2964409 L0,82.9902865 L0,12.9984786 C0,5.83560848 5.83560848,0 12.9984786,0 Z"/><path fill="#192BC2" d="M82.9902865,5.99929782 C86.839836,5.99929782 89.9894673,9.14892918 89.9894673,12.9984786 L89.9894673,82.9902865 C89.9894673,86.839836 86.839836,89.9894673 82.9902865,89.9894673 L57.5152978,89.9892978 L47.9943826,99.5109936 L38.4732978,89.9892978 L12.9984786,89.9894673 C9.14892918,89.9894673 5.99929782,86.839836 5.99929782,82.9902865 L5.99929782,12.9984786 C5.99929782,9.14892918 9.14892918,5.99929782 12.9984786,5.99929782 L82.9902865,5.99929782 Z"/><path fill="#FFF" fill-rule="nonzero" d="M47.9959305,17.9978935 C64.5608635,17.9978935 77.9908717,31.4284205 77.9908717,47.9959305 C77.9908717,64.5626754 64.5616291,77.9893237 47.9959305,77.9893237 C31.4297216,77.9893237 17.9978935,64.5621655 17.9978935,47.9959305 C17.9978935,31.4289306 31.4304873,17.9978935 47.9959305,17.9978935 Z M47.9959305,22.6417921 C33.9951212,22.6417921 22.6417921,33.9938054 22.6417921,47.9959305 C22.6417921,61.9970496 33.9941145,73.3454251 47.9959305,73.3454251 C61.9970755,73.3454251 73.3469731,61.9977202 73.3469731,47.9959305 C73.3469731,33.9931347 61.996069,22.6417921 47.9959305,22.6417921 Z M47.9954662,36.4666783 C54.3622511,36.4666783 59.5247184,41.6306935 59.5247184,47.9959305 C59.5247184,54.3611676 54.3622511,59.5251828 47.9954662,59.5251828 C41.6302291,59.5251828 36.4662139,54.3611676 36.4662139,47.9959305 C36.4662139,41.6306935 41.6302291,36.4666783 47.9954662,36.4666783 Z"/></g></svg>