<svg xmlns="http://www.w3.org/2000/svg" width="121" height="121" viewBox="0 0 121 121"><g fill="none" fill-rule="evenodd" transform="translate(13 7)"><path fill="#FFF" fill-rule="nonzero" d="M82.9902865,0 C90.1531567,0 95.9887651,5.83560848 95.9887651,12.9984786 L95.9887651,82.9902865 C95.9887651,90.1531567 90.1531567,95.9887651 82.9902865,95.9887651 L60.005,95.988 L47.9943826,108 L35.982,95.988 L12.9984786,95.9887651 C5.9379352,95.9887651 0.167002541,90.3186974 0.00355967765,83.2964409 L0,82.9902865 L0,12.9984786 C0,5.83560848 5.83560848,0 12.9984786,0 Z"/><path fill="#192BC2" d="M82.9902865,5.99929782 C86.839836,5.99929782 89.9894673,9.14892918 89.9894673,12.9984786 L89.9894673,82.9902865 C89.9894673,86.839836 86.839836,89.9894673 82.9902865,89.9894673 L57.5152978,89.9892978 L47.9943826,99.5109936 L38.4732978,89.9892978 L12.9984786,89.9894673 C9.14892918,89.9894673 5.99929782,86.839836 5.99929782,82.9902865 L5.99929782,12.9984786 C5.99929782,9.14892918 9.14892918,5.99929782 12.9984786,5.99929782 L82.9902865,5.99929782 Z"/><path fill="#FFF" fill-rule="nonzero" d="M77.4890237,35.9957869 L80.9296875,39.7094412 L72.8382446,47.2047869 L72.8386448,52.1889071 L72.6222446,52.1887869 L80.9905206,60.4757921 L77.4281906,64.0729021 L65.4282446,52.1887869 L30.5582446,52.1887869 L18.5608128,64.0727841 L14.9982446,60.4759101 L23.5732446,51.9817869 L23.5732446,47.5987869 L15.0590741,39.7093276 L18.4999832,35.9959005 L30.5112446,47.1257869 L65.4752446,47.1257869 L77.4890237,35.9957869 Z"/></g></svg>