<svg xmlns="http://www.w3.org/2000/svg" width="121" height="121" viewBox="0 0 121 121"><g fill="none" fill-rule="evenodd" transform="translate(13 7)"><path fill="#FFF" d="M82.9902865,0 C90.1531567,0 95.9887651,5.83560848 95.9887651,12.9984786 L95.9887651,82.9902865 C95.9887651,90.1531567 90.1531567,95.9887651 82.9902865,95.9887651 L60.005,95.988 L47.9943826,108 L35.982,95.988 L12.9984786,95.9887651 C5.9379352,95.9887651 0.167002541,90.3186974 0.00355967765,83.2964409 L0,82.9902865 L0,12.9984786 C0,5.83560848 5.83560848,0 12.9984786,0 Z"/><path fill="#192BC2" d="M82.9902865,5.99929782 C86.839836,5.99929782 89.9894673,9.14892918 89.9894673,12.9984786 L89.9894673,82.9902865 C89.9894673,86.839836 86.839836,89.9894673 82.9902865,89.9894673 L57.5152978,89.9892978 L47.9943826,99.5109936 L38.4732978,89.9892978 L12.9984786,89.9894673 C9.14892918,89.9894673 5.99929782,86.839836 5.99929782,82.9902865 L5.99929782,12.9984786 C5.99929782,9.14892918 9.14892918,5.99929782 12.9984786,5.99929782 L82.9902865,5.99929782 Z"/><g transform="translate(11.999 11.999)"><rect width="71.992" height="71.992"/><path fill="#FFF" fill-rule="nonzero" d="M38.2455236,0 L2.24973668,0 C1.01238151,0 0,1.01238151 0,2.24973668 L0,55.1185487 L16.8730251,55.1185487 L16.8730251,44.9947337 L23.6222352,44.9947337 L23.6222352,55.1185487 L40.4952603,55.1185487 L40.4952603,2.24973668 C40.4952603,1.01238151 39.4828788,0 38.2455236,0 Z M12.3735518,37.1206553 L5.62434171,37.1206553 L5.62434171,30.3714452 L12.3735518,30.3714452 L12.3735518,37.1206553 Z M12.3735518,25.8719719 L5.62434171,25.8719719 L5.62434171,19.1227618 L12.3735518,19.1227618 L12.3735518,25.8719719 Z M12.3735518,14.6232884 L5.62434171,14.6232884 L5.62434171,7.87407839 L12.3735518,7.87407839 L12.3735518,14.6232884 Z M23.6222352,37.1206553 L16.8730251,37.1206553 L16.8730251,30.3714452 L23.6222352,30.3714452 L23.6222352,37.1206553 Z M23.6222352,25.8719719 L16.8730251,25.8719719 L16.8730251,19.1227618 L23.6222352,19.1227618 L23.6222352,25.8719719 Z M23.6222352,14.6232884 L16.8730251,14.6232884 L16.8730251,7.87407839 L23.6222352,7.87407839 L23.6222352,14.6232884 Z M34.8709186,37.1206553 L28.1217085,37.1206553 L28.1217085,30.3714452 L34.8709186,30.3714452 L34.8709186,37.1206553 Z M34.8709186,25.8719719 L28.1217085,25.8719719 L28.1217085,19.1227618 L34.8709186,19.1227618 L34.8709186,25.8719719 Z M34.8709186,14.6232884 L28.1217085,14.6232884 L28.1217085,7.87407839 L34.8709186,7.87407839 L34.8709186,14.6232884 Z" transform="translate(15.748 8.999)"/></g></g></svg>