<svg xmlns="http://www.w3.org/2000/svg" width="121" height="121" viewBox="0 0 121 121"><g fill="none" fill-rule="evenodd" transform="translate(13 7)"><path fill="#FFF" fill-rule="nonzero" d="M82.9902865,0 C90.1531567,0 95.9887651,5.83560848 95.9887651,12.9984786 L95.9887651,82.9902865 C95.9887651,90.1531567 90.1531567,95.9887651 82.9902865,95.9887651 L60.005,95.988 L47.9943826,108 L35.982,95.988 L12.9984786,95.9887651 C5.9379352,95.9887651 0.167002541,90.3186974 0.00355967765,83.2964409 L0,82.9902865 L0,12.9984786 C0,5.83560848 5.83560848,0 12.9984786,0 Z"/><path fill="#192BC2" d="M82.9902865,5.99929782 C86.839836,5.99929782 89.9894673,9.14892918 89.9894673,12.9984786 L89.9894673,82.9902865 C89.9894673,86.839836 86.839836,89.9894673 82.9902865,89.9894673 L57.5152978,89.9892978 L47.9943826,99.5109936 L38.4732978,89.9892978 L12.9984786,89.9894673 C9.14892918,89.9894673 5.99929782,86.839836 5.99929782,82.9902865 L5.99929782,12.9984786 C5.99929782,9.14892918 9.14892918,5.99929782 12.9984786,5.99929782 L82.9902865,5.99929782 Z"/><path fill="#FFF" d="M77.8979461,41.9950848 C77.8979461,41.9950848 84.8562387,49.4053009 77.8979461,56.8454237 C77.7185806,56.8457224 77.5330188,56.8460085 77.3416124,56.8462824 L76.7502112,56.847068 C76.4460953,56.8474429 76.1296202,56.8477913 75.8019727,56.8481145 L74.7866992,56.8490097 C74.6704306,56.8491011 74.5530524,56.8491898 74.4346087,56.8492759 L73.3410313,56.849982 C73.2165896,56.850053 73.0912143,56.8501215 72.9649492,56.8501876 L71.0097337,56.8510048 C70.8756697,56.8510481 70.7409357,56.8510893 70.6055757,56.8511283 L61.2307825,56.8511717 C61.0891489,56.851142 60.9478562,56.8511112 60.8069483,56.8510795 L57.5215538,56.8501578 C57.3896164,56.8501137 57.2584155,56.8500691 57.1279951,56.850024 L54.8742053,56.8491656 C54.7547321,56.849116 54.636303,56.8490661 54.5189621,56.8490161 L52.5338314,56.848107 C52.4311297,56.8480566 52.3297798,56.8480063 52.2298257,56.8479562 L50.840689,56.8472238 C50.7557912,56.8471766 50.6725089,56.8471299 50.590886,56.8470836 L48.9730582,56.8460881 C48.9207997,56.8460524 48.8705523,56.8460176 48.8223599,56.8459838 L47.2650797,56.8460786 C47.2118889,56.8461137 47.15666,56.8461496 47.099438,56.8461863 L45.6201062,56.847059 C45.5371698,56.8471046 45.4525531,56.8471506 45.3663008,56.8471971 L43.6467783,56.8480684 C43.542509,56.8481181 43.4368725,56.848168 43.3299133,56.848218 L41.6319209,56.8489676 C41.5128536,56.8490172 41.3926874,56.8490667 41.2714668,56.8491159 L38.9852862,56.8499695 C38.8530233,56.8500146 38.7199743,56.8500591 38.5861839,56.8501031 L35.255766,56.8510312 C35.1129753,56.8510635 34.969801,56.8510949 34.8262877,56.8511253 L24.9299064,56.8511006 C24.7944518,56.8510611 24.6596866,56.8510194 24.5256555,56.8509757 L22.5758321,56.8501543 C22.4502593,56.8500882 22.3256441,56.8500197 22.2020313,56.8499487 L21.1177856,56.8492442 C21.000589,56.8491584 20.8845289,56.8490701 20.76965,56.8489792 L19.768838,56.8480893 C19.4466692,56.8477684 19.136338,56.8474229 18.8390515,56.8470513 L18.2622292,56.8462733 C18.0759912,56.8460022 17.8959086,56.8457191 17.722339,56.8454237 C12.3058257,50.0604663 16.4626847,43.6699661 17.5026318,42.2755415 L17.5780261,42.1759188 C17.6693009,42.0571518 17.722339,41.9950848 17.722339,41.9950848 Z M76.2916239,43.2927033 C75.2565197,43.2927033 74.4191321,46.0358125 74.4191321,49.4235772 C74.4191321,52.808019 75.2565197,55.5527896 76.2916239,55.5527896 C77.3267281,55.5527896 79.4384735,52.852879 79.4384735,49.4684373 C79.4384735,46.0806725 77.3267281,43.2927033 76.2916239,43.2927033 Z"/></g></svg>