<svg xmlns="http://www.w3.org/2000/svg" width="121" height="121" viewBox="0 0 121 121"><g fill="none" fill-rule="evenodd" transform="translate(13 7)"><path fill="#FFF" fill-rule="nonzero" d="M82.9902865,0 C90.1531567,0 95.9887651,5.83560848 95.9887651,12.9984786 L95.9887651,82.9902865 C95.9887651,90.1531567 90.1531567,95.9887651 82.9902865,95.9887651 L60.005,95.988 L47.9943826,108 L35.982,95.988 L12.9984786,95.9887651 C5.9379352,95.9887651 0.167002541,90.3186974 0.00355967765,83.2964409 L0,82.9902865 L0,12.9984786 C0,5.83560848 5.83560848,0 12.9984786,0 Z"/><path fill="#192BC2" d="M82.9902865,5.99929782 C86.839836,5.99929782 89.9894673,9.14892918 89.9894673,12.9984786 L89.9894673,82.9902865 C89.9894673,86.839836 86.839836,89.9894673 82.9902865,89.9894673 L57.5152978,89.9892978 L47.9943826,99.5109936 L38.4732978,89.9892978 L12.9984786,89.9894673 C9.14892918,89.9894673 5.99929782,86.839836 5.99929782,82.9902865 L5.99929782,12.9984786 C5.99929782,9.14892918 9.14892918,5.99929782 12.9984786,5.99929782 L82.9902865,5.99929782 Z"/><path fill="#FFF" d="M56.7887068,29.9964891 L63.0402446,36.2484891 L80.9905206,36.2492904 L80.9905206,40.1669469 L66.9592446,40.1664891 L73.1175929,46.3253751 L73.097442,46.3438467 L73.1175929,46.3623183 L65.5342446,53.9444891 L80.9905206,53.9450742 L80.9905206,57.8627306 L61.6162446,57.8624891 L56.7887068,62.6912044 L53.9138556,59.8163532 L55.8662446,57.8624891 L28.8712446,57.8624891 L24.0436145,62.6912044 L21.1687633,59.8163532 L23.1212446,57.8624891 L14.9982446,57.8627306 L14.9982446,53.9450742 L27.0402446,53.9444891 L34.642949,46.3438467 L28.4652446,40.1664891 L14.9982446,40.1669469 L14.9982446,36.2492904 L24.5462446,36.2484891 L21.1687633,32.8713403 L24.0436145,29.9964891 L30.2952446,36.2484891 L57.2912446,36.2484891 L53.9138556,32.8713403 L56.7887068,29.9964891 Z M61.2102446,40.1664891 L34.2142446,40.1664891 L40.3725005,46.3253751 L40.3523497,46.3438467 L40.3725005,46.3623183 L32.7892446,53.9444891 L59.7852446,53.9444891 L67.3880413,46.3438467 L61.2102446,40.1664891 Z"/></g></svg>