<svg xmlns="http://www.w3.org/2000/svg" width="121" height="121" viewBox="0 0 121 121"><g fill="none" fill-rule="evenodd" transform="translate(19)"><path fill="#0000ff" d="M72,0 L12,0 C5.3862915,0 0,5.3862915 0,12 L0,75.6 C0,78.7415427 1.26817355,81.7534549 3.55735931,84.0426407 L37.4387106,118.22391 C39.771575,120.577419 43.5706542,120.594082 45.9240736,118.261127 L80.4240736,84.0611269 C82.7318264,81.7534549 84,78.7415427 84,75.6 L84,12 C84,5.3862915 78.6137085,0 72,0 Z M72,6 C75.3,6 78,8.7 78,12 L78,75.6 C78,77.1 77.4,78.6 76.2,79.8 L41.7,114 L7.8,79.8 C6.6,78.6 6,77.1 6,75.6 L6,12 C6,8.7 8.7,6 12,6 L72,6 Z"/><path fill="#D5D5D5" d="M76.2,79.8 L41.7,114 L7.8,79.8 C6.6,78.6 6,77.1 6,75.6 L6,12 C6,8.7 8.7,6 12,6 L72,6 C75.3,6 78,8.7 78,12 L78,75.6 C78,77.1 77.4,78.6 76.2,79.8 Z"/><path fill="#000" d="M35.9999999,17.9999999 C44.4,17.9999999 50.9999999,24.6 50.9999999,32.9999999 L50.9999999,53.9999999 L20.9999999,53.9999999 L20.9999999,32.9999999 C20.9999999,24.6 27.6,17.9999999 35.9999999,17.9999999 Z M13.4999999,31.5 L13.4999999,37.5 L4.49999987,37.5 L4.49999987,31.5 L13.4999999,31.5 Z M67.5000001,31.5 L67.5000001,37.5 L58.5000001,37.5 L58.5000001,31.5 L67.5000001,31.5 Z M56.3220001,10.1489999 L60.5640001,14.3909999 L54.2010001,20.7539999 L49.9590001,16.5119999 L56.3220001,10.1489999 Z M16.1009999,10.1489999 L22.4639999,16.5119999 L18.2219999,20.7539999 L11.8589999,14.3909999 L16.1009999,10.1489999 Z M39,2.99999986 L39,11.9999999 L33,11.9999999 L33,2.99999986 L39,2.99999986 Z M50.9999999,57.0000001 L20.9999999,57.0000001 C17.6999999,57.0000001 14.9999999,59.7000001 14.9999999,63.0000001 C14.9999999,63.0000001 56.9999999,63.0000001 56.9999999,63.0000001 C56.9999999,59.7000001 54.3000001,57.0000001 50.9999999,57.0000001 Z" transform="translate(6 12)"/></g></svg>