<svg xmlns="http://www.w3.org/2000/svg" width="121" height="121" viewBox="0 0 121 121"><g fill="none" fill-rule="evenodd" transform="translate(19)"><path fill="#000" d="M72,0 L12,0 C5.3862915,0 0,5.3862915 0,12 L0,75.6 C0,78.7415427 1.26817355,81.7534549 3.55735931,84.0426407 L37.4387106,118.22391 C39.771575,120.577419 43.5706542,120.594082 45.9240736,118.261127 L80.4240736,84.0611269 C82.7318264,81.7534549 84,78.7415427 84,75.6 L84,12 C84,5.3862915 78.6137085,0 72,0 Z M72,6 C75.3,6 78,8.7 78,12 L78,75.6 C78,77.1 77.4,78.6 76.2,79.8 L41.7,114 L7.8,79.8 C6.6,78.6 6,77.1 6,75.6 L6,12 C6,8.7 8.7,6 12,6 L72,6 Z"/><path fill="#D5D5D5" d="M76.2,79.8 L41.7,114 L7.8,79.8 C6.6,78.6 6,77.1 6,75.6 L6,12 C6,8.7 8.7,6 12,6 L72,6 C75.3,6 78,8.7 78,12 L78,75.6 C78,77.1 77.4,78.6 76.2,79.8 Z"/><path fill="#000" d="M23.9999999,17.9999999 C35.7,17.9999999 38.9999999,35.1 38.9999999,44.9999999 C38.9999999,45.3 39.6,47.4 41.7,52.8000001 C41.8828125,53.0742188 42.3998291,53.626941 43.123765,54.3563388 L43.4721183,54.7051581 C44.4981216,55.7269227 45.8444824,57.0240235 47.2265625,58.3687501 L47.7005459,58.8304988 C48.412345,59.5248968 49.125,60.2250001 49.8000001,60.9000001 L45.9,65.4000001 C38.1375,58.6725001 36.6238125,56.4084376 36.1618224,55.5280407 L36.0910669,55.3882782 C36.0547968,55.3141876 36.0262499,55.2525001 35.9999999,55.2000001 C34.8,51.6000001 34.2,49.4999999 33.6,47.9999999 L22.1999999,47.9999999 L26.7,61.2000001 L20.9999999,62.9999999 L15.2999999,45.9 C14.6999999,44.9999999 14.9999999,44.1 15.5999999,43.2 C16.1999999,42.6 17.0999999,41.9999999 17.9999999,41.9999999 L27.6,41.9999999 C28.2,38.4 28.2,32.7 25.2,29.4 L23.9999999,33.9 C23.6999999,34.8 22.7999999,35.7 21.8999999,35.9999999 L20.9999999,35.9999999 C20.0999999,35.9999999 19.4999999,35.7 18.8999999,35.1 L12.8999999,29.1 C11.6999999,27.9 11.6999999,26.1 12.8999999,24.9 C14.0999999,23.6999999 15.8999999,23.6999999 17.0999999,24.9 L19.4999999,26.9999999 C19.4999999,26.9999999 19.6260416,25.6765624 19.7914713,24.1850694 L19.8374999,23.7749999 L19.8978258,23.2532038 C20.0715373,21.7776315 20.2657894,20.368421 20.3999999,20.0999999 C20.9999999,18.8999999 22.1999999,18.2999999 23.3999999,17.9999999 L23.9999999,17.9999999 Z M66,30 C66,45.3 60,47.4 53.7000001,47.7 C48.3101695,47.9694916 42.920339,42.9130997 41.8798431,41.881894 L41.7457496,41.7471694 C41.7155128,41.7162884 41.7,41.7 41.7,41.7 L41.7,41.4 C41.1,32.1 38.4,23.3999999 33.3,18.5999999 C33.3,18.2999999 33,17.9999999 33,17.9999999 C33,17.9999999 66,8.39999988 66,30 Z M17.9999999,5.99999988 C21.3149999,5.99999988 23.9999999,8.68499989 23.9999999,11.9999999 C23.9999999,15.3149999 21.3149999,17.9999999 17.9999999,17.9999999 C14.6849999,17.9999999 11.9999999,15.3149999 11.9999999,11.9999999 C11.9999999,8.68499989 14.6849999,5.99999988 17.9999999,5.99999988 Z M11.9999999,36 L11.9999999,30 L5.99999988,30 L11.9999999,36 Z" transform="translate(6 12)"/></g></svg>