<svg xmlns="http://www.w3.org/2000/svg" width="121" height="121" viewBox="0 0 121 121"><g fill="none" fill-rule="evenodd" transform="translate(19)"><path fill="#000" d="M72,0 L12,0 C5.3862915,0 0,5.3862915 0,12 L0,75.6 C0,78.7415427 1.26817355,81.7534549 3.55735931,84.0426407 L37.4387106,118.22391 C39.771575,120.577419 43.5706542,120.594082 45.9240736,118.261127 L80.4240736,84.0611269 C82.7318264,81.7534549 84,78.7415427 84,75.6 L84,12 C84,5.3862915 78.6137085,0 72,0 Z M72,6 C75.3,6 78,8.7 78,12 L78,75.6 C78,77.1 77.4,78.6 76.2,79.8 L41.7,114 L7.8,79.8 C6.6,78.6 6,77.1 6,75.6 L6,12 C6,8.7 8.7,6 12,6 L72,6 Z"/><path fill="#D5D5D5" d="M76.2,79.8 L41.7,114 L7.8,79.8 C6.6,78.6 6,77.1 6,75.6 L6,12 C6,8.7 8.7,6 12,6 L72,6 C75.3,6 78,8.7 78,12 L78,75.6 C78,77.1 77.4,78.6 76.2,79.8 Z"/><path fill="#000" d="M52.5000001,33.6 C51.9000001,32.7 51.0000001,31.8 50.1000001,31.2 C48.0000001,29.4 45.9,28.2 44.1,26.1 C39.9,21.8999999 39,14.3999999 41.7,8.99999989 C39,9.59999989 36.3,11.3999999 34.5,12.8999999 C27,19.1999999 23.9999999,29.9999999 27.6,39.6 C27.6,39.9 27.9,40.2 27.9,40.4999999 C27.9,41.1 27.6,41.7 27,41.9999999 C26.4,42.3 25.5,41.9999999 25.2,41.7 C24.9,41.4 24.9,41.4 24.9,41.1 C20.9999999,36.9 20.3999999,30.9 22.4999999,25.8 C17.6999999,29.9999999 14.9999999,36.9 15.2999999,43.4999999 C15.2999999,44.9999999 15.5999999,46.4999999 16.1999999,47.9999999 C16.4999999,49.8000001 17.3999999,51.6000001 18.2999999,53.1000001 C21.2999999,58.2000001 27,62.1000001 32.7,62.7000001 C39,63.6000001 45.6,62.4000001 50.7000001,57.9000001 C56.1000001,52.8000001 57.9000001,44.9999999 55.2000001,38.1 L54.9000001,37.2 C54.3000001,35.9999999 53.4000001,34.8 52.5000001,33.6 L52.5000001,33.6 L52.5000001,33.6 Z M43.2,52.5000001 C42.3,53.1000001 41.1,54.0000001 39.9,54.3000001 C36.6,55.5000001 33.3,53.7 31.2,51.9000001 C34.8,51.0000001 36.9,48.3000001 37.5,45.6 C38.1,43.2 37.2,41.1 36.6,39 C36.3,36.9 36.3,34.8 37.2,32.7 C37.8,33.9 38.4,35.1 39,36 C41.4,39 44.7,40.2 45.6,44.4 C45.6,44.7 45.9,45.3 45.9,45.6 C46.2,48 45,51.0000001 43.2,52.5000001 L43.2,52.5000001 L43.2,52.5000001 Z" transform="translate(6 12)"/></g></svg>