<svg xmlns="http://www.w3.org/2000/svg" width="121" height="121" viewBox="0 0 121 121"><g fill="none" fill-rule="evenodd" transform="translate(19)"><path fill="#000" d="M72,0 L12,0 C5.3862915,0 0,5.3862915 0,12 L0,75.6 C0,78.7415427 1.26817355,81.7534549 3.55735931,84.0426407 L37.4387106,118.22391 C39.771575,120.577419 43.5706542,120.594082 45.9240736,118.261127 L80.4240736,84.0611269 C82.7318264,81.7534549 84,78.7415427 84,75.6 L84,12 C84,5.3862915 78.6137085,0 72,0 Z M72,6 C75.3,6 78,8.7 78,12 L78,75.6 C78,77.1 77.4,78.6 76.2,79.8 L41.7,114 L7.8,79.8 C6.6,78.6 6,77.1 6,75.6 L6,12 C6,8.7 8.7,6 12,6 L72,6 Z"/><path fill="#D5D5D5" d="M76.2,79.8 L41.7,114 L7.8,79.8 C6.6,78.6 6,77.1 6,75.6 L6,12 C6,8.7 8.7,6 12,6 L72,6 C75.3,6 78,8.7 78,12 L78,75.6 C78,77.1 77.4,78.6 76.2,79.8 Z"/><path fill="#000" d="M46.8,61.4999999 C47.7,59.9999999 46.8,58.2000001 45.6,57.3000001 L37.8,53.1000001 L39.3,50.4000001 L55.2000001,59.1000001 C56.7000001,59.9999999 58.8000001,59.7000001 59.4000001,58.2000001 C60.3000001,56.7000001 59.4000001,54.9000001 57.9000001,53.9999999 L41.9999999,45.3 L43.4999999,42.6 L61.4999999,52.4999999 C62.9999999,53.4000001 65.1000001,53.1000001 65.7000001,51.6000001 C66.6000001,50.1000001 65.7000001,48.3000001 64.2000001,47.4 L46.2,37.4999999 L47.7,34.8 L60.9000001,41.9999999 C62.4000001,42.9 64.2000001,42.3 65.1000001,40.8 C65.9999999,39.3 65.1000001,37.4999999 63.9000001,36.6 L40.2,23.6999999 C40.2,23.6999999 49.4999999,18.5999999 49.8000001,18.5999999 C50.1000001,18.5999999 50.4000001,17.9999999 50.7000001,17.6999999 C50.9999999,17.0999999 50.9999999,16.4999999 50.9999999,16.1999999 C50.9999999,15.8999999 50.1000001,11.9999999 50.1000001,11.9999999 C50.1000001,11.9999999 26.9999999,16.4999999 21.2999999,20.0999999 L21.2999999,20.0999999 L5.99999987,11.9999999 L5.99999987,35.9999999 L11.3999999,38.7 C12.5999999,42.9 14.6999999,47.4 18.8999999,49.4999999 L42.9,62.7000001 C43.8,63.3000001 45.9,62.9999999 46.8,61.4999999 L46.8,61.4999999 Z" transform="translate(6 12)"/></g></svg>