<?xml version="1.0" encoding="UTF-8" standalone="no"?>
<svg
   width="121"
   height="121"
   viewBox="0 0 125 125"
   version="1.1"
   id="svg3"
   sodipodi:docname="natuurbrand.svg"
   xml:space="preserve"
   inkscape:version="1.4.2 (ebf0e94, 2025-05-08)"
   inkscape:export-filename="natuurbrand.png"
   inkscape:export-xdpi="96"
   inkscape:export-ydpi="96"
   xmlns:inkscape="http://www.inkscape.org/namespaces/inkscape"
   xmlns:sodipodi="http://sodipodi.sourceforge.net/DTD/sodipodi-0.dtd"
   xmlns="http://www.w3.org/2000/svg"
   xmlns:svg="http://www.w3.org/2000/svg"><defs
     id="defs3" /><sodipodi:namedview
     id="namedview3"
     pagecolor="#ffffff"
     bordercolor="#000000"
     borderopacity="0.25"
     inkscape:showpageshadow="2"
     inkscape:pageopacity="0.0"
     inkscape:pagecheckerboard="0"
     inkscape:deskcolor="#d1d1d1"
     inkscape:zoom="7.3140496"
     inkscape:cx="60.5"
     inkscape:cy="60.5"
     inkscape:window-width="1920"
     inkscape:window-height="1129"
     inkscape:window-x="4408"
     inkscape:window-y="-8"
     inkscape:window-maximized="1"
     inkscape:current-layer="svg3" /><g
     fill="none"
     fill-rule="evenodd"
     transform="translate(19)"
     id="g3"><path
       fill="#000"
       d="M72,0 L12,0 C5.3862915,0 0,5.3862915 0,12 L0,75.6 C0,78.7415427 1.26817355,81.7534549 3.55735931,84.0426407 L37.4387106,118.22391 C39.771575,120.577419 43.5706542,120.594082 45.9240736,118.261127 L80.4240736,84.0611269 C82.7318264,81.7534549 84,78.7415427 84,75.6 L84,12 C84,5.3862915 78.6137085,0 72,0 Z M72,6 C75.3,6 78,8.7 78,12 L78,75.6 C78,77.1 77.4,78.6 76.2,79.8 L41.7,114 L7.8,79.8 C6.6,78.6 6,77.1 6,75.6 L6,12 C6,8.7 8.7,6 12,6 L72,6 Z"
       id="path1" /><path
       fill="000"
       d="m478.45 1175.4v-243.24h-295.08l164.39-238.69h-110.3l171.14-247.78h-103.55l296.02-421.08 293.86 421.08h-103.55l171.14 247.78h-110.3l164.39 238.69h-322.08v243.24z"
       id="path2" /><path
       fill="#D5D5D5"
       d="M76.2,79.8 L41.7,114 L7.8,79.8 C6.6,78.6 6,77.1 6,75.6 L6,12 C6,8.7 8.7,6 12,6 L72,6 C75.3,6 78,8.7 78,12 L78,75.6 C78,77.1 77.4,78.6 76.2,79.8 Z"
       id="path3" /></g><path
     d="m 59.786746,71.441513 c -0.47585,-6.810076 5.438087,-14.626331 8.854112,-20.537464 L 61.621774,40.304982 h 3.376362 L 52.927367,21.02512 40.852313,40.304982 h 3.376364 l -9.731969,14.694114 h 5.488469 l -11.42015,16.442417 h 22.568579 v 9.071835 h 3.584681 V 71.441513 Z M 70.174159,51.669945 c -3.250315,5.878758 -9.725004,13.957055 -8.528806,20.695796 0.676608,3.816009 3.312105,6.150926 6.63322,8.128388 h 5.153935 l 0.4411,-1.074376 c -2.647018,-2.276433 -3.562871,-3.094735 -3.695406,-6.763535 0.171036,-2.532507 1.705549,-4.725166 3.216816,-6.733689 1.631048,0.798929 2.415439,1.503004 3.214356,3.11548 l 1.039221,2.098006 1.027698,-2.104131 c 1.672056,-3.420161 1.21046,-5.924791 0.610862,-9.418866 4.831138,3.923861 7.753312,8.067678 5.527047,14.213538 -0.780634,2.155126 -2.849012,3.915362 -4.500586,5.591933 l 0.501598,1.074368 h 5.707123 c 3.162861,-2.040892 5.232459,-4.476376 6.042628,-8.033776 1.346747,-5.903043 -1.849609,-11.929518 -5.52599,-16.510709 -3.895943,-4.856393 -8.567387,-8.543704 -13.435783,-12.393406 -1.046723,2.870026 -1.908391,5.368333 -3.428879,8.114724 z"
     fill-rule="evenodd"
     id="path1-9"
     style="stroke-width:0.0520685" /></svg>
