<?xml version="1.0" encoding="UTF-8" standalone="no"?>
<svg
   width="121"
   height="121"
   viewBox="0 0 125 125"
   version="1.1"
   id="svg3"
   sodipodi:docname="natuurbrand.svg"
   xml:space="preserve"
   inkscape:version="1.4.2 (ebf0e94, 2025-05-08)"
   xmlns:inkscape="http://www.inkscape.org/namespaces/inkscape"
   xmlns:sodipodi="http://sodipodi.sourceforge.net/DTD/sodipodi-0.dtd"
   xmlns="http://www.w3.org/2000/svg"
   xmlns:svg="http://www.w3.org/2000/svg"><defs
     id="defs3" /><sodipodi:namedview
     id="namedview3"
     pagecolor="#ffffff"
     bordercolor="#000000"
     borderopacity="0.25"
     inkscape:showpageshadow="2"
     inkscape:pageopacity="0.0"
     inkscape:pagecheckerboard="0"
     inkscape:deskcolor="#d1d1d1"
     inkscape:zoom="7.3140496"
     inkscape:cx="60.431638"
     inkscape:cy="60.5"
     inkscape:window-width="1920"
     inkscape:window-height="1129"
     inkscape:window-x="4408"
     inkscape:window-y="-8"
     inkscape:window-maximized="1"
     inkscape:current-layer="svg3" /><g
     fill="none"
     fill-rule="evenodd"
     transform="translate(19)"
     id="g3"><path
       fill="#000"
       d="M72,0 L12,0 C5.3862915,0 0,5.3862915 0,12 L0,75.6 C0,78.7415427 1.26817355,81.7534549 3.55735931,84.0426407 L37.4387106,118.22391 C39.771575,120.577419 43.5706542,120.594082 45.9240736,118.261127 L80.4240736,84.0611269 C82.7318264,81.7534549 84,78.7415427 84,75.6 L84,12 C84,5.3862915 78.6137085,0 72,0 Z M72,6 C75.3,6 78,8.7 78,12 L78,75.6 C78,77.1 77.4,78.6 76.2,79.8 L41.7,114 L7.8,79.8 C6.6,78.6 6,77.1 6,75.6 L6,12 C6,8.7 8.7,6 12,6 L72,6 Z"
       id="path1" /><path
       fill="000"
       d="m478.45 1175.4v-243.24h-295.08l164.39-238.69h-110.3l171.14-247.78h-103.55l296.02-421.08 293.86 421.08h-103.55l171.14 247.78h-110.3l164.39 238.69h-322.08v243.24z"
       id="path2" /><path
       fill="#D5D5D5"
       d="M76.2,79.8 L41.7,114 L7.8,79.8 C6.6,78.6 6,77.1 6,75.6 L6,12 C6,8.7 8.7,6 12,6 L72,6 C75.3,6 78,8.7 78,12 L78,75.6 C78,77.1 77.4,78.6 76.2,79.8 Z"
       id="path3" /></g><path
     d="m 54.797729,21.820283 -6.78947,9.601985 c -0.134868,0.187008 -0.156323,0.438486 -0.05517,0.651285 0.101153,0.209574 0.303451,0.341765 0.527207,0.341765 h 2.746393 l -4.177847,5.858317 3.721095,6.522469 h -1.964778 l 5.88512,10.313886 -3.920342,0.003 4.94102,8.666546 c -0.291194,-1.270298 -0.444456,-2.637342 -0.395412,-4.09463 0.309585,-9.243629 4.821485,-14.806043 6.909133,-16.933476 0.962482,-0.980145 1.492728,-1.492776 1.817655,-1.789435 0.162453,-0.148307 0.272801,-0.248261 0.383149,-0.335315 0.05517,-0.04513 0.116469,-0.0806 0.196167,-0.132191 0.0797,-0.05158 0.410729,-0.206345 0.410729,-0.206345 l 1.180101,-0.415924 -5.31806,-7.45736 h 2.746392 c 0.223757,0 0.429124,-0.13219 0.530273,-0.341765 0.101153,-0.212795 0.07969,-0.464277 -0.05517,-0.651285 l -6.789469,-9.601985 c -0.297325,-0.419144 -0.76631,-0.667401 -1.26589,-0.667401 -0.496561,0 -0.965556,0.248261 -1.26282,0.667401 z m 25.729107,3.333798 c 0,0 -1.262821,0.483623 -2.354049,1.267108 -1.091233,0.783484 -3.616865,2.595424 -6.602457,6.703027 -2.985589,4.107599 -2.755612,10.384728 -2.813809,14.369968 -0.0582,3.985235 -0.401534,4.046315 -1.722641,4.107598 -1.321106,0.06128 -1.780841,-1.328321 -2.06594,-3.623993 -0.288121,-2.295602 0.689672,-5.735813 0.689672,-5.735813 0,0 -0.171652,0.06126 -2.06594,1.99255 -1.894292,1.931292 -6.026104,6.944935 -6.314213,15.517939 -0.288113,8.573005 7.690545,13.889871 7.690545,13.889871 0.03677,0.01289 0.09195,0.02902 0.128743,0.04191 h -6.164082 v -3.150017 c -1.060561,-1.415401 -2.062866,-3.127453 -2.746388,-5.107077 h -3.000824 v 8.253859 l -9.805269,0.003 V 63.366744 h 8.631513 c 0.242147,0 0.462838,-0.135421 0.582381,-0.354653 0.116469,-0.219244 0.113413,-0.490077 -0.0092,-0.706118 l -5.281312,-9.256722 h 2.746388 c 0.242147,0 0.462838,-0.135416 0.582382,-0.354653 0.116473,-0.219244 0.113412,-0.490072 -0.0092,-0.706118 l -5.281315,-9.256702 h 0.784683 c 0.242147,0 0.462838,-0.135417 0.582377,-0.354653 0.116473,-0.219245 0.113413,-0.490072 -0.0092,-0.706119 l -4.190077,-7.347998 c -0.229887,-0.403019 -0.643689,-0.648055 -1.091233,-0.648055 -0.444452,0 -0.858247,0.245036 -1.088159,0.648055 l -4.190077,7.347998 c -0.122608,0.216016 -0.125673,0.486848 -0.0092,0.706119 0.119539,0.219241 0.340231,0.354653 0.579317,0.354653 h 0.784687 l -5.27824,9.256702 c -0.122604,0.21602 -0.125673,0.486847 -0.0092,0.706118 0.119544,0.219241 0.340235,0.354653 0.579321,0.354653 h 2.74639 l -5.278237,9.256704 c -0.122607,0.216016 -0.125677,0.486844 -0.0092,0.706115 0.119543,0.219245 0.340235,0.354657 0.579321,0.354657 h 8.631502 v 10.317324 h -4.836848 c -0.576256,0 -1.048271,0.493293 -1.048271,1.10264 0.03986,0.570685 0.508812,0.999478 1.048271,0.964051 l 38.442928,0.06448 -1.097312,-0.573901 c -0.6161,-0.364333 -1.468208,-0.922096 -2.636015,-1.844186 -2.525696,-1.992551 -3.675124,-4.587975 -3.901963,-8.450577 -0.229887,-3.865766 3.212295,-8.695438 3.212295,-8.695438 0,0 0,1.086549 0.116474,1.931262 0.113413,0.844715 0.459769,1.931265 1.20462,3.259657 0.744847,1.328391 1.606111,1.389606 1.836024,1.028499 0.229912,-0.361107 0,-1.99255 0.401534,-3.804477 0.401538,-1.811927 2.237595,-4.710476 3.215376,-6.583757 0.974707,-1.873216 -0.518013,-6.519241 -0.518013,-6.519241 0,0 1.204616,0.725443 2.240658,1.62821 1.032972,0.906 2.467436,3.021049 3.442212,5.980814 0.974768,2.959764 -0.171652,6.822361 0,9.236756 0.171648,2.414871 2.295784,1.025261 3.273565,0.122512 0.974708,-0.905997 1.667454,-3.562706 1.667454,-3.562706 0,0 0.689669,1.450891 1.032964,2.234318 0.3433,0.783428 0.861325,1.992551 0.288126,5.674525 -0.573195,3.681978 -5.857527,7.912014 -5.857527,7.912014 0,0 1.032968,-0.422369 2.985453,-1.209056 1.952488,-0.783494 5.223045,-4.407421 6.945761,-7.970476 1.722698,-3.56305 1.722641,-9.901185 0.288115,-16.001475 -1.434527,-6.100359 -4.306534,-9.720292 -4.306534,-9.720292 0,0 0.05824,1.992546 -0.803056,5.010366 -0.861295,3.017815 -2.295789,3.562709 -2.295789,3.562709 0,0 0,-0.664176 -0.343299,-1.870052 -0.343296,-1.209052 -0.916507,-2.840496 -1.894288,-4.89426 -0.974708,-2.050535 -2.007681,-4.226869 -2.525701,-8.57301 -0.514947,-4.346203 1.492728,-7.970476 1.492728,-7.970476 z"
     fill-rule="evenodd"
     id="path1-0"
     style="stroke-width:0.0670645" /></svg>
