<svg xmlns="http://www.w3.org/2000/svg" width="121" height="121" viewBox="0 0 121 121"><g fill="none" fill-rule="evenodd" transform="translate(13 7)"><path fill="#FFF" fill-rule="nonzero" d="M83,0 C90.1637085,0 96,5.8362915 96,13 L96,83 C96,90.1637085 90.1637085,96 83,96 L60.011,96 L48,108.012641 L35.988,96 L13,96 C5.93863019,96 0.167022087,90.3292686 0.00356009429,83.3061902 L0,83 L0,13 C0,5.8362915 5.8362915,0 13,0 Z"/><path fill="#182866" d="M83,6 C86.85,6 90,9.15 90,13 L90,83 C90,86.85 86.85,90 83,90 L57.522,90 L48,99.5226407 L38.478,90 L13,90 C9.15,90 6,86.85 6,83 L6,13 C6,9.15 9.15,6 13,6 L83,6 Z"/><polygon fill="#FFF" fill-rule="nonzero" points="36 53.31 54.54 64.5 49.62 43.41 66 29.22 44.43 27.39 36 7.5 27.57 27.39 6 29.22 22.38 43.41 17.46 64.5" transform="translate(12 12)"/></g></svg>