<svg xmlns="http://www.w3.org/2000/svg" width="121" height="121" viewBox="0 0 121 121"><g fill="none" fill-rule="evenodd" transform="translate(13 7)"><path fill="#FFF" fill-rule="nonzero" d="M83,0 C90.1637085,0 96,5.8362915 96,13 L96,83 C96,90.1637085 90.1637085,96 83,96 L60.011,96 L48,108.012641 L35.988,96 L13,96 C5.93863019,96 0.167022087,90.3292686 0.00356009429,83.3061902 L0,83 L0,13 C0,5.8362915 5.8362915,0 13,0 Z"/><path fill="#182866" d="M83,6 C86.85,6 90,9.15 90,13 L90,83 C90,86.85 86.85,90 83,90 L57.522,90 L48,99.5226407 L38.478,90 L13,90 C9.15,90 6,86.85 6,83 L6,13 C6,9.15 9.15,6 13,6 L83,6 Z"/><polygon fill="#FFF" points="47.998 18 15 46.561 24.915 46.561 24.915 72 71.085 72 71.085 46.561 81 46.561"/><path fill="#182866" fill-rule="nonzero" d="M2.25,31.5 C1.625,31.5 1.09375,31.28125 0.65625,30.84375 C0.21875,30.40625 0,29.875 0,29.25 L0,12.975 C0,12.35 0.21875,11.81875 0.65625,11.38125 C1.09375,10.94375 1.625,10.725 2.25,10.725 L4.875,10.725 L4.875,7.125 C4.875,5.15 5.56875,3.46875 6.95625,2.08125 C8.34375,0.69375 10.025,0 12,0 C13.975,0 15.65625,0.69375 17.04375,2.08125 C18.43125,3.46875 19.125,5.15 19.125,7.125 L19.125,10.725 L21.75,10.725 C22.375,10.725 22.90625,10.94375 23.34375,11.38125 C23.78125,11.81875 24,12.35 24,12.975 L24,29.25 C24,29.875 23.78125,30.40625 23.34375,30.84375 C22.90625,31.28125 22.375,31.5 21.75,31.5 L2.25,31.5 Z M12,24 C12.8,24 13.48125,23.725 14.04375,23.175 C14.60625,22.625 14.8875,21.9625 14.8875,21.1875 C14.8875,20.4375 14.60625,19.75625 14.04375,19.14375 C13.48125,18.53125 12.8,18.225 12,18.225 C11.2,18.225 10.51875,18.53125 9.95625,19.14375 C9.39375,19.75625 9.1125,20.4375 9.1125,21.1875 C9.1125,21.9625 9.39375,22.625 9.95625,23.175 C10.51875,23.725 11.2,24 12,24 Z M7.125,10.725 L16.875,10.725 L16.875,7.125 C16.875,5.775 16.4,4.625 15.45,3.675 C14.5,2.725 13.35,2.25 12,2.25 C10.65,2.25 9.5,2.725 8.55,3.675 C7.6,4.625 7.125,5.775 7.125,7.125 L7.125,10.725 Z" transform="translate(36 33)"/></g></svg>