<svg xmlns="http://www.w3.org/2000/svg" data-name="Layer 1" viewBox="0 0 100 125" x="0px" y="0px"><title>Artboard 85</title><path d="M20.72,49.85h0a13,13,0,1,0-13-13A12.95,12.95,0,0,0,20.73,49.85Zm29.11,7.77h0a13,13,0,1,0-13-13A12.9,12.9,0,0,0,49.84,57.62Zm29.42-7.77h0a13,13,0,1,0-13-13A12.95,12.95,0,0,0,79.26,49.85Zm-47.39,1c-3.33,2-12.62,6.41-21.72.06A29.29,29.29,0,0,0,3.27,68.37H30.21a31.12,31.12,0,0,1,5.64-11.05A20.88,20.88,0,0,0,31.86,50.87Zm58.52,0c-3.33,2-12.61,6.41-21.72.06a26.29,26.29,0,0,0-4.14,6.51,28.35,28.35,0,0,1,5.17,10.93h27C96.55,64.82,95.56,56.43,90.38,50.87ZM39.25,58.7a29.29,29.29,0,0,0-6.87,17.44H67.31c-.18-3.55-1.17-11.94-6.34-17.5C57.63,60.64,48.34,65.05,39.25,58.7Z"/><text x="0" y="115" fill="#000000" font-size="5px" font-weight="bold" font-family="'Helvetica Neue', Helvetica, Arial-Unicode, Arial, Sans-serif">Created by Designer</text><text x="0" y="120" fill="#000000" font-size="5px" font-weight="bold" font-family="'Helvetica Neue', Helvetica, Arial-Unicode, Arial, Sans-serif">from the Noun Project</text></svg>