<svg xmlns="http://www.w3.org/2000/svg" width="121" height="121" viewBox="0 0 121 121"><g fill="none" fill-rule="evenodd" transform="translate(11 1)"><path fill="#FFF" fill-rule="nonzero" d="M49.4394392,0.0320036075 C22.3057387,1.05669484 0,24.0131209 0,51.0634245 C0,74.1582672 15.7531577,94.1842269 37.6796234,100.284324 L39.123,100.665 L42.9875735,113.982841 L43.1785408,114.538029 C46.0893205,121.820657 56.3606795,121.820657 59.2714592,114.538029 L59.414029,114.181326 L62.886,100.713 L63.516,100.497 L63.2562825,100.568075 C85.9193193,94.8978948 102,74.3343236 102,50.6130733 C102,22.1811749 78.2198674,-0.978624028 49.4394392,0.0320036075 Z M49.65,6.02830781 C75.3,5.12760548 96,25.8437591 96,50.6130733 C96,71.7795781 81.6,89.7936248 61.8,94.7474876 L60.7909333,95.0890873 C58.9125333,95.7455993 57.8597333,96.3060363 57.4021333,97.9232973 L57.3,98.350297 L53.7,112.311183 C52.8473684,114.444425 49.9753463,114.556701 48.9101473,112.648011 L48.75,112.311183 L44.7,98.350297 C44.3210526,96.4540815 43.9421053,95.8353165 41.6820674,95.1493172 L40.742703,94.8862895 C40.5702216,94.8410509 40.3894737,94.794893 40.2,94.7474876 C20.85,89.7936248 6,72.2299293 6,51.0634245 C6,27.1948126 25.8,6.92901015 49.65,6.02830781 Z"/><path fill="#182866" d="M49.65,6.02830781 C75.3,5.12760548 96,25.8437591 96,50.6130733 C96,71.7795781 81.6,89.7936248 61.8,94.7474876 L60.7909333,95.0890873 C58.9125333,95.7455993 57.8597333,96.3060363 57.4021333,97.9232973 L57.3,98.350297 L53.7,112.311183 C52.8473684,114.444425 49.9753463,114.556701 48.9101473,112.648011 L48.75,112.311183 L44.7,98.350297 C44.3210526,96.4540815 43.9421053,95.8353165 41.6820674,95.1493172 L40.742703,94.8862895 C40.5702216,94.8410509 40.3894737,94.794893 40.2,94.7474876 C20.85,89.7936248 6,72.2299293 6,51.0634245 C6,27.1948126 25.8,6.92901015 49.65,6.02830781 Z"/><path fill="#FFF" fill-rule="nonzero" d="M42.7170449,81 L42.7170449,40.65 C37.9769837,39.65 34.172461,37.5125 31.3034766,34.2375 C28.4344922,30.9625 27,27.15 27,22.8 L31.4905843,22.8 C31.4905843,26.7 32.9999195,29.975 36.0185901,32.625 C39.0372606,35.275 42.7170449,36.6 47.057943,36.6 L54.5422501,36.6 C56.4382746,36.6 57.8353452,36.7625 58.7334621,37.0875 C59.6315789,37.4125 60.7791727,38.175 62.1762434,39.375 L75.9473684,52.275 L72.7291164,55.5 L58.8831482,42.45 L58.8831482,81 L54.392564,81 L54.392564,61.875 L47.2076292,61.875 L47.2076292,81 L42.7170449,81 Z M50.8000966,31.95 C49.3032352,31.95 48.0184291,31.4125 46.9456784,30.3375 C45.8729277,29.2625 45.3365524,27.975 45.3365524,26.475 C45.3365524,24.975 45.8729277,23.6875 46.9456784,22.6125 C48.0184291,21.5375 49.3032352,21 50.8000966,21 C52.296958,21 53.581764,21.5375 54.6545147,22.6125 C55.7272654,23.6875 56.2636408,24.975 56.2636408,26.475 C56.2636408,27.975 55.7272654,29.2625 54.6545147,30.3375 C53.581764,31.4125 52.296958,31.95 50.8000966,31.95 L50.8000966,31.95 Z"/></g></svg>