<svg xmlns="http://www.w3.org/2000/svg" width="121" height="121" viewBox="0 0 121 121"><g fill="none" fill-rule="evenodd" transform="translate(11 1)"><path fill="#FFF" fill-rule="nonzero" d="M49.4394392,0.0320036075 C22.3057387,1.05669484 0,24.0131209 0,51.0634245 C0,74.1582672 15.7531577,94.1842269 37.6796234,100.284324 L39.123,100.665 L42.9875735,113.982841 L43.1785408,114.538029 C46.0893205,121.820657 56.3606795,121.820657 59.2714592,114.538029 L59.414029,114.181326 L62.886,100.713 L63.516,100.497 L63.2562825,100.568075 C85.9193193,94.8978948 102,74.3343236 102,50.6130733 C102,22.1811749 78.2198674,-0.978624028 49.4394392,0.0320036075 Z M49.65,6.02830781 C75.3,5.12760548 96,25.8437591 96,50.6130733 C96,71.7795781 81.6,89.7936248 61.8,94.7474876 L60.7909333,95.0890873 C58.9125333,95.7455993 57.8597333,96.3060363 57.4021333,97.9232973 L57.3,98.350297 L53.7,112.311183 C52.8473684,114.444425 49.9753463,114.556701 48.9101473,112.648011 L48.75,112.311183 L44.7,98.350297 C44.3210526,96.4540815 43.9421053,95.8353165 41.6820674,95.1493172 L40.742703,94.8862895 C40.5702216,94.8410509 40.3894737,94.794893 40.2,94.7474876 C20.85,89.7936248 6,72.2299293 6,51.0634245 C6,27.1948126 25.8,6.92901015 49.65,6.02830781 Z"/><path fill="#182866" d="M49.65,6.02830781 C75.3,5.12760548 96,25.8437591 96,50.6130733 C96,71.7795781 81.6,89.7936248 61.8,94.7474876 L60.7909333,95.0890873 C58.9125333,95.7455993 57.8597333,96.3060363 57.4021333,97.9232973 L57.3,98.350297 L53.7,112.311183 C52.8473684,114.444425 49.9753463,114.556701 48.9101473,112.648011 L48.75,112.311183 L44.7,98.350297 C44.3210526,96.4540815 43.9421053,95.8353165 41.6820674,95.1493172 L40.742703,94.8862895 C40.5702216,94.8410509 40.3894737,94.794893 40.2,94.7474876 C20.85,89.7936248 6,72.2299293 6,51.0634245 C6,27.1948126 25.8,6.92901015 49.65,6.02830781 Z"/><path fill="#FFF" fill-rule="nonzero" d="M46.8,26.1 C45.9,24.9 44.9999999,23.6999999 43.4999999,23.3999999 C43.4999999,23.6999999 43.4999999,23.9999999 43.8,24.3 C44.9999999,28.2 43.8,31.2 41.1,33.9 C39.9,35.1 38.4,36.3 37.2,37.5 C35.4,39.3 33.9,41.4 33.9,43.5 C33.9,45 34.2,46.2 34.4999999,47.7 C34.4999999,48.3000001 34.4999999,48.6000001 33.9,48.9000001 C31.4999999,49.8000001 30.6,52.8000001 31.8,54.9000001 C32.9999999,57.0000001 35.7,57.9000001 37.8,56.4000001 C39.3,55.5000001 39.9,54.0000001 39.6,52.2000001 C39.3,50.7000001 38.4,49.5000001 36.9,48.9000001 C36.6,48.6000001 36.3,48.6000001 36.3,48 C36.3,46.5 36.9,45.3 38.1,44.4 C39.3,43.5 40.4999999,42.6 41.7,41.7 C42.9,40.8 46.2,37.8 47.4,35.4 C48.3000001,33.6 48.6000001,31.5 48.3000001,29.4 C48.6000001,29.4 48.6000001,29.7 48.9000001,29.7 C53.4000001,32.7 57.9000001,35.7 62.4000001,38.4 C62.9999999,38.7 62.9999999,39 62.9999999,39.6 C63.3000001,41.4 62.7000001,42.6 61.2000001,43.5 C53.1000001,50.1000001 44.9999999,57.0000001 37.2,63.6000001 C36.3,64.5000001 35.9999999,65.1000001 35.9999999,66.0000001 C35.9999999,66.6000001 35.9999999,67.5000001 35.9999999,68.1000001 C35.9999999,68.1000001 35.9999999,68.1000001 36.3,68.1000001 C44.9999999,60.9000001 53.9999999,53.1000001 62.9999999,45.9 C62.9999999,47.1 62.9999999,48 62.9999999,49.2000001 C62.9999999,49.5000001 62.7000001,49.5000001 62.7000001,49.8000001 C53.9999999,57.0000001 45.3,64.5000001 36.6,71.7000001 C35.9999999,72.0000001 35.9999999,72.0000001 35.4,71.7000001 C26.4,64.5000001 17.9999999,57.0000001 9.29999989,49.8000001 C8.99999989,49.5000001 8.99999989,49.2000001 8.99999989,48.9000001 C8.99999989,45.9 8.99999989,42.9 8.99999989,39.9 C8.99999989,39.6 8.99999989,39.3 9.29999989,39 C12.5999999,36.9 15.5999999,34.8 18.8999999,32.7 C20.0999999,35.4 21.5999999,37.2 24.3,38.1 C23.6999999,36.9 22.7999999,35.4 22.4999999,34.2 C20.6999999,29.1 21.2999999,24.6 23.9999999,20.3999999 C25.8,17.9999999 28.2,15.8999999 29.9999999,14.0999999 C31.4999999,12.5999999 32.7,11.0999999 33.3,8.99999989 C33.9,6.59999988 33.6,4.19999987 32.1,2.39999986 C32.1,2.39999986 32.1,2.09999986 31.8,2.09999986 C35.7,1.49999986 39.6,7.49999988 38.7,12.5999999 C37.8,11.9999999 36.9,11.3999999 35.9999999,10.7999999 C35.9999999,10.7999999 35.9999999,10.7999999 35.7,11.0999999 C35.7,11.6999999 35.9999999,12.2999999 35.9999999,12.8999999 C36.3,15.5999999 35.7,18.2999999 34.2,20.0999999 C32.9999999,21.8999999 31.4999999,23.3999999 29.9999999,25.2 C26.1,29.4 25.2,34.2 26.9999999,39.6 C27.6,41.1 28.4999999,42.6 29.9999999,43.8 C30.3,43.8 30.3,44.1 30.6,44.1 C30.3,42.9 29.9999999,42 29.9999999,41.1 C29.4,38.1 30.3,35.4 32.1,33.3 C33.3,31.8 34.8,30.3 35.9999999,28.8 C37.2,27.3 38.4,26.1 39.6,24.6 C41.4,21.8999999 41.7,18.8999999 41.1,16.1999999 C41.1,16.1999999 41.1,16.1999999 41.1,15.8999999 L41.1,15.8999999 C45.3,16.4999999 47.9999999,22.1999999 46.8,26.1 L46.8,26.1 Z" transform="translate(15 15.854)"/></g></svg>