<svg xmlns="http://www.w3.org/2000/svg" width="121" height="121" viewBox="0 0 121 121"><g fill="none" fill-rule="evenodd" transform="translate(11 1)"><path fill="#FFF" fill-rule="nonzero" d="M49.4394392,0.0318675407 C22.3057387,1.05655877 0,24.0129849 0,51.0632884 C0,74.1581311 15.7531577,94.1840908 37.6796234,100.284188 L39.123,100.664864 L42.9875735,113.982705 L43.1785408,114.537893 C46.0893205,121.820521 56.3606795,121.820521 59.2714592,114.537893 L59.414029,114.18119 L62.886,100.712864 L63.516,100.496864 L63.2562825,100.567939 C85.9193193,94.8977587 102,74.3341875 102,50.6129372 C102,22.1810388 78.2198674,-0.978760095 49.4394392,0.0318675407 Z M49.65,6.02817175 C75.3,5.12746941 96,25.8436231 96,50.6129372 C96,71.7794421 81.6,89.7934887 61.8,94.7473516 L60.7909333,95.0889513 C58.9125333,95.7454632 57.8597333,96.3059002 57.4021333,97.9231613 L57.3,98.3501609 L53.7,112.311047 C52.8473684,114.444289 49.9753463,114.556565 48.9101473,112.647875 L48.75,112.311047 L44.7,98.3501609 C44.3210526,96.4539455 43.9421053,95.8351804 41.6820674,95.1491811 L40.742703,94.8861535 C40.5702216,94.8409148 40.3894737,94.7947569 40.2,94.7473516 C20.85,89.7934887 6,72.2297932 6,51.0632884 C6,27.1946766 25.8,6.92887408 49.65,6.02817175 Z"/><path fill="#182866" d="M49.65,6.02817175 C75.3,5.12746941 96,25.8436231 96,50.6129372 C96,71.7794421 81.6,89.7934887 61.8,94.7473516 L60.7909333,95.0889513 C58.9125333,95.7454632 57.8597333,96.3059002 57.4021333,97.9231613 L57.3,98.3501609 L53.7,112.311047 C52.8473684,114.444289 49.9753463,114.556565 48.9101473,112.647875 L48.75,112.311047 L44.7,98.3501609 C44.3210526,96.4539455 43.9421053,95.8351804 41.6820674,95.1491811 L40.742703,94.8861535 C40.5702216,94.8409148 40.3894737,94.7947569 40.2,94.7473516 C20.85,89.7934887 6,72.2297932 6,51.0632884 C6,27.1946766 25.8,6.92887408 49.65,6.02817175 Z"/><path fill="#FFF" fill-rule="nonzero" d="M33,65.9998639 C32.2,65.9998639 31.5,65.6998639 30.9,65.0998639 C30.3,64.4998639 30,63.7998639 30,62.9998639 C30,62.1998639 30.3,61.4998639 30.9,60.8998639 C31.5,60.2998639 32.2,59.9998639 33,59.9998639 C33.8,59.9998639 34.5,60.2998639 35.1,60.8998639 C35.7,61.4998639 36,62.1998639 36,62.9998639 C36,63.7998639 35.7,64.4998639 35.1,65.0998639 C34.5,65.6998639 33.8,65.9998639 33,65.9998639 L33,65.9998639 Z M45,65.9998639 C44.2,65.9998639 43.5,65.6998639 42.9,65.0998639 C42.3,64.4998639 42,63.7998639 42,62.9998639 C42,62.1998639 42.3,61.4998639 42.9,60.8998639 C43.5,60.2998639 44.2,59.9998639 45,59.9998639 C45.8,59.9998639 46.5,60.2998639 47.1,60.8998639 C47.7,61.4998639 48,62.1998639 48,62.9998639 C48,63.7998639 47.7,64.4998639 47.1,65.0998639 C46.5,65.6998639 45.8,65.9998639 45,65.9998639 Z M69,65.9998639 C68.2,65.9998639 67.5,65.6998639 66.9,65.0998639 C66.3,64.4998639 66,63.7998639 66,62.9998639 C66,62.1998639 66.3,61.4998639 66.9,60.8998639 C67.5,60.2998639 68.2,59.9998639 69,59.9998639 C69.8,59.9998639 70.5,60.2998639 71.1,60.8998639 C71.7,61.4998639 72,62.1998639 72,62.9998639 C72,63.7998639 71.7,64.4998639 71.1,65.0998639 C70.5,65.6998639 69.8,65.9998639 69,65.9998639 Z M33,77.9998639 C32.2,77.9998639 31.5,77.6998639 30.9,77.0998639 C30.3,76.4998639 30,75.7998639 30,74.9998639 C30,74.1998639 30.3,73.4998639 30.9,72.8998639 C31.5,72.2998639 32.2,71.9998639 33,71.9998639 C33.8,71.9998639 34.5,72.2998639 35.1,72.8998639 C35.7,73.4998639 36,74.1998639 36,74.9998639 C36,75.7998639 35.7,76.4998639 35.1,77.0998639 C34.5,77.6998639 33.8,77.9998639 33,77.9998639 L33,77.9998639 Z M45,77.9998639 C44.2,77.9998639 43.5,77.6998639 42.9,77.0998639 C42.3,76.4998639 42,75.7998639 42,74.9998639 C42,74.1998639 42.3,73.4998639 42.9,72.8998639 C43.5,72.2998639 44.2,71.9998639 45,71.9998639 C45.8,71.9998639 46.5,72.2998639 47.1,72.8998639 C47.7,73.4998639 48,74.1998639 48,74.9998639 C48,75.7998639 47.7,76.4998639 47.1,77.0998639 C46.5,77.6998639 45.8,77.9998639 45,77.9998639 Z M57,65.9998639 C56.2,65.9998639 55.5,65.6998639 54.9,65.0998639 C54.3,64.4998639 54,63.7998639 54,62.9998639 C54,62.1998639 54.3,61.4998639 54.9,60.8998639 C55.5,60.2998639 56.2,59.9998639 57,59.9998639 C57.8,59.9998639 58.5,60.2998639 59.1,60.8998639 C59.7,61.4998639 60,62.1998639 60,62.9998639 C60,63.7998639 59.7,64.4998639 59.1,65.0998639 C58.5,65.6998639 57.8,65.9998639 57,65.9998639 Z M57,77.9998639 C56.2,77.9998639 55.5,77.6998639 54.9,77.0998639 C54.3,76.4998639 54,75.7998639 54,74.9998639 C54,74.1998639 54.3,73.4998639 54.9,72.8998639 C55.5,72.2998639 56.2,71.9998639 57,71.9998639 C57.8,71.9998639 58.5,72.2998639 59.1,72.8998639 C59.7,73.4998639 60,74.1998639 60,74.9998639 C60,75.7998639 59.7,76.4998639 59.1,77.0998639 C58.5,77.6998639 57.8,77.9998639 57,77.9998639 Z M69,77.9998639 C68.2,77.9998639 67.5,77.6998639 66.9,77.0998639 C66.3,76.4998639 66,75.7998639 66,74.9998639 C66,74.1998639 66.3,73.4998639 66.9,72.8998639 C67.5,72.2998639 68.2,71.9998639 69,71.9998639 C69.8,71.9998639 70.5,72.2998639 71.1,72.8998639 C71.7,73.4998639 72,74.1998639 72,74.9998639 C72,75.7998639 71.7,76.4998639 71.1,77.0998639 C70.5,77.6998639 69.8,77.9998639 69,77.9998639 Z M27,56.5831973 L27,51.5831973 C27,45.6387528 29.0714286,40.4443084 33.2142857,35.9998639 C37.3571429,31.5554195 42.4285714,29.0276417 48.4285714,28.4165306 L48.4285714,20.9998639 L53.5714286,20.9998639 L53.5714286,28.4165306 C59.5714286,29.0276417 64.6428571,31.5554195 68.7857143,35.9998639 C72.9285714,40.4443084 75,45.6387528 75,51.5831973 L75,56.5831973 L27,56.5831973 Z"/></g></svg>