<svg xmlns="http://www.w3.org/2000/svg" width="121" height="121" viewBox="0 0 121 121"><g fill="none" fill-rule="evenodd" transform="translate(13 7)"><path fill="#FFF" fill-rule="nonzero" d="M83,0 C90.1637085,0 96,5.8362915 96,13 L96,83 C96,90.1637085 90.1637085,96 83,96 L60.011,96 L48,108.012641 L35.988,96 L13,96 C5.93863019,96 0.167022087,90.3292686 0.00356009429,83.3061902 L0,83 L0,13 C0,5.8362915 5.8362915,0 13,0 Z"/><path fill="#F60000" d="M83,6 C86.85,6 90,9.15 90,13 L90,83 C90,86.85 86.85,90 83,90 L57.522,90 L48,99.5226407 L38.478,90 L13,90 C9.15,90 6,86.85 6,83 L6,13 C6,9.15 9.15,6 13,6 L83,6 Z"/><g fill="#FFF" transform="translate(7.5 9)"><path fill-rule="nonzero" d="M6.421875 16.171875C5.4609375 16.171875 4.5859375 16.0449219 3.796875 15.7910156 3.0078125 15.5371094 2.33203125 15.1464844 1.76953125 14.6191406 1.20703125 14.0917969.771484375 13.4238281.462890625 12.6152344.154296875 11.8066406 0 10.8515625 0 9.75L0 .28125 3.46875.28125 3.46875 9.375C3.46875 10.6796875 3.7109375 11.6347656 4.1953125 12.2402344 4.6796875 12.8457031 5.421875 13.1484375 6.421875 13.1484375 7.40625 13.1484375 8.14453125 12.8457031 8.63671875 12.2402344 9.12890625 11.6347656 9.375 10.6796875 9.375 9.375L9.375.28125 12.84375.28125 12.84375 9.75C12.84375 10.859375 12.6894531 11.8164063 12.3808594 12.6210938 12.0722656 13.4257812 11.6367188 14.0917969 11.0742188 14.6191406 10.5117188 15.1464844 9.8359375 15.5371094 9.046875 15.7910156 8.2578125 16.0449219 7.3828125 16.171875 6.421875 16.171875ZM27.9375 14.34375C27.6640625 14.6640625 27.3515625 14.9394531 27 15.1699219 26.6484375 15.4003906 26.2695313 15.5898438 25.8632812 15.7382812 25.4570312 15.8867187 25.0351562 15.9960938 24.5976562 16.0664062 24.1601563 16.1367188 23.7265625 16.171875 23.296875 16.171875 22.4375 16.171875 21.6484375 16.0703125 20.9296875 15.8671875 20.2109375 15.6640625 19.5625 15.3789063 18.984375 15.0117188 18.40625 14.6445312 17.8984375 14.2089844 17.4609375 13.7050781 17.0234375 13.2011719 16.65625 12.6484375 16.359375 12.046875 16.0625 11.4453125 15.8398438 10.8105469 15.6914062 10.1425781 15.5429687 9.47460938 15.46875 8.7890625 15.46875 8.0859375 15.46875 7.390625 15.5449219 6.70703125 15.6972656 6.03515625 15.8496094 5.36328125 16.0761719 4.7265625 16.3769531 4.125 16.6777344 3.5234375 17.0527344 2.97070312 17.5019531 2.46679688 17.9511719 1.96289062 18.4667969 1.52929688 19.0488281 1.16601562 19.6308594.802734375 20.2832031.517578125 21.0058594.310546875 21.7285156.103515625 22.515625 0 23.3671875 0 24.265625 0 25.109375.107421875 25.8984375.322265625 26.6875.537109375 27.3945313.859375 28.0195312 1.2890625 28.6445312 1.71875 29.1777344 2.25585938 29.6191406 2.90039062 30.0605469 3.54492188 30.3828125 4.296875 30.5859375 5.15625L27.0234375 5.15625C26.7421875 4.46875 26.2890625 3.9375 25.6640625 3.5625 25.0390625 3.1875 24.2734375 3 23.3671875 3 22.765625 3 22.2050781 3.11523438 21.6855469 3.34570312 21.1660156 3.57617187 20.7167969 3.91015625 20.3378906 4.34765625 19.9589844 4.78515625 19.6621094 5.31835938 19.4472656 5.94726562 19.2324219 6.57617187 19.125 7.2890625 19.125 8.0859375 19.125 8.875 19.2382813 9.58789062 19.4648438 10.2246094 19.6914062 10.8613281 20 11.4023438 20.390625 11.8476562 20.78125 12.2929688 21.2421875 12.6367188 21.7734375 12.8789062 22.3046875 13.1210937 22.875 13.2421875 23.484375 13.2421875 24.1015625 13.2421875 24.6445312 13.1601562 25.1132812 12.9960938 25.5820312 12.8320312 25.9804688 12.609375 26.3085938 12.328125 26.6367188 12.046875 26.890625 11.7148437 27.0703125 11.3320312 27.25 10.9492188 27.359375 10.5390625 27.3984375 10.1015625L23.8125 10.1015625 23.8125 7.3125 30.796875 7.3125 30.796875 15.890625 28.5703125 15.890625 27.9375 14.34375ZM39.46875 16.171875C38.46875 16.171875 37.578125 16.0507812 36.796875 15.8085937 36.015625 15.5664063 35.3554688 15.2246094 34.8164062 14.7832031 34.2773438 14.3417969 33.859375 13.8105469 33.5625 13.1894531 33.265625 12.5683594 33.1015625 11.875 33.0703125 11.109375L36.5859375 11.109375C36.6171875 11.546875 36.7207031 11.9199219 36.8964844 12.2285156 37.0722656 12.5371094 37.296875 12.7890625 37.5703125 12.984375 37.84375 13.1796875 38.1582031 13.3222656 38.5136719 13.4121094 38.8691406 13.5019531 39.25 13.546875 39.65625 13.546875 40.0859375 13.546875 40.4511719 13.5 40.7519531 13.40625 41.0527344 13.3125 41.296875 13.1835938 41.484375 13.0195312 41.671875 12.8554688 41.8085938 12.6660156 41.8945312 12.4511719 41.9804687 12.2363281 42.0234375 12.0078125 42.0234375 11.765625 42.0234375 11.3046875 41.8945312 10.921875 41.6367188 10.6171875 41.3789062 10.3125 40.9609375 10.0703125 40.3828125 9.890625L37.3359375 9.0234375C36.0390625 8.671875 35.0585938 8.13476562 34.3945312 7.41210938 33.7304687 6.68945313 33.3984375 5.75 33.3984375 4.59375 33.3984375 3.875 33.5292969 3.23046875 33.7910156 2.66015625 34.0527344 2.08984375 34.4296875 1.60742187 34.921875 1.21289062 35.4140625.818359375 36.0117188.517578125 36.7148438.310546875 37.4179688.103515625 38.2109375 0 39.09375 0 39.9765625 0 40.7734375.107421875 41.484375.322265625 42.1953125.537109375 42.8046875.85546875 43.3125 1.27734375 43.8203125 1.69921875 44.2207031 2.21679687 44.5136719 2.83007812 44.8066406 3.44335938 44.984375 4.1484375 45.046875 4.9453125L41.53125 4.9453125C41.4921875 4.5078125 41.3964844 4.140625 41.2441406 3.84375 41.0917969 3.546875 40.8984375 3.30859375 40.6640625 3.12890625 40.4296875 2.94921875 40.1640625 2.8203125 39.8671875 2.7421875 39.5703125 2.6640625 39.265625 2.625 38.953125 2.625 38.2421875 2.625 37.7128906 2.77929687 37.3652344 3.08789062 37.0175781 3.39648438 36.84375 3.8046875 36.84375 4.3125 36.84375 4.75 36.9804688 5.12304687 37.2539062 5.43164062 37.5273437 5.74023438 37.9453125 5.984375 38.5078125 6.1640625L41.53125 7.03125C42.171875 7.2109375 42.7382812 7.43164062 43.2304688 7.69335938 43.7226562 7.95507813 44.1367187 8.265625 44.4726562 8.625 44.8085938 8.984375 45.0625 9.3984375 45.234375 9.8671875 45.40625 10.3359375 45.4921875 10.8671875 45.4921875 11.4609375 45.4921875 12.2109375 45.3554687 12.8789062 45.0820312 13.4648438 44.8085938 14.0507812 44.4140625 14.5429688 43.8984375 14.9414062 43.3828125 15.3398438 42.7519531 15.6445312 42.0058594 15.8554688 41.2597656 16.0664062 40.4140625 16.171875 39.46875 16.171875Z" transform="translate(18 33)"/><g transform="translate(34.5)"><polygon points="6 0 12 12 0 12"/><polygon points="6 69 12 81 0 81" transform="matrix(1 0 0 -1 0 150)"/></g><g transform="rotate(90 23.25 57.75)"><polygon points="6 0 12 12 0 12"/><polygon points="6 69 12 81 0 81" transform="matrix(1 0 0 -1 0 150)"/></g></g></g></svg>