<svg xmlns="http://www.w3.org/2000/svg" width="121" height="121" viewBox="0 0 121 121"><g fill="none" transform="translate(12 12)"><path fill="#FFF" d="M48,0 C21.490332,0 0,21.490332 0,48 C0,74.509668 21.490332,96 48,96 C74.509668,96 96,74.509668 96,48 C96,21.490332 74.509668,0 48,0 Z M48,6 C71.1959595,6 90,24.8040405 90,48 C90,71.1959595 71.1959595,90 48,90 C24.8040405,90 6,71.1959595 6,48 C6,24.8040405 24.8040405,6 48,6 Z"/><circle cx="48" cy="48" r="42" fill="#F60000" fill-rule="evenodd"/><path fill="#FFF" d="M31.4999999,23.9999999 C32.328,23.9999999 32.9999999,24.672 32.9999999,25.4999999 L32.9999999,26.9999999 L38.9999999,26.9999999 L36.57,29.37 L43.17,35.9999999 L68.9999999,35.9999999 C65.9999999,47.9999999 50.9999999,50.9999999 50.9999999,50.9999999 L8.99999986,50.9999999 C8.99999986,50.9999999 2.99999986,44.7 2.99999986,44.7 L2.99999986,41.9999999 L5.99999986,41.9999999 L8.99999986,35.9999999 L14.9999999,35.9999999 L14.9999999,29.9999999 L11.9999999,29.9999999 L11.9999999,26.9999999 L29.9999999,26.9999999 L29.9999999,25.4999999 L30.0068706,25.3556067 C30.0795985,24.5952664 30.7207059,23.9999999 31.4999999,23.9999999 Z M23.9999999,30 L17.9999999,30 L17.9999999,36 L23.9999999,36 L23.9999999,30 Z M33,30 L27,30 L27,36 L39,36 L33,30 Z M23.7809999,19.0559999 L27.834,23.1089999 L25.734,25.209 L21.6809999,21.1559999 L23.7809999,19.0559999 Z M39.102,19.0349999 L41.202,21.1349999 L37.149,25.188 L35.049,23.0879999 L39.102,19.0349999 Z M32.94,14.9999999 L32.94,20.9999999 L29.94,20.9999999 L29.94,14.9999999 L32.94,14.9999999 Z" transform="translate(12 12)"/></g></svg>