<svg xmlns="http://www.w3.org/2000/svg" width="121" height="121" viewBox="0 0 121 121"><g fill="none" transform="translate(12 12)"><path fill="#FFF" d="M48,0 C21.490332,0 0,21.490332 0,48 C0,74.509668 21.490332,96 48,96 C74.509668,96 96,74.509668 96,48 C96,21.490332 74.509668,0 48,0 Z M48,6 C71.1959595,6 90,24.8040405 90,48 C90,71.1959595 71.1959595,90 48,90 C24.8040405,90 6,71.1959595 6,48 C6,24.8040405 24.8040405,6 48,6 Z"/><circle cx="48" cy="48" r="42" fill="#F60000" fill-rule="evenodd"/><path fill="#FFF" d="M37.5000001,11.19 C38.3280002,11.19 39.0000001,11.862 39.0000001,12.69 L38.9999999,14.18 L49.6380001,14.1809999 L49.6380001,25.092 L57.8190001,25.092 L65.9999999,36 L65.9999999,49.6350001 L60.5430001,49.6350001 C60.5430001,54.2700001 56.9970001,57.8160001 52.3620001,57.8160001 C47.727,57.8160001 44.181,54.2700001 44.181,49.6350001 L27.816,49.6350001 C27.816,54.2700001 24.27,57.8160001 19.6349999,57.8160001 C14.9999999,57.8160001 11.4539999,54.2700001 11.4539999,49.6350001 L5.99999987,49.6350001 L5.99999987,19.6349999 C5.99999987,16.6349999 8.45399989,14.1809999 11.4539999,14.1809999 L35.9999999,14.18 L36.0000001,12.69 C36.0000001,11.9107059 36.5952666,11.2695986 37.3556069,11.1968708 Z M19.6349999,45.543 C17.4509999,45.543 15.5429999,47.451 15.5429999,49.6350001 C15.5429999,51.8190001 17.4539999,53.7270001 19.6349999,53.7270001 C21.8189999,53.7270001 23.7269999,51.8190001 23.7269999,49.6350001 C23.7269999,47.451 21.8189999,45.543 19.6349999,45.543 Z M52.3650001,45.543 C50.1810001,45.543 48.2730001,47.451 48.2730001,49.6350001 C48.2730001,51.8190001 50.1840001,53.7270001 52.3650001,53.7270001 C54.5460001,53.7270001 56.4540001,51.8190001 56.4570001,49.6350001 C56.4570001,47.451 54.5460001,45.543 52.3650001,45.543 Z M56.4540001,29.181 L49.6350001,29.181 L49.6350001,36 L61.9080001,36 L56.4540001,29.181 Z M45.0600003,6.12 L47.1600003,8.22000001 L43.2300002,12.21 L41.1300002,10.11 L45.0600003,6.12 Z M29.9730002,6.126 L33.9390002,10.092 L31.8390002,12.192 L27.8730002,8.22600001 L29.9730002,6.126 Z M39.1200002,5.19 L39.1200002,8.19 L36.1200002,8.19 L36.1200002,5.19 L39.1200002,5.19 Z" transform="translate(12 12)"/></g></svg>