<svg xmlns="http://www.w3.org/2000/svg" width="121" height="121" viewBox="0 0 121 121"><g fill="none" fill-rule="evenodd" transform="translate(11 1)"><path fill="#FFF" d="M49.4394952,0.0318675768 C22.3057639,1.05655997 0,24.0130121 0,51.0633463 C0,74.1582152 15.7531755,94.1841976 37.6796662,100.284302 L39.1230444,100.664978 L42.9876222,113.982834 L43.1785898,114.538023 C46.0893728,121.820659 56.3607434,121.820659 59.2715264,114.538023 L59.4140963,114.18132 L62.8860713,100.712978 L63.516072,100.496978 L63.2563542,100.568053 C85.9194167,94.8978663 102.000116,74.3342718 102.000116,50.6129946 C102.000116,22.1810639 78.2199561,-0.978761205 49.4394952,0.0318675768 Z M49.6500563,6.02817858 C75.3000854,5.12747523 96.0001089,25.8436524 96.0001089,50.6129946 C96.0001089,71.7795235 81.6000925,89.7935905 61.8000701,94.747459 L60.7910023,95.0890591 C58.9126001,95.7455717 57.8597989,96.3060094 57.4021984,97.9232723 L57.300065,98.3502724 L53.7000609,112.311174 C52.8474283,114.444419 49.9754029,114.556695 48.9102027,112.648003 L48.7500553,112.311174 L44.7000507,98.3502724 C44.3211029,96.4540548 43.9421551,95.8352891 41.6821146,95.149289 L40.7427492,94.8862611 C40.5702676,94.8410224 40.3895195,94.7948644 40.2000456,94.747459 C20.8500236,89.7935905 6.0000068,72.2298751 6.0000068,51.0633463 C6.0000068,27.1947074 25.8000293,6.92888194 49.6500563,6.02817858 Z"/><path fill="#192BC2" d="M49.6500563,6.02817858 C75.3000854,5.12747523 96.0001089,25.8436524 96.0001089,50.6129946 C96.0001089,71.7795235 81.6000925,89.7935905 61.8000701,94.747459 L60.7910023,95.0890591 C58.9126001,95.7455717 57.8597989,96.3060094 57.4021984,97.9232723 L57.300065,98.3502724 L53.7000609,112.311174 C52.8474283,114.444419 49.9754029,114.556695 48.9102027,112.648003 L48.7500553,112.311174 L44.7000507,98.3502724 C44.3211029,96.4540548 43.9421551,95.8352891 41.6821146,95.149289 L40.7427492,94.8862611 C40.5702676,94.8410224 40.3895195,94.7948644 40.2000456,94.747459 C20.8500236,89.7935905 6.0000068,72.2298751 6.0000068,51.0633463 C6.0000068,27.1947074 25.8000293,6.92888194 49.6500563,6.02817858 Z"/><g transform="translate(9 6)"><rect width="84" height="84"/><g fill="#FFF" fill-rule="nonzero" transform="translate(6.563 10.5)"><path d="M70.3272969,55.7479757 L38.5555734,1.93541469 C37.8480038,0.735657084 36.5586024,0 35.1653821,0 C35.160132,0 35.1550133,0 35.1500258,0 C33.7514242,0.0051187558 32.462154,0.752325853 31.7597032,1.96100847 L0.53148653,55.7735695 C-0.174770521,56.9913084 -0.177395524,58.4947788 0.525055272,59.7150115 C1.22737482,60.9352441 2.52845754,61.6875699 3.93703414,61.6875699 L66.9371056,61.6875699 C68.3508009,61.6875699 69.6556899,60.9301253 70.3568282,59.7021489 C71.0578352,58.4743038 71.0464165,56.9655833 70.3272969,55.7479757 Z M10.7751669,53.812561 L35.1946508,11.7317946 L60.0400415,53.812561 L10.7751669,53.812561 Z"/><path d="M30.4834267 27.9435504 30.4834267 30.1875342 27.9853427 30.1875342C27.7749487 30.1875342 27.6043235 30.3580282 27.6043235 30.5685534L27.6043235 33.4340067C28.8868999 33.0788438 31.0618461 32.7595121 32.8958045 32.6285245 36.0658893 32.402118 38.3031794 33.3241503 39.7289497 34.197095 39.9149312 34.3108889 39.9690062 34.4456828 39.9544375 34.5747017 38.5041233 34.1825263 36.9339778 33.8965322 35.4369386 33.8965322 30.6653394 33.8965322 25.1486332 36.7997855 25.1486332 36.7997855 25.1486332 39.8524014 25.7912339 43.4957743 26.2419469 45.6792518 27.2246168 45.378689 28.1066178 44.9019884 28.3712181 44.7320195L30.1022763 43.619412 31.8333345 44.7320195C32.3298538 45.0437386 34.0616995 45.9375521 35.4370699 45.9375521 36.8712402 45.9375521 38.6446922 44.9863823 39.0406739 44.7318882L40.7717322 43.6192807 42.5027904 44.7318882C42.8292095 44.936901 43.690998 45.389714 44.6331115 45.6784643 45.0838245 43.4990556 45.7253753 39.8635577 45.7253753 36.7997855 45.7253753 36.7997855 45.1184746 36.1495722 43.3120788 35.464709L43.3120788 30.5685534C43.3120788 30.3580282 43.1414536 30.1875342 42.9310596 30.1875342L40.390713 30.1875342 40.390713 27.9435504C40.390713 27.7330252 40.220219 27.5625313 40.0096938 27.5625313L30.8644459 27.5625313C30.6540519 27.5625313 30.4834267 27.7330252 30.4834267 27.9435504ZM34.1669622 42.0000476 28.8322999 42.0000476 28.8322999 39.7138013C28.8322999 39.2926196 29.1735503 38.9517629 29.5943382 38.9517629 30.0151262 38.9517629 30.3563766 39.2926196 30.3563766 39.7138013L30.3563766 40.4758396 32.6426229 40.4758396 32.6426229 39.7138013C32.6426229 39.2924883 32.9838733 38.9517629 33.4046613 38.9517629 33.8254493 38.9517629 34.1668309 39.2924883 34.1668309 39.7138013L34.1668309 42.0000476 34.1669622 42.0000476ZM40.6024195 40.4758396 40.6024195 39.7138013C40.6024195 39.2924883 40.9436699 38.9517629 41.3644578 38.9517629 41.7852458 38.9517629 42.1266274 39.2924883 42.1266274 39.7138013L42.1266274 42.0000476 36.7919651 42.0000476 36.7919651 39.7138013C36.7919651 39.2926196 37.1332155 38.9517629 37.5540035 38.9517629 37.9747915 38.9517629 38.3160419 39.2926196 38.3160419 39.7138013L38.3160419 40.4758396 40.6024195 40.4758396 40.6024195 40.4758396ZM40.7717322 46.1974274 39.947875 46.7272842C39.9249062 46.7421155 37.5961348 48.2001734 35.4370699 48.2001734 33.2646174 48.2001734 30.9470023 46.740803 30.9262647 46.7272842L30.1024076 46.1974274 29.2785504 46.7272842C29.2554503 46.7422468 26.926679 48.2001734 24.7677453 48.2001734 23.841513 48.2001734 23.1019184 47.9343919 22.312055 47.6289728L22.312055 50.7735951C23.1424747 51.0132578 23.840988 51.187558 24.7677453 51.187558 26.9096164 51.187558 28.991375 50.2795695 30.1024076 49.6998376 31.2134401 50.2795695 33.2950674 51.187558 35.4370699 51.187558 37.5790723 51.187558 39.6606996 50.2795695 40.7717322 49.6998376 41.8828959 50.2795695 43.9645233 51.187558 46.1063945 51.187558 47.0331518 51.187558 47.731665 51.0132578 48.5620847 50.7734638L48.5620847 47.627004C47.7705151 47.9332106 47.0294768 48.2001734 46.1063945 48.2001734 43.933942 48.2001734 41.6164581 46.740803 41.5955893 46.7272842L40.7717322 46.1974274Z"/></g></g></g></svg>