<svg xmlns="http://www.w3.org/2000/svg" width="121" height="121" viewBox="0 0 121 121"><g fill="none" fill-rule="evenodd" transform="translate(11 1)"><path fill="#FFF" d="M49.4394392,0.0320036075 C22.3057387,1.05669484 0,24.0131209 0,51.0634245 C0,74.1582672 15.7531577,94.1842269 37.6796234,100.284324 L39.123,100.665 L42.9875735,113.982841 L43.1785408,114.538029 C46.0893205,121.820657 56.3606795,121.820657 59.2714592,114.538029 L59.414029,114.181326 L62.886,100.713 L63.516,100.497 L63.2562825,100.568075 C85.9193193,94.8978948 102,74.3343236 102,50.6130733 C102,22.1811749 78.2198674,-0.978624028 49.4394392,0.0320036075 Z M49.65,6.02830781 C75.3,5.12760548 96,25.8437591 96,50.6130733 C96,71.7795781 81.6,89.7936248 61.8,94.7474876 L60.7909333,95.0890873 C58.9125333,95.7455993 57.8597333,96.3060363 57.4021333,97.9232973 L57.3,98.350297 L53.7,112.311183 C52.8473684,114.444425 49.9753463,114.556701 48.9101473,112.648011 L48.75,112.311183 L44.7,98.350297 C44.3210526,96.4540815 43.9421053,95.8353165 41.6820674,95.1493172 L40.742703,94.8862895 C40.5702216,94.8410509 40.3894737,94.794893 40.2,94.7474876 C20.85,89.7936248 6,72.2299293 6,51.0634245 C6,27.1948126 25.8,6.92901015 49.65,6.02830781 Z"/><path fill="#192BC2" d="M49.65,6.02830781 C75.3,5.12760548 96,25.8437591 96,50.6130733 C96,71.7795781 81.6,89.7936248 61.8,94.7474876 L60.7909333,95.0890873 C58.9125333,95.7455993 57.8597333,96.3060363 57.4021333,97.9232973 L57.3,98.350297 L53.7,112.311183 C52.8473684,114.444425 49.9753463,114.556701 48.9101473,112.648011 L48.75,112.311183 L44.7,98.350297 C44.3210526,96.4540815 43.9421053,95.8353165 41.6820674,95.1493172 L40.742703,94.8862895 C40.5702216,94.8410509 40.3894737,94.794893 40.2,94.7474876 C20.85,89.7936248 6,72.2299293 6,51.0634245 C6,27.1948126 25.8,6.92901015 49.65,6.02830781 Z"/><path fill="#FFF" d="M82.9790837,45.532922 C82.9790837,45.532922 85.560682,47.5230811 82.5134103,49.7936639 C82.5134103,49.7936639 79.1653203,52.4789341 77.87877,53.1638479 C77.87877,53.1638479 70.7950954,57.0880813 65.5809126,53.1638479 L63.9340602,51.7923207 C63.9340602,51.7923207 60.3939225,49.6237101 56.911569,51.7923207 C56.911569,51.7923207 53.44961,54.620352 50.0777264,54.4826894 C46.7058429,54.3416278 43.6534726,52.7236675 42.5844631,51.9571759 C42.5844631,51.9571759 39.1276027,49.5098411 36.0854296,51.9571759 C36.0854296,51.9571759 32.9548805,55.0282412 28.5853682,54.620352 C28.5853682,54.620352 23.3473919,54.1257864 20.1862511,50.9136595 C20.1862511,50.9136595 16.6529115,48.3643524 18.5699904,46.4693675 C18.5699904,46.4693675 19.6729906,44.7426368 21.5390834,46.1923428 L25.4888098,48.6940628 C25.4888098,48.6940628 28.9422712,50.9425517 32.239375,48.6940628 L36.3029705,46.1923428 C36.3029705,46.1923428 39.3774348,44.4078278 43.2710765,46.4982596 C45.7169885,47.8055206 46.876362,48.4018351 47.4005073,48.6646095 L47.5525888,48.7403654 C47.7408598,48.8334424 47.7986459,48.858918 47.7986459,48.858918 C47.7986459,48.858918 50.0777264,50.9680447 53.0944065,48.858918 L57.158002,46.4404753 C57.158002,46.4404753 61.2147993,43.6974209 64.8127214,46.4404753 L67.9704631,48.858918 C67.9704631,48.858918 71.5632866,50.8626734 74.6343518,48.858918 L78.9205868,45.8065476 C78.9205868,45.8065476 81.1690757,43.7484071 82.9790837,45.532922 Z M74.7930887,31.1555099 L74.841,31.156 L74.8858835,31.155 C75.1701417,31.155 75.4468363,31.1915087 75.7125904,31.2606311 C77.3647322,31.6440746 78.5898567,33.0370679 78.5898567,34.6956476 C78.5898567,34.8001395 78.5850025,34.9035693 78.5754933,35.0057524 C78.5842361,35.1297916 78.5891769,35.2559668 78.5891769,35.3834507 L78.5891769,41.5833655 C78.5891769,43.9202304 76.9338268,45.8067176 74.8858835,45.8067176 C72.8362406,45.8067176 71.1808905,43.9202304 71.1808905,41.5833655 L71.18,38.235 L29.352,38.235 L29.3521997,41.5833655 C29.3521997,43.9202304 27.6985492,45.8067176 25.6506058,45.8067176 C23.6094606,45.8067176 21.9490119,43.9202304 21.9490119,41.5833655 L21.9490119,35.3834507 C21.9490119,35.2552869 21.954021,35.1284458 21.963827,35.0031688 C21.9541432,34.902226 21.9493519,34.7994609 21.9493519,34.6956476 C21.9493519,33.0417381 23.1675867,31.6519214 24.8141506,31.2635803 C25.0830021,31.1926163 25.3630255,31.155 25.6506058,31.155 L74.7930887,31.1555099 Z M74.8858835,56.187666 C76.9338268,56.187666 78.5891769,58.0741533 78.5891769,60.4110181 L78.5891769,66.6109329 C78.5891769,66.7384835 78.5842309,66.864724 78.5745452,66.9894165 C78.5850134,67.0910467 78.5898567,67.1943615 78.5898567,67.298736 C78.5898567,68.9666561 77.3508947,70.36599 75.6852339,70.7404563 C75.4273854,70.8053951 75.1601552,70.8393836 74.8858835,70.8393836 L74.822,70.837 L74.7930887,70.8388738 L25.749519,70.8388738 C25.738793,70.8388738 25.7280775,70.8388323 25.7173725,70.8387497 L25.6506058,70.8393836 C25.3729788,70.8393836 25.1023947,70.8043261 24.8420738,70.737876 C23.1813854,70.3581516 21.9493519,68.9619859 21.9493519,67.298736 C21.9493519,67.1943615 21.9541952,67.0910467 21.9636837,66.9889755 C21.9539732,66.864724 21.9490119,66.7384835 21.9490119,66.6109329 L21.9490119,60.4110181 C21.9490119,58.0741533 23.6094606,56.187666 25.6506058,56.187666 C27.6985492,56.187666 29.3521997,58.0741533 29.3521997,60.4110181 L29.352,63.758 L71.18,63.758 L71.1808905,60.4110181 C71.1808905,58.0741533 72.8362406,56.187666 74.8858835,56.187666 Z"/></g></svg>