<svg xmlns="http://www.w3.org/2000/svg" width="121" height="121" viewBox="0 0 121 121"><g fill="none" fill-rule="evenodd" transform="translate(11 1)"><path fill="#FFF" d="M49.4394952,0.0318675768 C22.3057639,1.05655997 0,24.0130121 0,51.0633463 C0,74.1582152 15.7531755,94.1841976 37.6796662,100.284302 L39.1230444,100.664978 L42.9876222,113.982834 L43.1785898,114.538023 C46.0893728,121.820659 56.3607434,121.820659 59.2715264,114.538023 L59.4140963,114.18132 L62.8860713,100.712978 L63.516072,100.496978 L63.2563542,100.568053 C85.9194167,94.8978663 102.000116,74.3342718 102.000116,50.6129946 C102.000116,22.1810639 78.2199561,-0.978761205 49.4394952,0.0318675768 Z M49.6500563,6.02817858 C75.3000854,5.12747523 96.0001089,25.8436524 96.0001089,50.6129946 C96.0001089,71.7795235 81.6000925,89.7935905 61.8000701,94.747459 L60.7910023,95.0890591 C58.9126001,95.7455717 57.8597989,96.3060094 57.4021984,97.9232723 L57.300065,98.3502724 L53.7000609,112.311174 C52.8474283,114.444419 49.9754029,114.556695 48.9102027,112.648003 L48.7500553,112.311174 L44.7000507,98.3502724 C44.3211029,96.4540548 43.9421551,95.8352891 41.6821146,95.149289 L40.7427492,94.8862611 C40.5702676,94.8410224 40.3895195,94.7948644 40.2000456,94.747459 C20.8500236,89.7935905 6.0000068,72.2298751 6.0000068,51.0633463 C6.0000068,27.1947074 25.8000293,6.92888194 49.6500563,6.02817858 Z"/><path fill="#192BC2" d="M49.6500563,6.02817858 C75.3000854,5.12747523 96.0001089,25.8436524 96.0001089,50.6129946 C96.0001089,71.7795235 81.6000925,89.7935905 61.8000701,94.747459 L60.7910023,95.0890591 C58.9126001,95.7455717 57.8597989,96.3060094 57.4021984,97.9232723 L57.300065,98.3502724 L53.7000609,112.311174 C52.8474283,114.444419 49.9754029,114.556695 48.9102027,112.648003 L48.7500553,112.311174 L44.7000507,98.3502724 C44.3211029,96.4540548 43.9421551,95.8352891 41.6821146,95.149289 L40.7427492,94.8862611 C40.5702676,94.8410224 40.3895195,94.7948644 40.2000456,94.747459 C20.8500236,89.7935905 6.0000068,72.2298751 6.0000068,51.0633463 C6.0000068,27.1947074 25.8000293,6.92888194 49.6500563,6.02817858 Z"/><path fill="#FFF" d="M55.418314,18.0000204 L55.418314,51.6949778 L51.3610238,51.6940204 L51.3612874,60.5583342 C51.8390686,60.525757 52.4156874,60.4546868 53.0086934,60.3081358 C53.0086934,60.3081358 54.0620458,60.0370978 54.3531037,59.9462384 C54.3531037,59.9462384 55.4341759,59.6120608 55.8684528,59.4611419 C56.3027297,59.311763 57.5578206,58.9329257 58.0044174,58.8405264 C58.4510142,58.7465871 59.1932888,58.5818082 60.0233429,58.617228 C60.0233429,58.617228 60.7902573,58.5972081 62.0607482,58.9360057 C62.0607482,58.9360057 62.8692424,59.1639241 63.8825551,59.5581612 C63.8825551,59.5581612 63.9766655,59.5932387 64.1069372,59.641948 L64.3222219,59.722555 C64.5501403,59.8080244 64.7942285,59.9000388 64.8589081,59.9262186 C64.9867271,59.9770382 65.8460409,60.2557762 66.0446995,60.3081358 C66.0446995,60.3081358 66.7869742,60.4698347 67.0379924,60.5129543 C67.0379924,60.5129543 68.4224424,60.7223928 69.9116117,60.4698347 C69.9116117,60.4698347 70.8848847,60.3219957 71.7041588,60.0555776 C71.7041588,60.0555776 73.9956623,59.2855832 74.3467797,59.173164 C74.6917373,59.0592048 76.0038078,58.6634277 76.957061,58.5910482 L77.0208709,58.5826994 C77.2998992,58.5485253 78.463304,58.4297511 79.9015198,58.617228 L79.9015198,64.6894043 C79.9015198,64.6894043 78.0889528,64.5384854 77.8302347,64.5384854 C77.5715165,64.5384854 77.3790179,64.5246255 77.1418596,64.5461853 C76.9093213,64.5646652 76.2948657,64.6293447 76.0638674,64.6693844 C76.0638674,64.6693844 74.9874151,64.9311825 74.7564168,64.9850821 C74.7564168,64.9850821 73.6337649,65.3392796 73.4058465,65.417819 C73.4058465,65.417819 73.3911029,65.422747 73.364728,65.4315685 L73.2538227,65.4686791 C73.1142489,65.5154013 72.8980076,65.5878554 72.6891366,65.6581112 L72.4379657,65.7427657 C72.2811832,65.7957449 72.1538355,65.839116 72.1045559,65.8567159 C71.9259172,65.9106155 71.2406221,66.110814 71.0866232,66.1523937 C70.9372443,66.1908935 70.4121081,66.3217925 70.0502107,66.3741521 C69.6867733,66.4280518 69.2879162,66.4942713 68.6472808,66.5096712 C68.6472808,66.5096712 68.0282052,66.537391 67.2705307,66.4172718 C67.2705307,66.4172718 66.7099747,66.3217925 66.3064976,66.2216932 C66.3064976,66.2216932 64.999047,65.8613358 64.6448496,65.7119569 L64.6281526,65.7063656 L64.5059516,65.6654432 C64.1003649,65.5296201 62.9341937,65.139081 62.7414233,65.0744015 C62.7414233,65.0744015 61.8174299,64.8141434 61.5633318,64.7633237 C61.3123136,64.7109641 60.7286578,64.5985449 60.3837003,64.5739051 C60.0433627,64.5523453 59.4858867,64.5184655 59.03005,64.5523453 C58.5742133,64.581605 57.8750583,64.6863243 57.5147009,64.7510038 C57.1528035,64.8156834 56.0963711,65.0682415 55.8253331,65.140621 C55.5512151,65.2130005 53.7340281,65.701177 53.4568301,65.7704765 C53.1811721,65.839776 52.2540988,66.0646144 51.7166427,66.1369939 C51.6132067,66.1503692 51.4947979,66.1667276 51.3629773,66.1835004 L51.3610238,72.2510204 L57.233653,72.2515198 L50.4515418,84.0000952 L43.6678906,72.2515198 L49.5400238,72.2510204 L49.5415978,66.2640494 C49.4044672,66.2560227 49.2638568,66.2442068 49.1202214,66.2278532 C49.1202214,66.2278532 47.8343306,66.0969541 46.8364178,65.8459359 C45.8492849,65.5949178 44.9961311,65.3408196 44.4679149,65.1914407 C43.9350787,65.0389818 42.9772056,64.7833436 42.4936491,64.6924843 C42.4936491,64.6924843 41.5573358,64.5246255 41.0937991,64.5338654 C41.0937991,64.5338654 41.0416722,64.5312371 40.949742,64.5299522 L40.7835345,64.5295288 C40.4940659,64.5318942 40.0342868,64.5511133 39.5445703,64.6324247 C39.5445703,64.6324247 38.3618588,64.871123 37.9414418,65.0128019 C37.5194849,65.1560209 36.9327491,65.3562195 36.6570911,65.4578587 C36.386053,65.557958 35.4666797,65.8890556 35.3496405,65.9260154 C35.2341413,65.9660551 34.4595269,66.2139933 34.0914696,66.2879128 C33.7234122,66.3587523 33.4231144,66.4372917 32.7054795,66.4896513 C32.7054795,66.4896513 31.8230659,66.5589508 30.8636528,66.4172718 C30.8636528,66.4172718 29.6948012,66.2678929 28.8077676,65.9075355 C28.8077676,65.9075355 27.5141769,65.4424589 27.2477588,65.3300397 C27.2477588,65.3300397 26.4562045,65.0389818 25.8556089,64.871123 C25.8556089,64.871123 24.6020579,64.4861257 23.0743889,64.5338654 C23.0743889,64.5338654 21.3141815,64.5754451 21.0000238,64.6801643 L21.0000238,58.621848 C21.0000238,58.621848 22.7309713,58.34003 24.6174578,58.7019274 C24.6174578,58.7019274 25.4567517,58.7974067 27.1953992,59.4072423 C27.1953992,59.4072423 29.2112447,60.0755975 29.4037433,60.1264171 C29.5931619,60.1787767 30.8651928,60.5160343 31.6536671,60.560694 C31.6536671,60.560694 33.1412964,60.7223928 34.6828253,60.3743553 C34.6828253,60.3743553 35.4358799,60.2034166 35.9394563,60.0340178 C36.1461771,59.9636312 36.5774486,59.809691 37.0327572,59.6464891 L37.4242316,59.5060665 C37.786372,59.3761229 38.1272308,59.2538367 38.3441451,59.1772456 L38.4973233,59.1236739 C38.5169959,59.1169061 38.5335404,59.1112927 38.5466575,59.1069445 C38.8346354,59.0160851 40.0250468,58.6480278 40.8689608,58.6295479 C40.8689608,58.6295479 41.9038333,58.5186687 43.5624014,58.897506 C43.5624014,58.897506 44.9283715,59.2255236 45.4565877,59.4149422 C45.4565877,59.4149422 48.1069087,60.2141965 48.2840074,60.2511562 C48.4195421,60.2760043 48.9676021,60.4068829 49.5405785,60.4961605 L49.5400238,51.6940204 L45.4823056,51.6949778 L45.4823056,18.0000204 L55.418314,18.0000204 Z"/></g></svg>