<svg xmlns="http://www.w3.org/2000/svg" width="121" height="121" viewBox="0 0 121 121"><g fill="none" fill-rule="evenodd" transform="translate(11 1)"><path fill="#FFF" d="M49.4394952,0.0318675768 C22.3057639,1.05655997 0,24.0130121 0,51.0633463 C0,74.1582152 15.7531755,94.1841976 37.6796662,100.284302 L39.1230444,100.664978 L42.9876222,113.982834 L43.1785898,114.538023 C46.0893728,121.820659 56.3607434,121.820659 59.2715264,114.538023 L59.4140963,114.18132 L62.8860713,100.712978 L63.516072,100.496978 L63.2563542,100.568053 C85.9194167,94.8978663 102.000116,74.3342718 102.000116,50.6129946 C102.000116,22.1810639 78.2199561,-0.978761205 49.4394952,0.0318675768 Z M49.6500563,6.02817858 C75.3000854,5.12747523 96.0001089,25.8436524 96.0001089,50.6129946 C96.0001089,71.7795235 81.6000925,89.7935905 61.8000701,94.747459 L60.7910023,95.0890591 C58.9126001,95.7455717 57.8597989,96.3060094 57.4021984,97.9232723 L57.300065,98.3502724 L53.7000609,112.311174 C52.8474283,114.444419 49.9754029,114.556695 48.9102027,112.648003 L48.7500553,112.311174 L44.7000507,98.3502724 C44.3211029,96.4540548 43.9421551,95.8352891 41.6821146,95.149289 L40.7427492,94.8862611 C40.5702676,94.8410224 40.3895195,94.7948644 40.2000456,94.747459 C20.8500236,89.7935905 6.0000068,72.2298751 6.0000068,51.0633463 C6.0000068,27.1947074 25.8000293,6.92888194 49.6500563,6.02817858 Z"/><path fill="#192BC2" d="M49.6500563,6.02817858 C75.3000854,5.12747523 96.0001089,25.8436524 96.0001089,50.6129946 C96.0001089,71.7795235 81.6000925,89.7935905 61.8000701,94.747459 L60.7910023,95.0890591 C58.9126001,95.7455717 57.8597989,96.3060094 57.4021984,97.9232723 L57.300065,98.3502724 L53.7000609,112.311174 C52.8474283,114.444419 49.9754029,114.556695 48.9102027,112.648003 L48.7500553,112.311174 L44.7000507,98.3502724 C44.3211029,96.4540548 43.9421551,95.8352891 41.6821146,95.149289 L40.7427492,94.8862611 C40.5702676,94.8410224 40.3895195,94.7948644 40.2000456,94.747459 C20.8500236,89.7935905 6.0000068,72.2298751 6.0000068,51.0633463 C6.0000068,27.1947074 25.8000293,6.92888194 49.6500563,6.02817858 Z"/><path fill="#FFF" d="M58.6525136,63.4113661 L58.6525136,48.0925661 L43.3375522,48.0925661 L43.3375522,63.4113661 L28.0200318,63.4113661 L28.0200318,81.0000918 L43.3375522,81.0000918 L58.6525136,81.0000918 L73.9713136,81.0000918 L73.9713136,63.4113661 L58.6525136,63.4113661 Z M51.1913162,15.000017 C58.9812306,15.000017 65.293262,21.3146076 65.293262,29.1032423 C65.293262,36.8918771 58.9812306,43.2064677 51.1913162,43.2064677 C43.4014019,43.2064677 37.0893704,36.8918771 37.0893704,29.1032423 C37.0893704,21.3146076 43.4014019,15.000017 51.1913162,15.000017 Z M51.1913162,17.4260481 C44.7410931,17.4260481 39.514122,22.6530193 39.514122,29.1032423 C39.514122,35.5534654 44.7410931,40.7804365 51.1913162,40.7804365 C57.6415393,40.7804365 62.8685104,35.5534654 62.8685104,29.1032423 C62.8685104,22.6530193 57.6415393,17.4260481 51.1913162,17.4260481 Z M52.7764256,18.8130828 L52.7760318,27.808017 L58.4154125,27.8083354 L58.4154125,30.5516955 L49.605695,30.5516955 L49.6050318,29.179017 L49.6044155,18.8130828 L52.7764256,18.8130828 Z"/></g></svg>