<svg xmlns="http://www.w3.org/2000/svg" width="121" height="121" viewBox="0 0 121 121"><g fill="none" fill-rule="evenodd" transform="translate(11 1)"><path fill="#FFF" d="M49.4394392,0.0318675407 C22.3057387,1.05655877 0,24.0129849 0,51.0632884 C0,74.1581311 15.7531577,94.1840908 37.6796234,100.284188 L39.123,100.664864 L42.9875735,113.982705 L43.1785408,114.537893 C46.0893205,121.820521 56.3606795,121.820521 59.2714592,114.537893 L59.414029,114.18119 L62.886,100.712864 L63.516,100.496864 L63.2562825,100.567939 C85.9193193,94.8977587 102,74.3341875 102,50.6129372 C102,22.1810388 78.2198674,-0.978760095 49.4394392,0.0318675407 Z M49.65,6.02817175 C75.3,5.12746941 96,25.8436231 96,50.6129372 C96,71.7794421 81.6,89.7934887 61.8,94.7473516 L60.7909333,95.0889513 C58.9125333,95.7454632 57.8597333,96.3059002 57.4021333,97.9231613 L57.3,98.3501609 L53.7,112.311047 C52.8473684,114.444289 49.9753463,114.556565 48.9101473,112.647875 L48.75,112.311047 L44.7,98.3501609 C44.3210526,96.4539455 43.9421053,95.8351804 41.6820674,95.1491811 L40.742703,94.8861535 C40.5702216,94.8409148 40.3894737,94.7947569 40.2,94.7473516 C20.85,89.7934887 6,72.2297932 6,51.0632884 C6,27.1946766 25.8,6.92887408 49.65,6.02817175 Z"/><path fill="#192BC2" d="M49.65,6.02817175 C75.3,5.12746941 96,25.8436231 96,50.6129372 C96,71.7794421 81.6,89.7934887 61.8,94.7473516 L60.7909333,95.0889513 C58.9125333,95.7454632 57.8597333,96.3059002 57.4021333,97.9231613 L57.3,98.3501609 L53.7,112.311047 C52.8473684,114.444289 49.9753463,114.556565 48.9101473,112.647875 L48.75,112.311047 L44.7,98.3501609 C44.3210526,96.4539455 43.9421053,95.8351804 41.6820674,95.1491811 L40.742703,94.8861535 C40.5702216,94.8409148 40.3894737,94.7947569 40.2,94.7473516 C20.85,89.7934887 6,72.2297932 6,51.0632884 C6,27.1946766 25.8,6.92887408 49.65,6.02817175 Z"/><path fill="#FFF" d="M50.0630716,21.6740537 L53.2394527,21.8257477 C53.2136434,22.3661794 53.2723617,22.9087065 53.4028254,23.5516516 C53.4318091,23.6944876 53.459928,23.8231388 53.5151379,24.0718517 C53.6139088,24.5169156 54.1034252,26.0650388 54.3347337,26.6893977 C54.4093729,26.8908675 54.5132947,27.1878115 54.6411496,27.5621653 L54.6588684,27.6140925 C54.7455965,27.8684888 54.8311515,28.1223607 54.9053504,28.3440623 L55.0355898,28.7351951 C55.093294,28.9061967 55.1782867,29.1929176 55.2909974,29.5890687 L55.3071122,29.6457948 C55.4082712,30.0024202 55.5065064,30.3574211 55.5754051,30.6098209 C55.958061,32.0624961 56.0582118,33.4914487 56.0061848,34.6888976 C56.0018253,34.7892345 55.997642,34.8563272 55.9938515,34.9054898 C55.9753536,35.1515922 55.9438598,35.4139728 55.9010346,35.692861 C55.8584949,35.9698894 55.8055972,36.2580382 55.7437721,36.5582508 C55.6673244,36.9294679 55.4937935,37.6737572 55.5146932,37.5749129 C55.4752276,37.7684217 55.3002458,38.3316696 54.8961194,39.6023521 C54.8902913,39.6206761 54.8902913,39.6206761 54.884463,39.6389967 C54.7551454,40.0454677 54.6166823,40.4784559 54.4782318,40.9099195 C54.4044087,41.1397324 54.3674972,41.2546388 54.3405221,41.33742 L54.2624314,41.5721685 C54.2070085,41.714964 54.1247895,41.9665927 54.0281153,42.2895165 C53.9889303,42.4212221 53.9889303,42.4212221 53.9497173,42.5559337 C53.8650278,42.8482805 53.777533,43.1637655 53.6925527,43.4795623 C53.6415348,43.6691509 53.6029049,43.8159127 53.5881016,43.8722336 C53.4039889,44.6357763 53.3020868,45.3051821 53.2587139,45.8654368 C53.235957,46.2054953 53.2328431,46.4788449 53.2363962,46.6775033 C53.2375797,46.730518 53.239822,46.7815087 53.2426857,46.830772 C53.2448472,46.8679567 53.2473893,46.897645 53.2550548,47.0157687 C53.2719112,47.6759767 53.5363105,48.7018883 53.8419591,49.5963331 C53.890791,49.7357688 53.9818549,49.9744791 54.5012211,51.3290884 C54.8631725,52.2731512 55.0470753,52.7572151 55.1460696,53.0312577 C55.2136684,53.2174904 55.2817334,53.4261321 55.3507923,53.6549507 C55.4875189,54.1079787 55.6036005,54.5520358 55.6767799,54.8554226 C56.0245242,56.2877716 56.0935058,57.7368642 56.0076944,59.0211827 C55.9956327,59.2017081 55.9829176,59.3369629 55.9814755,59.3239769 C55.9270886,60.285301 55.6540691,61.4502106 55.3115539,62.6452065 C55.2672892,62.7991705 55.0963817,63.2930666 54.7833837,64.1832066 C54.7797098,64.1936545 54.7797098,64.1936545 54.7760359,64.2041013 C54.6636882,64.5235511 54.5834447,64.7508621 54.4231142,65.2041875 C54.2948444,65.5663517 54.2948444,65.5663517 54.2535346,65.6820487 C53.8983514,66.6318349 53.648611,67.4292222 53.4858371,68.0766704 C53.3950606,68.4377423 53.3543137,68.6538312 53.3250264,68.8497904 C53.1418673,69.7444738 53.078189,70.6652181 53.0998734,71.542076 L53.1015017,71.5558764 L53.1015017,71.7546265 C53.1015017,71.7546265 53.1030917,71.7896065 53.1094517,71.8547966 C53.1471117,72.2833413 53.3003813,73.9804091 53.4635757,74.9016082 L50.3220286,74.9004428 L50.0914878,73.5848969 C50.0664413,73.4419726 50.0330924,73.2058632 50.0010212,72.8906912 C49.8526903,71.4330074 49.8801867,69.8212924 50.1895403,68.3342413 C50.2275886,68.0289796 50.3116945,67.6095145 50.4539277,67.0764889 L29.3874369,67.0746186 L32.7638,59.9158756 L32.7363471,59.9134718 C32.5681378,59.8957656 32.3508801,59.8805016 32.165168,59.9059416 C31.9362079,59.9345616 31.5816378,60.0331416 31.3987877,60.0935617 C31.2159376,60.1571617 30.6816974,60.3908918 30.5449573,60.4592618 C30.5195173,60.4716927 30.4683219,60.4970539 30.4007368,60.5306243 L30.1581774,60.6512421 C30.0671783,60.69651 29.9691549,60.745266 29.8734729,60.7927892 L29.6028168,60.9269394 C29.4803665,60.9874443 29.3842569,61.034553 29.3460968,61.0523321 C29.2061768,61.1159321 28.7371266,61.3274022 28.4652365,61.3973622 C28.1933464,61.4609622 27.7195262,61.6024723 27.1503059,61.4848122 C27.1503059,61.4848122 26.4999957,61.3607922 25.9959654,61.1222921 C25.4951152,60.890152 25.0642251,60.6484719 24.7971049,60.5085518 C24.5268048,60.3638618 24.0418546,60.1221817 23.7969945,60.0379116 L23.7804249,60.032472 L23.6654956,59.9970427 C23.5077911,59.9506383 23.2452643,59.8820916 23.0894442,59.8884516 C23.0894442,59.8884516 22.7173841,59.8566516 22.3039839,59.9838516 C22.3039839,59.9838516 21.7061437,60.2048617 21.4946736,60.3416018 C21.2800235,60.4735718 20.9826934,60.6643719 20.8427733,60.7565919 C20.7060332,60.853582 20.2401631,61.1636321 20.181333,61.2002021 C20.122503,61.2367721 19.7313628,61.4657322 19.5453328,61.5356923 C19.3593027,61.6056523 19.2066626,61.6803823 18.8441425,61.7280823 L18.8086913,61.7324033 C18.6937107,61.7447332 18.3152022,61.7723374 17.9124021,61.6597123 C17.9124021,61.6597123 17.3209218,61.5182023 16.8709516,61.1843021 C16.8709516,61.1843021 16.2158714,60.7422819 16.0823113,60.6389319 C16.0823113,60.6389319 15.6816312,60.3638618 15.377941,60.2048617 C15.377941,60.2048617 14.7419408,59.8455216 13.9692004,59.8916316 C13.9692004,59.8916316 13.0788001,59.9282016 12.9198,60.0236016 L12.9198,54.3282193 C12.9198,54.3282193 13.7958904,54.0626891 14.7498908,54.4029493 C14.7498908,54.4029493 15.1760109,54.4951693 16.0552813,55.0675696 C16.0552813,55.0675696 17.0760617,55.6956198 17.1730518,55.7433198 C17.2684518,55.7941999 17.9124021,56.1122 18.3130822,56.15195 C18.3130822,56.15195 19.0635626,56.3077701 19.8442529,55.9754599 C19.8442529,55.9754599 20.225853,55.8180499 20.4802532,55.6558698 C20.7346533,55.4968697 21.6584436,54.8704095 21.7999537,54.7845494 C21.9462338,54.6970994 22.548844,54.3552493 22.9749642,54.3345793 C22.9749642,54.3345793 23.4980744,54.2328192 24.3391848,54.5873894 C24.3391848,54.5873894 25.029245,54.8958495 25.2963652,55.0755196 C25.2963652,55.0755196 25.3802377,55.122524 25.5074626,55.1935523 L25.6783483,55.288847 C25.8337719,55.3754175 26.0163397,55.4768198 26.1855317,55.5700734 L26.4386777,55.7088392 L26.5252826,55.755766 L26.6603894,55.8275491 C26.695384,55.8456797 26.7192885,55.8574183 26.7289558,55.8609799 C26.8211758,55.8911899 27.302946,56.1122 27.6750061,56.1599 C27.6750061,56.1599 28.3714264,56.2584801 29.1187267,55.9150399 C29.1187267,55.9150399 29.651377,55.6622298 29.799247,55.5747798 C29.799247,55.5747798 29.961979,55.4811143 30.1457836,55.372999 L30.3313657,55.2630011 C30.4224222,55.2085277 30.5069419,55.1570432 30.5672174,55.1184496 C30.7850474,54.9801195 31.4210477,54.6239594 31.6468278,54.5333293 C31.8741979,54.4458793 32.2478481,54.2916492 32.6691982,54.3250393 C32.6691982,54.3250393 33.0571584,54.3043692 33.6995187,54.6255494 C33.6995187,54.6255494 34.1097388,54.8386095 34.621719,55.2122596 C34.621719,55.2122596 34.7627197,55.3083489 34.8953769,55.399668 L43.2729126,37.6405263 L52.1813742,37.6385209 C52.3105391,37.2262509 52.3984759,36.9412882 52.4013069,36.927544 C52.3924904,36.9691467 52.56324,36.2367868 52.6291315,35.9168283 C52.680782,35.6660225 52.7241935,35.4295477 52.7578748,35.2102066 C52.7890206,35.0073778 52.8109607,34.8245911 52.8233467,34.6600176 C52.8236843,34.6575771 52.8265206,34.6120877 52.8291807,34.5508624 C52.8685005,33.6458833 52.7894072,32.5173805 52.5040814,31.4339364 C52.4414362,31.204676 52.3455928,30.8583188 52.2478072,30.5135862 L52.2323825,30.4592891 C52.1344168,30.1149629 52.0578373,29.8566239 52.0196426,29.7433563 C51.9285734,29.4683151 51.7898805,29.0535386 51.6489725,28.6402189 C51.6403966,28.6150711 51.6403966,28.6150711 51.6318217,28.5899561 C51.5122278,28.2397903 51.4154477,27.9632528 51.3527916,27.7941283 C51.0755561,27.0458009 50.5463146,25.3720449 50.4097933,24.756853 C50.3548301,24.5095878 50.3208507,24.3541237 50.2863373,24.1840361 C50.1079786,23.305057 50.0227756,22.5178258 50.0630716,21.6740537 Z M58.4829939,21.1548756 L61.6544573,21.3877453 C61.6087134,22.010735 61.5925443,22.5453243 61.6212742,22.9464794 C61.6533533,23.3943974 61.7726695,24.2053956 61.8788553,24.7601863 C61.9521773,25.1354954 62.2831778,26.4653248 62.3965519,26.8595179 C62.6579576,27.7684054 63.2114423,29.7067178 63.2962001,30.0189896 C63.5725365,31.0654438 63.761057,31.8556557 63.850916,32.5049694 C63.8503702,32.5009876 63.9105705,32.9265629 63.9304802,33.077665 C64.0818881,34.2267523 64.1199451,35.2300569 63.9866788,36.3354216 L63.9768017,36.422977 L63.9493098,36.6474829 C63.9329835,36.7752512 63.9127855,36.9253428 63.8887105,37.0934838 L63.8048,37.6388756 L71.0343242,37.6405263 L84.9198,67.0746186 L62.0978,67.0738756 L62.0715835,67.1552452 C62.0470206,67.2318692 62.0227541,67.3095814 61.9974654,67.3926473 C61.9561477,67.5184124 61.882439,67.7901532 61.8056678,68.1718853 C61.6548322,68.9218903 61.5746067,69.7215989 61.6025958,70.5317845 C61.6046176,70.6140053 61.6089254,70.7616668 61.61566,70.9525303 C61.6268748,71.2703674 61.6407924,71.5878298 61.6574432,71.8816307 C61.6848453,72.3651364 61.7315653,72.8252061 61.7148799,72.7782331 L62.468715,74.9004428 L59.7689761,74.9012304 C59.3018653,74.3678864 58.6560871,73.3590421 58.4603465,71.7215427 L58.4577888,71.5705164 L58.4376364,71.0646659 C58.4304704,70.861575 58.4258391,70.7028276 58.4240284,70.6259246 C58.3871902,69.5626427 58.4915903,68.5219573 58.6880889,67.5449004 C58.7913308,67.0315471 58.8976352,66.6396363 58.9645381,66.4375451 C59.0137949,66.2741168 59.07036,66.0980313 59.1333974,65.9106105 C59.179571,65.7742683 59.179571,65.7742683 59.2259357,65.6406033 C59.3874852,65.1772959 59.547696,64.75174 59.6883665,64.3986138 C59.7328758,64.3001539 59.8683337,63.963496 60.0479836,63.5052694 L60.0605724,63.4731463 C60.2149842,63.0789709 60.3677963,62.683707 60.49442,62.3580868 C60.565383,62.19465 60.634547,62.0072301 60.7004818,61.8008436 C60.8203337,61.4256877 60.9223284,61.0120593 61.0045414,60.5968295 C61.0538409,60.347835 61.0847172,60.1587417 61.1029073,60.0288965 C61.2068015,59.3760805 61.2278718,58.6961638 61.2003324,58.1189525 C61.1967813,58.0445219 61.1930426,57.9889755 61.1915936,57.973312 C61.1443471,57.3846999 61.0983079,57.1017709 60.9844059,56.5856237 L60.9776365,56.5549594 C60.955511,56.4547201 60.955511,56.4547201 60.9313828,56.3427354 C60.8702712,56.0531606 60.6095907,55.2362323 60.4777428,54.8740231 C60.4371957,54.7571521 59.9837733,53.5754479 59.8379287,53.2067386 C59.7070402,52.8751542 59.4668343,52.2217271 59.1971428,51.4725241 C59.1222586,51.2677627 59.0448246,51.0042841 58.9578283,50.6731676 C58.9159445,50.5120386 58.9159445,50.5120386 58.8753871,50.3502631 C58.7629017,49.8981554 58.6613711,49.4511825 58.5841489,49.0888211 C58.4372173,48.2586578 58.3978887,47.4607381 58.4160454,46.8002567 L58.4172086,46.764544 L58.4182272,46.7510711 L58.4205973,46.5721725 C58.4279052,46.3473131 58.4504823,46.0961725 58.4851711,45.8142166 C58.5037192,45.6634556 58.5254901,45.5068883 58.5498418,45.346393 C58.5960373,45.0419316 58.6421021,44.7805872 58.6762541,44.6026977 C58.7979297,43.9912776 59.1130227,42.8476592 59.4181456,41.8434901 C59.4592805,41.7074995 59.7219288,40.8546968 59.8084534,40.5688035 C59.9867406,39.9797092 60.140918,39.449016 60.287408,38.912398 C60.3088014,38.8338631 60.3088014,38.8338631 60.3309801,38.7517325 C60.3851004,38.5524056 60.4379458,38.3301939 60.488903,38.0895006 C60.5852463,37.6344288 60.6697414,37.1391295 60.7408138,36.6427569 C60.7834961,36.3446616 60.8118411,36.1153413 60.8274396,35.9730858 C60.9259399,35.1554456 60.8973074,34.4006002 60.7777296,33.4930827 C60.7601927,33.3599892 60.7016719,32.9462867 60.7006569,32.9388726 C60.6358967,32.4709278 60.4602232,31.7345658 60.2244643,30.841622 C60.1489124,30.5633992 59.5943793,28.6214153 59.34044,27.7384881 C59.2032724,27.2615666 58.8506251,25.844769 58.7567081,25.3639813 C58.627921,24.6911796 58.4918341,23.7661909 58.449397,23.173643 C58.4068291,22.5792689 58.4267382,21.9210257 58.4829939,21.1548756 Z"/></g></svg>