<svg xmlns="http://www.w3.org/2000/svg" width="121" height="121" viewBox="0 0 121 121"><g fill="none" fill-rule="evenodd" transform="translate(11 1)"><path fill="#FFF" d="M49.4394952,0.0318675768 C22.3057639,1.05655997 0,24.0130121 0,51.0633463 C0,74.1582152 15.7531755,94.1841976 37.6796662,100.284302 L39.1230444,100.664978 L42.9876222,113.982834 L43.1785898,114.538023 C46.0893728,121.820659 56.3607434,121.820659 59.2715264,114.538023 L59.4140963,114.18132 L62.8860713,100.712978 L63.516072,100.496978 L63.2563542,100.568053 C85.9194167,94.8978663 102.000116,74.3342718 102.000116,50.6129946 C102.000116,22.1810639 78.2199561,-0.978761205 49.4394952,0.0318675768 Z M49.6500563,6.02817858 C75.3000854,5.12747523 96.0001089,25.8436524 96.0001089,50.6129946 C96.0001089,71.7795235 81.6000925,89.7935905 61.8000701,94.747459 L60.7910023,95.0890591 C58.9126001,95.7455717 57.8597989,96.3060094 57.4021984,97.9232723 L57.300065,98.3502724 L53.7000609,112.311174 C52.8474283,114.444419 49.9754029,114.556695 48.9102027,112.648003 L48.7500553,112.311174 L44.7000507,98.3502724 C44.3211029,96.4540548 43.9421551,95.8352891 41.6821146,95.149289 L40.7427492,94.8862611 C40.5702676,94.8410224 40.3895195,94.7948644 40.2000456,94.747459 C20.8500236,89.7935905 6.0000068,72.2298751 6.0000068,51.0633463 C6.0000068,27.1947074 25.8000293,6.92888194 49.6500563,6.02817858 Z"/><path fill="#192BC2" d="M49.6500563,6.02817858 C75.3000854,5.12747523 96.0001089,25.8436524 96.0001089,50.6129946 C96.0001089,71.7795235 81.6000925,89.7935905 61.8000701,94.747459 L60.7910023,95.0890591 C58.9126001,95.7455717 57.8597989,96.3060094 57.4021984,97.9232723 L57.300065,98.3502724 L53.7000609,112.311174 C52.8474283,114.444419 49.9754029,114.556695 48.9102027,112.648003 L48.7500553,112.311174 L44.7000507,98.3502724 C44.3211029,96.4540548 43.9421551,95.8352891 41.6821146,95.149289 L40.7427492,94.8862611 C40.5702676,94.8410224 40.3895195,94.7948644 40.2000456,94.747459 C20.8500236,89.7935905 6.0000068,72.2298751 6.0000068,51.0633463 C6.0000068,27.1947074 25.8000293,6.92888194 49.6500563,6.02817858 Z"/><path fill="#FFF" d="M45.6302445,42.8305491 C45.6302445,37.5363775 41.3374431,33.2452762 36.0415714,33.2452762 L33.5032932,33.2452762 C33.6104007,32.2626072 33.7668117,31.332642 33.9946277,30.9212131 C33.9946277,30.9212131 37.1568497,26.8222253 35.1660099,25.4196269 C35.1660099,25.4196269 33.3910853,24.3332506 32.1874008,25.3839244 C31.9374833,24.5831681 31.1979313,24.0000272 30.3155694,24.0000272 C29.4281071,24.0000272 28.6868551,24.5899686 28.4403378,25.3958252 C27.2366533,24.3264501 25.4498278,25.4196269 25.4498278,25.4196269 C23.4606882,26.8222253 26.6212101,30.9212131 26.6212101,30.9212131 C26.849026,31.332642 27.005437,32.2626072 27.1125445,33.2452762 L25.1710083,33.2452762 C19.8768366,33.2452762 15.5823351,37.5363775 15.5823351,42.8305491 L15.5823351,60.977623 C15.5823351,62.3105166 15.8577545,63.5822059 16.349089,64.7365869 C15.138604,66.788631 14.3157462,70.2262723 15.7914498,71.5115625 C17.233151,72.7679507 20.4106741,71.5659663 22.2978066,70.1259652 C23.2039702,70.4115853 24.169638,70.5662962 25.1710083,70.5662962 L36.0415714,70.5662962 C36.8848306,70.5662962 37.6991877,70.4455877 38.4795425,70.2398732 C40.3819761,71.6271706 43.4336903,72.7339483 44.8379889,71.5115625 C46.1844834,70.3401803 45.6149434,67.3768723 44.5880713,65.307827 C45.2494178,64.0055356 45.6302445,62.5366325 45.6302445,60.977623 L45.6302445,42.8305491 Z M87.0000986,42.8305491 C87.0000986,37.5363775 82.7072973,33.2452762 77.4114255,33.2452762 L74.8731473,33.2452762 C74.9802549,32.2626072 75.1366658,31.332642 75.3644818,30.9212131 C75.3644818,30.9212131 78.5267038,26.8222253 76.5358641,25.4196269 C76.5358641,25.4196269 74.7609395,24.3332506 73.557255,25.3839244 C73.3073374,24.5831681 72.5677855,24.0000272 71.6854236,24.0000272 C70.7979613,24.0000272 70.0567092,24.5899686 69.8101919,25.3958252 C68.6065074,24.3264501 66.819682,25.4196269 66.819682,25.4196269 C64.8305423,26.8222253 67.9910642,30.9212131 67.9910642,30.9212131 C68.2188802,31.332642 68.3752912,32.2626072 68.4823987,33.2452762 L66.5408624,33.2452762 C61.2466908,33.2452762 56.9521893,37.5363775 56.9521893,42.8305491 L56.9521893,60.977623 C56.9521893,62.3105166 57.2276086,63.5822059 57.7189431,64.7365869 C56.5084581,66.788631 55.6856004,70.2262723 57.161304,71.5115625 C58.6030052,72.7679507 61.7805282,71.5659663 63.6676607,70.1259652 C64.5738243,70.4115853 65.5394921,70.5662962 66.5408624,70.5662962 L77.4114255,70.5662962 C78.2546847,70.5662962 79.0690419,70.4455877 79.8493967,70.2398732 C81.7518302,71.6271706 84.8035445,72.7339483 86.207843,71.5115625 C87.5543376,70.3401803 86.9847976,67.3768723 85.9579255,65.307827 C86.6192719,64.0055356 87.0000986,62.5366325 87.0000986,60.977623 L87.0000986,42.8305491 Z"/></g></svg>