<svg xmlns="http://www.w3.org/2000/svg" width="121" height="121" viewBox="0 0 121 121"><g fill="none" opacity=".9" transform="translate(12 12)"><path fill="#FFF" d="M48,0 C21.490332,0 0,21.490332 0,48 C0,74.509668 21.490332,96 48,96 C74.509668,96 96,74.509668 96,48 C96,21.490332 74.509668,0 48,0 Z M48,6 C71.1959595,6 90,24.8040405 90,48 C90,71.1959595 71.1959595,90 48,90 C24.8040405,90 6,71.1959595 6,48 C6,24.8040405 24.8040405,6 48,6 Z"/><circle cx="48" cy="48" r="42" fill="#E17000" fill-rule="evenodd"/><path fill="#FFF" d="M67.8000001,38.1 C65.7000001,33.3 60.9000001,29.9999999 55.4999999,29.9999999 C54.6000001,29.9999999 53.7000001,29.9999999 53.1000001,30.3 L47.9999999,14.9999999 L38.9999999,14.9999999 L38.9999999,17.9999999 L45.9,17.9999999 L47.7,23.9999999 L27.3,23.9999999 L26.1,20.9999999 L29.9999999,20.9999999 L29.9999999,17.9999999 L17.9999999,17.9999999 L17.9999999,20.9999999 L22.4999999,20.9999999 L23.9999999,24.3 L20.6999999,30.9 C19.4999999,30.3 17.9999999,29.9999999 16.4999999,29.9999999 C8.99999986,29.9999999 2.99999986,35.9999999 2.99999986,43.4999999 C2.99999986,50.9999999 8.99999986,56.9999999 16.4999999,56.9999999 C23.3999999,56.9999999 29.1,51.6000001 29.9999999,44.9999999 L35.9999999,44.9999999 L48.9000001,27.3 L50.1000001,31.2 C43.2,34.2 40.2,41.9999999 43.2,48.9000001 C46.2,55.8000001 53.9999999,58.8000001 60.9000001,55.8000001 C67.8000001,52.8000001 70.8000001,44.9999999 67.8000001,38.1 L67.8000001,38.1 Z M16.4999999,54 C10.7999999,54 5.99999988,49.5 5.99999988,43.5 C5.99999988,37.5 10.7999999,33 16.4999999,33 C17.3999999,33 18.5999999,33.3 19.4999999,33.6 L13.7999999,45 L26.9999999,45 C26.1,50.1000001 21.8999999,54 16.4999999,54 Z M18.5999999,42 L22.1999999,34.8 C24.5999999,36.3 26.4,39 27,42 L18.5999999,42 Z M30,42 C29.4,37.8 27,34.2 23.6999999,32.1 L25.8,27.9 L32.1,42 L30,42 Z M34.8,41.4 L28.5,27 L45,27 L34.8,41.4 Z M55.5000001,54.3000001 C49.8000001,54.3000001 45,49.8000001 44.7,43.8 C44.7,39.6 47.1,36 50.7,34.2 L54.3000001,44.7 L57.0000001,43.8 L54.0000001,33 C54.6000001,33 54.9000001,33 55.5000001,33 C61.2,33 66.0000001,37.5 66.3000001,43.5 C66.3000001,49.2000001 61.5000001,54 55.5000001,54.3000001 L55.5000001,54.3000001 Z" transform="translate(12 12)"/></g></svg>