<svg xmlns="http://www.w3.org/2000/svg" width="121" height="121" viewBox="0 0 121 121"><g fill="none" fill-rule="evenodd" transform="translate(11 1)"><path fill="#FFF" fill-rule="nonzero" d="M49.4394392,0.0318675407 C22.3057387,1.05655877 0,24.0129849 0,51.0632884 C0,74.1581311 15.7531577,94.1840908 37.6796234,100.284188 L39.123,100.664864 L42.9875735,113.982705 L43.1785408,114.537893 C46.0893205,121.820521 56.3606795,121.820521 59.2714592,114.537893 L59.414029,114.18119 L62.886,100.712864 L63.516,100.496864 L63.2562825,100.567939 C85.9193193,94.8977587 102,74.3341875 102,50.6129372 C102,22.1810388 78.2198674,-0.978760095 49.4394392,0.0318675407 Z M49.65,6.02817175 C75.3,5.12746941 96,25.8436231 96,50.6129372 C96,71.7794421 81.6,89.7934887 61.8,94.7473516 L60.7909333,95.0889513 C58.9125333,95.7454632 57.8597333,96.3059002 57.4021333,97.9231613 L57.3,98.3501609 L53.7,112.311047 C52.8473684,114.444289 49.9753463,114.556565 48.9101473,112.647875 L48.75,112.311047 L44.7,98.3501609 C44.3210526,96.4539455 43.9421053,95.8351804 41.6820674,95.1491811 L40.742703,94.8861535 C40.5702216,94.8409148 40.3894737,94.7947569 40.2,94.7473516 C20.85,89.7934887 6,72.2297932 6,51.0632884 C6,27.1946766 25.8,6.92887408 49.65,6.02817175 Z"/><path fill="#F60000" d="M49.65,6.02817175 C75.3,5.12746941 96,25.8436231 96,50.6129372 C96,71.7794421 81.6,89.7934887 61.8,94.7473516 L60.7909333,95.0889513 C58.9125333,95.7454632 57.8597333,96.3059002 57.4021333,97.9231613 L57.3,98.3501609 L53.7,112.311047 C52.8473684,114.444289 49.9753463,114.556565 48.9101473,112.647875 L48.75,112.311047 L44.7,98.3501609 C44.3210526,96.4539455 43.9421053,95.8351804 41.6820674,95.1491811 L40.742703,94.8861535 C40.5702216,94.8409148 40.3894737,94.7947569 40.2,94.7473516 C20.85,89.7934887 6,72.2297932 6,51.0632884 C6,27.1946766 25.8,6.92887408 49.65,6.02817175 Z"/><path fill="#FFF" fill-rule="nonzero" d="M36.3000002,47.7000002 L41.1000002,53.1000002 L40.2000002,54.0000002 L39.0000002,54.9000002 L38.1000002,55.8000002 L37.2000002,56.4000002 L36.3000002,57.3000002 L35.1000001,57.9000002 L30.6000001,60.9000003 L30.0000001,61.2000002 L28.2000001,61.8000003 L27.0000001,62.4000003 L26.4000001,62.1000003 L25.5000001,61.8000003 L24.9000001,61.5000003 L24.0000001,61.2000002 L23.4000001,60.9000003 L18.9000001,57.9000002 L17.7000001,57.3000002 L16.8000001,56.4000002 L15.9000001,55.8000002 L15.0000001,54.9000002 L13.8000001,54.0000002 L12.9000001,53.1000002 L17.7000001,47.7000002 L20.7000001,50.7000002 L21.3000001,51.0000002 L21.9000001,51.6000002 L22.8000001,51.9000002 L23.4000001,52.2000002 L23.7000001,52.8000002 L26.1000001,54.0000002 L26.4000001,54.3000002 L27.3000001,54.3000002 L30.3000001,52.8000002 L30.6000001,52.2000002 L31.8000001,51.6000002 L32.7000001,51.0000002 L33.3000001,50.7000002 L36.3000002,47.7000002 Z M26.4000001,0 L27.0000001,0.300000001 L26.4000001,1.20000001 L25.8000001,2.40000001 L25.5000001,3.60000002 L24.3000001,7.20000003 L24.3000001,10.5 L24.6000001,11.1 L24.6000001,12 L24.9000001,12.6000001 L25.2000001,13.5 L25.5000001,14.1000001 L26.1000001,15.9000001 L29.1000001,20.4000001 L29.7000001,21.6000001 L30.3000001,22.5 L31.2000001,23.4000001 L31.8000001,24.6000001 L32.1000001,25.5 L32.7000001,26.4000001 L33.3000001,27.6000001 L33.9000001,29.4000001 L33.9000001,30.3000001 L34.2000001,31.2000001 L34.2000001,34.2000001 L33.9000001,34.8000001 L33.9000001,35.7000001 L33.6000001,36.6000002 L33.9000001,36.6000002 L34.8000001,35.7000001 L35.4000001,34.8000001 L35.7000001,33.9000001 L36.3000002,33 L37.2000001,30.3000001 L37.2000001,29.4000001 L37.5000002,28.5 L37.5000002,24.9000001 L37.2000001,24 L37.2000001,23.7000001 L37.8000002,23.7000001 L38.4000002,24 L39.0000002,24 L39.3000002,24.3000001 L39.6000002,24.3000001 L39.9000002,24.6000001 L40.5000002,24.6000001 L40.8000002,24.9000001 L41.1000002,24.9000001 L41.4000002,25.2000001 L42.0000002,25.2000001 L41.7000001,27.9000001 L41.4000002,30.3000001 L40.2000001,34.5 L39.3000002,36.3000002 L38.1000002,38.1000002 L37.2000001,39.9000002 L34.8000001,42.9000002 L32.4000001,45.3000002 L31.2000001,46.2000002 L30.3000001,47.1000002 L29.1000001,48 L27.9000001,48.6000002 L27.0000001,49.2000002 L26.7000001,48.9000002 L26.4000001,48.9000002 L26.1000001,48.6000002 L25.8000001,48.6000002 L25.5000001,48.3000002 L25.2000001,48.3000002 L25.2000001,48 L24.9000001,48 L24.6000001,47.7000002 L26.1000001,45.9000002 L27.3000001,43.8000002 L28.5000001,40.2000002 L28.5000001,36.6000002 L28.2000001,34.8000001 L27.9000001,33.3000001 L27.3000001,31.8000001 L25.5000001,28.2000001 L24.3000001,26.4000001 L23.7000001,25.2000001 L23.1000001,24.6000001 L22.8000001,24 L22.5000001,23.7000001 L21.9000001,22.5 L21.6000001,22.2000001 L21.0000001,21 L20.4000001,20.1000001 L20.4000001,19.5 L19.8000001,18.3000001 L19.8000001,17.4000001 L19.2000001,15.6000001 L19.2000001,12.6000001 L19.5000001,11.7 L19.8000001,10.5 L20.1000001,9.60000004 L20.4000001,8.40000004 L22.2000001,4.80000002 L24.0000001,2.40000001 L26.4000001,0 Z M15.9000001,23.7000001 L16.5,25.5000001 L16.8000001,26.1000001 L17.4000001,27.0000001 L18,27.6000001 L18.3000001,28.5000001 L18.9000001,29.4000001 L19.5,30.0000001 L20.7000001,31.8000001 L21.3000001,32.4000001 L22.2000001,34.2000001 L22.8000001,35.1000001 L23.7000001,36.9000002 L24,37.8000002 L24.3000001,38.4000002 L24.3000001,39.6000002 L24.6000001,40.2000001 L24.6000001,43.2000001 L24.3000001,43.8000002 L24.3000001,44.7000001 L24,45.3000002 L23.7000001,46.2000001 L23.7000001,47.1000002 L22.5,46.2000001 L18.9000001,42.6000002 L17.1000001,40.2000001 L16.2000001,38.7000001 L15.3000001,37.5000002 L14.7000001,36.0000001 L13.8000001,34.5000001 L13.2000001,32.7000001 L12.9000001,31.2000001 L12.6000001,29.1000001 L12.3000001,27.3000001 L12,25.2000001 L12.6000001,25.2000001 L12.6000001,24.9000001 L13.2000001,24.9000001 L13.5,24.6000001 L14.1000001,24.3000001 L14.7000001,24.3000001 L14.7000001,24.0000001 L15.6000001,24.0000001 L15.9000001,23.7000001 Z M16.2000001,14.7000001 L15.9000001,15.0000001 L15.9000001,15.6000001 L15.6000001,15.9000001 L15.6000001,16.8000001 L15.3000001,17.4000001 L15.3000001,18.6000001 L14.7000001,18.6000001 L14.1000001,18.9000001 L13.5,18.9000001 L12.9000001,19.2000001 L12.3000001,19.2000001 L11.7,19.5000001 L11.4,19.8000001 L10.8,19.8000001 L9.60000004,20.4000001 L9.30000004,20.4000001 L8.10000003,21.0000001 L7.20000003,21.6000001 L6.60000003,21.9000001 L6.90000003,23.1000001 L6.90000003,26.1000001 L7.20000003,27.3000001 L7.20000003,28.5000001 L7.5,29.7000001 L7.80000003,31.2000001 L8.10000003,32.1000001 L8.70000004,33.6000001 L9,34.5000001 L9.30000004,35.7000001 L9.90000004,36.6000002 L10.2,37.8000002 L11.4,39.6000002 L12,40.8000002 L7.20000003,45.9000002 L6.60000003,44.7000001 L5.70000002,43.5000002 L5.10000002,42.3000002 L4.5,40.8000002 L3.60000002,39.6000002 L3,38.1000002 L2.70000001,36.6000002 L2.10000001,35.1000001 L1.5,33.3000001 L1.20000001,31.8000001 L0.600000003,28.2000001 L0.300000001,26.7000001 L0,24.6000001 L0,21.0000001 L0.900000004,20.4000001 L1.5,19.8000001 L2.40000001,19.2000001 L3.30000001,18.9000001 L4.20000002,18.3000001 L5.40000002,18.0000001 L6.30000003,17.4000001 L7.20000003,17.1000001 L8.40000003,16.8000001 L9.30000004,16.2000001 L10.5,15.9000001 L11.4,15.6000001 L13.8000001,15.0000001 L15,15.0000001 L16.2000001,14.7000001 Z M31.8000001,13.8000001 L33.6000001,14.1000001 L35.1000001,14.1000001 L42.6000002,15.6000001 L44.1000002,16.2000001 L45.6000002,16.5000001 L48.0000002,17.7000001 L49.5000002,18.3000001 L51.9000002,19.5000001 L52.8000001,20.1000001 L54.0000002,21.0000001 L54.0000002,24.6000001 L53.7000002,26.7000001 L53.4000002,28.2000001 L52.8000001,31.8000001 L52.5000002,33.3000001 L51.9000002,35.1000001 L51.3000001,36.6000002 L51.0000002,38.1000002 L50.1000002,39.6000002 L49.5000002,40.8000001 L48.9000002,42.3000001 L48.3000001,43.5000002 L47.4000002,44.7000002 L46.8000001,45.9000002 L42.0000002,40.8000001 L42.6000002,39.6000002 L43.2000002,38.7000002 L43.5000002,37.8000001 L44.1000002,36.6000002 L44.7000002,35.7000001 L45.0000002,34.5000001 L45.3000001,33.6000001 L45.9000002,32.1000001 L46.2000002,31.2000001 L46.5000002,29.7000001 L46.5000002,28.5000001 L47.1000002,26.1000001 L47.1000002,23.1000001 L47.4000002,21.9000001 L46.5000002,21.3000001 L45.3000001,20.7000001 L44.4000002,20.4000001 L43.8000001,20.1000001 L42.0000002,19.5000001 L41.4000002,19.2000001 L39.6000002,18.6000001 L38.7000002,18.6000001 L37.8000001,18.3000001 L37.2000002,18.0000001 L36.3000001,18.0000001 L35.4000001,17.7000001 L34.5000001,17.7000001 L33.9000001,17.1000001 L33.6000001,16.5000001 L32.7000001,15.6000001 L32.7000001,15.3000001 L32.4000001,15.0000001 L32.4000001,14.7000001 L32.1000001,14.4000001 L32.1000001,14.1000001 L31.8000001,13.8000001 Z" transform="translate(24 19.454)"/></g></svg>