<?xml version="1.0" ?>

<svg width="800px" height="800px" viewBox="11 -2 18 18" xmlns="http://www.w3.org/2000/svg">

<g fill="white" stroke="black" stroke-width="0.5">
		<circle cx="20" cy="7" r="8.5" />
	</g>

	
<g fill="green" stroke="green" stroke-width="0.01">

<path d="M22,14H18a1,1,0,0,1-1-1V10H14a1,1,0,0,1-1-1V5a1,1,0,0,1,1-1h3V1a1,1,0,0,1,1-1h4a1,1,0,0,1,1,1V4h3a1,1,0,0,1,1,1V9a1,1,0,0,1-1,1H23v3A1,1,0,0,1,22,14Zm-3-2h2V9a1,1,0,0,1,1-1h3V6H22a1,1,0,0,1-1-1V2H19V5a1,1,0,0,1-1,1H15V8h3a1,1,0,0,1,1,1Z"/>

</g>

</svg>