z<svg xmlns="http://www.w3.org/2000/svg" viewBox="0 0 121 121" width="121" height="121"><g><g fill="none" fill-rule="evenodd" transform="translate(13 7)"><path fill="#000" d="M82.9902865,0 C90.1531567,0 95.9887651,5.83560848 95.9887651,12.9984786 L95.9887651,82.9902865 C95.9887651,90.1531567 90.1531567,95.9887651 82.9902865,95.9887651 L60.005,95.988 L47.9943826,108 L35.982,95.988 L12.9984786,95.9887651 C5.9379352,95.9887651 0.167002541,90.3186974 0.00355967765,83.2964409 L0,82.9902865 L0,12.9984786 C0,5.83560848 5.83560848,0 12.9984786,0 Z"/><path fill="#00A501" d="M82.9902865,5.99929782 C86.839836,5.99929782 89.9894673,9.14892918 89.9894673,12.9984786 L89.9894673,82.9902865 C89.9894673,86.839836 86.839836,89.9894673 82.9902865,89.9894673 L57.5152978,89.9892978 L47.9943826,99.5109936 L38.4732978,89.9892978 L12.9984786,89.9894673 C9.14892918,89.9894673 5.99929782,86.839836 5.99929782,82.9902865 L5.99929782,12.9984786 C5.99929782,9.14892918 9.14892918,5.99929782 12.9984786,5.99929782 L82.9902865,5.99929782 Z"/></g><g transform="translate(15.818,9.818) scale(1.189)" fill="#FFFFFF">
  <path xmlns="http://www.w3.org/2000/svg" fill="#000" stroke="#000" stroke-width="1" stroke-linejoin="round" stroke-linecap="round" d="M55.4875,38.3425L55.1016,35.1994L64.5307,34.0417L64.9167,37.1847L55.4875,38.3425Z            M53.4141,28.8958L51.0608,26.7769L57.4175,19.7171L59.7708,21.836L53.4141,28.8958Z            M54.2292,47.1079L55.4154,44.1718L64.2237,47.7306L63.0374,50.6667L54.2292,47.1079Z            M14.25,36.4167L17.7814,34.8275L19.2981,47.9725L15.8333,47.5L14.25,36.4167Z            M45.9166,22.1667C48.5555,26.9167,51.1944,31.6667,51.9861,36.6806C52.7778,41.6945,51.7222,46.9722,50.6666,52.25L35.4572,50.176L34.0416,54.625L26.125,54.625L24.783,48.7204L21.4945,48.272L19.8365,33.9027L45.9166,22.1667Z            M28.1042,52.25L32.0625,52.25L32.91,49.8287L27.3079,49.0647L28.1042,52.25Z"/>
</g></g></svg>