<svg xmlns="http://www.w3.org/2000/svg" width="121" height="121" viewBox="0 0 121 121"><g fill="none" fill-rule="evenodd" transform="translate(13 7)"><path fill="#000" fill-rule="nonzero" d="M83,0 C90.1637085,0 96,5.8362915 96,13 L96,83 C96,90.1637085 90.1637085,96 83,96 L60.011,96 L48,108.012641 L35.988,96 L13,96 C5.93863019,96 0.167022087,90.3292686 0.00356009429,83.3061902 L0,83 L0,13 C0,5.8362915 5.8362915,0 13,0 Z"/><path fill="#E17000" d="M83,6 C86.85,6 90,9.15 90,13 L90,83 C90,86.85 86.85,90 83,90 L57.522,90 L48,99.5226407 L38.478,90 L13,90 C9.15,90 6,86.85 6,83 L6,13 C6,9.15 9.15,6 13,6 L83,6 Z"/><path fill="#000" d="M47.9983474,18 L81,46.561354 L71.0846312,46.561354 L71.0846312,72 L24.9153688,72 L24.9153688,46.561354 L15,46.561354 L47.9983474,18 Z M48,30.75 L42.942,42.684 L30,43.782 L39.828,52.296 L36.876,64.95 L48,58.236 L59.124,64.95 L56.172,52.296 L66,43.782 L53.058,42.684 L48,30.75 Z"/></g></svg>