<svg xmlns="http://www.w3.org/2000/svg" width="121" height="121" viewBox="0 0 121 121"><g fill="none" fill-rule="evenodd" transform="translate(11 1)"><path fill="#FFF" fill-rule="nonzero" d="M49.4394392,0.0320036075 C22.3057387,1.05669484 0,24.0131209 0,51.0634245 C0,74.1582672 15.7531577,94.1842269 37.6796234,100.284324 L39.123,100.665 L42.9875735,113.982841 L43.1785408,114.538029 C46.0893205,121.820657 56.3606795,121.820657 59.2714592,114.538029 L59.414029,114.181326 L62.886,100.713 L63.516,100.497 L63.2562825,100.568075 C85.9193193,94.8978948 102,74.3343236 102,50.6130733 C102,22.1811749 78.2198674,-0.978624028 49.4394392,0.0320036075 Z M49.65,6.02830781 C75.3,5.12760548 96,25.8437591 96,50.6130733 C96,71.7795781 81.6,89.7936248 61.8,94.7474876 L60.7909333,95.0890873 C58.9125333,95.7455993 57.8597333,96.3060363 57.4021333,97.9232973 L57.3,98.350297 L53.7,112.311183 C52.8473684,114.444425 49.9753463,114.556701 48.9101473,112.648011 L48.75,112.311183 L44.7,98.350297 C44.3210526,96.4540815 43.9421053,95.8353165 41.6820674,95.1493172 L40.742703,94.8862895 C40.5702216,94.8410509 40.3894737,94.794893 40.2,94.7474876 C20.85,89.7936248 6,72.2299293 6,51.0634245 C6,27.1948126 25.8,6.92901015 49.65,6.02830781 Z"/><path fill="#182866" d="M49.65,6.02830781 C75.3,5.12760548 96,25.8437591 96,50.6130733 C96,71.7795781 81.6,89.7936248 61.8,94.7474876 L60.7909333,95.0890873 C58.9125333,95.7455993 57.8597333,96.3060363 57.4021333,97.9232973 L57.3,98.350297 L53.7,112.311183 C52.8473684,114.444425 49.9753463,114.556701 48.9101473,112.648011 L48.75,112.311183 L44.7,98.350297 C44.3210526,96.4540815 43.9421053,95.8353165 41.6820674,95.1493172 L40.742703,94.8862895 C40.5702216,94.8410509 40.3894737,94.794893 40.2,94.7474876 C20.85,89.7936248 6,72.2299293 6,51.0634245 C6,27.1948126 25.8,6.92901015 49.65,6.02830781 Z"/><path fill="#FFF" fill-rule="nonzero" d="M16.4999999,51 L7.19999988,60.6000001 L11.3999999,64.8000001 L20.9999999,55.5 L27,61.5 L27,45 L10.4999999,45 L16.4999999,51 Z M55.5,20.9999999 L64.8000001,11.3999999 L60.6000001,7.19999988 L51,16.4999999 L45,10.4999999 L45,27 L61.5,27 L55.5,20.9999999 Z M11.3999999,7.19999988 L7.19999988,11.3999999 L16.4999999,20.9999999 L10.4999999,27 L27,27 L27,10.4999999 L20.9999999,16.4999999 L11.3999999,7.19999988 Z M61.5,45 L45,45 L45,61.5 L51,55.5 L60.6000001,64.8000001 L64.8000001,60.6000001 L55.5,51 L61.5,45 Z M42,36 C42,39.315 39.315,42 36,42 C32.685,42 30,39.315 30,36 C30,32.685 32.685,30 36,30 C39.315,30 42,32.685 42,36 Z" transform="translate(15 15.854)"/></g></svg>