<svg xmlns="http://www.w3.org/2000/svg" width="121" height="121" viewBox="0 0 121 121"><g fill="none" fill-rule="evenodd" transform="translate(11 1)"><path fill="#FFF" d="M49.4394392,0.0320036075 C22.3057387,1.05669484 0,24.0131209 0,51.0634245 C0,74.1582672 15.7531577,94.1842269 37.6796234,100.284324 L39.123,100.665 L42.9875735,113.982841 L43.1785408,114.538029 C46.0893205,121.820657 56.3606795,121.820657 59.2714592,114.538029 L59.414029,114.181326 L62.886,100.713 L63.516,100.497 L63.2562825,100.568075 C85.9193193,94.8978948 102,74.3343236 102,50.6130733 C102,22.1811749 78.2198674,-0.978624028 49.4394392,0.0320036075 Z M49.65,6.02830781 C75.3,5.12760548 96,25.8437591 96,50.6130733 C96,71.7795781 81.6,89.7936248 61.8,94.7474876 L60.7909333,95.0890873 C58.9125333,95.7455993 57.8597333,96.3060363 57.4021333,97.9232973 L57.3,98.350297 L53.7,112.311183 C52.8473684,114.444425 49.9753463,114.556701 48.9101473,112.648011 L48.75,112.311183 L44.7,98.350297 C44.3210526,96.4540815 43.9421053,95.8353165 41.6820674,95.1493172 L40.742703,94.8862895 C40.5702216,94.8410509 40.3894737,94.794893 40.2,94.7474876 C20.85,89.7936248 6,72.2299293 6,51.0634245 C6,27.1948126 25.8,6.92901015 49.65,6.02830781 Z"/><path fill="#004535" d="M49.65,6.02830781 C75.3,5.12760548 96,25.8437591 96,50.6130733 C96,71.7795781 81.6,89.7936248 61.8,94.7474876 L60.7909333,95.0890873 C58.9125333,95.7455993 57.8597333,96.3060363 57.4021333,97.9232973 L57.3,98.350297 L53.7,112.311183 C52.8473684,114.444425 49.9753463,114.556701 48.9101473,112.648011 L48.75,112.311183 L44.7,98.350297 C44.3210526,96.4540815 43.9421053,95.8353165 41.6820674,95.1493172 L40.742703,94.8862895 C40.5702216,94.8410509 40.3894737,94.794893 40.2,94.7474876 C20.85,89.7936248 6,72.2299293 6,51.0634245 C6,27.1948126 25.8,6.92901015 49.65,6.02830781 Z"/><path fill="#FFF" fill-rule="nonzero" d="M78.6462185,44.5848739 C78.5537815,46.8218487 76.5016807,48.8554622 73.2109244,48.4117647 C74.3016807,48.0420168 75.207563,47.394958 75.2260504,46.4151261 C75.2815126,45.4907563 74.7823529,44.5848739 73.3403361,44.6218487 C71.1403361,44.6403361 70.1605042,47.2285714 70.9369748,49.2806723 C72.8226891,50.4823529 74.2831933,52.3495798 73.7840336,56.3243697 C75.6512605,56.2319328 76.6310924,57.3042017 76.5201681,58.487395 C75.910084,58.0067227 74.412605,57.8588235 73.1739496,58.4134454 C71.6210084,61.3529412 68.7,62.7394958 64.9285714,62.3512605 C65.6680672,64.292437 65.6680672,66.4739496 65.2983193,67.7865546 C67.0176471,68.6184874 68.2747899,70.005042 69.5134454,71.8352941 C71.2697479,71.7058824 73.1369748,72.7226891 73.5067227,74.2201681 C71.2882353,73.5361345 68.6260504,75.0336134 67.7571429,79.7848739 C64.7991597,80.8386555 62.6546218,82.1882353 60.2697479,84 C60.2327731,82.8907563 60.1957983,81.892437 61.0462185,80.5243697 C59.8815126,80.8756303 58.3470588,81.6890756 56.6277311,82.8907563 C56.1470588,81.9848739 56.4613445,80.6907563 57.7554622,79.3226891 C56.7756303,79.507563 55.0747899,80.1361345 53.6327731,81.005042 C52.7823529,77.8067227 57.1268908,76.2168067 63.9487395,76.0319328 C63.9857143,75.3663866 64.0596639,74.2201681 64.1521008,73.5915966 C62.0630252,73.1109244 60.787395,72.7411765 59.5857143,72.0941176 C58.6243697,72.8705882 57.4411765,73.5361345 56.1840336,73.9798319 C56.6647059,73.1663866 56.8495798,71.7798319 56.6462185,70.7445378 C55.3705882,67.712605 55.9067227,64.4588235 58.0142857,62.4436975 C55.9067227,58.3394958 52.1722689,56.0470588 46.607563,54.2722689 C52.3201681,52.9596639 55.0932773,50.389916 56.9420168,48.189916 C60.2697479,51.3327731 61.4529412,55.0117647 62.4142857,56.9529412 C63.1907563,58.487395 64.5957983,59.7260504 66.7218487,59.7260504 C69.1067227,59.7260504 71.0848739,58.2840336 71.0848739,55.7327731 C71.0848739,53.6621849 70.2344538,52.3310924 68.4226891,52.3680672 C66.0747899,52.405042 65.797479,55.0672269 67.294958,55.6773109 C65.1689076,56.3613445 63.8008403,54.4941176 63.8008403,52.6453782 C63.8008403,50.7781513 65.4831933,48.5596639 69.0512605,48.9294118 C66.9067227,44.6218487 69.6243697,40.5731092 74.0983193,40.4991597 C76.8159664,40.4436975 78.7571429,42.1445378 78.6462185,44.5848739 Z M48.6781513,58.4504202 C52.1537815,59.2453782 53.7621849,60.3361345 55.4630252,62.5731092 C52.7453782,63.6084034 47.1621849,66.4739496 47.2546218,70.5226891 C48.8445378,70.892437 50.4529412,71.0033613 51.9504202,70.9663866 C51.2663866,72.0571429 50.1386555,72.9630252 49.0294118,73.4067227 C49.7319328,74.1831933 50.6563025,74.7747899 51.710084,75.3109244 C48.6226891,76.1983193 46.4226891,78.0655462 46.3117647,80.5428571 C43.4831933,80.9865546 39.7117647,81.6336134 38.4546218,83.2789916 C38.0109244,82.1327731 38.2512605,80.6352941 39.1201681,79.6369748 C37.5487395,79.8588235 35.9403361,80.9310924 35.1453782,82.2436975 C34.4798319,80.6907563 34.7016807,78.5462185 36.2731092,77.9915966 C35.2378151,77.5478992 33.7033613,77.4554622 32.8529412,78.0470588 C33.0563025,73.7764706 39.305042,75.2184874 42.0042017,76.512605 C42.9470588,71.2067227 38.0663866,68.3966387 34.8865546,68.692437 C35.8663866,67.805042 37.9554622,67.3243697 38.9537815,67.1210084 C39.212605,61.5747899 45.3504202,60.0773109 50.7487395,60.6689076 C50.4529412,59.9663866 49.9352941,59.3193277 48.6781513,58.4504202 Z M30.412605,57.3781513 C30.2831933,58.2470588 30.7268908,59.4487395 31.4848739,59.9663866 C31.0781513,60.1327731 30.3386555,60.594958 29.5991597,61.389916 C28.8226891,62.2403361 28.5268908,63.2016807 27.9907563,64.3478992 C27.6210084,63.4235294 27.6394958,62.3327731 27.8798319,61.6117647 C27.4731092,61.9815126 26.5672269,62.2403361 25.494958,62.1848739 C26.3084034,61.6302521 27.1033613,60.2991597 27.4915966,59.707563 C28.1571429,58.7092437 29.2478992,57.7663866 30.412605,57.3781513 Z M42.8731092,57.692437 C40.7840336,60.3176471 38.3067227,62.2588235 35.2563025,63.312605 L35.1638655,58.6537815 C36.2915966,57.1378151 38.787395,56.8235294 42.8731092,57.692437 Z M49.4546218,47.8016807 C49.3621849,51.6470588 45.997479,52.8302521 37.0865546,55.6403361 C35.2378151,56.2319328 33.2781513,57.6369748 32.889916,58.8756303 C31.9655462,57.4336134 32.5386555,56.2134454 33.6109244,55.3815126 C32.2243697,55.2151261 30.8193277,55.7512605 30.412605,56.5647059 C29.9319328,55.1596639 31.0781513,53.8655462 32.5571429,53.2739496 C31.2445378,53.0521008 29.9319328,53.2369748 29.3588235,53.5697479 C29.5806723,51.9613445 30.7268908,50.3344538 36.4579832,51.2588235 C42.7621849,47.0436975 46.9033613,47.487395 49.4546218,47.8016807 Z M33.9067227,41.2571429 L35.9033613,43.9008403 C35.4966387,45.194958 35.1823529,47.5798319 35.4596639,49.2621849 C30.4680672,48.4857143 27.8428571,49.9647059 27.3252101,52.5159664 C26.2529412,51.9613445 25.0697479,51.8504202 24.1823529,51.9983193 L22.5,49.3361345 L25.310084,50.1310924 L24.0159664,47.5428571 L26.7151261,48.6151261 L25.6983193,45.9159664 L28.2680672,47.2470588 L27.5470588,44.4369748 L29.9504202,46.0453782 L29.5436975,43.1798319 L31.7621849,44.9915966 L31.6697479,42.107563 L33.6848739,44.1411765 L33.9067227,41.2571429 Z M60.7504202,23.0285714 L61.2310924,25.5613445 C60.8983193,25.7831933 60.6764706,26.1529412 60.6764706,26.5781513 C60.6764706,27.2436975 61.2310924,27.7798319 61.9151261,27.7613445 C62.5806723,27.7428571 63.1352941,27.1882353 63.1352941,26.5226891 L65.3168067,26.4857143 L65.3168067,28.6672269 C64.6327731,28.6857143 64.0966387,29.2403361 64.0966387,29.9058824 C64.0966387,30.5714286 64.6327731,31.107563 65.3168067,31.0890756 C65.7420168,31.0890756 66.1117647,30.8487395 66.3336134,30.5159664 L68.9033613,30.9226891 L64.7991597,33.4554622 C64.6882353,33.4 64.5957983,33.3445378 64.4848739,33.2890756 L64.3184874,33.4369748 C65.1319328,35.5260504 64.5773109,39.6117647 63.9487395,41.7193277 C63.8193277,43.1798319 63.9487395,45.0655462 64.5957983,46.5260504 C63.1537815,45.9529412 62.0630252,45.0840336 61.3789916,44.1411765 C60.7689076,45.4907563 60.4176471,47.210084 60.3806723,48.7630252 C59.197479,47.9865546 57.792437,46.4151261 56.9789916,45.0655462 C55.6848739,46.7478992 53.0226891,48.892437 51.0815126,49.8537815 C51.5621849,48.2823529 51.6361345,46.6184874 51.4882353,45.4907563 C50.4714286,45.6201681 48.4378151,45.4537815 46.4966387,45.4537815 C44.0563025,45.4537815 40.9319328,46.0823529 38.8428571,47.4689076 C39.6563025,43.4756303 43.4831933,41.0352941 49.3252101,40.3697479 C52.9672269,39.9445378 54.797479,39.1495798 54.9268908,37.6705882 C53.0966387,38.4840336 50.6008403,38.6689076 50.397479,36.7831933 C52.2462185,36.9865546 54.3168067,36.2840336 54.3907563,34.6571429 C54.4647059,33.2151261 53.392437,32.6605042 52.2647059,32.6789916 C51.2663866,32.697479 50.2495798,33.1781513 50.1941176,33.6218487 L49.9722689,33.6403361 C48.9554622,33.0117647 48.2529412,31.4033613 48.6781513,30.0352941 C49.5840336,29.2957983 51.6546218,28.7596639 53.1336134,28.9445378 C54.0764706,28.0386555 55.6663866,27.2806723 58.2915966,27.5210084 L58.4210084,27.3915966 C58.3840336,27.2806723 58.3285714,27.2067227 58.2731092,27.0957983 L60.7504202,23.0285714 Z M38.9168067,32.9563025 C40.6176471,36.1731092 42.9285714,38.1882353 45.1655462,38.6504202 C41.412605,40.092437 39.305042,41.4420168 38.1033613,43.9008403 C36.7352941,41.7747899 36.2731092,39.5747899 36.2176471,37.5966387 C35.7369748,37.9848739 35.1084034,38.3546218 34.3134454,38.594958 C34.5722689,37.3747899 34.2394958,35.5815126 34.0915966,34.3613445 C35.7,34.7310924 37.5487395,33.9731092 38.9168067,32.9563025 Z M46.4042017,30.0168067 C46.1084034,30.4605042 45.9235294,31.1445378 45.9235294,31.5882353 C45.9235294,34.5277311 48.9369748,35.2672269 51.9689076,34.287395 C52.7638655,34.0285714 53.0966387,34.2689076 53.1336134,34.6016807 C53.1890756,34.9714286 52.8378151,35.2487395 52.0798319,35.507563 C42.4478992,38.8352941 41.9487395,30.3865546 46.4042017,30.0168067 Z M58.7907563,18 L56.3319328,21.4756303 C48.9739496,24.1563025 45.1470588,25.4689076 39.6193277,28.4453782 C40.0815126,29.2033613 40.8764706,30.0168067 41.689916,30.5714286 C40.987395,31.292437 39.8781513,31.994958 38.9168067,32.2537815 C38.8428571,31.0151261 38.4361345,29.4806723 37.6411765,28.5008403 L37.4747899,28.5378151 C37.012605,29.2218487 37.012605,30.6084034 37.197479,31.6252101 C36.4764706,31.3294118 35.6260504,30.7008403 35.2193277,29.9983193 C35.1268908,30.589916 35.2008403,31.6621849 35.4596639,32.6420168 C34.5722689,32.4756303 33.7957983,31.902521 33.3705882,31.3109244 C33.2966387,31.9394958 33.3336134,32.8823529 33.6109244,33.6588235 C33.0378151,33.4 32.3537815,33.0672269 31.9470588,32.6789916 C31.8546218,33.6218487 30.9857143,34.3428571 29.987395,34.3058824 C28.9705882,34.2689076 28.1941176,33.4369748 28.2680672,32.4756303 C28.3235294,31.4957983 29.2294118,30.7378151 30.2462185,30.7932773 C30.4495798,30.7932773 30.6344538,30.8487395 30.8193277,30.9226891 C30.3571429,29.4806723 31.5957983,28.4268908 32.6865546,28.6672269 C32.8344538,27.8168067 33.8882353,27.3361345 34.7016807,27.7058824 C34.9235294,27.0403361 36.0142857,26.6336134 36.7168067,27.0957983 L36.8092437,27.0218487 C36.2361345,26.097479 35.4411765,25.3579832 34.5722689,24.7663866 C35.3672269,24.0453782 36.5689076,23.3798319 37.5302521,23.1210084 C37.6042017,24.1378151 38.1033613,25.5428571 38.4731092,26.2823529 C44.592437,22.6773109 47.6243697,21.1428571 54.6680672,18 L58.7907563,18 Z M60.8243697,29.2403361 C60.6764706,29.2403361 60.5285714,29.2588235 60.3991597,29.2957983 C60.6210084,29.8134454 60.7319328,30.4420168 60.7319328,31.107563 C60.7319328,31.7546218 60.6210084,32.3647059 60.3991597,32.9008403 C60.5470588,32.9193277 60.6764706,32.9378151 60.8243697,32.9378151 C61.8596639,32.9193277 62.6915966,32.0689076 62.6915966,31.0521008 C62.6915966,30.0352941 61.8596639,29.2218487 60.8243697,29.2403361 Z M53.7806723,29.0369748 L53.7067227,29.2588235 C54.6310924,29.7579832 55.2596639,30.589916 55.4260504,31.1815126 C56.6092437,31.0521008 57.6445378,30.405042 58.0697479,29.3142857 C56.4983193,29.3142857 55.2781513,29.2033613 53.7806723,29.0369748 Z"/></g></svg>