<svg xmlns="http://www.w3.org/2000/svg" width="121" height="121" viewBox="0 0 121 121"><g fill="none" fill-rule="evenodd" transform="translate(13 7)"><path fill="#000" d="M82.9902865,0 C90.1531567,0 95.9887651,5.83560848 95.9887651,12.9984786 L95.9887651,82.9902865 C95.9887651,90.1531567 90.1531567,95.9887651 82.9902865,95.9887651 L60.005,95.988 L47.9943826,108 L35.982,95.988 L12.9984786,95.9887651 C5.9379352,95.9887651 0.167002541,90.3186974 0.00355967765,83.2964409 L0,82.9902865 L0,12.9984786 C0,5.83560848 5.83560848,0 12.9984786,0 Z"/><path fill="#FFF329" d="M82.9902865,5.99929782 C86.839836,5.99929782 89.9894673,9.14892918 89.9894673,12.9984786 L89.9894673,82.9902865 C89.9894673,86.839836 86.839836,89.9894673 82.9902865,89.9894673 L57.5152978,89.9892978 L47.9943826,99.5109936 L38.4732978,89.9892978 L12.9984786,89.9894673 C9.14892918,89.9894673 5.99929782,86.839836 5.99929782,82.9902865 L5.99929782,12.9984786 C5.99929782,9.14892918 9.14892918,5.99929782 12.9984786,5.99929782 L82.9902865,5.99929782 Z"/><path fill="#000" fill-rule="nonzero" d="M65.8992641,49.4555321 C65.2434255,45.0022598 64.5250134,40.5574988 63.7687735,36.1199881 C63.3823,33.8511109 60.9622695,32.9848554 59.2697927,34.53138 C55.8416526,37.6643061 52.4543348,40.8438864 49.1083124,44.0644468 C47.4216675,45.6878878 47.9583487,48.037937 50.1336022,48.9158561 C50.8783361,49.2165868 51.6539626,49.4418195 52.4667865,49.7189078 C50.9650247,55.8767933 44.1123695,62.5793983 37.7011957,62.5346355 L37.7011957,20.6088753 C33.6695453,20.9140192 32.1788166,19.9803042 32.3914401,19.6579802 C32.5848345,19.6693285 32.7764951,19.6872967 32.9727266,19.6872967 C38.4092052,19.6872967 42.8164537,15.2802058 42.8164537,9.84372716 C42.8164537,4.40724852 38.4093628,0 32.9727266,0 C27.5360903,0 23.1289994,4.4070909 23.1289994,9.84372716 C23.1289994,13.5659781 25.1961285,16.8041914 28.2442574,18.4771238 L28.2442574,62.5346355 C21.8330836,62.5793983 14.9804284,55.8767933 13.478509,49.7190654 C14.2913329,49.4419771 15.0669594,49.2167444 15.8116933,48.9160138 C17.9869468,48.0380946 18.523628,45.6880455 16.8369831,44.0646044 C13.4909607,40.844044 10.1036429,37.6643061 6.67550278,34.5315376 C4.98318366,32.9848554 2.56315313,33.8512685 2.17652196,36.1201457 C1.42043974,40.5576564 0.702027656,45.0024174 0.0460313634,49.4556897 C-0.322946849,51.959887 1.5752183,53.4996342 3.98642235,52.7564764 C4.62129815,52.5608754 5.24782032,52.3375341 5.89845768,52.1201821 C10.8891993,64.2877942 19.7232407,71.9915739 32.9727266,71.9915739 C46.2222125,71.9915739 55.0562538,64.2877942 60.0466802,52.1200245 C60.6973176,52.3373764 61.3238397,52.5607178 61.9587155,52.7563188 C64.3700772,53.4994766 66.2682424,51.9597294 65.8992641,49.4555321 Z M28.8156141,9.84372716 C28.8156141,7.54774013 30.6767395,5.68661466 32.9727266,5.68661466 C35.2687136,5.68661466 37.1298391,7.54774013 37.1298391,9.84372716 C37.1298391,12.1395566 35.2687136,14.0008397 32.9727266,14.0008397 C30.6767395,14.0008397 28.8156141,12.1395566 28.8156141,9.84372716 Z" transform="translate(14.998 11.999)"/></g></svg>