<svg xmlns="http://www.w3.org/2000/svg" width="121" height="121" viewBox="0 0 121 121"><g fill="none" fill-rule="evenodd" transform="translate(13 7)"><path fill="#000" d="M82.9902865,0 C90.1531567,0 95.9887651,5.83560848 95.9887651,12.9984786 L95.9887651,82.9902865 C95.9887651,90.1531567 90.1531567,95.9887651 82.9902865,95.9887651 L60.005,95.988 L47.9943826,108 L35.982,95.988 L12.9984786,95.9887651 C5.9379352,95.9887651 0.167002541,90.3186974 0.00355967765,83.2964409 L0,82.9902865 L0,12.9984786 C0,5.83560848 5.83560848,0 12.9984786,0 Z"/><path fill="#FFF329" d="M82.9902865,5.99929782 C86.839836,5.99929782 89.9894673,9.14892918 89.9894673,12.9984786 L89.9894673,82.9902865 C89.9894673,86.839836 86.839836,89.9894673 82.9902865,89.9894673 L57.5152978,89.9892978 L47.9943826,99.5109936 L38.4732978,89.9892978 L12.9984786,89.9894673 C9.14892918,89.9894673 5.99929782,86.839836 5.99929782,82.9902865 L5.99929782,12.9984786 C5.99929782,9.14892918 9.14892918,5.99929782 12.9984786,5.99929782 L82.9902865,5.99929782 Z"/><g transform="translate(11.999 6)"><rect width="71.992" height="71.992"/><g fill="#000" fill-rule="nonzero" transform="translate(2.25 21.372)"><polygon points="8.73 49.494 28.957 49.494 32.257 25.872 25.961 25.872"/><polygon points="35.238 25.872 38.539 49.494 58.766 49.494 41.531 25.872"/><path d="M0 14.6232884 0 21.3724985 5.62434171 21.3724985 5.62434171 35.9957869 12.179062 35.9957869 17.9978935 29.7124973 17.9978935 23.0658753 11.546886 21.7819506C11.1900778 21.667439 11.2422717 21.4356036 11.2657814 21.372386L56.2263191 21.372386C56.2498288 21.4356036 56.3020227 21.667439 55.9452145 21.7819506L49.494207 23.0658753 49.494207 29.7124973 55.312926 35.9957869 61.8677588 35.9957869 61.8677588 21.3724985 67.4921005 21.3724985 67.4921005 14.6232884 0 14.6232884ZM55.1185487 4.53693148C51.1763351 4.53693148 47.9602241 4.61432242 45.2105959 4.7400827L44.0829154.851975282C43.9577175.351296383 43.5077702 0 42.9915681 0L22.9923089 0 21.5388665 6.70893976C19.4633719 6.78948034 17.1248831 6.8376247 14.3852663 6.8376247 13.8615276 6.8376247 13.4251912 7.22750407 13.3224907 7.74111895L12.3735518 12.3735518 51.7439437 12.3735518 55.1185487 4.53693148ZM32.6211819 5.82681801C31.1707767 5.99003641 29.7095727 6.14931776 28.1217085 6.29150112L28.1217085 2.24973668 32.6211819 2.24973668 32.6211819 5.82681801ZM35.9957869 5.4509995 35.9957869 2.24973668 40.32653 2.24973668 41.0116874 4.99025342C39.168928 5.12748736 37.5391063 5.28575634 35.9957869 5.4509995Z"/></g></g></g></svg>