<svg xmlns="http://www.w3.org/2000/svg" width="121" height="121" viewBox="0 0 121 121"><g fill="none" fill-rule="evenodd" transform="translate(13 7)"><path fill="#000" d="M82.9902865,0 C90.1531567,0 95.9887651,5.83560848 95.9887651,12.9984786 L95.9887651,82.9902865 C95.9887651,90.1531567 90.1531567,95.9887651 82.9902865,95.9887651 L60.005,95.988 L47.9943826,108 L35.982,95.988 L12.9984786,95.9887651 C5.9379352,95.9887651 0.167002541,90.3186974 0.00355967765,83.2964409 L0,82.9902865 L0,12.9984786 C0,5.83560848 5.83560848,0 12.9984786,0 Z"/><path fill="#FFF329" d="M82.9902865,5.99929782 C86.839836,5.99929782 89.9894673,9.14892918 89.9894673,12.9984786 L89.9894673,82.9902865 C89.9894673,86.839836 86.839836,89.9894673 82.9902865,89.9894673 L57.5152978,89.9892978 L47.9943826,99.5109936 L38.4732978,89.9892978 L12.9984786,89.9894673 C9.14892918,89.9894673 5.99929782,86.839836 5.99929782,82.9902865 L5.99929782,12.9984786 C5.99929782,9.14892918 9.14892918,5.99929782 12.9984786,5.99929782 L82.9902865,5.99929782 Z"/><g transform="translate(11.999 11.999)"><rect width="71.992" height="71.992"/><g fill="#000" fill-rule="nonzero" transform="translate(1.125 14.623)"><path d="M33.0826029 5.59689492 46.1888939 19.9362666C47.6773197 21.5636136 49.7952218 22.4973668 52.0009761 22.4973668L56.2434171 22.4973668 56.2434171 17.9978935 52.0009761 17.9978935C51.0563117 17.9978935 50.1477555 17.5974403 49.5106301 16.9004719L36.4044516 2.56121273C34.9159133.93375321 32.7980112 0 30.5922569 0L16.8730251 0 16.8730251 4.49947337 30.5922569 4.49947337C31.5369213 4.49947337 32.4454775 4.8999265 33.0826029 5.59689492ZM9.48174022 14.6880809C11.1036879 15.5482677 14.1042742 16.8730251 17.19485 16.8730251 18.4049833 16.8730251 19.5972313 16.668749 20.6994898 16.370209 19.9033079 15.3259937 19.1461591 13.8314936 18.7913756 12.28165 18.2635874 12.3860378 17.7257878 12.4522925 17.19485 12.4522925 14.0789647 12.4522925 10.7455298 10.3090809 10.7158333 10.2904081L9.48331504 9.48736457 8.25135923 10.2870335C8.21851308 10.3090809 4.88395337 12.4522925 1.76806806 12.4522925 1.17717472 12.4522925.582119367 12.3637654 0 12.2385676L0 16.7297169C.580657038 16.8156568 1.17143789 16.8730251 1.76806806 16.8730251 4.85864383 16.8730251 7.85923013 15.5482677 9.48174022 14.6880809ZM67.9737691 29.3253177C64.8578838 29.3253177 61.5233241 27.182106 61.49419 27.1634332L60.2616718 26.3603897 59.029716 27.1600586C58.9961949 27.1819935 55.66276 29.3252052 52.5468747 29.3252052 51.5353931 29.3252052 50.502539 29.0979818 49.5654112 28.7922426L49.7709246 28.9976435C50.8759953 30.1027142 51.4845491 31.5714548 51.4845491 33.1340094 51.4845491 33.3225373 51.4477659 33.5037536 51.4303304 33.6890194 51.7998497 33.7249027 52.172631 33.7460502 52.5469872 33.7460502 55.6376755 33.7460502 58.6381493 32.4212928 60.260097 31.561106 61.882607 32.4212928 64.8831934 33.7460502 67.9737691 33.7460502 68.5703993 33.7460502 69.1610677 33.688682 69.7418372 33.602742L69.7418372 29.1103553C69.1589304 29.2362281 68.5636501 29.3253177 67.9737691 29.3253177ZM37.7347209 40.3392411 24.6284299 26.0005443C23.2465291 24.4889462 21.2791344 23.6222352 19.2315366 23.6222352L0 23.6222352 0 56.2434171 69.7418372 56.2434171 69.7418372 41.6201286 40.6402558 41.6201286C39.5373224 41.6201286 38.4783714 41.1533083 37.7347209 40.3392411Z"/><path d="M26.4333936,23.4814017 C27.0834551,23.6788161 27.8645636,23.5409072 28.6641201,23.1202064 C28.7614212,25.6621839 29.7315076,27.6789604 31.0230815,28.070977 C31.6731429,28.2683914 32.4542514,28.1304825 33.2538079,27.7097818 C33.351109,30.2517592 34.3211954,32.2685357 35.6126568,32.6605523 C36.2627182,32.8579667 37.0438268,32.7200578 37.8433832,32.2993571 C37.9406843,34.8413346 38.9107708,36.858111 40.2022321,37.2502401 C41.211464,37.5565418 42.5341967,37.0656492 43.7546788,35.9334692 C45.0667252,36.8168283 46.8608902,36.6809442 48.0214169,35.5204176 C49.3393127,34.2025218 49.3393127,32.0659469 48.0214169,30.7480511 L45.4924879,28.2191221 C44.8758351,28.9777333 44.2796549,29.9142987 43.7784135,30.9522147 C43.560864,31.048166 43.2490505,30.919931 43.3687365,30.4807824 C43.4237425,30.279206 43.8758271,28.711477 44.2410719,26.9675936 L44.2347726,26.9612944 C44.6693093,24.8864747 44.9801104,22.5615968 44.3454597,21.9822896 C43.1600734,20.8998288 40.7242835,23.1639638 39.1825389,26.3562277 C38.9649894,26.4522914 38.6530634,26.3240564 38.7728619,25.8847954 C38.8933353,25.4432845 40.9237226,18.4590895 39.7557718,17.3927143 C38.5702731,16.3102535 36.1345957,18.5743885 34.5928511,21.7666524 C34.3753016,21.8626036 34.0633756,21.7344811 34.1831741,21.29522 C34.303535,20.8537092 36.3340348,13.8695142 35.166084,12.803139 C33.9805853,11.7206782 31.5449079,13.9848132 30.0031633,17.177077 C29.7856138,17.2730283 29.4738003,17.1447933 29.5934863,16.7056447 C29.7139597,16.2641339 31.7444595,9.27993884 30.5765087,8.21356366 C29.7624415,7.47025066 28.3577059,8.30726519 27.0578081,9.93596206 C25.4337232,8.83539088 22.6693592,7.93842086 21.5542772,9.05350285 C20.2363815,10.3713986 21.7277319,13.9994365 23.0456277,15.3173322 L24.1887189,16.4604234 C23.6891648,19.9162439 24.8060466,22.9873595 26.4333936,23.4814017 Z"/></g></g></g></svg>