<svg xmlns="http://www.w3.org/2000/svg" width="121" height="121" viewBox="0 0 121 121"><g fill="none" fill-rule="evenodd" transform="translate(13 7)"><path fill="#000" d="M82.9902865,0 C90.1531567,0 95.9887651,5.83560848 95.9887651,12.9984786 L95.9887651,82.9902865 C95.9887651,90.1531567 90.1531567,95.9887651 82.9902865,95.9887651 L60.005,95.988 L47.9943826,108 L35.982,95.988 L12.9984786,95.9887651 C5.9379352,95.9887651 0.167002541,90.3186974 0.00355967765,83.2964409 L0,82.9902865 L0,12.9984786 C0,5.83560848 5.83560848,0 12.9984786,0 Z"/><path fill="#FFF329" d="M82.9902865,5.99929782 C86.839836,5.99929782 89.9894673,9.14892918 89.9894673,12.9984786 L89.9894673,82.9902865 C89.9894673,86.839836 86.839836,89.9894673 82.9902865,89.9894673 L57.5152978,89.9892978 L47.9943826,99.5109936 L38.4732978,89.9892978 L12.9984786,89.9894673 C9.14892918,89.9894673 5.99929782,86.839836 5.99929782,82.9902865 L5.99929782,12.9984786 C5.99929782,9.14892918 9.14892918,5.99929782 12.9984786,5.99929782 L82.9902865,5.99929782 Z"/><g transform="translate(11.999 14.998)"><rect width="71.992" height="71.992"/><path fill="#000" fill-rule="nonzero" d="M52.6994069,56.2434171 L67.4921005,56.2434171 L67.4921005,52.8688121 L52.6994069,52.8688121 C52.3458608,51.1274034 51.450803,49.5867837 50.2043364,48.4148959 L59.371451,33.5580847 C59.8127368,33.6692217 60.2671836,33.7460502 60.7428904,33.7460502 C63.8491019,33.7460502 66.3672322,31.22792 66.3672322,28.1217085 C66.3672322,25.0154971 63.8491019,22.4973668 60.7428904,22.4973668 C60.1079023,22.4973668 59.50801,22.6259393 58.9386016,22.8198666 L48.554492,8.69894435 C49.1435856,7.81446037 49.494207,6.76079619 49.494207,5.62434171 C49.494207,2.51813027 46.9760768,0 43.8698653,0 C40.787951,0 38.0961411,2.52802911 38.2752201,5.92501902 L21.9546179,13.5401527 C20.467092,11.5378871 18.1184794,10.2207787 15.4526539,10.1373135 L13.7136074,0 L10.2895082,0 L12.1259682,10.7046971 C9.48893938,11.7328268 7.49342294,14.041844 6.91861522,16.8730251 L0,16.8730251 L0,20.2476301 L6.91861522,20.2476301 C7.52514423,23.2352805 9.71200077,25.6453109 12.5674791,26.5774893 L10.1834331,47.3518953 C7.58757442,47.8503244 5.62434171,50.1273954 5.62434171,52.8688121 C5.62434171,55.9750235 8.14247198,58.4931538 11.2486834,58.4931538 C13.6638882,58.4931538 15.7064242,56.9628829 16.5032809,54.8255205 L36.1008496,55.8218164 C36.8846579,61.0172458 42.2044977,64.279589 47.234459,62.5058966 L50.2261589,67.4921005 L54.1616232,67.4921005 L50.127058,60.76775 C51.4134574,59.5876507 52.3386616,58.0203716 52.6994069,56.2434171 Z M42.0214817,10.9279835 C42.5854906,11.1206734 43.1806585,11.2486834 43.8136219,11.2486834 C44.5615469,11.2486834 45.2755008,11.0958138 45.9332113,10.8307948 L56.2149579,24.8124584 C56.0843607,24.99075 55.9731112,25.1802903 55.8638865,25.3736552 L35.1945432,21.0356004 L42.0214817,10.9279835 Z M55.1744547,28.677056 C55.1860408,28.7935924 55.1911027,28.9117036 55.2096631,29.0259902 L34.4018485,39.5351852 L28.0116964,31.6702182 L33.154707,24.0556469 L55.1744547,28.677056 Z M31.3189218,41.0923404 L16.6408523,48.5053353 L26.0378899,34.5926262 L31.3189218,41.0923404 Z M25.7879442,28.9334135 L21.7073718,23.9112139 C22.2025388,23.3085094 22.6135657,22.6349382 22.9278539,21.9095106 L29.5879744,23.307272 L25.7879442,28.9334135 Z M19.0862036,26.0367651 L23.8141377,31.855709 L13.6276675,46.9373813 L15.9201492,26.959832 C17.0551413,26.861631 18.1244412,26.5395812 19.0862036,26.0367651 Z M33.4966669,43.7726767 L37.9106503,49.2052284 C37.1431526,50.139544 36.5813934,51.2451771 36.2710422,52.4518234 L18.1379396,51.5296563 L33.4966669,43.7726767 Z M40.531706,47.0796771 L36.5795936,42.2155215 L56.1678259,32.3225294 L47.3325475,46.6421033 C45.0383786,45.8009268 42.6025886,45.9971038 40.531706,47.0796771 Z M39.0603782,9.2828635 L31.6278107,20.287113 L23.6198729,18.6064472 C23.6199854,18.5908116 23.6222352,18.5758508 23.6222352,18.5603276 C23.6222352,17.8832694 23.533933,17.2282585 23.3833131,16.5973199 L39.0603782,9.2828635 Z" transform="translate(2.25 2.25)"/></g></g></svg>