<svg xmlns="http://www.w3.org/2000/svg" width="121" height="121" viewBox="0 0 121 121"><g fill="none" fill-rule="evenodd" transform="translate(13 7)"><path fill="#000" d="M82.9902865,0 C90.1531567,0 95.9887651,5.83560848 95.9887651,12.9984786 L95.9887651,82.9902865 C95.9887651,90.1531567 90.1531567,95.9887651 82.9902865,95.9887651 L60.005,95.988 L47.9943826,108 L35.982,95.988 L12.9984786,95.9887651 C5.9379352,95.9887651 0.167002541,90.3186974 0.00355967765,83.2964409 L0,82.9902865 L0,12.9984786 C0,5.83560848 5.83560848,0 12.9984786,0 Z"/><path fill="#FFF329" d="M82.9902865,5.99929782 C86.839836,5.99929782 89.9894673,9.14892918 89.9894673,12.9984786 L89.9894673,82.9902865 C89.9894673,86.839836 86.839836,89.9894673 82.9902865,89.9894673 L57.5152978,89.9892978 L47.9943826,99.5109936 L38.4732978,89.9892978 L12.9984786,89.9894673 C9.14892918,89.9894673 5.99929782,86.839836 5.99929782,82.9902865 L5.99929782,12.9984786 C5.99929782,9.14892918 9.14892918,5.99929782 12.9984786,5.99929782 L82.9902865,5.99929782 Z"/><g transform="translate(11.999 11.999)"><rect width="71.992" height="71.992"/><g fill="#000" fill-rule="nonzero" transform="translate(4.5 2.25)"><path d="M21.3724985,58.4931538 L21.3724985,56.2434171 C21.3724985,54.3825474 22.8862338,52.8688121 24.7471035,52.8688121 L26.708199,52.8688121 C26.2223683,48.7489818 25.75926,44.0124986 25.4345106,39.0312442 C26.9444213,39.9536362 28.720026,40.4952603 30.6283652,40.4952603 C36.0776773,40.4952603 40.4952603,36.1519187 40.4952603,30.7941707 C40.4952603,28.5797549 39.7322621,26.5452056 38.4619483,24.9124592 C40.9012253,23.4110974 42.5285723,20.753146 42.5285723,17.7149891 C42.5285723,14.0835766 40.2065066,10.9931133 36.9460757,9.77814303 C36.9657609,9.52392279 36.9811716,9.26857767 36.977572,9.00918303 C36.9061429,4.00250653 32.4136437,0.00719915739 26.9432965,0.0852650203 C24.6355166,0.118223663 22.5276258,0.877059846 20.8610209,2.11216528 C19.3405363,0.801018746 17.3537939,0 15.1724492,0 C10.0710587,0 5.99003641,4.35594017 6.59634044,9.48398996 C2.76605125,10.7323688 0,14.2762666 0,18.4610018 C0,21.4570886 1.42037125,24.123139 3.63073755,25.8567861 C2.07898167,27.5314901 1.12486834,29.7508554 1.12486834,32.1948568 C1.12486834,38.2639715 6.96450985,42.9427488 13.2166406,41.2719819 C14.3825666,37.7923142 14.9184539,32.9370449 12.7508326,29.4352173 C12.6110115,29.2091188 12.6770412,29.0474752 12.8152876,28.9843701 C19.509829,34.568554 13.8830126,59.0302784 11.8351898,67.4921005 L24.7529528,67.4921005 L26.8895278,61.8677588 L24.7471035,61.8677588 C22.8862338,61.8677588 21.3724985,60.3540235 21.3724985,58.4931538 Z"/><path d="M23.6222352 56.2434171 23.6222352 58.4931538C23.6222352 59.1143061 24.1258387 59.6180221 24.7471035 59.6180221L27.7440902 59.6180221 29.4534402 55.1185487 24.7471035 55.1185487C24.1258387 55.1185487 23.6222352 55.6221523 23.6222352 56.2434171ZM59.6180221 55.1185487 54.9116854 55.1185487 56.6210354 59.6180221 59.6180221 59.6180221C60.2392869 59.6180221 60.7428904 59.1143061 60.7428904 58.4931538L60.7428904 56.2434171C60.7428904 55.6221523 60.2392869 55.1185487 59.6180221 55.1185487Z"/><path d="M55.1185487,49.494207 C55.7398135,49.494207 56.2434171,48.990491 56.2434171,48.3693387 L56.2434171,46.119602 C56.2434171,45.4983372 55.7398135,44.9947337 55.1185487,44.9947337 L29.2465769,44.9947337 C28.6253121,44.9947337 28.1217085,45.4983372 28.1217085,46.119602 L28.1217085,48.3693387 C28.1217085,48.990491 28.6253121,49.494207 29.2465769,49.494207 L33.9968959,49.494207 L27.1597211,67.4921005 L31.9726953,67.4921005 L34.9639452,59.6180221 L49.4011804,59.6180221 L52.3924303,67.4921005 L57.2054045,67.4921005 L50.3682297,49.494207 L55.1185487,49.494207 Z M36.6731826,55.1185487 L38.8098701,49.494207 L45.5552556,49.494207 L47.691943,55.1185487 L36.6731826,55.1185487 Z"/></g></g></g></svg>