<svg xmlns="http://www.w3.org/2000/svg" width="121" height="121" viewBox="0 0 121 121"><g fill="none" fill-rule="evenodd" transform="translate(13 7)"><path fill="#000" d="M82.9902865,0 C90.1531567,0 95.9887651,5.83560848 95.9887651,12.9984786 L95.9887651,82.9902865 C95.9887651,90.1531567 90.1531567,95.9887651 82.9902865,95.9887651 L60.005,95.988 L47.9943826,108 L35.982,95.988 L12.9984786,95.9887651 C5.9379352,95.9887651 0.167002541,90.3186974 0.00355967765,83.2964409 L0,82.9902865 L0,12.9984786 C0,5.83560848 5.83560848,0 12.9984786,0 Z"/><path fill="#FFF329" d="M82.9902865,5.99929782 C86.839836,5.99929782 89.9894673,9.14892918 89.9894673,12.9984786 L89.9894673,82.9902865 C89.9894673,86.839836 86.839836,89.9894673 82.9902865,89.9894673 L57.5152978,89.9892978 L47.9943826,99.5109936 L38.4732978,89.9892978 L12.9984786,89.9894673 C9.14892918,89.9894673 5.99929782,86.839836 5.99929782,82.9902865 L5.99929782,12.9984786 C5.99929782,9.14892918 9.14892918,5.99929782 12.9984786,5.99929782 L82.9902865,5.99929782 Z"/><g transform="translate(11.999 11.999)"><rect width="71.992" height="71.992"/><g fill="#000" fill-rule="nonzero" transform="translate(6.75 5.624)"><path d="M29.2465769,0 C13.0932425,0 0,9.06396412 0,20.2476301 L0,46.119602 L7.46507626,46.119602 L21.3724985,29.121604 L21.3724985,23.3522668 L21.3724985,23.6222352 C21.3732859,20.5150114 24.8991857,17.7279251 29.2464644,17.7279251 C33.5927307,17.7279251 37.1196429,20.5150114 37.1204303,23.6222352 L37.1206553,23.3522668 L37.1206553,29.121604 L51.0280775,46.119602 L58.4931538,46.119602 L58.4931538,20.2476301 C58.4931538,9.06396412 45.3997988,0 29.2465769,0 Z"/><polygon points="5.217 60.743 24.647 60.743 28.122 29.247 24.133 29.247"/><polygon points="30.371 29.247 33.85 60.743 53.28 60.743 34.36 29.247"/></g></g></g></svg>