<svg xmlns="http://www.w3.org/2000/svg" width="121" height="121" viewBox="0 0 121 121"><g fill="none" fill-rule="evenodd" transform="translate(13 7)"><path fill="#000" d="M82.9902865,0 C90.1531567,0 95.9887651,5.83560848 95.9887651,12.9984786 L95.9887651,82.9902865 C95.9887651,90.1531567 90.1531567,95.9887651 82.9902865,95.9887651 L60.005,95.988 L47.9943826,108 L35.982,95.988 L12.9984786,95.9887651 C5.9379352,95.9887651 0.167002541,90.3186974 0.00355967765,83.2964409 L0,82.9902865 L0,12.9984786 C0,5.83560848 5.83560848,0 12.9984786,0 Z"/><path fill="#FFF329" d="M82.9902865,5.99929782 C86.839836,5.99929782 89.9894673,9.14892918 89.9894673,12.9984786 L89.9894673,82.9902865 C89.9894673,86.839836 86.839836,89.9894673 82.9902865,89.9894673 L57.5152978,89.9892978 L47.9943826,99.5109936 L38.4732978,89.9892978 L12.9984786,89.9894673 C9.14892918,89.9894673 5.99929782,86.839836 5.99929782,82.9902865 L5.99929782,12.9984786 C5.99929782,9.14892918 9.14892918,5.99929782 12.9984786,5.99929782 L82.9902865,5.99929782 Z"/><g transform="translate(11.999 14.998)"><rect width="71.992" height="71.992"/><g fill="#000" fill-rule="nonzero" transform="translate(1.125 8.999)"><path d="M2.24973668,13.4984201 L5.62434171,13.4984201 L5.62434171,47.0162346 C8.07385501,46.3913702 9.76239488,45.1298304 11.7385636,43.8599665 L13.4984201,44.9977708 C13.4984201,44.9977708 21.4275046,37.008056 34.8709186,37.008056 C48.319282,37.008056 56.2434171,44.9997956 56.2434171,44.9997956 L58.016997,43.8599665 C60.1188135,45.2189199 61.6838428,46.3960946 64.1174955,47.0162346 L64.1174955,13.4984201 L67.4921005,13.4984201 C68.1133653,13.4984201 68.6169688,12.9947041 68.6169688,12.3735518 L68.6169688,1.12486834 C68.6169688,0.503603557 68.1133653,0 67.4921005,0 L52.8688121,0 C52.2475473,0 51.7439437,0.503603557 51.7439437,1.12486834 L51.7439437,12.3735518 C51.7439437,12.9947041 52.2475473,13.4984201 52.8688121,13.4984201 L56.2434171,13.4984201 L56.2434171,25.2420456 C59.0880966,27.9995478 61.0644903,32.0300636 61.8200644,35.6610261 C61.8930683,36.0115351 61.7539221,36.0887011 61.6251247,36.0939879 C57.7340926,27.5616366 47.2279348,21.3724985 34.8709186,21.3724985 C22.5232388,21.3724985 12.0233802,27.5521877 8.12526149,36.0745277 C8.02616059,36.0512429 7.8577678,35.9509047 7.95484394,35.5056818 C8.73336532,31.9362496 10.6955857,27.9632146 13.4984201,25.2455327 L13.4984201,13.4984201 L16.8730251,13.4984201 C17.4942899,13.4984201 17.9978935,12.9947041 17.9978935,12.3735518 L17.9978935,1.12486834 C17.9978935,0.503603557 17.4942899,0 16.8730251,0 L2.24973668,0 C1.6284719,0 1.12486834,0.503603557 1.12486834,1.12486834 L1.12486834,12.3735518 C1.12486834,12.9947041 1.6284719,13.4984201 2.24973668,13.4984201 Z"/><path d="M65.7240324,49.5729478 C62.6081471,49.5729478 59.2735874,47.4297362 59.2444533,47.4110633 L58.0119351,46.6080198 L56.7799793,47.4076887 C56.7464582,47.4296237 53.4130234,49.5728353 50.2971381,49.5728353 C47.1818152,49.5728353 43.8472555,47.4296237 43.8181214,47.4109509 L42.5856031,46.6079074 L41.3536473,47.4075763 C41.3202387,47.4297362 37.9868039,49.5729478 34.8709186,49.5729478 C31.7550333,49.5729478 28.4215984,47.4297362 28.3919019,47.4110633 L27.1576964,46.6003707 L25.9234908,47.4110633 C25.8905322,47.4319859 22.5417991,49.5729478 19.4444742,49.5729478 C16.3285888,49.5729478 12.995154,47.4297362 12.9654575,47.4110633 L11.7329392,46.6080198 L10.5009834,47.4076887 C10.4682498,47.4297362 7.13369005,49.5729478 4.01780474,49.5729478 C2.61475646,49.5729478 1.16997556,49.1379612 0,48.6584299 L0,53.3463187 C1.24162968,53.7226996 2.62060578,53.9936804 4.01780474,53.9936804 C7.108493,53.9936804 10.1089668,52.668923 11.7314769,51.8087361 C13.3534246,52.668923 16.3540109,53.9936804 19.4445866,53.9936804 C22.5347125,53.9936804 25.5357487,52.668923 27.1576964,51.8087361 C28.7797565,52.668923 31.7802303,53.9936804 34.8709186,53.9936804 C37.9616068,53.9936804 40.9620807,52.668923 42.5840283,51.8087361 C44.205976,52.668923 47.2071247,53.9936804 50.2972505,53.9936804 C53.3879388,53.9936804 56.3884126,52.668923 58.0103603,51.8087361 C59.6328704,52.668923 62.6334567,53.9936804 65.7240324,53.9936804 C67.1212314,53.9936804 68.5002075,53.7226996 69.7418372,53.3463187 L69.7418372,48.6555052 C68.5692744,49.1361614 67.1224688,49.5729478 65.7240324,49.5729478 Z"/></g></g></g></svg>