<?xml version="1.0" encoding="UTF-8"?>
<svg width="1200pt" height="1200pt" version="1.1" viewBox="0 0 1200 1200" xmlns="http://www.w3.org/2000/svg">
 <path d="m180 702-38.391 38.391 151.22 75.609s-24 50.391-12 63.609c12 12 63.609-12 63.609-12l75.562 150 38.391-38.391-38.391-163.22s104.39-82.781 240-214.78l226.78 403.22 50.391-50.391-88.781-315.61 57.609-57.609c10.781-10.781 10.781-27.609 0-38.391s-27.609-10.781-38.391 0l-36 36-33.609-117.61 151.22-151.22s66-67.219 51.609-153.61c-86.391-14.391-153.61 51.609-153.61 51.609l-150 153.61-117.61-33.609 36-36c10.781-10.781 10.781-27.609 0-38.391s-27.609-10.781-38.391 0l-57.609 57.609-315.61-88.781-50.391 50.391 403.22 226.78c-132 135.61-214.78 240-214.78 240z"/>
</svg>
