<?xml version="1.0" encoding="UTF-8"?>
<svg width="1200pt" height="1200pt" version="1.1" viewBox="0 0 1200 1200" xmlns="http://www.w3.org/2000/svg">

 <path d="m764.37 539.02c-3.6328-203.81-160.14-261.49-161.71-262.02-1.7422-0.58984-3.543-0.58984-5.2852 0-1.5938 0.53125-158.11 58.184-161.71 262.02-3.0117 172.22 32.887 375.82 33.238 377.86 0.67969 3.7773 3.9258 6.4961 7.793 6.4961h246.67c3.8672 0 7.1133-2.7148 7.793-6.4961 0.38281-2.0352 36.281-205.64 33.238-377.86zm-47.676 368.64h-233.36c-6.0508-36.043-34.598-214.85-31.883-368.32 3.1875-180.55 128.03-238.14 148.57-246.43 20.488 8.2344 145.38 65.828 148.57 246.43 2.7148 153.42-25.859 332.28-31.883 368.32z"/>
 
</svg>
