<?xml version="1.0" encoding="UTF-8"?>
<svg width="1200pt" height="1200pt" version="1.1" viewBox="0 0 1200 1200" xmlns="http://www.w3.org/2000/svg">
 <path d="m413.58 556.45c-0.5625-0.1875-1.2188-0.23438-1.7812-0.09375l-34.406 7.125c-1.4531 0.32812-2.5781 1.5-2.8125 3l-6 40.969c7.4062-1.2188 40.078-6.1875 91.969-10.219v-23.109c0-1.5469-0.98438-2.9062-2.4844-3.375z"/>
 <path d="m897.24 524.02-53.953-15.891c-0.65625-0.1875-1.3594-0.1875-2.0625-0.046875l-100.27 24.469c-1.4062 0.32812-2.5312 1.4531-2.9062 2.8125l-16.828 63.328c-36.984-1.7344-77.016-2.9531-117.05-2.9531-56.766 0-105.38 2.4375-143.63 5.3906-51.891 4.0312-84.562 9-91.969 10.219-1.0781 0.1875-1.6875 0.28125-1.6875 0.28125l-15.891 30.984c-14.953 4.5469-24.797 12.281-24.797 21.141 0 10.125 13.031 18.891 31.781 22.922 7.0781 1.5 14.953 2.3906 23.297 2.3906h81.141l0.23438-41.062 392.48-0.51562c0.84375-0.79688 1.7344 3.1406 2.5312 2.3906 17.625-17.719 32.109-33.562 35.531-37.359h2.8594c2.2031 0 3.9844-1.7812 3.9844-3.9844v-80.766c0-1.6875-1.125-3.2344-2.8125-3.75zm-496.6 114h-37.078l7.9688-19.547 29.109-2.625zm29.203 0.84375c-4.9219 0-8.9531-3.9844-8.9531-8.9531 0-4.9219 3.9844-8.9062 8.9531-8.9062 4.9219 0 8.9531 3.9844 8.9531 8.9062-0.046875 4.9688-4.0312 8.9531-8.9531 8.9531zm79.219 0c-4.9219 0-8.9531-3.9844-8.9531-8.9531 0-4.9219 3.9844-8.9062 8.9531-8.9062 4.9219 0 8.9531 3.9844 8.9531 8.9062 0 4.9688-3.9844 8.9531-8.9531 8.9531zm79.266 0c-4.9219 0-8.9531-3.9844-8.9531-8.9531 0-4.9219 3.9844-8.9062 8.9531-8.9062 4.9219 0 8.9531 3.9844 8.9531 8.9062 0 4.9688-4.0312 8.9531-8.9531 8.9531zm79.266 0c-4.9219 0-8.9531-3.9844-8.9531-8.9531 0-4.9219 3.9844-8.9062 8.9531-8.9062 4.9219 0 8.9531 3.9844 8.9531 8.9062 0 4.9688-4.0312 8.9531-8.9531 8.9531zm79.266-0.65625c-4.9219 0-8.9531-3.9844-8.9531-8.9531 0-4.9219 3.9844-8.9531 8.9531-8.9531 4.9219 0 8.9531 3.9844 8.9531 8.9531-0.046875 4.9688-4.0312 8.9531-8.9531 8.9531zm14.156-24.844-28.453-15.891v-8.625l28.453-15.891zm42.844-12.938-37.734 6.6094v-27.797l37.734 6.9375zm24.188 6.8906-18.609-7.0781v-14.531l18.609-6.75z"/>
 <path d="m467.68 652.26-0.23438 36.844h59.156v10.828c-5.3438 1.7344-9.1875 6.6562-9.1875 12.562 0 7.3125 5.9062 13.219 13.219 13.219 4.2188 0 7.8281-2.1094 10.266-5.2031 2.4375 3.0938 6.0469 5.2031 10.266 5.2031 7.3125 0 13.219-5.9062 13.219-13.219 0-5.9062-3.8906-10.828-9.1875-12.562v-10.828h222.37l3 11.953c-4.7344 2.9531-7.3125 8.6719-5.8594 14.391 1.7812 7.0781 8.9531 11.391 16.078 9.6094 4.125-1.0312 7.0781-3.9375 8.6719-7.5469 3.0938 2.3906 7.125 3.6094 11.203 2.5781 7.0781-1.7812 11.391-8.9531 9.6094-16.078-1.4531-5.7188-6.375-9.5625-11.953-9.9375l-2.8594-11.531c14.484-6.7969 36.375-18.188 49.688-30.328h-387.47zm79.406 47.672c-2.4844 0.79688-4.5938 2.3438-6.1875 4.3125-1.5938-1.9688-3.7031-3.5156-6.1875-4.3125v-10.828h12.422zm248.44 1.875c-2.0156-1.5469-4.4531-2.5312-7.0781-2.7188l-2.4844-9.9844h4.8281s2.7656-1.125 7.1719-3.0938l2.5312 10.078c-2.2031 1.4062-3.8906 3.375-4.9688 5.7188z"/>
 <path d="m408.52 550.92 0.14062 0.70312 212.11-37.078-1.3594-7.8281-171.66 30 69-24.984-2.7188-7.4531-110.58 40.172c-14.906 1.3125-328.69 28.406-338.9 29.062l0.51562 7.9219c10.5-0.65625 326.16-27.984 339.61-29.109z"/>
 <path d="m1136.4 487.64-0.375-7.9219-282.98 13.5 14.906-18.281-6.1406-5.0156-19.266 23.578-302.58-13.781-0.375 7.9219 304.97 13.922z"/>
</svg>
