<?xml version="1.0" encoding="UTF-8"?>
<svg color="#256FB8" width="1200pt" height="1200pt" version="1.1" viewBox="0 0 1200 1200" xmlns="http://www.w3.org/2000/svg">
  <path
      fill="currentColor"
      stroke="black"
      stroke-width="30"
      d="m600 6-32.578 16.406-30 35.297-41.531 136.82-9.8906 156.52-297.05-323.02-36.328 34.781 332.26 323.34 2.0156 40.594-30.938 35.344v112.27l11.484 9.7031-334.97 315.19 36.797 38.531 323.63-336.74 13.359-0.09375 16.406 66.469 33.469 56.344 15.375 331.87-93-1.6406 41.766 96.422 52.406-37.828 7.0312 81.375 20.344-0.375 20.344 0.375 7.0312-81.375 52.406 37.828 41.766-96.422-93 1.6406 15.375-331.87 33.469-56.344 16.406-66.469 13.359 0.09375 323.63 336.74 36.797-38.531-334.97-315.19 11.484-9.7031-0.046875-112.22-30.938-35.344 2.0156-40.641 332.21-323.34-36.328-34.781-297.05 323.02-9.8906-156.52-41.531-136.82-30-35.297Z"/>
</svg>
