<svg xmlns="http://www.w3.org/2000/svg" width="121" height="121" viewBox="0 0 121 121"><g fill="none" fill-rule="evenodd" transform="translate(11 1)"><path fill="#000" d="M49.4394392,0.0318675407 C22.3057387,1.05655877 0,24.0129849 0,51.0632884 C0,74.1581311 15.7531577,94.1840908 37.6796234,100.284188 L39.123,100.664864 L42.9875735,113.982705 L43.1785408,114.537893 C46.0893205,121.820521 56.3606795,121.820521 59.2714592,114.537893 L59.414029,114.18119 L62.886,100.712864 L63.516,100.496864 L63.2562825,100.567939 C85.9193193,94.8977587 102,74.3341875 102,50.6129372 C102,22.1810388 78.2198674,-0.978760095 49.4394392,0.0318675407 Z M49.65,6.02817175 C75.3,5.12746941 96,25.8436231 96,50.6129372 C96,71.7794421 81.6,89.7934887 61.8,94.7473516 L60.7909333,95.0889513 C58.9125333,95.7454632 57.8597333,96.3059002 57.4021333,97.9231613 L57.3,98.3501609 L53.7,112.311047 C52.8473684,114.444289 49.9753463,114.556565 48.9101473,112.647875 L48.75,112.311047 L44.7,98.3501609 C44.3210526,96.4539455 43.9421053,95.8351804 41.6820674,95.1491811 L40.742703,94.8861535 C40.5702216,94.8409148 40.3894737,94.7947569 40.2,94.7473516 C20.85,89.7934887 6,72.2297932 6,51.0632884 C6,27.1946766 25.8,6.92887408 49.65,6.02817175 Z"/><path fill="#FFF" d="M49.65,6.02817175 C75.3,5.12746941 96,25.8436231 96,50.6129372 C96,71.7794421 81.6,89.7934887 61.8,94.7473516 L60.7909333,95.0889513 C58.9125333,95.7454632 57.8597333,96.3059002 57.4021333,97.9231613 L57.3,98.3501609 L53.7,112.311047 C52.8473684,114.444289 49.9753463,114.556565 48.9101473,112.647875 L48.75,112.311047 L44.7,98.3501609 C44.3210526,96.4539455 43.9421053,95.8351804 41.6820674,95.1491811 L40.742703,94.8861535 C40.5702216,94.8409148 40.3894737,94.7947569 40.2,94.7473516 C20.85,89.7934887 6,72.2297932 6,51.0632884 C6,27.1946766 25.8,6.92887408 49.65,6.02817175 Z"/><path fill="#000" d="M52.8000002,18.6000001 L46.8000002,8.10000003 L32.4000001,16.5 L32.4000001,0 L20.4000001,0 L20.4000001,16.5 L6,8.40000003 L0,18.9000001 L14.4000001,27 L0,35.4000001 L6,45.9000002 L20.4000001,37.5 L20.4000001,54 L32.4000001,54 L32.4000001,37.5 L46.8000002,45.9000002 L52.8000002,35.4000001 L38.4000002,27 L52.8000002,18.6000001 Z M26.4000001,8.70000004 C26.7000001,8.70000004 27.3000001,8.70000004 27.6000001,9.00000004 C27.9000001,9.30000004 28.2000001,9.30000004 28.2000001,9.90000004 L28.2000001,13.5000001 C27.6000001,12.9000001 27.0000001,12.6000001 26.1000001,12.6000001 C25.8000001,12.6000001 25.8000001,12.6000001 25.8000001,12.3000001 C25.8000001,12.3000001 25.8000001,12.3000001 25.8000001,12.3000001 L25.8000001,9.90000004 C25.5000001,9.30000004 25.8000001,9.00000004 26.4000001,8.70000004 Z M27.9000001,14.4000001 L27.9000001,14.4000001 C27.9000001,18.3000001 27.6000001,22.2000001 27.6000001,25.8000001 L27.6000001,26.1000001 L26.1000001,27.6000001 L25.8000001,27.6000001 L25.8000001,27.3000001 C25.8000001,23.4000001 25.5000001,19.8000001 25.5000001,15.9000001 C25.5000001,15.6000001 25.5000001,15.6000001 25.8000001,15.6000001 C26.7000001,15.6000001 27.3000001,15.0000001 27.9000001,14.4000001 Z M25.5000001,12.9000001 C26.1000001,12.9000001 26.7000001,12.9000001 27.0000001,13.2000001 C27.6000001,13.5000001 27.9000001,14.1000001 27.3000001,14.4000001 C27.0000001,15.0000001 26.4000001,15.3000001 25.8000001,15.3000001 L25.2000001,15.3000001 C24.3000001,15.3000001 23.4000001,16.2000001 23.7000001,17.1000001 C23.7000001,17.4000001 23.7000001,17.4000001 23.7000001,17.7000001 C24.0000001,18.3000001 24.3000001,18.6000001 24.6000001,19.2000001 L24.9000001,19.5000001 L24.9000001,22.8000001 L24.3000001,22.2000001 C22.8000001,20.7000001 21.9000001,18.9000001 21.9000001,16.8000001 C22.2000001,14.7000001 23.7000001,13.2000001 25.5000001,12.9000001 L25.5000001,12.9000001 L25.5000001,12.9000001 Z M28.5000001,45.0000002 C28.2000001,45.9000002 27.6000001,47.1000002 27.0000001,47.7000002 C26.7000001,48.0000002 26.7000001,48.0000002 26.4000001,48.0000002 C26.4000001,48.0000002 26.1000001,47.7000002 26.4000001,47.7000002 C26.7000001,47.1000002 27.0000001,46.5000002 27.6000001,45.9000002 C27.9000001,45.6000002 27.9000001,45.3000002 27.9000001,45.0000002 L27.9000001,43.5000002 C28.2000001,43.5000002 28.5000001,44.1000002 28.5000001,45.0000002 L28.5000001,45.0000002 L28.5000001,45.0000002 Z M26.4000001,40.8000002 L26.4000001,40.8000002 C26.7000001,40.2000002 27.0000001,39.6000002 27.6000001,39.3000002 L27.6000001,45.6000002 C27.3000001,45.9000002 27.0000001,46.5000002 27.0000001,47.1000002 L27.0000001,46.8000002 C26.4000001,44.7000002 26.4000001,42.9000002 26.4000001,40.8000002 Z M29.4000001,36.6000002 C29.1000001,37.2000001 29.1000001,37.5000002 28.5000001,37.8000002 L26.7000001,39.6000002 C26.1000001,40.2000001 25.8000001,40.8000002 25.5000001,41.4000002 L25.5000001,42.3000002 C24.9000001,42.0000002 24.6000001,41.7000001 24.6000001,41.1000002 C24.6000001,39.9000002 25.2000001,38.7000001 26.1000001,37.8000002 C26.4000001,37.5000002 27.0000001,37.2000001 27.3000001,36.9000002 C27.9000001,36.3000002 28.2000001,35.4000001 28.5000001,34.5000001 L28.5000001,32.7000001 L29.1000001,33.3000001 C29.4000001,33.9000001 29.4000001,34.5000001 29.7000001,35.1000001 C29.4000001,35.7000001 29.4000001,36.0000001 29.4000001,36.6000002 L29.4000001,36.6000002 Z M26.1000001,31.8000001 L26.1000001,31.5000001 C26.4000001,30.9000001 27.0000001,30.6000001 27.6000001,30.0000001 L27.6000001,35.7000001 C27.6000001,36.0000001 27.6000001,36.0000001 27.3000001,36.3000002 L26.1000001,37.5000001 C26.1000001,37.5000001 26.1000001,31.8000001 26.1000001,31.8000001 Z M29.4000001,28.2000001 C28.8000001,28.8000001 27.9000001,29.4000001 27.3000001,30.0000001 C26.7000001,30.6000001 26.4000001,30.9000001 25.8000001,31.2000001 C25.5000001,31.5000001 25.2000001,32.1000001 25.2000001,32.7000001 L25.2000001,32.7000001 C24.3000001,31.8000001 24.0000001,30.6000001 24.6000001,29.4000001 L28.2000001,25.8000001 C28.5000001,25.5000001 28.8000001,25.2000001 28.8000001,24.6000001 L28.8000001,21.9000001 L29.1000001,21.9000001 C30.0000001,22.5000001 30.6000001,23.4000001 30.6000001,24.6000001 C30.6000001,26.4000001 30.3000001,27.6000001 29.4000001,28.2000001 Z" transform="translate(24.6 24.854)"/></g></svg>