<svg xmlns="http://www.w3.org/2000/svg" width="400" height="400" viewBox="0 0 400 400">
  <rect x="17.2" y="16.6" width="372" height="372.7" fill="#fff"/>
  <path
     d="m 78.633147,162.73904 -0.143341,177.25637 h 25.897514 l 0.1826,-196.33059 94.23073,-69.317845 94.65886,69.619575 0.13823,196.02886 h 25.90799 l -0.18089,-177.01587 26.16705,19.26443 15.33947,-20.88894 L 198.8043,42.173995 36.794703,161.35503 52.127625,182.24397 Z"
     id="path1"
     style="stroke-width:0.437071" />
  <g
     id="g1"
     transform="matrix(0.63359327,0,0,0.6951692,67.919431,126.11469)">
    <path
       d="m 258.97189,133.31807 c -10.01255,-2.06744 -16.52982,-12.23302 -14.50649,-22.6657 2.04163,-10.45289 11.84421,-17.220091 21.85169,-15.151115 10.03758,2.074235 16.52712,12.196435 14.49872,22.653505 -2.02578,10.43129 -11.80736,17.22949 -21.84358,15.16366"
       id="path2"
       style="stroke-width:0.343209" />
    <path
       d="m 224.2929,304.24372 c -1.51735,0 -2.74417,-1.26712 -2.74417,-2.83099 v -87.56037 c 0,-1.56657 1.22682,-2.83371 2.74417,-2.83371 1.51998,0 2.74944,1.26714 2.74944,2.83371 v 87.56037 c -0.004,1.56387 -1.23209,2.83099 -2.74944,2.83099 z"
       id="path3"
       style="stroke-width:0.343209" />
    <path
       d="m 132.91316,60.555502 c -10.66367,0 -19.32666,8.921538 -19.32666,19.924602 0,10.998531 8.66299,19.887666 19.32666,19.887666 10.65319,0 19.30435,-8.889135 19.30435,-19.887666 -0.003,-11.004105 -8.65116,-19.924602 -19.30435,-19.924602 z"
       id="path4"
       style="stroke-width:0.343209" />
    <path
       d="m 330.22645,202.03537 c -0.61011,-7.87521 -2.73095,-11.92292 -5.67718,-16.81313 l -26.81047,-47.6164 c 0,0 -2.15914,-3.63133 -5.99157,-5.38706 -2.1565,-0.98676 -5.36818,-1.30934 -9.56225,-0.0313 l -67.36677,21.25699 -48.0462,-40.70007 c -4.00137,-3.45708 -8.27489,-7.02294 -15.25531,-7.02294 l -46.53166,0.001 c -13.405058,0 -25.39193,9.08356 -25.39193,24.55349 v 69.41415 c 0,4.73377 3.727876,8.57068 8.315794,8.57068 4.586226,0 8.313088,-3.83691 8.313088,-8.57068 l 0.01978,-65.75215 h 7.087598 v 159.46576 c 0,6.20624 4.87155,11.2299 10.89355,11.2299 6.02201,0 10.90405,-5.02088 10.90405,-11.2299 v -92.30608 h 8.33945 v 92.30599 c 0,6.20623 4.89286,11.22989 10.91452,11.22989 6.02167,0 10.89356,-5.02087 10.89356,-11.22989 V 133.93481 c 0,0 -0.13734,-2.23486 1.21627,-2.82284 2.0284,-0.87651 3.29616,0.57983 3.29616,0.57983 l 47.06242,39.86383 c 0.0581,0.0531 0.12809,0.0844 0.18885,0.13203 0.25487,0.20824 0.5269,0.38654 0.80159,0.5662 0.17564,0.11296 0.34729,0.2341 0.52823,0.33754 0.26544,0.14426 0.54409,0.26268 0.82272,0.38247 0.19412,0.0871 0.3856,0.18374 0.58503,0.25588 0.32486,0.11296 0.65896,0.18647 0.99439,0.26541 0.15847,0.034 0.3143,0.0925 0.47276,0.1184 0.5005,0.0844 1.00892,0.13475 1.52526,0.13475 0.58502,0 1.18059,-0.0817 1.77353,-0.2028 0.15847,-0.0313 0.30902,-0.0653 0.46221,-0.1048 0.15583,-0.0422 0.31166,-0.0599 0.47011,-0.11025 l 32.53768,-10.26647 -29.75909,28.10852 c -3.79651,3.58638 -4.05141,9.6609 -0.57445,13.57377 1.83956,2.06472 4.35127,3.11544 6.87224,3.11544 2.25292,0 4.50982,-0.83431 6.29787,-2.52475 l 40.91633,-38.6513 32.78582,52.74179 0.18356,73.00996 c 0,3.01472 1.64017,12.979 12.54164,12.979 8.66028,0 12.94293,-7.06789 12.94293,-13.47308 0.003,-0.005 0.20733,-89.94363 0.0106,-89.91227 z"
       id="path5"
       style="stroke-width:0.343209" />
  </g>
  <rect
     style="fill:none;stroke:#000000;stroke-width:17.7979;stroke-dasharray:none;stroke-opacity:1"
     id="rect2"
     width="381.27621"
     height="381.27621"
     x="9"
     y="9" />
</svg>
