<svg xmlns="http://www.w3.org/2000/svg" width="400" height="400" viewBox="0 0 400 400">
  <rect x="17.2" y="16.6" width="372" height="372.7" fill="#fff"/>
  <rect
     x="17.2"
     y="16.6"
     width="372"
     height="372.7"
     fill="#fff"
     id="rect1" />
  <path
     d="m 169.53063,107.30265 c 0.43937,0.21381 -16.44884,-6.90578 -20.70322,-8.341498 -10.21475,-36.013037 -5.87204,-54.245859 -22.91898,-54.793202 -15.36075,-0.05756 -3.42065,39.970322 1.31812,66.85579 5.88506,12.7674 38.43806,21.72908 39.49236,23.75719 1.05034,2.02623 0,62.17812 0,62.17812 0,0 -3.83361,46.59569 -6.97123,69.55881 -10.02648,67.50419 -19.2492,86.90116 1.50668,88.2232 18.14035,1.15291 15.26082,-8.16424 26.91269,-88.2232 5.16095,-26.67326 9.30575,-47.67353 9.30575,-47.67353 0,0 3.52061,20.49082 8.29344,47.67353 11.00308,82.58978 8.02747,89.06948 29.09274,88.08847 15.0349,-0.69732 9.57754,-19.55318 0.14897,-88.08847 -2.81721,-24.90029 -7.94443,-69.55881 -7.94443,-69.55881 0,0 -1.86685,-59.99717 0,-62.17812 1.86873,-2.17918 29.18494,-11.21841 38.80592,-23.75888 8.07091,-29.207458 17.06385,-65.798992 3.11892,-65.740047 -17.30715,0 -10.73514,9.49934 -26.13016,53.677464 -3.26414,1.843663 -13.7373,8.147833 -18.13649,8.341503 -11.34243,-1.01806 -43.44456,-0.71378 -55.19153,0 z"
     id="path2"
     style="stroke-width:0.450831" />
  <path
     d="m 197.29293,96.465276 c -16.79014,0 -30.40144,-11.872709 -30.40144,-26.518333 0,-14.64394 13.61082,-26.515379 30.40144,-26.515379 16.79062,0 30.40143,11.871017 30.40143,26.515379 0,14.645624 -13.61081,26.518333 -30.40143,26.518333 z"
     id="path3"
     style="stroke-width:0.450831" />
  <rect
     x="9"
     y="9"
     width="381.3"
     height="381.3"
     fill="none"
     stroke="#000"
     stroke-width="17.8"
     id="rect3" />
</svg>
