<svg xmlns="http://www.w3.org/2000/svg" viewBox="0 0 121 121" width="121" height="121">
  <g>
    <g fill="none" fill-rule="evenodd" transform="translate(11 1)">
      <path fill="#000000" d="M49.439,0.032 C22.306,1.057 0,24.013 0,51.063 C0,74.158 15.753,94.184 37.68,100.284 L39.123,100.665 L42.988,113.983 L43.179,114.538 C46.089,121.821 56.361,121.821 59.271,114.538 L59.414,114.181 L62.886,100.713 L63.516,100.497 L63.256,100.568 C85.919,94.898 102,74.334 102,50.613 C102,22.181 78.22,-0.979 49.439,0.032 Z M49.65,6.028 C75.3,5.127 96,25.844 96,50.613 C96,71.779 81.6,89.793 61.8,94.747 L60.791,95.089 C58.913,95.745 57.86,96.306 57.402,97.923 L57.3,98.35 L53.7,112.311 C52.847,114.444 49.975,114.557 48.91,112.648 L48.75,112.311 L44.7,98.35 C44.321,96.454 43.942,95.835 41.682,95.149 L40.743,94.886 C40.57,94.841 40.389,94.795 40.2,94.747 C20.85,89.793 6,72.23 6,51.063 C6,27.195 25.8,6.929 49.65,6.028 Z"/>
      <path fill="#D5D5D5" d="M49.65,6.028 C75.3,5.127 96,25.844 96,50.613 C96,71.779 81.6,89.793 61.8,94.747 L60.791,95.089 C58.913,95.745 57.86,96.306 57.402,97.923 L57.3,98.35 L53.7,112.311 C52.847,114.444 49.975,114.557 48.91,112.648 L48.75,112.311 L44.7,98.35 C44.321,96.454 43.942,95.835 41.682,95.149 L40.743,94.886 C40.57,94.841 40.389,94.795 40.2,94.747 C20.85,89.793 6,72.23 6,51.063 C6,27.195 25.8,6.929 49.65,6.028 Z"/>
    </g>
    <g transform="translate(22.5,15.875) scale(0.77)">
      <path xmlns="http://www.w3.org/2000/svg" d="M20.72,49.85h0a13,13,0,1,0-13-13A12.95,12.95,0,0,0,20.73,49.85Zm29.11,7.77h0a13,13,0,1,0-13-13A12.9,12.9,0,0,0,49.84,57.62Zm29.42-7.77h0a13,13,0,1,0-13-13A12.95,12.95,0,0,0,79.26,49.85Zm-47.39,1c-3.33,2-12.62,6.41-21.72.06A29.29,29.29,0,0,0,3.27,68.37H30.21a31.12,31.12,0,0,1,5.64-11.05A20.88,20.88,0,0,0,31.86,50.87Zm58.52,0c-3.33,2-12.61,6.41-21.72.06a26.29,26.29,0,0,0-4.14,6.51,28.35,28.35,0,0,1,5.17,10.93h27C96.55,64.82,95.56,56.43,90.38,50.87ZM39.25,58.7a29.29,29.29,0,0,0-6.87,17.44H67.31c-.18-3.55-1.17-11.94-6.34-17.5C57.63,60.64,48.34,65.05,39.25,58.7Z"/>
    </g>
  </g>
</svg>