<svg xmlns="http://www.w3.org/2000/svg" viewBox="0 0 121 121" width="121" height="121">
  <g>
    <g fill="none" fill-rule="evenodd" transform="translate(11 1)">
      <path fill="#fff" d="M49.439,0.032 C22.306,1.057 0,24.013 0,51.063 C0,74.158 15.753,94.184 37.68,100.284 L39.123,100.665 L42.988,113.983 L43.179,114.538 C46.089,121.821 56.361,121.821 59.271,114.538 L59.414,114.181 L62.886,100.713 L63.516,100.497 L63.256,100.568 C85.919,94.898 102,74.334 102,50.613 C102,22.181 78.22,-0.979 49.439,0.032 Z M49.65,6.028 C75.3,5.127 96,25.844 96,50.613 C96,71.779 81.6,89.793 61.8,94.747 L60.791,95.089 C58.913,95.745 57.86,96.306 57.402,97.923 L57.3,98.35 L53.7,112.311 C52.847,114.444 49.975,114.557 48.91,112.648 L48.75,112.311 L44.7,98.35 C44.321,96.454 43.942,95.835 41.682,95.149 L40.743,94.886 C40.57,94.841 40.389,94.795 40.2,94.747 C20.85,89.793 6,72.23 6,51.063 C6,27.195 25.8,6.929 49.65,6.028 Z"/>
      <path fill="#EA4034" d="M49.65,6.028 C75.3,5.127 96,25.844 96,50.613 C96,71.779 81.6,89.793 61.8,94.747 L60.791,95.089 C58.913,95.745 57.86,96.306 57.402,97.923 L57.3,98.35 L53.7,112.311 C52.847,114.444 49.975,114.557 48.91,112.648 L48.75,112.311 L44.7,98.35 C44.321,96.454 43.942,95.835 41.682,95.149 L40.743,94.886 C40.57,94.841 40.389,94.795 40.2,94.747 C20.85,89.793 6,72.23 6,51.063 C6,27.195 25.8,6.929 49.65,6.028 Z"/>
    </g>
    <g transform="translate(23.8,17.8) scale(0.062)">
      <path fill="#fff" d="m588.73 103.24c229.38 3.117 421.12 81.211 580.08 238.31 32.93 32.555 40.453 71.672 19.383 98.648-21.492 27.516-64.195 30.586-102.73 6.469-11.008-7.086-21.277-15.262-30.656-24.398-253.24-241.45-641.65-249.3-905.53-17.859-25.547 22.406-53.461 37.711-88.453 35.32-24.469-1.664-44.156-12.164-55.172-34.945-11.297-23.438-4.547-44.789 10.195-64.125 6.645-8.305 14.051-15.973 22.125-22.898 158.46-142.17 345.16-210.98 550.76-214.52z"/>
      <path fill="#fff" d="m605.04 369.96c158.02 3.188 288.7 63.023 404.93 158.74 14.578 12 24.914 28.289 31.828 46.055 8.789 22.547 10.242 45.234-6.727 64.781-17.391 19.992-40.664 23.32-65.227 17.812-26.391-5.906-46.711-22.219-66.469-39.844-157.57-141.05-391.27-150.8-557.81-23.438-14.93 11.414-28.617 24.445-42.773 36.844-21.727 19.008-46.148 30.867-75.844 28.5-38.672-3.07-61.125-35.719-50.508-72.844 5.559-18.988 16.324-36.039 31.078-49.219 113.79-104.53 245.98-165.16 397.52-167.39z"/>
      <path fill="#fff" d="m634.52 647.86c40.508 0.734 80.469 9.52 117.55 25.852 37.078 16.328 70.539 39.871 98.43 69.258 19.898 20.789 33.633 44.227 25.781 75-9.937 39.211-57.094 57.586-89.93 27.164-102.19-94.688-244.34-95.391-352.69-5.414-30.234 25.102-49.641 27.164-73.805 7.805-24.164-19.359-30.023-52.125-13.945-82.031 8.672-16.125 21.352-28.828 35.414-40.312 62.062-50.531 142.1-77.484 253.2-77.32z"/>
      <path fill="#fff" d="m709.29 997.9c-0.023 26.395-10.594 51.688-29.355 70.25-18.762 18.566-44.164 28.867-70.559 28.609-56.953-0.281-100.97-44.883-100.03-101.44 0.961-58.758 45.516-103.12 102.61-101.95 55.031 1.031 97.805 46.922 97.336 104.53z"/>
    </g>
  </g>
</svg>