<svg xmlns="http://www.w3.org/2000/svg" viewBox="0 0 121 121" width="121" height="121">
  <g>
    <g fill="none" fill-rule="evenodd" transform="translate(11 1)">
      <path fill="#000000" d="M49.439,0.032 C22.306,1.057 0,24.013 0,51.063 C0,74.158 15.753,94.184 37.68,100.284 L39.123,100.665 L42.988,113.983 L43.179,114.538 C46.089,121.821 56.361,121.821 59.271,114.538 L59.414,114.181 L62.886,100.713 L63.516,100.497 L63.256,100.568 C85.919,94.898 102,74.334 102,50.613 C102,22.181 78.22,-0.979 49.439,0.032 Z M49.65,6.028 C75.3,5.127 96,25.844 96,50.613 C96,71.779 81.6,89.793 61.8,94.747 L60.791,95.089 C58.913,95.745 57.86,96.306 57.402,97.923 L57.3,98.35 L53.7,112.311 C52.847,114.444 49.975,114.557 48.91,112.648 L48.75,112.311 L44.7,98.35 C44.321,96.454 43.942,95.835 41.682,95.149 L40.743,94.886 C40.57,94.841 40.389,94.795 40.2,94.747 C20.85,89.793 6,72.23 6,51.063 C6,27.195 25.8,6.929 49.65,6.028 Z"/>
      <path fill="#D5D5D5" d="M49.65,6.028 C75.3,5.127 96,25.844 96,50.613 C96,71.779 81.6,89.793 61.8,94.747 L60.791,95.089 C58.913,95.745 57.86,96.306 57.402,97.923 L57.3,98.35 L53.7,112.311 C52.847,114.444 49.975,114.557 48.91,112.648 L48.75,112.311 L44.7,98.35 C44.321,96.454 43.942,95.835 41.682,95.149 L40.743,94.886 C40.57,94.841 40.389,94.795 40.2,94.747 C20.85,89.793 6,72.23 6,51.063 C6,27.195 25.8,6.929 49.65,6.028 Z"/>
    </g>
    <g transform="translate(28,18) scale(0.055)">
      <path xmlns="http://www.w3.org/2000/svg" d="m281.26 1096.9h562.5c0.516 15.094-5.25 29.672-15.891 40.359-10.688 10.641-25.266 16.406-40.359 15.891h-618.74c-15.094 0.516-29.672-5.25-40.359-15.891-10.641-10.688-16.406-25.266-15.891-40.359v-768.74c-0.516-15.094 5.25-29.672 15.891-40.359 10.688-10.641 25.266-16.406 40.359-15.891h18.75v731.26c0 24.844 9.891 48.703 27.469 66.281s41.438 27.469 66.281 27.469zm37.5-225v-693.74h-37.5c-15.094-0.516-29.672 5.25-40.359 15.891-10.641 10.688-16.406 25.266-15.891 40.359v768.74c-0.516 15.094 5.25 29.672 15.891 40.359 10.688 10.641 25.266 16.406 40.359 15.891h618.74c15.094 0.516 29.672-5.25 40.359-15.891 10.641-10.688 16.406-25.266 15.891-40.359v-37.5h-543.74c-51.797 0-93.75-41.953-93.75-93.75zm768.74-768.74v768.74c0.516 15.094-5.25 29.672-15.891 40.359-10.688 10.641-25.266 16.406-40.359 15.891h-618.74l-22.5-3.75c-19.922-10.125-32.812-30.188-33.75-52.5v-768.74c-0.516-15.094 5.25-29.672 15.891-40.359 10.688-10.641 25.266-16.406 40.359-15.891h618.74c15.094-0.516 29.672 5.25 40.359 15.891 10.641 10.688 16.406 25.266 15.891 40.359zm-637.5 121.87c-0.609 5.156 1.172 10.266 4.828 13.922s8.766 5.438 13.922 4.828h262.5c10.359 0 18.75-8.391 18.75-18.75s-8.391-18.75-18.75-18.75h-262.5c-5.156-0.609-10.266 1.172-13.922 4.828s-5.437 8.766-4.828 13.922zm525 562.5c0.609-5.156-1.172-10.266-4.828-13.922s-8.766-5.437-13.922-4.828h-487.5c-10.359 0-18.75 8.391-18.75 18.75s8.391 18.75 18.75 18.75h487.5c5.156 0.609 10.266-1.172 13.922-4.828s5.438-8.766 4.828-13.922zm0-93.75c0.609-5.156-1.172-10.266-4.828-13.922s-8.766-5.437-13.922-4.828h-487.5c-10.359 0-18.75 8.391-18.75 18.75s8.391 18.75 18.75 18.75h487.5c5.156 0.609 10.266-1.172 13.922-4.828s5.438-8.766 4.828-13.922zm0-93.75c0.609-5.156-1.172-10.266-4.828-13.922s-8.766-5.437-13.922-4.828h-487.5c-10.359 0-18.75 8.391-18.75 18.75s8.391 18.75 18.75 18.75h487.5c5.156 0.609 10.266-1.172 13.922-4.828s5.438-8.766 4.828-13.922zm0-93.75c0.609-5.156-1.172-10.266-4.828-13.922s-8.766-5.437-13.922-4.828h-487.5c-10.359 0-18.75 8.391-18.75 18.75s8.391 18.75 18.75 18.75h487.5c5.156 0.609 10.266-1.172 13.922-4.828s5.438-8.766 4.828-13.922zm0-93.75c0.609-5.156-1.172-10.266-4.828-13.922s-8.766-5.437-13.922-4.828h-487.5c-10.359 0-18.75 8.391-18.75 18.75s8.391 18.75 18.75 18.75h487.5c5.156 0.609 10.266-1.172 13.922-4.828s5.438-8.766 4.828-13.922zm0-93.75c0.609-5.156-1.172-10.266-4.828-13.922s-8.766-5.437-13.922-4.828h-487.5c-10.359 0-18.75 8.391-18.75 18.75s8.391 18.75 18.75 18.75h487.5c5.156 0.609 10.266-1.172 13.922-4.828s5.438-8.766 4.828-13.922z"/>
    </g>
  </g>
</svg>