<svg xmlns="http://www.w3.org/2000/svg" width="121" height="121" viewBox="0 0 121 121"><g fill="none" fill-rule="evenodd" transform="translate(13 7)"><path fill="#000" d="M82.9902865,0 C90.1531567,0 95.9887651,5.83560848 95.9887651,12.9984786 L95.9887651,82.9902865 C95.9887651,90.1531567 90.1531567,95.9887651 82.9902865,95.9887651 L60.005,95.988 L47.9943826,108 L35.982,95.988 L12.9984786,95.9887651 C5.9379352,95.9887651 0.167002541,90.3186974 0.00355967765,83.2964409 L0,82.9902865 L0,12.9984786 C0,5.83560848 5.83560848,0 12.9984786,0 Z"/><path fill="#FFF329" d="M82.9902865,5.99929782 C86.839836,5.99929782 89.9894673,9.14892918 89.9894673,12.9984786 L89.9894673,82.9902865 C89.9894673,86.839836 86.839836,89.9894673 82.9902865,89.9894673 L57.5152978,89.9892978 L47.9943826,99.5109936 L38.4732978,89.9892978 L12.9984786,89.9894673 C9.14892918,89.9894673 5.99929782,86.839836 5.99929782,82.9902865 L5.99929782,12.9984786 C5.99929782,9.14892918 9.14892918,5.99929782 12.9984786,5.99929782 L82.9902865,5.99929782 Z"/><g transform="translate(11.999 11.999)"><rect width="71.992" height="71.992"/><g fill="#000" fill-rule="nonzero" transform="translate(1.125 3.374)"><path d="M48.5945354,58.7405775 L47.2444684,57.7283085 L45.8944014,58.7405775 C45.1748231,59.2805143 42.6373451,60.8216964 40.4952583,60.8216964 C38.3685822,60.8216964 35.8727244,59.3167351 35.0961153,58.7405775 L33.7460483,57.7283085 L32.3959813,58.7405775 C31.676403,59.2805143 29.138925,60.8216964 26.9968382,60.8216964 C26.2613993,60.8216964 25.4844528,60.6357557 24.7471016,60.3764735 L24.7471016,64.9747103 C25.4724167,65.1364664 26.2266409,65.242429 26.9968382,65.242429 C29.6925852,65.242429 32.2422118,64.0318457 33.7460483,63.1464618 C35.2498848,64.0318457 37.7995114,65.242429 40.4952583,65.242429 C43.1910053,65.242429 45.7406319,64.0318457 47.2444684,63.1464618 C48.7483049,64.0318457 51.2979315,65.242429 53.9936784,65.242429 C55.1737778,65.242429 56.3195687,65.0040694 57.3682835,64.6689711 L57.3682835,59.9139277 C56.3458906,60.3957088 55.1184343,60.8215839 53.9936784,60.8215839 C51.8670023,60.8216964 49.3711445,59.3167351 48.5945354,58.7405775 Z"/><rect width="10.124" height="19.123" x="59.618" y="46.12"/><path d="M54.860277,34.0444305 L51.485672,28.1993896 L46.1196,31.2976145 L46.1196,6.31282631 L49.6078168,4.0710762 C50.6019754,3.42798897 50.9139014,2.11639248 50.3154714,1.09478705 C49.7205286,0.0789184519 48.4342416,-0.293187996 47.388789,0.24809865 L0.60720197,24.5288318 C0.134532293,24.7738281 -0.101577572,25.3166895 0.041505681,25.8296295 L2.01992412,32.9227118 C2.22363778,33.6529763 3.07662544,33.9767134 3.7135259,33.5655741 L20.1210805,23.0353441 L20.1433529,23.031857 C20.1973466,23.0723522 20.4959991,23.3741544 20.1283921,23.8095909 L15.7481548,28.2062513 L15.7481548,46.1196672 L4.49947141,46.1196672 L4.49947141,65.242429 L22.4973649,65.242429 L22.4973649,52.7291686 L54.860277,34.0444305 Z M42.744995,8.48157248 L42.744995,33.245999 L22.4973649,44.9358557 L22.4973649,21.493937 L42.744995,8.48157248 Z"/></g></g></g></svg>