<svg xmlns="http://www.w3.org/2000/svg" width="121" height="121" viewBox="0 0 121 121"><g fill="none" fill-rule="evenodd" transform="translate(13 7)"><path fill="#000" d="M82.9902865,0 C90.1531567,0 95.9887651,5.83560848 95.9887651,12.9984786 L95.9887651,82.9902865 C95.9887651,90.1531567 90.1531567,95.9887651 82.9902865,95.9887651 L60.005,95.988 L47.9943826,108 L35.982,95.988 L12.9984786,95.9887651 C5.9379352,95.9887651 0.167002541,90.3186974 0.00355967765,83.2964409 L0,82.9902865 L0,12.9984786 C0,5.83560848 5.83560848,0 12.9984786,0 Z"/><path fill="#FFF329" d="M82.9902865,5.99929782 C86.839836,5.99929782 89.9894673,9.14892918 89.9894673,12.9984786 L89.9894673,82.9902865 C89.9894673,86.839836 86.839836,89.9894673 82.9902865,89.9894673 L57.5152978,89.9892978 L47.9943826,99.5109936 L38.4732978,89.9892978 L12.9984786,89.9894673 C9.14892918,89.9894673 5.99929782,86.839836 5.99929782,82.9902865 L5.99929782,12.9984786 C5.99929782,9.14892918 9.14892918,5.99929782 12.9984786,5.99929782 L82.9902865,5.99929782 Z"/><g transform="translate(11.999 14.998)"><rect width="71.992" height="71.992"/><g fill="#000" fill-rule="nonzero" transform="translate(1.125 15.748)"><path d="M69.4122508 24.4176296 60.0156631 15.0209294C59.7959763 14.8012426 59.4400679 14.8012426 59.2203811 15.0209294L49.8237935 24.4176296C49.6126557 24.6286549 49.494207 24.9147089 49.494207 25.213024L49.494207 26.434406C49.494207 26.7449822 49.7460651 26.9968402 50.0566412 26.9968402L51.7439437 26.9968402 51.7439437 35.9957869 57.3682854 35.9957869 57.3682854 29.2465769 61.8677588 29.2465769 61.8677588 35.9957869 67.4921005 35.9957869 67.4921005 26.9968402 69.179403 26.9968402C69.4899792 26.9968402 69.7418372 26.7449822 69.7418372 26.434406L69.7418372 25.213024C69.7418372 24.9147089 69.6233885 24.6286549 69.4122508 24.4176296ZM15.2373541 10.1913072C13.3732223 10.1913072 11.1454205 8.72650362 10.4500269 8.1662067L9.03190538 7.01884099 7.61265899 8.16238215C6.91175352 8.72650362 4.68406426 10.1913072 2.81880758 10.1913072 1.89124114 10.1913072.874135188 9.82819967 0 9.3947879L0 14.1634423C.886621227 14.4380226 1.83972217 14.6232884 2.81880758 14.6232884 5.28170681 14.6232884 7.59949803 13.4764852 9.02864326 12.5855894 10.4577885 13.4764852 12.7755797 14.6232884 15.2373541 14.6232884 15.3859492 14.6232884 15.5320696 14.6093401 15.6786399 14.5986538L18.3584138 9.2307821C17.4200486 9.7322484 16.2784197 10.1913072 15.2373541 10.1913072Z"/><path d="M48.5387439,36.8523742 L35.7313304,2.08966792 C35.2106288,0.825203415 33.9783356,0 32.6110581,0 L27.7339664,0 C26.4486919,0 25.2752292,0.72981458 24.7070582,1.88246717 L15.8516447,19.8457147 C14.9032682,21.769352 13.097292,23.1277431 10.9859142,23.5052489 L0,25.4696065 L0,43.8698653 L69.7418372,43.8698653 L69.7418372,38.2455236 L50.6190754,38.2455236 C49.7074821,38.2455236 48.8858782,37.6953505 48.5387439,36.8523742 Z"/></g></g></g></svg>