<svg xmlns="http://www.w3.org/2000/svg" width="121" height="121" viewBox="0 0 121 121"><g fill="none" fill-rule="evenodd" transform="translate(13 7)"><path fill="#000" d="M82.9902865,0 C90.1531567,0 95.9887651,5.83560848 95.9887651,12.9984786 L95.9887651,82.9902865 C95.9887651,90.1531567 90.1531567,95.9887651 82.9902865,95.9887651 L60.005,95.988 L47.9943826,108 L35.982,95.988 L12.9984786,95.9887651 C5.9379352,95.9887651 0.167002541,90.3186974 0.00355967765,83.2964409 L0,82.9902865 L0,12.9984786 C0,5.83560848 5.83560848,0 12.9984786,0 Z"/><path fill="#FFF329" d="M82.9902865,5.99929782 C86.839836,5.99929782 89.9894673,9.14892918 89.9894673,12.9984786 L89.9894673,82.9902865 C89.9894673,86.839836 86.839836,89.9894673 82.9902865,89.9894673 L57.5152978,89.9892978 L47.9943826,99.5109936 L38.4732978,89.9892978 L12.9984786,89.9894673 C9.14892918,89.9894673 5.99929782,86.839836 5.99929782,82.9902865 L5.99929782,12.9984786 C5.99929782,9.14892918 9.14892918,5.99929782 12.9984786,5.99929782 L82.9902865,5.99929782 Z"/><g transform="translate(11.999 11.999)"><rect width="71.992" height="71.992"/><path fill="#000" fill-rule="nonzero" d="M11.154902 41.4624221C10.8481504 40.6146088 10.4578211 40.4952603 10.0453319 40.4952603 9.6330676 40.4952603 9.23790136 40.6146088 8.93092479 41.4624221 6.37184931 48.5327821 1.22298945 51.7439437.149190129 57.1086658-.976240646 62.7315452 4.45563609 67.4921005 10.0453319 67.4921005 15.6353651 67.4921005 21.0766907 62.7286205 19.9368616 57.1086658 18.8573255 51.7872511 13.7140899 48.5327821 11.154902 41.4624221ZM9.31619219 63.4278387C7.42427613 63.4278387 5.44034583 62.4997098 4.26249619 61.0616781 3.46822666 60.0931665 3.17272374 59.0687489 3.38318661 58.0183468 3.76249222 56.1215938 5.09737348 54.3152803 6.78748816 52.0288729 7.57759568 50.9594605 8.44813129 49.780486 9.31023039 48.4566285 9.33880205 48.5003858 9.36681127 48.5375065 9.39504546 48.5809264 8.30617291 52.4121155 7.11707458 55.7816586 7.11707458 58.187977 7.11707458 60.3909191 8.67006782 62.7467309 9.81529628 63.3980297 9.64859079 63.4117531 9.4818853 63.4278387 9.31619219 63.4278387ZM45.7414539 16.8730251 44.1998218 24.4942331C44.0841853 24.8546409 43.8501002 24.8019971 43.7862077 24.7781499L43.7862077 16.8730251C43.7862077 13.7409417 40.3085647 12.5156226 37.0369977 12.3863753L37.0369977 7.03042713 43.7982438 7.59387369C45.6083819 7.74460604 47.1608127 6.31624822 47.1608127 4.49992331L47.1608127 4.49902342C47.1608127 2.68269851 45.6083819 1.2542282 43.7982438 1.40507305L36.735083 1.99371665C36.2068448.820253995 35.0328197 0 33.6623926 0 32.2919655 0 31.1179404.820253995 30.5895898 1.99360416L23.526429 1.40496056C21.7164033 1.2542282 20.1639725 2.68258602 20.1639725 4.49902342L20.1639725 4.5000358C20.1639725 6.31636071 21.7164033 7.74471853 23.5265415 7.59387369L30.2877876 7.03042713 30.2877876 12.3863753C27.0162205 12.5156226 23.5385776 13.7409417 23.5385776 16.8730251L23.5385776 17.9978935 19.0391042 17.9978935C12.1003538 17.9978935 5.54068409 24.5575632 5.54068409 31.4963136L5.54068409 37.1206553 14.5396308 37.1206553 14.5396308 31.4963136C14.5396308 29.5201449 17.0629355 26.9968402 19.0391042 26.9968402L23.5385776 26.9968402C23.5385776 26.9968402 24.1010117 33.7460502 33.6623926 33.7460502 40.7512004 33.7460502 42.8895751 30.0403965 43.5234385 28.1217085L52.7851544 28.1217085 52.7851544 16.8730251 45.7414539 16.8730251Z" transform="translate(11.332 2.25)"/></g></g></svg>