<svg xmlns="http://www.w3.org/2000/svg" width="121" height="121" viewBox="0 0 121 121"><g fill="none" fill-rule="evenodd" transform="translate(13 7)"><path fill="#000" d="M82.9902865,0 C90.1531567,0 95.9887651,5.83560848 95.9887651,12.9984786 L95.9887651,82.9902865 C95.9887651,90.1531567 90.1531567,95.9887651 82.9902865,95.9887651 L60.005,95.988 L47.9943826,108 L35.982,95.988 L12.9984786,95.9887651 C5.9379352,95.9887651 0.167002541,90.3186974 0.00355967765,83.2964409 L0,82.9902865 L0,12.9984786 C0,5.83560848 5.83560848,0 12.9984786,0 Z"/><path fill="#FFF329" d="M82.9902865,5.99929782 C86.839836,5.99929782 89.9894673,9.14892918 89.9894673,12.9984786 L89.9894673,82.9902865 C89.9894673,86.839836 86.839836,89.9894673 82.9902865,89.9894673 L57.5152978,89.9892978 L47.9943826,99.5109936 L38.4732978,89.9892978 L12.9984786,89.9894673 C9.14892918,89.9894673 5.99929782,86.839836 5.99929782,82.9902865 L5.99929782,12.9984786 C5.99929782,9.14892918 9.14892918,5.99929782 12.9984786,5.99929782 L82.9902865,5.99929782 Z"/><g transform="translate(11.999 11.999)"><rect width="71.992" height="71.992"/><path fill="#000" fill-rule="nonzero" d="M58.4931538,38.5829841 C56.5808776,39.9328261 54.3311409,41.7326155 51.7439437,41.6201286 C49.0442597,41.6201286 46.2320888,39.4828788 44.9947337,38.5829841 C43.8698653,39.4828788 41.0576945,41.7326155 38.2455236,41.7326155 C35.4333528,41.7326155 32.7336687,39.5953656 31.4963136,38.5829841 C30.3714452,39.4828788 27.5592744,41.7326155 24.7471035,41.7326155 C21.9349327,41.7326155 19.2352486,39.5953656 17.9978935,38.5829841 C16.8730251,39.4828788 14.0608543,41.7326155 11.2486834,41.7326155 C8.43651256,41.7326155 5.73682854,39.5953656 4.49947337,38.5829841 C3.71206553,39.2579051 1.91227618,40.6077471 0,41.2826681 L0,45.7821415 C1.79978935,45.3321942 3.48709186,44.5447863 4.49947337,43.9823522 C5.96180221,44.8822468 8.5489994,46.119602 11.2486834,46.119602 C13.9483674,46.119602 16.5355646,44.8822468 17.9978935,43.9823522 C19.4602223,44.8822468 22.0474195,46.119602 24.7471035,46.119602 C27.4467875,46.119602 30.0339847,44.8822468 31.4963136,43.9823522 C32.9586424,44.8822468 35.5458396,46.119602 38.2455236,46.119602 C40.9452076,46.119602 43.5324048,44.8822468 44.9947337,43.9823522 C47.0194967,45.1072205 49.3817202,46.119602 51.7439437,46.119602 C54.4436277,46.119602 57.0308249,44.8822468 58.4931538,43.9823522 C59.9554826,44.8822468 62.5426798,46.119602 65.2423638,46.119602 C66.0297717,46.119602 66.7046927,46.0071152 67.4921005,45.8946283 L67.4921005,41.2826681 C66.8171795,41.5076418 66.0297717,41.7326155 65.2423638,41.7326155 C62.5426798,41.7326155 59.7305089,39.5953656 58.4931538,38.5829841 Z M3.37460502,20.360117 C3.37460502,25.6469982 4.6119602,31.8337741 5.51185487,36.3332474 C6.97418372,37.4581158 9.33640724,39.2579051 11.2486834,39.2579051 C13.3859333,39.2579051 16.0856173,37.0081684 17.9978935,35.5458396 C20.0226565,37.1206553 22.6098537,39.2579051 24.7471035,39.2579051 C26.8843534,39.2579051 29.5840374,37.0081684 31.4963136,35.5458396 C33.5210766,37.1206553 36.1082738,39.2579051 38.2455236,39.2579051 C40.1577998,39.2579051 42.5200233,37.4581158 43.8698653,36.3332474 C44.76976,31.8337741 46.0071152,25.6469982 46.0071152,20.2476301 C46.0071152,20.2476301 42.9699706,18.8977881 39.2579051,17.5479461 L39.2579051,7.87407839 C39.2579051,7.19915739 38.8079578,6.74921005 38.1330368,6.74921005 L34.7584318,6.74921005 L34.7584318,1.12486834 C34.7584318,0.449947337 34.3084844,0 33.6335634,0 L15.7481568,0 C15.0732358,0 14.6232884,0.449947337 14.6232884,1.12486834 L14.6232884,6.74921005 L11.2486834,6.74921005 C10.5737624,6.74921005 10.1238151,7.19915739 10.1238151,7.87407839 L10.1238151,15.5231831 C13.2734464,14.2858279 15.8606436,13.6109069 19.2352486,13.1609596 C25.6469982,12.2610649 30.5964189,13.1609596 33.4085897,14.9607489 C33.7460502,15.1857226 33.8585371,15.5231831 33.8585371,15.7481568 C30.9338794,14.9607489 27.6717612,14.6232884 24.6346167,14.6232884 C15.0732358,14.6232884 3.37460502,20.360117 3.37460502,20.360117 Z M20.2476301,29.2465769 L11.2486834,29.2465769 L11.2486834,24.7471035 C11.2486834,24.0721825 11.6986308,23.6222352 12.3735518,23.6222352 C13.0484728,23.6222352 13.4984201,24.0721825 13.4984201,24.7471035 L13.4984201,26.9968402 L17.9978935,26.9968402 L17.9978935,24.7471035 C17.9978935,24.0721825 18.4478408,23.6222352 19.1227618,23.6222352 C19.7976828,23.6222352 20.2476301,24.0721825 20.2476301,24.7471035 L20.2476301,29.2465769 Z M29.2465769,24.7471035 C29.2465769,24.0721825 29.6965242,23.6222352 30.3714452,23.6222352 C31.0463662,23.6222352 31.4963136,24.0721825 31.4963136,24.7471035 L31.4963136,26.9968402 L35.9957869,26.9968402 L35.9957869,24.7471035 C35.9957869,24.0721825 36.4457343,23.6222352 37.1206553,23.6222352 C37.7955763,23.6222352 38.2455236,24.0721825 38.2455236,24.7471035 L38.2455236,29.2465769 L29.2465769,29.2465769 L29.2465769,24.7471035 Z M62.2052193,23.6222352 C61.4178115,22.9473142 60.7428904,21.709959 60.4054299,20.2476301 L60.6304036,20.2476301 C61.1928378,20.2476301 61.755272,19.7976828 61.755272,19.1227618 L61.755272,19.1227618 C61.755272,18.5603276 61.3053246,17.9978935 60.6304036,17.9978935 L60.4054299,17.9978935 C60.7428904,16.8730251 61.755272,16.310591 61.755272,14.7357753 C61.755272,12.8234991 59.3930484,12.7110123 58.4931538,12.7110123 C57.5932591,12.7110123 55.2310356,12.8234991 55.2310356,14.7357753 C55.2310356,16.310591 56.2434171,16.985512 56.5808776,17.9978935 L56.3559039,17.9978935 C55.7934697,17.9978935 55.2310356,18.4478408 55.2310356,19.1227618 L55.2310356,19.1227618 C55.2310356,19.685196 55.6809829,20.2476301 56.3559039,20.2476301 L56.5808776,20.2476301 C56.3559039,21.709959 55.6809829,22.9473142 54.7810882,23.6222352 L52.8688121,23.6222352 L52.8688121,39.0329315 C54.6686014,38.4704973 56.6933644,36.8956816 58.4931538,35.5458396 C60.5179168,37.1206553 63.105114,39.2579051 65.2423638,39.2579051 C65.9172848,39.2579051 66.8171795,38.9204446 67.4921005,38.695471 L67.4921005,23.6222352 L62.2052193,23.6222352 Z" transform="translate(2.25 19.123)"/></g></g></svg>