<svg xmlns="http://www.w3.org/2000/svg" width="121" height="121" viewBox="0 0 121 121"><g fill="none" fill-rule="evenodd" transform="translate(13 7)"><path fill="#000" d="M82.9902865,0 C90.1531567,0 95.9887651,5.83560848 95.9887651,12.9984786 L95.9887651,82.9902865 C95.9887651,90.1531567 90.1531567,95.9887651 82.9902865,95.9887651 L60.005,95.988 L47.9943826,108 L35.982,95.988 L12.9984786,95.9887651 C5.9379352,95.9887651 0.167002541,90.3186974 0.00355967765,83.2964409 L0,82.9902865 L0,12.9984786 C0,5.83560848 5.83560848,0 12.9984786,0 Z"/><path fill="#FFF329" d="M82.9902865,5.99929782 C86.839836,5.99929782 89.9894673,9.14892918 89.9894673,12.9984786 L89.9894673,82.9902865 C89.9894673,86.839836 86.839836,89.9894673 82.9902865,89.9894673 L57.5152978,89.9892978 L47.9943826,99.5109936 L38.4732978,89.9892978 L12.9984786,89.9894673 C9.14892918,89.9894673 5.99929782,86.839836 5.99929782,82.9902865 L5.99929782,12.9984786 C5.99929782,9.14892918 9.14892918,5.99929782 12.9984786,5.99929782 L82.9902865,5.99929782 Z"/><g transform="translate(11.999 11.999)"><rect width="71.992" height="71.992"/><g fill="#000" fill-rule="nonzero" transform="translate(3.375 2.25)"><path d="M16.8730251,47.0302954 C16.8730251,51.536068 17.8215141,56.9137261 18.4868737,60.1363614 C19.9371665,59.6928258 21.2390891,58.9892207 21.6295309,58.7381501 L24.1846693,57.0958423 L26.7398078,58.7381501 C27.472547,59.1984462 30.0286978,60.5176918 32.0587477,60.5176918 C34.175525,60.5176918 36.7933186,59.1138561 37.3776877,58.7381501 L39.9328261,57.0958423 L42.4879646,58.7381501 C42.9697457,59.0407397 44.2418593,59.7091364 45.632309,60.1353491 C46.2976687,56.9184506 47.2444703,51.5523786 47.2444703,47.0302954 C47.2444703,47.0302954 45.4111599,46.0704453 42.744997,45.0597511 L42.744997,37.6830894 C42.744997,37.3724008 42.493139,37.1206553 42.1825628,37.1206553 L39.370392,37.1206553 L39.370392,33.1836161 C39.370392,32.8729274 39.1185339,32.6211819 38.8079578,32.6211819 L25.3095377,32.6211819 C24.998849,32.6211819 24.7471035,32.8729274 24.7471035,33.1836161 L24.7471035,37.1206553 L21.9349327,37.1206553 C21.624244,37.1206553 21.3724985,37.3724008 21.3724985,37.6830894 L21.3724985,42.0623144 C23.2656519,41.5382382 25.6009911,41.0668059 28.3078743,40.873441 C32.9869891,40.5392426 36.2893776,41.9001084 38.3938937,43.1886451 C38.6683616,43.3567004 38.7481148,43.5555771 38.7266298,43.7459048 C36.5858929,43.1670476 34.2684391,42.744997 32.0587477,42.744997 C25.0157221,42.744997 16.8730251,47.0302954 16.8730251,47.0302954 Z M29.2465769,53.9936804 L21.3724985,53.9936804 L21.3724985,50.6190754 C21.3724985,49.9973606 21.8762145,49.494207 22.4973668,49.494207 C23.1185191,49.494207 23.6222352,49.9973606 23.6222352,50.6190754 L23.6222352,51.7439437 L26.9968402,51.7439437 L26.9968402,50.6190754 C26.9968402,49.9972482 27.5005562,49.494207 28.1217085,49.494207 C28.7428608,49.494207 29.2465769,49.9972482 29.2465769,50.6190754 L29.2465769,53.9936804 Z M34.8709186,50.6190754 C34.8709186,49.9973606 35.3746346,49.494207 35.9957869,49.494207 C36.6169392,49.494207 37.1206553,49.9973606 37.1206553,50.6190754 L37.1206553,51.7439437 L40.4952603,51.7439437 L40.4952603,50.6190754 C40.4952603,49.9972482 40.9989763,49.494207 41.6201286,49.494207 C42.2412809,49.494207 42.744997,49.9972482 42.744997,50.6190754 L42.744997,53.9936804 L34.8709186,53.9936804 L34.8709186,50.6190754 Z"/><rect width="34.871" height="16.873" x="14.623" y="11.249"/><path d="M59.6180221,37.1206553 L59.6180221,8.99894673 L62.9926271,8.99894673 L62.9926271,0 L1.12486834,0 L1.12486834,8.99894673 L4.49947337,8.99894673 L4.49947337,37.1206553 L0,37.1206553 L0,60.4798962 C0.189765289,60.5000314 0.379080631,60.5176918 0.562434171,60.5176918 C2.67921142,60.5176918 5.29700502,59.1138561 5.88137412,58.7381501 L8.43651256,57.0958423 L10.991651,58.7381501 C11.2534079,58.9024934 11.7537493,59.1772987 12.3735518,59.4616654 L12.3735518,8.99894673 L51.7439437,8.99894673 L51.7439437,59.4663899 C52.4014293,59.1644752 52.9067201,58.8789836 53.1258445,58.7380376 L55.6809829,57.0957298 L58.2361213,58.7380376 C58.9688606,59.1983337 61.5250114,60.5176918 63.5550613,60.5176918 C63.7387523,60.5176918 63.9281801,60.4989065 64.1174955,60.4794463 L64.1174955,37.1206553 L59.6180221,37.1206553 Z"/><path d="M56.8970781,60.9536908 L55.6809829,60.1715698 L54.4648877,60.9536908 C54.4309167,60.9756257 50.9936565,63.1276113 47.8069045,63.1276113 C44.6003548,63.1276113 41.1796302,60.9734885 41.1489213,60.9536908 L39.9328261,60.1715698 L38.716731,60.9536908 C38.6827599,60.9756257 35.2454997,63.1276113 32.0587477,63.1276113 C28.852198,63.1276113 25.4314734,60.9734885 25.4007645,60.9536908 L24.1846693,60.1715698 L22.9685742,60.9536908 C22.9346032,60.9756257 19.497343,63.1276113 16.310591,63.1276113 C13.1040413,63.1276113 9.68331663,60.9734885 9.65260773,60.9536908 L8.43651256,60.1715698 L7.2204174,60.9536908 C7.18644637,60.9756257 3.74918618,63.1276113 0.562434171,63.1276113 C0.375481052,63.1276113 0.187740526,63.1188374 0,63.105114 L0,67.4714029 C0.187178092,67.4805144 0.374243697,67.4921005 0.562434171,67.4921005 C3.72387664,67.4921005 6.79645452,66.1519324 8.43651256,65.296245 C10.0765706,66.1519324 13.1491485,67.4921005 16.310591,67.4921005 C19.4720334,67.4921005 22.5446113,66.1519324 24.1846693,65.296245 C25.8247274,66.1519324 28.8973053,67.4921005 32.0587477,67.4921005 C35.2201902,67.4921005 38.2927681,66.1519324 39.9328261,65.296245 C41.5728842,66.1519324 44.645462,67.4921005 47.8069045,67.4921005 C50.968347,67.4921005 54.0409249,66.1519324 55.6809829,65.296245 C57.321041,66.1519324 60.3936188,67.4921005 63.5550613,67.4921005 C63.7432518,67.4921005 63.9303174,67.4805144 64.1174955,67.4714029 L64.1174955,63.104889 C63.9296425,63.1188374 63.7419019,63.1274988 63.5550613,63.1274988 C60.3485116,63.1276113 56.927787,60.9734885 56.8970781,60.9536908 Z"/></g></g></g></svg>