<svg xmlns="http://www.w3.org/2000/svg" width="121" height="121" viewBox="0 0 121 121"><g fill="none" fill-rule="evenodd" transform="translate(13 7)"><path fill="#000" d="M82.9902865,0 C90.1531567,0 95.9887651,5.83560848 95.9887651,12.9984786 L95.9887651,82.9902865 C95.9887651,90.1531567 90.1531567,95.9887651 82.9902865,95.9887651 L60.005,95.988 L47.9943826,108 L35.982,95.988 L12.9984786,95.9887651 C5.9379352,95.9887651 0.167002541,90.3186974 0.00355967765,83.2964409 L0,82.9902865 L0,12.9984786 C0,5.83560848 5.83560848,0 12.9984786,0 Z"/><path fill="#FFF329" d="M82.9902865,5.99929782 C86.839836,5.99929782 89.9894673,9.14892918 89.9894673,12.9984786 L89.9894673,82.9902865 C89.9894673,86.839836 86.839836,89.9894673 82.9902865,89.9894673 L57.5152978,89.9892978 L47.9943826,99.5109936 L38.4732978,89.9892978 L12.9984786,89.9894673 C9.14892918,89.9894673 5.99929782,86.839836 5.99929782,82.9902865 L5.99929782,12.9984786 C5.99929782,9.14892918 9.14892918,5.99929782 12.9984786,5.99929782 L82.9902865,5.99929782 Z"/><g transform="translate(11.999 11.999)"><rect width="71.992" height="71.992"/><g fill="#000" fill-rule="nonzero" transform="translate(0 11.445)"><path d="M42.9701956,45.0458027 L41.6201286,44.0335337 L40.2700617,45.0458027 C39.5504834,45.5857395 37.0135678,47.1269216 34.8709186,47.1269216 C32.7436801,47.1269216 30.2483846,45.6219603 29.4717755,45.0458027 L28.1217085,44.0335337 L26.7716416,45.0458027 C26.0520633,45.5857395 23.5151477,47.1269216 21.3724985,47.1269216 C20.6369471,47.1269216 19.8600005,46.9409809 19.1227618,46.6816987 L19.1227618,51.2799355 C19.8480769,51.4416916 20.6021886,51.5476542 21.3724985,51.5476542 C24.0688079,51.5476542 26.6178721,50.3370709 28.1217085,49.451687 C29.625545,50.3370709 32.1746092,51.5476542 34.8709186,51.5476542 C37.567228,51.5476542 40.1162922,50.3370709 41.6201286,49.451687 C43.1239651,50.3370709 45.6730293,51.5476542 48.3693387,51.5476542 C49.549663,51.5476542 50.6954539,51.3092946 51.7439437,50.9741963 L51.7439437,46.2192653 C50.7216634,46.7010465 49.494207,47.1269216 48.3693387,47.1269216 C46.2421002,47.1269216 43.7468047,45.6219603 42.9701956,45.0458027 Z"/><path d="M70.8667055,25.6756823 L62.9710297,25.6756823 C62.51917,10.4068319 50.3443825,0 35.4333528,0 C20.522323,0 8.34742299,10.4068319 7.89556338,25.6756823 L0,25.6756823 L0,32.4248924 L5.62434171,32.4248924 L5.62434171,51.5476542 L16.8730251,51.5476542 L16.8730251,34.1182692 L10.4220177,32.8343445 C10.0652094,32.7198329 10.1174033,32.48811 10.1409131,32.4248924 L60.7257924,32.4248924 C60.7493022,32.48811 60.8014961,32.7199453 60.4446878,32.8344569 L53.9936804,34.1182692 L53.9936804,51.5476542 L65.2423638,51.5476542 L65.2423638,32.4248924 L70.8667055,32.4248924 L70.8667055,25.6756823 Z M13.7538777,25.6756823 C13.930707,21.0558481 15.4775135,17.0399556 17.997781,13.8505039 L17.997781,25.6756823 L13.7538777,25.6756823 Z M21.3724985,25.6756823 L21.3724985,10.4901847 C22.7366263,9.42875893 24.2491243,8.54360003 25.8719719,7.8321208 L25.8719719,25.6756823 L21.3724985,25.6756823 Z M29.2465769,25.6756823 L29.2465769,6.65112153 C30.6894455,6.27519053 32.1956442,6.03818077 33.7460502,5.93503034 L33.7460502,25.6756823 L29.2465769,25.6756823 Z M37.1206553,25.6756823 L37.1206553,5.93503034 C38.6710613,6.03818077 40.17726,6.27519053 41.6201286,6.65112153 L41.6201286,25.6756823 L37.1206553,25.6756823 Z M44.9947337,25.6756823 L44.9947337,7.8321208 C46.6175812,8.54348754 48.1300792,9.42875893 49.494207,10.4901847 L49.494207,25.6756823 L44.9947337,25.6756823 Z M52.8688121,13.8505039 C55.3890796,17.0399556 56.935886,21.0558481 57.1127153,25.6756823 L52.8688121,25.6756823 L52.8688121,13.8505039 Z"/></g></g></g></svg>