<svg xmlns="http://www.w3.org/2000/svg" width="121" height="121" viewBox="0 0 121 121"><g fill="none" fill-rule="evenodd" transform="translate(13 7)"><path fill="#000" d="M82.9902865,0 C90.1531567,0 95.9887651,5.83560848 95.9887651,12.9984786 L95.9887651,82.9902865 C95.9887651,90.1531567 90.1531567,95.9887651 82.9902865,95.9887651 L60.005,95.988 L47.9943826,108 L35.982,95.988 L12.9984786,95.9887651 C5.9379352,95.9887651 0.167002541,90.3186974 0.00355967765,83.2964409 L0,82.9902865 L0,12.9984786 C0,5.83560848 5.83560848,0 12.9984786,0 Z"/><path fill="#FFF329" d="M82.9902865,5.99929782 C86.839836,5.99929782 89.9894673,9.14892918 89.9894673,12.9984786 L89.9894673,82.9902865 C89.9894673,86.839836 86.839836,89.9894673 82.9902865,89.9894673 L57.5152978,89.9892978 L47.9943826,99.5109936 L38.4732978,89.9892978 L12.9984786,89.9894673 C9.14892918,89.9894673 5.99929782,86.839836 5.99929782,82.9902865 L5.99929782,12.9984786 C5.99929782,9.14892918 9.14892918,5.99929782 12.9984786,5.99929782 L82.9902865,5.99929782 Z"/><g transform="translate(11.999 8.999)"><rect width="71.992" height="71.992"/><g fill="#000" fill-rule="nonzero" transform="translate(2.25 15.748)"><circle cx="22.497" cy="14.623" r="3.375"/><path d="M15.8303847,15.7480505 C15.9824669,15.7480505 16.6092435,15.7480505 17.5706685,15.7480505 C17.4881031,15.385168 17.4354593,15.0111493 17.4354593,14.6231822 C17.4354593,11.826647 19.7008316,9.56127464 22.4973668,9.56127464 C25.293902,9.56127464 27.5592744,11.826647 27.5592744,14.6231822 C27.5592744,15.0111493 27.5066305,15.385168 27.4240652,15.7480505 C31.4509814,15.7480505 35.9709273,15.7480505 40.0680353,15.7480505 C39.98547,15.385168 39.9328261,15.0111493 39.9328261,14.6231822 C39.9328261,11.826647 42.1981985,9.56127464 44.9947337,9.56127464 C47.7912688,9.56127464 50.0566412,11.826647 50.0566412,14.6231822 C50.0566412,15.0111493 50.0039974,15.385168 49.921432,15.7480505 C51.5928739,15.7480505 52.6098674,15.7480505 52.6098674,15.7480505 C56.2768257,14.9983258 56.8932535,12.4683844 55.6754711,10.2989633 C53.4296714,6.29938142 43.4140687,5.24875439 43.4140687,5.24875439 C43.4140687,5.24875439 38.8727502,0.973354795 36.5187382,0.473463304 C34.1656261,-0.0272155949 28.143531,-0.276261446 25.0243836,0.473463304 C21.9060235,1.22330054 17.0343312,5.24875439 17.0343312,5.24875439 C17.0343312,5.24875439 13.8129333,5.70432607 13.0377865,7.44910935 C12.2170826,9.2992928 12.2170826,12.2983043 12.7102249,13.5479205 C13.2203526,14.8396068 14.5165384,15.7480505 15.8303847,15.7480505 Z"/><circle cx="44.995" cy="14.623" r="3.375"/><polygon points="8.73 55.118 28.957 55.118 32.257 31.496 25.961 31.496"/><polygon points="35.238 31.496 38.539 55.118 58.766 55.118 41.531 31.496"/><path d="M0,20.2475239 L0,26.9967339 L5.62434171,26.9967339 L5.62434171,41.6200224 L12.179062,41.6200224 L17.9978935,35.3367328 L17.9978935,28.6901107 L11.546886,27.406186 C11.1900778,27.2916744 11.2422717,27.059839 11.2657814,26.9966214 L56.2263191,26.9966214 C56.2498288,27.059839 56.3020227,27.2916744 55.9452145,27.406186 L49.494207,28.6901107 L49.494207,35.3367328 L55.312926,41.6200224 L61.8677588,41.6200224 L61.8677588,26.9967339 L67.4921005,26.9967339 L67.4921005,20.2475239 L0,20.2475239 Z"/></g></g></g></svg>