<svg xmlns="http://www.w3.org/2000/svg" width="121" height="121" viewBox="0 0 121 121"><g fill="none" fill-rule="evenodd" transform="translate(12 12)"><path fill="#FFF" fill-rule="nonzero" d="M48,0 C21.490332,0 0,21.490332 0,48 C0,74.509668 21.490332,96 48,96 C74.509668,96 96,74.509668 96,48 C96,21.490332 74.509668,0 48,0 Z M48,6 C71.1959595,6 90,24.8040405 90,48 C90,71.1959595 71.1959595,90 48,90 C24.8040405,90 6,71.1959595 6,48 C6,24.8040405 24.8040405,6 48,6 Z"/><circle cx="48" cy="48" r="42" fill="#192BC2"/><path fill="#FFF" d="M79.9790837,42.547922 C79.9790837,42.547922 82.560682,44.5380811 79.5134103,46.8086639 C79.5134103,46.8086639 76.1653203,49.4939341 74.87877,50.1788479 C74.87877,50.1788479 67.7950954,54.1030813 62.5809126,50.1788479 L60.9340602,48.8073207 C60.9340602,48.8073207 57.3939225,46.6387101 53.911569,48.8073207 C53.911569,48.8073207 50.44961,51.635352 47.0777264,51.4976894 C43.7058429,51.3566278 40.6534726,49.7386675 39.5844631,48.9721759 C39.5844631,48.9721759 36.1276027,46.5248411 33.0854296,48.9721759 C33.0854296,48.9721759 29.9548805,52.0432412 25.5853682,51.635352 C25.5853682,51.635352 20.3473919,51.1407864 17.1862511,47.9286595 C17.1862511,47.9286595 13.6529115,45.3793524 15.5699904,43.4843675 C15.5699904,43.4843675 16.6729906,41.7576368 18.5390834,43.2073428 L22.4888098,45.7090628 C22.4888098,45.7090628 25.9422712,47.9575517 29.239375,45.7090628 L33.3029705,43.2073428 C33.3029705,43.2073428 36.3774348,41.4228278 40.2710765,43.5132596 C42.7169885,44.8205206 43.876362,45.4168351 44.4005073,45.6796095 L44.5525888,45.7553654 C44.7408598,45.8484424 44.7986459,45.873918 44.7986459,45.873918 C44.7986459,45.873918 47.0777264,47.9830447 50.0944065,45.873918 L54.158002,43.4554753 C54.158002,43.4554753 58.2147993,40.7124209 61.8127214,43.4554753 L64.9704631,45.873918 C64.9704631,45.873918 68.5632866,47.8776734 71.6343518,45.873918 L75.9205868,42.8215476 C75.9205868,42.8215476 78.1690757,40.7634071 79.9790837,42.547922 Z M71.7930887,28.1705099 L71.841,28.171 L71.8858835,28.17 C72.1701417,28.17 72.4468363,28.2065087 72.7125904,28.2756311 C74.3647322,28.6590746 75.5898567,30.0520679 75.5898567,31.7106476 C75.5898567,31.8151395 75.5850025,31.9185693 75.5754933,32.0207524 C75.5842361,32.1447916 75.5891769,32.2709668 75.5891769,32.3984507 L75.5891769,38.5983655 C75.5891769,40.9352304 73.9338268,42.8217176 71.8858835,42.8217176 C69.8362406,42.8217176 68.1808905,40.9352304 68.1808905,38.5983655 L68.18,35.25 L26.352,35.25 L26.3521997,38.5983655 C26.3521997,40.9352304 24.6985492,42.8217176 22.6506058,42.8217176 C20.6094606,42.8217176 18.9490119,40.9352304 18.9490119,38.5983655 L18.9490119,32.3984507 C18.9490119,32.2702869 18.954021,32.1434458 18.963827,32.0181688 C18.9541432,31.917226 18.9493519,31.8144609 18.9493519,31.7106476 C18.9493519,30.0567381 20.1675867,28.6669214 21.8141506,28.2785803 C22.0830021,28.2076163 22.3630255,28.17 22.6506058,28.17 L71.7930887,28.1705099 Z M71.8858835,53.202666 C73.9338268,53.202666 75.5891769,55.0891533 75.5891769,57.4260181 L75.5891769,63.6259329 C75.5891769,63.7534835 75.5842309,63.879724 75.5745452,64.0044165 C75.5850134,64.1060467 75.5898567,64.2093615 75.5898567,64.313736 C75.5898567,65.9816561 74.3508947,67.38099 72.6852339,67.7554563 C72.4273854,67.8203951 72.1601552,67.8543836 71.8858835,67.8543836 L71.822,67.852 L71.7930887,67.8538738 L22.749519,67.8538738 C22.738793,67.8538738 22.7280775,67.8538323 22.7173725,67.8537497 L22.6506058,67.8543836 C22.3729788,67.8543836 22.1023947,67.8193261 21.8420738,67.752876 C20.1813854,67.3731516 18.9493519,65.9769859 18.9493519,64.313736 C18.9493519,64.2093615 18.9541952,64.1060467 18.9636837,64.0039755 C18.9539732,63.879724 18.9490119,63.7534835 18.9490119,63.6259329 L18.9490119,57.4260181 C18.9490119,55.0891533 20.6094606,53.202666 22.6506058,53.202666 C24.6985492,53.202666 26.3521997,55.0891533 26.3521997,57.4260181 L26.352,60.773 L68.18,60.773 L68.1808905,57.4260181 C68.1808905,55.0891533 69.8362406,53.202666 71.8858835,53.202666 Z"/></g></svg>