<svg xmlns="http://www.w3.org/2000/svg" width="121" height="121" viewBox="0 0 121 121"><g fill="none" transform="translate(12 12)"><path fill="#FFF" d="M48,0 C21.490332,0 0,21.490332 0,48 C0,74.509668 21.490332,96 48,96 C74.509668,96 96,74.509668 96,48 C96,21.490332 74.509668,0 48,0 Z M48,6 C71.1959595,6 90,24.8040405 90,48 C90,71.1959595 71.1959595,90 48,90 C24.8040405,90 6,71.1959595 6,48 C6,24.8040405 24.8040405,6 48,6 Z"/><circle cx="48" cy="48" r="42" fill="#192BC2" fill-rule="evenodd"/><path fill="#FFF" fill-rule="evenodd" d="M50.9999999,37.68 L50.9999999,33.21 C50.9280001,33.213 50.8470001,33.213 50.7630001,33.213 C46.695,33.213 43.125,31.089 41.097,27.888 L41.07,27.84 L38.9999999,24.27 C38.151,22.9619999 36.717,22.0979999 35.076,22.0499999 L35.07,22.0499999 C34.38,22.0499999 33.93,22.2599999 33.24,22.2599999 L20.9999999,27.18 L20.9999999,37.68 L25.74,37.68 L25.74,30 L29.9999999,28.53 L23.4299999,60.0000001 L26.9999999,60.0000001 L32.31,42.15 L37.14,46.59 L37.14,60.0000001 L41.9999999,60.0000001 L41.9999999,43.26 L37.17,38.79 L38.55,32.1 C41.655,35.478 46.071,37.608 50.9880001,37.68 L50.9999999,37.68 L50.9999999,37.68 Z M37.62,20.9999999 C40.044,20.9339999 41.985,18.9599999 42,16.5329999 L42,14.9999999 L45,14.9999999 L45,11.9999999 L42,11.9999999 C42,10.3439999 40.656,8.99999989 39,8.99999989 L39,8.99999989 L36,8.99999989 C34.344,8.99999989 33,10.3439999 33,11.9999999 L33,11.9999999 L33,16.5299999 C33.015,19.0019999 35.025,21.0029999 37.5,21.0029999 C37.542,21.0029999 37.584,21.0029999 37.626,20.9999999 L37.62,20.9999999 L37.62,20.9999999 Z" transform="translate(12 12)"/></g></svg>