<svg width="32" height="37" viewBox="0 0 32 37" fill="none" xmlns="http://www.w3.org/2000/svg">
<g clip-path="url(#clip0_452_1276)">
<path d="M32 0H0V32H32V0Z" fill="#B20A2F"/>
<path d="M16.0002 37L9.70187 31.375H22.2986L16.0002 37Z" fill="#B20A2F"/>
<path d="M12.2187 20.125C12.9954 20.125 13.625 19.4954 13.625 18.7187C13.625 17.9421 12.9954 17.3125 12.2187 17.3125C11.4421 17.3125 10.8125 17.9421 10.8125 18.7187C10.8125 19.4954 11.4421 20.125 12.2187 20.125Z" fill="white"/>
<path d="M18.7812 20.125C19.5579 20.125 20.1875 19.4954 20.1875 18.7187C20.1875 17.9421 19.5579 17.3125 18.7812 17.3125C18.0046 17.3125 17.375 17.9421 17.375 18.7187C17.375 19.4954 18.0046 20.125 18.7812 20.125Z" fill="white"/>
<path d="M21.9406 8.25625C21.6583 7.8981 21.3055 7.60178 20.9039 7.38567C20.5024 7.16957 20.0607 7.0383 19.6062 7H11.3937C10.9359 7.03364 10.4904 7.1638 10.0864 7.38194C9.68245 7.60007 9.32924 7.90123 9.05 8.26562C8.42643 8.94946 8.05587 9.82623 8 10.75V22C8 22.2486 8.09877 22.4871 8.27459 22.6629C8.4504 22.8387 8.68886 22.9375 8.9375 22.9375H10.8125L8.9375 25.75H11.1125L11.75 24.8125H19.25L19.8875 25.75H22.0625L20.1875 22.9375H22.0625C22.3111 22.9375 22.5496 22.8387 22.7254 22.6629C22.9012 22.4871 23 22.2486 23 22V10.75C22.9571 9.81867 22.5811 8.93372 21.9406 8.25625ZM11.3937 8.875H19.5688C19.9437 8.96599 20.2752 9.18478 20.5063 9.49375C20.5912 9.59481 20.6695 9.70128 20.7406 9.8125H10.2406C10.3083 9.69604 10.3868 9.58619 10.475 9.48438C10.696 9.17531 11.0231 8.95839 11.3937 8.875ZM9.875 12.625V11.6875H21.125V14.5H9.875V12.625ZM21.125 21.0625H9.875V16.375H21.125V21.0625Z" fill="white"/>
</g>
<defs>
<clipPath id="clip0_452_1276">
<rect width="32" height="37" fill="white"/>
</clipPath>
</defs>
</svg>
