<?xml version="1.0" encoding="UTF-8" standalone="no"?>
<svg
  width="32"
  height="37"
  viewBox="0 0 32 37"
  fill="none"
  version="1.1"
  id="svg7"
  sodipodi:docname="road-work.svg"
  inkscape:version="1.4 (e7c3feb1, 2024-10-09)"
  xmlns:inkscape="http://www.inkscape.org/namespaces/inkscape"
  xmlns:sodipodi="http://sodipodi.sourceforge.net/DTD/sodipodi-0.dtd"
  xmlns:xlink="http://www.w3.org/1999/xlink"
  xmlns="http://www.w3.org/2000/svg"
>
  <sodipodi:namedview
     id="namedview7"
     pagecolor="#ffffff"
     bordercolor="#000000"
     borderopacity="0.25"
     inkscape:showpageshadow="2"
     inkscape:pageopacity="0.0"
     inkscape:pagecheckerboard="0"
     inkscape:deskcolor="#d1d1d1"
     inkscape:zoom="5.6216216"
     inkscape:cx="15.653846"
     inkscape:cy="18.5"
     inkscape:window-width="1104"
     inkscape:window-height="735"
     inkscape:window-x="452"
     inkscape:window-y="156"
     inkscape:window-maximized="0"
     inkscape:current-layer="svg7" />
  <g
     clip-path="url(#clip0_452_1254)"
     id="g7">
    <path
       d="M32 0H0V32H32V0Z"
       fill="#49A637"
       id="path1"
       style="stroke:url(#linearGradient7);stroke-opacity:1" />
    <path
       d="M16.0002 37L9.70187 31.375H22.2986L16.0002 37Z"
       fill="#49A637"
       id="path2" />
    <mask
       id="mask0_452_1254"
       style="mask-type:luminance"
       maskUnits="userSpaceOnUse"
       x="4"
       y="7"
       width="23"
       height="18">
      <path
         d="M26.9229 7H4.92285V24.4167H26.9229V7Z"
         fill="white"
         id="path3" />
    </mask>
    <g
       mask="url(#mask0_452_1254)"
       id="g6">
      <path
         d="M11.0132 14.9378C10.5741 14.6557 10.0039 14.8096 9.7424 15.2814L5.97338 22.0806C5.6081 22.7397 6.05241 23.5766 6.76843 23.5766H14.1403C14.651 23.5766 15.065 23.1332 15.065 22.5863C15.065 19.4504 13.5247 16.5518 11.0132 14.9378ZM8.39274 21.5959L10.8238 17.2104C12.0788 18.3094 12.9132 19.8837 13.148 21.5959H8.39274Z"
         fill="white"
         id="path4" />
      <path
         d="M15.0651 7.73071C14.0454 7.73071 13.2158 8.61925 13.2158 9.71144C13.2158 10.8036 14.0454 11.6922 15.0651 11.6922C16.0848 11.6922 16.9144 10.8036 16.9144 9.71144C16.9144 8.61932 16.0848 7.73071 15.0651 7.73071Z"
         fill="white"
         id="path5" />
      <path
         d="M25.8867 21.886L22.459 18.2146V14.6637C22.4591 14.4148 22.3664 14.1539 22.188 13.9629L20.0681 11.6922H22.459V12.6826C22.459 13.2295 22.873 13.6729 23.3836 13.6729C23.8943 13.6729 24.3083 13.2295 24.3083 12.6826V10.7018C24.3083 10.1549 23.8943 9.71149 23.3836 9.71149H17.8357C17.4127 9.71142 17.0682 10.0092 16.9525 10.4081L15.1092 16.3309C14.9477 16.8498 15.2096 17.4107 15.6941 17.5837C16.1786 17.7567 16.7022 17.4762 16.8637 16.9573L18.2399 12.5353L20.2267 14.6634L17.1819 17.9246C17.0085 18.1103 16.9111 18.3622 16.9111 18.6249V22.5863C16.9111 23.1333 17.3251 23.5767 17.8357 23.5767C18.3464 23.5767 18.7604 23.1333 18.7604 22.5863V19.0351L20.6097 17.0543V18.6249C20.6097 18.8875 20.7071 19.1394 20.8805 19.3252L24.579 23.2867C24.9401 23.6733 25.5256 23.6734 25.8867 23.2867C26.2478 22.8998 26.2478 22.2727 25.8867 21.886Z"
         fill="white"
         id="path6" />
    </g>
  </g>
  <defs
     id="defs7">
    <linearGradient
       id="swatch7"
       inkscape:swatch="solid">
      <stop
         style="stop-color:#fe5000;stop-opacity:1;"
         offset="0"
         id="stop7" />
    </linearGradient>
    <clipPath
       id="clip0_452_1254">
      <rect
         width="32"
         height="37"
         fill="white"
         id="rect7" />
    </clipPath>
    <linearGradient
       inkscape:collect="always"
       xlink:href="#swatch7"
       id="linearGradient7"
       x1="-0.5"
       y1="16"
       x2="32.5"
       y2="16"
       gradientUnits="userSpaceOnUse" />
  </defs>
</svg>
