<svg width="32" height="37" viewBox="0 0 32 37" fill="none" xmlns="http://www.w3.org/2000/svg">
<rect width="32" height="32" fill="#00C2E0"/>
<path d="M16.0002 37L9.70186 31.375L22.2986 31.375L16.0002 37Z" fill="#00C2E0"/>
<path d="M24 16C24 14.9 24.9 14 26 14V10C26 8.9 25.1 8 24 8H8C6.9 8 6.01 8.9 6.01 10V14C7.11 14 8 14.9 8 16C8 17.1 7.11 18 6 18V22C6 23.1 6.9 24 8 24H24C25.1 24 26 23.1 26 22V18C24.9 18 24 17.1 24 16ZM19.58 20.8L16 18.5L12.42 20.8L13.5 16.68L10.21 13.99L14.45 13.74L16 9.8L17.54 13.75L21.78 14L18.49 16.69L19.58 20.8Z" fill="white"/>
</svg>
