<svg width="32" height="37" viewBox="0 0 32 37" fill="none" xmlns="http://www.w3.org/2000/svg">
<rect width="32" height="32" fill="#00C2E0"/>
<path d="M16.0002 37L9.70186 31.375L22.2986 31.375L16.0002 37Z" fill="#00C2E0"/>
<path d="M12 12H10V19C10 20.1 10.9 21 12 21H21V19H12V12Z" fill="white"/>
<path d="M24 7H16C14.9 7 14 7.9 14 9V15C14 16.1 14.9 17 16 17H24C25.1 17 26 16.1 26 15V9C26 7.9 25.1 7 24 7ZM24 15H16V11H24V15Z" fill="white"/>
<path d="M8 16H6V23C6 24.1 6.9 25 8 25H17V23H8V16Z" fill="white"/>
</svg>
