<svg width="32" height="37" viewBox="0 0 32 37" fill="none" xmlns="http://www.w3.org/2000/svg">
<rect width="32" height="32" fill="#00C2E0"/>
<path d="M16.0002 37L9.70186 31.375L22.2986 31.375L16.0002 37Z" fill="#00C2E0"/>
<path fill-rule="evenodd" clip-rule="evenodd" d="M11.0898 13.5325C10.3587 14.4007 10.4958 15.7027 11.3919 16.3996L11.4151 16.4176C12.0162 16.8851 11.8951 17.8261 11.1953 18.1261L10.0623 18.6119C9.74104 18.7496 9.37125 18.7096 9.08689 18.5064L7.29712 17.2277C6.97873 17.0002 6.83794 16.6262 6.88845 16.2715C6.92409 16.0213 7.0094 15.768 7.15232 15.5596C7.16709 15.538 7.18301 15.5169 7.20009 15.4962L14.7448 6.36312C14.9348 6.13315 15.2175 6 15.5158 6H16.1707C16.5946 6 16.9725 6.26731 17.1137 6.66707L18.7051 11.1744C18.968 11.9191 19.6719 12.417 20.4615 12.417C21.0138 12.417 21.4615 12.8647 21.4615 13.417V14.167C21.4615 14.7193 21.9093 15.167 22.4615 15.167H24.1282C24.6805 15.167 25.1282 15.6147 25.1282 16.167V18.7503C25.1282 19.3026 24.6805 19.7503 24.1282 19.7503H16.0449C15.4926 19.7503 15.0449 19.3026 15.0449 18.7503V15.167V13.417C15.0449 12.8647 15.4926 12.417 16.0449 12.417C16.5194 12.417 16.8489 11.9445 16.6848 11.4992L16.098 9.90631C15.8327 9.18634 14.889 9.02098 14.3947 9.60788L11.0898 13.5325Z" fill="white"/>
<mask id="mask0" mask-type="alpha" maskUnits="userSpaceOnUse" x="6" y="19" width="20" height="8">
<rect x="6" y="19.167" width="20" height="7" fill="#C4C4C4"/>
</mask>
<g mask="url(#mask0)">
<path fill-rule="evenodd" clip-rule="evenodd" d="M9.05347 25.1837C8.6635 25.5923 8.11506 26.167 7.27081 26.167C6.46632 26.167 5.62316 25.6438 5.04565 25.2085C4.74277 24.9802 4.48351 24.753 4.30006 24.5831C4.20805 24.4979 4.13437 24.4264 4.083 24.3755C4.0573 24.35 4.03713 24.3297 4.02299 24.3153L4.00635 24.2982L4.00152 24.2932L4 24.2916C4 24.2916 3.99908 24.2907 4.36121 23.8098C4.72334 23.329 4.7232 23.3289 4.7232 23.3289L4.72556 23.3313L4.73687 23.3429C4.74736 23.3536 4.76365 23.3701 4.78525 23.3915C4.82849 23.4343 4.8928 23.4968 4.97431 23.5723C5.13791 23.7238 5.36786 23.9252 5.63358 24.1254C6.19328 24.5473 6.80492 24.8813 7.27081 24.8813C7.67192 24.8813 7.93586 24.6334 8.36349 24.1862C8.37478 24.1744 8.3862 24.1624 8.39777 24.1503C8.78773 23.7417 9.33617 23.167 10.1804 23.167C11.0247 23.167 11.5731 23.7417 11.9631 24.1503C11.9746 24.1624 11.9861 24.1744 11.9973 24.1862C12.425 24.6334 12.6889 24.8813 13.09 24.8813C13.4911 24.8813 13.7551 24.6334 14.1827 24.1862C14.194 24.1744 14.2054 24.1624 14.217 24.1503C14.6069 23.7417 15.1554 23.167 15.9996 23.167C16.8439 23.167 17.3923 23.7417 17.7823 24.1503C17.7938 24.1624 17.8053 24.1744 17.8166 24.1862C18.2442 24.6334 18.5081 24.8813 18.9092 24.8813C19.3103 24.8813 19.5743 24.6334 20.0019 24.1862C20.0132 24.1744 20.0246 24.1624 20.0362 24.1503C20.4261 23.7417 20.9746 23.167 21.8188 23.167C22.6631 23.167 23.2115 23.7417 23.6015 24.1503C23.6131 24.1624 23.6245 24.1744 23.6358 24.1862C24.0634 24.6334 24.3273 24.8813 24.7284 24.8813C25.1943 24.8813 25.806 24.5473 26.3657 24.1254C26.6314 23.9252 26.8613 23.7238 27.0249 23.5723C27.1065 23.4968 27.1708 23.4343 27.214 23.3915C27.2356 23.3701 27.2519 23.3536 27.2624 23.3429L27.2737 23.3313L27.276 23.329C27.276 23.329 27.2759 23.329 27.638 23.8098C28.0002 24.2907 28 24.2908 28 24.2908L27.9993 24.2916L27.9977 24.2932L27.9929 24.2982L27.9763 24.3153C27.9621 24.3297 27.9419 24.35 27.9162 24.3755C27.8649 24.4264 27.7912 24.4979 27.6992 24.5831C27.5157 24.753 27.2565 24.9802 26.9536 25.2085C26.3761 25.6438 25.5329 26.167 24.7284 26.167C23.8842 26.167 23.3358 25.5923 22.9458 25.1837C22.9342 25.1716 22.9228 25.1596 22.9115 25.1478C22.4839 24.7006 22.2199 24.4527 21.8188 24.4527C21.4177 24.4527 21.1538 24.7006 20.7262 25.1478C20.7149 25.1596 20.7034 25.1716 20.6919 25.1837C20.3019 25.5923 19.7535 26.167 18.9092 26.167C18.065 26.167 17.5165 25.5923 17.1266 25.1837C17.115 25.1716 17.1036 25.1596 17.0923 25.1478C16.6647 24.7006 16.4007 24.4527 15.9996 24.4527C15.5985 24.4527 15.3346 24.7006 14.9069 25.1478C14.8957 25.1596 14.8842 25.1716 14.8727 25.1837C14.4827 25.5923 13.9343 26.167 13.09 26.167C12.2458 26.167 11.6973 25.5923 11.3074 25.1837C11.2958 25.1716 11.2844 25.1596 11.2731 25.1478C10.8455 24.7006 10.5815 24.4527 10.1804 24.4527C9.77931 24.4527 9.51537 24.7006 9.08774 25.1478C9.07645 25.1596 9.06503 25.1716 9.05347 25.1837Z" fill="white"/>
<path fill-rule="evenodd" clip-rule="evenodd" d="M9.05389 22.1837C8.66393 22.5923 8.11551 23.167 7.27128 23.167C6.4668 23.167 5.62366 22.6438 5.04617 22.2085C4.74329 21.9802 4.48404 21.753 4.3006 21.5831C4.20858 21.4979 4.13491 21.4264 4.08354 21.3755C4.05783 21.35 4.03767 21.3297 4.02353 21.3153L4.00688 21.2982L4.00206 21.2932L4.00054 21.2916L4 21.2911C3.99991 21.291 3.99962 21.2907 4.36174 20.8098C4.72386 20.329 4.72379 20.329 4.72372 20.3289C4.72372 20.3289 4.72354 20.3287 4.72372 20.3289L4.72608 20.3313L4.73739 20.3429C4.74788 20.3536 4.76417 20.3701 4.78577 20.3915C4.82901 20.4343 4.89332 20.4968 4.97483 20.5723C5.13843 20.7238 5.36837 20.9252 5.63408 21.1254C6.19376 21.5473 6.8054 21.8813 7.27128 21.8813C7.67238 21.8813 7.93631 21.6334 8.36393 21.1862C8.37522 21.1744 8.38664 21.1624 8.3982 21.1503C8.78817 20.7417 9.33659 20.167 10.1808 20.167C11.025 20.167 11.5735 20.7417 11.9634 21.1503C11.975 21.1624 11.9864 21.1744 11.9977 21.1862C12.4253 21.6334 12.6893 21.8813 13.0904 21.8813C13.4915 21.8813 13.7554 21.6334 14.183 21.1862C14.1943 21.1744 14.2057 21.1624 14.2173 21.1503C14.6072 20.7417 15.1557 20.167 15.9999 20.167C16.8441 20.167 17.3925 20.7417 17.7825 21.1503C17.7941 21.1624 17.8055 21.1744 17.8168 21.1862C18.2444 21.6334 18.5083 21.8813 18.9094 21.8813C19.3105 21.8813 19.5745 21.6334 20.0021 21.1862C20.0134 21.1744 20.0248 21.1624 20.0364 21.1503C20.4263 20.7417 20.9747 20.167 21.819 20.167C22.6632 20.167 23.2116 20.7417 23.6016 21.1503C23.6131 21.1624 23.6246 21.1744 23.6359 21.1862C24.0635 21.6334 24.3274 21.8813 24.7285 21.8813C25.1944 21.8813 25.806 21.5473 26.3657 21.1254C26.6314 20.9252 26.8614 20.7238 27.025 20.5723C27.1065 20.4968 27.1708 20.4343 27.214 20.3915C27.2356 20.3701 27.2519 20.3536 27.2624 20.3429L27.2737 20.3313L27.276 20.329C27.2759 20.3291 27.2759 20.329 27.6381 20.8098C28.0002 21.2907 28.0001 21.2907 28 21.2908L27.9993 21.2916L27.9977 21.2932L27.9929 21.2982L27.9763 21.3153C27.9621 21.3297 27.942 21.35 27.9163 21.3755C27.8649 21.4264 27.7912 21.4979 27.6992 21.5831C27.5157 21.753 27.2565 21.9802 26.9536 22.2085C26.3761 22.6438 25.533 23.167 24.7285 23.167C23.8843 23.167 23.3359 22.5923 22.9459 22.1837C22.9343 22.1716 22.9229 22.1596 22.9116 22.1478C22.484 21.7006 22.2201 21.4527 21.819 21.4527C21.4179 21.4527 21.1539 21.7006 20.7263 22.1478C20.715 22.1596 20.7036 22.1716 20.692 22.1837C20.3021 22.5923 19.7537 23.167 18.9094 23.167C18.0652 23.167 17.5168 22.5923 17.1268 22.1837C17.1153 22.1716 17.1038 22.1596 17.0925 22.1478C16.6649 21.7006 16.401 21.4527 15.9999 21.4527C15.5988 21.4527 15.3349 21.7006 14.9072 22.1478C14.896 22.1596 14.8845 22.1716 14.873 22.1837C14.483 22.5923 13.9346 23.167 13.0904 23.167C12.2461 23.167 11.6977 22.5923 11.3077 22.1837C11.2962 22.1716 11.2848 22.1596 11.2735 22.1478C10.8459 21.7006 10.5819 21.4527 10.1808 21.4527C9.77972 21.4527 9.51578 21.7006 9.08817 22.1478C9.07688 22.1596 9.06545 22.1716 9.05389 22.1837Z" fill="white"/>
</g>
</svg>
