<svg xmlns="http://www.w3.org/2000/svg" width="121" height="121" viewBox="0 0 121 121"><g fill="none" fill-rule="evenodd" transform="translate(11 1)"><path fill="#FFF" d="M49.4394392,0.0318675407 C22.3057387,1.05655877 0,24.0129849 0,51.0632884 C0,74.1581311 15.7531577,94.1840908 37.6796234,100.284188 L39.123,100.664864 L42.9875735,113.982705 L43.1785408,114.537893 C46.0893205,121.820521 56.3606795,121.820521 59.2714592,114.537893 L59.414029,114.18119 L62.886,100.712864 L63.516,100.496864 L63.2562825,100.567939 C85.9193193,94.8977587 102,74.3341875 102,50.6129372 C102,22.1810388 78.2198674,-0.978760095 49.4394392,0.0318675407 Z M49.65,6.02817175 C75.3,5.12746941 96,25.8436231 96,50.6129372 C96,71.7794421 81.6,89.7934887 61.8,94.7473516 L60.7909333,95.0889513 C58.9125333,95.7454632 57.8597333,96.3059002 57.4021333,97.9231613 L57.3,98.3501609 L53.7,112.311047 C52.8473684,114.444289 49.9753463,114.556565 48.9101473,112.647875 L48.75,112.311047 L44.7,98.3501609 C44.3210526,96.4539455 43.9421053,95.8351804 41.6820674,95.1491811 L40.742703,94.8861535 C40.5702216,94.8409148 40.3894737,94.7947569 40.2,94.7473516 C20.85,89.7934887 6,72.2297932 6,51.0632884 C6,27.1946766 25.8,6.92887408 49.65,6.02817175 Z"/><path fill="#004535" d="M49.65,6.02817175 C75.3,5.12746941 96,25.8436231 96,50.6129372 C96,71.7794421 81.6,89.7934887 61.8,94.7473516 L60.7909333,95.0889513 C58.9125333,95.7454632 57.8597333,96.3059002 57.4021333,97.9231613 L57.3,98.3501609 L53.7,112.311047 C52.8473684,114.444289 49.9753463,114.556565 48.9101473,112.647875 L48.75,112.311047 L44.7,98.3501609 C44.3210526,96.4539455 43.9421053,95.8351804 41.6820674,95.1491811 L40.742703,94.8861535 C40.5702216,94.8409148 40.3894737,94.7947569 40.2,94.7473516 C20.85,89.7934887 6,72.2297932 6,51.0632884 C6,27.1946766 25.8,6.92887408 49.65,6.02817175 Z"/><path fill="#FFF" d="M21.6000001,12.0000001 C23.4000001,12.0000001 24.6000001,13.2000001 24.6000001,15.0000001 C24.6000001,16.2000001 24.0000001,17.1000001 23.1000001,17.7000001 L42.9000002,60.0000001 L39.6000002,60.0000001 L38.7000002,58.2000002 L21.6000001,51.3000002 L4.50000002,58.2000002 L3.60000001,60.0000001 L0.300000001,60.0000001 L20.1000001,17.7000001 C19.2000001,17.1000001 18.6000001,16.2000001 18.6000001,15.0000001 C18.6000001,13.2000001 19.8,12.0000001 21.6000001,12.0000001 Z M9.90000004,46.8000002 L6.60000003,54.0000002 L17.7000001,49.8000002 L9.90000004,46.8000002 Z M33.3000001,46.8000002 L25.5000001,49.8000002 L36.6000002,54.0000002 L33.3000001,46.8000002 Z M21.6000001,36.9000002 L12.6000001,44.4000002 L21.6000001,48.0000002 L30.6000001,44.4000002 L21.6000001,36.9000002 Z M26.7000001,32.7000001 L24.0000001,35.1000001 L30.3000001,40.5000002 L26.7000001,32.7000001 Z M16.5000001,32.7000001 L12.9000001,40.5000002 L19.2000001,35.1000001 L16.5000001,32.7000001 Z M21.6000001,21.6000001 L17.7000001,29.7000001 L21.6000001,33.0000001 L25.5000001,30.0000001 L21.6000001,21.6000001 Z M36.3000001,0 C40.2000002,3.90000002 42.6000002,9 42.6000002,15 C42.6000002,21 40.2000002,26.4000001 36.3000001,30.3000001 L33.3000001,27.3000001 C36.3000001,24 38.4000002,19.8000001 38.4000002,15 C38.4000002,10.5 36.3000001,6 33.3000001,3 L36.3000001,0 Z M6,0.300000001 L9,3.3 C5.70000002,6.3 3.90000002,10.5 3.90000002,15.3 C3.90000002,20.1000001 6,24.3 9,27.3 L6.30000003,30.0000001 C2.40000001,26.1000001 0,20.7000001 0,15.0000001 C0,9.3 2.40000001,3.90000002 6,0.300000001 Z M30.3000001,6.30000003 C32.7000001,8.70000004 34.2000001,11.7 34.2000001,15.3 C34.2000001,18.9000001 32.7000001,21.9000001 30.3000001,24.3 L27.3000001,21.3 C28.8000001,19.8 29.7000001,17.7000001 29.7000001,15.3 C29.7000001,12.9000001 28.8000001,10.8 27.3000001,9.30000003 L30.3000001,6.30000003 Z M12,6.00000003 L15.0000001,9.00000003 C13.5000001,10.5 12.6000001,12.6000001 12.6000001,15 C12.6000001,17.4000001 13.8000001,19.5 15.3000001,21.3000001 L12.3000001,24.3000001 C9.90000003,21.9000001 8.40000003,18.6000001 8.40000003,15 C8.40000003,11.7 9.90000003,8.40000004 12,6.00000003 Z" transform="translate(29.4 21.854)"/></g></svg>