<svg xmlns="http://www.w3.org/2000/svg" width="121" height="121" viewBox="0 0 121 121"><g fill="none" fill-rule="evenodd" transform="translate(11 1)"><path fill="#000" d="M49.4394392,0.0318675407 C22.3057387,1.05655877 0,24.0129849 0,51.0632884 C0,74.1581311 15.7531577,94.1840908 37.6796234,100.284188 L39.123,100.664864 L42.9875735,113.982705 L43.1785408,114.537893 C46.0893205,121.820521 56.3606795,121.820521 59.2714592,114.537893 L59.414029,114.18119 L62.886,100.712864 L63.516,100.496864 L63.2562825,100.567939 C85.9193193,94.8977587 102,74.3341875 102,50.6129372 C102,22.1810388 78.2198674,-0.978760095 49.4394392,0.0318675407 Z M49.65,6.02817175 C75.3,5.12746941 96,25.8436231 96,50.6129372 C96,71.7794421 81.6,89.7934887 61.8,94.7473516 L60.7909333,95.0889513 C58.9125333,95.7454632 57.8597333,96.3059002 57.4021333,97.9231613 L57.3,98.3501609 L53.7,112.311047 C52.8473684,114.444289 49.9753463,114.556565 48.9101473,112.647875 L48.75,112.311047 L44.7,98.3501609 C44.3210526,96.4539455 43.9421053,95.8351804 41.6820674,95.1491811 L40.742703,94.8861535 C40.5702216,94.8409148 40.3894737,94.7947569 40.2,94.7473516 C20.85,89.7934887 6,72.2297932 6,51.0632884 C6,27.1946766 25.8,6.92887408 49.65,6.02817175 Z"/><path fill="#FFF329" d="M49.65,6.02817175 C75.3,5.12746941 96,25.8436231 96,50.6129372 C96,71.7794421 81.6,89.7934887 61.8,94.7473516 L60.7909333,95.0889513 C58.9125333,95.7454632 57.8597333,96.3059002 57.4021333,97.9231613 L57.3,98.3501609 L53.7,112.311047 C52.8473684,114.444289 49.9753463,114.556565 48.9101473,112.647875 L48.75,112.311047 L44.7,98.3501609 C44.3210526,96.4539455 43.9421053,95.8351804 41.6820674,95.1491811 L40.742703,94.8861535 C40.5702216,94.8409148 40.3894737,94.7947569 40.2,94.7473516 C20.85,89.7934887 6,72.2297932 6,51.0632884 C6,27.1946766 25.8,6.92887408 49.65,6.02817175 Z"/><g transform="translate(9 6)"><rect width="84" height="84"/><g fill="#000" fill-rule="nonzero" transform="translate(6.563 10.5)"><path d="M70.3272172,55.7479125 L38.5555297,1.9354125 C37.8479609,0.73565625 36.5585609,0 35.1653422,0 C35.1602234,0 35.1551047,0 35.1499859,0 C33.7515172,0.00511875 32.4621172,0.752325 31.7596672,1.96100625 L0.531485927,55.7735063 C-0.174770323,56.9912438 -0.177395323,58.4947125 0.525054677,59.715075 C1.22737343,60.935175 2.52845468,61.6875 3.93702968,61.6875 L66.9370297,61.6875 C68.3507234,61.6875 69.6556109,60.9300562 70.3567484,59.7020812 C71.0577547,58.4742375 71.0463359,56.9655188 70.3272172,55.7479125 Z M10.7751547,53.8125 L35.1947422,11.7317813 L60.0399734,53.8125 L10.7751547,53.8125 Z"/><path d="M22.3120297,38.0625 L23.6245297,38.0625 L23.6245297,40.6875 L26.2495297,40.6875 L26.2495297,38.0625 C32.8986547,38.0625 37.9754047,38.0625 44.6245297,38.0625 L44.6245297,40.6875 L47.2495297,40.6875 L47.2495297,38.0625 L48.5620297,38.0625 L48.5620297,35.4375 C39.0632047,35.4375 31.8108547,35.4375 22.3120297,35.4375 L22.3120297,38.0625 Z"/><polygon points="34.125 27.563 31.995 27.563 29.67 34.125 33.76 34.125"/><polygon points="41.204 34.125 38.879 27.563 36.75 27.563 37.114 34.125"/><polygon points="23.625 51.188 32.812 51.188 33.468 39.375 27.81 39.375"/><polygon points="37.406 39.375 38.062 51.188 47.25 51.188 43.064 39.375"/></g></g></g></svg>