<svg xmlns="http://www.w3.org/2000/svg" width="121" height="121" viewBox="0 0 121 121"><g fill="none" fill-rule="evenodd" transform="translate(11 1)"><path fill="#000" d="M49.4394392,0.0318675407 C22.3057387,1.05655877 0,24.0129849 0,51.0632884 C0,74.1581311 15.7531577,94.1840908 37.6796234,100.284188 L39.123,100.664864 L42.9875735,113.982705 L43.1785408,114.537893 C46.0893205,121.820521 56.3606795,121.820521 59.2714592,114.537893 L59.414029,114.18119 L62.886,100.712864 L63.516,100.496864 L63.2562825,100.567939 C85.9193193,94.8977587 102,74.3341875 102,50.6129372 C102,22.1810388 78.2198674,-0.978760095 49.4394392,0.0318675407 Z M49.65,6.02817175 C75.3,5.12746941 96,25.8436231 96,50.6129372 C96,71.7794421 81.6,89.7934887 61.8,94.7473516 L60.7909333,95.0889513 C58.9125333,95.7454632 57.8597333,96.3059002 57.4021333,97.9231613 L57.3,98.3501609 L53.7,112.311047 C52.8473684,114.444289 49.9753463,114.556565 48.9101473,112.647875 L48.75,112.311047 L44.7,98.3501609 C44.3210526,96.4539455 43.9421053,95.8351804 41.6820674,95.1491811 L40.742703,94.8861535 C40.5702216,94.8409148 40.3894737,94.7947569 40.2,94.7473516 C20.85,89.7934887 6,72.2297932 6,51.0632884 C6,27.1946766 25.8,6.92887408 49.65,6.02817175 Z"/><path fill="#FFF329" d="M49.65,6.02817175 C75.3,5.12746941 96,25.8436231 96,50.6129372 C96,71.7794421 81.6,89.7934887 61.8,94.7473516 L60.7909333,95.0889513 C58.9125333,95.7454632 57.8597333,96.3059002 57.4021333,97.9231613 L57.3,98.3501609 L53.7,112.311047 C52.8473684,114.444289 49.9753463,114.556565 48.9101473,112.647875 L48.75,112.311047 L44.7,98.3501609 C44.3210526,96.4539455 43.9421053,95.8351804 41.6820674,95.1491811 L40.742703,94.8861535 C40.5702216,94.8409148 40.3894737,94.7947569 40.2,94.7473516 C20.85,89.7934887 6,72.2297932 6,51.0632884 C6,27.1946766 25.8,6.92887408 49.65,6.02817175 Z"/><g transform="translate(15 12)"><rect width="72" height="72"/><g fill="#000" fill-rule="nonzero" transform="translate(5.625 12.758)"><path d="M57.423375 3.09375C55.2958875 3.09375 52.8003 1.5886125 52.0236 1.01295L50.673375 0 49.32315 1.01295C48.6036 1.5523875 46.066275 3.09375 43.923375 3.09375 41.7958875 3.09375 39.3003 1.5886125 38.5236 1.01295L37.173375 0 35.82315 1.01295C35.1036 1.5523875 32.566275 3.09375 30.423375 3.09375 28.2958875 3.09375 25.8003 1.5886125 25.0236 1.01295L23.673375 0 22.32315 1.01295C21.6036 1.5523875 19.066275 3.09375 16.923375 3.09375 14.7958875 3.09375 12.3003 1.5886125 11.5236 1.01295L10.173375 0 8.82315 1.01295C8.1034875 1.5523875 5.566275 3.09375 3.423375 3.09375 2.2777875 3.09375 1.0333125 2.6557875 0 2.1630375L0 6.908625C1.060425 7.2513 2.2262625 7.4925 3.423375 7.4925 6.12 7.4925 8.6693625 6.281775 10.173375 5.3962875 11.6773875 6.281775 14.22675 7.4925 16.923375 7.4925 19.62 7.4925 22.1693625 6.281775 23.673375 5.3962875 25.1773875 6.281775 27.72675 7.4925 30.423375 7.4925 33.12 7.4925 35.6693625 6.281775 37.173375 5.3962875 38.6773875 6.281775 41.22675 7.4925 43.923375 7.4925 46.62 7.4925 49.1693625 6.281775 50.673375 5.3962875 52.1773875 6.281775 54.72675 7.4925 57.423375 7.4925 58.5846 7.4925 59.7151125 7.2646875 60.75 6.938325L60.75 2.20995C59.7376125 2.6818875 58.5300375 3.09375 57.423375 3.09375ZM16.923375 27.7425C17.57745 27.7425 18.2219625 27.668925 18.846 27.548325 18.6307875 26.712225 18.838575 25.81335 19.46565 25.1859375 20.2116375 24.438825 21.35205 24.2476875 22.3034625 24.7129875 22.3918875 24.7563 23.419125 25.2669375 24.9080625 26.2143 24.333975 25.2014625 24.0312375 24.530175 24.0008625 24.4614375 23.585625 23.5254375 23.7888 22.4305875 24.51285 21.70665 24.6798 21.5391375 24.8707125 21.4063875 25.071075 21.2958 25.0578 21.2860125 25.0362 21.2722875 25.0237125 21.26295L23.673375 20.25 22.32315 21.26295C21.6036 21.8023875 19.066275 23.34375 16.923375 23.34375 14.7958875 23.34375 12.3003 21.8386125 11.5236 21.26295L10.173375 20.25 8.82315 21.26295C8.1034875 21.8023875 5.566275 23.34375 3.423375 23.34375 2.2777875 23.34375 1.0333125 22.9057875 0 22.4130375L0 27.158625C1.060425 27.5013 2.2262625 27.7425 3.423375 27.7425 6.12 27.7425 8.6693625 26.531775 10.173375 25.6462875 11.6773875 26.531775 14.22675 27.7425 16.923375 27.7425ZM52.0236 21.26295 50.673375 20.25 49.32315 21.26295C49.0474125 21.4696125 48.5024625 21.8230875 47.8177875 22.1808375 48.632175 22.443525 49.488525 22.6751625 50.3877375 22.8524625 51.245775 23.0216625 51.950025 23.6302875 52.2421875 24.4548 52.471125 25.1026875 52.408575 25.80345 52.10325 26.4016125 53.5660875 27.0952875 55.4529375 27.7425 57.423375 27.7425 58.5846 27.7425 59.7151125 27.5146875 60.75 27.188325L60.75 22.45995C59.7376125 22.9318875 58.5300375 23.34375 57.423375 23.34375 55.2958875 23.34375 52.8003 21.8386125 52.0236 21.26295ZM52.0236 11.13795 50.673375 10.125 49.32315 11.13795C48.6036 11.6773875 46.066275 13.21875 43.923375 13.21875 42.16725 13.21875 40.1754375 12.1986 39.091275 11.51685 39.096 11.5374375 39.10725 11.555325 39.1113 11.5761375 39.5287875 13.69125 40.2325875 15.5889 40.98555 17.183475 41.9119875 17.44515 42.90705 17.6175 43.923375 17.6175 46.62 17.6175 49.1693625 16.406775 50.673375 15.5212875 52.1773875 16.406775 54.72675 17.6175 57.423375 17.6175 58.5846 17.6175 59.7151125 17.3896875 60.75 17.063325L60.75 12.33495C59.7376125 12.8068875 58.5300375 13.21875 57.423375 13.21875 55.2958875 13.21875 52.8003 11.7136125 52.0236 11.13795ZM10.173375 15.5212875C11.6773875 16.406775 14.22675 17.6175 16.923375 17.6175 19.62 17.6175 22.1693625 16.406775 23.673375 15.5212875 25.1773875 16.406775 27.72675 17.6175 30.423375 17.6175 30.7333125 17.6175 31.04055 17.5977 31.3453125 17.5681125 31.6027125 15.604875 32.2563375 13.9406625 33.0411375 12.637125 32.198625 12.9681 31.2814125 13.21875 30.423375 13.21875 28.2958875 13.21875 25.8003 11.7136125 25.0236 11.13795L23.673375 10.125 22.32315 11.13795C21.6036 11.6773875 19.066275 13.21875 16.923375 13.21875 14.7958875 13.21875 12.3003 11.7136125 11.5236 11.13795L10.173375 10.125 8.82315 11.13795C8.1034875 11.6773875 5.566275 13.21875 3.423375 13.21875 2.2777875 13.21875 1.0333125 12.7807875 0 12.2880375L0 17.033625C1.060425 17.3763 2.2262625 17.6175 3.423375 17.6175 6.1198875 17.6175 8.6693625 16.406775 10.173375 15.5212875Z"/><path d="M36.6834375,12.055275 C36.6834375,12.055275 31.48515,16.408125 34.7648625,24.4947375 L32.058675,27.200925 C29.06685,24.7059 26.263125,23.456475 26.263125,23.456475 C26.263125,23.456475 27.5126625,26.2600875 30.0078,29.2518 L27.8105625,31.4490375 C24.3999,28.497825 21.2153625,26.9361 21.2153625,26.9361 C21.2153625,26.9361 22.776975,30.12075 25.7281875,33.5314125 L23.560875,35.698725 C19.6767,32.2367625 16.0696125,30.3177375 16.0696125,30.3177375 C16.0696125,30.3177375 17.988525,33.9249375 21.4504875,37.809225 L18.245475,41.0142375 C14.6507625,37.189125 12.3255,33.9912 12.3255,33.9912 C5.480775,45.369225 11.879325,54.4055625 11.879325,54.4055625 C22.1221125,55.7287875 29.083725,50.1215625 29.083725,50.1215625 C29.083725,50.1215625 24.694875,47.23875 20.9404125,43.7283 L24.1311375,40.537575 C28.2252375,44.325675 32.19345,46.441575 32.19345,46.441575 C32.19345,46.441575 30.0774375,42.47325 26.28945,38.37915 L28.4007375,36.267975 C32.0211,39.5517375 35.5750875,41.2956 35.5750875,41.2956 C35.5750875,41.2956 33.8313375,37.7416125 30.5474625,34.1211375 L32.6710125,31.9975875 C35.872875,34.83045 39.0547125,36.2476125 39.0547125,36.2476125 C39.0547125,36.2476125 37.637775,33.065775 34.8048,29.8638 L37.4695875,27.1990125 C45.5562,30.4786125 49.90905,25.280325 49.90905,25.280325 C45.8949375,24.4884375 42.6083625,22.7863125 40.508325,21.455775 C39.1775625,19.3559625 37.4754375,16.0695 36.6834375,12.055275 Z M17.4144375,46.02375 L16.0367625,46.02375 L16.0367625,47.401425 C16.0367625,47.8672875 15.658875,48.245175 15.1930125,48.245175 C14.72715,48.245175 14.3492625,47.8672875 14.3492625,47.401425 L14.3492625,46.02375 L12.9715875,46.02375 C12.505725,46.02375 12.1278375,45.6458625 12.1278375,45.18 C12.1278375,44.7141375 12.505725,44.33625 12.9715875,44.33625 L14.3492625,44.33625 L14.3492625,42.958575 C14.3492625,42.4927125 14.72715,42.114825 15.1930125,42.114825 C15.658875,42.114825 16.0367625,42.4927125 16.0367625,42.958575 L16.0367625,44.33625 L17.4144375,44.33625 C17.8803,44.33625 18.2581875,44.7141375 18.2581875,45.18 C18.2581875,45.6458625 17.8803,46.02375 17.4144375,46.02375 Z"/></g></g></g></svg>