<svg xmlns="http://www.w3.org/2000/svg" width="121" height="121" viewBox="0 0 121 121"><g fill="none" fill-rule="evenodd" transform="translate(11 1)"><path fill="#000" d="M49.4394392,0.0318675407 C22.3057387,1.05655877 0,24.0129849 0,51.0632884 C0,74.1581311 15.7531577,94.1840908 37.6796234,100.284188 L39.123,100.664864 L42.9875735,113.982705 L43.1785408,114.537893 C46.0893205,121.820521 56.3606795,121.820521 59.2714592,114.537893 L59.414029,114.18119 L62.886,100.712864 L63.516,100.496864 L63.2562825,100.567939 C85.9193193,94.8977587 102,74.3341875 102,50.6129372 C102,22.1810388 78.2198674,-0.978760095 49.4394392,0.0318675407 Z M49.65,6.02817175 C75.3,5.12746941 96,25.8436231 96,50.6129372 C96,71.7794421 81.6,89.7934887 61.8,94.7473516 L60.7909333,95.0889513 C58.9125333,95.7454632 57.8597333,96.3059002 57.4021333,97.9231613 L57.3,98.3501609 L53.7,112.311047 C52.8473684,114.444289 49.9753463,114.556565 48.9101473,112.647875 L48.75,112.311047 L44.7,98.3501609 C44.3210526,96.4539455 43.9421053,95.8351804 41.6820674,95.1491811 L40.742703,94.8861535 C40.5702216,94.8409148 40.3894737,94.7947569 40.2,94.7473516 C20.85,89.7934887 6,72.2297932 6,51.0632884 C6,27.1946766 25.8,6.92887408 49.65,6.02817175 Z"/><path fill="#FFF329" d="M49.65,6.02817175 C75.3,5.12746941 96,25.8436231 96,50.6129372 C96,71.7794421 81.6,89.7934887 61.8,94.7473516 L60.7909333,95.0889513 C58.9125333,95.7454632 57.8597333,96.3059002 57.4021333,97.9231613 L57.3,98.3501609 L53.7,112.311047 C52.8473684,114.444289 49.9753463,114.556565 48.9101473,112.647875 L48.75,112.311047 L44.7,98.3501609 C44.3210526,96.4539455 43.9421053,95.8351804 41.6820674,95.1491811 L40.742703,94.8861535 C40.5702216,94.8409148 40.3894737,94.7947569 40.2,94.7473516 C20.85,89.7934887 6,72.2297932 6,51.0632884 C6,27.1946766 25.8,6.92887408 49.65,6.02817175 Z"/><g transform="translate(15 12)"><rect width="72" height="72"/><g fill="#000" fill-rule="nonzero" transform="translate(5.472 6.75)"><rect width="54" height="25.875" x="3.528" y="33.75"/><path d="M62.1514031 7.46890527C61.8647531 6.91551777 61.0707281 6.90213027 60.7375031 7.42885527 59.7493031 8.99103027 58.7723531 10.4680428 58.1855531 11.1772428 57.2807156 12.2713053 55.7709656 14.3531178 54.0386906 13.3315053L48.9334406 10.3244928C47.2012781 9.30321777 48.1448156 6.85319277 48.6656906 5.52963027 49.0164656 4.63716777 49.8103781 2.92649277 50.6432156 1.18195527 50.8984781.646905274 50.5174406.013642774 49.9246781.00194277399 46.2993656-.070057226 43.2808781 1.86111777 41.1513656 5.47653027 37.1166656 12.3220428 40.1117531 17.6813178 47.5864781 21.5919303 47.5558781 21.7411053 47.3907281 21.8558553 47.0582906 21.8186178 46.4358281 21.7489803 43.8518156 21.3571428 40.4344031 19.3293303L33.2624156 31.5000303 45.6250406 31.5000303 50.8225406 22.6803678C55.2473906 23.5189428 58.9157906 21.5887803 61.3829156 17.3998428 63.4244531 13.9384428 63.7266281 10.5088803 62.1514031 7.46890527ZM8.76385314 19.9539303 18.0613031 16.5163803C18.0613031 16.5163803 18.2431031 16.7953803 17.9464406 17.0245428L13.9907156 20.2238178 18.1793156 31.5000303 28.9803281 31.5000303 22.7603156 14.7549678 28.0333031 12.7963428C28.6157156 12.5800053 28.9124906 11.9324553 28.6961531 11.3500428 26.3820281 5.11979277 26.9641031 6.68714277 25.1705156 1.85864277 24.9541781 1.27623027 24.3066281.979455274 23.7242156 1.19579277L4.45476564 8.35338027C4.20130314 8.44754277 3.99025314 8.62979277 3.86020314 8.86683027L.13915314 15.6495678C-.19069686 16.2506553.0893156401 17.0044053.73157814 17.2444803L7.97826564 19.9531428C8.23150314 20.0478678 8.51027814 20.0480928 8.76385314 19.9539303Z"/></g></g></g></svg>