<svg xmlns="http://www.w3.org/2000/svg" width="121" height="121" viewBox="0 0 121 121"><g fill="none" fill-rule="evenodd" transform="translate(11 1)"><path fill="#000" d="M49.4394392,0.0318675407 C22.3057387,1.05655877 0,24.0129849 0,51.0632884 C0,74.1581311 15.7531577,94.1840908 37.6796234,100.284188 L39.123,100.664864 L42.9875735,113.982705 L43.1785408,114.537893 C46.0893205,121.820521 56.3606795,121.820521 59.2714592,114.537893 L59.414029,114.18119 L62.886,100.712864 L63.516,100.496864 L63.2562825,100.567939 C85.9193193,94.8977587 102,74.3341875 102,50.6129372 C102,22.1810388 78.2198674,-0.978760095 49.4394392,0.0318675407 Z M49.65,6.02817175 C75.3,5.12746941 96,25.8436231 96,50.6129372 C96,71.7794421 81.6,89.7934887 61.8,94.7473516 L60.7909333,95.0889513 C58.9125333,95.7454632 57.8597333,96.3059002 57.4021333,97.9231613 L57.3,98.3501609 L53.7,112.311047 C52.8473684,114.444289 49.9753463,114.556565 48.9101473,112.647875 L48.75,112.311047 L44.7,98.3501609 C44.3210526,96.4539455 43.9421053,95.8351804 41.6820674,95.1491811 L40.742703,94.8861535 C40.5702216,94.8409148 40.3894737,94.7947569 40.2,94.7473516 C20.85,89.7934887 6,72.2297932 6,51.0632884 C6,27.1946766 25.8,6.92887408 49.65,6.02817175 Z"/><path fill="#FFF329" d="M49.65,6.02817175 C75.3,5.12746941 96,25.8436231 96,50.6129372 C96,71.7794421 81.6,89.7934887 61.8,94.7473516 L60.7909333,95.0889513 C58.9125333,95.7454632 57.8597333,96.3059002 57.4021333,97.9231613 L57.3,98.3501609 L53.7,112.311047 C52.8473684,114.444289 49.9753463,114.556565 48.9101473,112.647875 L48.75,112.311047 L44.7,98.3501609 C44.3210526,96.4539455 43.9421053,95.8351804 41.6820674,95.1491811 L40.742703,94.8861535 C40.5702216,94.8409148 40.3894737,94.7947569 40.2,94.7473516 C20.85,89.7934887 6,72.2297932 6,51.0632884 C6,27.1946766 25.8,6.92887408 49.65,6.02817175 Z"/><g transform="translate(9 6)"><rect width="84" height="84"/><g fill="#000" fill-rule="nonzero" transform="translate(6.563 10.5)"><path d="M70.3271678,55.7479125 L38.5554803,1.9354125 C37.8479116,0.73565625 36.5585116,0 35.1652928,0 C35.1601741,0 35.1550553,0 35.1499366,0 C33.7515991,0.00511875 32.4620678,0.752325 31.7597491,1.96100625 L0.531436552,55.7735063 C-0.174819698,56.9911125 -0.177313448,58.4945813 0.525005302,59.7148125 C1.22732405,60.9350437 2.5284053,61.6875 3.9369803,61.6875 L66.9369803,61.6875 C68.3506741,61.6875 69.6555616,60.9300562 70.3566991,59.7020812 C71.0578366,58.4741062 71.0462866,56.9655188 70.3271678,55.7479125 Z M10.7751053,53.8125 L35.1948241,11.7317813 L60.0399241,53.8125 L10.7751053,53.8125 Z"/><path d="M35.8876928 29.1214875C37.0845616 29.8324687 38.2748678 29.4059062 38.9920178 28.1990625 39.8087866 26.8244812 39.5227928 25.657275 38.3572928 24.9645375 37.1294491 24.23505 35.9501678 24.7135875 35.2133303 25.9541625 34.4364616 27.261675 34.6910866 28.4105062 35.8876928 29.1214875ZM37.0210366 36.978375C36.7246741 34.38225 37.7316241 32.8690688 37.0503053 31.4313563 36.7091866 30.7113188 34.7111678 28.8689625 32.7543616 28.935375 31.8446678 28.9660875 30.3106178 29.3174438 28.9467991 29.6408438 28.5488491 29.743875 28.3847866 29.7836438 27.8714678 30.1216125 26.9821178 30.7164375 26.0078491 32.7204938 25.6429741 33.350625 25.1867491 34.1387813 25.2790178 34.957125 25.8087428 35.7053813 25.8087428 35.7053813 26.0591678 35.3397188 26.4173491 34.8298125L28.4805991 36.2310375C28.4805991 36.2310375 28.4153678 36.3818438 28.1776741 37.0457063 27.9398491 37.7094375 24.2448991 48.8763188 24.1187678 49.2531375 23.4808928 51.1573125 24.9392116 52.0922063 25.1618116 52.2218813 25.2258616 52.07895 28.6976866 44.3807438 30.0851303 41.304375 30.7421678 42.5481 31.9994116 44.9281875 31.9994116 44.9281875 32.2797616 46.5903375 32.5335991 48.2229563 32.9126491 50.4338625 33.2739803 52.541475 35.1960053 52.4702063 35.2793491 52.4660063 35.1924616 49.3677188 35.1579428 48.0104625 35.0163241 45.1745438 34.9579178 44.3778563 33.8928241 41.8590375 32.6228491 39.0445125L41.0929366 44.7972C41.2069928 44.6028188 41.3711866 44.3244375 41.5630741 44.0045813L37.9488428 41.5499438C37.6443428 40.0187813 37.0210366 36.978375 37.0210366 36.978375ZM28.8470491 35.3679375 26.9496991 34.079325C27.6963803 33.0368063 28.5778553 31.8551625 28.8267053 31.7254875 29.1141428 31.5763875 29.9807866 31.6828313 30.6450428 31.7953125 29.9268428 33.0218438 29.2751866 34.4287125 28.8470491 35.3679375ZM32.9744678 38.1713063C33.6131303 37.0441313 34.4014178 35.674275 35.0749928 34.5551063 35.0740741 35.4262125 35.1478366 36.6516938 35.2393178 37.2554438 35.3210866 37.6884375 35.7320303 39.338775 36.0027991 40.2282563L32.9744678 38.1713063Z"/><path d="M36.6426428,52.47375 L52.8276053,52.47375 C52.8276053,52.47375 49.6041053,45.5634375 46.5696053,41.9958 C45.7656991,41.0508 44.8541678,40.7859375 44.0270303,41.8726875 C43.2757553,42.85995 41.7209678,45.5454563 41.7209678,45.5454563 C41.7209678,45.5454563 39.9198241,46.2691688 39.0140678,47.2581375 C37.7119366,48.6799688 36.6005116,52.6051313 36.6426428,52.47375 Z"/></g></g></g></svg>