<svg xmlns="http://www.w3.org/2000/svg" width="121" height="121" viewBox="0 0 121 121"><g fill="none" transform="translate(12 12)"><path fill="#FFF" d="M48,0 C21.490332,0 0,21.490332 0,48 C0,74.509668 21.490332,96 48,96 C74.509668,96 96,74.509668 96,48 C96,21.490332 74.509668,0 48,0 Z M48,6 C71.1959595,6 90,24.8040405 90,48 C90,71.1959595 71.1959595,90 48,90 C24.8040405,90 6,71.1959595 6,48 C6,24.8040405 24.8040405,6 48,6 Z"/><circle cx="48" cy="48" r="42" fill="#009EE0" fill-rule="evenodd"/><path fill="#FFF" d="M65.9999996,25.5010245 C66.0000001,26.4 65.4000001,27 64.5000001,27 L62.9999999,27 C62.4000001,27 61.8000001,26.4 61.4999999,25.8 C61.2000001,25.8 60.6000001,26.1 59.9999999,26.1 C59.1000001,26.1 57.9000001,26.4 56.9999999,26.1 C56.4000001,25.8 56.1000001,24.9 55.8000001,24.6 C54.6000001,26.1 54.3000001,27.9 53.9999999,30 L53.9999999,36 C53.9999999,39 53.1000001,43.2 50.9999999,45 C50.9999999,45 50.3547573,48.8069314 49.662758,52.9196516 L49.5326063,53.6935153 L49.4022354,54.4694174 C48.6862003,58.7330814 47.9999999,62.8565219 47.9999999,63.0000001 L44.9999999,63.0000001 L44.9999999,45 L26.9999999,45 L26.2435575,45.7564425 C25.9393463,46.0606537 25.676384,46.3236159 25.4490777,46.5509222 L25.134161,46.8658389 C25.0858988,46.9141011 25.0396904,46.9603096 24.9954482,47.0045517 L24.266425,47.7335749 C24.1745543,47.8254457 24.1143631,47.8856368 24.0749275,47.9250724 L24.0002948,47.9997051 C23.9931724,48.0068275 23.9658624,48.0341375 23.8293126,48.1706874 L23.3519999,48.6480001 C23.2855383,48.7144616 23.2122602,48.7877397 23.1314664,48.8685335 L20.9999999,51.0000001 L20.9999999,63.0000001 L17.9999999,63.0000001 L14.9999999,48.0000001 L15.1935038,47.8072913 C18.0635159,44.9603025 19.4543477,44.0543479 17.3999999,42 C15.8999999,40.5 14.9999999,38.4 14.9999999,36 C14.9999999,33.9 15.8999999,31.8 17.0999999,30.3 C15.8999999,30.6 14.3999999,31.2 13.7999999,32.1 C12.5999999,33.6 11.9999999,34.2 11.9999999,36 L11.9999999,42 L5.99999987,42 L5.99999987,36 C5.99999987,34.2 6.59999988,32.7 6.89999988,31.8 C7.79999988,29.4 9.29999989,27.6 11.6999999,27 C13.7999999,26.4 16.1999999,26.7 17.9999999,27.6 C18.5999999,27.9 18.5999999,28.5 19.7999999,28.2 C20.9999999,27.6 22.7999999,27 23.9999999,27 L38.9999999,27 C45.6,27 46.8,22.4999999 46.8,22.4999999 C47.1,21.2999999 47.7,20.3999999 48.3000001,19.1999999 C49.8000001,17.0999999 50.9999999,16.4999999 53.9999999,14.9999999 C54.3000001,14.9999999 55.4999999,11.6999999 56.9999999,11.9999999 L56.9999999,14.9999999 L62.9999999,20.9999999 C62.9999999,20.9999999 65.9999999,23.3999999 65.9999999,24.9 L65.9999996,25.5010245 Z" transform="translate(12 12)"/></g></svg>