<svg xmlns="http://www.w3.org/2000/svg" width="121" height="121" viewBox="0 0 121 121"><g fill="none" transform="translate(12 12)"><path fill="#FFF" d="M48,0 C21.490332,0 0,21.490332 0,48 C0,74.509668 21.490332,96 48,96 C74.509668,96 96,74.509668 96,48 C96,21.490332 74.509668,0 48,0 Z M48,6 C71.1959595,6 90,24.8040405 90,48 C90,71.1959595 71.1959595,90 48,90 C24.8040405,90 6,71.1959595 6,48 C6,24.8040405 24.8040405,6 48,6 Z"/><circle cx="48" cy="48" r="42" fill="#185648" fill-rule="evenodd"/><path fill="#FFF" d="M38.4899999,26.85 L47.4899999,32.85 L44.4899999,56.85 L41.4899999,56.85 L41.4899999,44.85 L29.4899999,44.85 L23.4899999,47.85 L23.4899999,56.85 L20.4899999,56.85 L17.4899999,35.85 L11.4899999,35.85 L11.4899999,32.85 L17.4899999,32.85 L38.4899999,26.85 Z M50.49,14.8499999 L50.49,17.8499999 L59.49,26.8499999 L56.49,29.8499999 L50.49,29.8499999 L41.49,23.8499999 L50.49,14.8499999 Z" transform="translate(12 12)"/></g></svg>