<svg xmlns="http://www.w3.org/2000/svg" width="121" height="121" viewBox="0 0 121 121"><g fill="none" fill-rule="evenodd" transform="translate(12 12)"><g opacity=".9"><path fill="#FFF" d="M48,0 C21.490332,0 0,21.490332 0,48 C0,74.509668 21.490332,96 48,96 C74.509668,96 96,74.509668 96,48 C96,21.490332 74.509668,0 48,0 Z M48,6 C71.1959595,6 90,24.8040405 90,48 C90,71.1959595 71.1959595,90 48,90 C24.8040405,90 6,71.1959595 6,48 C6,24.8040405 24.8040405,6 48,6 Z"/><circle cx="48" cy="48" r="42" fill="#004535"/></g><path fill="#FFF" fill-rule="nonzero" d="M78.681292,57.6613707 C77.6674834,59.1814361 75.8946209,60.447831 73.615863,61.2072162 C73.615863,66.5251712 69.5643029,70.8297092 64.4997774,70.8297092 L27.7818546,70.8297092 C22.7173291,70.8297092 18.6657689,66.5245689 18.6657689,61.4600434 L18.6657689,61.2065235 C16.3864087,60.446551 14.6142088,59.1807434 13.6012434,57.6613707 L78.681292,57.6613707 Z M27.7806499,61.2072162 C26.0078477,61.2072162 24.488475,62.7265889 24.488475,64.4993912 C24.488475,66.2721934 26.0078477,67.7915661 27.7806499,67.7915661 C29.5534522,67.7915661 31.0728249,66.2721934 31.0728249,64.4993912 C31.0728249,62.7265889 29.5534522,61.2072162 27.7806499,61.2072162 Z M39.9360833,61.2072162 C38.1637629,61.2072162 36.8973379,62.7265889 36.8973379,64.4993912 C36.8973379,66.2721934 38.1632811,67.7915661 39.9360833,67.7915661 C41.7088856,67.7915661 43.2282583,66.2721934 43.2282583,64.4993912 C43.2282583,62.7265889 41.7088856,61.2072162 39.9360833,61.2072162 Z M52.344344,61.2072162 C50.5715417,61.2072162 49.052169,62.7265889 49.052169,64.4993912 C49.052169,66.2721934 50.5715417,67.7915661 52.344344,67.7915661 C54.1166644,67.7915661 55.3830894,66.2721934 55.3830894,64.4993912 C55.3830894,62.7265889 54.1171463,61.2072162 52.344344,61.2072162 Z M64.4997774,61.2072162 C62.7269751,61.2072162 61.2076024,62.7265889 61.2076024,64.4993912 C61.2076024,66.2721934 62.7269751,67.7915661 64.4997774,67.7915661 C66.2725797,67.7915661 67.7919524,66.2721934 67.7919524,64.4993912 C67.7919524,62.7265889 66.2725797,61.2072162 64.4997774,61.2072162 Z M71.083525,42.9744425 C78.4274107,42.9744425 81.7189834,50.3183283 79.6932033,55.8892611 L12.5878264,55.8892611 C10.5620463,50.3183283 13.8542514,42.9744425 21.1975047,42.9744425 L71.083525,42.9744425 Z M27.2746943,32.3373278 L27.2746943,25.5 L42.9758828,25.5 C45.0016629,25.5 46.7746158,27.5257801 46.7746158,29.5515602 L46.7746158,31.0709329 C49.053976,31.5773854 51.0797561,32.8437351 52.5991288,34.3631078 L84,34.3631078 L84,37.9082606 L55.3848964,37.9082606 C55.6384163,38.4147132 55.8913489,39.1746856 56.1448688,39.9340407 L21.1992966,39.9340407 C22.2122017,36.6418657 24.4914716,33.8567005 27.2766368,32.3373278 L27.2746943,32.3373278 Z"/></g></svg>