<svg xmlns="http://www.w3.org/2000/svg" width="121" height="121" viewBox="0 0 121 121"><g fill="none" fill-rule="evenodd" transform="translate(12 12)"><g opacity=".9"><path fill="#FFF" d="M48,0 C21.490332,0 0,21.490332 0,48 C0,74.509668 21.490332,96 48,96 C74.509668,96 96,74.509668 96,48 C96,21.490332 74.509668,0 48,0 Z M48,6 C71.1959595,6 90,24.8040405 90,48 C90,71.1959595 71.1959595,90 48,90 C24.8040405,90 6,71.1959595 6,48 C6,24.8040405 24.8040405,6 48,6 Z"/><circle cx="48" cy="48" r="42" fill="#004535"/></g><path fill="#FFF" d="M63.8006308,34.6639662 C63.0755385,35.4171174 62.274729,36.1427123 61.4802014,36.8090065 C60.8397045,36.7174591 59.9286696,36.4774089 59.346552,35.9184923 L59.3452957,35.9194136 C58.7876354,35.3638473 58.5209502,34.4912573 58.4051968,33.864078 C59.0443535,33.0410727 59.7410519,32.209859 60.4688244,31.4545301 C63.4100676,28.4006325 65.6971614,27.0255787 66.8639931,28.1501126 L66.8763055,28.1606661 C68.0431371,29.285535 66.7419578,31.6087284 63.8006308,34.6639662 M56.6662148,40.3347125 L55.9040177,39.6004906 L55.8595422,39.5586116 L55.0702076,38.7984247 C55.0702076,38.7984247 55.7217605,37.6639236 56.7506428,36.1491616 C56.998315,36.6541381 57.3231282,37.157607 57.7739971,37.5936507 L57.7753372,37.5928132 C58.2271274,38.021905 58.740731,38.3291291 59.2523244,38.5543541 C57.7761748,39.6407781 56.6662148,40.3347125 56.6662148,40.3347125 M64.2484007,25.9664598 C59.7127417,30.1118069 57.0205108,32.14101 55.1025381,33.1910831 C53.1843142,34.24258 48.7713606,36.4268191 47.7309197,37.5084689 C46.6906463,38.5888624 46.6762399,38.6039388 46.6762399,38.6039388 L36.0996246,37.3102977 L26.0440673,36.5994442 L29.3395227,33.2041493 C29.5712809,32.9653555 30.880501,30.940424 30.6416234,30.7084145 L30.54036,30.6104178 C30.30165,30.3784921 28.3167547,31.7477666 28.084829,31.9864767 L19.4318819,40.9020887 C19.2001237,41.14105 19.2058193,41.5226511 19.4446131,41.7543255 L19.8342549,42.1324088 C20.072965,42.3642507 20.4545661,42.3586389 20.686408,42.1195938 L22.1046809,40.6583531 L27.8472078,46.4794449 L34.5303362,52.6504773 L32.1599032,55.2568563 L30.1139485,57.6714297 C30.1139485,57.6714297 19.4477121,55.8211335 17.9247418,57.3902544 C17.0340601,58.3079062 17.4135672,57.9243786 16.910936,58.4470281 C16.4071321,58.96951 16.1785567,60.1668295 17.3525915,61.2982315 C17.9627679,61.885542 20.723429,64.5296121 22.0130498,65.781458 C23.3025867,67.0328851 24.785102,65.7884937 25.182617,65.3788337 C25.5800484,64.9693412 27.510501,62.9622501 27.510501,62.9622501 C27.7309518,63.1746602 25.6389302,66.7149401 24.6629829,68.3383361 L28.0262823,71.6024661 C29.6196092,70.5785255 33.0960655,68.3815552 33.3147574,68.5956404 C33.3147574,68.5956404 31.3663807,70.5851424 30.9689493,70.9947186 C30.5714342,71.4042948 29.3717695,72.9233285 30.6612227,74.1749231 C31.9508434,75.4265178 34.6763262,78.1069388 35.281561,78.6992748 C36.447555,79.8390526 37.6375038,79.5747126 38.1447418,79.055581 C38.652231,78.5374545 38.2800946,78.928269 39.1706926,78.0107009 C40.6937466,76.4414125 38.5254215,65.8350631 38.5254215,65.8350631 L40.877679,63.7182491 L43.4123612,61.2707589 L49.780141,67.7665208 L55.7702563,73.3325697 L54.3519834,74.7938104 C54.1201415,75.0326042 54.1259208,75.4142053 54.3647146,75.6460473 L54.7542727,76.0242143 C54.9931503,76.2558049 55.3746676,76.2501932 55.6065096,76.0113156 L64.2595405,67.0958711 C64.4912986,66.8569097 65.8006025,64.8321457 65.5617249,64.6003038 L65.4605453,64.501972 C65.2216677,64.2702138 63.2368562,65.6392371 63.0050143,65.8782822 L59.7096426,69.2737446 L58.698517,59.2438172 L57.0894436,48.7105884 C57.0894436,48.7105884 57.104185,48.6955958 58.1530017,47.6235781 C59.2030747,46.5512255 61.2544738,42.0751184 62.248094,40.1263228 C63.2405416,38.177946 65.1881646,35.4259957 69.1961486,30.7686365 C73.2062267,26.1098533 75.6739026,20.0322948 75.3006773,19.6666077 L75.1629792,19.5330138 C74.7864036,19.1708446 68.785316,21.8191863 64.2484007,25.9664598"/></g></svg>