<svg xmlns="http://www.w3.org/2000/svg" width="121" height="121" viewBox="0 0 121 121"><g fill="none" fill-rule="evenodd" transform="translate(19)"><path fill="#000" d="M72,0 L12,0 C5.3862915,0 0,5.3862915 0,12 L0,75.6 C0,78.7415427 1.26817355,81.7534549 3.55735931,84.0426407 L37.4387106,118.22391 C39.771575,120.577419 43.5706542,120.594082 45.9240736,118.261127 L80.4240736,84.0611269 C82.7318264,81.7534549 84,78.7415427 84,75.6 L84,12 C84,5.3862915 78.6137085,0 72,0 Z M72,6 C75.3,6 78,8.7 78,12 L78,75.6 C78,77.1 77.4,78.6 76.2,79.8 L41.7,114 L7.8,79.8 C6.6,78.6 6,77.1 6,75.6 L6,12 C6,8.7 8.7,6 12,6 L72,6 Z"/><path fill="#D5D5D5" d="M76.2,79.8 L41.7,114 L7.8,79.8 C6.6,78.6 6,77.1 6,75.6 L6,12 C6,8.7 8.7,6 12,6 L72,6 C75.3,6 78,8.7 78,12 L78,75.6 C78,77.1 77.4,78.6 76.2,79.8 Z"/><g transform="translate(9 15)"><rect width="66" height="66"/><g fill="#000" fill-rule="nonzero" transform="translate(1.031 14.438)"><path d="M63.6353438 22.3854469 55.0207969 13.7707969C54.8193937 13.5693937 54.4931062 13.5693937 54.2917031 13.7707969L45.6771562 22.3854469C45.4835906 22.5789094 45.375 22.8411563 45.375 23.1146437L45.375 24.234375C45.375 24.5191031 45.6058969 24.75 45.890625 24.75L47.4375 24.75 47.4375 33 52.59375 33 52.59375 26.8125 56.71875 26.8125 56.71875 33 61.875 33 61.875 24.75 63.421875 24.75C63.7066031 24.75 63.9375 24.5191031 63.9375 24.234375L63.9375 23.1146437C63.9375 22.8411563 63.8289094 22.5789094 63.6353438 22.3854469ZM13.9692094 9.343125C12.2602219 9.343125 10.2178312 8.00023125 9.5803125 7.48656563L8.28021563 6.43469063 6.9790875 7.48305938C6.33651562 8.00023125 4.29422813 9.343125 2.58420938 9.343125 1.73384063 9.343125.801384375 9.0102375 0 8.61289688L0 12.984675C.81283125 13.2364031 1.68660938 13.40625 2.58420938 13.40625 4.84213125 13.40625 6.96702188 12.3548906 8.277225 11.5381406 9.58742813 12.3548906 11.7123187 13.40625 13.9692094 13.40625 14.1054375 13.40625 14.2393969 13.3934625 14.3737687 13.3836656L16.8305156 8.46254063C15.9702469 8.92227188 14.9236312 9.343125 13.9692094 9.343125Z"/><path d="M44.4990563,33.7852969 L32.7575531,1.91575312 C32.2801875,0.756525 31.1504531,0 29.8969687,0 L25.4257781,0 C24.2474719,0 23.1716719,0.669075 22.6507875,1.72579688 L14.532375,18.1940344 C13.6629281,19.957575 12.0072563,21.2029125 10.0716,21.549 L0,23.3498719 L0,40.21875 L63.9375,40.21875 L63.9375,35.0625 L46.40625,35.0625 C45.570525,35.0625 44.8173,34.5581156 44.4990563,33.7852969 Z"/></g></g></g></svg>