<svg xmlns="http://www.w3.org/2000/svg" width="121" height="121" viewBox="0 0 121 121"><g fill="none" fill-rule="evenodd" transform="translate(19)"><path fill="#000" d="M72,0 L12,0 C5.3862915,0 0,5.3862915 0,12 L0,75.6 C0,78.7415427 1.26817355,81.7534549 3.55735931,84.0426407 L37.4387106,118.22391 C39.771575,120.577419 43.5706542,120.594082 45.9240736,118.261127 L80.4240736,84.0611269 C82.7318264,81.7534549 84,78.7415427 84,75.6 L84,12 C84,5.3862915 78.6137085,0 72,0 Z M72,6 C75.3,6 78,8.7 78,12 L78,75.6 C78,77.1 77.4,78.6 76.2,79.8 L41.7,114 L7.8,79.8 C6.6,78.6 6,77.1 6,75.6 L6,12 C6,8.7 8.7,6 12,6 L72,6 Z"/><path fill="#D5D5D5" d="M76.2,79.8 L41.7,114 L7.8,79.8 C6.6,78.6 6,77.1 6,75.6 L6,12 C6,8.7 8.7,6 12,6 L72,6 C75.3,6 78,8.7 78,12 L78,75.6 C78,77.1 77.4,78.6 76.2,79.8 Z"/><path fill="#000" d="M9.63049812,11.6607842 C9.80786847,11.668078 10.6824493,11.7923002 11.5570302,13.475742 C11.7934686,13.9311935 12.0362574,14.4099023 12.2685551,14.8741044 L12.4647054,15.2675585 C13.1073566,16.5613579 13.6250853,17.6486555 13.6250853,17.6486555 L13.5981907,17.7350014 C14.7716457,17.8425799 15.909713,18.0704764 17.0081461,18.3932119 L17.0322097,18.2771404 L20.7733936,15.0469543 C20.7733936,15.0469543 21.9624192,13.8267877 23.4656872,14.9266363 L24.5443032,15.6867633 C24.5443032,15.6867633 25.3115078,16.2982622 24.7410586,18.3450847 C24.3744424,19.6671679 23.9299733,21.1308017 23.6596116,22.0098313 C24.4522953,22.6921054 25.1940207,23.4295844 25.8593088,24.2364231 C26.650577,24.0920415 28.4511014,23.7678905 30.0364688,23.5258388 C31.8270846,23.2521218 32.4672761,23.8165711 32.6176623,23.9898228 L32.6462169,24.0253365 C32.6523211,24.0336776 32.655156,24.0382522 32.655156,24.0382522 L33.2779789,25.1989676 C34.1270806,26.7092121 33.018479,27.7056204 32.8557752,27.8402591 L32.8363408,27.8558735 L29.3471171,31.0393478 C29.7505364,32.5412003 29.9855105,34.1109971 29.9855105,35.7359987 C29.9855105,35.7402452 29.984095,35.7430762 29.984095,35.7459073 L34.0480145,37.7446026 C34.0480145,37.7446026 35.6376284,38.3603479 35.2129764,40.1736119 L35.0432626,40.9697537 C35.0841991,40.9636579 35.1233636,40.9578443 35.1605927,40.9523316 L35.36969,40.921509 C35.489623,40.9039 35.5685517,40.8924061 35.5940308,40.8884427 C35.8077723,40.4255721 36.0484084,39.9825185 36.3216012,39.5550355 L36.2338397,39.5168168 L34.7532199,36.8245233 C34.7532199,36.8245233 34.1629536,35.9440782 35.0264126,35.1726271 L35.6251719,34.6149175 C35.6251719,34.6149175 36.0979511,34.2270687 37.2714061,34.8357365 C38.2481056,35.3453189 39.3550318,35.9624798 39.6961689,36.1549887 C40.4294013,35.6822095 41.2206695,35.2929452 42.0558184,34.9971043 L42.0501563,34.9871957 L42.3856314,31.9353635 C42.3856314,31.9353635 42.406864,30.8751491 43.5576709,30.7392604 L44.3701717,30.6258074 L44.3862095,30.6257083 C44.4861212,30.6285293 45.0369427,30.6938968 45.5889228,31.7555942 C45.67173,31.9154177 45.7558269,32.0798212 45.8393219,32.2445836 L46.0049492,32.5733364 C46.4687772,33.4990713 46.8727873,34.3459712 46.8727873,34.3459712 L46.8572167,34.401176 C47.5862026,34.4691203 48.2939559,34.610671 48.9762301,34.8102574 L48.9918007,34.7380666 L51.317478,32.7322937 C51.317478,32.7322937 52.0563725,31.9721667 52.9920223,32.6572719 L53.6629724,33.1272201 C53.6629724,33.1272201 54.1385827,33.5094068 53.784706,34.7819473 C53.5553939,35.6057721 53.2807857,36.5131118 53.1109249,37.0594974 C53.6049367,37.4827339 54.0663918,37.9427735 54.4797197,38.4452783 C54.972316,38.3532704 56.0919818,38.153684 57.0771743,38.0022248 C58.3836869,37.8040538 58.7050069,38.3207138 58.7050069,38.3207138 L59.0914402,39.0440376 C59.6604739,40.0532938 58.816832,40.6973493 58.816832,40.6973493 L56.6482759,42.674812 C56.8988205,43.6062154 57.0446177,44.5843304 57.0446177,45.5950021 L59.5698815,46.8420635 C59.5698815,46.8420635 60.5593206,47.2242502 60.2946208,48.3538245 L60.12476,49.1535857 C60.12476,49.1535857 59.9605613,49.7424365 58.6498022,49.9151283 C58.5682926,49.9258625 58.4857803,49.9365181 58.402707,49.9470632 L57.9010655,50.0087508 C57.1490998,50.0985248 56.4232103,50.174166 56.04527,50.2123847 C55.7819858,50.7941579 55.4804829,51.353283 55.1280218,51.8770204 C55.3700734,52.3540461 55.8442681,53.3052666 56.243441,54.1602325 C56.8039816,55.3591666 56.3977312,55.8135442 56.3977312,55.8135442 L55.8145425,56.3882399 C55.0048727,57.2191423 54.1513222,56.5920729 54.1513222,56.5920729 L51.74213,55.1312701 C51.2014065,55.4667451 50.6366193,55.7640015 50.0421066,56.0074687 C49.9883173,56.4349516 49.8311961,57.6452098 49.6613353,58.7011777 C49.4546713,60.0062748 48.8615741,60.154903 48.8615741,60.154903 L48.0561508,60.3035312 C46.9209145,60.5399208 46.5656224,59.5377421 46.5656224,59.5377421 L45.3157301,56.8171384 C44.549941,56.7859973 43.8053845,56.6770033 43.0848917,56.5000649 C42.7932973,56.8072299 41.9496554,57.698999 41.1895283,58.4577106 C40.2538785,59.3905294 39.6862603,59.1626328 39.6862603,59.1626328 L38.9459504,58.8101717 C37.891398,58.333146 38.1914854,57.3153967 38.1914854,57.3153967 L38.7817516,54.3782206 C38.1504357,53.8700537 37.5743245,53.30102 37.0647421,52.6739506 C36.5381737,52.8098393 35.5289175,53.0646304 34.6244088,53.2656324 C33.3348822,53.5558112 32.9767591,53.0603839 32.9767591,53.0603839 L32.540783,52.3710322 C31.9023896,51.4014102 32.6993198,50.7021499 32.6993198,50.7021499 L34.8183332,48.4783891 L34.9344047,48.4599875 C34.6923531,47.5427392 34.5522179,46.5872723 34.5522179,45.5935866 C34.5522179,45.5893401 34.5536334,45.5836781 34.5536334,45.5766006 L31.9731649,44.4470263 C31.9731649,44.4470263 30.9681552,44.1073047 31.1818967,42.9706529 L31.2009,42.85629 C30.0499716,42.992292 28.9597085,43.1053462 28.3774951,43.1631618 C27.9556741,44.1002272 27.4701553,44.9990739 26.9025372,45.8398848 C26.9283938,45.8910318 26.9559238,45.9455759 26.9849801,46.0032451 L27.1764547,46.384583 C27.5913227,47.213549 28.1835706,48.4141251 28.698815,49.5159554 C29.5990772,51.4410444 28.9436977,52.1756923 28.9436977,52.1756923 L28.0052168,53.1000181 C26.7057818,54.4362563 25.3313249,53.4270001 25.3313249,53.4270001 L21.4542523,51.0758437 C20.5879623,51.6151517 19.679207,52.0921774 18.7209091,52.4842727 C18.6345632,53.1736244 18.3811875,55.119946 18.1108257,56.8171384 C17.7767662,58.9177502 16.8227147,59.1583863 16.8227147,59.1583863 L15.5275262,59.3947759 C13.7029382,59.7727162 13.1310735,58.1661162 13.1310735,58.1661162 L11.1210542,53.7879543 C9.88956342,53.7327496 8.68921383,53.5586422 7.53274494,53.2741254 C7.06138125,53.7752148 5.70532593,55.2062919 4.48232823,56.4292896 C2.97622922,57.9268956 2.06605848,57.5645259 2.06605848,57.5645259 L0.875617433,56.9954923 C-0.821574974,56.2240412 -0.338887225,54.5905465 -0.338887225,54.5905465 L0.612333206,49.861339 C-0.404000529,49.0488382 -1.33115735,48.1330055 -2.15215117,47.1265803 C-3.00003962,47.3431528 -4.62221018,47.7522342 -6.07735096,48.0778007 C-8.15106812,48.5435024 -8.7271793,47.7479877 -8.7271793,47.7479877 L-9.42927057,46.633984 C-10.4540973,45.0755112 -9.17306388,43.951599 -9.17306388,43.951599 L-5.764524,40.3746138 L-5.57767713,40.3448882 C-5.96552594,38.8713458 -6.19200699,37.3326902 -6.19200699,35.7359987 C-6.19200699,35.7275057 -6.19059149,35.7175971 -6.19059149,35.7076886 L-10.3408568,33.8887626 C-10.3408568,33.8887626 -11.9573654,33.3437926 -11.6119817,31.512127 L-11.3939937,30.212692 C-11.3939937,30.212692 -11.1703437,29.2558095 -9.07822494,28.8877778 C-8.85567585,28.8481436 -8.62877538,28.8087716 -8.40096037,28.7700558 L-7.94512928,28.6936162 C-6.27674516,28.4174024 -4.68239542,28.1906146 -4.51746269,28.1687005 C-4.17349459,27.4255595 -3.78423028,26.7078977 -3.34683874,26.024208 L-3.4883894,25.9605102 L-5.86785598,21.631891 L-5.88034917,21.6121957 C-5.98792999,21.4372883 -6.72331007,20.1293552 -5.43046444,18.9735696 L-4.46650445,18.0733074 C-4.46650445,18.0733074 -3.70496191,17.4533155 -1.82092263,18.4328461 C-1.5846038,18.5555705 -1.34366689,18.6822761 -1.10296088,18.8100485 L-0.623293464,19.0661526 C0.567921687,19.7056519 1.67254765,20.3232552 2.08446006,20.5546905 C3.26074604,19.7917324 4.53328647,19.170325 5.87801774,18.6961303 L5.86669368,18.6777287 L6.4060017,13.7659209 C6.4060017,13.7659209 6.44280487,12.0616509 8.29287199,11.8450784 L9.59796907,11.6607174 Z M45.7984178,38.3122207 C41.7769636,38.3122207 38.5170519,41.5735479 38.5170519,45.5935866 C38.5170519,49.6178719 41.7769636,52.8777836 45.7984178,52.8777836 C49.819872,52.8777836 53.0797837,49.6178719 53.0797837,45.5935866 C53.0797837,41.5735479 49.819872,38.3122207 45.7984178,38.3122207 Z M11.8967518,24.0240972 C5.42788664,24.0240972 0.183434708,29.2671336 0.183434708,35.7359987 C0.183434708,42.2062794 5.42788664,47.4507313 11.8967518,47.4507313 C18.3656169,47.4507313 23.6086533,42.2062794 23.6086533,35.7359987 C23.6086533,29.2671336 18.3656169,24.0240972 11.8967518,24.0240972 Z" transform="matrix(0 -1 -1 0 79.052 72.663)"/></g></svg>