<svg xmlns="http://www.w3.org/2000/svg" width="121" height="121" viewBox="0 0 121 121"><g fill="none" opacity=".9" transform="translate(12 12)"><path fill="#FFF" d="M48,0 C21.490332,0 0,21.490332 0,48 C0,74.509668 21.490332,96 48,96 C74.509668,96 96,74.509668 96,48 C96,21.490332 74.509668,0 48,0 Z M48,6 C71.1959595,6 90,24.8040405 90,48 C90,71.1959595 71.1959595,90 48,90 C24.8040405,90 6,71.1959595 6,48 C6,24.8040405 24.8040405,6 48,6 Z"/><circle cx="48" cy="48" r="42" fill="#182866" fill-rule="evenodd"/><path fill="#FFF" d="M36,3 L63,15 L63,33 C62.9984114,37.1155173 62.3089108,41.2018224 60.96,45.09 C59.6395776,48.9336224 57.7264881,52.5472359 55.29,55.8 C52.9119174,58.9986129 50.035239,61.7942581 46.77,64.08 C43.5318629,66.4008991 39.8743327,68.0717486 36,69 C32.1252571,68.0267278 28.4705384,66.3266219 25.23,63.99 C21.964761,61.7042581 19.0880826,58.9086129 16.71,55.71 C14.2735119,52.4572359 12.3604224,48.8436224 11.04,45 C9.69385898,41.1421907 9.00429353,37.0859234 9,33 L9,15 L36,3 Z M45.5466,17.1809999 L18.8177999,17.1809999 C16.7177999,17.1809999 14.9999999,18.8987999 14.9999999,20.9987999 L14.9999999,41.9988 L18.8177999,41.9988 C18.8177999,45.2433 21.2999999,47.7255 24.5444999,47.7255 C27.7889999,47.7255 30.2711999,45.2433 30.2711999,41.9988 L41.7267,41.9988 C41.7267,45.2433 44.2089,47.7255 47.4534,47.7255 C50.6979,47.7255 53.1801,45.2433 53.1801,41.9988 L56.9999999,41.9988 L56.9999999,32.4543 L51.2733,24.8186999 L45.5466,24.8186999 L45.5466,17.1809999 Z M24.5444999,39.1344 C26.0732999,39.1344 27.4088999,40.47 27.4088999,41.9988 C27.4088999,43.5276 26.0732999,44.8632 24.5444999,44.8632 C23.0177999,44.8632 21.6800999,43.5276 21.6800999,41.9988 C21.6800999,40.47 23.0156999,39.1344 24.5444999,39.1344 Z M47.4555,39.1344 C48.9822,39.1344 50.3199,40.47 50.3199,41.9988 C50.3178,43.5276 48.9822,44.8632 47.4555,44.8632 C45.9288,44.8632 44.5911,43.5276 44.5911,41.9988 C44.5911,40.47 45.9267,39.1344 47.4555,39.1344 Z M50.3178,27.681 L54.1356,32.4543 L45.5445,32.4543 L45.5445,27.681 L50.3178,27.681 Z" transform="translate(12 12)"/></g></svg>