<svg xmlns="http://www.w3.org/2000/svg" width="121" height="121" viewBox="0 0 121 121"><g fill="none" opacity=".9" transform="translate(12 12)"><path fill="#FFF" d="M48,0 C21.490332,0 0,21.490332 0,48 C0,74.509668 21.490332,96 48,96 C74.509668,96 96,74.509668 96,48 C96,21.490332 74.509668,0 48,0 Z M48,6 C71.1959595,6 90,24.8040405 90,48 C90,71.1959595 71.1959595,90 48,90 C24.8040405,90 6,71.1959595 6,48 C6,24.8040405 24.8040405,6 48,6 Z"/><circle cx="48" cy="48" r="42" fill="#182866" fill-rule="evenodd"/><path fill="#FFF" d="M49.6380001,14.1809999 L49.6380001,25.092 L57.8190001,25.092 L65.9999999,36 L65.9999999,49.6350001 L60.5430001,49.6350001 C60.5430001,54.2700001 56.9970001,57.8160001 52.3620001,57.8160001 C47.727,57.8160001 44.181,54.2700001 44.181,49.6350001 L27.816,49.6350001 C27.816,54.2700001 24.27,57.8160001 19.6349999,57.8160001 C14.9999999,57.8160001 11.4539999,54.2700001 11.4539999,49.6350001 L5.99999988,49.6350001 L5.99999988,19.6349999 C5.99999988,16.6349999 8.45399989,14.1809999 11.4539999,14.1809999 L49.6380001,14.1809999 Z M19.6349999,45.543 C17.4509999,45.543 15.5429999,47.451 15.5429999,49.6350001 C15.5429999,51.8190001 17.4539999,53.7270001 19.6349999,53.7270001 C21.8189999,53.7270001 23.7269999,51.8190001 23.7269999,49.6350001 C23.7269999,47.451 21.8189999,45.543 19.6349999,45.543 Z M52.3650001,45.543 C50.1810001,45.543 48.2730001,47.451 48.2730001,49.6350001 C48.2730001,51.8190001 50.1840001,53.7270001 52.3650001,53.7270001 C54.5460001,53.7270001 56.4540001,51.8190001 56.4570001,49.6350001 C56.4570001,47.451 54.5460001,45.543 52.3650001,45.543 Z M27.783,17.0309999 C27.294,16.8659999 26.802,16.8659999 26.31,17.0309999 L14.6819999,22.9289999 C14.1899999,23.2559999 13.8629999,23.5859999 13.8629999,24.24 L13.8629999,36.855 C13.8629999,37.347 14.1899999,37.674 14.5169999,38.001 L26.148,44.061 C26.637,44.226 27.129,44.226 27.621,44.061 L39.252,38.163 C39.744,37.836 40.071,37.344 40.071,36.852 L40.068,24.237 C40.068,23.5829999 39.741,23.2559999 39.414,23.0909999 Z M56.4540001,29.181 L49.6350001,29.181 L49.6350001,36 L61.9080001,36 L56.4540001,29.181 Z M26.967,19.4879999 L35.811,24.24 L26.967,28.827 L18.1199999,24.24 L26.967,19.4879999 Z" transform="translate(12 12)"/></g></svg>