<svg xmlns="http://www.w3.org/2000/svg" width="121" height="121" viewBox="0 0 121 121"><g fill="none" opacity=".9" transform="translate(12 12)"><path fill="#FFF" d="M48,0 C21.490332,0 0,21.490332 0,48 C0,74.509668 21.490332,96 48,96 C74.509668,96 96,74.509668 96,48 C96,21.490332 74.509668,0 48,0 Z M48,6 C71.1959595,6 90,24.8040405 90,48 C90,71.1959595 71.1959595,90 48,90 C24.8040405,90 6,71.1959595 6,48 C6,24.8040405 24.8040405,6 48,6 Z"/><circle cx="48" cy="48" r="42" fill="#182866" fill-rule="evenodd"/><path fill="#FFF" d="M57.8190001,25.092 L49.6380001,25.092 L49.6380001,14.1809999 L11.4539999,14.1809999 C8.45399989,14.1809999 5.99999988,16.6349999 5.99999988,19.6349999 L5.99999988,49.6350001 L11.4539999,49.6350001 C11.4539999,54.2700001 14.9999999,57.8160001 19.6349999,57.8160001 C24.27,57.8160001 27.816,54.2700001 27.816,49.6350001 L44.181,49.6350001 C44.181,54.2700001 47.727,57.8160001 52.3620001,57.8160001 C56.9970001,57.8160001 60.5430001,54.2700001 60.5430001,49.6350001 L65.9999999,49.6350001 L65.9999999,36 L57.8190001,25.092 Z M19.6349999,53.7270001 C17.4539999,53.7270001 15.5429999,51.8190001 15.5429999,49.6350001 C15.5429999,47.451 17.4509999,45.543 19.6349999,45.543 C21.8189999,45.543 23.7269999,47.451 23.7269999,49.6350001 C23.7269999,51.8190001 21.8189999,53.7270001 19.6349999,53.7270001 Z M52.3650001,53.7270001 C50.1840001,53.7270001 48.2730001,51.8190001 48.2730001,49.6350001 C48.2730001,47.451 50.1810001,45.543 52.3650001,45.543 C54.5460001,45.543 56.4570001,47.451 56.4570001,49.6350001 C56.4540001,51.8190001 54.5460001,53.7270001 52.3650001,53.7270001 Z M49.6350001,36 L49.6350001,29.181 L56.4540001,29.181 L61.9080001,36 L49.6350001,36 Z" transform="translate(12 12)"/></g></svg>