<svg xmlns="http://www.w3.org/2000/svg" width="121" height="121" viewBox="0 0 121 121"><g fill="none" fill-rule="evenodd" transform="translate(13 7)"><path fill="#FFF" fill-rule="nonzero" d="M82.9902865,0 C90.1531567,0 95.9887651,5.83560848 95.9887651,12.9984786 L95.9887651,82.9902865 C95.9887651,90.1531567 90.1531567,95.9887651 82.9902865,95.9887651 L60.005,95.988 L47.9943826,108 L35.982,95.988 L12.9984786,95.9887651 C5.9379352,95.9887651 0.167002541,90.3186974 0.00355967765,83.2964409 L0,82.9902865 L0,12.9984786 C0,5.83560848 5.83560848,0 12.9984786,0 Z"/><path fill="#192BC2" d="M82.9902865,5.99929782 C86.839836,5.99929782 89.9894673,9.14892918 89.9894673,12.9984786 L89.9894673,82.9902865 C89.9894673,86.839836 86.839836,89.9894673 82.9902865,89.9894673 L57.5152978,89.9892978 L47.9943826,99.5109936 L38.4732978,89.9892978 L12.9984786,89.9894673 C9.14892918,89.9894673 5.99929782,86.839836 5.99929782,82.9902865 L5.99929782,12.9984786 C5.99929782,9.14892918 9.14892918,5.99929782 12.9984786,5.99929782 L82.9902865,5.99929782 Z"/><path fill="#FFF" d="M79.9697238,42.5279444 C79.9697238,42.5279444 82.55102,44.5178706 79.5041049,46.7881877 C79.5041049,46.7881877 79.1966946,47.0347401 78.7323873,47.3974757 L78.4361794,47.6280162 C78.123552,47.8704127 77.7652787,48.1452485 77.3938703,48.424364 L77.0192877,48.7038631 C76.2034233,49.3080159 75.3767705,49.8881943 74.870007,50.1579772 C74.870007,50.1579772 67.7871613,54.0817514 62.5735888,50.1579772 L60.9269291,48.7866105 C60.9269291,48.7866105 57.3872057,46.6182538 53.9052597,48.7866105 C53.9052597,48.7866105 50.4437058,51.6143109 47.072217,51.4766644 C43.7007281,51.3356193 40.6487149,49.7178484 39.5798306,48.9514464 C39.5798306,48.9514464 36.1233747,46.504398 33.0815576,48.9514464 L33.0623333,48.9698647 C32.794436,49.2234144 29.7527839,52.0036141 25.5823739,51.6143109 C25.5823739,51.6143109 20.3450106,51.1198032 17.1842398,47.9080522 C17.1842398,47.9080522 13.6513137,45.3590434 15.5681682,43.4642803 C15.5681682,43.4642803 16.6710393,41.7377517 18.5369137,43.187288 L22.486178,45.6887152 C22.486178,45.6887152 25.9392351,47.936941 29.2359531,45.6887152 L33.299073,43.187288 C33.299073,43.187288 36.3731776,41.4029819 40.2663636,43.493169 C43.1648829,45.0423341 44.2564598,45.5929751 44.6252595,45.7733198 L44.6862042,45.8029484 C44.7657101,45.8413424 44.7934031,45.8535511 44.7934031,45.8535511 C44.7934031,45.8535511 47.072217,47.962431 50.088544,45.8535511 L54.1516639,43.4353915 C54.1516639,43.4353915 58.2079865,40.6926581 61.8054875,43.4353915 L64.9628596,45.8535511 C64.9628596,45.8535511 68.5552626,47.857072 71.6259685,45.8535511 L75.9117019,42.801538 C75.9117019,42.801538 78.1599276,40.7436383 79.9697238,42.5279444 Z M71.7846868,28.1522148 L71.8322446,28.152705 L71.8774707,28.151705 C72.159556,28.151705 72.4341919,28.1876619 72.6980777,28.2557684 C74.3525777,28.636801 75.5810105,30.0312179 75.5810105,31.6919383 C75.5810105,31.7963005 75.5761677,31.8996033 75.5666808,32.0016625 C75.5753853,32.1258995 75.5803307,32.2521252 75.5803307,32.3796609 L75.5803307,38.5788501 C75.5803307,40.9154415 73.9251744,42.8017079 71.8774707,42.8017079 C69.8280677,42.8017079 68.1729113,40.9154415 68.1729113,38.5788501 L68.1722446,35.230705 L26.3482446,35.230705 L26.3491157,38.5788501 C26.3491157,40.9154415 24.6956587,42.8017079 22.647955,42.8017079 C20.6070487,42.8017079 18.9467944,40.9154415 18.9467944,38.5788501 L18.9467944,32.3796609 C18.9467944,32.2511103 18.9518342,32.1238906 18.9617,31.9982455 C18.9518825,31.8975776 18.9471342,31.7952774 18.9471342,31.6919383 C18.9471342,30.0382223 20.1652265,28.6485682 21.8115977,28.2602726 C22.0804177,28.189317 22.3604083,28.151705 22.647955,28.151705 L71.7846868,28.1522148 Z M71.8774707,53.1814415 C73.9251744,53.1814415 75.5803307,55.0677079 75.5803307,57.4042993 L75.5803307,63.6034886 C75.5803307,63.7309576 75.5753905,63.857118 75.5657159,63.9817323 C75.5761568,64.0833138 75.5810105,64.1867315 75.5810105,64.2912111 C75.5810105,65.9569347 74.3451648,67.3547478 72.6827214,67.7311763 C72.4237732,67.7968383 72.1542067,67.8314444 71.8774707,67.8314444 L71.8322446,67.829705 L71.7846868,67.8309346 L22.7468566,67.8309346 C22.729429,67.8309346 22.7120288,67.8308253 22.6946568,67.8306073 L22.647955,67.8314444 C22.3643181,67.8314444 22.0880332,67.7948483 21.8225351,67.7255653 C20.1706375,67.3407461 18.9471342,65.9485961 18.9471342,64.2912111 C18.9471342,64.1877492 18.9518938,64.0853285 18.9612199,63.9841285 C18.9518294,63.8591364 18.9467944,63.7319773 18.9467944,63.6034886 L18.9467944,57.4042993 C18.9467944,55.0677079 20.6070487,53.1814415 22.647955,53.1814415 C24.6956587,53.1814415 26.3491157,55.0677079 26.3491157,57.4042993 L26.3482446,60.750705 L68.1722446,60.750705 L68.1729113,57.4042993 C68.1729113,55.0677079 69.8280677,53.1814415 71.8774707,53.1814415 Z"/></g></svg>