<?xml version="1.0" encoding="UTF-8" standalone="no"?>
<svg viewBox="0 0 58 55" xmlns="http://www.w3.org/2000/svg" data-reactroot=""><defs><filter x="-39.8%" y="-41.7%" width="179.5%" height="183.3%" filterUnits="objectBoundingBox" id="a"><feOffset dy="2" in="SourceAlpha" result="shadowOffsetOuter1"></feOffset><feGaussianBlur stdDeviation="3.5" in="shadowOffsetOuter1" result="shadowBlurOuter1"></feGaussianBlur><feColorMatrix values="0 0 0 0 0 0 0 0 0 0 0 0 0 0 0 0 0 0 0.4 0" in="shadowBlurOuter1" result="shadowMatrixOuter1"></feColorMatrix><feMerge><feMergeNode in="shadowMatrixOuter1"></feMergeNode><feMergeNode in="SourceGraphic"></feMergeNode></feMerge></filter></defs><g filter="url(#a)" transform="translate(7 5)" fill="none" fill-rule="evenodd"><path stroke="#0073bf" stroke-width="0" fill="#d52b1e" d="M23.36.763l20.418 33.879c.446.74.2 1.698-.552 2.139-.244.143-.523.219-.808.219h-15.44L22 42l-4.945-5H1.582A1.571 1.571 0 0 1 0 35.44c0-.281.077-.557.222-.798L20.64.763a1.594 1.594 0 0 1 2.72 0z"></path><path fill="#FFF" d="M22 4.325L39.904 34H4.114z"></path><g><path d="M0 0H20V20H0z" transform="translate(12 12)"></path><path fill="#222" d="M16.247 16.95c-.235-.232-2.573-.34-4.353-.388-.002-.024.009-.07.09-.1.271-.102 1.732-.285 2.4-.322L11.506 1.752c-.059-.292-.315-.502-.613-.502H9.106c-.298 0-.554.21-.613.502L5.51 16.675c-.948.066-1.637.158-1.756.276-.156.155-.284.475-.284.862 0 .517.21.937.468.937h12.125c.26 0 .47-.42.47-.938 0-.386-.129-.706-.285-.861zM9.18 4.688h1.638l.563 2.813H8.619l.562-2.813zm-1.187 5.938h4.013l.57 2.85H7.423l.57-2.85z" transform="translate(12 12)"></path></g></g></svg>
