<?xml version="1.0" encoding="UTF-8" standalone="no"?>
<svg viewBox="0 0 58 55" xmlns="http://www.w3.org/2000/svg" data-reactroot=""><defs><filter x="-39.8%" y="-41.7%" width="179.5%" height="183.3%" filterUnits="objectBoundingBox" id="a"><feOffset dy="2" in="SourceAlpha" result="shadowOffsetOuter1"></feOffset><feGaussianBlur stdDeviation="3.5" in="shadowOffsetOuter1" result="shadowBlurOuter1"></feGaussianBlur><feColorMatrix values="0 0 0 0 0 0 0 0 0 0 0 0 0 0 0 0 0 0 0.4 0" in="shadowBlurOuter1" result="shadowMatrixOuter1"></feColorMatrix><feMerge><feMergeNode in="shadowMatrixOuter1"></feMergeNode><feMergeNode in="SourceGraphic"></feMergeNode></feMerge></filter></defs><g filter="url(#a)" transform="translate(7 5)" fill="none" fill-rule="evenodd"><path stroke="#0073bf" stroke-width="2" fill="#ff8f1f" d="M23.36.763l20.418 33.879c.446.74.2 1.698-.552 2.139-.244.143-.523.219-.808.219h-15.44L22 42l-4.945-5H1.582A1.571 1.571 0 0 1 0 35.44c0-.281.077-.557.222-.798L20.64.763a1.594 1.594 0 0 1 2.72 0z"></path><path fill="#FFF" d="M22 4.325L39.904 34H4.114z"></path><g><path d="M14 14h19v19H14z"></path><path d="M26.469 21.422h.292c2.29.014 3.352.183 3.663.508.242.252.657 1.076.895 1.934.308-.043.7-.077.883-.041.416.08.487.51.379.759-.052.119-.24.359-.533.56.477.64.655 1.077.655 2.114v2.832s-.038.83-.154 1.38c-.042.202-.267.345-.481.345h-1.74c-.214 0-.4-.22-.443-.421-.064-.308-.095-.503-.132-1.064h-6.569c-.037.561-.067.756-.132 1.064-.042.2-.228.42-.443.42H20.87c-.214 0-.44-.142-.481-.343-.116-.552-.155-1.38-.155-1.38v-2.833c0-1.037.179-1.473.655-2.115-.292-.2-.48-.44-.532-.56-.109-.248-.037-.678.378-.758.184-.036.576-.002.883.041.238-.858.653-1.682.895-1.934.325-.339 1.463-.508 3.956-.508zm1.781 7.422h-3.562v.593h3.562v-.593zm-6.346-2.171c-.26-.073-.524.145-.487.402l.06.416c.071.344.312.657.705.688l1.45.116c.087.008.158-.071.137-.15l-.161-.598a.886.886 0 0 0-.53-.548zm9.208-.013l-.078.013-1.174.326a.886.886 0 0 0-.53.548l-.161.598c-.022.079.05.158.136.15l1.45-.116c.393-.03.634-.344.706-.688l.06-.416c.037-.257-.227-.475-.487-.402zm-8.8-8.504c2.137 0 3.113.145 3.391.436.207.216.563.922.767 1.658.264-.038.6-.066.757-.036.314.061.398.354.35.569a41.303 41.303 0 0 0-1.961-.006c-.192-.62-.453-1.352-.537-1.495-.124-.062-1.033-.167-2.766-.167-1.734 0-2.643.105-2.767.167-.123.208-.62 1.664-.732 2.21.543.15 1.776.259 3 .283-.226.342-.465.843-.658 1.386a2.327 2.327 0 0 0-.545.02 1.15 1.15 0 0 0-.607.321l-.09.103-.054-.198a.751.751 0 0 0-.35-.421l-.104-.05-1.006-.279a.334.334 0 0 0-.42.273l.002.072.051.356c.055.262.224.504.498.573l.107.017 1.061.085c-.069.267-.05.56.06.81.055.127.148.266.272.406a3.057 3.057 0 0 0-.176.357l-.07.184h-.288a5.432 5.432 0 0 1-.113.912c-.031.147-.153.307-.302.35l-.078.01h-1.49c-.184 0-.377-.122-.413-.294-.092-.437-.127-1.075-.132-1.171v-2.44c0-.889.153-1.263.561-1.813-.25-.172-.412-.377-.456-.48-.093-.213-.032-.58.324-.65.158-.03.493-.002.757.036.204-.736.56-1.442.767-1.658.278-.29 1.254-.436 3.39-.436zm4.157 4.384l-.27.001c-1.847.01-2.82.125-2.958.194-.143.243-.723 1.942-.854 2.579.72.2 2.481.335 4.082.335l.284-.001c1.52-.015 3.12-.146 3.797-.334-.13-.637-.71-2.336-.854-2.579-.144-.072-1.205-.195-3.227-.195zm-7.719-7.353l.26.001c1.6.012 2.345.132 2.565.362.173.18.47.769.64 1.382.22-.031.5-.055.63-.03.297.058.348.365.27.542a.486.486 0 0 1-.038.067 37.8 37.8 0 0 0-1.532 0c-.16-.541-.413-1.255-.49-1.385-.103-.052-.86-.14-2.305-.14-1.444 0-2.202.088-2.305.14-.103.173-.517 1.387-.61 1.841.46.128 1.522.22 2.56.237-.226.27-.493.78-.7 1.347-.16-.007-.307 0-.422.022a1.084 1.084 0 0 0-.39.158l-.11.082-.066-.25a.626.626 0 0 0-.292-.35l-.087-.042-.839-.233a.278.278 0 0 0-.349.228l.001.06.043.296c.045.215.182.414.404.475l.1.017.856.069-.032.048a1.175 1.175 0 0 0-.037.995c.045.103.116.214.207.324l-.026.05-.025.05h-.227c-.026.4-.048.539-.094.759-.026.123-.128.256-.253.291l-.064.01h-1.242c-.153 0-.314-.103-.344-.246a7.608 7.608 0 0 1-.11-.974v-2.035c0-.74.127-1.053.468-1.51-.209-.144-.344-.316-.38-.4-.078-.178-.027-.485.27-.542.13-.026.41-.002.63.03.17-.614.467-1.202.64-1.383.22-.23.965-.35 2.565-.362h.52z" fill="#222"></path></g></g></svg>
