<?xml version="1.0" encoding="UTF-8" standalone="no"?>
<svg viewBox="0 0 58 55" xmlns="http://www.w3.org/2000/svg" data-reactroot=""><defs><filter x="-39.8%" y="-41.7%" width="179.5%" height="183.3%" filterUnits="objectBoundingBox" id="a"><feOffset dy="2" in="SourceAlpha" result="shadowOffsetOuter1"></feOffset><feGaussianBlur stdDeviation="3.5" in="shadowOffsetOuter1" result="shadowBlurOuter1"></feGaussianBlur><feColorMatrix values="0 0 0 0 0 0 0 0 0 0 0 0 0 0 0 0 0 0 0.4 0" in="shadowBlurOuter1" result="shadowMatrixOuter1"></feColorMatrix><feMerge><feMergeNode in="shadowMatrixOuter1"></feMergeNode><feMergeNode in="SourceGraphic"></feMergeNode></feMerge></filter></defs><g filter="url(#a)" transform="translate(7 5)" fill="none" fill-rule="evenodd"><path stroke="#0073bf" stroke-width="0" fill="#d52b1e" d="M23.36.763l20.418 33.879c.446.74.2 1.698-.552 2.139-.244.143-.523.219-.808.219h-15.44L22 42l-4.945-5H1.582A1.571 1.571 0 0 1 0 35.44c0-.281.077-.557.222-.798L20.64.763a1.594 1.594 0 0 1 2.72 0z"></path><path fill="#FFF" d="M22 4.325L39.904 34H4.114z"></path><path d="M21.306 26.2c1.486 0 2.336.795 2.336 2.247 0 1.233-.79 2.192-2.306 2.192-1.486 0-2.336-.767-2.336-2.192 0-1.26.788-2.246 2.306-2.246zm2.2-14.2l-.35 8.127v4.077l-3.702.08v-11.99L23.506 12z" fill="#000" fill-rule="nonzero"></path></g></svg>
