<?xml version="1.0" encoding="UTF-8" standalone="no"?>
<svg viewBox="0 0 58 55" xmlns="http://www.w3.org/2000/svg" data-reactroot=""><defs><filter x="-39.8%" y="-41.7%" width="179.5%" height="183.3%" filterUnits="objectBoundingBox" id="a"><feOffset dy="2" in="SourceAlpha" result="shadowOffsetOuter1"></feOffset><feGaussianBlur stdDeviation="3.5" in="shadowOffsetOuter1" result="shadowBlurOuter1"></feGaussianBlur><feColorMatrix values="0 0 0 0 0 0 0 0 0 0 0 0 0 0 0 0 0 0 0.4 0" in="shadowBlurOuter1" result="shadowMatrixOuter1"></feColorMatrix><feMerge><feMergeNode in="shadowMatrixOuter1"></feMergeNode><feMergeNode in="SourceGraphic"></feMergeNode></feMerge></filter></defs><g filter="url(#a)" transform="translate(7 5)" fill="none" fill-rule="evenodd"><path stroke="#0073bf" stroke-width="0" fill="#ffb612" d="M23.36.763l20.418 33.879c.446.74.2 1.698-.552 2.139-.244.143-.523.219-.808.219h-15.44L22 42l-4.945-5H1.582A1.571 1.571 0 0 1 0 35.44c0-.281.077-.557.222-.798L20.64.763a1.594 1.594 0 0 1 2.72 0z"></path><path fill="#FFF" d="M22 4.325L39.904 34H4.114z"></path><g><path d="M14 14h16v16H14z"></path><path d="M25.014 23.737c.45-.59.945-.447 1.382.067 1.65 1.94 3.402 5.696 3.402 5.696H21c-.023.071.581-2.062 1.29-2.835.492-.538 1.47-.931 1.47-.931s.846-1.46 1.254-1.997zm-6.128-7.032c1.064-.037 2.15.965 2.336 1.356.37.782-.177 1.605-.016 3.016 0 0 .306 1.491.478 2.354l.026.13 1.965 1.335-.204.344-.052.087-4.604-3.127c.69 1.53 1.27 2.899 1.301 3.332.077 1.542.096 2.28.143 3.964-.045.002-1.09.04-1.287-1.105-.206-1.202-.344-2.09-.496-2.993l-1.04-1.97-2.677 5.935c-.12-.07-.914-.579-.567-1.614l2.206-6.636s.832.266 1.232.385c.05.015.089.01.106-.005l.01-.02-2.304-1.564c-.195.277-.331.476-.331.476-.288-.407-.338-.852-.09-1.28.198-.343.728-1.432 1.211-1.756.28-.183.368-.205.585-.26.741-.177 1.575-.368 2.07-.384zm1.262 3.054c-.293.487-.626 1.061-.925 1.585l-.217.381 1.646 1.118c-.147-.483-.37-1.38-.415-1.616-.05-.328-.09-.994-.09-1.468zm-3.397-1.538c-.125.065-.542.618-.925 1.148l-.095.132 1.031.7c.233-.51.587-1.275.978-1.942-.361-.06-.832-.119-.989-.038zm5.181-3.675c.634.377.79 1.011.345 1.758-.39.656-1.037.888-1.687.502-.65-.387-.79-1.011-.367-1.722.4-.674 1.042-.934 1.71-.538z" fill="#222"></path></g></g></svg>
