<svg xmlns="http://www.w3.org/2000/svg" width="121" height="121" viewBox="0 0 121 121"><g fill="none" fill-rule="evenodd" transform="translate(13 7)"><path fill="#FFF" fill-rule="nonzero" d="M83,0 C90.1637085,0 96,5.8362915 96,13 L96,83 C96,90.1637085 90.1637085,96 83,96 L60.011,96 L48,108.012641 L35.988,96 L13,96 C5.93863019,96 0.167022087,90.3292686 0.00356009429,83.3061902 L0,83 L0,13 C0,5.8362915 5.8362915,0 13,0 Z"/><path fill="#004535" d="M83,6 C86.85,6 90,9.15 90,13 L90,83 C90,86.85 86.85,90 83,90 L57.522,90 L48,99.5226407 L38.478,90 L13,90 C9.15,90 6,86.85 6,83 L6,13 C6,9.15 9.15,6 13,6 L83,6 Z"/><path fill="#FFF" d="M16.4999999,51 L7.19999988,60.6000001 L11.3999999,64.8000001 L20.9999999,55.5 L27,61.5 L27,45 L10.4999999,45 L16.4999999,51 Z M55.5,20.9999999 L64.8000001,11.3999999 L60.6000001,7.19999988 L51,16.4999999 L45,10.4999999 L45,27 L61.5,27 L55.5,20.9999999 Z M11.3999999,7.19999988 L7.19999988,11.3999999 L16.4999999,20.9999999 L10.4999999,27 L27,27 L27,10.4999999 L20.9999999,16.4999999 L11.3999999,7.19999988 Z M61.5,45 L45,45 L45,61.5 L51,55.5 L60.6000001,64.8000001 L64.8000001,60.6000001 L55.5,51 L61.5,45 Z M42,36 C42,39.315 39.315,42 36,42 C32.685,42 30,39.315 30,36 C30,32.685 32.685,30 36,30 C39.315,30 42,32.685 42,36 Z" transform="translate(12 12)"/></g></svg>