<svg width="22" height="24" viewBox="0 0 22 24" fill="none" xmlns="http://www.w3.org/2000/svg">
<path d="M20.3594 13.3936C20.3499 13.3877 19.7733 13.0412 19.084 14L19.3086 11.1133C19.3086 11.1133 19.5989 11.3678 20.3457 11.1084L20.3594 13.3936ZM22 7.15039L19.9746 8.1543L19.9873 10.0186C20.1979 10.0968 20.3448 10.2777 20.3467 10.4912C20.3485 10.7706 20.0942 11.0002 19.7734 11.002C19.4543 11.0043 19.1972 10.7773 19.1953 10.4971C19.1936 10.2834 19.3391 10.1003 19.5488 10.0205L19.5391 8.37012L17.6318 9.4209L17.6377 10.4092H14.1152C13.2152 10.3448 12.1552 10.3098 11.0205 10.3154C10.0442 10.3198 9.12347 10.3535 8.3125 10.4092H4.4043L4.39844 9.48926L0 7.25391L10.9697 2L22 7.15039ZM10.9961 6.27832C5.80062 6.30235 4.53418 8.00781 4.53418 8.00781L4.53711 8.40137C4.97339 7.98408 6.53632 6.88518 11 6.86426C15.4572 6.84182 17.0399 7.92777 17.4814 8.33887L17.4785 7.94629C17.4785 7.94629 16.189 6.25352 10.9961 6.27832Z" fill="black" fill-opacity="0.5"/>
<mask id="path-2-inside-1_9_4" fill="white">
<path d="M9.98383 15.613L9.8677 15.3459L9.74101 15.089L9.59848 14.8476L9.28175 14.3699L9.12339 14.1336L8.94391 13.9024L8.78555 13.6764L8.61135 13.4452L8.45299 13.2243L8.29462 12.9983L8.15737 12.7774L8.02013 12.5514L7.89871 12.3253L7.79314 12.0993L7.70868 11.8682L7.63477 11.8887L7.56087 11.9195L7.48697 11.9452L7.40779 11.9709L7.33388 11.9914L7.25998 12.0223L7.18608 12.0479L7.04355 12.0993L6.96965 12.1353L6.91686 12.1558L6.84823 12.1969L6.77433 12.2175L6.71099 12.2534L6.64764 12.2791L6.59485 12.3099L6.63708 12.8904L6.69515 13.4298L6.81656 13.9589L6.95909 14.4623L7.12801 14.9401L7.33916 15.3921L7.55031 15.8236L7.78258 16.2243L8.03596 16.5942L8.2999 16.9538L8.5744 17.2774L8.85417 17.5856L9.12867 17.8579L9.419 18.1147L9.69878 18.3459L9.97856 18.5616L10.0577 18.3253L10.1264 18.1096L10.1897 17.8938L10.2267 17.6884L10.2531 17.4932L10.2742 17.3031V16.774L10.2478 16.6045L10.2214 16.4401L10.1422 16.1164L10.0894 15.9623L9.97328 15.6438M13.1881 10.101L13.452 10.137L13.7159 10.1781L13.9799 10.2295L14.2438 10.2808L14.4919 10.3322L14.7559 10.399L14.9987 10.4658L15.2468 10.5428L15.479 10.6199L15.7166 10.7021L15.9383 10.7791L16.1706 10.8664L16.3817 10.9589L16.804 11.1644L17.0046 11.2774L16.9941 11.6884L16.9729 12.0839L16.9307 12.4795L16.8779 12.8545L16.8251 13.2346L16.7407 13.5942L16.6562 13.9538L16.5612 14.2979L16.4556 14.6421L16.3342 14.9709L16.2075 15.2894L16.0703 15.5976L15.9277 15.8955L15.7694 16.1935L15.6216 16.4709L15.4632 16.7483L16.8357 18.2791L17.0627 17.9195L17.2738 17.5599L17.4955 17.1798L17.6909 16.7894L17.8809 16.3784L18.0657 15.9675L18.224 15.536L18.3824 15.0942L18.5144 14.6319L18.6358 14.1695L18.7413 13.6815L18.8364 13.1781L18.905 12.6644L18.9578 12.1353L18.9894 11.5856L19 11.036L18.6833 10.8305L18.3507 10.6147L17.997 10.4247L17.6381 10.25L17.2686 10.0753L16.8674 9.92123L16.4662 9.7774L16.0439 9.64384L15.6216 9.52569L15.1887 9.42295L14.7453 9.32021L14.2966 9.22774L13.8373 9.15069L13.3728 9.08904L12.8977 9.03767L12.4332 9.00171L12.4649 9.06849L12.5071 9.13527L12.5493 9.20719L12.5916 9.27397L12.6813 9.41267L12.7182 9.48459L12.771 9.55137L12.8661 9.69007L12.9083 9.75685L13.0139 9.89555L13.0666 9.95719L13.1194 10.0188L13.1722 10.0908M5.00594 11.2825V11.6935L5.02705 12.089L5.06401 12.4846L5.11679 12.8596L5.18014 13.2397L5.25404 13.5993L5.3385 13.9589L5.43352 14.3031L5.54965 14.6473L5.66579 14.976L5.7872 15.2945L5.92445 15.6027L6.07225 15.9007L6.23062 16.1986L6.38898 16.476L6.5579 16.7534L5.17486 18.2842L4.93731 17.9247L4.72616 17.5651L4.50445 17.1849L4.30914 16.7945L4.1191 16.3836L3.93962 15.9726L3.78126 15.5411L3.6229 15.0993L3.48565 14.637L3.36424 14.1747L3.25866 13.6866L3.1742 13.1832L3.10558 12.6695L3.05279 12.1404L3 11.5908V11.0411L3.23755 10.8767L3.47509 10.7226L3.73903 10.5685L4.00297 10.4247L4.26691 10.2911L4.55724 10.1575L4.84758 10.0394L5.14319 9.92637L5.44936 9.82363L5.76608 9.72089L6.08281 9.61815L6.4101 9.52569L6.73738 9.44349L7.07522 9.36644L7.41834 9.29452L7.76147 9.23288L7.70868 9.37158L7.69284 9.44863L7.66645 9.52055L7.64533 9.58219L7.63477 9.65411L7.61366 9.72089L7.59782 9.78767V9.85445L7.56615 9.99829L7.55559 10.0599L7.54503 10.1267L7.53448 10.25V10.3168L7.34972 10.3579L7.17552 10.399L7.0066 10.4503L6.8324 10.5017L6.66348 10.5531L6.50511 10.6045L6.33619 10.6558L6.18839 10.7175L6.03002 10.7791L5.87166 10.8408L5.72385 10.9024L5.56549 10.9692L5.42824 11.0411L5.14319 11.1747L5.01122 11.2569M10.9974 23L10.802 22.9332L10.5909 22.851L10.3692 22.7483L10.1369 22.6455L9.89409 22.5223L9.64071 22.3887L9.37677 22.2346L9.11283 22.0805L8.84889 21.9007L8.55856 21.7055L8.27879 21.5L7.99373 21.2945L7.7034 21.0634L7.42362 20.8168L7.13329 20.5599L6.85351 20.2877L8.21544 18.7723L8.40548 18.9469L8.77499 19.2757L8.97031 19.4298L9.16034 19.5839L9.35038 19.7123L9.53514 19.8459L9.71462 19.9743L9.89937 20.0925L10.0683 20.1952L10.2372 20.2979L10.3956 20.4007L10.5539 20.4777L10.7123 20.5497L10.8601 20.6267L11.0026 20.6884L11.1399 20.6267L11.2983 20.5497L11.4566 20.4777L11.615 20.3955L11.7733 20.2928L11.9423 20.2003L12.1217 20.0873L12.2959 19.9692L12.4754 19.8459L12.6549 19.7175L12.8449 19.5839L13.0297 19.4298L13.2145 19.2757L13.5945 18.9469L13.7898 18.7723L15.1518 20.2877L14.8667 20.5548L14.5764 20.8116L14.2913 21.0531L14.001 21.2791L13.7107 21.5L13.4309 21.7055L13.1511 21.8904L12.8766 22.0651L12.6127 22.2192L12.3487 22.3733L12.0953 22.5069L11.8578 22.625L11.615 22.7277L11.3933 22.8305L11.1821 22.9178L10.9868 22.9846M13.0825 15.6027L13.2778 15.3202L13.4573 15.0428L13.6051 14.7705L13.7371 14.5137L13.8426 14.2466L13.9324 13.9897L13.9957 13.7329L14.0485 13.4863L14.0855 13.2449L14.1013 13.0086L14.1171 12.7825V12.5668L14.1013 12.3613L14.0802 12.1712L14.0538 11.9812L14.0274 11.8116L14.1171 11.8322L14.2069 11.8579L14.3916 11.9092L14.5658 11.976L14.6608 11.9966L14.7506 12.0274L14.8403 12.0582L14.9248 12.0942L15.0092 12.1199L15.099 12.1507L15.1834 12.2021L15.2573 12.2329L15.3312 12.274L15.4157 12.3099L15.3524 13.0291L15.2362 13.7175L15.0673 14.3545L14.8562 14.9555L14.6028 15.5205L14.3177 16.0342L14.0115 16.5223L13.679 16.964L13.3359 17.3647L12.9822 17.7346L12.6232 18.0685L12.2695 18.3613L11.9211 18.6182L11.5886 18.8442L11.2719 19.0342L10.9815 19.1884L10.9446 19.1781L10.9023 19.1575L10.8654 19.137L10.8232 19.1164L10.7862 19.101L10.7493 19.0702L10.7123 19.0497L10.6595 19.024L10.6278 18.9983L10.5751 18.9726L10.5434 18.9469L10.5012 18.9212L10.4642 18.8956L10.4114 18.8647L10.3745 18.839L10.3322 18.8082L10.7545 18.2432L11.0713 17.6781L11.2824 17.1233L11.4091 16.589L11.4725 16.0753L11.4566 15.5616L11.3827 15.0839L11.2666 14.6319L11.1188 14.2003L10.9499 13.8099L10.7598 13.4503L10.5698 13.1421L10.3797 12.8596L10.2214 12.6233L10.0736 12.4384L9.968 12.3048L9.88882 12.1918L9.80436 12.0736L9.72517 11.9452L9.64071 11.8168L9.54569 11.6832L9.46123 11.5445L9.38205 11.3904L9.30287 11.2517L9.22369 11.0976L9.07588 10.7997L9.02309 10.6455L8.95447 10.4914L8.90168 10.3373L8.84889 10.1832L8.81722 10.0394L8.76443 9.78254L8.72748 9.52569L8.70637 9.25343V8.96062L8.72748 8.66267L8.76443 8.36473L8.83306 8.05651L8.9228 7.73801L9.04421 7.40925L9.20257 7.08048L9.37149 6.74658L9.58265 6.4024L9.84659 6.05308L10.1316 5.7089L10.4589 5.34932L10.839 5L10.9815 5.05137L10.802 5.38527L10.6542 5.69349L10.5328 6.00171L10.4273 6.28938L10.3375 6.56678L10.2689 6.82363L10.2267 7.08048L10.2055 7.32192L10.1897 7.55308L10.2003 7.78425L10.2161 8.00514L10.2583 8.22603L10.3006 8.43151L10.3639 8.64726L10.4273 8.86301L10.5064 9.07877L10.6015 9.30993L10.7281 9.56678L10.8759 9.81336L11.0343 10.0805L11.2191 10.3527L11.4091 10.6301L11.6044 10.9075L11.7997 11.2003L11.9951 11.4829L12.1851 11.7705L12.3593 12.0634L12.5335 12.3562L12.6813 12.6438L12.8133 12.9366L12.9188 13.2243L13.0033 13.5017L13.0191 13.6045L13.035 13.7226L13.0772 13.964V14.0873L13.093 14.2055V14.7295L13.0772 14.8682L13.0561 14.9966L13.035 15.1353L13.0297 15.2791L12.9769 15.5616L13.0825 15.6027Z"/>
</mask>
<path d="M9.98383 15.613L9.8677 15.3459L9.74101 15.089L9.59848 14.8476L9.28175 14.3699L9.12339 14.1336L8.94391 13.9024L8.78555 13.6764L8.61135 13.4452L8.45299 13.2243L8.29462 12.9983L8.15737 12.7774L8.02013 12.5514L7.89871 12.3253L7.79314 12.0993L7.70868 11.8682L7.63477 11.8887L7.56087 11.9195L7.48697 11.9452L7.40779 11.9709L7.33388 11.9914L7.25998 12.0223L7.18608 12.0479L7.04355 12.0993L6.96965 12.1353L6.91686 12.1558L6.84823 12.1969L6.77433 12.2175L6.71099 12.2534L6.64764 12.2791L6.59485 12.3099L6.63708 12.8904L6.69515 13.4298L6.81656 13.9589L6.95909 14.4623L7.12801 14.9401L7.33916 15.3921L7.55031 15.8236L7.78258 16.2243L8.03596 16.5942L8.2999 16.9538L8.5744 17.2774L8.85417 17.5856L9.12867 17.8579L9.419 18.1147L9.69878 18.3459L9.97856 18.5616L10.0577 18.3253L10.1264 18.1096L10.1897 17.8938L10.2267 17.6884L10.2531 17.4932L10.2742 17.3031V16.774L10.2478 16.6045L10.2214 16.4401L10.1422 16.1164L10.0894 15.9623L9.97328 15.6438M13.1881 10.101L13.452 10.137L13.7159 10.1781L13.9799 10.2295L14.2438 10.2808L14.4919 10.3322L14.7559 10.399L14.9987 10.4658L15.2468 10.5428L15.479 10.6199L15.7166 10.7021L15.9383 10.7791L16.1706 10.8664L16.3817 10.9589L16.804 11.1644L17.0046 11.2774L16.9941 11.6884L16.9729 12.0839L16.9307 12.4795L16.8779 12.8545L16.8251 13.2346L16.7407 13.5942L16.6562 13.9538L16.5612 14.2979L16.4556 14.6421L16.3342 14.9709L16.2075 15.2894L16.0703 15.5976L15.9277 15.8955L15.7694 16.1935L15.6216 16.4709L15.4632 16.7483L16.8357 18.2791L17.0627 17.9195L17.2738 17.5599L17.4955 17.1798L17.6909 16.7894L17.8809 16.3784L18.0657 15.9675L18.224 15.536L18.3824 15.0942L18.5144 14.6319L18.6358 14.1695L18.7413 13.6815L18.8364 13.1781L18.905 12.6644L18.9578 12.1353L18.9894 11.5856L19 11.036L18.6833 10.8305L18.3507 10.6147L17.997 10.4247L17.6381 10.25L17.2686 10.0753L16.8674 9.92123L16.4662 9.7774L16.0439 9.64384L15.6216 9.52569L15.1887 9.42295L14.7453 9.32021L14.2966 9.22774L13.8373 9.15069L13.3728 9.08904L12.8977 9.03767L12.4332 9.00171L12.4649 9.06849L12.5071 9.13527L12.5493 9.20719L12.5916 9.27397L12.6813 9.41267L12.7182 9.48459L12.771 9.55137L12.8661 9.69007L12.9083 9.75685L13.0139 9.89555L13.0666 9.95719L13.1194 10.0188L13.1722 10.0908M5.00594 11.2825V11.6935L5.02705 12.089L5.06401 12.4846L5.11679 12.8596L5.18014 13.2397L5.25404 13.5993L5.3385 13.9589L5.43352 14.3031L5.54965 14.6473L5.66579 14.976L5.7872 15.2945L5.92445 15.6027L6.07225 15.9007L6.23062 16.1986L6.38898 16.476L6.5579 16.7534L5.17486 18.2842L4.93731 17.9247L4.72616 17.5651L4.50445 17.1849L4.30914 16.7945L4.1191 16.3836L3.93962 15.9726L3.78126 15.5411L3.6229 15.0993L3.48565 14.637L3.36424 14.1747L3.25866 13.6866L3.1742 13.1832L3.10558 12.6695L3.05279 12.1404L3 11.5908V11.0411L3.23755 10.8767L3.47509 10.7226L3.73903 10.5685L4.00297 10.4247L4.26691 10.2911L4.55724 10.1575L4.84758 10.0394L5.14319 9.92637L5.44936 9.82363L5.76608 9.72089L6.08281 9.61815L6.4101 9.52569L6.73738 9.44349L7.07522 9.36644L7.41834 9.29452L7.76147 9.23288L7.70868 9.37158L7.69284 9.44863L7.66645 9.52055L7.64533 9.58219L7.63477 9.65411L7.61366 9.72089L7.59782 9.78767V9.85445L7.56615 9.99829L7.55559 10.0599L7.54503 10.1267L7.53448 10.25V10.3168L7.34972 10.3579L7.17552 10.399L7.0066 10.4503L6.8324 10.5017L6.66348 10.5531L6.50511 10.6045L6.33619 10.6558L6.18839 10.7175L6.03002 10.7791L5.87166 10.8408L5.72385 10.9024L5.56549 10.9692L5.42824 11.0411L5.14319 11.1747L5.01122 11.2569M10.9974 23L10.802 22.9332L10.5909 22.851L10.3692 22.7483L10.1369 22.6455L9.89409 22.5223L9.64071 22.3887L9.37677 22.2346L9.11283 22.0805L8.84889 21.9007L8.55856 21.7055L8.27879 21.5L7.99373 21.2945L7.7034 21.0634L7.42362 20.8168L7.13329 20.5599L6.85351 20.2877L8.21544 18.7723L8.40548 18.9469L8.77499 19.2757L8.97031 19.4298L9.16034 19.5839L9.35038 19.7123L9.53514 19.8459L9.71462 19.9743L9.89937 20.0925L10.0683 20.1952L10.2372 20.2979L10.3956 20.4007L10.5539 20.4777L10.7123 20.5497L10.8601 20.6267L11.0026 20.6884L11.1399 20.6267L11.2983 20.5497L11.4566 20.4777L11.615 20.3955L11.7733 20.2928L11.9423 20.2003L12.1217 20.0873L12.2959 19.9692L12.4754 19.8459L12.6549 19.7175L12.8449 19.5839L13.0297 19.4298L13.2145 19.2757L13.5945 18.9469L13.7898 18.7723L15.1518 20.2877L14.8667 20.5548L14.5764 20.8116L14.2913 21.0531L14.001 21.2791L13.7107 21.5L13.4309 21.7055L13.1511 21.8904L12.8766 22.0651L12.6127 22.2192L12.3487 22.3733L12.0953 22.5069L11.8578 22.625L11.615 22.7277L11.3933 22.8305L11.1821 22.9178L10.9868 22.9846M13.0825 15.6027L13.2778 15.3202L13.4573 15.0428L13.6051 14.7705L13.7371 14.5137L13.8426 14.2466L13.9324 13.9897L13.9957 13.7329L14.0485 13.4863L14.0855 13.2449L14.1013 13.0086L14.1171 12.7825V12.5668L14.1013 12.3613L14.0802 12.1712L14.0538 11.9812L14.0274 11.8116L14.1171 11.8322L14.2069 11.8579L14.3916 11.9092L14.5658 11.976L14.6608 11.9966L14.7506 12.0274L14.8403 12.0582L14.9248 12.0942L15.0092 12.1199L15.099 12.1507L15.1834 12.2021L15.2573 12.2329L15.3312 12.274L15.4157 12.3099L15.3524 13.0291L15.2362 13.7175L15.0673 14.3545L14.8562 14.9555L14.6028 15.5205L14.3177 16.0342L14.0115 16.5223L13.679 16.964L13.3359 17.3647L12.9822 17.7346L12.6232 18.0685L12.2695 18.3613L11.9211 18.6182L11.5886 18.8442L11.2719 19.0342L10.9815 19.1884L10.9446 19.1781L10.9023 19.1575L10.8654 19.137L10.8232 19.1164L10.7862 19.101L10.7493 19.0702L10.7123 19.0497L10.6595 19.024L10.6278 18.9983L10.5751 18.9726L10.5434 18.9469L10.5012 18.9212L10.4642 18.8956L10.4114 18.8647L10.3745 18.839L10.3322 18.8082L10.7545 18.2432L11.0713 17.6781L11.2824 17.1233L11.4091 16.589L11.4725 16.0753L11.4566 15.5616L11.3827 15.0839L11.2666 14.6319L11.1188 14.2003L10.9499 13.8099L10.7598 13.4503L10.5698 13.1421L10.3797 12.8596L10.2214 12.6233L10.0736 12.4384L9.968 12.3048L9.88882 12.1918L9.80436 12.0736L9.72517 11.9452L9.64071 11.8168L9.54569 11.6832L9.46123 11.5445L9.38205 11.3904L9.30287 11.2517L9.22369 11.0976L9.07588 10.7997L9.02309 10.6455L8.95447 10.4914L8.90168 10.3373L8.84889 10.1832L8.81722 10.0394L8.76443 9.78254L8.72748 9.52569L8.70637 9.25343V8.96062L8.72748 8.66267L8.76443 8.36473L8.83306 8.05651L8.9228 7.73801L9.04421 7.40925L9.20257 7.08048L9.37149 6.74658L9.58265 6.4024L9.84659 6.05308L10.1316 5.7089L10.4589 5.34932L10.839 5L10.9815 5.05137L10.802 5.38527L10.6542 5.69349L10.5328 6.00171L10.4273 6.28938L10.3375 6.56678L10.2689 6.82363L10.2267 7.08048L10.2055 7.32192L10.1897 7.55308L10.2003 7.78425L10.2161 8.00514L10.2583 8.22603L10.3006 8.43151L10.3639 8.64726L10.4273 8.86301L10.5064 9.07877L10.6015 9.30993L10.7281 9.56678L10.8759 9.81336L11.0343 10.0805L11.2191 10.3527L11.4091 10.6301L11.6044 10.9075L11.7997 11.2003L11.9951 11.4829L12.1851 11.7705L12.3593 12.0634L12.5335 12.3562L12.6813 12.6438L12.8133 12.9366L12.9188 13.2243L13.0033 13.5017L13.0191 13.6045L13.035 13.7226L13.0772 13.964V14.0873L13.093 14.2055V14.7295L13.0772 14.8682L13.0561 14.9966L13.035 15.1353L13.0297 15.2791L12.9769 15.5616L13.0825 15.6027Z" fill="#C9AF53"/>
<path d="M9.8677 15.3459L9.95951 15.306L9.95738 15.3017L9.8677 15.3459ZM9.74101 15.089L9.83095 15.0447L9.82712 15.0382L9.74101 15.089ZM9.59848 14.8476L9.68471 14.7967L9.68183 14.7923L9.59848 14.8476ZM9.28175 14.3699L9.3651 14.3146L9.36483 14.3142L9.28175 14.3699ZM9.12339 14.1336L9.20666 14.0778L9.20238 14.0722L9.12339 14.1336ZM8.94391 13.9024L8.86192 13.9598L8.86493 13.9637L8.94391 13.9024ZM8.78555 13.6764L8.8675 13.619L8.86541 13.6162L8.78555 13.6764ZM8.61135 13.4452L8.53005 13.5035L8.53149 13.5054L8.61135 13.4452ZM8.45299 13.2243L8.37108 13.2817L8.37171 13.2826L8.45299 13.2243ZM8.29462 12.9983L8.20955 13.0511L8.21272 13.0557L8.29462 12.9983ZM8.15737 12.7774L8.07189 12.8293L8.07243 12.8302L8.15737 12.7774ZM8.02013 12.5514L7.93191 12.5988L7.93465 12.6033L8.02013 12.5514ZM7.89871 12.3253L7.80797 12.3677L7.81062 12.3727L7.89871 12.3253ZM7.79314 12.0993L7.69886 12.1338L7.70253 12.1416L7.79314 12.0993ZM7.70868 11.8682L7.8026 11.8338L7.7709 11.7471L7.68189 11.7718L7.70868 11.8682ZM7.63477 11.8887L7.60778 11.7916L7.59628 11.7964L7.63477 11.8887ZM7.56087 11.9195L7.59376 12.0142L7.59936 12.0118L7.56087 11.9195ZM7.48697 11.9452L7.51783 12.0403L7.5198 12.0397L7.48697 11.9452ZM7.40779 11.9709L7.4346 12.0673L7.43864 12.066L7.40779 11.9709ZM7.33388 11.9914L7.30689 11.8943L7.29539 11.8991L7.33388 11.9914ZM7.25998 12.0223L7.29287 12.1169L7.29847 12.1146L7.25998 12.0223ZM7.18608 12.0479L7.15325 11.9535L7.15217 11.9539L7.18608 12.0479ZM7.04355 12.0993L7.00945 12.0047L6.9998 12.0094L7.04355 12.0993ZM6.96965 12.1353L7.00604 12.2288L7.0134 12.2252L6.96965 12.1353ZM6.91686 12.1558L6.88058 12.0626L6.87272 12.0657L6.86548 12.07L6.91686 12.1558ZM6.84823 12.1969L6.87502 12.2933L6.88803 12.2896L6.89961 12.2827L6.84823 12.1969ZM6.77433 12.2175L6.74754 12.1211L6.73568 12.1244L6.72497 12.1305L6.77433 12.2175ZM6.71099 12.2534L6.74889 12.3469L6.76035 12.3404L6.71099 12.2534ZM6.64764 12.2791L6.61006 12.1864L6.60341 12.1891L6.59722 12.1928L6.64764 12.2791ZM6.59485 12.3099L6.54443 12.2236L6.49059 12.255L6.49512 12.3172L6.59485 12.3099ZM6.63708 12.8904L6.53729 12.8977L6.53766 12.9011L6.63708 12.8904ZM6.69515 13.4298L6.59502 13.4406L6.59768 13.4522L6.69515 13.4298ZM6.81656 13.9589L6.71897 13.9813L6.72034 13.9861L6.81656 13.9589ZM6.95909 14.4623L6.86267 14.4896L6.86481 14.4957L6.95909 14.4623ZM7.12801 14.9401L7.03328 14.9736L7.03741 14.9824L7.12801 14.9401ZM7.33916 15.3921L7.24854 15.4345L7.24934 15.4361L7.33916 15.3921ZM7.55031 15.8236L7.46027 15.8677L7.4638 15.8738L7.55031 15.8236ZM7.78258 16.2243L7.69582 16.2746L7.70008 16.2808L7.78258 16.2243ZM8.03596 16.5942L7.95342 16.6507L7.95535 16.6534L8.03596 16.5942ZM8.2999 16.9538L8.21909 17.0131L8.22364 17.0185L8.2999 16.9538ZM8.5744 17.2774L8.49809 17.3421L8.50035 17.3446L8.5744 17.2774ZM8.85417 17.5856L8.78003 17.6529L8.78375 17.6566L8.85417 17.5856ZM9.12867 17.8579L9.05813 17.929L9.06241 17.9328L9.12867 17.8579ZM9.419 18.1147L9.35271 18.1897L9.35531 18.1918L9.419 18.1147ZM9.69878 18.3459L9.63505 18.423L9.63771 18.4251L9.69878 18.3459ZM9.97856 18.5616L9.91749 18.6408L10.0287 18.7266L10.0734 18.5934L9.97856 18.5616ZM10.0577 18.3253L10.1526 18.3571L10.153 18.3557L10.0577 18.3253ZM10.1264 18.1096L10.2217 18.1399L10.2223 18.1378L10.1264 18.1096ZM10.1897 17.8938L10.2862 17.9222L10.2881 17.9115L10.1897 17.8938ZM10.2267 17.6884L10.3252 17.7061L10.3258 17.7018L10.2267 17.6884ZM10.2531 17.4932L10.3522 17.5066L10.3524 17.5042L10.2531 17.4932ZM10.2742 17.3031L10.3742 17.3142V17.3031H10.2742ZM10.2742 16.774H10.3742V16.7662L10.373 16.7586L10.2742 16.774ZM10.2478 16.6045L10.3466 16.5891L10.3465 16.5886L10.2478 16.6045ZM10.2214 16.4401L10.3204 16.4242L10.3185 16.4163L10.2214 16.4401ZM10.1422 16.1164L10.2397 16.0926L10.2368 16.084L10.1422 16.1164ZM10.0894 15.9623L10.184 15.9299L10.1834 15.9281L10.0894 15.9623ZM13.452 10.137L13.4674 10.0382L13.4655 10.0379L13.452 10.137ZM13.7159 10.1781L13.7351 10.0799L13.7313 10.0793L13.7159 10.1781ZM14.2438 10.2808L14.2641 10.1829L14.2629 10.1827L14.2438 10.2808ZM14.4919 10.3322L14.5165 10.2352L14.5122 10.2343L14.4919 10.3322ZM14.7559 10.399L14.7824 10.3025L14.7804 10.302L14.7559 10.399ZM14.9987 10.4658L15.0284 10.3702L15.0252 10.3693L14.9987 10.4658ZM15.2468 10.5428L15.2783 10.4479L15.2764 10.4473L15.2468 10.5428ZM15.479 10.6199L15.5118 10.5254L15.5105 10.525L15.479 10.6199ZM15.7166 10.7021L15.7494 10.6076L15.7493 10.6076L15.7166 10.7021ZM15.9383 10.7791L15.9735 10.6855L15.9711 10.6847L15.9383 10.7791ZM16.1706 10.8664L16.2107 10.7747L16.2058 10.7728L16.1706 10.8664ZM16.3817 10.9589L16.4255 10.8689L16.4218 10.8673L16.3817 10.9589ZM16.804 11.1644L16.8532 11.0771L16.8478 11.0745L16.804 11.1644ZM17.0046 11.2774L17.1046 11.28L17.1061 11.2198L17.0537 11.1903L17.0046 11.2774ZM16.9941 11.6884L17.094 11.6937L17.094 11.6909L16.9941 11.6884ZM16.9729 12.0839L17.0725 12.0945L17.0728 12.0892L16.9729 12.0839ZM16.9307 12.4795L17.0298 12.4934L17.0302 12.4901L16.9307 12.4795ZM16.8779 12.8545L16.7789 12.8405L16.7789 12.8407L16.8779 12.8545ZM16.8251 13.2346L16.9229 13.2576L16.9242 13.2483L16.8251 13.2346ZM16.7407 13.5942L16.6433 13.5713L16.6433 13.5713L16.7407 13.5942ZM16.6562 13.9538L16.7527 13.9804L16.7536 13.9766L16.6562 13.9538ZM16.5612 14.2979L16.6568 14.3273L16.6576 14.3246L16.5612 14.2979ZM16.4556 14.6421L16.5496 14.6768L16.5512 14.6715L16.4556 14.6421ZM16.3342 14.9709L16.4272 15.0079L16.428 15.0055L16.3342 14.9709ZM16.2075 15.2894L16.2989 15.3301L16.3004 15.3263L16.2075 15.2894ZM16.0703 15.5976L16.1605 15.6408L16.1616 15.6383L16.0703 15.5976ZM15.9277 15.8955L16.0161 15.9425L16.018 15.9387L15.9277 15.8955ZM15.7694 16.1935L15.8576 16.2405L15.8577 16.2404L15.7694 16.1935ZM15.6216 16.4709L15.7085 16.5205L15.7098 16.5179L15.6216 16.4709ZM15.4632 16.7483L15.3764 16.6987L15.3406 16.7613L15.3888 16.815L15.4632 16.7483ZM16.8357 18.2791L16.7612 18.3459L16.8496 18.4444L16.9203 18.3325L16.8357 18.2791ZM17.0627 17.9195L17.1473 17.9729L17.1489 17.9702L17.0627 17.9195ZM17.2738 17.5599L17.3601 17.6106L17.3602 17.6103L17.2738 17.5599ZM17.4955 17.1798L17.5821 17.2303L17.585 17.2245L17.4955 17.1798ZM17.6909 16.7894L17.7803 16.8341L17.7816 16.8314L17.6909 16.7894ZM17.8809 16.3784L17.9717 16.4204L17.9721 16.4194L17.8809 16.3784ZM18.0657 15.9675L18.1571 16.0086L18.1595 16.0019L18.0657 15.9675ZM18.224 15.536L18.3179 15.5704L18.3182 15.5697L18.224 15.536ZM18.3824 15.0942L18.4767 15.128L18.4785 15.1216L18.3824 15.0942ZM18.5144 14.6319L18.6105 14.6593L18.6111 14.6573L18.5144 14.6319ZM18.6358 14.1695L18.7326 14.1949L18.7335 14.1907L18.6358 14.1695ZM18.7413 13.6815L18.8391 13.7027L18.8396 13.7001L18.7413 13.6815ZM18.8364 13.1781L18.9348 13.1967L18.9355 13.1913L18.8364 13.1781ZM18.905 12.6644L19.0042 12.6776L19.0045 12.6743L18.905 12.6644ZM18.9578 12.1353L19.0574 12.1452L19.0576 12.141L18.9578 12.1353ZM18.9894 11.5856L19.0894 11.5914L19.0894 11.5875L18.9894 11.5856ZM19 11.036L19.1 11.0379L19.101 10.9823L19.0544 10.9521L19 11.036ZM18.6833 10.8305L18.6288 10.9144L18.6288 10.9144L18.6833 10.8305ZM18.3507 10.6147L18.4053 10.5305L18.398 10.5266L18.3507 10.6147ZM17.997 10.4247L18.0444 10.3365L18.0408 10.3347L17.997 10.4247ZM17.6381 10.25L17.6818 10.1601L17.6808 10.1596L17.6381 10.25ZM17.2686 10.0753L17.3114 9.98468L17.3044 9.98199L17.2686 10.0753ZM16.8674 9.92123L16.9032 9.82786L16.9011 9.8271L16.8674 9.92123ZM16.4662 9.7774L16.5 9.6832L16.4963 9.68205L16.4662 9.7774ZM16.0439 9.64384L16.0741 9.54844L16.0708 9.54753L16.0439 9.64384ZM15.6216 9.52569L15.6485 9.42931L15.6447 9.42839L15.6216 9.52569ZM15.1887 9.42295L15.2118 9.32565L15.2113 9.32553L15.1887 9.42295ZM14.7453 9.32021L14.7679 9.22276L14.7655 9.22226L14.7453 9.32021ZM14.2966 9.22774L14.3168 9.12973L14.3131 9.12912L14.2966 9.22774ZM13.8373 9.15069L13.8539 9.05201L13.8505 9.05155L13.8373 9.15069ZM13.3728 9.08904L13.386 8.98988L13.3836 8.98962L13.3728 9.08904ZM12.8977 9.03767L12.9085 8.93821L12.9054 8.93797L12.8977 9.03767ZM12.4332 9.00171L12.4409 8.90201L12.2689 8.8887L12.3428 9.04457L12.4332 9.00171ZM12.4649 9.06849L12.3738 9.11166L12.3803 9.12194L12.4649 9.06849ZM12.5071 9.13527L12.5934 9.08461L12.5916 9.08183L12.5071 9.13527ZM12.5493 9.20719L12.463 9.25786L12.4648 9.26064L12.5493 9.20719ZM12.5916 9.27397L12.507 9.32742L12.5076 9.3283L12.5916 9.27397ZM12.6813 9.41267L12.7707 9.36674L12.7653 9.35835L12.6813 9.41267ZM12.7182 9.48459L12.6293 9.53029L12.6338 9.53896L12.6398 9.5466L12.7182 9.48459ZM12.771 9.55137L12.8537 9.49472L12.8495 9.48936L12.771 9.55137ZM12.8661 9.69007L12.9506 9.63659L12.9485 9.63355L12.8661 9.69007ZM12.9083 9.75685L12.8234 9.8105L12.8287 9.81742L12.9083 9.75685ZM13.0139 9.89555L12.9342 9.95622L12.9379 9.96059L13.0139 9.89555ZM13.1194 10.0188L13.2003 9.9595L13.1954 9.95379L13.1194 10.0188ZM5.00594 11.6935H4.9058L4.90608 11.6988L5.00594 11.6935ZM5.02705 12.089L4.92712 12.0944L4.92749 12.0983L5.02705 12.089ZM5.06401 12.4846L4.96433 12.4939L4.96498 12.4985L5.06401 12.4846ZM5.11679 12.8596L5.01774 12.8735L5.01815 12.876L5.11679 12.8596ZM5.18014 13.2397L5.08143 13.2562L5.08219 13.2599L5.18014 13.2397ZM5.25404 13.5993L5.15605 13.6195L5.15669 13.6222L5.25404 13.5993ZM5.3385 13.9589L5.24108 13.9818L5.24211 13.9855L5.3385 13.9589ZM5.43352 14.3031L5.33697 14.3297L5.33877 14.3351L5.43352 14.3031ZM5.54965 14.6473L5.45489 14.6792L5.45536 14.6806L5.54965 14.6473ZM5.66579 14.976L5.57147 15.0093L5.57235 15.0116L5.66579 14.976ZM5.7872 15.2945L5.69362 15.3302L5.69585 15.3352L5.7872 15.2945ZM5.92445 15.6027L5.83302 15.6435L5.83486 15.6472L5.92445 15.6027ZM6.07225 15.9007L5.98264 15.9451L5.98395 15.9476L6.07225 15.9007ZM6.23062 16.1986L6.14227 16.2456L6.14377 16.2482L6.23062 16.1986ZM6.38898 16.476L6.3021 16.5256L6.30357 16.528L6.38898 16.476ZM6.5579 16.7534L6.6321 16.8205L6.6821 16.7651L6.64331 16.7014L6.5579 16.7534ZM5.17486 18.2842L5.09142 18.3394L5.16255 18.447L5.24906 18.3513L5.17486 18.2842ZM4.93731 17.9247L4.85096 17.9754L4.85388 17.9798L4.93731 17.9247ZM4.72616 17.5651L4.63978 17.6155L4.63993 17.6157L4.72616 17.5651ZM4.50445 17.1849L4.41484 17.2298L4.41807 17.2353L4.50445 17.1849ZM4.30914 16.7945L4.21833 16.8365L4.21971 16.8393L4.30914 16.7945ZM4.1191 16.3836L4.02744 16.4236L4.02834 16.4255L4.1191 16.3836ZM3.93962 15.9726L3.84558 16.0071L3.84798 16.0126L3.93962 15.9726ZM3.78126 15.5411L3.68712 15.5748L3.68738 15.5756L3.78126 15.5411ZM3.6229 15.0993L3.52688 15.1278L3.52876 15.1331L3.6229 15.0993ZM3.48565 14.637L3.38888 14.6624L3.38978 14.6654L3.48565 14.637ZM3.36424 14.1747L3.2664 14.1958L3.26752 14.2001L3.36424 14.1747ZM3.25866 13.6866L3.15993 13.7032L3.16092 13.7078L3.25866 13.6866ZM3.1742 13.1832L3.07503 13.1965L3.07558 13.1998L3.1742 13.1832ZM3.10558 12.6695L3.00601 12.6795L3.00646 12.6828L3.10558 12.6695ZM3.05279 12.1404L2.95325 12.15L2.95328 12.1503L3.05279 12.1404ZM3 11.5908H2.89954L2.90046 11.6003L3 11.5908ZM3 11.0411L2.9431 10.9589L2.9 10.9887V11.0411H3ZM3.23755 10.8767L3.1831 10.7928L3.18064 10.7945L3.23755 10.8767ZM3.47509 10.7226L3.42461 10.6362L3.42067 10.6387L3.47509 10.7226ZM3.73903 10.5685L3.69116 10.4806L3.68861 10.4821L3.73903 10.5685ZM4.00297 10.4247L3.9578 10.3354L3.95512 10.3369L4.00297 10.4247ZM4.26691 10.2911L4.22509 10.2002L4.22176 10.2019L4.26691 10.2911ZM4.55724 10.1575L4.51951 10.0648L4.51545 10.0667L4.55724 10.1575ZM4.84758 10.0394L4.81186 9.94596L4.80988 9.94676L4.84758 10.0394ZM5.14319 9.92637L5.11135 9.83148L5.10748 9.83296L5.14319 9.92637ZM5.44936 9.82363L5.4185 9.72851L5.41754 9.72883L5.44936 9.82363ZM5.76608 9.72089L5.79694 9.81601L5.79694 9.81601L5.76608 9.72089ZM6.08281 9.61815L6.0556 9.52185L6.05196 9.52303L6.08281 9.61815ZM6.4101 9.52569L6.38573 9.42866L6.38291 9.42945L6.4101 9.52569ZM6.73738 9.44349L6.71514 9.34597L6.71302 9.34651L6.73738 9.44349ZM7.07522 9.36644L7.05471 9.26855L7.05299 9.26894L7.07522 9.36644ZM7.41834 9.29452L7.40065 9.19606L7.39783 9.19665L7.41834 9.29452ZM7.76147 9.23288L7.85492 9.26845L7.91782 9.10319L7.74378 9.13445L7.76147 9.23288ZM7.70868 9.37158L7.61522 9.33601L7.61235 9.34354L7.61072 9.35144L7.70868 9.37158ZM7.69284 9.44863L7.78672 9.48308L7.78929 9.47607L7.79079 9.46876L7.69284 9.44863ZM7.66645 9.52055L7.57255 9.48609L7.57184 9.48814L7.66645 9.52055ZM7.64533 9.58219L7.55073 9.54979L7.54773 9.55853L7.54639 9.56767L7.64533 9.58219ZM7.63477 9.65411L7.73012 9.68426L7.73255 9.67659L7.73371 9.66864L7.63477 9.65411ZM7.61366 9.72089L7.51805 9.69066L7.51636 9.69782L7.61366 9.72089ZM7.59782 9.78767L7.50052 9.7646L7.49782 9.77598V9.78767H7.59782ZM7.59782 9.85445L7.69548 9.87596L7.69782 9.86533V9.85445H7.59782ZM7.56615 9.99829L7.46838 9.97676L7.46758 9.98141L7.56615 9.99829ZM7.55559 10.0599L7.45702 10.0431L7.45682 10.0443L7.55559 10.0599ZM7.54503 10.1267L7.44601 10.1111L7.4454 10.1182L7.54503 10.1267ZM7.53448 10.25L7.43448 10.2414V10.25H7.53448ZM7.53448 10.3168L7.55619 10.4144L7.63448 10.397V10.3168H7.53448ZM7.34972 10.3579L7.32801 10.2603L7.32676 10.2605L7.34972 10.3579ZM7.17552 10.399L7.15251 10.3014L7.14642 10.3033L7.17552 10.399ZM7.0066 10.4503L7.03488 10.5463L7.03569 10.546L7.0066 10.4503ZM6.8324 10.5017L6.80411 10.4058L6.8033 10.406L6.8324 10.5017ZM6.66348 10.5531L6.63438 10.4574L6.63262 10.458L6.66348 10.5531ZM6.50511 10.6045L6.53421 10.7001L6.53597 10.6996L6.50511 10.6045ZM6.33619 10.6558L6.30695 10.5597L6.2977 10.5635L6.33619 10.6558ZM6.18839 10.7175L6.22467 10.8107L6.22688 10.8098L6.18839 10.7175ZM6.03002 10.7791L5.99375 10.6859L5.99375 10.6859L6.03002 10.7791ZM5.87166 10.8408L5.83537 10.7475L5.83317 10.7485L5.87166 10.8408ZM5.72385 10.9024L5.68536 10.8101L5.685 10.8103L5.72385 10.9024ZM5.56549 10.9692L5.5265 10.8767L5.51908 10.8806L5.56549 10.9692ZM5.42824 11.0411L5.47071 11.1317L5.47466 11.1297L5.42824 11.0411ZM5.14319 11.1747L5.10046 11.0835L5.09032 11.0898L5.14319 11.1747ZM10.802 22.9332L10.7657 23.0265L10.7697 23.0278L10.802 22.9332ZM10.5909 22.851L10.5488 22.9419L10.5546 22.9442L10.5909 22.851ZM10.3692 22.7483L10.4112 22.6575L10.4096 22.6568L10.3692 22.7483ZM10.1369 22.6455L10.0916 22.7348L10.0965 22.737L10.1369 22.6455ZM9.89409 22.5223L9.84746 22.6107L9.84882 22.6114L9.89409 22.5223ZM9.64071 22.3887L9.59024 22.4751L9.59408 22.4772L9.64071 22.3887ZM9.11283 22.0805L9.0564 22.1633L9.06241 22.1668L9.11283 22.0805ZM8.84889 21.9007L8.90519 21.818L8.90469 21.8177L8.84889 21.9007ZM8.55856 21.7055L8.49932 21.7861L8.50277 21.7885L8.55856 21.7055ZM8.27879 21.5L8.33798 21.4194L8.33726 21.4189L8.27879 21.5ZM7.99373 21.2945L7.93137 21.3728L7.93526 21.3756L7.99373 21.2945ZM7.7034 21.0634L7.6372 21.1385L7.64111 21.1416L7.7034 21.0634ZM7.42362 20.8168L7.35736 20.8917L7.3575 20.8918L7.42362 20.8168ZM7.13329 20.5599L7.06347 20.6317L7.06703 20.6348L7.13329 20.5599ZM6.85351 20.2877L6.77914 20.2208L6.71489 20.2923L6.78377 20.3593L6.85351 20.2877ZM8.21544 18.7723L8.28311 18.6986L8.20866 18.6302L8.14106 18.7054L8.21544 18.7723ZM8.40548 18.9469L8.3378 19.0206L8.33901 19.0216L8.40548 18.9469ZM8.77499 19.2757L8.7084 19.3505L8.71305 19.3542L8.77499 19.2757ZM8.97031 19.4298L9.0333 19.3521L9.03225 19.3513L8.97031 19.4298ZM9.16034 19.5839L9.09712 19.6619L9.10435 19.6668L9.16034 19.5839ZM9.35038 19.7123L9.40899 19.6312L9.40637 19.6295L9.35038 19.7123ZM9.53514 19.8459L9.47655 19.9269L9.47695 19.9272L9.53514 19.8459ZM9.71462 19.9743L9.65635 20.0558L9.66074 20.0586L9.71462 19.9743ZM9.89937 20.0925L9.84548 20.1767L9.84741 20.1779L9.89937 20.0925ZM10.0683 20.1952L10.1203 20.1098L10.1203 20.1098L10.0683 20.1952ZM10.2372 20.2979L10.2917 20.214L10.2892 20.2125L10.2372 20.2979ZM10.3956 20.4007L10.3407 20.4852L10.3518 20.4906L10.3956 20.4007ZM10.5539 20.4777L10.5102 20.5677L10.5126 20.5688L10.5539 20.4777ZM10.7123 20.5497L10.7586 20.4609L10.7537 20.4586L10.7123 20.5497ZM10.8601 20.6267L10.8138 20.7156L10.8204 20.7185L10.8601 20.6267ZM11.0026 20.6884L10.9629 20.7801L11.0034 20.7976L11.0436 20.7796L11.0026 20.6884ZM11.1399 20.6267L11.1809 20.718L11.1836 20.7166L11.1399 20.6267ZM11.2983 20.5497L11.2569 20.4586L11.2545 20.4597L11.2983 20.5497ZM11.4566 20.4777L11.498 20.5689L11.5027 20.5665L11.4566 20.4777ZM11.615 20.3955L11.6613 20.4847L11.6694 20.4794L11.615 20.3955ZM11.7733 20.2928L11.7252 20.2048L11.7189 20.2089L11.7733 20.2928ZM11.9423 20.2003L11.9904 20.2882L11.9955 20.285L11.9423 20.2003ZM12.1217 20.0873L12.1751 20.172L12.1779 20.1701L12.1217 20.0873ZM12.2959 19.9692L12.3521 20.0519L12.3526 20.0516L12.2959 19.9692ZM12.4754 19.8459L12.5321 19.9283L12.5336 19.9272L12.4754 19.8459ZM12.6549 19.7175L12.5974 19.6357L12.5967 19.6361L12.6549 19.7175ZM12.8449 19.5839L12.9026 19.666L12.909 19.6607L12.8449 19.5839ZM13.2145 19.2757L13.2785 19.3525L13.2799 19.3513L13.2145 19.2757ZM13.5945 18.9469L13.66 19.0226L13.6612 19.0215L13.5945 18.9469ZM13.7898 18.7723L13.8642 18.7054L13.7975 18.6312L13.7232 18.6977L13.7898 18.7723ZM15.1518 20.2877L15.2201 20.3606L15.2916 20.2937L15.2261 20.2208L15.1518 20.2877ZM14.8667 20.5548L14.933 20.6297L14.9351 20.6278L14.8667 20.5548ZM14.5764 20.8116L14.641 20.888L14.6426 20.8865L14.5764 20.8116ZM14.2913 21.0531L14.3528 21.1321L14.356 21.1294L14.2913 21.0531ZM14.001 21.2791L14.0615 21.3587L14.0624 21.358L14.001 21.2791ZM13.7107 21.5L13.7699 21.5806L13.7712 21.5796L13.7107 21.5ZM13.4309 21.7055L13.4861 21.789L13.4901 21.7861L13.4309 21.7055ZM13.1511 21.8904L13.2048 21.9748L13.2062 21.9738L13.1511 21.8904ZM12.8766 22.0651L12.9271 22.1515L12.9303 22.1494L12.8766 22.0651ZM12.6127 22.2192L12.5622 22.1328L12.5622 22.1328L12.6127 22.2192ZM12.3487 22.3733L12.3954 22.4618L12.3992 22.4596L12.3487 22.3733ZM12.0953 22.5069L12.1399 22.5964L12.142 22.5953L12.0953 22.5069ZM11.8578 22.625L11.8968 22.7173L11.9023 22.7145L11.8578 22.625ZM11.615 22.7277L11.576 22.6356L11.5729 22.637L11.615 22.7277ZM11.3933 22.8305L11.4315 22.923L11.4353 22.9212L11.3933 22.8305ZM11.1821 22.9178L11.2145 23.0126L11.2203 23.0102L11.1821 22.9178ZM13.0825 15.6027L13.0462 15.6959L13.1198 15.7246L13.1647 15.6596L13.0825 15.6027ZM13.2778 15.3202L13.3601 15.3771L13.3618 15.3745L13.2778 15.3202ZM13.4573 15.0428L13.5415 15.0973L13.5452 15.0905L13.4573 15.0428ZM13.6051 14.7705L13.693 14.8183L13.694 14.8163L13.6051 14.7705ZM13.7371 14.5137L13.8264 14.5596L13.8301 14.5505L13.7371 14.5137ZM13.8426 14.2466L13.9357 14.2834L13.937 14.2796L13.8426 14.2466ZM13.9324 13.9897L14.0272 14.0229L14.0295 14.0137L13.9324 13.9897ZM13.9957 13.7329L14.0928 13.7568L14.0935 13.7538L13.9957 13.7329ZM14.0485 13.4863L14.1465 13.5073L14.1473 13.5014L14.0485 13.4863ZM14.0855 13.2449L14.1847 13.26L14.1852 13.2516L14.0855 13.2449ZM14.1013 13.0086L14.0015 13.0016L14.0015 13.0019L14.1013 13.0086ZM14.1171 12.7825L14.2171 12.7895V12.7825H14.1171ZM14.1171 12.5668H14.2174L14.2168 12.5591L14.1171 12.5668ZM14.1013 12.3613L14.201 12.3536L14.2007 12.3503L14.1013 12.3613ZM14.0802 12.1712L14.1796 12.1602L14.1792 12.1575L14.0802 12.1712ZM14.0538 11.9812L14.1528 11.9674L14.1526 11.9658L14.0538 11.9812ZM14.0274 11.8116L14.0497 11.7142L13.9059 11.6812L13.9286 11.827L14.0274 11.8116ZM14.1171 11.8322L14.1447 11.7359L14.1394 11.7347L14.1171 11.8322ZM14.2069 11.8579L14.1793 11.954L14.1801 11.9542L14.2069 11.8579ZM14.3916 11.9092L14.4276 11.8155L14.4184 11.8129L14.3916 11.9092ZM14.5658 11.976L14.53 12.0694L14.5372 12.0721L14.5447 12.0738L14.5658 11.976ZM14.6608 11.9966L14.6935 11.9013L14.682 11.8988L14.6608 11.9966ZM14.7506 12.0274L14.7181 12.122L14.7181 12.122L14.7506 12.0274ZM14.8403 12.0582L14.8796 11.966L14.8728 11.9636L14.8403 12.0582ZM14.9248 12.0942L14.8854 12.1867L14.8957 12.1899L14.9248 12.0942ZM15.0092 12.1199L15.0417 12.0252L15.0383 12.0242L15.0092 12.1199ZM15.099 12.1507L15.1509 12.0652L15.1417 12.0596L15.1315 12.0561L15.099 12.1507ZM15.1834 12.2021L15.1315 12.2875L15.1379 12.2914L15.1449 12.2944L15.1834 12.2021ZM15.2573 12.2329L15.3062 12.1449L15.2958 12.1406L15.2573 12.2329ZM15.3312 12.274L15.2824 12.3619L15.2921 12.366L15.3312 12.274ZM15.4157 12.3099L15.5153 12.3187L15.5217 12.2464L15.4549 12.2179L15.4157 12.3099ZM15.3524 13.0291L15.4513 13.0458L15.452 13.0379L15.3524 13.0291ZM15.2362 13.7175L15.3333 13.7432L15.3348 13.7341L15.2362 13.7175ZM15.0673 14.3545L15.1619 14.3877L15.164 14.3801L15.0673 14.3545ZM14.8562 14.9555L14.9477 14.9965L14.9505 14.9886L14.8562 14.9555ZM14.6028 15.5205L14.6905 15.5692L14.694 15.5615L14.6028 15.5205ZM14.3177 16.0342L14.4025 16.0875L14.4052 16.0828L14.3177 16.0342ZM14.0115 16.5223L14.0917 16.5826L14.0963 16.5754L14.0115 16.5223ZM13.679 16.964L13.7551 17.0292L13.7589 17.0242L13.679 16.964ZM13.3359 17.3647L13.4082 17.4339L13.4118 17.4298L13.3359 17.3647ZM12.9822 17.7346L13.0504 17.8079L13.0545 17.8037L12.9822 17.7346ZM12.6232 18.0685L12.6871 18.1457L12.6913 18.1417L12.6232 18.0685ZM12.2695 18.3613L12.329 18.4419L12.3333 18.4383L12.2695 18.3613ZM11.9211 18.6182L11.9774 18.7009L11.9805 18.6986L11.9211 18.6182ZM11.5886 18.8442L11.6401 18.9301L11.6448 18.9269L11.5886 18.8442ZM11.2719 19.0342L11.3188 19.1227L11.3233 19.12L11.2719 19.0342ZM10.9815 19.1884L10.9547 19.2847L10.9932 19.2954L11.0284 19.2767L10.9815 19.1884ZM10.9446 19.1781L10.9008 19.268L10.909 19.272L10.9178 19.2744L10.9446 19.1781ZM10.9023 19.1575L10.8537 19.2451L10.8586 19.2475L10.9023 19.1575ZM10.8654 19.137L10.9141 19.0495L10.9091 19.0471L10.8654 19.137ZM10.8232 19.1164L10.867 19.0264L10.8617 19.0241L10.8232 19.1164ZM10.7862 19.101L10.7222 19.1778L10.7338 19.1875L10.7477 19.1933L10.7862 19.101ZM10.7493 19.0702L10.8133 18.9934L10.8061 18.9874L10.7979 18.9828L10.7493 19.0702ZM10.7123 19.0497L10.761 18.9621L10.7561 18.9597L10.7123 19.0497ZM10.6595 19.024L10.5965 19.1016L10.6054 19.1089L10.6158 19.1139L10.6595 19.024ZM10.6278 18.9983L10.6908 18.9206L10.6819 18.9134L10.6716 18.9084L10.6278 18.9983ZM10.5751 18.9726L10.5121 19.0503L10.521 19.0575L10.5313 19.0625L10.5751 18.9726ZM10.5434 18.9469L10.607 18.8685L10.5953 18.8615L10.5434 18.9469ZM10.5012 18.9212L10.444 19.0035L10.4492 19.0067L10.5012 18.9212ZM10.4642 18.8956L10.5215 18.8132L10.5146 18.8092L10.4642 18.8956ZM10.4114 18.8647L10.3542 18.9471L10.361 18.9511L10.4114 18.8647ZM10.3745 18.839L10.3155 18.9198L10.3174 18.9212L10.3745 18.839ZM10.3322 18.8082L10.2521 18.7484L10.1916 18.8294L10.2733 18.889L10.3322 18.8082ZM10.7545 18.2432L10.8353 18.3035L10.8418 18.292L10.7545 18.2432ZM11.0713 17.6781L11.1585 17.727L11.1621 17.7205L11.1647 17.7137L11.0713 17.6781ZM11.2824 17.1233L11.3767 17.1592L11.3797 17.1464L11.2824 17.1233ZM11.4091 16.589L11.507 16.6123L11.5084 16.6013L11.4091 16.589ZM11.4725 16.0753L11.5717 16.0876L11.5726 16.0799L11.5724 16.0723L11.4725 16.0753ZM11.4566 15.5616L11.5573 15.5585L11.5554 15.5464L11.4566 15.5616ZM11.3827 15.0839L11.482 15.0685L11.4796 15.059L11.3827 15.0839ZM11.2666 14.6319L11.3637 14.6069L11.3612 14.5994L11.2666 14.6319ZM11.1188 14.2003L11.2137 14.1678L11.2106 14.1606L11.1188 14.2003ZM10.9499 13.8099L11.0419 13.7701L11.0383 13.7632L10.9499 13.8099ZM10.7598 13.4503L10.8484 13.4035L10.8449 13.3979L10.7598 13.4503ZM10.5698 13.1421L10.655 13.0896L10.6528 13.0863L10.5698 13.1421ZM10.3797 12.8596L10.2967 12.9153L10.2968 12.9154L10.3797 12.8596ZM10.2214 12.6233L10.3047 12.5674L10.2995 12.5609L10.2214 12.6233ZM10.0736 12.4384L9.99512 12.5004L9.99546 12.5008L10.0736 12.4384ZM9.968 12.3048L9.88596 12.3623L9.88955 12.3668L9.968 12.3048ZM9.88882 12.1918L9.97072 12.1344L9.97017 12.1336L9.88882 12.1918ZM9.80436 12.0736L9.71904 12.1262L9.723 12.1318L9.80436 12.0736ZM9.72517 11.9452L9.81033 11.8927L9.80872 11.8903L9.72517 11.9452ZM9.64071 11.8168L9.72432 11.7618L9.7222 11.7588L9.64071 11.8168ZM9.54569 11.6832L9.46007 11.7354L9.46421 11.7412L9.54569 11.6832ZM9.46123 11.5445L9.37205 11.5903L9.37582 11.5965L9.46123 11.5445ZM9.38205 11.3904L9.47109 11.3447L9.4689 11.3408L9.38205 11.3904ZM9.30287 11.2517L9.21384 11.2975L9.21603 11.3013L9.30287 11.2517ZM9.22369 11.0976L9.1341 11.142L9.13474 11.1433L9.22369 11.0976ZM9.07588 10.7997L8.98047 10.8323L8.9863 10.8441L9.07588 10.7997ZM9.02309 10.6455L9.11807 10.613L9.11445 10.6049L9.02309 10.6455ZM8.95447 10.4914L8.85949 10.524L8.86312 10.5321L8.95447 10.4914ZM8.90168 10.3373L8.99629 10.3049L8.99629 10.3049L8.90168 10.3373ZM8.84889 10.1832L8.7506 10.2049L8.75429 10.2156L8.84889 10.1832ZM8.81722 10.0394L8.71926 10.0595L8.71956 10.0609L8.81722 10.0394ZM8.76443 9.78254L8.66528 9.7968L8.66648 9.80267L8.76443 9.78254ZM8.72748 9.52569L8.62757 9.53343L8.6285 9.53993L8.72748 9.52569ZM8.70637 9.25343H8.60607L8.60667 9.26116L8.70637 9.25343ZM8.70637 8.96062L8.60637 8.95353V8.96062H8.70637ZM8.72748 8.66267L8.62811 8.65035L8.62773 8.6556L8.72748 8.66267ZM8.76443 8.36473L8.66638 8.34289L8.66519 8.35242L8.76443 8.36473ZM8.83306 8.05651L8.73666 8.02935L8.73545 8.03477L8.83306 8.05651ZM8.9228 7.73801L8.8287 7.70326L8.82655 7.71089L8.9228 7.73801ZM9.04421 7.40925L8.95371 7.36565L8.9504 7.3746L9.04421 7.40925ZM9.20257 7.08048L9.11333 7.03533L9.11248 7.03708L9.20257 7.08048ZM9.37149 6.74658L9.28597 6.69411L9.28226 6.70143L9.37149 6.74658ZM9.58265 6.4024L9.50249 6.34183L9.49741 6.3501L9.58265 6.4024ZM9.84659 6.05308L9.76949 5.98923L9.7668 5.9928L9.84659 6.05308ZM10.1316 5.7089L10.0576 5.64152L10.0546 5.64512L10.1316 5.7089ZM10.4589 5.34932L10.391 5.27539L10.385 5.282L10.4589 5.34932ZM10.839 5L10.8729 4.90592L10.8159 4.88539L10.7713 4.92637L10.839 5ZM10.9815 5.05137L11.0696 5.09872L11.1245 4.9966L11.0154 4.95729L10.9815 5.05137ZM10.802 5.38527L10.7139 5.33788L10.7119 5.34203L10.802 5.38527ZM10.6542 5.69349L10.5638 5.65014L10.5612 5.65684L10.6542 5.69349ZM10.5328 6.00171L10.4398 5.96505L10.439 5.96726L10.5328 6.00171ZM10.4273 6.28938L10.3333 6.2549L10.3321 6.2586L10.4273 6.28938ZM10.3375 6.56678L10.2422 6.53596L10.2409 6.54097L10.3375 6.56678ZM10.2689 6.82363L10.1718 6.79769L10.1702 6.80741L10.2689 6.82363ZM10.2267 7.08048L10.1277 7.06421L10.127 7.07177L10.2267 7.08048ZM10.2055 7.32192L10.1059 7.3132L10.1058 7.31508L10.2055 7.32192ZM10.1897 7.55308L10.0893 7.5462L10.0898 7.55765L10.1897 7.55308ZM10.2003 7.78425L10.1003 7.78881L10.1005 7.7914L10.2003 7.78425ZM10.2161 8.00514L10.1157 8.01234L10.1179 8.02392L10.2161 8.00514ZM10.2583 8.22603L10.1601 8.24481L10.1604 8.24616L10.2583 8.22603ZM10.3006 8.43151L10.2023 8.45171L10.2046 8.45968L10.3006 8.43151ZM10.4273 8.86301L10.3311 8.89125L10.3334 8.89747L10.4273 8.86301ZM10.5064 9.07877L10.4125 9.11325L10.4139 9.11679L10.5064 9.07877ZM10.6015 9.30993L10.5087 9.34804L10.5118 9.35417L10.6015 9.30993ZM10.7281 9.56678L10.6382 9.61117L10.6424 9.6182L10.7281 9.56678ZM10.8759 9.81336L10.962 9.76236L10.9617 9.76194L10.8759 9.81336ZM11.0343 10.0805L10.9481 10.1316L10.9516 10.1366L11.0343 10.0805ZM11.2191 10.3527L11.1363 10.4089L11.1366 10.4093L11.2191 10.3527ZM11.4091 10.6301L11.3266 10.6867L11.3273 10.6877L11.4091 10.6301ZM11.6044 10.9075L11.6876 10.852L11.6862 10.85L11.6044 10.9075ZM11.7997 11.2003L11.7165 11.2558L11.7175 11.2572L11.7997 11.2003ZM11.9951 11.4829L12.0785 11.4277L12.0773 11.426L11.9951 11.4829ZM12.1851 11.7705L12.2711 11.7194L12.2685 11.7154L12.1851 11.7705ZM12.3593 12.0634L12.4452 12.0122L12.4452 12.0122L12.3593 12.0634ZM12.5335 12.3562L12.6226 12.3104L12.6194 12.305L12.5335 12.3562ZM12.6813 12.6438L12.7726 12.6027L12.7702 12.5981L12.6813 12.6438ZM12.8133 12.9366L12.9074 12.9021L12.9044 12.8956L12.8133 12.9366ZM12.9188 13.2243L13.0147 13.1951L13.0127 13.1899L12.9188 13.2243ZM13.0033 13.5017L13.1021 13.4865L13.101 13.4794L13.099 13.4726L13.0033 13.5017ZM13.0191 13.6045L13.1183 13.5912L13.118 13.5892L13.0191 13.6045ZM13.035 13.7226L12.9358 13.7359L12.9365 13.7398L13.035 13.7226ZM13.0772 13.964H13.1772V13.9554L13.1757 13.9468L13.0772 13.964ZM13.0772 14.0873H12.9763L12.9781 14.1006L13.0772 14.0873ZM13.093 14.2055H13.1939L13.1922 14.1922L13.093 14.2055ZM13.093 14.7295L13.193 14.7409V14.7295H13.093ZM13.0772 14.8682L13.176 14.8844L13.1766 14.8795L13.0772 14.8682ZM13.0561 14.9966L12.9574 14.9804L12.9572 14.9815L13.0561 14.9966ZM13.035 15.1353L12.9355 15.1201L12.935 15.1316L13.035 15.1353ZM13.0297 15.2791L13.128 15.2975L13.1294 15.2902L13.1296 15.2828L13.0297 15.2791ZM12.9769 15.5616L12.8786 15.5433L12.8634 15.6248L12.9406 15.6548L12.9769 15.5616ZM9.98383 15.613L10.0755 15.5731L9.95941 15.306L9.8677 15.3459L9.77599 15.3858L9.89213 15.6529L9.98383 15.613ZM9.8677 15.3459L9.95738 15.3017L9.83069 15.0448L9.74101 15.089L9.65133 15.1333L9.77802 15.3901L9.8677 15.3459ZM9.74101 15.089L9.82712 15.0382L9.6846 14.7968L9.59848 14.8476L9.51237 14.8984L9.6549 15.1399L9.74101 15.089ZM9.59848 14.8476L9.68183 14.7923L9.3651 14.3146L9.28175 14.3699L9.19841 14.4251L9.51514 14.9029L9.59848 14.8476ZM9.28175 14.3699L9.36483 14.3142L9.20646 14.0779L9.12339 14.1336L9.04032 14.1892L9.19868 14.4255L9.28175 14.3699ZM9.12339 14.1336L9.20238 14.0722L9.0229 13.8411L8.94391 13.9024L8.86493 13.9637L9.0444 14.1949L9.12339 14.1336ZM8.94391 13.9024L9.02581 13.845L8.86745 13.619L8.78555 13.6764L8.70365 13.7338L8.86201 13.9598L8.94391 13.9024ZM8.78555 13.6764L8.86541 13.6162L8.69121 13.385L8.61135 13.4452L8.53149 13.5054L8.70569 13.7366L8.78555 13.6764ZM8.61135 13.4452L8.69262 13.3869L8.53426 13.1661L8.45299 13.2243L8.37171 13.2826L8.53008 13.5035L8.61135 13.4452ZM8.45299 13.2243L8.53488 13.1669L8.37652 12.9409L8.29462 12.9983L8.21272 13.0557L8.37109 13.2817L8.45299 13.2243ZM8.29462 12.9983L8.37956 12.9455L8.24231 12.7246L8.15737 12.7774L8.07243 12.8302L8.20968 13.0511L8.29462 12.9983ZM8.15737 12.7774L8.24285 12.7255L8.1056 12.4995L8.02013 12.5514L7.93465 12.6033L8.0719 12.8293L8.15737 12.7774ZM8.02013 12.5514L8.10822 12.504L7.98681 12.278L7.89871 12.3253L7.81062 12.3727L7.93203 12.5987L8.02013 12.5514ZM7.89871 12.3253L7.98932 12.283L7.88374 12.057L7.79314 12.0993L7.70253 12.1416L7.80811 12.3677L7.89871 12.3253ZM7.79314 12.0993L7.88706 12.065L7.8026 11.8338L7.70868 11.8682L7.61475 11.9025L7.69921 12.1336L7.79314 12.0993ZM7.70868 11.8682L7.68189 11.7718L7.60799 11.7924L7.63477 11.8887L7.66156 11.985L7.73546 11.9645L7.70868 11.8682ZM7.63477 11.8887L7.59628 11.7964L7.52238 11.8272L7.56087 11.9195L7.59936 12.0118L7.67327 11.981L7.63477 11.8887ZM7.56087 11.9195L7.52804 11.8251L7.45414 11.8507L7.48697 11.9452L7.5198 12.0397L7.5937 12.014L7.56087 11.9195ZM7.48697 11.9452L7.45611 11.8501L7.37693 11.8758L7.40779 11.9709L7.43864 12.066L7.51782 12.0403L7.48697 11.9452ZM7.40779 11.9709L7.381 11.8745L7.3071 11.8951L7.33388 11.9914L7.36067 12.0878L7.43457 12.0672L7.40779 11.9709ZM7.33388 11.9914L7.29539 11.8991L7.22149 11.93L7.25998 12.0223L7.29847 12.1146L7.37238 12.0837L7.33388 11.9914ZM7.25998 12.0223L7.22715 11.9278L7.15325 11.9535L7.18608 12.0479L7.21891 12.1424L7.29281 12.1167L7.25998 12.0223ZM7.18608 12.0479L7.15217 11.9539L7.00964 12.0052L7.04355 12.0993L7.07746 12.1934L7.21998 12.142L7.18608 12.0479ZM7.04355 12.0993L6.9998 12.0094L6.92589 12.0454L6.96965 12.1353L7.0134 12.2252L7.0873 12.1892L7.04355 12.0993ZM6.96965 12.1353L6.93337 12.0421L6.88058 12.0626L6.91686 12.1558L6.95313 12.249L7.00592 12.2285L6.96965 12.1353ZM6.91686 12.1558L6.86548 12.07L6.79686 12.1111L6.84823 12.1969L6.89961 12.2827L6.96824 12.2416L6.91686 12.1558ZM6.84823 12.1969L6.82145 12.1006L6.74754 12.1211L6.77433 12.2175L6.80112 12.3138L6.87502 12.2933L6.84823 12.1969ZM6.77433 12.2175L6.72497 12.1305L6.66162 12.1665L6.71099 12.2534L6.76035 12.3404L6.8237 12.3044L6.77433 12.2175ZM6.71099 12.2534L6.67341 12.1608L6.61006 12.1864L6.64764 12.2791L6.68522 12.3718L6.74856 12.3461L6.71099 12.2534ZM6.64764 12.2791L6.59722 12.1928L6.54443 12.2236L6.59485 12.3099L6.64528 12.3963L6.69806 12.3655L6.64764 12.2791ZM6.59485 12.3099L6.49512 12.3172L6.53735 12.8977L6.63708 12.8904L6.73682 12.8832L6.69459 12.3027L6.59485 12.3099ZM6.63708 12.8904L6.53766 12.9011L6.59572 13.4405L6.69515 13.4298L6.79458 13.4191L6.73651 12.8797L6.63708 12.8904ZM6.69515 13.4298L6.59768 13.4522L6.7191 13.9813L6.81656 13.9589L6.91403 13.9365L6.79262 13.4074L6.69515 13.4298ZM6.81656 13.9589L6.72034 13.9861L6.86287 14.4896L6.95909 14.4623L7.05531 14.4351L6.91278 13.9317L6.81656 13.9589ZM6.95909 14.4623L6.86481 14.4957L7.03373 14.9734L7.12801 14.9401L7.22229 14.9067L7.05337 14.429L6.95909 14.4623ZM7.12801 14.9401L7.03741 14.9824L7.24856 15.4344L7.33916 15.3921L7.42977 15.3498L7.21861 14.8977L7.12801 14.9401ZM7.33916 15.3921L7.24934 15.4361L7.46049 15.8676L7.55031 15.8236L7.64014 15.7797L7.42898 15.3482L7.33916 15.3921ZM7.55031 15.8236L7.4638 15.8738L7.69606 16.2745L7.78258 16.2243L7.8691 16.1742L7.63683 15.7735L7.55031 15.8236ZM7.78258 16.2243L7.70008 16.2808L7.95346 16.6507L8.03596 16.5942L8.11846 16.5377L7.86508 16.1678L7.78258 16.2243ZM8.03596 16.5942L7.95535 16.6534L8.21929 17.0129L8.2999 16.9538L8.38052 16.8946L8.11658 16.535L8.03596 16.5942ZM8.2999 16.9538L8.22364 17.0185L8.49814 17.3421L8.5744 17.2774L8.65066 17.2127L8.37616 16.8891L8.2999 16.9538ZM8.5744 17.2774L8.50035 17.3446L8.78013 17.6528L8.85417 17.5856L8.92822 17.5184L8.64844 17.2102L8.5744 17.2774ZM8.85417 17.5856L8.78375 17.6566L9.05825 17.9289L9.12867 17.8579L9.19909 17.7869L8.92459 17.5146L8.85417 17.5856ZM9.12867 17.8579L9.06241 17.9328L9.35274 18.1896L9.419 18.1147L9.48526 18.0398L9.19493 17.783L9.12867 17.8579ZM9.419 18.1147L9.35531 18.1918L9.63508 18.423L9.69878 18.3459L9.76247 18.2688L9.4827 18.0376L9.419 18.1147ZM9.69878 18.3459L9.63771 18.4251L9.91749 18.6408L9.97856 18.5616L10.0396 18.4825L9.75985 18.2667L9.69878 18.3459ZM9.97856 18.5616L10.0734 18.5934L10.1526 18.3571L10.0577 18.3253L9.96292 18.2936L9.88374 18.5299L9.97856 18.5616ZM10.0577 18.3253L10.153 18.3557L10.2217 18.1399L10.1264 18.1096L10.0311 18.0793L9.96244 18.295L10.0577 18.3253ZM10.1264 18.1096L10.2223 18.1378L10.2857 17.922L10.1897 17.8938L10.0938 17.8657L10.0304 18.0814L10.1264 18.1096ZM10.1897 17.8938L10.2881 17.9115L10.3251 17.7061L10.2267 17.6884L10.1282 17.6707L10.0913 17.8761L10.1897 17.8938ZM10.2267 17.6884L10.3258 17.7018L10.3521 17.5066L10.2531 17.4932L10.154 17.4798L10.1276 17.675L10.2267 17.6884ZM10.2531 17.4932L10.3524 17.5042L10.3736 17.3141L10.2742 17.3031L10.1748 17.292L10.1537 17.4821L10.2531 17.4932ZM10.2742 17.3031H10.3742V16.774H10.2742H10.1742V17.3031H10.2742ZM10.2742 16.774L10.373 16.7586L10.3466 16.5891L10.2478 16.6045L10.149 16.6198L10.1754 16.7894L10.2742 16.774ZM10.2478 16.6045L10.3465 16.5886L10.3201 16.4242L10.2214 16.4401L10.1226 16.4559L10.149 16.6203L10.2478 16.6045ZM10.2214 16.4401L10.3185 16.4163L10.2393 16.0927L10.1422 16.1164L10.0451 16.1402L10.1242 16.4638L10.2214 16.4401ZM10.1422 16.1164L10.2368 16.084L10.184 15.9299L10.0894 15.9623L9.99481 15.9947L10.0476 16.1488L10.1422 16.1164ZM10.0894 15.9623L10.1834 15.9281L10.0672 15.6096L9.97328 15.6438L9.87933 15.6781L9.99546 15.9966L10.0894 15.9623ZM13.1881 10.101L13.1746 10.2001L13.4385 10.2361L13.452 10.137L13.4655 10.0379L13.2016 10.0019L13.1881 10.101ZM13.452 10.137L13.4366 10.2358L13.7005 10.2769L13.7159 10.1781L13.7313 10.0793L13.4674 10.0382L13.452 10.137ZM13.7159 10.1781L13.6968 10.2762L13.9608 10.3276L13.9799 10.2295L13.999 10.1313L13.735 10.0799L13.7159 10.1781ZM13.9799 10.2295L13.9608 10.3276L14.2247 10.379L14.2438 10.2808L14.2629 10.1827L13.999 10.1313L13.9799 10.2295ZM14.2438 10.2808L14.2235 10.3787L14.4716 10.4301L14.4919 10.3322L14.5122 10.2343L14.2641 10.1829L14.2438 10.2808ZM14.4919 10.3322L14.4674 10.4291L14.7313 10.4959L14.7559 10.399L14.7804 10.302L14.5164 10.2352L14.4919 10.3322ZM14.7559 10.399L14.7293 10.4954L14.9722 10.5622L14.9987 10.4658L15.0252 10.3693L14.7824 10.3026L14.7559 10.399ZM14.9987 10.4658L14.969 10.5613L15.2171 10.6383L15.2468 10.5428L15.2764 10.4473L15.0283 10.3703L14.9987 10.4658ZM15.2468 10.5428L15.2153 10.6377L15.4476 10.7148L15.479 10.6199L15.5105 10.525L15.2783 10.4479L15.2468 10.5428ZM15.479 10.6199L15.4464 10.7144L15.6839 10.7966L15.7166 10.7021L15.7493 10.6076L15.5117 10.5254L15.479 10.6199ZM15.7166 10.7021L15.6838 10.7965L15.9055 10.8736L15.9383 10.7791L15.9711 10.6847L15.7494 10.6076L15.7166 10.7021ZM15.9383 10.7791L15.9031 10.8727L16.1354 10.96L16.1706 10.8664L16.2058 10.7728L15.9735 10.6855L15.9383 10.7791ZM16.1706 10.8664L16.1305 10.958L16.3416 11.0505L16.3817 10.9589L16.4218 10.8673L16.2107 10.7748L16.1706 10.8664ZM16.3817 10.9589L16.338 11.0488L16.7603 11.2543L16.804 11.1644L16.8478 11.0745L16.4255 10.869L16.3817 10.9589ZM16.804 11.1644L16.7549 11.2515L16.9555 11.3645L17.0046 11.2774L17.0537 11.1903L16.8531 11.0773L16.804 11.1644ZM17.0046 11.2774L16.9047 11.2748L16.8941 11.6858L16.9941 11.6884L17.094 11.6909L17.1046 11.28L17.0046 11.2774ZM16.9941 11.6884L16.8942 11.683L16.8731 12.0786L16.9729 12.0839L17.0728 12.0892L17.0939 11.6937L16.9941 11.6884ZM16.9729 12.0839L16.8735 12.0733L16.8313 12.4688L16.9307 12.4795L17.0302 12.4901L17.0724 12.0945L16.9729 12.0839ZM16.9307 12.4795L16.8317 12.4655L16.7789 12.8405L16.8779 12.8545L16.977 12.8684L17.0297 12.4934L16.9307 12.4795ZM16.8779 12.8545L16.7789 12.8407L16.7261 13.2208L16.8251 13.2346L16.9242 13.2483L16.977 12.8682L16.8779 12.8545ZM16.8251 13.2346L16.7278 13.2117L16.6433 13.5713L16.7407 13.5942L16.838 13.617L16.9225 13.2575L16.8251 13.2346ZM16.7407 13.5942L16.6433 13.5713L16.5589 13.9309L16.6562 13.9538L16.7536 13.9766L16.838 13.617L16.7407 13.5942ZM16.6562 13.9538L16.5598 13.9272L16.4648 14.2713L16.5612 14.2979L16.6576 14.3246L16.7526 13.9804L16.6562 13.9538ZM16.5612 14.2979L16.4656 14.2686L16.36 14.6128L16.4556 14.6421L16.5512 14.6715L16.6568 14.3273L16.5612 14.2979ZM16.4556 14.6421L16.3618 14.6075L16.2404 14.9362L16.3342 14.9709L16.428 15.0055L16.5494 14.6768L16.4556 14.6421ZM16.3342 14.9709L16.2413 14.9339L16.1146 15.2524L16.2075 15.2894L16.3004 15.3263L16.4271 15.0079L16.3342 14.9709ZM16.2075 15.2894L16.1162 15.2487L15.9789 15.5569L16.0703 15.5976L16.1616 15.6383L16.2989 15.3301L16.2075 15.2894ZM16.0703 15.5976L15.9801 15.5545L15.8375 15.8524L15.9277 15.8955L16.018 15.9387L16.1605 15.6408L16.0703 15.5976ZM15.9277 15.8955L15.8394 15.8486L15.6811 16.1466L15.7694 16.1935L15.8577 16.2404L16.016 15.9425L15.9277 15.8955ZM15.7694 16.1935L15.6811 16.1465L15.5333 16.4239L15.6216 16.4709L15.7098 16.5179L15.8576 16.2405L15.7694 16.1935ZM15.6216 16.4709L15.5347 16.4213L15.3764 16.6987L15.4632 16.7483L15.5501 16.7979L15.7084 16.5205L15.6216 16.4709ZM15.4632 16.7483L15.3888 16.815L16.7612 18.3459L16.8357 18.2791L16.9102 18.2124L15.5377 16.6815L15.4632 16.7483ZM16.8357 18.2791L16.9203 18.3325L17.1472 17.9729L17.0627 17.9195L16.9781 17.8661L16.7511 18.2257L16.8357 18.2791ZM17.0627 17.9195L17.1489 17.9702L17.3601 17.6106L17.2738 17.5599L17.1876 17.5093L16.9765 17.8689L17.0627 17.9195ZM17.2738 17.5599L17.3602 17.6103L17.5819 17.2302L17.4955 17.1798L17.4092 17.1294L17.1875 17.5096L17.2738 17.5599ZM17.4955 17.1798L17.585 17.2245L17.7803 16.8341L17.6909 16.7894L17.6014 16.7446L17.4061 17.1351L17.4955 17.1798ZM17.6909 16.7894L17.7816 16.8314L17.9717 16.4204L17.8809 16.3784L17.7901 16.3365L17.6001 16.7474L17.6909 16.7894ZM17.8809 16.3784L17.9721 16.4194L18.1569 16.0085L18.0657 15.9675L17.9744 15.9265L17.7897 16.3374L17.8809 16.3784ZM18.0657 15.9675L18.1595 16.0019L18.3179 15.5704L18.224 15.536L18.1301 15.5015L17.9718 15.933L18.0657 15.9675ZM18.224 15.536L18.3182 15.5697L18.4765 15.1279L18.3824 15.0942L18.2882 15.0604L18.1299 15.5022L18.224 15.536ZM18.3824 15.0942L18.4785 15.1216L18.6105 14.6593L18.5144 14.6319L18.4182 14.6044L18.2862 15.0667L18.3824 15.0942ZM18.5144 14.6319L18.6111 14.6573L18.7325 14.1949L18.6358 14.1695L18.539 14.1441L18.4176 14.6065L18.5144 14.6319ZM18.6358 14.1695L18.7335 14.1907L18.8391 13.7027L18.7413 13.6815L18.6436 13.6604L18.538 14.1484L18.6358 14.1695ZM18.7413 13.6815L18.8396 13.7001L18.9346 13.1966L18.8364 13.1781L18.7381 13.1595L18.6431 13.663L18.7413 13.6815ZM18.8364 13.1781L18.9355 13.1913L19.0041 12.6776L18.905 12.6644L18.8059 12.6511L18.7372 13.1648L18.8364 13.1781ZM18.905 12.6644L19.0045 12.6743L19.0573 12.1452L18.9578 12.1353L18.8583 12.1253L18.8055 12.6545L18.905 12.6644ZM18.9578 12.1353L19.0576 12.141L19.0893 11.5914L18.9894 11.5856L18.8896 11.5799L18.8579 12.1295L18.9578 12.1353ZM18.9894 11.5856L19.0894 11.5875L19.1 11.0379L19 11.036L18.9 11.034L18.8895 11.5837L18.9894 11.5856ZM19 11.036L19.0544 10.9521L18.7377 10.7466L18.6833 10.8305L18.6288 10.9144L18.9456 11.1199L19 11.036ZM18.6833 10.8305L18.7377 10.7466L18.4051 10.5308L18.3507 10.6147L18.2963 10.6986L18.6288 10.9144L18.6833 10.8305ZM18.3507 10.6147L18.398 10.5266L18.0444 10.3366L17.997 10.4247L17.9497 10.5127L18.3034 10.7028L18.3507 10.6147ZM17.997 10.4247L18.0408 10.3347L17.6818 10.1601L17.6381 10.25L17.5943 10.3399L17.9533 10.5146L17.997 10.4247ZM17.6381 10.25L17.6808 10.1596L17.3113 9.98493L17.2686 10.0753L17.2258 10.1658L17.5953 10.3404L17.6381 10.25ZM17.2686 10.0753L17.3044 9.98199L16.9032 9.82788L16.8674 9.92123L16.8315 10.0146L17.2327 10.1687L17.2686 10.0753ZM16.8674 9.92123L16.9011 9.8271L16.4999 9.68327L16.4662 9.7774L16.4324 9.87153L16.8336 10.0154L16.8674 9.92123ZM16.4662 9.7774L16.4963 9.68205L16.074 9.54849L16.0439 9.64384L16.0137 9.73918L16.436 9.87274L16.4662 9.7774ZM16.0439 9.64384L16.0708 9.54753L15.6485 9.42938L15.6216 9.52569L15.5946 9.62199L16.0169 9.74014L16.0439 9.64384ZM15.6216 9.52569L15.6447 9.42839L15.2118 9.32565L15.1887 9.42295L15.1656 9.52024L15.5985 9.62298L15.6216 9.52569ZM15.1887 9.42295L15.2113 9.32553L14.7679 9.22279L14.7453 9.32021L14.7227 9.41763L15.1661 9.52037L15.1887 9.42295ZM14.7453 9.32021L14.7655 9.22226L14.3168 9.1298L14.2966 9.22774L14.2764 9.32568L14.7251 9.41815L14.7453 9.32021ZM14.2966 9.22774L14.3131 9.12912L13.8539 9.05206L13.8373 9.15069L13.8208 9.24931L14.2801 9.32636L14.2966 9.22774ZM13.8373 9.15069L13.8505 9.05155L13.386 8.98991L13.3728 9.08904L13.3597 9.18817L13.8242 9.24982L13.8373 9.15069ZM13.3728 9.08904L13.3836 8.98962L12.9085 8.93825L12.8977 9.03767L12.887 9.13709L13.3621 9.18846L13.3728 9.08904ZM12.8977 9.03767L12.9054 8.93797L12.4409 8.90201L12.4332 9.00171L12.4255 9.10141L12.89 9.13737L12.8977 9.03767ZM12.4332 9.00171L12.3428 9.04457L12.3745 9.11135L12.4649 9.06849L12.5552 9.02564L12.5235 8.95886L12.4332 9.00171ZM12.4649 9.06849L12.3803 9.12194L12.4226 9.18872L12.5071 9.13527L12.5916 9.08183L12.5494 9.01505L12.4649 9.06849ZM12.5071 9.13527L12.4209 9.18591L12.4631 9.25783L12.5493 9.20719L12.6356 9.15656L12.5933 9.08464L12.5071 9.13527ZM12.5493 9.20719L12.4648 9.26064L12.507 9.32742L12.5916 9.27397L12.6761 9.22053L12.6338 9.15375L12.5493 9.20719ZM12.5916 9.27397L12.5076 9.3283L12.5973 9.46699L12.6813 9.41267L12.7653 9.35835L12.6755 9.21965L12.5916 9.27397ZM12.6813 9.41267L12.5923 9.45837L12.6293 9.53029L12.7182 9.48459L12.8072 9.43889L12.7702 9.36697L12.6813 9.41267ZM12.7182 9.48459L12.6398 9.5466L12.6926 9.61338L12.771 9.55137L12.8495 9.48936L12.7967 9.42258L12.7182 9.48459ZM12.771 9.55137L12.6885 9.60789L12.7836 9.74659L12.8661 9.69007L12.9485 9.63355L12.8535 9.49485L12.771 9.55137ZM12.8661 9.69007L12.7815 9.74352L12.8238 9.8103L12.9083 9.75685L12.9928 9.7034L12.9506 9.63662L12.8661 9.69007ZM12.9083 9.75685L12.8287 9.81742L12.9343 9.95612L13.0139 9.89555L13.0934 9.83498L12.9879 9.69628L12.9083 9.75685ZM13.0139 9.89555L12.9379 9.96059L12.9907 10.0222L13.0666 9.95719L13.1426 9.89215L13.0898 9.8305L13.0139 9.89555ZM13.0666 9.95719L12.9907 10.0222L13.0435 10.0839L13.1194 10.0188L13.1954 9.95379L13.1426 9.89215L13.0666 9.95719ZM13.1194 10.0188L13.0388 10.078L13.0916 10.1499L13.1722 10.0908L13.2528 10.0316L13.2 9.95966L13.1194 10.0188ZM5.00594 11.2825H4.90594V11.6935H5.00594H5.10594V11.2825H5.00594ZM5.00594 11.6935L4.90608 11.6988L4.9272 12.0944L5.02705 12.089L5.12691 12.0837L5.1058 11.6882L5.00594 11.6935ZM5.02705 12.089L4.92749 12.0983L4.96444 12.4939L5.06401 12.4846L5.16357 12.4753L5.12662 12.0797L5.02705 12.089ZM5.06401 12.4846L4.96498 12.4985L5.01777 12.8735L5.11679 12.8596L5.21582 12.8457L5.16303 12.4707L5.06401 12.4846ZM5.11679 12.8596L5.01815 12.876L5.0815 13.2562L5.18014 13.2397L5.27878 13.2233L5.21543 12.8432L5.11679 12.8596ZM5.18014 13.2397L5.08219 13.2599L5.15609 13.6194L5.25404 13.5993L5.35199 13.5792L5.27809 13.2196L5.18014 13.2397ZM5.25404 13.5993L5.15669 13.6222L5.24115 13.9818L5.3385 13.9589L5.43585 13.936L5.35139 13.5765L5.25404 13.5993ZM5.3385 13.9589L5.24211 13.9855L5.33713 14.3297L5.43352 14.3031L5.52991 14.2765L5.4349 13.9323L5.3385 13.9589ZM5.43352 14.3031L5.33877 14.3351L5.4549 14.6792L5.54965 14.6473L5.6444 14.6153L5.52827 14.2711L5.43352 14.3031ZM5.54965 14.6473L5.45536 14.6806L5.5715 15.0093L5.66579 14.976L5.76008 14.9427L5.64394 14.614L5.54965 14.6473ZM5.66579 14.976L5.57235 15.0116L5.69376 15.3301L5.7872 15.2945L5.88064 15.2589L5.75923 14.9404L5.66579 14.976ZM5.7872 15.2945L5.69585 15.3352L5.8331 15.6434L5.92445 15.6027L6.0158 15.5621L5.87855 15.2538L5.7872 15.2945ZM5.92445 15.6027L5.83486 15.6472L5.98267 15.9451L6.07225 15.9007L6.16184 15.8562L6.01403 15.5583L5.92445 15.6027ZM6.07225 15.9007L5.98395 15.9476L6.14232 16.2456L6.23062 16.1986L6.31892 16.1517L6.16056 15.8538L6.07225 15.9007ZM6.23062 16.1986L6.14377 16.2482L6.30214 16.5256L6.38898 16.476L6.47582 16.4265L6.31746 16.1491L6.23062 16.1986ZM6.38898 16.476L6.30357 16.528L6.47249 16.8054L6.5579 16.7534L6.64331 16.7014L6.47439 16.424L6.38898 16.476ZM6.5579 16.7534L6.4837 16.6864L5.10066 18.2172L5.17486 18.2842L5.24906 18.3513L6.6321 16.8205L6.5579 16.7534ZM5.17486 18.2842L5.2583 18.2291L5.02075 17.8695L4.93731 17.9247L4.85388 17.9798L5.09142 18.3394L5.17486 18.2842ZM4.93731 17.9247L5.02355 17.874L4.8124 17.5144L4.72616 17.5651L4.63993 17.6157L4.85108 17.9753L4.93731 17.9247ZM4.72616 17.5651L4.81254 17.5147L4.59084 17.1346L4.50445 17.1849L4.41807 17.2353L4.63978 17.6155L4.72616 17.5651ZM4.50445 17.1849L4.59389 17.1402L4.39857 16.7498L4.30914 16.7945L4.21971 16.8393L4.41502 17.2297L4.50445 17.1849ZM4.30914 16.7945L4.3999 16.7526L4.20987 16.3416L4.1191 16.3836L4.02834 16.4255L4.21837 16.8365L4.30914 16.7945ZM4.1191 16.3836L4.21074 16.3435L4.03127 15.9326L3.93962 15.9726L3.84798 16.0126L4.02746 16.4236L4.1191 16.3836ZM3.93962 15.9726L4.0335 15.9382L3.87514 15.5066L3.78126 15.5411L3.68738 15.5756L3.84575 16.0071L3.93962 15.9726ZM3.78126 15.5411L3.87539 15.5074L3.71703 15.0656L3.6229 15.0993L3.52876 15.1331L3.68713 15.5748L3.78126 15.5411ZM3.6229 15.0993L3.71876 15.0709L3.58151 14.6085L3.48565 14.637L3.38978 14.6654L3.52703 15.1278L3.6229 15.0993ZM3.48565 14.637L3.58237 14.6116L3.46096 14.1493L3.36424 14.1747L3.26752 14.2001L3.38893 14.6624L3.48565 14.637ZM3.36424 14.1747L3.46198 14.1535L3.3564 13.6655L3.25866 13.6866L3.16092 13.7078L3.2665 14.1958L3.36424 14.1747ZM3.25866 13.6866L3.35728 13.6701L3.27282 13.1667L3.1742 13.1832L3.07558 13.1998L3.16004 13.7032L3.25866 13.6866ZM3.1742 13.1832L3.27332 13.17L3.2047 12.6563L3.10558 12.6695L3.00646 12.6828L3.07508 13.1965L3.1742 13.1832ZM3.10558 12.6695L3.20508 12.6596L3.15229 12.1305L3.05279 12.1404L2.95328 12.1503L3.00607 12.6794L3.10558 12.6695ZM3.05279 12.1404L3.15233 12.1309L3.09954 11.5812L3 11.5908L2.90046 11.6003L2.95325 12.15L3.05279 12.1404ZM3 11.5908H3.1V11.0411H3H2.9V11.5908H3ZM3 11.0411L3.0569 11.1233L3.29445 10.9589L3.23755 10.8767L3.18064 10.7945L2.9431 10.9589L3 11.0411ZM3.23755 10.8767L3.29197 10.9606L3.52952 10.8065L3.47509 10.7226L3.42067 10.6387L3.18312 10.7928L3.23755 10.8767ZM3.47509 10.7226L3.52551 10.809L3.78945 10.6549L3.73903 10.5685L3.68861 10.4821L3.42467 10.6362L3.47509 10.7226ZM3.73903 10.5685L3.78688 10.6563L4.05082 10.5125L4.00297 10.4247L3.95512 10.3369L3.69118 10.4807L3.73903 10.5685ZM4.00297 10.4247L4.04812 10.5139L4.31206 10.3803L4.26691 10.2911L4.22176 10.2019L3.95782 10.3354L4.00297 10.4247ZM4.26691 10.2911L4.3087 10.3819L4.59903 10.2484L4.55724 10.1575L4.51545 10.0667L4.22512 10.2002L4.26691 10.2911ZM4.55724 10.1575L4.59494 10.2502L4.88527 10.132L4.84758 10.0394L4.80988 9.94676L4.51955 10.0649L4.55724 10.1575ZM4.84758 10.0394L4.88328 10.1328L5.1789 10.0198L5.14319 9.92637L5.10748 9.83296L4.81187 9.94598L4.84758 10.0394ZM5.14319 9.92637L5.175 10.0212L5.48117 9.91844L5.44936 9.82363L5.41754 9.72883L5.11137 9.83157L5.14319 9.92637ZM5.44936 9.82363L5.48021 9.91875L5.79694 9.81601L5.76608 9.72089L5.73523 9.62577L5.4185 9.72851L5.44936 9.82363ZM5.76608 9.72089L5.79694 9.81601L6.11367 9.71327L6.08281 9.61815L6.05196 9.52303L5.73523 9.62577L5.76608 9.72089ZM6.08281 9.61815L6.11 9.71438L6.43728 9.62192L6.4101 9.52569L6.38291 9.42945L6.05562 9.52192L6.08281 9.61815ZM6.4101 9.52569L6.43445 9.62267L6.76174 9.54048L6.73738 9.44349L6.71302 9.34651L6.38574 9.4287L6.4101 9.52569ZM6.73738 9.44349L6.75962 9.54099L7.09746 9.46394L7.07522 9.36644L7.05299 9.26894L6.71514 9.346L6.73738 9.44349ZM7.07522 9.36644L7.09574 9.46431L7.43886 9.39239L7.41834 9.29452L7.39783 9.19665L7.05471 9.26857L7.07522 9.36644ZM7.41834 9.29452L7.43603 9.39295L7.77915 9.3313L7.76147 9.23288L7.74378 9.13445L7.40066 9.1961L7.41834 9.29452ZM7.76147 9.23288L7.66801 9.19731L7.61522 9.33601L7.70868 9.37158L7.80214 9.40715L7.85492 9.26845L7.76147 9.23288ZM7.70868 9.37158L7.61072 9.35144L7.59489 9.4285L7.69284 9.44863L7.79079 9.46876L7.80663 9.39171L7.70868 9.37158ZM7.69284 9.44863L7.59896 9.41418L7.57257 9.4861L7.66645 9.52055L7.76032 9.555L7.78672 9.48308L7.69284 9.44863ZM7.66645 9.52055L7.57184 9.48814L7.55073 9.54979L7.64533 9.58219L7.73994 9.6146L7.76105 9.55295L7.66645 9.52055ZM7.64533 9.58219L7.54639 9.56767L7.53583 9.63959L7.63477 9.65411L7.73371 9.66864L7.74427 9.59672L7.64533 9.58219ZM7.63477 9.65411L7.53943 9.62396L7.51831 9.69074L7.61366 9.72089L7.70901 9.75104L7.73012 9.68426L7.63477 9.65411ZM7.61366 9.72089L7.51636 9.69782L7.50052 9.7646L7.59782 9.78767L7.69512 9.81075L7.71096 9.74397L7.61366 9.72089ZM7.59782 9.78767H7.49782V9.85445H7.59782H7.69782V9.78767H7.59782ZM7.59782 9.85445L7.50016 9.83295L7.46849 9.97678L7.56615 9.99829L7.66381 10.0198L7.69548 9.87596L7.59782 9.85445ZM7.56615 9.99829L7.46758 9.98141L7.45703 10.0431L7.55559 10.0599L7.65416 10.0768L7.66471 10.0152L7.56615 9.99829ZM7.55559 10.0599L7.45682 10.0443L7.44626 10.1111L7.54503 10.1267L7.64381 10.1423L7.65437 10.0755L7.55559 10.0599ZM7.54503 10.1267L7.4454 10.1182L7.43484 10.2415L7.53448 10.25L7.63411 10.2585L7.64467 10.1352L7.54503 10.1267ZM7.53448 10.25H7.43448V10.3168H7.53448H7.63448V10.25H7.53448ZM7.53448 10.3168L7.51276 10.2192L7.32801 10.2603L7.34972 10.3579L7.37143 10.4555L7.55619 10.4144L7.53448 10.3168ZM7.34972 10.3579L7.32676 10.2605L7.15256 10.3016L7.17552 10.399L7.19848 10.4963L7.37268 10.4552L7.34972 10.3579ZM7.17552 10.399L7.14642 10.3033L6.9775 10.3547L7.0066 10.4503L7.03569 10.546L7.20461 10.4946L7.17552 10.399ZM7.0066 10.4503L6.97831 10.3544L6.80411 10.4058L6.8324 10.5017L6.86068 10.5976L7.03488 10.5463L7.0066 10.4503ZM6.8324 10.5017L6.8033 10.406L6.63438 10.4574L6.66348 10.5531L6.69257 10.6488L6.86149 10.5974L6.8324 10.5017ZM6.66348 10.5531L6.63262 10.458L6.47426 10.5093L6.50511 10.6045L6.53597 10.6996L6.69433 10.6482L6.66348 10.5531ZM6.50511 10.6045L6.47602 10.5088L6.3071 10.5601L6.33619 10.6558L6.36529 10.7515L6.53421 10.7001L6.50511 10.6045ZM6.33619 10.6558L6.2977 10.5635L6.14989 10.6252L6.18839 10.7175L6.22688 10.8098L6.37469 10.7481L6.33619 10.6558ZM6.18839 10.7175L6.15211 10.6243L5.99375 10.6859L6.03002 10.7791L6.0663 10.8723L6.22466 10.8107L6.18839 10.7175ZM6.03002 10.7791L5.99375 10.6859L5.83539 10.7476L5.87166 10.8408L5.90793 10.9339L6.0663 10.8723L6.03002 10.7791ZM5.87166 10.8408L5.83317 10.7485L5.68536 10.8101L5.72385 10.9024L5.76235 10.9947L5.91015 10.933L5.87166 10.8408ZM5.72385 10.9024L5.685 10.8103L5.52663 10.877L5.56549 10.9692L5.60435 11.0613L5.76271 10.9945L5.72385 10.9024ZM5.56549 10.9692L5.51908 10.8806L5.38183 10.9525L5.42824 11.0411L5.47466 11.1297L5.6119 11.0578L5.56549 10.9692ZM5.42824 11.0411L5.38581 10.9505L5.10076 11.0841L5.14319 11.1747L5.18562 11.2652L5.47067 11.1316L5.42824 11.0411ZM5.14319 11.1747L5.09032 11.0898L4.95835 11.172L5.01122 11.2569L5.06408 11.3417L5.19605 11.2595L5.14319 11.1747ZM10.9974 23L11.0297 22.9054L10.8344 22.8386L10.802 22.9332L10.7697 23.0278L10.965 23.0946L10.9974 23ZM10.802 22.9332L10.8383 22.84L10.6272 22.7578L10.5909 22.851L10.5546 22.9442L10.7658 23.0264L10.802 22.9332ZM10.5909 22.851L10.6329 22.7603L10.4112 22.6576L10.3692 22.7483L10.3271 22.839L10.5488 22.9418L10.5909 22.851ZM10.3692 22.7483L10.4096 22.6568L10.1774 22.5541L10.1369 22.6455L10.0965 22.737L10.3287 22.8397L10.3692 22.7483ZM10.1369 22.6455L10.1822 22.5564L9.93937 22.4331L9.89409 22.5223L9.84882 22.6114L10.0916 22.7347L10.1369 22.6455ZM9.89409 22.5223L9.94072 22.4338L9.68734 22.3002L9.64071 22.3887L9.59408 22.4772L9.84746 22.6107L9.89409 22.5223ZM9.64071 22.3887L9.69113 22.3023L9.4272 22.1482L9.37677 22.2346L9.32635 22.3209L9.59029 22.4751L9.64071 22.3887ZM9.37677 22.2346L9.4272 22.1482L9.16326 21.9941L9.11283 22.0805L9.06241 22.1668L9.32635 22.3209L9.37677 22.2346ZM9.11283 22.0805L9.16913 21.9978L8.90519 21.818L8.84889 21.9007L8.7926 21.9833L9.05654 22.1631L9.11283 22.0805ZM8.84889 21.9007L8.90469 21.8177L8.61436 21.6225L8.55856 21.7055L8.50277 21.7885L8.7931 21.9837L8.84889 21.9007ZM8.55856 21.7055L8.61776 21.6249L8.33798 21.4194L8.27879 21.5L8.21959 21.5806L8.49937 21.7861L8.55856 21.7055ZM8.27879 21.5L8.33726 21.4189L8.05221 21.2134L7.99373 21.2945L7.93526 21.3756L8.22031 21.5811L8.27879 21.5ZM7.99373 21.2945L8.05602 21.2163L7.76569 20.9851L7.7034 21.0634L7.64111 21.1416L7.93144 21.3728L7.99373 21.2945ZM7.7034 21.0634L7.76952 20.9883L7.48974 20.7418L7.42362 20.8168L7.3575 20.8918L7.63728 21.1384L7.7034 21.0634ZM7.42362 20.8168L7.48988 20.7419L7.19955 20.485L7.13329 20.5599L7.06703 20.6348L7.35736 20.8917L7.42362 20.8168ZM7.13329 20.5599L7.20303 20.4883L6.92326 20.216L6.85351 20.2877L6.78377 20.3593L7.06355 20.6316L7.13329 20.5599ZM6.85351 20.2877L6.92789 20.3545L8.28982 18.8391L8.21544 18.7723L8.14106 18.7054L6.77914 20.2208L6.85351 20.2877ZM8.21544 18.7723L8.14777 18.8459L8.33781 19.0205L8.40548 18.9469L8.47315 18.8733L8.28311 18.6986L8.21544 18.7723ZM8.40548 18.9469L8.33901 19.0216L8.70852 19.3504L8.77499 19.2757L8.84146 19.201L8.47195 18.8722L8.40548 18.9469ZM8.77499 19.2757L8.71305 19.3542L8.90836 19.5083L8.97031 19.4298L9.03225 19.3513L8.83693 19.1972L8.77499 19.2757ZM8.97031 19.4298L8.90732 19.5075L9.09736 19.6616L9.16034 19.5839L9.22333 19.5062L9.03329 19.3521L8.97031 19.4298ZM9.16034 19.5839L9.10435 19.6668L9.29439 19.7952L9.35038 19.7123L9.40637 19.6295L9.21634 19.5011L9.16034 19.5839ZM9.35038 19.7123L9.29179 19.7934L9.47655 19.9269L9.53514 19.8459L9.59372 19.7649L9.40896 19.6313L9.35038 19.7123ZM9.53514 19.8459L9.47695 19.9272L9.65642 20.0556L9.71462 19.9743L9.77281 19.893L9.59333 19.7646L9.53514 19.8459ZM9.71462 19.9743L9.66074 20.0586L9.8455 20.1767L9.89937 20.0925L9.95325 20.0082L9.76849 19.8901L9.71462 19.9743ZM9.89937 20.0925L9.84741 20.1779L10.0163 20.2806L10.0683 20.1952L10.1203 20.1098L9.95134 20.007L9.89937 20.0925ZM10.0683 20.1952L10.0163 20.2806L10.1853 20.3834L10.2372 20.2979L10.2892 20.2125L10.1203 20.1098L10.0683 20.1952ZM10.2372 20.2979L10.1828 20.3818L10.3412 20.4846L10.3956 20.4007L10.45 20.3168L10.2916 20.2141L10.2372 20.2979ZM10.3956 20.4007L10.3518 20.4906L10.5102 20.5677L10.5539 20.4777L10.5977 20.3878L10.4393 20.3108L10.3956 20.4007ZM10.5539 20.4777L10.5126 20.5688L10.671 20.6407L10.7123 20.5497L10.7537 20.4586L10.5953 20.3867L10.5539 20.4777ZM10.7123 20.5497L10.6661 20.6383L10.8139 20.7154L10.8601 20.6267L10.9063 20.538L10.7585 20.461L10.7123 20.5497ZM10.8601 20.6267L10.8204 20.7185L10.9629 20.7801L11.0026 20.6884L11.0423 20.5966L10.8998 20.5349L10.8601 20.6267ZM11.0026 20.6884L11.0436 20.7796L11.1809 20.7179L11.1399 20.6267L11.0989 20.5355L10.9617 20.5971L11.0026 20.6884ZM11.1399 20.6267L11.1836 20.7166L11.342 20.6396L11.2983 20.5497L11.2545 20.4597L11.0961 20.5368L11.1399 20.6267ZM11.2983 20.5497L11.3396 20.6407L11.498 20.5688L11.4566 20.4777L11.4153 20.3867L11.2569 20.4586L11.2983 20.5497ZM11.4566 20.4777L11.5027 20.5665L11.661 20.4843L11.615 20.3955L11.5689 20.3068L11.4105 20.389L11.4566 20.4777ZM11.615 20.3955L11.6694 20.4794L11.8278 20.3767L11.7733 20.2928L11.7189 20.2089L11.5606 20.3117L11.615 20.3955ZM11.7733 20.2928L11.8214 20.3805L11.9903 20.2881L11.9423 20.2003L11.8942 20.1126L11.7253 20.2051L11.7733 20.2928ZM11.9423 20.2003L11.9955 20.285L12.175 20.172L12.1217 20.0873L12.0685 20.0027L11.889 20.1157L11.9423 20.2003ZM12.1217 20.0873L12.1779 20.1701L12.3521 20.0519L12.2959 19.9692L12.2398 19.8864L12.0656 20.0046L12.1217 20.0873ZM12.2959 19.9692L12.3526 20.0516L12.532 19.9283L12.4754 19.8459L12.4188 19.7635L12.2393 19.8868L12.2959 19.9692ZM12.4754 19.8459L12.5336 19.9272L12.7131 19.7988L12.6549 19.7175L12.5967 19.6361L12.4172 19.7646L12.4754 19.8459ZM12.6549 19.7175L12.7124 19.7993L12.9024 19.6657L12.8449 19.5839L12.7874 19.5021L12.5974 19.6357L12.6549 19.7175ZM12.8449 19.5839L12.909 19.6607L13.0937 19.5066L13.0297 19.4298L12.9656 19.353L12.7809 19.5071L12.8449 19.5839ZM13.0297 19.4298L13.0937 19.5066L13.2785 19.3525L13.2145 19.2757L13.1504 19.1989L12.9656 19.353L13.0297 19.4298ZM13.2145 19.2757L13.2799 19.3513L13.6599 19.0226L13.5945 18.9469L13.5291 18.8713L13.149 19.2001L13.2145 19.2757ZM13.5945 18.9469L13.6612 19.0215L13.8565 18.8468L13.7898 18.7723L13.7232 18.6977L13.5279 18.8724L13.5945 18.9469ZM13.7898 18.7723L13.7155 18.8391L15.0774 20.3545L15.1518 20.2877L15.2261 20.2208L13.8642 18.7054L13.7898 18.7723ZM15.1518 20.2877L15.0834 20.2147L14.7983 20.4818L14.8667 20.5548L14.9351 20.6278L15.2201 20.3606L15.1518 20.2877ZM14.8667 20.5548L14.8005 20.4799L14.5101 20.7367L14.5764 20.8116L14.6426 20.8865L14.933 20.6297L14.8667 20.5548ZM14.5764 20.8116L14.5117 20.7353L14.2267 20.9768L14.2913 21.0531L14.356 21.1294L14.641 20.888L14.5764 20.8116ZM14.2913 21.0531L14.2299 20.9742L13.9396 21.2002L14.001 21.2791L14.0624 21.358L14.3528 21.132L14.2913 21.0531ZM14.001 21.2791L13.9404 21.1995L13.6501 21.4204L13.7107 21.5L13.7712 21.5796L14.0615 21.3587L14.001 21.2791ZM13.7107 21.5L13.6515 21.4194L13.3717 21.6249L13.4309 21.7055L13.4901 21.7861L13.7699 21.5806L13.7107 21.5ZM13.4309 21.7055L13.3757 21.6221L13.096 21.807L13.1511 21.8904L13.2062 21.9738L13.486 21.7889L13.4309 21.7055ZM13.1511 21.8904L13.0974 21.806L12.8229 21.9807L12.8766 22.0651L12.9303 22.1494L13.2048 21.9748L13.1511 21.8904ZM12.8766 22.0651L12.8262 21.9787L12.5622 22.1328L12.6127 22.2192L12.6631 22.3055L12.927 22.1514L12.8766 22.0651ZM12.6127 22.2192L12.5622 22.1328L12.2983 22.2869L12.3487 22.3733L12.3992 22.4596L12.6631 22.3055L12.6127 22.2192ZM12.3487 22.3733L12.3021 22.2848L12.0487 22.4184L12.0953 22.5069L12.142 22.5953L12.3954 22.4618L12.3487 22.3733ZM12.0953 22.5069L12.0508 22.4173L11.8133 22.5355L11.8578 22.625L11.9023 22.7145L12.1399 22.5964L12.0953 22.5069ZM11.8578 22.625L11.8188 22.5329L11.576 22.6356L11.615 22.7277L11.6539 22.8198L11.8968 22.7171L11.8578 22.625ZM11.615 22.7277L11.5729 22.637L11.3512 22.7397L11.3933 22.8305L11.4353 22.9212L11.657 22.8185L11.615 22.7277ZM11.3933 22.8305L11.3551 22.7381L11.1439 22.8254L11.1821 22.9178L11.2203 23.0102L11.4315 22.9229L11.3933 22.8305ZM11.1821 22.9178L11.1498 22.8232L10.9545 22.89L10.9868 22.9846L11.0192 23.0792L11.2145 23.0124L11.1821 22.9178ZM13.0825 15.6027L13.1647 15.6596L13.3601 15.3771L13.2778 15.3202L13.1955 15.2633L13.0002 15.5459L13.0825 15.6027ZM13.2778 15.3202L13.3618 15.3745L13.5412 15.0971L13.4573 15.0428L13.3733 14.9885L13.1938 15.2659L13.2778 15.3202ZM13.4573 15.0428L13.5452 15.0905L13.693 14.8183L13.6051 14.7705L13.5172 14.7228L13.3694 14.9951L13.4573 15.0428ZM13.6051 14.7705L13.694 14.8163L13.826 14.5594L13.7371 14.5137L13.6481 14.468L13.5161 14.7248L13.6051 14.7705ZM13.7371 14.5137L13.8301 14.5505L13.9356 14.2833L13.8426 14.2466L13.7496 14.2098L13.6441 14.4769L13.7371 14.5137ZM13.8426 14.2466L13.937 14.2796L14.0268 14.0227L13.9324 13.9897L13.838 13.9567L13.7482 14.2136L13.8426 14.2466ZM13.9324 13.9897L14.0295 14.0137L14.0928 13.7568L13.9957 13.7329L13.8986 13.7089L13.8353 13.9658L13.9324 13.9897ZM13.9957 13.7329L14.0935 13.7538L14.1463 13.5072L14.0485 13.4863L13.9507 13.4654L13.8979 13.7119L13.9957 13.7329ZM14.0485 13.4863L14.1473 13.5014L14.1843 13.26L14.0855 13.2449L13.9866 13.2297L13.9496 13.4712L14.0485 13.4863ZM14.0855 13.2449L14.1852 13.2516L14.2011 13.0152L14.1013 13.0086L14.0015 13.0019L13.9857 13.2382L14.0855 13.2449ZM14.1013 13.0086L14.201 13.0156L14.2169 12.7895L14.1171 12.7825L14.0174 12.7755L14.0015 13.0016L14.1013 13.0086ZM14.1171 12.7825H14.2171V12.5668H14.1171H14.0171V12.7825H14.1171ZM14.1171 12.5668L14.2168 12.5591L14.201 12.3536L14.1013 12.3613L14.0016 12.369L14.0174 12.5745L14.1171 12.5668ZM14.1013 12.3613L14.2007 12.3503L14.1796 12.1602L14.0802 12.1712L13.9808 12.1823L14.0019 12.3723L14.1013 12.3613ZM14.0802 12.1712L14.1792 12.1575L14.1528 11.9674L14.0538 11.9812L13.9547 11.9949L13.9811 12.185L14.0802 12.1712ZM14.0538 11.9812L14.1526 11.9658L14.1262 11.7963L14.0274 11.8116L13.9286 11.827L13.955 11.9966L14.0538 11.9812ZM14.0274 11.8116L14.0051 11.9091L14.0948 11.9297L14.1171 11.8322L14.1394 11.7347L14.0497 11.7142L14.0274 11.8116ZM14.1171 11.8322L14.0896 11.9283L14.1793 11.954L14.2069 11.8579L14.2344 11.7617L14.1446 11.7361L14.1171 11.8322ZM14.2069 11.8579L14.1801 11.9542L14.3648 12.0056L14.3916 11.9092L14.4184 11.8129L14.2336 11.7615L14.2069 11.8579ZM14.3916 11.9092L14.3558 12.0026L14.53 12.0694L14.5658 11.976L14.6016 11.8827L14.4274 11.8159L14.3916 11.9092ZM14.5658 11.976L14.5447 12.0738L14.6397 12.0943L14.6608 11.9966L14.682 11.8988L14.587 11.8783L14.5658 11.976ZM14.6608 11.9966L14.6284 12.0912L14.7181 12.122L14.7506 12.0274L14.7831 11.9328L14.6933 11.902L14.6608 11.9966ZM14.7506 12.0274L14.7181 12.122L14.8078 12.1528L14.8403 12.0582L14.8728 11.9636L14.7831 11.9328L14.7506 12.0274ZM14.8403 12.0582L14.8011 12.1502L14.8856 12.1862L14.9248 12.0942L14.9639 12.0022L14.8795 11.9662L14.8403 12.0582ZM14.9248 12.0942L14.8957 12.1899L14.9801 12.2155L15.0092 12.1199L15.0383 12.0242L14.9539 11.9985L14.9248 12.0942ZM15.0092 12.1199L14.9768 12.2144L15.0665 12.2453L15.099 12.1507L15.1315 12.0561L15.0417 12.0253L15.0092 12.1199ZM15.099 12.1507L15.047 12.2361L15.1315 12.2875L15.1834 12.2021L15.2354 12.1166L15.1509 12.0652L15.099 12.1507ZM15.1834 12.2021L15.1449 12.2944L15.2188 12.3252L15.2573 12.2329L15.2958 12.1406L15.2219 12.1098L15.1834 12.2021ZM15.2573 12.2329L15.2087 12.3203L15.2826 12.3614L15.3312 12.274L15.3798 12.1866L15.3059 12.1455L15.2573 12.2329ZM15.3312 12.274L15.2921 12.366L15.3765 12.4019L15.4157 12.3099L15.4549 12.2179L15.3704 12.182L15.3312 12.274ZM15.4157 12.3099L15.3161 12.3012L15.2527 13.0203L15.3524 13.0291L15.452 13.0379L15.5153 12.3187L15.4157 12.3099ZM15.3524 13.0291L15.2538 13.0125L15.1376 13.7008L15.2362 13.7175L15.3348 13.7341L15.451 13.0457L15.3524 13.0291ZM15.2362 13.7175L15.1396 13.6918L14.9706 14.3288L15.0673 14.3545L15.164 14.3801L15.3329 13.7431L15.2362 13.7175ZM15.0673 14.3545L14.973 14.3213L14.7618 14.9223L14.8562 14.9555L14.9505 14.9886L15.1617 14.3876L15.0673 14.3545ZM14.8562 14.9555L14.7649 14.9146L14.5115 15.4796L14.6028 15.5205L14.694 15.5615L14.9474 14.9964L14.8562 14.9555ZM14.6028 15.5205L14.5153 15.472L14.2303 15.9857L14.3177 16.0342L14.4052 16.0828L14.6902 15.5691L14.6028 15.5205ZM14.3177 16.0342L14.233 15.9811L13.9268 16.4691L14.0115 16.5223L14.0963 16.5754L14.4024 16.0874L14.3177 16.0342ZM14.0115 16.5223L13.9317 16.4621L13.5991 16.9039L13.679 16.964L13.7589 17.0242L14.0914 16.5824L14.0115 16.5223ZM13.679 16.964L13.603 16.899L13.2599 17.2997L13.3359 17.3647L13.4118 17.4298L13.7549 17.0291L13.679 16.964ZM13.3359 17.3647L13.2636 17.2956L12.9099 17.6655L12.9822 17.7346L13.0545 17.8037L13.4081 17.4338L13.3359 17.3647ZM12.9822 17.7346L12.9141 17.6614L12.5551 17.9953L12.6232 18.0685L12.6913 18.1417L13.0503 17.8078L12.9822 17.7346ZM12.6232 18.0685L12.5595 17.9915L12.2058 18.2843L12.2695 18.3613L12.3333 18.4383L12.687 18.1455L12.6232 18.0685ZM12.2695 18.3613L12.2102 18.2808L11.8618 18.5377L11.9211 18.6182L11.9805 18.6986L12.3289 18.4418L12.2695 18.3613ZM11.9211 18.6182L11.8649 18.5354L11.5324 18.7615L11.5886 18.8442L11.6448 18.9269L11.9774 18.7009L11.9211 18.6182ZM11.5886 18.8442L11.5371 18.7584L11.2204 18.9485L11.2719 19.0342L11.3233 19.12L11.64 18.9299L11.5886 18.8442ZM11.2719 19.0342L11.225 18.9459L10.9346 19.1L10.9815 19.1884L11.0284 19.2767L11.3187 19.1226L11.2719 19.0342ZM10.9815 19.1884L11.0083 19.092L10.9714 19.0817L10.9446 19.1781L10.9178 19.2744L10.9547 19.2847L10.9815 19.1884ZM10.9446 19.1781L10.9883 19.0882L10.9461 19.0676L10.9023 19.1575L10.8586 19.2475L10.9008 19.268L10.9446 19.1781ZM10.9023 19.1575L10.9509 19.0701L10.914 19.0496L10.8654 19.137L10.8168 19.2244L10.8537 19.2449L10.9023 19.1575ZM10.8654 19.137L10.9091 19.0471L10.8669 19.0265L10.8232 19.1164L10.7794 19.2064L10.8216 19.2269L10.8654 19.137ZM10.8232 19.1164L10.8617 19.0241L10.8247 19.0087L10.7862 19.101L10.7477 19.1933L10.7847 19.2087L10.8232 19.1164ZM10.7862 19.101L10.8503 19.0242L10.8133 18.9934L10.7493 19.0702L10.6852 19.147L10.7222 19.1778L10.7862 19.101ZM10.7493 19.0702L10.7979 18.9828L10.7609 18.9623L10.7123 19.0497L10.6637 19.1371L10.7007 19.1576L10.7493 19.0702ZM10.7123 19.0497L10.7561 18.9597L10.7033 18.9341L10.6595 19.024L10.6158 19.1139L10.6686 19.1396L10.7123 19.0497ZM10.6595 19.024L10.7225 18.9463L10.6908 18.9206L10.6278 18.9983L10.5649 19.076L10.5965 19.1016L10.6595 19.024ZM10.6278 18.9983L10.6716 18.9084L10.6188 18.8827L10.5751 18.9726L10.5313 19.0625L10.5841 19.0882L10.6278 18.9983ZM10.5751 18.9726L10.638 18.8949L10.6064 18.8692L10.5434 18.9469L10.4804 19.0246L10.5121 19.0503L10.5751 18.9726ZM10.5434 18.9469L10.5953 18.8615L10.5531 18.8358L10.5012 18.9212L10.4492 19.0067L10.4914 19.0324L10.5434 18.9469ZM10.5012 18.9212L10.5582 18.8391L10.5213 18.8134L10.4642 18.8956L10.4071 18.9777L10.4441 19.0033L10.5012 18.9212ZM10.4642 18.8956L10.5146 18.8092L10.4618 18.7784L10.4114 18.8647L10.361 18.9511L10.4138 18.9819L10.4642 18.8956ZM10.4114 18.8647L10.4685 18.7826L10.4315 18.7569L10.3745 18.839L10.3174 18.9212L10.3543 18.9468L10.4114 18.8647ZM10.3745 18.839L10.4334 18.7583L10.3912 18.7274L10.3322 18.8082L10.2733 18.889L10.3155 18.9198L10.3745 18.839ZM10.3322 18.8082L10.4123 18.8681L10.8346 18.303L10.7545 18.2432L10.6744 18.1833L10.2521 18.7484L10.3322 18.8082ZM10.7545 18.2432L10.8418 18.292L11.1585 17.727L11.0713 17.6781L10.984 17.6292L10.6673 18.1943L10.7545 18.2432ZM11.0713 17.6781L11.1647 17.7137L11.3759 17.1589L11.2824 17.1233L11.189 17.0877L10.9778 17.6425L11.0713 17.6781ZM11.2824 17.1233L11.3797 17.1464L11.5064 16.6121L11.4091 16.589L11.3118 16.566L11.1851 17.1002L11.2824 17.1233ZM11.4091 16.589L11.5084 16.6013L11.5717 16.0876L11.4725 16.0753L11.3732 16.0631L11.3099 16.5768L11.4091 16.589ZM11.4725 16.0753L11.5724 16.0723L11.5566 15.5586L11.4566 15.5616L11.3567 15.5647L11.3725 16.0784L11.4725 16.0753ZM11.4566 15.5616L11.5554 15.5464L11.4815 15.0686L11.3827 15.0839L11.2839 15.0992L11.3578 15.5769L11.4566 15.5616ZM11.3827 15.0839L11.4796 15.059L11.3634 14.607L11.2666 14.6319L11.1697 14.6567L11.2859 15.1088L11.3827 15.0839ZM11.2666 14.6319L11.3612 14.5994L11.2134 14.1679L11.1188 14.2003L11.0242 14.2327L11.172 14.6643L11.2666 14.6319ZM11.1188 14.2003L11.2106 14.1606L11.0416 13.7702L10.9499 13.8099L10.8581 13.8496L11.027 14.2401L11.1188 14.2003ZM10.9499 13.8099L11.0383 13.7632L10.8482 13.4036L10.7598 13.4503L10.6714 13.4971L10.8614 13.8567L10.9499 13.8099ZM10.7598 13.4503L10.8449 13.3979L10.6549 13.0896L10.5698 13.1421L10.4847 13.1946L10.6747 13.5028L10.7598 13.4503ZM10.5698 13.1421L10.6528 13.0863L10.4627 12.8038L10.3797 12.8596L10.2968 12.9154L10.4868 13.1979L10.5698 13.1421ZM10.3797 12.8596L10.4628 12.8039L10.3044 12.5676L10.2214 12.6233L10.1383 12.679L10.2967 12.9153L10.3797 12.8596ZM10.2214 12.6233L10.2995 12.5609L10.1517 12.3759L10.0736 12.4384L9.99546 12.5008L10.1433 12.6857L10.2214 12.6233ZM10.0736 12.4384L10.152 12.3763L10.0464 12.2428L9.968 12.3048L9.88955 12.3668L9.99512 12.5004L10.0736 12.4384ZM9.968 12.3048L10.0499 12.2474L9.97071 12.1344L9.88882 12.1918L9.80692 12.2492L9.8861 12.3622L9.968 12.3048ZM9.88882 12.1918L9.97017 12.1336L9.88571 12.0155L9.80436 12.0736L9.723 12.1318L9.80746 12.2499L9.88882 12.1918ZM9.80436 12.0736L9.88948 12.0211L9.81029 11.8927L9.72517 11.9452L9.64005 11.9977L9.71923 12.1261L9.80436 12.0736ZM9.72517 11.9452L9.80872 11.8903L9.72426 11.7618L9.64071 11.8168L9.55716 11.8717L9.64162 12.0002L9.72517 11.9452ZM9.64071 11.8168L9.7222 11.7588L9.62718 11.6253L9.54569 11.6832L9.46421 11.7412L9.55923 11.8748L9.64071 11.8168ZM9.54569 11.6832L9.6311 11.6312L9.54664 11.4925L9.46123 11.5445L9.37582 11.5965L9.46028 11.7352L9.54569 11.6832ZM9.46123 11.5445L9.55018 11.4988L9.471 11.3447L9.38205 11.3904L9.29311 11.4361L9.37229 11.5902L9.46123 11.5445ZM9.38205 11.3904L9.4689 11.3408L9.38971 11.2021L9.30287 11.2517L9.21603 11.3013L9.29521 11.44L9.38205 11.3904ZM9.30287 11.2517L9.39182 11.206L9.31263 11.0519L9.22369 11.0976L9.13474 11.1433L9.21392 11.2974L9.30287 11.2517ZM9.22369 11.0976L9.31327 11.0532L9.16547 10.7552L9.07588 10.7997L8.9863 10.8441L9.13411 11.142L9.22369 11.0976ZM9.07588 10.7997L9.17049 10.7673L9.1177 10.6131L9.02309 10.6455L8.92849 10.678L8.98128 10.8321L9.07588 10.7997ZM9.02309 10.6455L9.11445 10.6049L9.04582 10.4508L8.95447 10.4914L8.86312 10.5321L8.93174 10.6862L9.02309 10.6455ZM8.95447 10.4914L9.04907 10.459L8.99629 10.3049L8.90168 10.3373L8.80708 10.3697L8.85987 10.5238L8.95447 10.4914ZM8.90168 10.3373L8.99629 10.3049L8.9435 10.1508L8.84889 10.1832L8.75429 10.2156L8.80708 10.3697L8.90168 10.3373ZM8.84889 10.1832L8.94656 10.1617L8.91488 10.0179L8.81722 10.0394L8.71956 10.0609L8.75123 10.2047L8.84889 10.1832ZM8.81722 10.0394L8.91517 10.0193L8.86239 9.7624L8.76443 9.78254L8.66648 9.80267L8.71927 10.0595L8.81722 10.0394ZM8.76443 9.78254L8.86342 9.7683L8.82646 9.51145L8.72748 9.52569L8.6285 9.53993L8.66545 9.79677L8.76443 9.78254ZM8.72748 9.52569L8.82718 9.51795L8.80607 9.24569L8.70637 9.25343L8.60667 9.26116L8.62778 9.53342L8.72748 9.52569ZM8.70637 9.25343H8.80637V8.96062H8.70637H8.60637V9.25343H8.70637ZM8.70637 8.96062L8.80612 8.96769L8.82723 8.66974L8.72748 8.66267L8.62773 8.6556L8.60662 8.95355L8.70637 8.96062ZM8.72748 8.66267L8.82672 8.67498L8.86367 8.37703L8.76443 8.36473L8.66519 8.35242L8.62824 8.65036L8.72748 8.66267ZM8.76443 8.36473L8.86204 8.38646L8.93067 8.07824L8.83306 8.05651L8.73545 8.03477L8.66682 8.34299L8.76443 8.36473ZM8.83306 8.05651L8.92931 8.08363L9.01905 7.76513L8.9228 7.73801L8.82655 7.71089L8.73681 8.02939L8.83306 8.05651ZM8.9228 7.73801L9.01661 7.77266L9.13802 7.44389L9.04421 7.40925L8.9504 7.3746L8.82899 7.70337L8.9228 7.73801ZM9.04421 7.40925L9.1343 7.45264L9.29267 7.12388L9.20257 7.08048L9.11248 7.03708L8.95412 7.36585L9.04421 7.40925ZM9.20257 7.08048L9.2918 7.12562L9.46073 6.79172L9.37149 6.74658L9.28226 6.70143L9.11334 7.03534L9.20257 7.08048ZM9.37149 6.74658L9.45673 6.79887L9.66788 6.45469L9.58265 6.4024L9.49741 6.3501L9.28626 6.69428L9.37149 6.74658ZM9.58265 6.4024L9.66243 6.46268L9.92637 6.11337L9.84659 6.05308L9.7668 5.9928L9.50286 6.34211L9.58265 6.4024ZM9.84659 6.05308L9.9236 6.11687L10.2087 5.77269L10.1316 5.7089L10.0546 5.64512L9.76957 5.9893L9.84659 6.05308ZM10.1316 5.7089L10.2056 5.77621L10.5329 5.41663L10.4589 5.34932L10.385 5.282L10.0577 5.64159L10.1316 5.7089ZM10.4589 5.34932L10.5266 5.42294L10.9067 5.07363L10.839 5L10.7713 4.92637L10.3913 5.27569L10.4589 5.34932ZM10.839 5L10.8051 5.09408L10.9476 5.14545L10.9815 5.05137L11.0154 4.95729L10.8729 4.90592L10.839 5ZM10.9815 5.05137L10.8934 5.00402L10.714 5.33793L10.802 5.38527L10.8901 5.43262L11.0696 5.09872L10.9815 5.05137ZM10.802 5.38527L10.7119 5.34203L10.5641 5.65025L10.6542 5.69349L10.7444 5.73673L10.8922 5.42851L10.802 5.38527ZM10.6542 5.69349L10.5612 5.65684L10.4398 5.96506L10.5328 6.00171L10.6259 6.03836L10.7473 5.73014L10.6542 5.69349ZM10.5328 6.00171L10.439 5.96726L10.3334 6.25493L10.4273 6.28938L10.5211 6.32384L10.6267 6.03617L10.5328 6.00171ZM10.4273 6.28938L10.3321 6.2586L10.2424 6.536L10.3375 6.56678L10.4327 6.59756L10.5224 6.32016L10.4273 6.28938ZM10.3375 6.56678L10.2409 6.54097L10.1723 6.79782L10.2689 6.82363L10.3655 6.84944L10.4341 6.59259L10.3375 6.56678ZM10.2689 6.82363L10.1702 6.80741L10.128 7.06426L10.2267 7.08048L10.3253 7.0967L10.3676 6.83985L10.2689 6.82363ZM10.2267 7.08048L10.127 7.07177L10.1059 7.31321L10.2055 7.32192L10.3052 7.33063L10.3263 7.08919L10.2267 7.08048ZM10.2055 7.32192L10.1058 7.31508L10.0899 7.54625L10.1897 7.55308L10.2895 7.55992L10.3053 7.32875L10.2055 7.32192ZM10.1897 7.55308L10.0898 7.55765L10.1004 7.78881L10.2003 7.78425L10.3002 7.77968L10.2896 7.54852L10.1897 7.55308ZM10.2003 7.78425L10.1005 7.7914L10.1164 8.01229L10.2161 8.00514L10.3158 7.99799L10.3 7.7771L10.2003 7.78425ZM10.2161 8.00514L10.1179 8.02392L10.1601 8.24481L10.2583 8.22603L10.3566 8.20725L10.3143 7.98636L10.2161 8.00514ZM10.2583 8.22603L10.1604 8.24616L10.2026 8.45164L10.3006 8.43151L10.3985 8.41138L10.3563 8.2059L10.2583 8.22603ZM10.3006 8.43151L10.2046 8.45968L10.268 8.67543L10.3639 8.64726L10.4599 8.61909L10.3965 8.40334L10.3006 8.43151ZM10.3639 8.64726L10.268 8.67543L10.3313 8.89119L10.4273 8.86301L10.5232 8.83484L10.4599 8.61909L10.3639 8.64726ZM10.4273 8.86301L10.3334 8.89747L10.4126 9.11322L10.5064 9.07877L10.6003 9.04431L10.5211 8.82856L10.4273 8.86301ZM10.5064 9.07877L10.4139 9.11679L10.509 9.34795L10.6015 9.30993L10.6939 9.27191L10.5989 9.04075L10.5064 9.07877ZM10.6015 9.30993L10.5118 9.35417L10.6385 9.61102L10.7281 9.56678L10.8178 9.52255L10.6911 9.2657L10.6015 9.30993ZM10.7281 9.56678L10.6424 9.6182L10.7902 9.86477L10.8759 9.81336L10.9617 9.76194L10.8139 9.51537L10.7281 9.56678ZM10.8759 9.81336L10.7899 9.86435L10.9483 10.1315L11.0343 10.0805L11.1203 10.0295L10.962 9.76236L10.8759 9.81336ZM11.0343 10.0805L10.9516 10.1366L11.1363 10.4089L11.2191 10.3527L11.3018 10.2966L11.1171 10.0243L11.0343 10.0805ZM11.2191 10.3527L11.1366 10.4093L11.3266 10.6867L11.4091 10.6301L11.4916 10.5736L11.3016 10.2962L11.2191 10.3527ZM11.4091 10.6301L11.3273 10.6877L11.5227 10.9651L11.6044 10.9075L11.6862 10.85L11.4909 10.5726L11.4091 10.6301ZM11.6044 10.9075L11.5212 10.963L11.7165 11.2558L11.7997 11.2003L11.8829 11.1449L11.6876 10.852L11.6044 10.9075ZM11.7997 11.2003L11.7175 11.2572L11.9128 11.5397L11.9951 11.4829L12.0773 11.426L11.882 11.1435L11.7997 11.2003ZM11.9951 11.4829L11.9116 11.538L12.1016 11.8257L12.1851 11.7705L12.2685 11.7154L12.0785 11.4278L11.9951 11.4829ZM12.1851 11.7705L12.0991 11.8217L12.2733 12.1145L12.3593 12.0634L12.4452 12.0122L12.271 11.7194L12.1851 11.7705ZM12.3593 12.0634L12.2733 12.1145L12.4475 12.4073L12.5335 12.3562L12.6194 12.305L12.4452 12.0122L12.3593 12.0634ZM12.5335 12.3562L12.4445 12.4019L12.5923 12.6895L12.6813 12.6438L12.7702 12.5981L12.6224 12.3105L12.5335 12.3562ZM12.6813 12.6438L12.5901 12.6849L12.7221 12.9777L12.8133 12.9366L12.9044 12.8956L12.7725 12.6027L12.6813 12.6438ZM12.8133 12.9366L12.7194 12.9711L12.825 13.2588L12.9188 13.2243L13.0127 13.1899L12.9071 12.9022L12.8133 12.9366ZM12.9188 13.2243L12.8232 13.2534L12.9076 13.5308L13.0033 13.5017L13.099 13.4726L13.0145 13.1952L12.9188 13.2243ZM13.0033 13.5017L12.9045 13.5169L12.9203 13.6197L13.0191 13.6045L13.118 13.5892L13.1021 13.4865L13.0033 13.5017ZM13.0191 13.6045L12.92 13.6177L12.9359 13.7359L13.035 13.7226L13.1341 13.7093L13.1182 13.5912L13.0191 13.6045ZM13.035 13.7226L12.9365 13.7398L12.9787 13.9813L13.0772 13.964L13.1757 13.9468L13.1335 13.7054L13.035 13.7226ZM13.0772 13.964H12.9772V14.0873H13.0772H13.1772V13.964H13.0772ZM13.0772 14.0873L12.9781 14.1006L12.9939 14.2188L13.093 14.2055L13.1922 14.1922L13.1763 14.074L13.0772 14.0873ZM13.093 14.2055H12.993V14.7295H13.093H13.193V14.2055H13.093ZM13.093 14.7295L12.9937 14.7181L12.9778 14.8568L13.0772 14.8682L13.1766 14.8795L13.1924 14.7408L13.093 14.7295ZM13.0772 14.8682L12.9785 14.8519L12.9574 14.9804L13.0561 14.9966L13.1548 15.0128L13.1759 14.8844L13.0772 14.8682ZM13.0561 14.9966L12.9572 14.9815L12.9361 15.1202L13.035 15.1353L13.1338 15.1503L13.1549 15.0116L13.0561 14.9966ZM13.035 15.1353L12.935 15.1316L12.9298 15.2754L13.0297 15.2791L13.1296 15.2828L13.1349 15.1389L13.035 15.1353ZM13.0297 15.2791L12.9314 15.2607L12.8786 15.5433L12.9769 15.5616L13.0752 15.58L13.128 15.2975L13.0297 15.2791ZM12.9769 15.5616L12.9406 15.6548L13.0462 15.6959L13.0825 15.6027L13.1188 15.5096L13.0132 15.4685L12.9769 15.5616Z" fill="black" mask="url(#path-2-inside-1_9_4)"/>
</svg>
