<svg width="28" height="28" viewBox="0 0 28 28" fill="none" xmlns="http://www.w3.org/2000/svg">
<g clip-path="url(#clip0_34_94)">
<rect width="28" height="28" fill="white"/>
<mask id="path-1-inside-1_34_94" fill="white">
<rect width="28" height="28" rx="1"/>
</mask>
<rect width="28" height="28" rx="1" fill="white" stroke="#131C22" stroke-width="4" mask="url(#path-1-inside-1_34_94)"/>
<path d="M25 19.1185C24.9712 19.1221 24.9425 19.1222 24.9137 19.1222C24.5039 19.1222 24.0941 19.1222 23.6879 19.1222C23.6771 19.1222 23.6663 19.1222 23.652 19.1222C23.652 18.45 23.652 17.7815 23.652 17.1093C23.6484 17.1093 23.6448 17.1056 23.6448 17.1056C23.5046 17.3113 23.3644 17.517 23.2242 17.7264C23.084 17.9357 22.9438 18.1414 22.8 18.3508C22.5196 17.9321 22.2392 17.517 21.9588 17.1056C21.9552 17.1056 21.9552 17.1093 21.9516 17.1093C21.9516 17.7778 21.9516 18.4463 21.9516 19.1222C21.4951 19.1222 21.0458 19.1222 20.5892 19.1222C20.5892 17.6199 20.5892 16.1249 20.5892 14.6263C20.6 14.6263 20.6144 14.6263 20.6252 14.6263C20.9056 14.6263 21.1895 14.6263 21.4699 14.6263C21.585 14.6263 21.7 14.63 21.8114 14.63C21.833 14.63 21.8438 14.641 21.8582 14.6557C22.0307 14.9018 22.1997 15.1479 22.3722 15.394C22.5088 15.5923 22.649 15.7907 22.7856 15.989C22.7892 15.9927 22.7928 15.9963 22.8 16.0074C22.8216 15.978 22.8431 15.9523 22.8611 15.9229C23.1523 15.5042 23.4435 15.0854 23.7346 14.6667C23.7526 14.641 23.7706 14.63 23.8029 14.63C24.0869 14.63 24.3709 14.6263 24.6549 14.6263C24.7663 14.6263 24.8814 14.6263 24.9964 14.6263C25 16.1249 25 17.6199 25 19.1185Z" fill="#121B21"/>
<path d="M3 14.6336C3.44935 14.6299 3.89869 14.6299 4.34444 14.6299C4.35882 14.6299 4.3768 14.6299 4.39477 14.6299C4.39477 15.2323 4.39477 15.8274 4.39477 16.4261C4.39837 16.4261 4.40196 16.4298 4.40196 16.4298C4.60686 16.1322 4.80817 15.831 5.00948 15.5299C5.21078 15.2287 5.41569 14.9311 5.61699 14.6299C6.13824 14.6299 6.65588 14.6299 7.18072 14.6299C7.17353 14.641 7.16993 14.6483 7.16634 14.6593C6.96503 14.9348 6.76373 15.2103 6.56601 15.4858C6.27843 15.8825 5.99085 16.2792 5.70327 16.6722C5.69608 16.6795 5.69248 16.6906 5.68529 16.6979C6.18856 17.506 6.68824 18.3104 7.1915 19.1148C7.15915 19.1258 5.63497 19.1295 5.53431 19.1185C5.16046 18.4463 4.78301 17.7704 4.40556 17.0983C4.40196 17.0983 4.40196 17.0983 4.39837 17.1019C4.39837 17.7741 4.39837 18.4463 4.39837 19.1111C4.39477 19.1185 4.39118 19.1185 4.39118 19.1185L4.38758 19.1221C3.92745 19.1221 3.46732 19.1221 3.00359 19.1221C3 17.6272 3 16.1322 3 14.6336Z" fill="#121B21"/>
<path d="M13.8742 8C13.885 8.00367 13.8886 8.00735 13.8922 8.00735C14.2013 8.04408 14.4314 8.20202 14.5859 8.47383C14.683 8.64279 14.7189 8.83012 14.701 9.02479C14.6794 9.22681 14.6039 9.4068 14.4673 9.56107C14.3199 9.72635 14.1366 9.82553 13.9209 9.85859C13.6225 9.89899 13.3637 9.81818 13.1444 9.60147C13.0006 9.46189 12.9108 9.29293 12.882 9.09091C12.8353 8.79706 12.9072 8.5326 13.1013 8.30854C13.2379 8.15427 13.4069 8.0551 13.6082 8.01469C13.6369 8.00735 13.6621 8.00735 13.6944 8C13.752 8 13.8131 8 13.8742 8Z" fill="#F58220"/>
<path d="M8.84509 16.9734C8.84509 16.191 8.84509 15.4123 8.84509 14.63C9.22614 14.63 9.60359 14.63 9.98464 14.63C10.4484 15.2287 10.9157 15.8311 11.3866 16.4408C11.3866 15.8311 11.3866 15.2324 11.3866 14.6263C11.8431 14.6263 12.2925 14.6226 12.7454 14.6336C12.7454 16.1286 12.7454 17.6235 12.7454 19.1258C12.731 19.1258 12.7203 19.1295 12.7059 19.1295C12.5441 19.1295 12.3823 19.1258 12.217 19.1258C12.0408 19.1258 11.8647 19.1258 11.6886 19.1258C11.6598 19.1258 11.6454 19.1185 11.6274 19.0964C11.1673 18.5088 10.7072 17.9211 10.2471 17.3334C10.2363 17.3187 10.2255 17.304 10.2147 17.293C10.2111 17.293 10.2111 17.293 10.2111 17.2966C10.2111 17.2966 10.2075 17.2966 10.2075 17.3003C10.2075 17.91 10.2075 18.5161 10.2075 19.1258C9.75097 19.1258 9.30163 19.1258 8.84509 19.1258C8.84509 18.4096 8.84509 17.6933 8.84509 16.9734Z" fill="#131C22"/>
<path d="M18.1591 18.0827C18.3748 18.4059 18.5869 18.7291 18.799 19.0524C18.8134 19.0707 18.8242 19.0928 18.8386 19.1148C18.8242 19.1148 18.817 19.1185 18.8062 19.1185C18.2921 19.1185 17.7781 19.1185 17.2676 19.1185C17.2389 19.1185 17.2245 19.1075 17.2101 19.0818C17.0555 18.8026 16.8974 18.5234 16.7428 18.2443C16.6134 18.0166 16.484 17.7851 16.3546 17.5574C16.351 17.5501 16.3438 17.5427 16.333 17.528C16.333 18.0606 16.333 18.5859 16.333 19.1111C15.8765 19.1111 15.4235 19.1111 14.9706 19.1111C14.9706 17.6162 14.9706 16.1212 14.9706 14.6226C14.985 14.6226 14.9957 14.6189 15.0101 14.6189C15.6608 14.6189 16.3078 14.6153 16.9585 14.6189C17.2353 14.6189 17.5049 14.674 17.7601 14.7916C17.9075 14.8577 18.0405 14.9458 18.1591 15.0597C18.3928 15.2764 18.5258 15.5482 18.5797 15.8604C18.6013 15.9817 18.6085 16.0992 18.6013 16.2204C18.5941 16.3526 18.5654 16.4812 18.5222 16.6098C18.4503 16.8118 18.3497 16.9954 18.2095 17.1534C18.0908 17.2856 17.9542 17.3921 17.7889 17.4619C17.7853 17.4619 17.7853 17.4656 17.7817 17.4656C17.7709 17.4913 17.7853 17.506 17.7961 17.5244C17.9039 17.6896 18.0154 17.8549 18.1232 18.0202C18.1376 18.0459 18.1484 18.0643 18.1591 18.0827ZM16.4193 15.7209C16.3941 15.7209 16.3689 15.7209 16.3402 15.7209C16.3402 16.0294 16.3402 16.338 16.3402 16.6465C16.3582 16.6465 16.3725 16.6465 16.3869 16.6465C16.4732 16.6465 16.5595 16.6428 16.6457 16.6428C16.7284 16.6428 16.8111 16.6318 16.8902 16.6061C17.0268 16.562 17.1238 16.4775 17.1562 16.3306C17.1814 16.2204 17.1778 16.1065 17.1454 16C17.1131 15.9009 17.0484 15.8274 16.9549 15.7833C16.8722 15.7466 16.7859 15.7319 16.6961 15.7245C16.6062 15.7209 16.5163 15.7245 16.4193 15.7209Z" fill="#131C22"/>
<path d="M17.0376 13.7484C16.6997 13.6309 16.3869 13.4693 16.0921 13.2746C15.8441 13.1093 15.6105 12.922 15.3768 12.731C15.1575 12.5473 14.9346 12.3673 14.6938 12.2131C14.4026 12.0257 14.0899 11.8935 13.752 11.8237C13.5506 11.7833 13.3493 11.7503 13.1444 11.7356C13.0294 11.7282 12.9108 11.7245 12.7921 11.7209C12.6987 11.7172 12.6016 11.7172 12.5082 11.7209C12.3716 11.7282 12.235 11.7356 12.102 11.7503C11.9438 11.7686 11.782 11.7943 11.6238 11.8164C11.5591 11.8274 11.4908 11.8421 11.4261 11.8568C11.4154 11.8604 11.4046 11.8604 11.3938 11.8641C11.3938 11.3829 11.3938 10.9018 11.3938 10.4169C11.4082 10.4132 11.4189 10.4096 11.4333 10.4059C11.685 10.3471 11.9366 10.3067 12.1918 10.2773C12.4327 10.2516 12.6771 10.2443 12.9216 10.2516C13.3386 10.2627 13.7448 10.3288 14.1438 10.45C14.3631 10.5161 14.5788 10.6006 14.7908 10.6924C14.9418 10.7548 15.0928 10.821 15.2402 10.8908C15.4235 10.9789 15.5889 11.0928 15.7542 11.2066C16.1533 11.4931 16.5523 11.7796 16.9513 12.0625C17.1993 12.2388 17.4689 12.371 17.7709 12.4298C17.8788 12.4518 17.9902 12.4702 18.1016 12.4739C18.1735 12.4775 18.2454 12.4812 18.3173 12.4775C18.6696 12.4628 19.0075 12.3857 19.3167 12.2057C19.3562 12.1837 19.3957 12.1543 19.4353 12.1286C19.4461 12.1212 19.4569 12.1139 19.4712 12.1029C19.4712 12.1249 19.4712 12.1396 19.4712 12.1543C19.4712 12.2975 19.4712 12.4408 19.4712 12.5877C19.4712 12.6906 19.4712 12.7897 19.4676 12.8926C19.464 13.0542 19.4605 13.2158 19.4605 13.3774C19.4605 13.4399 19.4569 13.506 19.4569 13.5684C19.4569 13.5941 19.4497 13.6088 19.4245 13.6162C19.3706 13.6346 19.3167 13.6529 19.2627 13.6676C19.0147 13.7301 18.7667 13.7925 18.5186 13.8439C18.3604 13.877 18.2023 13.8917 18.0405 13.899C17.8788 13.9064 17.7206 13.8953 17.5624 13.8733C17.3791 13.8476 17.2065 13.8072 17.0376 13.7484Z" fill="#F58220"/>
<path d="M10.3118 14.0239C10.0601 14.0202 9.8121 13.9982 9.56406 13.9651C9.28367 13.9247 9.00328 13.8659 8.73007 13.7925C8.51079 13.7337 8.2987 13.6603 8.09021 13.5721C8.07942 13.5684 8.06864 13.5611 8.06145 13.5574C8.06145 13.0726 8.06145 12.5914 8.06145 12.1029C8.08661 12.1102 8.11177 12.1176 8.13334 12.1249C8.56831 12.2792 9.01766 12.393 9.47419 12.4592C9.62158 12.4812 9.77256 12.4959 9.92354 12.5106C10.0494 12.5216 10.1752 12.5253 10.301 12.5289C10.3621 12.5326 10.4196 12.5363 10.4807 12.5326C10.6964 12.5253 10.9085 12.5179 11.1242 12.4922C11.3722 12.4628 11.6203 12.4224 11.8611 12.36C12.1307 12.2902 12.3931 12.2057 12.6448 12.0845C12.652 12.0808 12.6592 12.0808 12.6699 12.0771C12.6771 12.5657 12.6735 13.0505 12.6735 13.5354C12.5297 13.6052 12.3824 13.6676 12.235 13.7227C11.9869 13.8145 11.7317 13.888 11.4693 13.9357C11.3183 13.9651 11.1637 13.9835 11.0092 14.0019C10.8474 14.0239 10.6856 14.0312 10.5239 14.0312C10.4556 14.0239 10.3873 14.0239 10.3118 14.0239Z" fill="#F58220"/>
</g>
<defs>
<clipPath id="clip0_34_94">
<rect width="28" height="28" fill="white"/>
</clipPath>
</defs>
</svg>
