<svg width="24" height="13" viewBox="0 0 24 13" fill="none" xmlns="http://www.w3.org/2000/svg">
<path d="M24 12.1292C23.9686 12.1333 23.9373 12.1333 23.9059 12.1333C23.4588 12.1333 23.0118 12.1333 22.5686 12.1333C22.5569 12.1333 22.5451 12.1333 22.5294 12.1333C22.5294 11.4 22.5294 10.6707 22.5294 9.93741C22.5255 9.93741 22.5216 9.9334 22.5216 9.9334C22.3686 10.1578 22.2157 10.3822 22.0627 10.6106C21.9098 10.839 21.7569 11.0634 21.6 11.2918C21.2941 10.835 20.9882 10.3822 20.6823 9.9334C20.6784 9.9334 20.6784 9.93741 20.6745 9.93741C20.6745 10.6667 20.6745 11.396 20.6745 12.1333C20.1765 12.1333 19.6863 12.1333 19.1882 12.1333C19.1882 10.4944 19.1882 8.86353 19.1882 7.22867C19.2 7.22867 19.2157 7.22867 19.2274 7.22867C19.5333 7.22867 19.8431 7.22867 20.149 7.22867C20.2745 7.22867 20.4 7.23268 20.5216 7.23268C20.5451 7.23268 20.5569 7.2447 20.5725 7.26072C20.7608 7.52919 20.9451 7.79766 21.1333 8.06613C21.2823 8.28251 21.4353 8.49889 21.5843 8.71527C21.5882 8.71928 21.5922 8.72328 21.6 8.7353C21.6235 8.70325 21.6471 8.6752 21.6667 8.64314C21.9843 8.18634 22.302 7.72954 22.6196 7.27275C22.6392 7.2447 22.6588 7.23268 22.6941 7.23268C23.0039 7.23268 23.3137 7.22867 23.6235 7.22867C23.7451 7.22867 23.8706 7.22867 23.9961 7.22867C24 8.86353 24 10.4944 24 12.1292Z" fill="#121B21"/>
<path d="M0 7.23667C0.490196 7.23267 0.980392 7.23267 1.46667 7.23267C1.48235 7.23267 1.50196 7.23267 1.52157 7.23267C1.52157 7.88982 1.52157 8.53895 1.52157 9.19209C1.52549 9.19209 1.52941 9.1961 1.52941 9.1961C1.75294 8.87153 1.97255 8.54296 2.19216 8.21438C2.41176 7.88581 2.63529 7.56124 2.8549 7.23267C3.42353 7.23267 3.98824 7.23267 4.56078 7.23267C4.55294 7.24469 4.54902 7.2527 4.5451 7.26472C4.32549 7.56525 4.10588 7.86577 3.8902 8.1663C3.57647 8.59906 3.26275 9.03181 2.94902 9.46056C2.94118 9.46858 2.93726 9.4806 2.92941 9.48861C3.47843 10.3702 4.02353 11.2477 4.57255 12.1252C4.53725 12.1372 2.87451 12.1413 2.76471 12.1292C2.35686 11.396 1.9451 10.6587 1.53333 9.92538C1.52941 9.92538 1.52941 9.92538 1.52549 9.92939C1.52549 10.6627 1.52549 11.396 1.52549 12.1212C1.52157 12.1292 1.51765 12.1292 1.51765 12.1292L1.51373 12.1332C1.01176 12.1332 0.509804 12.1332 0.00392157 12.1332C4.65661e-10 10.5024 0 8.87153 0 7.23667Z" fill="#121B21"/>
<path d="M11.8627 0C11.8745 0.00400701 11.8784 0.00801403 11.8823 0.00801403C12.2196 0.0480842 12.4706 0.220386 12.6392 0.516905C12.7451 0.701227 12.7843 0.905585 12.7647 1.11796C12.7412 1.33834 12.6588 1.53469 12.5098 1.70298C12.349 1.8833 12.149 1.99149 11.9137 2.02755C11.5882 2.07163 11.3059 1.98347 11.0667 1.74706C10.9098 1.59479 10.8118 1.41047 10.7804 1.19008C10.7294 0.869522 10.8078 0.581017 11.0196 0.336589C11.1686 0.168295 11.3529 0.0601052 11.5725 0.0160281C11.6039 0.00801403 11.6314 0.00801403 11.6667 0C11.7294 0 11.7961 0 11.8627 0Z" fill="#F58220"/>
<path d="M6.37646 9.78915C6.37646 8.93566 6.37646 8.08617 6.37646 7.23268C6.79215 7.23268 7.20392 7.23268 7.6196 7.23268C8.12548 7.88582 8.63529 8.54297 9.14901 9.20813C9.14901 8.54297 9.14901 7.88983 9.14901 7.22867C9.64705 7.22867 10.1372 7.22466 10.6314 7.23668C10.6314 8.86754 10.6314 10.4984 10.6314 12.1373C10.6157 12.1373 10.6039 12.1413 10.5882 12.1413C10.4118 12.1413 10.2353 12.1373 10.0549 12.1373C9.86274 12.1373 9.67058 12.1373 9.47843 12.1373C9.44705 12.1373 9.43137 12.1292 9.41176 12.1052C8.9098 11.4641 8.40784 10.823 7.90588 10.1818C7.89411 10.1658 7.88235 10.1498 7.87058 10.1378C7.86666 10.1378 7.86666 10.1378 7.86666 10.1418C7.86666 10.1418 7.86274 10.1418 7.86274 10.1458C7.86274 10.8109 7.86274 11.4721 7.86274 12.1373C7.3647 12.1373 6.8745 12.1373 6.37646 12.1373C6.37646 11.3559 6.37646 10.5745 6.37646 9.78915Z" fill="#131C22"/>
<path d="M16.5373 10.9993C16.7725 11.3519 17.0039 11.7045 17.2353 12.0571C17.251 12.0772 17.2627 12.1012 17.2784 12.1252C17.2627 12.1252 17.2549 12.1292 17.2431 12.1292C16.6824 12.1292 16.1216 12.1292 15.5647 12.1292C15.5333 12.1292 15.5176 12.1172 15.502 12.0892C15.3333 11.7846 15.1608 11.4801 14.9922 11.1756C14.851 10.9271 14.7098 10.6747 14.5686 10.4263C14.5647 10.4182 14.5569 10.4102 14.5451 10.3942C14.5451 10.9752 14.5451 11.5482 14.5451 12.1212C14.0471 12.1212 13.5529 12.1212 13.0588 12.1212C13.0588 10.4904 13.0588 8.85952 13.0588 7.22466C13.0745 7.22466 13.0863 7.22065 13.102 7.22065C13.8118 7.22065 14.5176 7.21665 15.2274 7.22065C15.5294 7.22065 15.8235 7.28076 16.102 7.40898C16.2627 7.48111 16.4078 7.57728 16.5373 7.70149C16.7922 7.93791 16.9373 8.23443 16.9961 8.57502C17.0196 8.70726 17.0275 8.83548 17.0196 8.96771C17.0118 9.11196 16.9804 9.25221 16.9333 9.39245C16.8549 9.61284 16.7451 9.81319 16.5922 9.98549C16.4627 10.1297 16.3137 10.2459 16.1333 10.3221C16.1294 10.3221 16.1294 10.3261 16.1255 10.3261C16.1137 10.3541 16.1294 10.3702 16.1412 10.3902C16.2588 10.5705 16.3804 10.7508 16.498 10.9311C16.5137 10.9592 16.5255 10.9792 16.5373 10.9993ZM14.6392 8.42276C14.6118 8.42276 14.5843 8.42276 14.5529 8.42276C14.5529 8.75935 14.5529 9.09593 14.5529 9.43252C14.5725 9.43252 14.5882 9.43252 14.6039 9.43252C14.698 9.43252 14.7922 9.42852 14.8863 9.42852C14.9765 9.42852 15.0667 9.4165 15.1529 9.38845C15.302 9.34036 15.4078 9.2482 15.4431 9.08792C15.4706 8.96771 15.4667 8.84349 15.4314 8.72729C15.3961 8.6191 15.3255 8.53896 15.2235 8.49088C15.1333 8.45081 15.0392 8.43478 14.9412 8.42676C14.8431 8.42276 14.7451 8.42676 14.6392 8.42276Z" fill="#131C22"/>
<path d="M15.3137 6.27099C14.9451 6.14277 14.6039 5.96646 14.2824 5.75409C14.0118 5.57377 13.7569 5.36941 13.502 5.16105C13.2627 4.9607 13.0196 4.76435 12.7569 4.59606C12.4392 4.3917 12.098 4.24745 11.7294 4.17132C11.5098 4.12724 11.2902 4.09118 11.0667 4.07515C10.9412 4.06713 10.8118 4.06313 10.6824 4.05912C10.5804 4.05511 10.4745 4.05511 10.3725 4.05912C10.2235 4.06713 10.0745 4.07515 9.92941 4.09118C9.75686 4.11121 9.58039 4.13926 9.40784 4.1633C9.33725 4.17532 9.26274 4.19135 9.19215 4.20738C9.18039 4.21139 9.16863 4.21139 9.15686 4.21539C9.15686 3.69047 9.15686 3.16556 9.15686 2.63663C9.17255 2.63262 9.18431 2.62862 9.2 2.62461C9.47451 2.5605 9.74902 2.51642 10.0274 2.48436C10.2902 2.45631 10.5569 2.4483 10.8235 2.45631C11.2784 2.46834 11.7216 2.54046 12.1569 2.67269C12.3961 2.74482 12.6314 2.83698 12.8627 2.93716C13.0274 3.00528 13.1922 3.0774 13.3529 3.15353C13.5529 3.2497 13.7333 3.37392 13.9137 3.49814C14.349 3.81068 14.7843 4.12323 15.2196 4.43177C15.4902 4.62411 15.7843 4.76836 16.1137 4.83247C16.2314 4.85651 16.3529 4.87655 16.4745 4.88056C16.5529 4.88456 16.6314 4.88857 16.7098 4.88456C17.0941 4.86854 17.4627 4.78439 17.8 4.58805C17.8431 4.564 17.8863 4.53195 17.9294 4.5039C17.9412 4.49588 17.9529 4.48787 17.9686 4.47585C17.9686 4.49989 17.9686 4.51592 17.9686 4.53195C17.9686 4.68822 17.9686 4.84449 17.9686 5.00477C17.9686 5.11697 17.9686 5.22516 17.9647 5.33736C17.9608 5.51367 17.9569 5.68997 17.9569 5.86628C17.9569 5.9344 17.9529 6.00653 17.9529 6.07465C17.9529 6.1027 17.9451 6.11872 17.9176 6.12674C17.8588 6.14677 17.8 6.16681 17.7412 6.18284C17.4706 6.25096 17.2 6.31907 16.9294 6.37517C16.7569 6.41124 16.5843 6.42726 16.4078 6.43528C16.2314 6.44329 16.0588 6.43127 15.8863 6.40723C15.6863 6.37918 15.498 6.3351 15.3137 6.27099Z" fill="#F58220"/>
<path d="M7.97648 6.5715C7.70197 6.56749 7.43138 6.54345 7.16079 6.50739C6.85491 6.46331 6.54903 6.3992 6.25099 6.31906C6.01177 6.25495 5.7804 6.17481 5.55295 6.07864C5.54118 6.07463 5.52942 6.06662 5.52158 6.06261C5.52158 5.53368 5.52158 5.00877 5.52158 4.47583C5.54903 4.48385 5.57648 4.49186 5.60001 4.49988C6.07452 4.66817 6.56471 4.79239 7.06275 4.86451C7.22354 4.88856 7.38824 4.90458 7.55295 4.92061C7.6902 4.93263 7.82746 4.93664 7.96471 4.94065C8.03138 4.94465 8.09413 4.94866 8.16079 4.94465C8.39609 4.93664 8.62746 4.92863 8.86275 4.90058C9.13334 4.86852 9.40393 4.82444 9.66667 4.75632C9.96079 4.68019 10.2471 4.58803 10.5216 4.4558C10.5294 4.45179 10.5373 4.45179 10.549 4.44778C10.5569 4.98072 10.5529 5.50964 10.5529 6.03857C10.3961 6.1147 10.2353 6.18282 10.0745 6.24293C9.80393 6.3431 9.5255 6.42324 9.23922 6.47533C9.07452 6.50739 8.90589 6.52742 8.73726 6.54746C8.56079 6.5715 8.38432 6.57951 8.20785 6.57951C8.13334 6.5715 8.05883 6.5715 7.97648 6.5715Z" fill="#F58220"/>
</svg>
