<svg width="28" height="28" viewBox="0 0 28 28" fill="none" xmlns="http://www.w3.org/2000/svg">
<g clip-path="url(#clip0_34_93)">
<rect width="28" height="28" fill="white"/>
<mask id="path-1-inside-1_34_93" fill="white">
<rect width="28" height="28" rx="1"/>
</mask>
<rect width="28" height="28" rx="1" fill="white" stroke="#131C22" stroke-width="4" mask="url(#path-1-inside-1_34_93)"/>
<path d="M17.2619 20.1963H17.7841C18.437 20.1963 19.2204 20.1638 19.2204 19.3166C19.2204 18.6323 18.5349 18.502 17.7841 18.502H17.2619V20.1963ZM15.2706 17.1008H18.8287C20.1671 17.1008 21.2443 17.6874 21.2443 18.9907C21.2443 19.9683 20.7873 20.6525 19.808 20.8806V20.9132C20.4609 21.0761 20.4935 21.6626 20.8526 22.5424L21.5707 24.5626H19.5142L19.0899 23.2267C18.6981 21.9559 18.437 21.6301 17.6862 21.6301H17.2619V24.5626H15.2706V17.1008Z" fill="white"/>
<path d="M17.2619 20.1963H17.7841C18.437 20.1963 19.2204 20.1638 19.2204 19.3166C19.2204 18.6323 18.5349 18.502 17.7841 18.502H17.2619V20.1963ZM15.2706 17.1008H18.8287C20.1671 17.1008 21.2443 17.6874 21.2443 18.9907C21.2443 19.9683 20.7873 20.6525 19.808 20.8806V20.9132C20.4609 21.0761 20.4935 21.6626 20.8526 22.5424L21.5707 24.5626H19.5142L19.0899 23.2267C18.6981 21.9559 18.437 21.6301 17.6862 21.6301H17.2619V24.5626H15.2706V17.1008Z" fill="#FF5800"/>
<path d="M9.78659 17.5245H6.03264C6.48964 21.1413 9.36223 23.9761 12.953 24.4323V20.6851C11.4187 20.3267 10.1783 19.0885 9.78659 17.5245Z" fill="#FF5800"/>
<path d="M14.0955 4.97949C14.0628 5.01208 13.9976 5.01208 13.9649 4.97949L13.0509 4.06713C13.0183 4.03455 13.0183 3.96938 13.0509 3.9368L13.9649 3.02444C13.9976 2.99185 14.0628 2.99185 14.0955 3.02444L15.0095 3.9368C15.0421 3.96938 15.0421 4.03455 15.0095 4.06713L14.0955 4.97949Z" fill="#FF5800"/>
<path d="M17.4251 8.95479C17.3598 8.98737 17.3271 8.98737 17.2292 8.98737C17.0334 8.98737 16.8701 8.88962 16.7722 8.85704C16.6743 8.79187 16.5111 8.7267 16.3805 8.7267C16.2499 8.7267 16.0867 8.79187 15.9888 8.85704C15.8256 8.95479 15.7603 8.98737 15.5971 8.98737C15.4012 8.98737 15.238 8.88962 15.1401 8.85704C15.0421 8.79187 14.8789 8.7267 14.7483 8.7267C14.6178 8.7267 14.4546 8.79187 14.3566 8.85704C14.1934 8.95479 14.1281 8.98737 13.9649 8.98737C13.8017 8.98737 13.7364 8.95479 13.5732 8.85704C13.4753 8.79187 13.3121 8.7267 13.1815 8.7267C13.0509 8.7267 12.9203 8.79187 12.7898 8.85704C12.6918 8.92221 12.5286 9.01996 12.3328 8.98737C12.1695 8.98737 12.1043 8.95479 11.941 8.85704C11.8431 8.79187 11.6799 8.7267 11.5493 8.7267C11.4188 8.7267 11.2882 8.79187 11.1576 8.85704C11.0597 8.92221 10.8965 9.01996 10.7006 8.98737C10.6353 8.98737 10.57 8.98737 10.5047 8.95479L9.19903 7.13007C8.8726 6.64131 8.97053 5.98962 9.46017 5.66378C9.94982 5.33794 10.6027 5.43569 10.9291 5.92445L12.0063 7.45591C12.3001 7.39075 12.5613 7.32558 12.8551 7.29299V6.4458C12.8551 5.85929 13.3121 5.40311 13.8996 5.40311C14.4872 5.40311 14.9442 5.85929 14.9442 6.4458V7.26041C15.238 7.29299 15.5318 7.35816 15.7929 7.42333L16.8701 5.89187C17.1966 5.40311 17.8494 5.30535 18.3391 5.6312C18.8287 5.95704 18.9267 6.60872 18.6002 7.09749L17.4251 8.95479Z" fill="#FF5800"/>
<path d="M12.398 9.67164C12.2348 9.67164 12.1695 9.63906 12.0063 9.5413C11.9084 9.47613 11.7778 9.41097 11.6146 9.41097C11.484 9.41097 11.3535 9.47613 11.2229 9.5413C11.125 9.60647 10.9617 9.70422 10.7659 9.67164C10.6027 9.67164 10.5374 9.63906 10.3742 9.5413C10.3089 9.50872 10.2436 9.47613 10.1457 9.44355C7.92594 10.6492 6.32643 12.8649 6 15.4716H9.78659C10.1783 13.9076 11.4187 12.6694 12.953 12.311V9.50872C12.9203 9.5413 12.8877 9.5413 12.8224 9.57389C12.7571 9.57389 12.5939 9.67164 12.398 9.67164Z" fill="#FF5800"/>
<path d="M17.8494 9.41098C17.7515 9.44356 17.6862 9.47615 17.6209 9.50873C17.4577 9.60649 17.3924 9.63907 17.2292 9.63907C17.0334 9.63907 16.8701 9.54132 16.7722 9.50873C16.6743 9.44356 16.5437 9.3784 16.3805 9.3784C16.2499 9.3784 16.0867 9.44356 15.9888 9.50873C15.8256 9.60649 15.7603 9.63907 15.5971 9.63907C15.4012 9.63907 15.238 9.54132 15.1401 9.50873C15.1074 9.47615 15.0748 9.47615 15.0421 9.44356V12.2458C16.609 12.6368 17.8494 13.8424 18.2085 15.4065H21.9625C21.636 12.8323 20.0692 10.6166 17.8494 9.41098Z" fill="#FF5800"/>
</g>
<defs>
<clipPath id="clip0_34_93">
<rect width="28" height="28" fill="white"/>
</clipPath>
</defs>
</svg>
