<svg width="20" height="20" viewBox="0 0 20 20" fill="none" xmlns="http://www.w3.org/2000/svg">
<path d="M18.5897 8.66418C18.5395 8.24661 18.34 7.88132 18.0531 7.63838C17.9894 3.41614 14.4018 0 10 0C5.5982 0 2.0104 3.41614 1.94682 7.63838C1.66008 7.88121 1.46066 8.24615 1.41032 8.66344C0.602113 8.85006 0 9.54489 0 10.3715V12.1822C0 13.0088 0.602113 13.7036 1.41032 13.8903C1.50117 14.6443 2.07966 15.2276 2.77787 15.2276H3.48371C4.24485 15.2276 4.86397 14.5347 4.86397 13.6828V8.87086C4.86397 8.39476 4.67046 7.96838 4.36696 7.68481C4.4046 4.72147 6.9169 2.32181 10 2.32181C13.0831 2.32181 15.5953 4.72142 15.6331 7.6847C15.3294 7.96827 15.1357 8.3947 15.1357 8.87086V13.6828C15.1357 14.499 15.7045 15.169 16.4217 15.2236V16.5774C16.4217 17.5016 15.6326 18.2535 14.6624 18.2535H13.2147C13.0282 17.7341 12.511 17.3594 11.9034 17.3594H10.9384C10.1742 17.3594 9.55262 17.9517 9.55262 18.6797C9.55262 19.4077 10.1743 20 10.9384 20H11.9034C12.511 20 13.0282 19.6254 13.2147 19.1059H14.6624C16.1258 19.1059 17.3165 17.9716 17.3165 16.5774V15.2236C17.9719 15.1737 18.5032 14.6096 18.5897 13.8895C19.3978 13.7029 20 13.0086 20 12.1822V10.3715C19.9999 9.54501 19.3978 8.8508 18.5897 8.66418ZM1.39749 12.9787C1.09888 12.8262 0.894758 12.5271 0.894758 12.1822V10.3715C0.894758 10.0267 1.09888 9.72743 1.39749 9.5749V12.9787ZM11.9034 19.1476H10.9384C10.6677 19.1476 10.4474 18.9377 10.4474 18.6797C10.4474 18.4217 10.6677 18.2118 10.9384 18.2118H11.9034C12.1742 18.2118 12.3945 18.4217 12.3945 18.6797C12.3945 18.9377 12.1742 19.1476 11.9034 19.1476ZM3.96921 13.6828C3.96921 14.0516 3.74236 14.3752 3.48371 14.3752H2.77781C2.51916 14.3752 2.29219 14.0517 2.29219 13.6828V8.87086C2.29219 8.50205 2.51916 8.17847 2.77781 8.17847H3.48371C3.74236 8.17847 3.96921 8.50199 3.96921 8.87086V13.6828ZM10 1.46939C6.54898 1.46939 3.71546 4.05983 3.48699 7.32623L3.48371 7.32611H2.85428C3.08352 3.71926 6.2005 0.852416 10 0.852416C13.7993 0.852416 16.9163 3.71932 17.1456 7.32611H16.5162L16.5134 7.32623C16.285 4.05983 13.4511 1.46939 10 1.46939ZM17.7076 13.6828C17.7076 14.0516 17.4808 14.3752 17.222 14.3752H16.5162C16.2575 14.3752 16.0305 14.0517 16.0305 13.6828V8.87086C16.0305 8.50205 16.2575 8.17847 16.5162 8.17847H17.222C17.4808 8.17847 17.7076 8.50199 17.7076 8.87086V13.6828ZM19.1052 12.1822C19.1052 12.5271 18.9011 12.8264 18.6023 12.9788V9.57513C18.9011 9.72765 19.1052 10.0266 19.1052 10.3715V12.1822Z" fill="black"/>
<path d="M2 8H4V15H2V8Z" fill="black"/>
<path d="M16 8H18V15H16V8Z" fill="black"/>
<path d="M10 18H13V19L11.5 19.5L10 19V18Z" fill="black"/>
</svg>
