<svg width="16" height="22" viewBox="0 0 16 22" fill="none" xmlns="http://www.w3.org/2000/svg">
<path d="M11.2619 17.1963H11.7841C12.437 17.1963 13.2204 17.1638 13.2204 16.3166C13.2204 15.6323 12.5349 15.502 11.7841 15.502H11.2619V17.1963ZM9.27063 14.1008H12.8287C14.1671 14.1008 15.2443 14.6874 15.2443 15.9907C15.2443 16.9683 14.7873 17.6525 13.808 17.8806V17.9132C14.4609 18.0761 14.4935 18.6626 14.8526 19.5424L15.5707 21.5626H13.5142L13.0899 20.2267C12.6981 18.9559 12.437 18.6301 11.6862 18.6301H11.2619V21.5626H9.27063V14.1008Z" fill="white"/>
<path d="M11.2619 17.1963H11.7841C12.437 17.1963 13.2204 17.1638 13.2204 16.3166C13.2204 15.6323 12.5349 15.502 11.7841 15.502H11.2619V17.1963ZM9.27063 14.1008H12.8287C14.1671 14.1008 15.2443 14.6874 15.2443 15.9907C15.2443 16.9683 14.7873 17.6525 13.808 17.8806V17.9132C14.4609 18.0761 14.4935 18.6626 14.8526 19.5424L15.5707 21.5626H13.5142L13.0899 20.2267C12.6981 18.9559 12.437 18.6301 11.6862 18.6301H11.2619V21.5626H9.27063V14.1008Z" fill="#FF5800"/>
<path d="M3.78659 14.5245H0.032642C0.489645 18.1413 3.36223 20.9761 6.95297 21.4323V17.6851C5.41874 17.3267 4.17831 16.0885 3.78659 14.5245Z" fill="#FF5800"/>
<path d="M8.09548 1.97949C8.06284 2.01208 7.99755 2.01208 7.96491 1.97949L7.0509 1.06713C7.01826 1.03455 7.01826 0.969382 7.0509 0.936798L7.96491 0.0244382C7.99755 -0.00814607 8.06284 -0.00814607 8.09548 0.0244382L9.00949 0.936798C9.04213 0.969382 9.04213 1.03455 9.00949 1.06713L8.09548 1.97949Z" fill="#FF5800"/>
<path d="M11.4251 5.95479C11.3598 5.98737 11.3271 5.98737 11.2292 5.98737C11.0334 5.98737 10.8701 5.88962 10.7722 5.85704C10.6743 5.79187 10.5111 5.7267 10.3805 5.7267C10.2499 5.7267 10.0867 5.79187 9.98878 5.85704C9.82557 5.95479 9.76028 5.98737 9.59707 5.98737C9.40121 5.98737 9.23799 5.88962 9.14007 5.85704C9.04214 5.79187 8.87892 5.7267 8.74835 5.7267C8.61777 5.7267 8.45456 5.79187 8.35663 5.85704C8.19342 5.95479 8.12813 5.98737 7.96492 5.98737C7.8017 5.98737 7.73641 5.95479 7.5732 5.85704C7.47527 5.79187 7.31205 5.7267 7.18148 5.7267C7.05091 5.7267 6.92034 5.79187 6.78976 5.85704C6.69183 5.92221 6.52862 6.01996 6.33276 5.98737C6.16955 5.98737 6.10426 5.95479 5.94104 5.85704C5.84312 5.79187 5.6799 5.7267 5.54933 5.7267C5.41876 5.7267 5.28818 5.79187 5.15761 5.85704C5.05968 5.92221 4.89647 6.01996 4.70061 5.98737C4.63532 5.98737 4.57004 5.98737 4.50475 5.95479L3.19903 4.13007C2.8726 3.64131 2.97053 2.98962 3.46017 2.66378C3.94982 2.33794 4.60268 2.43569 4.92911 2.92445L6.00633 4.45591C6.30012 4.39075 6.56126 4.32558 6.85505 4.29299V3.4458C6.85505 2.85929 7.31205 2.40311 7.89963 2.40311C8.4872 2.40311 8.94421 2.85929 8.94421 3.4458V4.26041C9.23799 4.29299 9.53178 4.35816 9.79293 4.42333L10.8701 2.89187C11.1966 2.40311 11.8494 2.30535 12.3391 2.6312C12.8287 2.95704 12.9267 3.60872 12.6002 4.09749L11.4251 5.95479Z" fill="#FF5800"/>
<path d="M6.39804 6.67164C6.23482 6.67164 6.16954 6.63906 6.00632 6.5413C5.90839 6.47613 5.77782 6.41097 5.6146 6.41097C5.48403 6.41097 5.35346 6.47613 5.22289 6.5413C5.12496 6.60647 4.96174 6.70422 4.76589 6.67164C4.60267 6.67164 4.53739 6.63906 4.37417 6.5413C4.30888 6.50872 4.2436 6.47613 4.14567 6.44355C1.92594 7.64917 0.326431 9.8649 0 12.4716H3.78659C4.17831 10.9076 5.41875 9.66939 6.95297 9.31097V6.50872C6.92033 6.5413 6.88768 6.5413 6.8224 6.57389C6.75711 6.57389 6.5939 6.67164 6.39804 6.67164Z" fill="#FF5800"/>
<path d="M11.8494 6.41098C11.7515 6.44356 11.6862 6.47615 11.6209 6.50873C11.4577 6.60649 11.3924 6.63907 11.2292 6.63907C11.0334 6.63907 10.8701 6.54132 10.7722 6.50873C10.6743 6.44356 10.5437 6.3784 10.3805 6.3784C10.2499 6.3784 10.0867 6.44356 9.98879 6.50873C9.82557 6.60649 9.76029 6.63907 9.59707 6.63907C9.40121 6.63907 9.238 6.54132 9.14007 6.50873C9.10742 6.47615 9.07478 6.47615 9.04214 6.44356V9.24581C10.609 9.63682 11.8494 10.8424 12.2085 12.4065H15.9625C15.636 9.83233 14.0692 7.6166 11.8494 6.41098Z" fill="#FF5800"/>
</svg>
