<svg width="18" height="20" viewBox="0 0 18 20" fill="none" xmlns="http://www.w3.org/2000/svg">
<path d="M7.85677 11.7918L7.72612 11.4951L7.58359 11.2098L7.42325 10.9416L7.06693 10.4109L6.88877 10.1484L6.68686 9.89158L6.5087 9.6405L6.31272 9.38372L6.13456 9.13834L5.9564 8.88726L5.802 8.64189L5.6476 8.39081L5.51101 8.13973L5.39223 7.88865L5.29722 7.63186L5.21408 7.65469L5.13093 7.68892L5.04779 7.71746L4.95871 7.74599L4.87557 7.76881L4.79243 7.80305L4.70929 7.83158L4.54895 7.88865L4.46581 7.92859L4.40642 7.95142L4.32922 7.99707L4.24608 8.01989L4.17481 8.05984L4.10355 8.08837L4.04416 8.12261L4.09167 8.76743L4.157 9.3666L4.29359 9.95435L4.45393 10.5136L4.64397 11.0443L4.88151 11.5464L5.11906 12.0258L5.38036 12.4709L5.66541 12.8817L5.96234 13.2812L6.27115 13.6407L6.5859 13.983L6.89471 14.2855L7.22133 14.5708L7.53608 14.8276L7.85083 15.0673L7.93991 14.8048L8.01711 14.5651L8.08837 14.3254L8.12994 14.0972L8.15964 13.8803L8.18339 13.6692V13.0814L8.1537 12.8931L8.12401 12.7105L8.03493 12.351L7.97554 12.1798L7.84489 11.826M11.4615 5.66887L11.7584 5.70881L12.0554 5.75446L12.6492 5.86859L12.9284 5.92566L13.2253 5.99984L13.4985 6.07402L13.7776 6.15962L14.0389 6.24521L14.3061 6.33651L14.5555 6.42211L14.8168 6.51912L15.0544 6.62183L15.5295 6.85009L15.7552 6.97563L15.7433 7.43214L15.7195 7.87153L15.672 8.31092L15.6126 8.72748L15.5532 9.14975L15.3632 9.94865L15.2563 10.331L15.1375 10.7133L15.0009 11.0785L14.8584 11.4323L14.704 11.7747L14.5437 12.1057L14.3655 12.4366L14.1992 12.7448L14.0211 13.0529L15.5651 14.7534L15.8205 14.354L16.058 13.9545L16.3074 13.5322L16.5272 13.0986L16.741 12.6421L16.9488 12.1855L17.127 11.7062L17.3051 11.2155L17.4536 10.7019L17.5902 10.1883L17.709 9.64621L17.8159 9.08698L17.8931 8.51635L17.9524 7.92859L17.9881 7.31801L18 6.70743L17.2695 6.23951L16.8716 6.02837L16.4678 5.83435L16.0521 5.64034L15.6007 5.46915L15.1494 5.30937L14.6743 5.161L14.1992 5.02976L13.7123 4.91563L13.2134 4.8015L12.7086 4.69879L12.192 4.61319L11.6694 4.54471L11.1349 4.48765L10.6123 4.44771L10.6479 4.52189L10.6954 4.59607L10.7429 4.67596L10.7905 4.75014L10.8914 4.90422L10.933 4.98411L10.9924 5.05829L11.0993 5.21236L11.1468 5.28654L11.2655 5.44062L11.3843 5.57757L11.4437 5.65746M2.25664 6.98133V7.43784L2.28039 7.87723L2.32196 8.31662L2.38135 8.73319L2.45261 9.15546L2.53575 9.55491L2.63077 9.95435L2.73766 10.3367L2.86831 10.719L2.99896 11.0842L3.13555 11.438L3.28996 11.7804L3.45624 12.1114L3.6344 12.4423L3.81256 12.7505L4.00259 13.0586L2.44667 14.7591L2.17943 14.3597L1.94189 13.9602L1.69246 13.538L1.47274 13.1043L1.25894 12.6478L1.05703 12.1912L0.878872 11.7119L0.700713 11.2212L0.546309 10.7076L0.40972 10.194L0.290947 9.65191L0.195929 9.09269L0.118727 8.52205L0.0593406 7.9343L-4.57764e-05 7.32372V6.71313L0.267193 6.53053L0.534431 6.35934L0.831363 6.18815L1.12829 6.02837L1.42523 5.88L1.75185 5.73164L2.07848 5.60039L2.41104 5.47485L2.75548 5.36073L3.46812 5.13247L3.83631 5.02976L4.20451 4.93845L4.58458 4.85286L4.97059 4.77297L5.3566 4.70449L5.29722 4.85857L5.2794 4.94416L5.24971 5.02405L5.22595 5.09253L5.21408 5.17242L5.19032 5.2466L5.1725 5.32078V5.39496L5.13687 5.55474L5.125 5.62322L5.11312 5.6974L5.10124 5.83435V5.90854L4.89339 5.95419L4.69741 5.99984L4.50738 6.0569L4.3114 6.11397L4.12137 6.17103L3.94321 6.22809L3.75317 6.28516L3.58689 6.35363L3.23057 6.49059L3.06429 6.55906L2.88613 6.63325L2.73173 6.71313L2.41104 6.8615L2.26257 6.9528M8.99698 19.9976L8.77726 19.9234L8.53971 19.8321L8.29029 19.7179L8.02899 19.6038L7.75581 19.4669L7.47076 19.3185L6.87689 18.9761L6.57996 18.7764L6.25334 18.5596L5.93859 18.3313L5.6179 18.103L5.29128 17.8463L4.97653 17.5724L4.6499 17.287L4.33516 16.9846L5.86732 15.3012L6.08112 15.4952L6.49682 15.8604L6.71655 16.0316L6.93034 16.2028L7.14413 16.3455L7.35198 16.4939L7.5539 16.6365L7.76175 16.7678L8.14182 16.996L8.31998 17.1101L8.49814 17.1957L8.6763 17.2756L8.84258 17.3612L9.00292 17.4297L9.15733 17.3612L9.33549 17.2756L9.51365 17.1957L9.6918 17.1044L9.86996 16.9903L10.06 16.8876L10.2619 16.7621L10.4579 16.6308L10.6598 16.4939L10.8617 16.3512L11.0755 16.2028L11.4912 15.8604L11.9188 15.4952L12.1385 15.3012L13.6707 16.9846L13.35 17.2813L13.0234 17.5666L12.7027 17.8348L12.3761 18.0859L12.0494 18.3313L11.7347 18.5596L11.4199 18.765L11.1111 18.959L10.5173 19.3014L10.2322 19.4497L9.96498 19.581L9.6918 19.6951L9.44238 19.8092L9.20484 19.9063L8.98511 19.9804M11.3427 11.7804L11.5625 11.4665L11.7644 11.1584L11.9307 10.856L12.0791 10.5706L12.1979 10.2739L12.2989 9.98859L12.3701 9.70327L12.4295 9.42937L12.4711 9.16117L12.4889 8.89867L12.5067 8.64759V8.40793L12.4889 8.17967L12.4651 7.96854L12.4355 7.7574L12.4058 7.56909L12.5067 7.59192L12.6077 7.62045L12.8155 7.67751L13.0115 7.75169L13.1184 7.77452L13.3203 7.843L13.4153 7.88294L13.5103 7.91147L13.6113 7.94571L13.7063 8.00277L13.7895 8.03701L13.8726 8.08266L13.9676 8.12261L13.8964 8.9215L13.7657 9.68615L13.5757 10.3937L13.3381 11.0614L13.0531 11.6891L12.7324 12.2597L12.3879 12.8018L12.0138 13.2926L11.6278 13.7377L11.2299 14.1485L10.8261 14.5194L10.4282 14.8447L10.0362 15.13L9.66211 15.3811L9.30579 15.5922L8.97917 15.7634L8.9376 15.752L8.89009 15.7292L8.84852 15.7064L8.80101 15.6835L8.75944 15.6664L8.71787 15.6322L8.6763 15.6094L8.61691 15.5808L8.58128 15.5523L8.52189 15.5238L8.48626 15.4952L8.43875 15.4667L8.39718 15.4382L8.3378 15.4039L8.29623 15.3754L8.24872 15.3412L8.72381 14.7135L9.08013 14.0858L9.31767 13.4695L9.4602 12.876L9.53146 12.3054L9.51365 11.7347L9.43051 11.204L9.29986 10.7019L9.13357 10.2226L8.94354 9.78887L8.72975 9.38942L8.51596 9.04704L8.30217 8.73319L8.12401 8.4707L7.95772 8.26527L7.83895 8.1169L7.74987 7.99136L7.65485 7.86012L7.56577 7.71746L7.47076 7.5748L7.36386 7.42643L7.26884 7.27236L7.17976 7.10117L7.09068 6.9471L7.0016 6.7759L6.83532 6.44494L6.77594 6.27374L6.69873 6.10255L6.57996 5.76017L6.54433 5.60039L6.48494 5.31507L6.44337 5.02976L6.41962 4.72732V4.40206L6.44337 4.07109L6.48494 3.74012L6.56215 3.39773L6.6631 3.04394L6.79969 2.67873L6.97785 2.31352L7.16789 1.94261L7.40543 1.56028L7.70236 1.17225L8.02305 0.789924L8.39124 0.390478L8.81883 0.00244522L8.97917 0.0595089L8.77726 0.430423L8.61097 0.772805L8.47439 1.11519L8.35561 1.43474L8.25466 1.74289L8.17745 2.02821L8.12994 2.31352L8.10619 2.58172L8.08837 2.83851L8.10025 3.0953L8.11807 3.34067L8.16558 3.58604L8.21309 3.8143L8.35561 4.29363L8.44469 4.5333L8.55159 4.79009L8.69411 5.07541L8.8604 5.34931L9.03856 5.64604L9.24641 5.94848L9.4602 6.25663L9.67993 6.56477L9.89966 6.89003L10.1194 7.20388L10.3332 7.52344L10.7251 8.17397L10.8914 8.49352L11.0399 8.81878L11.1586 9.13834L11.2537 9.44649L11.2715 9.56061L11.2893 9.69186L11.3368 9.96006V10.097L11.3546 10.2283V10.8103L11.3368 10.9644L11.3131 11.107L11.2893 11.2611L11.2834 11.4209L11.224 11.7347L11.3427 11.7804Z" fill="#C9AF53"/>
</svg>
