<svg xmlns="http://www.w3.org/2000/svg" width="121" height="121" viewBox="0 0 121 121"><g fill="none" fill-rule="evenodd" transform="translate(11 1)"><path fill="#000" d="M49.4394392,0.0318675407 C22.3057387,1.05655877 0,24.0129849 0,51.0632884 C0,74.1581311 15.7531577,94.1840908 37.6796234,100.284188 L39.123,100.664864 L42.9875735,113.982705 L43.1785408,114.537893 C46.0893205,121.820521 56.3606795,121.820521 59.2714592,114.537893 L59.414029,114.18119 L62.886,100.712864 L63.516,100.496864 L63.2562825,100.567939 C85.9193193,94.8977587 102,74.3341875 102,50.6129372 C102,22.1810388 78.2198674,-0.978760095 49.4394392,0.0318675407 Z M49.65,6.02817175 C75.3,5.12746941 96,25.8436231 96,50.6129372 C96,71.7794421 81.6,89.7934887 61.8,94.7473516 L60.7909333,95.0889513 C58.9125333,95.7454632 57.8597333,96.3059002 57.4021333,97.9231613 L57.3,98.3501609 L53.7,112.311047 C52.8473684,114.444289 49.9753463,114.556565 48.9101473,112.647875 L48.75,112.311047 L44.7,98.3501609 C44.3210526,96.4539455 43.9421053,95.8351804 41.6820674,95.1491811 L40.742703,94.8861535 C40.5702216,94.8409148 40.3894737,94.7947569 40.2,94.7473516 C20.85,89.7934887 6,72.2297932 6,51.0632884 C6,27.1946766 25.8,6.92887408 49.65,6.02817175 Z"/><path fill="#FFF329" d="M49.65,6.02817175 C75.3,5.12746941 96,25.8436231 96,50.6129372 C96,71.7794421 81.6,89.7934887 61.8,94.7473516 L60.7909333,95.0889513 C58.9125333,95.7454632 57.8597333,96.3059002 57.4021333,97.9231613 L57.3,98.3501609 L53.7,112.311047 C52.8473684,114.444289 49.9753463,114.556565 48.9101473,112.647875 L48.75,112.311047 L44.7,98.3501609 C44.3210526,96.4539455 43.9421053,95.8351804 41.6820674,95.1491811 L40.742703,94.8861535 C40.5702216,94.8409148 40.3894737,94.7947569 40.2,94.7473516 C20.85,89.7934887 6,72.2297932 6,51.0632884 C6,27.1946766 25.8,6.92887408 49.65,6.02817175 Z"/><g transform="translate(9 6)"><rect width="84" height="84"/><g fill="#000" fill-rule="nonzero" transform="translate(6.563 10.5)"><path d="M70.3272172,55.7479125 L38.5555297,1.9354125 C37.8479609,0.73565625 36.5585609,0 35.1653422,0 C35.1600922,0 35.1549734,0 35.1499859,0 C33.7513859,0.00511875 32.4621172,0.752325 31.7596672,1.96100625 L0.531485927,55.7735063 C-0.174770323,56.9912438 -0.177395323,58.4947125 0.525054677,59.7149438 C1.22737343,60.935175 2.52845468,61.6875 3.93702968,61.6875 L66.9370297,61.6875 C68.3507234,61.6875 69.6556109,60.9300562 70.3567484,59.7020812 C71.0577547,58.4742375 71.0463359,56.9655188 70.3272172,55.7479125 Z M10.7751547,53.8125 L35.1946109,11.7317813 L60.0399734,53.8125 L10.7751547,53.8125 Z"/><path d="M30.4833922 27.9435187 30.4833922 30.1875 27.9853109 30.1875C27.7749172 30.1875 27.6042922 30.3579937 27.6042922 30.5685187L27.6042922 33.4339688C28.8868672 33.0788062 31.0618109 32.759475 32.8957672 32.6284875 36.0658484 32.4020813 38.3031359 33.3241125 39.7289047 34.1970563 39.9148859 34.31085 39.9689609 34.4456438 39.9543922 34.5746625 38.5040797 34.1824875 36.9339359 33.8964938 35.4368984 33.8964938 30.6653047 33.8964938 25.1486047 36.7997438 25.1486047 36.7997438 25.1486047 39.8523563 25.7912047 43.495725 26.2419172 45.6792 27.2245859 45.3786375 28.1065859 44.9019375 28.3711859 44.7319688L30.1022422 43.6193625 31.8332984 44.7319688C32.3298172 45.0436875 34.0616609 45.9375 35.4370297 45.9375 36.8711984 45.9375 38.6446484 44.9863313 39.0406297 44.7318375L40.7716859 43.6192312 42.5027422 44.7318375C42.8291609 44.93685 43.6909484 45.3896625 44.6330609 45.6784125 45.0837734 43.4990063 45.7253234 39.8635125 45.7253234 36.7997438 45.7253234 36.7997438 45.1184234 36.1495313 43.3120297 35.4646688L43.3120297 30.5685188C43.3120297 30.3579937 43.1414047 30.1875 42.9310109 30.1875L40.3906672 30.1875 40.3906672 27.9435187C40.3906672 27.7329937 40.2201734 27.5625 40.0096484 27.5625L30.8644109 27.5625C30.6540172 27.5625 30.4833922 27.7329937 30.4833922 27.9435187ZM34.1669234 42 28.8322672 42 28.8322672 39.7137563C28.8322672 39.292575 29.1735172 38.9517188 29.5943047 38.9517188 30.0150922 38.9517188 30.3563422 39.292575 30.3563422 39.7137563L30.3563422 40.4757938 32.6425859 40.4757938 32.6425859 39.7137563C32.6425859 39.2924438 32.9838359 38.9517188 33.4046234 38.9517188 33.8254109 38.9517188 34.1667922 39.2924438 34.1667922 39.7137563L34.1667922 42 34.1669234 42ZM40.6023734 40.4757938 40.6023734 39.7137563C40.6023734 39.2924438 40.9436234 38.9517188 41.3644109 38.9517188 41.7851984 38.9517188 42.1265797 39.2924438 42.1265797 39.7137563L42.1265797 42 36.7919234 42 36.7919234 39.7137563C36.7919234 39.292575 37.1331734 38.9517188 37.5539609 38.9517188 37.9747484 38.9517188 38.3159984 39.292575 38.3159984 39.7137563L38.3159984 40.4757938 40.6023734 40.4757938 40.6023734 40.4757938ZM40.7716859 46.197375 39.9478297 46.7272312C39.9248609 46.7420625 37.5960922 48.2001187 35.4370297 48.2001187 33.2645797 48.2001187 30.9469672 46.74075 30.9262297 46.7272312L30.1023734 46.197375 29.2785172 46.7272312C29.2554172 46.7421937 26.9266484 48.2001187 24.7677172 48.2001187 23.8414859 48.2001187 23.1018922 47.9343375 22.3120297 47.6289187L22.3120297 50.7735375C23.1424484 51.0132 23.8409609 51.1875 24.7677172 51.1875 26.9095859 51.1875 28.9913422 50.2795125 30.1023734 49.6997812 31.2134047 50.2795125 33.2950297 51.1875 35.4370297 51.1875 37.5790297 51.1875 39.6606547 50.2795125 40.7716859 49.6997812 41.8828484 50.2795125 43.9644734 51.1875 46.1063422 51.1875 47.0330984 51.1875 47.7316109 51.0132 48.5620297 50.7734062L48.5620297 47.62695C47.7704609 47.9331562 47.0294234 48.2001187 46.1063422 48.2001187 43.9338922 48.2001187 41.6164109 46.74075 41.5955422 46.7272312L40.7716859 46.197375Z"/></g></g></g></svg>