<svg xmlns="http://www.w3.org/2000/svg" width="121" height="121" viewBox="0 0 121 121"><g fill="none" fill-rule="evenodd" transform="translate(11 1)"><path fill="#000" d="M49.4394392,0.0318675407 C22.3057387,1.05655877 0,24.0129849 0,51.0632884 C0,74.1581311 15.7531577,94.1840908 37.6796234,100.284188 L39.123,100.664864 L42.9875735,113.982705 L43.1785408,114.537893 C46.0893205,121.820521 56.3606795,121.820521 59.2714592,114.537893 L59.414029,114.18119 L62.886,100.712864 L63.516,100.496864 L63.2562825,100.567939 C85.9193193,94.8977587 102,74.3341875 102,50.6129372 C102,22.1810388 78.2198674,-0.978760095 49.4394392,0.0318675407 Z M49.65,6.02817175 C75.3,5.12746941 96,25.8436231 96,50.6129372 C96,71.7794421 81.6,89.7934887 61.8,94.7473516 L60.7909333,95.0889513 C58.9125333,95.7454632 57.8597333,96.3059002 57.4021333,97.9231613 L57.3,98.3501609 L53.7,112.311047 C52.8473684,114.444289 49.9753463,114.556565 48.9101473,112.647875 L48.75,112.311047 L44.7,98.3501609 C44.3210526,96.4539455 43.9421053,95.8351804 41.6820674,95.1491811 L40.742703,94.8861535 C40.5702216,94.8409148 40.3894737,94.7947569 40.2,94.7473516 C20.85,89.7934887 6,72.2297932 6,51.0632884 C6,27.1946766 25.8,6.92887408 49.65,6.02817175 Z"/><path fill="#FFF329" d="M49.65,6.02817175 C75.3,5.12746941 96,25.8436231 96,50.6129372 C96,71.7794421 81.6,89.7934887 61.8,94.7473516 L60.7909333,95.0889513 C58.9125333,95.7454632 57.8597333,96.3059002 57.4021333,97.9231613 L57.3,98.3501609 L53.7,112.311047 C52.8473684,114.444289 49.9753463,114.556565 48.9101473,112.647875 L48.75,112.311047 L44.7,98.3501609 C44.3210526,96.4539455 43.9421053,95.8351804 41.6820674,95.1491811 L40.742703,94.8861535 C40.5702216,94.8409148 40.3894737,94.7947569 40.2,94.7473516 C20.85,89.7934887 6,72.2297932 6,51.0632884 C6,27.1946766 25.8,6.92887408 49.65,6.02817175 Z"/><g transform="translate(15 12)"><rect width="72" height="72"/><g fill="#000" fill-rule="nonzero" transform="translate(1.125 7.073)"><path d="M30.825 28.7015625C31.6125 27.2390625 33.1875 26.4515625 34.7625 26.4515625 36.45 26.4515625 37.9125 27.3515625 38.8125 28.7015625L41.625 33.5390625C43.9875 33.7640625 46.2375 34.1015625 48.2625 34.5515625 48.2625 32.0765625 48.15 25.3265625 46.575 23.6390625 44.775 21.7265625 40.6125 20.8265625 39.2625 20.4890625 39.0375 20.4890625 38.8125 20.2640625 38.8125 20.0390625 38.7 19.5890625 38.7 19.1390625 38.5875 18.9140625 39.9375 17.5640625 40.8375 15.8765625 41.175 13.6265625 42.3 13.2890625 42.525 11.8265625 42.525 11.0390625 42.525 10.1390625 42.4125 9.6890625 42.075 9.5765625 41.7375 9.4640625 41.5125 9.5765625 41.2875 9.6890625 41.5125 7.8890625 41.7375 4.1765625 40.95 2.7140625 40.1625 1.2515625 39.15.5765625 37.2375 1.1390625 36 .4640625 35.1-.4359375 32.9625.2390625 31.3875.6890625 29.7 1.4765625 28.9125 2.6015625 27.9 3.8390625 28.125 7.8890625 28.35 9.6890625 28.2375 9.5765625 27.9 9.4640625 27.675 9.5765625 27.3375 9.6890625 27.225 10.2515625 27.225 11.0390625 27.225 11.9390625 27.45 13.2890625 28.575 13.6265625 28.9125 15.9890625 29.8125 17.5640625 31.1625 18.9140625 31.05 19.3640625 31.05 19.7015625 30.9375 20.0390625 30.9375 20.2640625 30.7125 20.4890625 30.4875 20.4890625 29.025 20.8265625 24.8625 21.7265625 23.175 23.6390625 21.4875 25.3265625 21.375 32.1890625 21.375 34.5515625 23.5125 34.1015625 25.7625 33.7640625 28.0125 33.5390625L30.825 28.7015625ZM52.3125 37.3640625C53.2125 38.0390625 56.475 38.1515625 57.6 38.2640625 57.7125 38.3765625 57.6 38.6015625 57.375 38.7140625 56.3625 39.1640625 54.225 39.3890625 53.1 39.3890625 51.975 39.9515625 49.1625 41.5265625 47.3625 43.2140625L53.55 53.6765625C59.175 52.6640625 65.25 50.7515625 69.6375 46.4765625 69.4125 45.4640625 69.3 40.0640625 67.05 38.6015625 65.925 37.8140625 64.35 37.9265625 62.8875 38.1515625 63.1125 35.3390625 67.05 32.3015625 66.0375 24.5390625 65.5875 21.2765625 64.35 19.7015625 61.3125 20.0390625 59.2875 18.5765625 57.15 18.5765625 55.2375 18.9140625 53.325 19.3640625 50.9625 20.4890625 52.2 22.7390625 51.6375 24.5390625 51.6375 24.9890625 51.6375 25.7765625 51.6375 28.3640625 50.625 28.3640625 50.625 30.8390625 50.85 32.3015625 51.525 36.9140625 52.3125 37.3640625ZM10.0125 38.6015625C7.7625 39.3890625 5.5125 38.6015625 2.925 40.4015625 1.4625 41.4140625.45 43.6640625 0 46.4765625 4.275 50.6390625 10.575 52.5515625 16.3125 53.5640625L22.3875 43.1015625C20.475 40.9640625 17.775 39.7265625 16.425 39.2765625L16.425 39.2765625C15.75 38.9390625 15.4125 38.6015625 15.3 37.8140625L15.075 36.8015625C15.525 36.6890625 16.0875 36.5765625 16.5375 36.2390625 17.325 35.6765625 18.9 31.1765625 18.7875 29.6015625 18.5625 28.0265625 18.3375 27.9140625 18.1125 26.4515625 17.8875 24.9890625 19.2375 23.5265625 18.5625 21.3890625 18 19.4765625 15.6375 17.4515625 12.825 18.0140625 10.6875 18.4640625 10.2375 18.8015625 8.8875 19.5890625 8.8875 19.5890625 5.9625 19.1390625 4.6125 20.7140625 2.5875 23.1890625 3.6 26.6765625 3.15 30.2765625 2.7 33.4265625 1.0125 34.7765625 1.0125 34.7765625 3.15 36.5765625 6.075 37.7015625 10.2375 38.1515625 10.4625 38.2640625 10.35 38.4890625 10.0125 38.6015625Z"/><path d="M36.675,29.9390625 C35.8875,28.4765625 33.75,28.4765625 32.9625,29.9390625 L15.8625,59.4140625 C15.075,60.8765625 16.0875,62.6765625 17.775,62.6765625 L52.2,62.6765625 C53.8875,62.6765625 54.9,60.8765625 54,59.4140625 L36.675,29.9390625 Z M21.4875,58.4015625 L34.875,35.3390625 L48.4875,58.4015625 L21.4875,58.4015625 Z"/><path d="M34.875,52.4390625 C33.75,52.4390625 33.1875,53.2265625 33.1875,54.2390625 C33.1875,55.3640625 33.75,55.9265625 34.875,55.9265625 C36,55.9265625 36.5625,55.1390625 36.5625,54.2390625 C36.45,53.1140625 35.8875,52.4390625 34.875,52.4390625 Z"/><polygon points="33.525 50.977 36.112 50.864 36.112 48.277 36.45 41.864 33.525 42.089"/></g></g></g></svg>