<svg xmlns="http://www.w3.org/2000/svg" width="121" height="121" viewBox="0 0 121 121"><g fill="none" fill-rule="evenodd" transform="translate(11 1)"><path fill="#000" d="M49.4394392,0.0318675407 C22.3057387,1.05655877 0,24.0129849 0,51.0632884 C0,74.1581311 15.7531577,94.1840908 37.6796234,100.284188 L39.123,100.664864 L42.9875735,113.982705 L43.1785408,114.537893 C46.0893205,121.820521 56.3606795,121.820521 59.2714592,114.537893 L59.414029,114.18119 L62.886,100.712864 L63.516,100.496864 L63.2562825,100.567939 C85.9193193,94.8977587 102,74.3341875 102,50.6129372 C102,22.1810388 78.2198674,-0.978760095 49.4394392,0.0318675407 Z M49.65,6.02817175 C75.3,5.12746941 96,25.8436231 96,50.6129372 C96,71.7794421 81.6,89.7934887 61.8,94.7473516 L60.7909333,95.0889513 C58.9125333,95.7454632 57.8597333,96.3059002 57.4021333,97.9231613 L57.3,98.3501609 L53.7,112.311047 C52.8473684,114.444289 49.9753463,114.556565 48.9101473,112.647875 L48.75,112.311047 L44.7,98.3501609 C44.3210526,96.4539455 43.9421053,95.8351804 41.6820674,95.1491811 L40.742703,94.8861535 C40.5702216,94.8409148 40.3894737,94.7947569 40.2,94.7473516 C20.85,89.7934887 6,72.2297932 6,51.0632884 C6,27.1946766 25.8,6.92887408 49.65,6.02817175 Z"/><path fill="#FFF329" d="M49.65,6.02817175 C75.3,5.12746941 96,25.8436231 96,50.6129372 C96,71.7794421 81.6,89.7934887 61.8,94.7473516 L60.7909333,95.0889513 C58.9125333,95.7454632 57.8597333,96.3059002 57.4021333,97.9231613 L57.3,98.3501609 L53.7,112.311047 C52.8473684,114.444289 49.9753463,114.556565 48.9101473,112.647875 L48.75,112.311047 L44.7,98.3501609 C44.3210526,96.4539455 43.9421053,95.8351804 41.6820674,95.1491811 L40.742703,94.8861535 C40.5702216,94.8409148 40.3894737,94.7947569 40.2,94.7473516 C20.85,89.7934887 6,72.2297932 6,51.0632884 C6,27.1946766 25.8,6.92887408 49.65,6.02817175 Z"/><g transform="translate(15 18)"><rect width="72" height="72"/><g fill="#000" fill-rule="nonzero" transform="translate(5.625 9)"><path d="M8.99999684,20.3119875 C8.99775,25.5472875 10.197,31.7966625 11.1247875,36.24975 C12.5719875,37.336275 14.9443875,39.2482125 16.923375,39.2482125 C19.0675125,39.2482125 21.6963,37.0195875 23.6739375,35.5359375 C25.772175,37.1111625 28.3159125,39.2482125 30.423375,39.2482125 C32.5675125,39.2482125 35.1963,37.0195875 37.1739375,35.5359375 C39.272175,37.1111625 41.8159125,39.2482125 43.923375,39.2482125 C45.887625,39.2482125 48.23685,37.3642875 49.6053,36.3376125 C50.5369125,31.8871125 51.74775,25.6113 51.75,20.3299875 C51.75,20.3299875 48.68415,19.002375 44.9999968,17.604 L44.9999968,7.875 C44.9999968,7.2536625 44.4963375,6.75 43.875,6.75 L40.4999968,6.75 L40.4999968,1.125 C40.4999968,0.5036625 39.9963375,0 39.375,0 L21.375,0 C20.7536625,0 20.25,0.5036625 20.25,1.125 L20.25,6.75 L16.875,6.75 C16.2536625,6.75 15.75,7.2536625 15.75,7.875 L15.75,15.58125 C18.8881875,14.3881875 21.4970625,13.6927125 24.9143625,13.2132375 C31.334625,12.31245 36.227925,13.2337125 39.1354875,15.0157125 C39.514725,15.24825 39.62475,15.522975 39.59505,15.7861125 C36.6368625,14.984775 33.434325,14.6547 30.3805125,14.6534625 C20.647125,14.6491875 8.99999684,20.3119875 8.99999684,20.3119875 Z M25.875,29.25 L16.875,29.25 L16.875,24.75 C16.875,24.1286625 17.3786625,23.625 18,23.625 C18.6213375,23.625 19.125,24.1286625 19.125,24.75 L19.125,27 L23.625,27 L23.625,24.75 C23.625,24.1286625 24.1286625,23.625 24.75,23.625 C25.3713375,23.625 25.875,24.1286625 25.875,24.75 L25.875,29.25 Z M34.875,24.75 C34.875,24.1286625 35.3786625,23.625 36,23.625 C36.6213375,23.625 37.125,24.1286625 37.125,24.75 L37.125,27 L41.625,27 L41.625,24.75 C41.625,24.1286625 42.1286625,23.625 42.75,23.625 C43.3713375,23.625 43.875,24.1286625 43.875,24.75 L43.875,29.25 L34.875,29.25 L34.875,24.75 Z"/><path d="M57.423375,41.72625 C54.6541875,41.72625 51.8929875,39.5474625 50.673375,38.6325 C49.5482625,39.4765875 46.752975,41.72625 43.923375,41.72625 C41.1541875,41.72625 38.3929875,39.5474625 37.173375,38.6325 C36.0482625,39.4765875 33.252975,41.72625 30.423375,41.72625 C27.6541875,41.72625 24.8929875,39.5474625 23.673375,38.6325 C22.5482625,39.4765875 19.752975,41.72625 16.923375,41.72625 C14.1541875,41.72625 11.3929875,39.5474625 10.173375,38.6325 C9.0482625,39.4765875 6.252975,41.72625 3.423375,41.72625 C2.277675,41.72625 1.0332,41.2882875 0,40.7955375 L0,45.541125 C1.0605375,45.8838 2.2262625,46.125 3.423375,46.125 C6.12,46.125 8.6693625,44.914275 10.173375,44.0287875 C11.6773875,44.914275 14.22675,46.125 16.923375,46.125 C19.62,46.125 22.1693625,44.914275 23.673375,44.0287875 C25.1773875,44.914275 27.72675,46.125 30.423375,46.125 C33.12,46.125 35.6693625,44.914275 37.173375,44.0287875 C38.6773875,44.914275 41.22675,46.125 43.923375,46.125 C46.62,46.125 49.1693625,44.914275 50.673375,44.0287875 C52.1773875,44.914275 54.72675,46.125 57.423375,46.125 C58.5846,46.125 59.715225,45.8971875 60.75,45.570825 L60.75,40.8423375 C59.7376125,41.314275 58.5300375,41.72625 57.423375,41.72625 Z"/></g></g></g></svg>