<svg xmlns="http://www.w3.org/2000/svg" width="121" height="121" viewBox="0 0 121 121"><g fill="none" fill-rule="evenodd" transform="translate(11 1)"><path fill="#000" d="M49.4394392,0.0318675407 C22.3057387,1.05655877 0,24.0129849 0,51.0632884 C0,74.1581311 15.7531577,94.1840908 37.6796234,100.284188 L39.123,100.664864 L42.9875735,113.982705 L43.1785408,114.537893 C46.0893205,121.820521 56.3606795,121.820521 59.2714592,114.537893 L59.414029,114.18119 L62.886,100.712864 L63.516,100.496864 L63.2562825,100.567939 C85.9193193,94.8977587 102,74.3341875 102,50.6129372 C102,22.1810388 78.2198674,-0.978760095 49.4394392,0.0318675407 Z M49.65,6.02817175 C75.3,5.12746941 96,25.8436231 96,50.6129372 C96,71.7794421 81.6,89.7934887 61.8,94.7473516 L60.7909333,95.0889513 C58.9125333,95.7454632 57.8597333,96.3059002 57.4021333,97.9231613 L57.3,98.3501609 L53.7,112.311047 C52.8473684,114.444289 49.9753463,114.556565 48.9101473,112.647875 L48.75,112.311047 L44.7,98.3501609 C44.3210526,96.4539455 43.9421053,95.8351804 41.6820674,95.1491811 L40.742703,94.8861535 C40.5702216,94.8409148 40.3894737,94.7947569 40.2,94.7473516 C20.85,89.7934887 6,72.2297932 6,51.0632884 C6,27.1946766 25.8,6.92887408 49.65,6.02817175 Z"/><path fill="#FFF329" d="M49.65,6.02817175 C75.3,5.12746941 96,25.8436231 96,50.6129372 C96,71.7794421 81.6,89.7934887 61.8,94.7473516 L60.7909333,95.0889513 C58.9125333,95.7454632 57.8597333,96.3059002 57.4021333,97.9231613 L57.3,98.3501609 L53.7,112.311047 C52.8473684,114.444289 49.9753463,114.556565 48.9101473,112.647875 L48.75,112.311047 L44.7,98.3501609 C44.3210526,96.4539455 43.9421053,95.8351804 41.6820674,95.1491811 L40.742703,94.8861535 C40.5702216,94.8409148 40.3894737,94.7947569 40.2,94.7473516 C20.85,89.7934887 6,72.2297932 6,51.0632884 C6,27.1946766 25.8,6.92887408 49.65,6.02817175 Z"/><g transform="translate(15 18)"><rect width="72" height="72"/><g fill="#000" fill-rule="nonzero" transform="translate(5.625 12.375)"><path d="M10.173375 19.2789913C10.775475 19.6334788 11.55015 20.0375788 12.429675 20.3976913L13.6274625 16.1052538C12.1521375 15.3929038 10.892025 14.4216913 10.173375 13.8825913 9.0482625 14.7267913 6.252975 16.9763413 3.423375 16.9763413 2.277675 16.9763413 1.0332 16.5383788 0 16.0456288L0 20.7912163C1.0605375 21.1340038 2.2262625 21.3752038 3.423375 21.3752038 6.1198875 21.3752038 8.6693625 20.1644788 10.173375 19.2789913ZM57.423375 16.9764538C54.6541875 16.9764538 51.8929875 14.7976663 50.673375 13.8827038 49.6891125 14.6211538 47.42685 16.4348788 44.98155 16.8776788L44.6446125 18.0852538C44.993475 19.0673788 44.9164125 19.8971788 44.7543 20.4780163L44.5127625 21.3437038C46.9866375 21.1865413 49.27995 20.0994538 50.673375 19.2791038 52.1773875 20.1645913 54.72675 21.3753163 57.423375 21.3753163 58.5846 21.3753163 59.715225 21.1475038 60.75 20.8211413L60.75 16.0926538C59.7376125 16.5644788 58.5300375 16.9764538 57.423375 16.9764538ZM50.673375 34.1327038C49.5482625 34.9769038 46.752975 37.2264538 43.923375 37.2264538 41.1541875 37.2264538 38.3929875 35.0476663 37.173375 34.1327038 36.0482625 34.9769038 33.252975 37.2264538 30.423375 37.2264538 27.6541875 37.2264538 24.8929875 35.0476663 23.673375 34.1327038 22.5482625 34.9769038 19.752975 37.2264538 16.923375 37.2264538 14.1541875 37.2264538 11.3929875 35.0476663 10.173375 34.1327038 9.0482625 34.9769038 6.252975 37.2264538 3.423375 37.2264538 2.277675 37.2264538 1.0332 36.7884913 0 36.2957413L0 41.0413288C1.0605375 41.3840038 2.2262625 41.6252038 3.423375 41.6252038 6.12 41.6252038 8.6693625 40.4144788 10.173375 39.5289913 11.6773875 40.4144788 14.22675 41.6252038 16.923375 41.6252038 19.62 41.6252038 22.1693625 40.4144788 23.673375 39.5289913 25.1773875 40.4144788 27.72675 41.6252038 30.423375 41.6252038 33.12 41.6252038 35.6693625 40.4144788 37.173375 39.5289913 38.6773875 40.4144788 41.22675 41.6252038 43.923375 41.6252038 46.62 41.6252038 49.1693625 40.4144788 50.673375 39.5289913 52.1773875 40.4144788 54.72675 41.6252038 57.423375 41.6252038 58.5846 41.6252038 59.715225 41.3973913 60.75 41.0710288L60.75 36.3425413C59.7376125 36.8144788 58.5300375 37.2263413 57.423375 37.2263413 54.654075 37.2264538 51.8929875 35.0476663 50.673375 34.1327038ZM16.923375 24.6260038C19.0285875 24.6260038 21.5501625 22.5077413 23.6739375 20.9131663 25.6186125 22.3737538 28.2774375 24.6260038 30.423375 24.6260038 32.5285875 24.6260038 35.0501625 22.5077413 37.1739375 20.9131663 38.1796875 21.6686038 39.3769125 22.6310413 40.5950625 23.3888413L40.99185 21.9670663C41.5645875 21.6890788 41.9475375 21.3278413 42.074325 20.8739038 42.1246125 20.6935663 42.320025 19.9930288 42.370425 19.8125788 42.4971 19.3587538 42.356475 18.8512663 42.0105375 18.3168913L43.2730125 13.7924788C39.409425 13.0296163 37.2051 11.6469913 36.68175 11.2858663 36.3934125 11.0867413 36.3416625 10.8826663 36.41985 10.7438413 39.2792625 11.4236788 41.780475 11.7182038 44.0087625 11.1563788L44.0107875 11.1488413C44.583525 10.8708538 44.966475 10.5096163 45.0932625 10.0556788 45.14355 9.8753413 45.3389625 9.1748038 45.3893625 8.9944663 46.0006875 6.8037538 40.6841625 3.4059163 33.5145375 1.4052163 26.3449125-.595371202 20.03715-.441358702 19.425825 1.7493538 19.3755375 1.9296913 19.1800125 2.6302288 19.129725 2.8106788 19.00305 3.2645038 19.1435625 3.7719913 19.4896125 4.3063663L17.4893625 11.4744163C16.916625 11.7524038 16.533675 12.1136413 16.407 12.5675788 16.3567125 12.7479163 16.1611875 13.4484538 16.1109 13.6287913 15.984225 14.0827288 16.1247375 14.5901038 16.4707875 15.1244788L14.47065 22.2925288C13.941 22.5495913 13.5835875 22.8813538 13.4310375 23.2882663 14.4963 23.9727163 15.7816125 24.6260038 16.923375 24.6260038Z"/><path d="M50.673375,24.0077038 C49.5482625,24.8519038 46.752975,27.1014538 43.923375,27.1014538 C41.1541875,27.1014538 38.3929875,24.9226663 37.173375,24.0077038 C36.0482625,24.8519038 33.252975,27.1014538 30.423375,27.1014538 C27.6541875,27.1014538 24.8929875,24.9226663 23.673375,24.0077038 C22.5482625,24.8519038 19.752975,27.1014538 16.923375,27.1014538 C14.1541875,27.1014538 11.3929875,24.9226663 10.173375,24.0077038 C9.0482625,24.8519038 6.252975,27.1014538 3.423375,27.1014538 C2.277675,27.1014538 1.0332,26.6634913 0,26.1707413 L0,30.9163288 C1.0605375,31.2590038 2.2262625,31.5002038 3.423375,31.5002038 C6.12,31.5002038 8.6693625,30.2894788 10.173375,29.4039913 C11.6773875,30.2894788 14.22675,31.5002038 16.923375,31.5002038 C19.62,31.5002038 22.1693625,30.2894788 23.673375,29.4039913 C25.1773875,30.2894788 27.72675,31.5002038 30.423375,31.5002038 C33.12,31.5002038 35.6693625,30.2894788 37.173375,29.4039913 C38.6773875,30.2894788 41.22675,31.5002038 43.923375,31.5002038 C46.62,31.5002038 49.1693625,30.2894788 50.673375,29.4039913 C52.1773875,30.2894788 54.72675,31.5002038 57.423375,31.5002038 C58.5846,31.5002038 59.715225,31.2723913 60.75,30.9460288 L60.75,26.2175413 C59.7376125,26.6894788 58.5300375,27.1013413 57.423375,27.1013413 C54.654075,27.1014538 51.8929875,24.9226663 50.673375,24.0077038 Z"/></g></g></g></svg>