<svg xmlns="http://www.w3.org/2000/svg" width="400" height="400" viewBox="0 0 400 400">
  <rect
     x="17.2"
     y="16.6"
     width="372"
     height="372.7"
     fill="#fff"
     id="rect1" />
  <path
     d="m 242.11807,115.26346 c 0,2.20523 1.15607,4.23227 3.01722,5.3426 1.86307,1.0948 4.15798,1.0948 6.02124,0 l 68.47454,-40.522801 42.10904,74.769441 -68.47453,40.5228 c -1.86307,1.0948 -3.00382,3.13749 -3.00382,5.34262 0,2.20524 1.14075,4.23227 3.00382,5.3426 l 68.47453,40.52281 -42.10904,74.76944 -68.47454,-40.5228 c -1.86306,-1.09479 -4.15797,-1.09479 -6.02124,0 -1.86326,1.0948 -3.01722,3.13748 -3.01722,5.34261 v 81.05161 h -84.21614 v -81.05161 c 0,-2.20522 -1.15607,-4.23228 -3.01722,-5.34261 -1.86307,-1.09479 -4.15798,-1.09479 -6.02124,0 l -68.474534,40.5228 -42.109049,-74.76944 68.474533,-40.52281 c 1.86307,-1.09479 3.00382,-3.13748 3.00382,-5.3426 0,-2.20523 -1.14075,-4.23228 -3.00382,-5.34262 L 38.279887,154.8527 80.388936,80.083259 148.86347,120.60606 c 1.86306,1.0948 4.15797,1.0948 6.02124,0 1.86306,-1.09478 3.01722,-3.13747 3.01722,-5.3426 V 34.211834 h 84.21614 z"
     fill-rule="evenodd"
     id="path2"
     style="display:inline;fill:#1100d9;fill-opacity:1;stroke-width:0.495234" />
  <g
     id="g7"
     transform="matrix(0.35330328,0,0,0.39027652,-11.630311,-34.521777)"
     style="fill:#ffffff;fill-opacity:1">
    <path
       d="m 575.16,355.51 1.0742,31.051 c 17.973,0.64844 37.168,1.9805 55.938,4.8359 l 1.2383,-35.891 c 13.941,-9.3867 23.109,-25.301 23.109,-43.355 0.004,-28.832 -23.402,-52.223 -52.242,-52.223 -28.824,0 -52.234,23.391 -52.234,52.227 0.008,18.062 9.1836,33.973 23.117,43.355 z"
       id="path1"
       style="fill:#ffffff;fill-opacity:1" />
    <path
       d="m 571.06,397.58 c -8.8438,-5.1914 -23.23,-5.9531 -48.02,3.0156 -31.008,11.238 -49.031,39.918 -43.41,55.426 1.2383,3.4219 4.7695,5.8555 9.9219,7.293 -6.4688,2.2812 -14.176,4.4648 -21.832,5.375 -1.2227,0.14453 -1.2461,0.39453 -0.0312,0.61328 l 10.965,1.9062 -11.449,6.7695 c -1.0664,0.62109 -0.92969,0.98438 0.28125,0.72656 12.371,-2.5547 24.008,-8.957 31.734,-13.98 11.82,0.57422 27.629,-2.0117 44.148,-7.9961 13.746,-4.9805 24.305,-10.828 31.316,-17.141 116.94,4.6836 117.04,34.301 117.04,47.566 0,23.934 -17.238,35.094 -53.234,45.734 l -1.5117,43.883 c 47.109,-12.426 96.52,-31.754 96.52,-89.613 0.0117,-71.008 -77.91,-86.992 -162.44,-89.578 z m -51.062,35.762 c -5.5234,2.7734 -11.191,2.6445 -12.68,-0.30078 -1.4727,-2.9492 1.7852,-7.5781 7.3164,-10.359 5.5312,-2.7809 11.199,-2.6445 12.688,0.30078 1.4844,2.9453 -1.7852,7.5781 -7.3242,10.359 z"
       id="path3"
       style="fill:#ffffff;fill-opacity:1" />
    <path
       d="m 622.43,674.1 7.5117,-218.01 c -13.332,-2.3281 -30.121,-4.1406 -51.418,-5.1328 -0.0234,0.0156 -0.0547,0.0312 -0.0664,0.0469 l 7.4453,216.13 c 4.6992,0.96094 9.9531,1.957 16.059,3.0547 6.4727,1.1562 13.375,2.4102 20.469,3.9062 z"
       id="path4"
       style="fill:#ffffff;fill-opacity:1" />
    <path
       d="m 588.18,732.91 6.832,198.21 h 0.0469 c 0.14844,4.9727 4.207,8.957 9.2227,8.957 5.0195,0 9.0742,-3.9844 9.2422,-8.9609 h 0.0469 l 6.6055,-191.63 c -7.5039,-1.9062 -17.051,-3.8906 -29.547,-6.1367 -0.77344,-0.13281 -1.6484,-0.29688 -2.4492,-0.43359 z"
       id="path5"
       style="fill:#ffffff;fill-opacity:1" />
    <path
       d="m 556.62,830.67 c -10.293,6.9062 -20.051,15.07 -28.719,24.207 -8.3945,9.418 -15.832,19.543 -21.621,30.273 -3,5.2812 -5.3203,10.844 -7.8359,16.156 -1.125,3.1367 -2.3438,6.2031 -3.4844,9.2812 -1.4375,3.8711 0.34766,8.0938 3.7617,9.3789 3.4141,1.3008 7.5273,-0.73438 9.3945,-4.3984 1.3008,-2.5547 2.6445,-5.1016 3.9062,-7.6992 2.8633,-4.5703 5.5,-9.3711 8.707,-13.77 6.2109,-8.9609 13.699,-16.996 21.734,-24.242 8.3281,-6.9766 17.344,-12.93 26.805,-17.871 3.8008,-1.9805 7.6992,-3.7266 11.629,-5.3867 l -1.0117,-29.262 c -7.7734,3.8711 -15.656,8.1953 -23.266,13.332 z"
       id="path6"
       style="fill:#ffffff;fill-opacity:1" />
    <path
       d="m 599.99,681.21 c -47.465,-8.5312 -70.16,-15.363 -71.801,-40.742 0.21875,-23.57 14.539,-35.789 44.004,-46.105 l -1.4961,-43.484 c -43.484,13.254 -84.293,35.215 -84.293,90.172 l 0.0312,1.0977 c 3.2422,61.711 62.73,72.398 106.17,80.188 49.055,8.8125 65.371,15.258 65.371,36.055 0,0 0,0.99609 0.008,2.8555 -0.0156,0.92188 0.12109,2.1445 0.0586,3.4375 -0.1875,1.1641 -0.36328,2.5391 -0.47656,4.1094 -0.34766,1.4219 -0.78516,2.8633 -1.2461,4.5273 -0.83984,1.4062 -1.2617,3.2031 -2.6602,4.7852 -2.3438,3.3633 -6.2734,7.3008 -12.711,11.07 -3.3477,2.0625 -7.2539,4.0898 -11.496,6.0977 l -1.2227,35.602 c 9.9375,-2.9922 19.715,-6.1953 29.117,-10.496 9.25,-4.1055 18.324,-10.188 25.18,-17.684 3.6211,-3.5586 6.1367,-7.8281 8.5859,-11.66 2.0312,-3.9375 3.6875,-7.8008 4.8984,-11.238 0.94531,-3.4219 1.7305,-6.5312 2.3672,-9.25 0.47656,-2.6445 0.62109,-4.8125 0.83984,-6.6289 0.36328,-3.6055 0.54297,-5.5156 0.54297,-5.5156 -0.0117,-59.281 -57.684,-69.641 -99.773,-77.191 z"
       id="path7"
       style="fill:#ffffff;fill-opacity:1" />
  </g>
  <rect
     x="9"
     y="9"
     width="381.3"
     height="381.3"
     fill="none"
     stroke="#000"
     stroke-width="17.8"
     id="rect2" />
</svg>
