<svg xmlns="http://www.w3.org/2000/svg" width="400" height="400" viewBox="0 0 400 400">
  <rect x="17.2" y="16.6" width="372" height="372.7" fill="#fff"/>
  <path d="M215.5 291.8c32.4-31.4 81.7-82 82.1-115.8-.2-23-10.5-44-27.7-56.3-24.1-17.1-31.9-12.8-67.9-1.1-8.8 2.9-23.7 6.3-30.8 1.6-2.3 4.3-6.6 8.2-14.1 11l.1.1h-.2c-6.5 2.3-15.3 3.7-27.2 3.7v-6.5c3.3 0 16.2-1.8 25.7-3.6 6.3-2.4 10.9-6.2 11.6-12.3-3.8-20 10-30.3 20.4-34.3 55.2-21.3 81.4-11.8 106.4 6 28.2 20.1 45.2 53.8 45.7 90.6 0 .8 0 1.5 0 2.3-.5 28.1-13.2 54.2-35.9 73.7-22.1 19-44.4 42-71.5 57.3-68.7 38.6-79.1 44.2-16.4-16.4zM253.5 146.9c0 38.6-42.2 70-94.3 70s-94.3-31.4-94.3-70" fill="#000"/>
  <rect x="9" y="9" width="381.3" height="381.3" fill="none" stroke="#000" stroke-width="17.8"/>
</svg>
