<svg xmlns="http://www.w3.org/2000/svg" width="400" height="400" viewBox="0 0 400 400">
  <rect
     id="witvierkant"
     x="17.2"
     y="16.6"
     width="372"
     height="372.7"
     fill="#fff" />
       <rect
     style="fill:none;stroke:#FCDD01;stroke-width:25;stroke-dasharray:none;stroke-opacity:1"
     id="geelvierkant"
     width="345.95642"
     height="346.43488"
     x="27.294518"
     y="26.816048" />
  <path
     d="m 174.79837,71.910005 c -0.24225,-14.016381 -10.12263,-25.903401 -23.63696,-28.457328 -13.5143,-2.539465 -26.92146,4.970209 -32.06372,17.969107 -5.12811,13.000761 -0.57889,27.894177 10.89053,35.623387 11.46918,7.714799 26.67933,6.136039 36.38701,-3.789217 5.49155,-5.684023 8.52163,-13.371389 8.42679,-21.34567 z m -44.3952,85.002275 c -32.778274,13.39836 -56.470389,43.09126 -62.685598,78.55235 -6.205634,35.45831 5.949364,71.68391 32.170888,95.83277 26.20921,24.14698 62.76767,32.79508 96.73017,22.91187 33.96249,-9.8981 60.5333,-36.94221 70.28247,-71.563 l -23.22016,-55.66838 h -0.0676 c 6.7706,19.69994 5.82807,41.293 -2.6113,60.29075 -8.43955,19.01355 -23.73134,33.9758 -42.69981,41.78872 -18.98079,7.7985 -40.16676,7.85291 -59.18812,0.13805 -19.00771,-7.7148 -34.37974,-22.59566 -42.899089,-41.56736 -8.533944,-18.95729 -9.570421,-40.55175 -2.894522,-60.2768 6.675902,-19.72505 20.541201,-36.0633 38.725811,-45.62891 l -1.62804,-24.80639 z m 7.02688,-6.4104 -2.80008,-42.62437 c 3.48585,1.08445 7.10714,1.63303 10.75509,1.63303 4.22685,0.0146 8.41265,-0.69935 12.41172,-2.08717 l 1.89881,32.08128 c 0.10687,2.00361 1.73671,3.56946 3.7014,3.56946 h 59.00117 v 23.70706 h -56.76679 c -2.0591,0 -3.72812,1.70209 -3.72812,3.78923 0,0.16531 0.0142,0.32879 0.0267,0.4814 l 1.31988,21.08618 c 0.13538,2.00361 1.74915,3.5549 3.71563,3.56946 h 97.17705 l 38.16129,92.89843 c 0.76772,1.88011 2.88025,2.81379 4.75237,2.08718 l 24.57903,-9.55491 8.41265,21.95066 -48.73216,18.69734 -41.77003,-100.0738 c -0.57888,-1.40052 -1.92554,-2.30694 -3.41997,-2.30694 H 141.96281 l -2.27465,-34.85517 c 0.0802,-0.57585 0.0534,-1.16619 -0.12111,-1.71661 l -2.03237,-30.70805 h 0.0142 c 0.0676,-0.54858 0.0268,-1.099 -0.12113,-1.62033 z"
     fill-rule="evenodd"
     id="rolstoel"
     style="stroke-width:0.460489" />
  <rect
     style="fill:none;stroke:#000000;stroke-width:18.0421;stroke-dasharray:none;stroke-opacity:1"
     id="outline"
     width="382.00928"
     height="382.32507"
     x="9.0210304"
     y="9.0210304" />
</svg>
