<svg xmlns="http://www.w3.org/2000/svg" width="400" height="400" viewBox="0 0 400 400">
  <rect x="17.2" y="16.6" width="372" height="372.7" fill="#fff"/>
  <path
     d="m 170.94781,68.873638 c -0.25072,-14.824739 -10.47626,-27.397312 -24.4627,-30.09853 -13.98642,-2.685923 -27.86195,5.256852 -33.18385,19.005428 -5.30726,13.750547 -0.59911,29.502902 11.27098,37.677874 11.86985,8.15973 27.61136,6.48992 37.65817,-4.00775 5.68339,-6.011835 8.81933,-14.142549 8.72117,-22.576727 z M 125.00169,158.7782 c -33.92336,14.17108 -58.443144,45.57644 -64.875477,83.08266 -6.422423,37.50327 6.157201,75.81809 33.294757,101.35967 27.12481,25.5396 64.96042,34.68646 100.10937,24.23326 35.14895,-10.46895 62.648,-39.07276 72.73775,-75.69021 l -24.03135,-58.87891 h -0.07 c 7.00713,20.83608 6.03167,43.67446 -2.70252,63.76786 -8.73438,20.11011 -24.56038,35.93526 -44.1915,44.19877 -19.64387,8.24826 -41.56996,8.30581 -61.25582,0.14602 -19.67173,-8.15973 -35.58077,-23.89881 -44.39774,-43.96465 -8.832071,-20.05061 -9.904757,-42.89047 -2.99564,-63.75311 6.90912,-20.86264 21.25879,-38.14316 40.07867,-48.26044 l -1.68491,-26.23704 z m 7.27236,-6.7801 -2.8979,-45.08262 c 3.60763,1.14699 7.35542,1.72721 11.13081,1.72721 4.37451,0.0154 8.70654,-0.73968 12.84532,-2.20754 l 1.96514,33.93148 c 0.11061,2.11917 1.79738,3.77532 3.83071,3.77532 h 61.06233 v 25.07431 h -58.7499 c -2.13103,0 -3.85836,1.80025 -3.85836,4.00776 0,0.17484 0.0147,0.34775 0.0276,0.50916 l 1.36599,22.30227 c 0.1401,2.11917 1.81025,3.75992 3.84543,3.77532 h 100.57186 l 39.49443,98.25611 c 0.79454,1.98854 2.98087,2.97607 4.9184,2.20755 l 25.43768,-10.10596 8.70654,23.21661 -50.43459,19.77566 -43.22924,-105.8453 c -0.5991,-1.48129 -1.9928,-2.43999 -3.53944,-2.43999 h -107.8017 l -2.35411,-36.86535 c 0.083,-0.60906 0.0553,-1.23345 -0.12535,-1.81561 l -2.10336,-32.47906 h 0.0147 c 0.07,-0.58022 0.0277,-1.16238 -0.12536,-1.71378 z"
     fill-rule="evenodd"
     id="path1"
     style="stroke-width:0.481783" />
  <rect
     style="fill:none;stroke:#ffff00;stroke-width:17.7979;stroke-dasharray:none;stroke-opacity:1"
     id="rect2"
     width="381.27621"
     height="381.27621"
     x="9"
     y="9" />
</svg>
