<svg xmlns="http://www.w3.org/2000/svg" width="400" height="400" viewBox="0 0 400 400">
  <rect x="17.2" y="16.6" width="372" height="372.7" fill="#fff"/>
  <path
     d="m 82.5906,171.66981 c 4.811014,11.16102 7.528018,21.89211 10.154196,32.26375 7.103563,28.06324 12.926214,51.06256 56.219964,51.06256 5.80305,0 12.32122,-0.43993 19.56409,-1.30576 -2.96439,6.83196 -4.73834,14.41732 -5.33183,22.72418 -2.32202,-0.24507 -4.64797,-0.31538 -6.90491,-0.12857 -4.96031,0.42387 -11.1424,3.13176 -17.12447,5.7474 -4.5576,1.99276 -15.22099,6.62934 -16.46418,4.65648 -5.87948,-9.34311 -10.58467,-15.31111 -15.8476,-16.21724 -2.32594,-0.4118 -4.58706,0.21696 -6.54785,1.7919 -4.883678,3.90113 -3.02136,12.61123 -0.870273,22.6959 0.923283,4.32905 1.881983,8.80261 2.184523,12.51096 0.43612,5.35551 3.0096,10.09649 6.88932,12.68579 2.74436,1.82604 5.76181,2.30415 8.51824,1.33389 0.9508,-0.32945 2.17467,-1.7256 3.59498,-2.2539 6.51416,-2.41261 18.5623,-7.82655 24.42619,-7.82655 h 0.15519 c 1.59321,0 3.11565,2.69787 6.141,6.30793 4.57529,5.46815 11.49243,14.20031 26.25325,22.51283 5.10753,2.87668 11.00712,4.45762 17.37594,4.45762 27.36718,0 63.53223,-24.77918 83.77423,-60.73429 25.6382,-45.52807 33.81244,-81.69043 25.00001,-110.66906 -0.45184,-1.48452 -0.4754,-3.03132 -0.0766,-4.53194 6.81489,-25.47188 0.43414,-54.47057 -16.26603,-73.899373 -14.89056,-17.325984 -36.40191,-24.961739 -60.56005,-21.518759 -19.21456,2.732015 -37.5767,17.434493 -45.69362,36.574792 -8.15262,19.23081 -5.45754,40.23891 7.58686,59.1555 22.16914,32.13517 43.75491,29.3813 54.02729,25.35155 -0.69935,1.97466 -1.83481,4.06184 -3.71679,6.13308 -3.21583,3.53355 -9.35657,7.33028 -11.66291,6.57072 -1.55785,-0.52028 -6.96979,-4.07593 -11.3134,-6.93224 -10.42174,-6.84791 -17.57056,-11.3842 -21.82716,-12.05892 -8.10737,-1.25953 -17.72546,1.46445 -19.75067,10.52436 -1.39476,6.24571 3.31406,13.04321 8.48253,15.75954 3.89165,2.04502 7.82071,1.58094 9.97567,-1.07269 0.0453,-0.008 0.0982,-0.012 0.1552,-0.012 1.70319,0 6.09169,3.43512 9.2057,7.52108 -13.03635,6.08679 -22.86466,14.32475 -29.43967,24.64238 -0.0766,0.008 -0.14734,-0.0242 -0.22395,-0.012 -59.52407,8.47503 -64.49781,-11.06074 -72.695193,-43.46127 -2.577402,-10.17054 -5.494764,-21.70131 -10.550992,-33.427 -6.651948,-15.42167 -11.433066,-6.96783 -6.816225,3.07737 z"
     id="path1"
     style="stroke-width:0.508553"/>
  <rect
     x="9"
     y="9"
     width="381.3"
     height="381.3"
     fill="none"
     stroke="#000"
     stroke-width="17.8"
     id="rect2" />
</svg>
