<svg xmlns="http://www.w3.org/2000/svg" width="400" height="400" viewBox="0 0 400 400">
  <rect
     x="17.2"
     y="16.6"
     width="372"
     height="372.7"
     fill="#fff"
     id="rect1" />
  <path
     d="m 182.10198,135.44208 c 11.86107,1.3524 20.41576,12.39385 19.10739,24.66216 -1.30748,12.26858 -11.98217,21.11718 -23.84298,19.76498 -11.86106,-1.35349 -20.41575,-12.39497 -19.10847,-24.66327 1.30854,-12.26858 11.98325,-21.11718 23.84406,-19.76387 z"
     id="path2"
     style="stroke-width:0.274305" />
  <path
     d="m 271.63247,301.38894 -8.35672,-68.30759 c -0.40772,-2.74073 -2.64969,-4.84946 -5.29927,-4.84946 h -27.10864 c 0,-0.21033 0.20334,-0.63205 0.20334,-0.84346 0.81544,-5.48135 -2.853,-10.54116 -8.15335,-11.38478 -3.46525,-0.63205 -14.26717,-2.53041 -19.56671,-5.05982 -2.64969,-1.26521 -5.91045,-4.42765 -9.78322,-8.2223 -5.09619,-5.05981 -11.41417,-11.59485 -20.38205,-16.65578 -6.52268,-3.79464 -14.47159,-4.00583 -20.99428,-0.42173 -6.52269,3.37284 -11.00663,8.85418 -12.43313,17.91983 -2.03863,12.01667 -6.31824,44.69496 -6.31824,44.69496 0,0.63204 -0.20334,1.26521 -0.20334,1.89726 l 0.61105,27.61988 -9.58012,43.43118 c -1.2232,5.90316 2.24197,12.01667 8.15336,13.28183 0.81439,0.21141 1.42653,0.21141 2.24197,0.21141 4.89174,0 9.37568,-3.5843 10.39546,-8.64383 l 9.78322,-44.69496 c 0.20333,-0.84346 0.20333,-1.68694 0.20333,-2.74072 l -0.40772,-20.23897 8.96788,25.50997 0.61106,40.05834 c 0.20334,6.11352 4.89175,10.96298 10.80327,10.96298 h 0.20334 c 5.91044,-0.21033 10.59882,-5.27128 10.59882,-11.38479 L 185.00634,281.573 c 0,-1.26522 -0.20334,-2.53041 -0.61106,-3.5843 l -9.37569,-26.56395 6.52269,-32.46738 c 4.28058,4.21619 8.35672,8.01195 13.65627,10.54116 4.68838,2.10868 11.00662,3.79465 15.8981,4.84946 l -11.61753,94.66258 c -0.40772,2.95103 1.63092,5.6917 4.48395,6.11351 h 0.61105 c 2.64969,0 4.89175,-2.10868 5.29928,-4.84946 l 6.11489,-49.54358 h 42.19085 l 2.6497,21.92595 c -5.70709,2.74072 -9.58014,8.64383 -9.58014,15.60096 0,9.48746 7.54139,17.28795 16.71371,17.28795 9.17233,0 16.71371,-7.80049 16.71371,-17.28795 0.40772,-8.22229 -5.29928,-15.17915 -13.04402,-16.86613 z m -53.81,-31.41284 3.66861,-30.57033 h 32.00118 l 3.66861,30.57033 z m 50.5465,54.81346 c -3.46524,0 -6.11489,-2.95102 -6.11489,-6.32497 0,-3.5843 2.853,-6.32497 6.11489,-6.32497 3.46525,0 6.11488,2.95102 6.11488,6.32497 0.20439,3.5843 -2.64969,6.32497 -6.11488,6.32497 z"
     id="path3"
     style="stroke-width:0.274305" />
  <path
     d="m 78.633147,162.73904 -0.143341,177.25637 h 25.897514 l 0.1826,-196.33059 94.23073,-69.317845 94.65886,69.619575 0.13823,196.02886 h 25.90799 l -0.18089,-177.01587 26.16705,19.26443 15.33947,-20.88894 L 198.8043,42.173995 36.794703,161.35503 52.127625,182.24397 Z"
     id="path4"
     style="stroke-width:0.437071" />
  <rect
     x="9"
     y="9"
     width="381.3"
     height="381.3"
     fill="none"
     stroke="#000"
     stroke-width="17.8"
     id="rect6" />
</svg>
