<svg xmlns="http://www.w3.org/2000/svg" width="121" height="121" viewBox="0 0 121 121"><g fill="none" fill-rule="evenodd" transform="translate(13 7)"><path fill="#FFF" fill-rule="nonzero" d="M83,0 C90.1637085,0 96,5.8362915 96,13 L96,83 C96,90.1637085 90.1637085,96 83,96 L60.011,96 L48,108.012641 L35.988,96 L13,96 C5.93863019,96 0.167022087,90.3292686 0.00356009429,83.3061902 L0,83 L0,13 C0,5.8362915 5.8362915,0 13,0 Z"/><path fill="#182866" d="M83,6 C86.85,6 90,9.15 90,13 L90,83 C90,86.85 86.85,90 83,90 L57.522,90 L48,99.5226407 L38.478,90 L13,90 C9.15,90 6,86.85 6,83 L6,13 C6,9.15 9.15,6 13,6 L83,6 Z"/><g transform="translate(21 18)"><path fill="#FFF" fill-rule="nonzero" d="M45.4902724,0 L8.50972763,0 C3.80993483,0 0,3.72584951 0,8.32191781 L0,51.6780822 C0,56.2741505 3.80993483,60 8.50972763,60 L45.4902724,60 C50.1900652,60 54,56.2741505 54,51.6780822 L54,8.32191781 C54,3.72584951 50.1900652,0 45.4902724,0 Z M45.4902724,5.54794521 C47.05687,5.54794521 48.3268482,6.78989504 48.3268482,8.32191781 L48.3268482,51.6780822 C48.3268482,53.210105 47.05687,54.4520548 45.4902724,54.4520548 L8.50972763,54.4520548 C6.94313003,54.4520548 5.67315175,53.210105 5.67315175,51.6780822 L5.67315175,8.32191781 C5.67315175,6.78989504 6.94313003,5.54794521 8.50972763,5.54794521 L45.4902724,5.54794521 Z"/><polygon fill="#FFF" fill-rule="nonzero" points="30 3 30 57 24 57 24 3"/><polygon fill="#FFF" fill-rule="nonzero" points="18 3 18 57 12 57 12 3"/><polygon fill="#FFF" fill-rule="nonzero" points="42 3 42 57 36 57 36 3"/><rect width="12" height="12" x="33" y="24" fill="#FFF" rx="2"/><circle cx="39" cy="30" r="3" fill="#182866"/></g></g></svg>