<svg xmlns="http://www.w3.org/2000/svg" width="121" height="121" viewBox="0 0 121 121"><g fill="none" fill-rule="evenodd" transform="translate(13 7)"><path fill="#FFF" fill-rule="nonzero" d="M82.9902865,0 C90.1531567,0 95.9887651,5.83560848 95.9887651,12.9984786 L95.9887651,82.9902865 C95.9887651,90.1531567 90.1531567,95.9887651 82.9902865,95.9887651 L60.005,95.988 L47.9943826,108 L35.982,95.988 L12.9984786,95.9887651 C5.9379352,95.9887651 0.167002541,90.3186974 0.00355967765,83.2964409 L0,82.9902865 L0,12.9984786 C0,5.83560848 5.83560848,0 12.9984786,0 Z"/><path fill="#E17000" d="M82.9902865,5.99929782 C86.839836,5.99929782 89.9894673,9.14892918 89.9894673,12.9984786 L89.9894673,82.9902865 C89.9894673,86.839836 86.839836,89.9894673 82.9902865,89.9894673 L57.5152978,89.9892978 L47.9943826,99.5109936 L38.4732978,89.9892978 L12.9984786,89.9894673 C9.14892918,89.9894673 5.99929782,86.839836 5.99929782,82.9902865 L5.99929782,12.9984786 C5.99929782,9.14892918 9.14892918,5.99929782 12.9984786,5.99929782 L82.9902865,5.99929782 Z"/><path fill="#FFF" fill-rule="nonzero" d="M43.4949094,50.9940317 C44.3948041,50.9940317 44.9947339,51.5939615 44.9947339,52.4938562 L44.9947339,53.9936806 L56.9933295,53.9936806 L59.9929785,59.9929785 L40.4952605,59.9929785 C39.5953658,59.9929785 38.995436,59.3930487 38.995436,58.493154 L38.995436,56.9933295 L26.9968403,56.9933295 L26.9968403,58.493154 C26.9968403,59.3930487 26.3969105,59.9929785 25.4970158,59.9929785 L5.99929785,59.9929785 L8.99894677,53.9936806 L20.9975425,53.9936806 L20.9975425,52.4938562 C20.9975425,51.5939615 21.5974722,50.9940317 22.4973669,50.9940317 Z M13.798385,15.5981744 L16.798034,16.798034 L14.9982446,20.9975425 L11.9985957,20.9975425 L17.9978935,26.9968403 L17.9978935,29.9964892 L20.9975425,32.9961382 L20.9975425,20.0976478 C32.9961382,15.8981393 44.9947339,20.0976478 44.9947339,20.0976478 L44.9947339,32.9961382 L47.9943828,29.9964892 L47.9943828,26.9968403 L53.9936806,20.9975425 L50.9940317,20.9975425 L49.1942423,16.798034 L52.1938913,15.5981744 C53.9936806,14.9982446 56.0934349,14.9982446 57.5932593,16.1981042 C59.6930136,17.6979286 60.2929434,20.3976127 59.3930487,22.7973318 L56.9933295,29.9964892 L59.9929785,35.9957871 L62.9926274,35.9957871 L59.9929785,29.9964892 L59.9929785,28.4966648 C59.9929785,27.5967701 60.5929083,26.9968403 61.4928029,26.9968403 L65.9922763,26.9968403 L65.9922763,29.9964892 L62.9926274,29.9964892 L65.9922763,35.9957871 L65.9922763,37.4956115 C65.9922763,38.3955062 65.3923465,38.995436 64.4924519,38.995436 L59.9929785,38.995436 L62.9926274,41.9950849 L62.9926274,47.9943828 C62.9926274,49.7941721 61.7927678,50.9940317 59.9929785,50.9940317 L56.9933295,50.9940317 L56.9933295,47.9943828 L59.9929785,47.9943828 L59.9929785,44.9947339 L56.9933295,41.9950849 C54.1136666,27.5967701 45.7050507,35.3142668 45.0369689,35.9547039 L44.9974185,35.9931204 L44.9947339,36.295752 C44.9947339,38.3955062 43.7948743,40.7952254 41.9950849,42.2950498 L32.9961382,47.9943828 L23.9971914,42.2950498 C22.197402,40.7952254 20.9975425,38.6954711 20.9975425,36.295752 L20.9975425,35.9957871 L20.9553074,35.9547039 C20.2872256,35.3142668 11.8786097,27.5967701 8.99894677,41.9950849 L5.99929785,44.9947339 L5.99929785,47.9943828 L8.99894677,47.9943828 L8.99894677,50.9940317 L5.99929785,50.9940317 C4.19950849,50.9940317 2.99964892,49.7941721 2.99964892,47.9943828 L2.99964892,41.9950849 L5.99929785,38.995436 L1.49982446,38.995436 C0.599929785,38.995436 0,38.3955062 0,37.4956115 L0,35.9957871 L2.99964892,29.9964892 L0,29.9964892 L0,26.9968403 L4.49947339,26.9968403 C5.39936806,26.9968403 5.99929785,27.5967701 5.99929785,28.4966648 L5.99929785,29.9964892 L2.99964892,35.9957871 L5.99929785,35.9957871 L8.99894677,29.9964892 L6.59922763,22.7973318 C5.69933295,20.3976127 6.29926274,17.6979286 8.39901699,16.1981042 C9.89884145,14.9982446 11.9985957,14.9982446 13.798385,15.5981744 Z M50.9940317,35.9957871 L53.9936806,41.9950849 L50.9940317,41.9950849 L50.9940317,44.9947339 C50.9940317,46.7945232 49.7941721,47.9943828 47.9943828,47.9943828 L44.9947339,47.9943828 L44.9947339,44.9947339 L47.9943828,44.9947339 L47.9943828,38.995436 L50.9940317,35.9957871 Z M14.9982446,35.9957871 L17.9978935,38.995436 L17.9978935,44.9947339 L20.9975425,44.9947339 L20.9975425,47.9943828 L17.9978935,47.9943828 C16.1981042,47.9943828 14.9982446,46.7945232 14.9982446,44.9947339 L14.9982446,41.9950849 L11.9985957,41.9950849 L14.9982446,35.9957871 Z M41.9950849,4.49947339 C41.3951551,3.8995436 40.4952605,3.59957871 39.5953658,3.59957871 C38.3955062,3.59957871 37.4956115,4.19950849 35.9957871,5.09940317 C35.3958573,3.8995436 34.7959275,2.99964892 33.5960679,2.69968403 C33.8960328,2.09975425 33.8960328,1.49982446 33.8960328,1.19985957 C34.1959977,0.599929785 33.5960679,0 32.9961382,0 C32.3962084,0 31.7962786,0.599929785 31.7962786,1.19985957 C31.7962786,1.49982446 31.7962786,1.79978935 32.0962435,2.69968403 C31.1963488,2.99964892 30.2964541,3.8995436 29.6965243,5.09940317 C28.7966297,4.19950849 27.2968052,3.59957871 26.0969456,3.59957871 C25.4970158,3.59957871 24.5971212,3.8995436 23.9971914,4.49947339 C22.4973669,5.99929785 22.7973318,8.39901699 24.5971212,10.7987361 C24.8970861,11.098701 25.197051,11.098701 25.197051,11.3986659 L25.197051,14.9982446 L39.8953307,14.9982446 L39.8953307,11.3986659 C40.1952956,11.098701 40.4952605,11.098701 40.4952605,10.7987361 C43.1949445,8.69898188 43.4949094,5.99929785 41.9950849,4.49947339 L41.9950849,4.49947339 Z M29.3965594,9.59887655 C28.7966297,10.1988063 27.5967701,9.59887655 26.6968754,8.69898188 C25.7969807,7.7990872 25.197051,6.59922763 25.7969807,6.29926274 C26.3969105,5.69933295 27.5967701,6.29926274 28.4966648,7.19915742 C29.3965594,8.39901699 29.6965243,9.29891166 29.3965594,9.59887655 Z M32.9961382,9.89884145 C32.3962084,9.89884145 31.7962786,8.99894677 31.7962786,7.49912231 C31.7962786,5.99929785 32.3962084,5.09940317 32.9961382,5.09940317 C33.5960679,5.09940317 34.1959977,5.99929785 34.1959977,7.49912231 C34.1959977,8.99894677 33.5960679,9.89884145 32.9961382,9.89884145 Z M39.5953658,8.99894677 C38.6954711,9.89884145 37.1956467,10.1988063 36.8956818,9.89884145 C36.295752,9.59887655 36.8956818,8.09905209 37.7955764,7.19915742 C38.6954711,6.29926274 39.8953307,5.99929785 40.4952605,6.29926274 C41.0951903,6.59922763 40.4952605,8.09905209 39.5953658,8.99894677 Z" transform="translate(14.998 17.998)"/></g></svg>