<svg xmlns="http://www.w3.org/2000/svg" width="121" height="121" viewBox="0 0 121 121"><g fill="none" fill-rule="evenodd" transform="translate(13 7)"><path fill="#000" d="M82.9902865,0 C90.1531567,0 95.9887651,5.83560848 95.9887651,12.9984786 L95.9887651,82.9902865 C95.9887651,90.1531567 90.1531567,95.9887651 82.9902865,95.9887651 L60.005,95.988 L47.9943826,108 L35.982,95.988 L12.9984786,95.9887651 C5.9379352,95.9887651 0.167002541,90.3186974 0.00355967765,83.2964409 L0,82.9902865 L0,12.9984786 C0,5.83560848 5.83560848,0 12.9984786,0 Z"/><path fill="#FFF" d="M82.9902865,5.99929782 C86.839836,5.99929782 89.9894673,9.14892918 89.9894673,12.9984786 L89.9894673,82.9902865 C89.9894673,86.839836 86.839836,89.9894673 82.9902865,89.9894673 L57.5152978,89.9892978 L47.9943826,99.5109936 L38.4732978,89.9892978 L12.9984786,89.9894673 C9.14892918,89.9894673 5.99929782,86.839836 5.99929782,82.9902865 L5.99929782,12.9984786 C5.99929782,9.14892918 9.14892918,5.99929782 12.9984786,5.99929782 L82.9902865,5.99929782 Z"/><path fill="#000" d="M52.7938211,18.5978233 L46.7945232,8.09905209 L32.3962084,16.4980691 L32.3962084,0 L20.3976127,0 L20.3976127,16.4980691 L5.99929785,8.39901699 L0,18.8977882 L14.3983148,26.9968403 L0,35.3958573 L5.99929785,45.8946285 L20.3976127,37.4956115 L20.3976127,53.9936806 L32.3962084,53.9936806 L32.3962084,37.4956115 L46.7945232,45.8946285 L52.7938211,35.3958573 L38.3955062,26.9968403 L52.7938211,18.5978233 Z M26.3969105,8.69898188 C26.6968754,8.69898188 27.2968052,8.69898188 27.5967701,8.99894677 C27.896735,9.29891166 28.1966999,9.29891166 28.1966999,9.89884145 L28.1966999,13.4984202 C27.5967701,12.8984904 26.9968403,12.5985255 26.0969456,12.5985255 C25.7969807,12.5985255 25.7969807,12.5985255 25.7969807,12.2985606 C25.7969807,12.2985606 25.7969807,12.2985606 25.7969807,12.2985606 L25.7969807,9.89884145 C25.4970158,9.29891166 25.7969807,8.99894677 26.3969105,8.69898188 Z M27.896735,14.3983148 L27.896735,14.3983148 C27.896735,18.2978584 27.5967701,22.197402 27.5967701,25.7969807 L27.5967701,26.0969456 L26.0969456,27.5967701 L25.7969807,27.5967701 L25.7969807,27.2968052 C25.7969807,23.3972616 25.4970158,19.7976829 25.4970158,15.8981393 C25.4970158,15.5981744 25.4970158,15.5981744 25.7969807,15.5981744 C26.6968754,15.5981744 27.2968052,14.9982446 27.896735,14.3983148 Z M25.4970158,12.8984904 C26.0969456,12.8984904 26.6968754,12.8984904 26.9968403,13.1984553 C27.5967701,13.4984202 27.896735,14.0983499 27.2968052,14.3983148 C26.9968403,14.9982446 26.3969105,15.2982095 25.7969807,15.2982095 L25.197051,15.2982095 C24.2971563,15.2982095 23.3972616,16.1981042 23.6972265,17.0979989 C23.6972265,17.3979638 23.6972265,17.3979638 23.6972265,17.6979286 C23.9971914,18.2978584 24.2971563,18.5978233 24.5971212,19.1977531 L24.8970861,19.497718 L24.8970861,22.7973318 L24.2971563,22.197402 C22.7973318,20.6975776 21.8974371,18.8977882 21.8974371,16.798034 C22.197402,14.6982797 23.6972265,13.1984553 25.4970158,12.8984904 L25.4970158,12.8984904 L25.4970158,12.8984904 Z M28.4966648,44.9947339 C28.1966999,45.8946285 27.5967701,47.0944881 26.9968403,47.6944179 C26.6968754,47.9943828 26.6968754,47.9943828 26.3969105,47.9943828 C26.3969105,47.9943828 26.0969456,47.6944179 26.3969105,47.6944179 C26.6968754,47.0944881 26.9968403,46.4945583 27.5967701,45.8946285 C27.896735,45.5946636 27.896735,45.2946987 27.896735,44.9947339 L27.896735,43.4949094 C28.1966999,43.4949094 28.4966648,44.0948392 28.4966648,44.9947339 L28.4966648,44.9947339 L28.4966648,44.9947339 Z M26.3969105,40.7952254 L26.3969105,40.7952254 C26.6968754,40.1952956 26.9968403,39.5953658 27.5967701,39.2954009 L27.5967701,45.5946636 C27.2968052,45.8946285 26.9968403,46.4945583 26.9968403,47.0944881 L26.9968403,46.7945232 C26.3969105,44.694769 26.3969105,42.8949796 26.3969105,40.7952254 Z M29.3965594,36.5957169 C29.0965946,37.1956467 29.0965946,37.4956115 28.4966648,37.7955764 L26.6968754,39.5953658 C26.0969456,40.1952956 25.7969807,40.7952254 25.4970158,41.3951551 L25.4970158,42.2950498 C24.8970861,41.9950849 24.5971212,41.69512 24.5971212,41.0951903 C24.5971212,39.8953307 25.197051,38.6954711 26.0969456,37.7955764 C26.3969105,37.4956115 26.9968403,37.1956467 27.2968052,36.8956818 C27.896735,36.295752 28.1966999,35.3958573 28.4966648,34.4959626 L28.4966648,32.6961733 L29.0965946,33.296103 C29.3965594,33.8960328 29.3965594,34.4959626 29.6965243,35.0958924 C29.3965594,35.6958222 29.3965594,35.9957871 29.3965594,36.5957169 L29.3965594,36.5957169 Z M26.0969456,31.7962786 L26.0969456,31.4963137 C26.3969105,30.8963839 26.9968403,30.596419 27.5967701,29.9964892 L27.5967701,35.6958222 C27.5967701,35.9957871 27.5967701,35.9957871 27.2968052,36.295752 L26.0969456,37.4956115 C26.0969456,37.4956115 26.0969456,31.7962786 26.0969456,31.7962786 Z M29.3965594,28.1966999 C28.7966297,28.7966297 27.896735,29.3965594 27.2968052,29.9964892 C26.6968754,30.596419 26.3969105,30.8963839 25.7969807,31.1963488 C25.4970158,31.4963137 25.197051,32.0962435 25.197051,32.6961733 L25.197051,32.6961733 C24.2971563,31.7962786 23.9971914,30.596419 24.5971212,29.3965594 L28.1966999,25.7969807 C28.4966648,25.4970158 28.7966297,25.197051 28.7966297,24.5971212 L28.7966297,21.8974371 L29.0965946,21.8974371 C29.9964892,22.4973669 30.596419,23.3972616 30.596419,24.5971212 C30.596419,26.3969105 30.2964541,27.5967701 29.3965594,28.1966999 Z" transform="translate(21.598 20.997)"/></g></svg>