<svg xmlns="http://www.w3.org/2000/svg" width="121" height="121" viewBox="0 0 121 121"><g fill="none" transform="translate(12 12)"><path fill="#FFF" d="M48,0 C21.490332,0 0,21.490332 0,48 C0,74.509668 21.490332,96 48,96 C74.509668,96 96,74.509668 96,48 C96,21.490332 74.509668,0 48,0 Z M48,6 C71.1959595,6 90,24.8040405 90,48 C90,71.1959595 71.1959595,90 48,90 C24.8040405,90 6,71.1959595 6,48 C6,24.8040405 24.8040405,6 48,6 Z"/><circle cx="48" cy="48" r="42" fill="#009EE0" fill-rule="evenodd"/><path fill="#FFF" d="M8.99999986,17.9999999 L8.99999986,23.9999999 L38.9999999,23.9999999 L38.9999999,17.9999999 L44.9999999,17.9999999 L44.9999999,23.9999999 C46.2,29.73 44.9999999,42.72 63.8700001,44.7 L63.8370001,44.754 C62.2710001,47.244 59.9010001,49.1760001 56.9999999,50.2200001 L56.9999999,56.9999999 L62.9999999,56.9999999 L63.1761876,56.9949041 C64.7502858,56.903602 65.9999999,55.5968572 65.9999999,53.9999999 L68.9999999,53.9999999 L68.9999999,54.0210001 C68.7750001,57.2190001 66.2190001,59.7750001 62.9999999,59.9999999 L23.9999999,59.9999999 L23.9999999,56.9999999 L32.9999999,56.9999999 L32.9999999,49.9800001 L32.937,49.9530001 C29.424,48.2550001 26.9999999,44.658 26.9999999,40.494 C26.9999999,39.09 27.276,37.752 27.75,36.6 L2.99999986,31.4999999 L2.99999986,17.9999999 L8.99999986,17.9999999 Z M54,51.0000001 L36,51.0000001 L36,57.0000001 L54,57.0000001 L54,51.0000001 Z M52.5600001,24 C59.9820001,24 66,30.018 66,37.44 L66,37.515 C65.9640001,39.048 65.6820001,40.518 65.2200001,41.79 C51.1139395,40.6960606 49.4390083,33.3865565 48.5049223,27.1248389 L48.4468033,26.7308229 C48.427686,26.5999938 48.4087879,26.4696969 48.3900001,26.34 C48.2700001,25.53 48.1500001,24.72 48,24 Z M62.8799999,8.99999989 L20.8799999,8.99999989 L20.8799999,14.9999999 L62.8799999,14.9999999 L62.8799999,8.99999989 Z" transform="translate(12 12)"/></g></svg>