<svg xmlns="http://www.w3.org/2000/svg" width="121" height="121" viewBox="0 0 121 121"><g fill="none" transform="translate(12 12)"><path fill="#FFF" d="M48,0 C21.490332,0 0,21.490332 0,48 C0,74.509668 21.490332,96 48,96 C74.509668,96 96,74.509668 96,48 C96,21.490332 74.509668,0 48,0 Z M48,6 C71.1959595,6 90,24.8040405 90,48 C90,71.1959595 71.1959595,90 48,90 C24.8040405,90 6,71.1959595 6,48 C6,24.8040405 24.8040405,6 48,6 Z"/><circle cx="48" cy="48" r="42" fill="#F60000" fill-rule="evenodd"/><path fill="#FFF" d="M45.3,51.3000001 L50.1000001,56.7000001 L49.2000001,57.6000001 L48,58.5000001 L47.1,59.4000001 L46.2,60.0000001 L45.3,60.9000001 L44.1,61.5000001 L39.6,64.5000001 L39,64.8000001 L37.2,65.4000001 L36,66.0000001 L35.3999999,65.7000001 L34.5,65.4000001 L33.8999999,65.1000001 L33,64.8000001 L32.3999999,64.5000001 L27.8999999,61.5000001 L26.7,60.9000001 L25.8,60.0000001 L24.8999999,59.4000001 L23.9999999,58.5000001 L22.7999999,57.6000001 L21.8999999,56.7000001 L26.7,51.3000001 L29.7,54.3000001 L30.3,54.6000001 L30.8999999,55.2000001 L31.8,55.5000001 L32.3999999,55.8000001 L32.7,56.4000001 L35.1,57.6000001 L35.3999999,57.9000001 L36.3,57.9000001 L39.3,56.4000001 L39.6,55.8000001 L40.8,55.2000001 L41.7,54.6000001 L42.3,54.3000001 L45.3,51.3000001 Z M35.4,3.59999987 L36,3.89999987 L35.4,4.79999987 L34.8,5.99999988 L34.5,7.19999988 L33.3,10.7999999 L33.3,14.0999999 L33.6,14.6999999 L33.6,15.5999999 L33.9,16.1999999 L34.2,17.0999999 L34.5,17.6999999 L35.1,19.4999999 L38.1,24 L38.7,25.2 L39.3,26.0999999 L40.2,27 L40.8,28.2 L41.1,29.0999999 L41.7,30 L42.3,31.2 L42.9,33 L42.9,33.9 L43.2,34.8 L43.2,37.8 L42.9,38.4 L42.9,39.3 L42.6,40.2 L42.9,40.2 L43.8,39.3 L44.4,38.4 L44.7,37.5 L45.3,36.5999999 L46.2,33.9 L46.2,33 L46.5,32.0999999 L46.5,28.5 L46.2,27.5999999 L46.2,27.3 L46.8,27.3 L47.4,27.5999999 L48,27.5999999 L48.3000001,27.9 L48.6000001,27.9 L48.9000001,28.2 L49.5000001,28.2 L49.8000001,28.5 L50.1000001,28.5 L50.4000001,28.8 L51.0000001,28.8 L50.7,31.5 L50.4000001,33.9 L49.2,38.0999999 L48.3000001,39.9 L47.1,41.7 L46.2,43.5 L43.8,46.5 L41.4,48.9000001 L40.2,49.8000001 L39.3,50.7000001 L38.1,51.5999999 L36.9,52.2000001 L36,52.8000001 L35.7,52.5000001 L35.4,52.5000001 L35.1,52.2000001 L34.8,52.2000001 L34.5,51.9000001 L34.2,51.9000001 L34.2,51.5999999 L33.9,51.5999999 L33.6,51.3000001 L35.1,49.5000001 L36.3,47.4 L37.5,43.8 L37.5,40.2 L37.2,38.4 L36.9,36.9 L36.3,35.4 L34.5,31.8 L33.3,30 L32.7,28.8 L32.1,28.2 L31.8,27.5999999 L31.5,27.3 L30.9,26.0999999 L30.6,25.8 L30,24.5999999 L29.4,23.6999999 L29.4,23.0999999 L28.8,21.8999999 L28.8,20.9999999 L28.2,19.1999999 L28.2,16.1999999 L28.5,15.2999999 L28.8,14.0999999 L29.1,13.1999999 L29.4,11.9999999 L31.2,8.39999989 L33,5.99999988 L35.4,3.59999987 Z M24.9,27.3 L25.4999999,29.1 L25.8,29.7 L26.4,30.6 L26.9999999,31.2 L27.3,32.1 L27.9,33 L28.4999999,33.6 L29.7,35.4 L30.3,36 L31.2,37.8 L31.8,38.7 L32.7,40.5 L32.9999999,41.4 L33.3,42 L33.3,43.2 L33.6,43.8 L33.6,46.8 L33.3,47.4 L33.3,48.3 L32.9999999,48.9000001 L32.7,49.8 L32.7,50.7000001 L31.4999999,49.8 L27.9,46.2 L26.1,43.8 L25.2,42.3 L24.3,41.1 L23.6999999,39.6 L22.7999999,38.1 L22.1999999,36.3 L21.8999999,34.8 L21.5999999,32.7 L21.2999999,30.9 L20.9999999,28.8 L21.5999999,28.8 L21.5999999,28.5 L22.1999999,28.5 L22.4999999,28.2 L23.0999999,27.9 L23.6999999,27.9 L23.6999999,27.6 L24.6,27.6 L24.9,27.3 Z M25.2,18.2999999 L24.9,18.5999999 L24.9,19.1999999 L24.6,19.4999999 L24.6,20.3999999 L24.3,20.9999999 L24.3,22.1999999 L23.6999999,22.1999999 L23.0999999,22.4999999 L22.4999999,22.4999999 L21.8999999,22.7999999 L21.2999999,22.7999999 L20.6999999,23.0999999 L20.3999999,23.3999999 L19.7999999,23.3999999 L18.5999999,24 L18.2999999,24 L17.0999999,24.6 L16.1999999,25.2 L15.5999999,25.5 L15.8999999,26.7 L15.8999999,29.7 L16.1999999,30.9 L16.1999999,32.1 L16.4999999,33.2999999 L16.7999999,34.7999999 L17.0999999,35.7 L17.6999999,37.2 L17.9999999,38.1 L18.2999999,39.2999999 L18.8999999,40.2 L19.1999999,41.4 L20.3999999,43.2 L20.9999999,44.4 L16.1999999,49.5000001 L15.5999999,48.2999999 L14.6999999,47.1 L14.0999999,45.9 L13.4999999,44.4 L12.5999999,43.2 L11.9999999,41.7 L11.6999999,40.2 L11.0999999,38.7 L10.4999999,36.9 L10.1999999,35.4 L9.59999989,31.7999999 L9.29999989,30.2999999 L8.99999989,28.2 L8.99999989,24.6 L9.89999989,24 L10.4999999,23.3999999 L11.3999999,22.7999999 L12.2999999,22.4999999 L13.1999999,21.8999999 L14.3999999,21.5999999 L15.2999999,20.9999999 L16.1999999,20.6999999 L17.3999999,20.3999999 L18.2999999,19.7999999 L19.4999999,19.4999999 L20.3999999,19.1999999 L22.7999999,18.5999999 L23.9999999,18.5999999 L25.2,18.2999999 Z M40.8,17.3999999 L42.6,17.6999999 L44.1,17.6999999 L51.6000001,19.1999999 L53.1000001,19.7999999 L54.6000001,20.0999999 L57.0000001,21.2999999 L58.5000001,21.8999999 L60.9000001,23.0999999 L61.8,23.6999999 L63.0000001,24.6 L63.0000001,28.2 L62.7000001,30.3 L62.4000001,31.8 L61.8,35.3999999 L61.5000001,36.8999999 L60.9000001,38.7 L60.3,40.2 L60.0000001,41.7 L59.1000001,43.2 L58.5000001,44.3999999 L57.9000001,45.8999999 L57.3,47.1 L56.4000001,48.3000001 L55.8,49.5000001 L51.0000001,44.3999999 L51.6000001,43.2 L52.2000001,42.3 L52.5000001,41.3999999 L53.1000001,40.2 L53.7000001,39.3 L54.0000001,38.1 L54.3,37.2 L54.9000001,35.7 L55.2000001,34.8 L55.5000001,33.3 L55.5000001,32.1 L56.1000001,29.7 L56.1000001,26.7 L56.4000001,25.5 L55.5000001,24.8999999 L54.3,24.3 L53.4000001,23.9999999 L52.8,23.6999999 L51.0000001,23.0999999 L50.4000001,22.7999999 L48.6000001,22.1999999 L47.7,22.1999999 L46.8,21.8999999 L46.2,21.5999999 L45.3,21.5999999 L44.4,21.2999999 L43.5,21.2999999 L42.9,20.6999999 L42.6,20.0999999 L41.7,19.1999999 L41.7,18.8999999 L41.4,18.5999999 L41.4,18.2999999 L41.1,17.9999999 L41.1,17.6999999 L40.8,17.3999999 Z" transform="translate(12 12)"/></g></svg>