<svg xmlns="http://www.w3.org/2000/svg" width="121" height="121" viewBox="0 0 121 121"><g fill="none" fill-rule="evenodd" transform="translate(11 1)"><path fill="#000" d="M49.4394392,0.0318675407 C22.3057387,1.05655877 0,24.0129849 0,51.0632884 C0,74.1581311 15.7531577,94.1840908 37.6796234,100.284188 L39.123,100.664864 L42.9875735,113.982705 L43.1785408,114.537893 C46.0893205,121.820521 56.3606795,121.820521 59.2714592,114.537893 L59.414029,114.18119 L62.886,100.712864 L63.516,100.496864 L63.2562825,100.567939 C85.9193193,94.8977587 102,74.3341875 102,50.6129372 C102,22.1810388 78.2198674,-0.978760095 49.4394392,0.0318675407 Z M49.65,6.02817175 C75.3,5.12746941 96,25.8436231 96,50.6129372 C96,71.7794421 81.6,89.7934887 61.8,94.7473516 L60.7909333,95.0889513 C58.9125333,95.7454632 57.8597333,96.3059002 57.4021333,97.9231613 L57.3,98.3501609 L53.7,112.311047 C52.8473684,114.444289 49.9753463,114.556565 48.9101473,112.647875 L48.75,112.311047 L44.7,98.3501609 C44.3210526,96.4539455 43.9421053,95.8351804 41.6820674,95.1491811 L40.742703,94.8861535 C40.5702216,94.8409148 40.3894737,94.7947569 40.2,94.7473516 C20.85,89.7934887 6,72.2297932 6,51.0632884 C6,27.1946766 25.8,6.92887408 49.65,6.02817175 Z"/><path fill="#D5D5D5" d="M49.65,6.02817175 C75.3,5.12746941 96,25.8436231 96,50.6129372 C96,71.7794421 81.6,89.7934887 61.8,94.7473516 L60.7909333,95.0889513 C58.9125333,95.7454632 57.8597333,96.3059002 57.4021333,97.9231613 L57.3,98.3501609 L53.7,112.311047 C52.8473684,114.444289 49.9753463,114.556565 48.9101473,112.647875 L48.75,112.311047 L44.7,98.3501609 C44.3210526,96.4539455 43.9421053,95.8351804 41.6820674,95.1491811 L40.742703,94.8861535 C40.5702216,94.8409148 40.3894737,94.7947569 40.2,94.7473516 C20.85,89.7934887 6,72.2297932 6,51.0632884 C6,27.1946766 25.8,6.92887408 49.65,6.02817175 Z"/><g fill="#000" fill-rule="nonzero" transform="translate(12 30)"><path d="M56.7530266,0 C49.5764398,0 42.8716707,3.67909696 39,9.5277493 C35.1281607,3.67909696 28.4238974,0 21.2469734,0 C9.53786752,0 0,9.5277493 0,21.3198952 C0,33.1120411 9.53736164,42.5454545 21.2469734,42.5454545 C28.4235602,42.5454545 35.1283293,38.8663576 39,33.0177052 C42.8718393,38.8663576 49.5761026,42.5454545 56.7530266,42.5454545 C68.4626384,42.5454545 78,33.0177052 78,21.3198952 C78,9.62208512 68.5569007,0 56.7530266,0 L56.7530266,0 Z M56.7530266,38.7720218 C49.8597328,38.7720218 43.5330249,34.6210773 40.6999265,28.3007458 L39.0005059,24.3386414 L37.3010853,28.3007458 C34.4679869,34.6212457 28.2353727,38.7720218 21.2479851,38.7720218 C14.1656607,38.7720218 8.0279834,34.5270784 5.28897873,28.3947447 C6.98839934,30.0924526 9.34917416,31.1301466 11.8989796,31.1301466 C17.0928528,31.1301466 21.2478165,26.8852032 21.2478165,21.790732 C21.2478165,16.6020935 16.9985905,12.4513174 11.8989796,12.4513174 C8.97178744,12.4513174 6.42198201,13.7719852 4.72239277,15.8474069 C7.08316759,8.96106056 13.5990747,3.96126213 21.2478165,3.96126213 C28.1411103,3.96126213 34.4678182,8.01736545 37.3009166,14.4325381 L39.0003373,18.3946425 L40.6997579,14.4325381 C43.5328563,8.11203818 49.7654704,3.96126213 56.752858,3.96126213 C66.3849879,3.96126213 74.2225917,11.7911351 74.2225917,21.4133887 C74.2225917,31.0358108 66.478913,38.7711795 56.752858,38.7711795 L56.7530266,38.7720218 Z"/><path d="M59.3863636,21.7161609 C59.3863636,26.8559412 55.2197455,31.0227273 50.0797973,31.0227273 C44.9393454,31.0227273 40.7727273,26.8561091 40.7727273,21.7161609 C40.7727273,16.5757091 44.9393454,12.4090909 50.0797973,12.4090909 C55.2195776,12.4090909 59.3863636,16.5757091 59.3863636,21.7161609"/></g></g></svg>