<?xml version="1.0" encoding="UTF-8"?>
<svg xmlns="http://www.w3.org/2000/svg" version="1.1" viewBox="192.56 248.74 108.12 88.23">
<defs>
    <style>
      .st0 {
        stroke-width: 7.1px;
      }

      .st0, .st1, .st2, .st3, .st4, .st5, .st6, .st7, .st8, .st9, .st10, .st11, .st12, .st13, .st14, .st15, .st16, .st17, .st18, .st19, .st20, .st21, .st22, .st23, .st24, .st25, .st26, .st27, .st28, .st29, .st30, .st31, .st32, .st33, .st34, .st35 {
        stroke-miterlimit: 10;
      }

      .st0, .st1, .st2, .st3, .st6, .st7, .st9, .st36, .st10, .st11, .st13, .st14, .st16, .st19, .st20, .st21, .st22, .st23, .st24, .st26, .st29, .st30, .st31, .st32, .st33, .st34, .st35 {
        fill: none;
      }

      .st0, .st2, .st5, .st6, .st7, .st9, .st11, .st13, .st14, .st19, .st20, .st23, .st26, .st29, .st30, .st31, .st32, .st33, .st34, .st35 {
        stroke: #000;
      }

      .st1 {
        stroke-width: 3.92px;
      }

      .st1, .st3, .st10, .st24 {
        stroke: #39007f;
      }

      .st2 {
        stroke-width: 3.04px;
      }

      .st3 {
        stroke-width: 3.76px;
      }

      .st4, .st5, .st23 {
        stroke-width: 4px;
      }

      .st4, .st8, .st12, .st15, .st17, .st22, .st25, .st28 {
        stroke: #fff;
      }

      .st37 {
        fill: #14b710;
      }

      .st38 {
        font-family: Poppins-Medium, Poppins;
        font-size: 10px;
        font-weight: 500;
      }

      .st38, .st39 {
        isolation: isolate;
      }

      .st40 {
        fill: #fff;
      }

      .st6 {
        stroke-width: 3.42px;
      }

      .st7 {
        stroke-width: 1.02px;
      }

      .st8, .st12, .st27 {
        fill: #0090e9;
      }

      .st8, .st28 {
        stroke-width: 3.02px;
      }

      .st9 {
        stroke-width: 2.67px;
      }

      .st10 {
        stroke-width: 2.99px;
      }

      .st11 {
        stroke-width: 1.11px;
      }

      .st12, .st15, .st18, .st21, .st27 {
        stroke-width: 4.03px;
      }

      .st41 {
        fill: #ffde17;
      }

      .st13 {
        stroke-width: 1.89px;
      }

      .st14 {
        stroke-width: 2px;
      }

      .st15, .st18, .st28 {
        fill: #b700bf;
      }

      .st16 {
        stroke: #a51c24;
        stroke-width: .22px;
      }

      .st17 {
        fill: #fb0d01;
        stroke-width: .75px;
      }

      .st18 {
        stroke: #b700bf;
      }

      .st19 {
        stroke-width: .95px;
      }

      .st42 {
        fill: #878787;
      }

      .st20 {
        stroke-width: 3.79px;
      }

      .st43 {
        fill: #259155;
      }

      .st21, .st27 {
        stroke: #0090e9;
      }

      .st22 {
        stroke-width: 1.01px;
      }

      .st44 {
        fill: #ed1b24;
      }

      .st24 {
        stroke-width: 3.98px;
      }

      .st25, .st31 {
        stroke-width: 3px;
      }

      .st26 {
        stroke-width: 2.59px;
      }

      .st29 {
        stroke-width: 3.09px;
      }

      .st30 {
        stroke-width: 2.66px;
      }

      .st45 {
        fill: #f1bb1d;
      }

      .st32 {
        stroke-width: 1.06px;
      }

      .st33 {
        stroke-width: 1.42px;
      }

      .st34 {
        stroke-width: 1.13px;
      }

      .st35 {
        stroke-width: 1.03px;
      }
    </style>
  </defs>
<g xmlns="http://www.w3.org/2000/svg">
    <rect x="209.81" y="295.26" width="73.77" height="24.77" />
    <rect x="200.56" y="324.44" width="92.12" height="4.53" />
    <rect x="205.09" y="319.76" width="83.06" height="4.68" />
    <line class="st36" x1="239.02" y1="319.64" x2="240.92" y2="319.64" />
    <path d="M209.81,295.26h-1.08c-.93,0-1.77-.54-2.17-1.38l-.08-.16c-.66-1.4.17-3.05,1.69-3.36l38.02-7.75c.32-.06.65-.06.97,0l37.98,7.9c1.5.31,2.32,1.93,1.69,3.33h0c-.39.86-1.24,1.41-2.18,1.41h-1.06" />
    <path class="st34" d="M246.03,256.74h0c.1,0,.19.09.19.19v28.74c0,.1-.09.19-.19.19h0c-.1,0-.19-.09-.19-.19v-28.74c0-.1.09-.19.19-.19Z" />
    <path d="M246.17,257.43c1.52-.23,2.72-.13,3.54,0,.77.12.97.24,2.32.49.85.16,1.65.3,2.71.38.54.04,1.61.12,2.99,0,1.79-.15,1.92-.44,2.38-.27,2.12.78,2.34,8.06-.06,9.18-.16.08-.72.11-1.83.16-1.67.09-2.5.13-3.6.05-.56-.04-1.5-.11-2.71-.38-1.1-.25-1.34-.42-2.1-.6-.81-.19-1.99-.33-3.54-.05" />
    <rect class="st7" x="222.08" y="264.63" width=".35" height="26.33" rx=".17" ry=".17" />
    <path d="M222.38,265.26c1.38-.2,2.46-.12,3.2,0,.69.11.87.22,2.1.44.77.14,1.49.27,2.45.35.49.04,1.46.1,2.7,0,1.62-.14,1.73-.4,2.15-.25,1.92.71,2.12,7.28-.05,8.3-.15.07-.65.1-1.65.15-1.51.08-2.26.12-3.25.05-.5-.04-1.36-.1-2.45-.35-1-.23-1.21-.38-1.9-.54-.73-.17-1.8-.29-3.2-.05" />
    <rect class="st35" x="268.2" y="264.93" width=".35" height="26.58" rx=".17" ry=".17" />
    <path d="M268.5,265.56c1.39-.21,2.48-.12,3.23,0,.7.11.88.22,2.12.45.78.14,1.5.28,2.47.35.5.04,1.47.11,2.73,0,1.63-.14,1.75-.4,2.17-.25,1.94.72,2.14,7.35-.05,8.38-.15.07-.66.1-1.67.15-1.52.08-2.28.12-3.28.05-.51-.04-1.37-.1-2.47-.35-1.01-.23-1.22-.39-1.92-.55-.74-.17-1.81-.3-3.23-.05" />
  </g>
</svg>