<?xml version="1.0" encoding="UTF-8"?>
<svg xmlns="http://www.w3.org/2000/svg" version="1.1" viewBox="322.82 252.87 111.26 84.00">
<defs>
    <style>
      .st0 {
        stroke-width: 7.1px;
      }

      .st0, .st1, .st2, .st3, .st4, .st5, .st6, .st7, .st8, .st9, .st10, .st11, .st12, .st13, .st14, .st15, .st16, .st17, .st18, .st19, .st20, .st21, .st22, .st23, .st24, .st25, .st26, .st27, .st28, .st29, .st30, .st31, .st32, .st33, .st34, .st35 {
        stroke-miterlimit: 10;
      }

      .st0, .st1, .st2, .st3, .st6, .st7, .st9, .st36, .st10, .st11, .st13, .st14, .st16, .st19, .st20, .st21, .st22, .st23, .st24, .st26, .st29, .st30, .st31, .st32, .st33, .st34, .st35 {
        fill: none;
      }

      .st0, .st2, .st5, .st6, .st7, .st9, .st11, .st13, .st14, .st19, .st20, .st23, .st26, .st29, .st30, .st31, .st32, .st33, .st34, .st35 {
        stroke: #000;
      }

      .st1 {
        stroke-width: 3.92px;
      }

      .st1, .st3, .st10, .st24 {
        stroke: #39007f;
      }

      .st2 {
        stroke-width: 3.04px;
      }

      .st3 {
        stroke-width: 3.76px;
      }

      .st4, .st5, .st23 {
        stroke-width: 4px;
      }

      .st4, .st8, .st12, .st15, .st17, .st22, .st25, .st28 {
        stroke: #fff;
      }

      .st37 {
        fill: #14b710;
      }

      .st38 {
        font-family: Poppins-Medium, Poppins;
        font-size: 10px;
        font-weight: 500;
      }

      .st38, .st39 {
        isolation: isolate;
      }

      .st40 {
        fill: #fff;
      }

      .st6 {
        stroke-width: 3.42px;
      }

      .st7 {
        stroke-width: 1.02px;
      }

      .st8, .st12, .st27 {
        fill: #0090e9;
      }

      .st8, .st28 {
        stroke-width: 3.02px;
      }

      .st9 {
        stroke-width: 2.67px;
      }

      .st10 {
        stroke-width: 2.99px;
      }

      .st11 {
        stroke-width: 1.11px;
      }

      .st12, .st15, .st18, .st21, .st27 {
        stroke-width: 4.03px;
      }

      .st41 {
        fill: #ffde17;
      }

      .st13 {
        stroke-width: 1.89px;
      }

      .st14 {
        stroke-width: 2px;
      }

      .st15, .st18, .st28 {
        fill: #b700bf;
      }

      .st16 {
        stroke: #a51c24;
        stroke-width: .22px;
      }

      .st17 {
        fill: #fb0d01;
        stroke-width: .75px;
      }

      .st18 {
        stroke: #b700bf;
      }

      .st19 {
        stroke-width: .95px;
      }

      .st42 {
        fill: #878787;
      }

      .st20 {
        stroke-width: 3.79px;
      }

      .st43 {
        fill: #259155;
      }

      .st21, .st27 {
        stroke: #0090e9;
      }

      .st22 {
        stroke-width: 1.01px;
      }

      .st44 {
        fill: #ed1b24;
      }

      .st24 {
        stroke-width: 3.98px;
      }

      .st25, .st31 {
        stroke-width: 3px;
      }

      .st26 {
        stroke-width: 2.59px;
      }

      .st29 {
        stroke-width: 3.09px;
      }

      .st30 {
        stroke-width: 2.66px;
      }

      .st45 {
        fill: #f1bb1d;
      }

      .st32 {
        stroke-width: 1.06px;
      }

      .st33 {
        stroke-width: 1.42px;
      }

      .st34 {
        stroke-width: 1.13px;
      }

      .st35 {
        stroke-width: 1.03px;
      }
    </style>
  </defs>
<path xmlns="http://www.w3.org/2000/svg" d="M378.65,261.37c1.09-.16,1.94-.09,2.53,0,.55.09.69.17,1.66.35.61.11,1.18.22,1.94.27.39.03,1.15.08,2.13,0,1.28-.11,1.37-.32,1.7-.2,1.52.56,1.67,5.76-.04,6.56-.12.05-.51.08-1.3.12-1.19.06-1.79.09-2.57.04-.4-.03-1.07-.08-1.94-.27-.79-.18-.96-.3-1.5-.43-.58-.13-1.42-.23-2.53-.04" />
<path xmlns="http://www.w3.org/2000/svg" d="M364.21,265.56c1.09-.16,1.94-.09,2.53,0,.55.09.69.17,1.66.35.61.11,1.18.22,1.94.27.39.03,1.15.08,2.13,0,1.28-.11,1.37-.32,1.7-.2,1.52.56,1.67,5.76-.04,6.56-.12.05-.51.08-1.3.12-1.19.06-1.79.09-2.57.04-.4-.03-1.07-.08-1.94-.27-.79-.18-.96-.3-1.5-.43-.58-.13-1.42-.23-2.53-.04" />
<g xmlns="http://www.w3.org/2000/svg">
    <rect class="st9" x="340.56" y="293.84" width="76.28" height="25.61" />
    <rect x="330.82" y="324.19" width="95.26" height="4.68" />
    <rect x="335.51" y="319.35" width="85.89" height="4.84" />
    <line class="st36" x1="370.59" y1="319.22" x2="372.55" y2="319.22" />
    <polyline points="340.39 294.02 337.69 294.02 335.61 289.58 378.5 280.83 421.29 289.73 419.36 294 416.67 294" />
    <rect x="378.56" y="260.87" width="1.07" height="20.81" rx=".53" ry=".53" />
    <rect x="363.57" y="265.07" width="1.07" height="20.81" rx=".53" ry=".53" />
    <rect x="392.91" y="265.02" width="1.07" height="20.81" rx=".53" ry=".53" />
  </g>
<path xmlns="http://www.w3.org/2000/svg" d="M393.15,265.51c1.09-.16,1.94-.09,2.53,0,.55.09.69.17,1.66.35.61.11,1.18.22,1.94.27.39.03,1.15.08,2.13,0,1.28-.11,1.37-.32,1.7-.2,1.52.56,1.67,5.76-.04,6.56-.12.05-.51.08-1.3.12-1.19.06-1.79.09-2.57.04-.4-.03-1.07-.08-1.94-.27-.79-.18-.96-.3-1.5-.43-.58-.13-1.42-.23-2.53-.04" />
</svg>