<?xml version="1.0" encoding="UTF-8"?>
<svg xmlns="http://www.w3.org/2000/svg" viewBox="0 0 120 120" width="120" height="120">
  <path fill="none" stroke="#000" stroke-width="4.786" stroke-miterlimit="10" d="M 96.9671288342,111.60705243 l -48.9597072914,0 c -0.127623870424,0 -0.223341773242,-0.095717902818 -0.207388789439,-0.223341773242 l 0.590260400711,-11.5659132572 c 0,-0.127623870424 -0.111670886621,-0.239294757045 -0.239294757045,-0.223341773242 l -16.7027740417,2.1217468458 l -0.047858951409,0 c -1.73887523453,0.781696206347 -3.68513925849,0.526448465499 -4.91351901132,-0.622166368317 c -1.0848028986,-1.02099096339 -1.21242676903,-2.37699458665 -1.22837975283,-2.77581918172 l -0.925273060574,-20.8345968467 c 0,-0.095717902818 -0.063811935212,-0.175482821833 -0.15952983803,-0.191435805636 l -8.58270528601,-2.07388789439 c -0.127623870424,-0.031905967606 -0.191435805636,-0.15952983803 -0.15952983803,-0.271200724651 l 8.86985899447,-27.2317433517 l 0,-0.047858951409 c 1.53148644509,-23.3073093362 21.5524811179,-40.5843907948 42.9135264301,-39.196481204 c 18.9361917742,1.24433273663 35.224188237,16.9101628312 37.3618880666,37.3140291152 l 0,0.079764919015 c -0.574307416908,8.10411577192 -0.973132011983,13.7514720382 -2.91939603595,19.111674596 c -2.1217468458,5.8228390881 -4.94542497893,8.18388069094 -5.71116820147,15.4105823537 l 0,0.063811935212 l 1.22837975283,30.932835594 l -0.207388789439,0.223341773242 l 0,0 Z"/>
  <circle fill="none" stroke="#000" stroke-width="1.691" stroke-miterlimit="10" cx="64.758" cy="55.102" r="24.552"/>
  <polygon fill="none" stroke="#000" stroke-width="3.191" stroke-miterlimit="10" points="58.584,71.788 58.584,62.057 48.853,62.057 48.853,48.784 58.281,48.784 58.281,39.053 71.394,39.053 71.394,48.625 81.285,48.625 81.285,61.898 71.857,61.898 71.857,72.092 58.584,71.788"/>
</svg>
