<?xml version="1.0" encoding="UTF-8"?>
<svg xmlns="http://www.w3.org/2000/svg" version="1.1" viewBox="166.39 374.49 71.89 80.70">
<defs>
    <style>
      .st0 {
        stroke-width: 7.1px;
      }

      .st0, .st1, .st2, .st3, .st4, .st5, .st6, .st7, .st8, .st9, .st10, .st11, .st12, .st13, .st14, .st15, .st16, .st17, .st18, .st19, .st20, .st21, .st22, .st23, .st24, .st25, .st26, .st27, .st28, .st29, .st30, .st31, .st32, .st33, .st34, .st35 {
        stroke-miterlimit: 10;
      }

      .st0, .st1, .st2, .st3, .st6, .st7, .st9, .st36, .st10, .st11, .st13, .st14, .st16, .st19, .st20, .st21, .st22, .st23, .st24, .st26, .st29, .st30, .st31, .st32, .st33, .st34, .st35 {
        fill: none;
      }

      .st0, .st2, .st5, .st6, .st7, .st9, .st11, .st13, .st14, .st19, .st20, .st23, .st26, .st29, .st30, .st31, .st32, .st33, .st34, .st35 {
        stroke: #000;
      }

      .st1 {
        stroke-width: 3.92px;
      }

      .st1, .st3, .st10, .st24 {
        stroke: #39007f;
      }

      .st2 {
        stroke-width: 3.04px;
      }

      .st3 {
        stroke-width: 3.76px;
      }

      .st4, .st5, .st23 {
        stroke-width: 4px;
      }

      .st4, .st8, .st12, .st15, .st17, .st22, .st25, .st28 {
        stroke: #fff;
      }

      .st37 {
        fill: #14b710;
      }

      .st38 {
        font-family: Poppins-Medium, Poppins;
        font-size: 10px;
        font-weight: 500;
      }

      .st38, .st39 {
        isolation: isolate;
      }

      .st40 {
        fill: #fff;
      }

      .st6 {
        stroke-width: 3.42px;
      }

      .st7 {
        stroke-width: 1.02px;
      }

      .st8, .st12, .st27 {
        fill: #0090e9;
      }

      .st8, .st28 {
        stroke-width: 3.02px;
      }

      .st9 {
        stroke-width: 2.67px;
      }

      .st10 {
        stroke-width: 2.99px;
      }

      .st11 {
        stroke-width: 1.11px;
      }

      .st12, .st15, .st18, .st21, .st27 {
        stroke-width: 4.03px;
      }

      .st41 {
        fill: #ffde17;
      }

      .st13 {
        stroke-width: 1.89px;
      }

      .st14 {
        stroke-width: 2px;
      }

      .st15, .st18, .st28 {
        fill: #b700bf;
      }

      .st16 {
        stroke: #a51c24;
        stroke-width: .22px;
      }

      .st17 {
        fill: #fb0d01;
        stroke-width: .75px;
      }

      .st18 {
        stroke: #b700bf;
      }

      .st19 {
        stroke-width: .95px;
      }

      .st42 {
        fill: #878787;
      }

      .st20 {
        stroke-width: 3.79px;
      }

      .st43 {
        fill: #259155;
      }

      .st21, .st27 {
        stroke: #0090e9;
      }

      .st22 {
        stroke-width: 1.01px;
      }

      .st44 {
        fill: #ed1b24;
      }

      .st24 {
        stroke-width: 3.98px;
      }

      .st25, .st31 {
        stroke-width: 3px;
      }

      .st26 {
        stroke-width: 2.59px;
      }

      .st29 {
        stroke-width: 3.09px;
      }

      .st30 {
        stroke-width: 2.66px;
      }

      .st45 {
        fill: #f1bb1d;
      }

      .st32 {
        stroke-width: 1.06px;
      }

      .st33 {
        stroke-width: 1.42px;
      }

      .st34 {
        stroke-width: 1.13px;
      }

      .st35 {
        stroke-width: 1.03px;
      }
    </style>
  </defs>
<g xmlns="http://www.w3.org/2000/svg">
    <path class="st31" d="M225.51,447.19h-30.69c-.08,0-.14-.06-.13-.14l.37-7.25c0-.08-.07-.15-.15-.14l-10.47,1.33h-.03c-1.09.49-2.31.33-3.08-.39-.68-.64-.76-1.49-.77-1.74l-.58-13.06c0-.06-.04-.11-.1-.12l-5.38-1.3c-.08-.02-.12-.1-.1-.17l5.56-17.07v-.03c.96-14.61,13.51-25.44,26.9-24.57,11.87.78,22.08,10.6,23.42,23.39v.05c-.36,5.08-.61,8.62-1.83,11.98-1.33,3.65-3.1,5.13-3.58,9.66v.04l.77,19.39-.13.14h0Z" />
    <circle class="st32" cx="205.32" cy="411.77" r="15.39" />
    <polygon class="st14" points="201.45 422.23 201.45 416.13 195.35 416.13 195.35 407.81 201.26 407.81 201.26 401.71 209.48 401.71 209.48 407.71 215.68 407.71 215.68 416.03 209.77 416.03 209.77 422.42 201.45 422.23" />
  </g>
</svg>