<svg xmlns="http://www.w3.org/2000/svg" viewBox="0 0 121 121" width="121" height="121"><g><g fill="none" fill-rule="evenodd" transform="translate(13 7)"><path fill="#000" d="M82.9902865,0 C90.1531567,0 95.9887651,5.83560848 95.9887651,12.9984786 L95.9887651,82.9902865 C95.9887651,90.1531567 90.1531567,95.9887651 82.9902865,95.9887651 L60.005,95.988 L47.9943826,108 L35.982,95.988 L12.9984786,95.9887651 C5.9379352,95.9887651 0.167002541,90.3186974 0.00355967765,83.2964409 L0,82.9902865 L0,12.9984786 C0,5.83560848 5.83560848,0 12.9984786,0 Z"/><path fill="#D5D5D5" d="M82.9902865,5.99929782 C86.839836,5.99929782 89.9894673,9.14892918 89.9894673,12.9984786 L89.9894673,82.9902865 C89.9894673,86.839836 86.839836,89.9894673 82.9902865,89.9894673 L57.5152978,89.9892978 L47.9943826,99.5109936 L38.4732978,89.9892978 L12.9984786,89.9894673 C9.14892918,89.9894673 5.99929782,86.839836 5.99929782,82.9902865 L5.99929782,12.9984786 C5.99929782,9.14892918 9.14892918,5.99929782 12.9984786,5.99929782 L82.9902865,5.99929782 Z"/></g><g transform="translate(28.48,22.48) scale(0.542)" fill="#000000">
  <path fill="#000000" d="M 25.9125168909,73.4471196038 c 0.50039454742,0.697519672162 24.0189382762,30.4330865658 31.2064235937,39.5311692462 c 1.07660645051,1.34954893092 3.10851158246,1.36471240206 4.2002815041,0.0303269422679 l 31.8432893813,-38.6365244493"/>
  <circle fill="#000000" cx="60" cy="48.336" r="42.336"/>
  <circle fill="#fff" cx="60.091" cy="48.518" r="33.208"/>
  <path fill="#000000" d="M 43.0320758011,68.1550681781 l 34.9366374926,-0.0606538845358 c 0.545884960822,0 1.00078909484,-0.454904134018 1.00078909484,-1.00078909484 l 0,-35.9374265875 c 0,-0.454904134018 -0.379086778349,-0.712683143296 -0.773337027831,-0.970462152573 c -5.79244597317,-3.91217555256 -11.1299878123,-4.18511803297 -18.4691078411,-4.41257009998 l -0.485231076286,0 c -11.2816225237,0.682356201028 -11.4635841773,0.970462152573 -16.4372027092,4.39740662885 c -0.379086778349,0.257779009277 -0.743010085564,0.515558018554 -0.743010085564,0.970462152573 l -0.0303269422678,36.0132439431 c 0,0.545884960822 0.454904134018,1.00078909484 1.00078909484,1.00078909484 l 0,0 Z"/>
  <rect fill="#fff" x="45.746" y="35.614" width="29.478" height="16.24"/>
  <circle fill="#fff" cx="48.749" cy="60.225" r="2.866"/>
  <circle fill="#fff" cx="72.601" cy="60.225" r="2.866"/>
  <path fill="none" stroke="#000" stroke-width="1.683" stroke-miterlimit="10" d="M 49.5220414464,67.1694425543 l -3.06302116906,4.64002216699 c -0.288105951545,0.424577191751 0.121307769072,0.940135210305 0.758173556697,0.940135210305 l 26.3237858885,0 c 0.636865787626,0 1.04627950824,-0.515558018554 0.758173556697,-0.940135210305 l -3.19949240926,-4.8219838206 l -21.5927828947,0.181961653607 l 0,0 Z"/>
</g></g></svg>