<svg xmlns="http://www.w3.org/2000/svg" viewBox="0 0 121 121" width="121" height="121"><g><g fill="none" fill-rule="evenodd" transform="translate(13 7)"><path fill="#000" d="M82.9902865,0 C90.1531567,0 95.9887651,5.83560848 95.9887651,12.9984786 L95.9887651,82.9902865 C95.9887651,90.1531567 90.1531567,95.9887651 82.9902865,95.9887651 L60.005,95.988 L47.9943826,108 L35.982,95.988 L12.9984786,95.9887651 C5.9379352,95.9887651 0.167002541,90.3186974 0.00355967765,83.2964409 L0,82.9902865 L0,12.9984786 C0,5.83560848 5.83560848,0 12.9984786,0 Z"/><path fill="#D5D5D5" d="M82.9902865,5.99929782 C86.839836,5.99929782 89.9894673,9.14892918 89.9894673,12.9984786 L89.9894673,82.9902865 C89.9894673,86.839836 86.839836,89.9894673 82.9902865,89.9894673 L57.5152978,89.9892978 L47.9943826,99.5109936 L38.4732978,89.9892978 L12.9984786,89.9894673 C9.14892918,89.9894673 5.99929782,86.839836 5.99929782,82.9902865 L5.99929782,12.9984786 C5.99929782,9.14892918 9.14892918,5.99929782 12.9984786,5.99929782 L82.9902865,5.99929782 Z"/></g><g transform="translate(28.48,22.48) scale(0.542)" fill="#000000">
  <path xmlns="http://www.w3.org/2000/svg" fill="#000000" d="M 60.226747848,22.0197354608 c 1.23577577157,-0.181398278396 2.19945412555,-0.102036531598 2.86836027714,0 c 0.623556581986,0.102036531598 0.782280075583,0.192735670796 1.88200713836,0.396808733991 c 0.691580936385,0.124711316397 1.33781230317,0.249422632795 2.19945412555,0.306109594793 c 0.44215830359,0.0340121771992 1.30380012597,0.090699139198 2.41486458115,0 c 1.45118622717,-0.124711316397 1.55322275877,-0.362796556792 1.92735670796,-0.226747847995 c 1.72328364476,0.634893974386 1.89334453076,6.53033802225 -0.045349569599,7.43732941423 c -0.136048708797,0.0566869619988 -0.578207012387,0.090699139198 -1.47386101197,0.136048708797 c -1.34914969557,0.0680243543985 -2.02939323955,0.102036531598 -2.91370984674,0.045349569599 c -0.45349569599,-0.0340121771993 -1.21310098677,-0.090699139198 -2.19945412555,-0.306109594793 c -0.89565399958,-0.204073063195 -1.08838967038,-0.340121771992 -1.70060885996,-0.487507873189 c -0.657568759185,-0.147386101197 -1.60990972076,-0.260760025194 -2.86836027714,-0.045349569599"/>
  <path xmlns="http://www.w3.org/2000/svg" fill="#000000" d="M 43.8555532228,26.7701028763 c 1.23577577157,-0.181398278396 2.19945412555,-0.102036531598 2.86836027714,0 c 0.623556581986,0.102036531598 0.782280075583,0.192735670796 1.88200713836,0.396808733991 c 0.691580936385,0.124711316397 1.33781230317,0.249422632795 2.19945412555,0.306109594793 c 0.44215830359,0.0340121771993 1.30380012597,0.090699139198 2.41486458115,0 c 1.45118622717,-0.124711316397 1.55322275877,-0.362796556792 1.92735670796,-0.226747847995 c 1.72328364476,0.634893974386 1.89334453076,6.53033802225 -0.045349569599,7.43732941423 c -0.136048708797,0.0566869619988 -0.578207012387,0.090699139198 -1.47386101197,0.136048708797 c -1.34914969557,0.0680243543985 -2.02939323955,0.102036531598 -2.91370984674,0.045349569599 c -0.45349569599,-0.0340121771992 -1.21310098677,-0.090699139198 -2.19945412555,-0.306109594793 c -0.89565399958,-0.204073063195 -1.08838967038,-0.340121771992 -1.70060885996,-0.487507873189 c -0.657568759185,-0.147386101197 -1.60990972076,-0.260760025194 -2.86836027714,-0.045349569599"/>
  <rect xmlns="http://www.w3.org/2000/svg" fill="none" stroke="#000000" stroke-width="3.027" stroke-miterlimit="10" x="17.043" y="58.832" width="86.482" height="29.035"/>
  <rect xmlns="http://www.w3.org/2000/svg" fill="#000000" x="6" y="93.241" width="108" height="5.306"/>
  <rect xmlns="http://www.w3.org/2000/svg" fill="#000000" x="11.317" y="87.754" width="97.377" height="5.487"/>
  <line xmlns="http://www.w3.org/2000/svg" fill="none" x1="51.089" y1="87.607" x2="53.311" y2="87.607"/>
  <polyline xmlns="http://www.w3.org/2000/svg" fill="#000000" points="16.85,59.036 13.789,59.036 11.431,54.003 60.057,44.082 108.569,54.173 106.381,59.014 103.332,59.014"/>
  <rect xmlns="http://www.w3.org/2000/svg" fill="#000000" x="60.125" y="21.453" width="1.213" height="23.593" rx="0.601" ry="0.601"/>
  <rect xmlns="http://www.w3.org/2000/svg" fill="#000000" x="43.13" y="26.215" width="1.213" height="23.593" rx="0.601" ry="0.601"/>
  <rect xmlns="http://www.w3.org/2000/svg" fill="#000000" x="76.394" y="26.158" width="1.213" height="23.593" rx="0.601" ry="0.601"/>
  <path xmlns="http://www.w3.org/2000/svg" fill="#000000" d="M 76.6659668276,26.7134159143 c 1.23577577157,-0.181398278396 2.19945412555,-0.102036531598 2.86836027714,0 c 0.623556581986,0.102036531598 0.782280075583,0.192735670796 1.88200713836,0.396808733991 c 0.691580936385,0.124711316397 1.33781230317,0.249422632795 2.19945412555,0.306109594793 c 0.44215830359,0.0340121771992 1.30380012597,0.090699139198 2.41486458115,0 c 1.45118622717,-0.124711316397 1.55322275877,-0.362796556792 1.92735670796,-0.226747847995 c 1.72328364476,0.634893974386 1.89334453076,6.53033802225 -0.045349569599,7.43732941423 c -0.136048708797,0.0566869619988 -0.578207012387,0.090699139198 -1.47386101197,0.136048708797 c -1.34914969557,0.0680243543985 -2.02939323955,0.102036531598 -2.91370984674,0.0453495695991 c -0.45349569599,-0.0340121771993 -1.21310098677,-0.090699139198 -2.19945412555,-0.306109594793 c -0.89565399958,-0.204073063195 -1.08838967038,-0.340121771992 -1.70060885996,-0.487507873189 c -0.657568759185,-0.147386101197 -1.60990972076,-0.260760025194 -2.86836027714,-0.045349569599"/>
</g></g></svg>