<svg xmlns="http://www.w3.org/2000/svg" viewBox="0 0 121 121" width="121" height="121"><g><g fill="none" fill-rule="evenodd" transform="translate(13 7)"><path fill="#000" d="M82.9902865,0 C90.1531567,0 95.9887651,5.83560848 95.9887651,12.9984786 L95.9887651,82.9902865 C95.9887651,90.1531567 90.1531567,95.9887651 82.9902865,95.9887651 L60.005,95.988 L47.9943826,108 L35.982,95.988 L12.9984786,95.9887651 C5.9379352,95.9887651 0.167002541,90.3186974 0.00355967765,83.2964409 L0,82.9902865 L0,12.9984786 C0,5.83560848 5.83560848,0 12.9984786,0 Z"/><path fill="#D5D5D5" d="M82.9902865,5.99929782 C86.839836,5.99929782 89.9894673,9.14892918 89.9894673,12.9984786 L89.9894673,82.9902865 C89.9894673,86.839836 86.839836,89.9894673 82.9902865,89.9894673 L57.5152978,89.9892978 L47.9943826,99.5109936 L38.4732978,89.9892978 L12.9984786,89.9894673 C9.14892918,89.9894673 5.99929782,86.839836 5.99929782,82.9902865 L5.99929782,12.9984786 C5.99929782,9.14892918 9.14892918,5.99929782 12.9984786,5.99929782 L82.9902865,5.99929782 Z"/></g><g transform="translate(28.48,22.48) scale(0.542)" fill="#000000">
  <path fill="none" stroke="#ffffff" stroke-width="7.5" stroke-linecap="round" stroke-miterlimit="10" d="M 104.64,41.256 L 104.047,83.076"/>
  <path fill="#b700bf" stroke="#ffffff" stroke-width="4.048" stroke-miterlimit="10" d="M 23.091,47.515 l 1.236,25.988 c 0.121,2.622 0.03,4.199 4.018,6.118 l 16.856,8.277 c 8.177,3.245 17.258,3.446 25.576,0.573 l 19.93,-8.971 c 2.321,-1.326 3.687,-3.174 3.777,-5.605 l 1.045,-26.862"/>
  <path fill="none" stroke="#b700bf" stroke-width="4.048" stroke-linecap="round" stroke-miterlimit="10" d="M 104.64,41.256 L 104.047,83.076"/>
  <path fill="#b700bf" stroke="#ffffff" stroke-width="3.4" stroke-miterlimit="10" d="M 104.188,81.338 l 0,0 c 4.058,0 7.353,3.295 7.353,7.353 l 0,12.969 l -14.697,0 l 0,-12.969 c 0,-4.058 3.295,-7.353 7.353,-7.353 l -0.01,0 Z"/>
  <path fill="#b700bf" stroke="#ffffff" stroke-width="3.034" stroke-miterlimit="10" d="M 54.433,61.126 l -45.074,-18.855 c -1.788,-0.743 -1.778,-3.275 0.02,-4.008 l 47.063,-19.207 c 2.331,-0.954 4.932,-0.954 7.263,0 l 46.802,19.016 c 1.959,0.794 1.959,3.566 0,4.36 l -46.269,18.755 c -3.144,1.276 -6.66,1.256 -9.794,-0.05 l -0.01,0 Z"/>
</g></g></svg>