<svg xmlns="http://www.w3.org/2000/svg" viewBox="0 0 121 121" width="121" height="121"><g><g fill="none" fill-rule="evenodd" transform="translate(13 7)"><path fill="#000" d="M82.9902865,0 C90.1531567,0 95.9887651,5.83560848 95.9887651,12.9984786 L95.9887651,82.9902865 C95.9887651,90.1531567 90.1531567,95.9887651 82.9902865,95.9887651 L60.005,95.988 L47.9943826,108 L35.982,95.988 L12.9984786,95.9887651 C5.9379352,95.9887651 0.167002541,90.3186974 0.00355967765,83.2964409 L0,82.9902865 L0,12.9984786 C0,5.83560848 5.83560848,0 12.9984786,0 Z"/><path fill="#D5D5D5" d="M82.9902865,5.99929782 C86.839836,5.99929782 89.9894673,9.14892918 89.9894673,12.9984786 L89.9894673,82.9902865 C89.9894673,86.839836 86.839836,89.9894673 82.9902865,89.9894673 L57.5152978,89.9892978 L47.9943826,99.5109936 L38.4732978,89.9892978 L12.9984786,89.9894673 C9.14892918,89.9894673 5.99929782,86.839836 5.99929782,82.9902865 L5.99929782,12.9984786 C5.99929782,9.14892918 9.14892918,5.99929782 12.9984786,5.99929782 L82.9902865,5.99929782 Z"/></g><g transform="translate(28.48,22.48) scale(0.542)" fill="#000000">
  <path fill="#000000" d="M 6,99.9435310936 c 26.9807005004,0.141529664046 53.9742673338,0.270192994996 80.9549678342,0.411722659042 c -5.09506790565,-10.8463187991 -10.5375268049,-24.8834882059 -14.3716940672,-41.7383845604 c -3.383845604,-14.8734810579 -4.6833452466,-28.2287348106 -5.03073624017,-39.2165832738 c -14.075768406,0.0257326661902 -28.151536812,0.0514653323803 -42.227305218,0.0771979985705 c -0.192994996426,10.5632594711 -1.28663330951,23.4553252323 -4.46461758399,37.8398856326 c -3.84703359543,17.45961401 -9.58541815583,31.805575411 -14.8606147248,42.626161544 Z"/>
  <path fill="#000000" d="M 90.454610436,100.599714081 c 7.84846318799,-0.10293066476 15.696926376,-0.218727662616 23.545389564,-0.321658327377 c -4.76054324518,-10.0486061472 -9.81701215154,-23.2108649035 -13.0721944246,-39.1393852752 c -2.22587562545,-10.8720514653 -3.15225160829,-20.7662616154 -3.40957827019,-29.232308792 l -25.8227305218,0 c 0.810578984989,9.3924231594 2.41887062187,20.3674052895 5.51965689778,32.3974267334 c 3.71837026447,14.4231593996 8.58184417441,26.6075768406 13.2394567548,36.2959256612 l 0,0 Z"/>
  <rect fill="#000000" x="67.72" y="31.906" width="6.253" height="3.448"/>
  <path fill="#fff" d="M 42.9649749821,77.2344531808 l 3.28091493924,-14.8606147248 l -8.77483917084,0.0771979985703 l 12.4288777698,-18.9135096497 l -2.92065761258,14.0500357398 l 8.92923516798,0.167262330236 l -12.853466762,19.5310936383 s -0.0900643316655,0.0128663330951 -0.0771979985704,-0.0385989992852 l -0.0128663330951,0 Z"/>

</g></g></svg>