<svg xmlns="http://www.w3.org/2000/svg" viewBox="0 0 121 121" width="121" height="121"><g><g fill="none" fill-rule="evenodd" transform="translate(13 7)"><path fill="#000" d="M82.9902865,0 C90.1531567,0 95.9887651,5.83560848 95.9887651,12.9984786 L95.9887651,82.9902865 C95.9887651,90.1531567 90.1531567,95.9887651 82.9902865,95.9887651 L60.005,95.988 L47.9943826,108 L35.982,95.988 L12.9984786,95.9887651 C5.9379352,95.9887651 0.167002541,90.3186974 0.00355967765,83.2964409 L0,82.9902865 L0,12.9984786 C0,5.83560848 5.83560848,0 12.9984786,0 Z"/><path fill="#D5D5D5" d="M82.9902865,5.99929782 C86.839836,5.99929782 89.9894673,9.14892918 89.9894673,12.9984786 L89.9894673,82.9902865 C89.9894673,86.839836 86.839836,89.9894673 82.9902865,89.9894673 L57.5152978,89.9892978 L47.9943826,99.5109936 L38.4732978,89.9892978 L12.9984786,89.9894673 C9.14892918,89.9894673 5.99929782,86.839836 5.99929782,82.9902865 L5.99929782,12.9984786 C5.99929782,9.14892918 9.14892918,5.99929782 12.9984786,5.99929782 L82.9902865,5.99929782 Z"/></g><g transform="translate(-1.073,-7.073) scale(1.026)" fill="#000000"><g xmlns="http://www.w3.org/2000/svg" fill="none" fill-rule="evenodd" transform="translate(12 12)"><path fill="#000000" d="M57,12 L40.1700002,12 L33.5700001,5.37000002 L36,3 L30,3 L30,1.5 C30,0.672000003 29.3280001,0 28.5,0 C27.6720001,0 27,0.672000003 27,1.5 L27,1.5 L27,3 L9,3 L9,6 L12,6 L12,12 L6,12 L3,18 L0,18 C0,18.9000001 0,19.9200001 0,20.7000001 C0,20.7000001 6,27 6,27 L48,27 C48,27 63,24 66,12 L57,12 Z M21.0000001,12 L15.0000001,12 L15.0000001,6.00000002 L21.0000001,6.00000002 L21.0000001,12 Z M24.0000001,12 L24.0000001,6.00000002 L30.0000001,6.00000002 L36.0000001,12 L24.0000001,12 Z" transform="translate(15 36)"/></g></g></g></svg>