<svg xmlns="http://www.w3.org/2000/svg" viewBox="0 0 121 121" width="121" height="121"><g><g fill="none" fill-rule="evenodd" transform="translate(13 7)"><path fill="#000" d="M82.9902865,0 C90.1531567,0 95.9887651,5.83560848 95.9887651,12.9984786 L95.9887651,82.9902865 C95.9887651,90.1531567 90.1531567,95.9887651 82.9902865,95.9887651 L60.005,95.988 L47.9943826,108 L35.982,95.988 L12.9984786,95.9887651 C5.9379352,95.9887651 0.167002541,90.3186974 0.00355967765,83.2964409 L0,82.9902865 L0,12.9984786 C0,5.83560848 5.83560848,0 12.9984786,0 Z"/><path fill="#D5D5D5" d="M82.9902865,5.99929782 C86.839836,5.99929782 89.9894673,9.14892918 89.9894673,12.9984786 L89.9894673,82.9902865 C89.9894673,86.839836 86.839836,89.9894673 82.9902865,89.9894673 L57.5152978,89.9892978 L47.9943826,99.5109936 L38.4732978,89.9892978 L12.9984786,89.9894673 C9.14892918,89.9894673 5.99929782,86.839836 5.99929782,82.9902865 L5.99929782,12.9984786 C5.99929782,9.14892918 9.14892918,5.99929782 12.9984786,5.99929782 L82.9902865,5.99929782 Z"/></g><g transform="translate(28.48,22.48) scale(0.542)" fill="#000000">
  <path xmlns="http://www.w3.org/2000/svg" fill="none" stroke="#000000" stroke-width="4.019" stroke-miterlimit="10" d="M 22.6701120917,48.2826285914 l 1.24042164518,25.5465350396 c 0.123017022662,2.57310605736 0.0307542556656,4.13132167775 4.03905891075,6.01758269191 l 16.9455948718,8.13962633283 c 8.23188909983,3.18819117067 17.355651614,3.39321954177 25.720809155,0.563828020536 l 20.051774694,-8.81621995748 c 2.33732343059,-1.30193015651 3.71101351698,-3.11643124078 3.80327628398,-5.5152631827 l 1.04564469263,-26.3974027797"/>
  <path xmlns="http://www.w3.org/2000/svg" fill="none" stroke="#000000" stroke-width="4.08" stroke-miterlimit="10" d="M 104.537940674,81.2819449206 l 0,0 c 4.10056742208,0 7.42202703397,3.32145961189 7.42202703397,7.42202703397 l 0,13.091061495 l -14.8440540679,0 l 0,-13.091061495 c 0,-4.10056742208 3.32145961189,-7.42202703397 7.42202703397,-7.42202703397 l 0,0 Z"/>
  <line xmlns="http://www.w3.org/2000/svg" fill="none" stroke="#000000" stroke-width="3.855" stroke-miterlimit="10" x1="105.143" y1="43.659" x2="104.538" y2="81.282"/>
  <path xmlns="http://www.w3.org/2000/svg" fill="none" stroke="#000000" stroke-width="3.065" stroke-miterlimit="10" d="M 54.2957383345,60.8713705772 l -45.3932813624,-18.9856271642 c -1.83500392138,-0.76885639164 -1.82475250283,-3.38296812322 0.0205028371104,-4.13132167775 l 47.3923079807,-19.3341753951 c 2.3578262677,-0.963633344189 5.00269225494,-0.963633344189 7.37076994119,0 l 47.1257710983,19.1496498611 c 2.00927803682,0.820113484416 2.00927803682,3.67000784276 0,4.47986990862 l -46.5926973334,18.8831129787 c -3.18819117067,1.29167873796 -6.74543340932,1.27117590085 -9.92337316144,-0.051257092776 l 0,0 Z"/>
</g></g></svg>