<svg xmlns="http://www.w3.org/2000/svg" width="121" height="121" viewBox="0 0 121 121"><g fill="none" fill-rule="evenodd" transform="translate(12 12)"><path fill="#000" d="M57,12 L40.1700002,12 L33.5700001,5.37000002 L36,3 L30,3 L30,1.5 C30,0.672000003 29.3280001,0 28.5,0 C27.6720001,0 27,0.672000003 27,1.5 L27,1.5 L27,3 L9,3 L9,6 L12,6 L12,12 L6,12 L3,18 L0,18 C0,18.9000001 0,19.9200001 0,20.7000001 C0,20.7000001 6,27 6,27 L48,27 C48,27 63,24 66,12 L57,12 Z M21.0000001,12 L15.0000001,12 L15.0000001,6.00000002 L21.0000001,6.00000002 L21.0000001,12 Z M24.0000001,12 L24.0000001,6.00000002 L30.0000001,6.00000002 L36.0000001,12 L24.0000001,12 Z" transform="translate(15 36)"/></g></svg>