<svg xmlns="http://www.w3.org/2000/svg" xmlns:xlink="http://www.w3.org/1999/xlink" width="121" height="121" viewBox="0 0 121 121"><defs><path id="a" d="M59.9929783,46.4945582 C56.2434172,46.4945582 52.6438385,45.8946284 49.2842317,44.7847583 C48.2343545,44.4547969 47.0644915,44.6947688 46.2245898,45.504674 L39.6253621,52.1039016 C31.1363557,47.7844072 24.1771702,40.8552182 19.8576757,32.3662117 L26.4569034,25.7369876 C27.2968051,24.9270824 27.536777,23.7572193 27.2068156,22.7073422 C26.0969455,19.3477354 25.4970157,15.7481567 25.4970157,11.9985955 C25.4970157,10.3487886 24.1471737,8.99894662 22.4973668,8.99894662 L11.9985955,8.99894662 C10.3487886,8.99894662 8.99894662,10.3487886 8.99894662,11.9985955 C8.99894662,40.1652989 31.8262749,62.9926272 59.9929783,62.9926272 C61.6427852,62.9926272 62.9926272,61.6427852 62.9926272,59.9929783 L62.9926272,49.4942071 C62.9926272,47.8444002 61.6427852,46.4945582 59.9929783,46.4945582 L59.9929783,46.4945582 Z M35.9957869,8.99894662 L35.9957869,38.9954359 L44.9947337,29.9964891 L62.9926272,29.9964891 L62.9926272,8.99894662 L35.9957869,8.99894662 L35.9957869,8.99894662 Z"/></defs><g fill="none" fill-rule="evenodd" transform="translate(13 7)"><path fill="#000" d="M82.9902865,0 C90.1531567,0 95.9887651,5.83560848 95.9887651,12.9984786 L95.9887651,82.9902865 C95.9887651,90.1531567 90.1531567,95.9887651 82.9902865,95.9887651 L60.005,95.988 L47.9943826,108 L35.982,95.988 L12.9984786,95.9887651 C5.9379352,95.9887651 0.167002541,90.3186974 0.00355967765,83.2964409 L0,82.9902865 L0,12.9984786 C0,5.83560848 5.83560848,0 12.9984786,0 Z"/><path fill="#D8D8D8" d="M82.9902865,5.99929782 C86.839836,5.99929782 89.9894673,9.14892918 89.9894673,12.9984786 L89.9894673,82.9902865 C89.9894673,86.839836 86.839836,89.9894673 82.9902865,89.9894673 L57.5152978,89.9892978 L47.9943826,99.5109936 L38.4732978,89.9892978 L12.9984786,89.9894673 C9.14892918,89.9894673 5.99929782,86.839836 5.99929782,82.9902865 L5.99929782,12.9984786 C5.99929782,9.14892918 9.14892918,5.99929782 12.9984786,5.99929782 L82.9902865,5.99929782 Z"/><g transform="translate(11.999 13.498)"><polygon points="0 0 71.992 0 71.992 71.992 0 71.992"/><mask id="b" fill="#fff"><use xlink:href="#a"/></mask><rect width="71.992" height="71.992" fill="#080808" mask="url(#b)"/></g></g></svg>