<svg xmlns="http://www.w3.org/2000/svg" width="121" height="121" viewBox="0 0 121 121"><g fill="none" fill-rule="evenodd" transform="translate(13 7)"><path fill="#000" d="M82.9902865,0 C90.1531567,0 95.9887651,5.83560848 95.9887651,12.9984786 L95.9887651,82.9902865 C95.9887651,90.1531567 90.1531567,95.9887651 82.9902865,95.9887651 L60.005,95.988 L47.9943826,108 L35.982,95.988 L12.9984786,95.9887651 C5.9379352,95.9887651 0.167002541,90.3186974 0.00355967765,83.2964409 L0,82.9902865 L0,12.9984786 C0,5.83560848 5.83560848,0 12.9984786,0 Z"/><path fill="#D8D8D8" d="M82.9902865,5.99929782 C86.839836,5.99929782 89.9894673,9.14892918 89.9894673,12.9984786 L89.9894673,82.9902865 C89.9894673,86.839836 86.839836,89.9894673 82.9902865,89.9894673 L57.5152978,89.9892978 L47.9943826,99.5109936 L38.4732978,89.9892978 L12.9984786,89.9894673 C9.14892918,89.9894673 5.99929782,86.839836 5.99929782,82.9902865 L5.99929782,12.9984786 C5.99929782,9.14892918 9.14892918,5.99929782 12.9984786,5.99929782 L82.9902865,5.99929782 Z"/><path fill="#000" d="M21.5974722,11.9985957 C23.3972616,11.9985957 24.5971212,13.1984553 24.5971212,14.9982446 C24.5971212,16.1981042 23.9971914,17.0979989 23.0972967,17.6979286 L42.8949796,59.9929785 L39.5953658,59.9929785 L38.6954711,58.1931891 L21.5974722,51.2939966 L4.49947339,58.1931891 L3.59957871,59.9929785 L0.299964892,59.9929785 L20.0976478,17.6979286 C19.1977531,17.0979989 18.5978233,16.1981042 18.5978233,14.9982446 C18.5978233,13.1984553 19.7976829,11.9985957 21.5974722,11.9985957 Z M9.89884145,46.7945232 L6.59922763,53.9936806 L17.6979286,49.7941721 L9.89884145,46.7945232 Z M33.296103,46.7945232 L25.4970158,49.7941721 L36.5957169,53.9936806 L33.296103,46.7945232 Z M21.5974722,36.8956818 L12.5985255,44.3948041 L21.5974722,47.9943828 L30.596419,44.3948041 L21.5974722,36.8956818 Z M26.6968754,32.6961733 L23.9971914,35.0958924 L30.2964541,40.4952605 L26.6968754,32.6961733 Z M16.4980691,32.6961733 L12.8984904,40.4952605 L19.1977531,35.0958924 L16.4980691,32.6961733 Z M21.5974722,21.5974722 L17.6979286,29.6965243 L21.5974722,32.9961382 L25.4970158,29.9964892 L21.5974722,21.5974722 Z M36.295752,0 C40.1952956,3.8995436 42.5950147,8.99894677 42.5950147,14.9982446 C42.5950147,20.9975425 40.1952956,26.3969105 36.295752,30.2964541 L33.296103,27.2968052 C36.295752,23.9971914 38.3955062,19.7976829 38.3955062,14.9982446 C38.3955062,10.4987712 36.295752,5.99929785 33.296103,2.99964892 L36.295752,0 Z M5.99929785,0.299964892 L8.99894677,3.29961382 C5.69933295,6.29926274 3.8995436,10.4987712 3.8995436,15.2982095 C3.8995436,20.0976478 5.99929785,24.2971563 8.99894677,27.2968052 L6.29926274,29.9964892 C2.39971914,26.0969456 0,20.6975776 0,14.9982446 C0,9.29891166 2.39971914,3.8995436 5.99929785,0.299964892 Z M30.2964541,6.29926274 C32.6961733,8.69898188 34.1959977,11.6986308 34.1959977,15.2982095 C34.1959977,18.8977882 32.6961733,21.8974371 30.2964541,24.2971563 L27.2968052,21.2975074 C28.7966297,19.7976829 29.6965243,17.6979286 29.6965243,15.2982095 C29.6965243,12.8984904 28.7966297,10.7987361 27.2968052,9.29891166 L30.2964541,6.29926274 Z M11.9985957,5.99929785 L14.9982446,8.99894677 C13.4984202,10.4987712 12.5985255,12.5985255 12.5985255,14.9982446 C12.5985255,17.3979638 13.798385,19.497718 15.2982095,21.2975074 L12.2985606,24.2971563 C9.89884145,21.8974371 8.39901699,18.5978233 8.39901699,14.9982446 C8.39901699,11.6986308 9.89884145,8.39901699 11.9985957,5.99929785 Z" transform="translate(26.397 17.998)"/></g></svg>