<svg xmlns="http://www.w3.org/2000/svg" viewBox="370 370 460 460" width="460" height="460">
 <path fill="#6b6b6b" d="m687.94 600c0 48.574-39.379 87.949-87.949 87.949-48.574 0-87.949-39.375-87.949-87.949s39.375-87.949 87.949-87.949c48.57 0 87.949 39.375 87.949 87.949z"/>
 <path fill="#6b6b6b" d="m600 371.82c-125.82 0-228.18 102.36-228.18 228.18 0 125.81 102.35 228.18 228.18 228.18 125.81 0 228.19-102.36 228.19-228.18-0.011718-125.82-102.38-228.18-228.19-228.18zm0 381.85c-84.742 0-153.67-68.93-153.67-153.67s68.93-153.68 153.67-153.68 153.67 68.941 153.67 153.68-68.941 153.67-153.67 153.67z"/>
</svg>
