<svg xmlns="http://www.w3.org/2000/svg" viewBox="60 60 1080 1080" width="1080" height="1080">
 <path fill="#7b3294" d="m687.94 600c0 48.574-39.379 87.949-87.949 87.949-48.574 0-87.949-39.375-87.949-87.949s39.375-87.949 87.949-87.949c48.57 0 87.949 39.375 87.949 87.949z"/>
 <path fill="#7b3294" d="m600 371.82c-125.82 0-228.18 102.36-228.18 228.18 0 125.81 102.35 228.18 228.18 228.18 125.81 0 228.19-102.36 228.19-228.18-0.011718-125.82-102.38-228.18-228.19-228.18zm0 381.85c-84.742 0-153.67-68.93-153.67-153.67s68.93-153.68 153.67-153.68 153.67 68.941 153.67 153.68-68.941 153.67-153.67 153.67z"/>
 <path fill="#7b3294" d="m600 229.03c-204.56 0-370.98 166.41-370.98 370.97 0 204.55 166.41 370.98 370.98 370.98 204.55 0 370.97-166.43 370.97-370.98s-166.42-370.97-370.97-370.97zm0 667.44c-163.48 0-296.47-133.01-296.47-296.47 0-163.48 133-296.47 296.47-296.47s296.47 133 296.47 296.47c0 163.46-133 296.47-296.47 296.47z"/>
 <path fill="#7b3294" d="m600 60.551c-297.46 0-539.44 241.99-539.44 539.45s241.98 539.45 539.44 539.45c297.45 0 539.44-242 539.44-539.46s-241.99-539.44-539.44-539.44zm0 1004.4c-256.37 0-464.94-208.57-464.94-464.95 0-256.37 208.57-464.94 464.94-464.94 256.37 0 464.94 208.57 464.94 464.95 0 256.37-208.57 464.94-464.94 464.94z"/>
</svg>
