<?xml version="1.0" encoding="UTF-8"?>
<svg id="uuid-bfba87f0-7de2-43ae-9c17-3221947f30fe" data-name="Iconen Weerfenomenen" xmlns="http://www.w3.org/2000/svg" viewBox="0 0 64 64">
  <path d="M57.4944,31.45011l-.05272-.00363c-.04661-.00649-.09322-.00726-.13945-.00248l-3.47593,.9261-4.47844-2.58479,4.47901-2.58498,3.44097,.92629c.04604,.00439,.09246,.00382,.13907-.00248l.05272-.00363c.28902,0,.54309-.19504,.61759-.47413,.04909-.1681,.02617-.34079-.06017-.48253-.08959-.15798-.23095-.26801-.39428-.31271l-2.26615-.60556,1.63252-.92285c.43688-.2554,.59085-.82753,.33869-1.27262-.16505-.29265-.47317-.4726-.80919-.46171-.17097,.00076-.33392,.04375-.47757,.12398l-1.61437,.93584,.60594-2.24762c.04852-.16715,.0226-.33825-.06075-.48215-.08802-.15197-.21395-.25865-.36524-.30411-.04737-.00478-.09551-.00344-.1427,.00267l-.02636,.00315h-.02655c-.29514-.00764-.54137,.19074-.61358,.47059l-.94616,3.50649-4.47844,2.58459v-5.18141l2.55766-2.55766c.24203-.24165,.25005-.6302,.0235-.88102l-.02865-.0298c-.11423-.11863-.27584-.18511-.43936-.18128-.18778-.01089-.35187,.06571-.47279,.18682l-1.64035,1.63997v-1.85907c0-.51214-.41663-.92877-.92858-.92877-.51214,0-.92877,.41663-.92877,.92877v1.85907l-1.64054-1.64035c-.12092-.12035-.29036-.18759-.45923-.18644-.19275,.00287-.33869,.06533-.45541,.18396-.12359,.1234-.19026,.28387-.19045,.45464s.0661,.33143,.18682,.45216l2.55881,2.559v5.18562l-4.43297-2.59032-.93298-3.5021c-.07679-.27756-.33468-.47356-.62638-.47356h-.21338c-.14327,.04814-.26201,.15093-.33793,.28272-.09202,.15974-.11825,.33067-.07183,.49018l.60804,2.25526-1.61972-.9389c-.13811-.07737-.30106-.12016-.46572-.12092-.33907-.01203-.65083,.16925-.81511,.46076-.26266,.45273-.10946,1.02925,.33888,1.28962l1.66671,.94157-2.26844,.60632c-.15282,.04699-.28941,.15951-.37097,.3129-.08157,.15359-.09857,.32971-.04776,.49591,.08119,.26476,.3215,.44958,.59849,.45971h.21166l3.44173-.92008,4.47863,2.58498-4.48054,2.58593-3.44154-.9559h-.22446c-.28921,0-.54328,.19504-.61778,.47413-.04566,.16562-.02216,.34232,.06342,.48769,.08596,.15683,.22427,.26438,.38568,.30603l2.25775,.60326-1.61513,.93603c-.4365,.25941-.58187,.83059-.32035,1.27071,.16447,.2768,.46649,.45082,.78837,.45426,.15836-.00076,.32131-.04375,.46496-.12398l1.61189-.93469-.60307,2.25717c-.0489,.1681-.02598,.34098,.06036,.48273,.08004,.13926,.20325,.23955,.34633,.28711h.213c.29284,0,.55054-.19599,.62829-.47719l.90795-3.48701,4.48015-2.59949v5.18504l-2.59434,2.55785c-.24948,.25063-.24948,.66267,.00267,.91597,.11977,.11729,.28253,.18453,.45522,.18587,.17154-.00096,.33907-.06915,.46668-.19179l1.635-1.65468v1.87875c0,.51195,.41663,.92858,.92877,.92858s.92877-.41663,.92877-.92858v-1.87875l1.64207,1.66174c.13066,.13353,.32207,.21376,.49533,.20784,.1704-.00248,.33296-.0724,.45426-.19714,.12111-.12455,.18644-.28883,.18396-.46267-.00229-.1681-.06839-.32666-.18606-.44681l-2.55479-2.55479v-5.20644l4.47824,2.59835,.9452,3.49025c.07278,.28234,.32226,.47499,.6088,.47499h.03228l.02636,.00315c.04757,.00611,.09532,.00745,.14327,.00267,.15091-.0447,.281-.14728,.35951-.28387,.0915-.15072,.11443-.3236,.06801-.4833l-.60556-2.26558,1.61723,.93775c.1383,.07717,.30125,.12016,.46572,.12092,.24184-.00267,.47413-.10182,.64758-.27909,.17364-.17727,.26763-.41147,.26495-.65962-.00344-.32188-.17746-.62389-.45426-.78837l-1.61112-.93393,2.25412-.6025c.16486-.04241,.29954-.15199,.38301-.29609,.09288-.16035,.11958-.32952,.0724-.48788-.07756-.2896-.33162-.48464-.62065-.48464Z"/>
  <path d="M34.62952,17.34887c.72642-.29393,1.26363-.73592,1.44425-.97821,.37863-.50675,.49842-1.52686-.307-1.94351-.35632-.18466-1.18361-.32791-1.84385-.40111,.04361-2.09238-.29843-4.20393-.63951-4.91594-.45752-.955-2.69552-1.97983-7.82778-3.37864s-7.58078-1.65131-8.4596-1.06054c-.65519,.44047-2.02136,2.08645-3.04547,3.91159-.60607-.27194-1.39164-.56828-1.79243-.58997-.90546-.04965-1.31979,.89017-1.25072,1.51895,.03276,.30044,.27141,.9539,.74822,1.57577-1.38003,1.19597-2.01891,2.09243-2.66352,4.45754l-1.7614,6.46261s-.43613,1.91234-.54077,3.23608c-.03798,.48193,.33566,.93401,.77714,1.05433l3.58115,.97605c.44171,.12039,.96147-.27681,1.17329-.71143,.32441-.66649,.50857-1.09286,.93346-2.35283l13.52404,3.68602c-.27319,1.30131-.33084,1.76217-.38943,2.50111-.038,.482,.20833,1.08799,.64999,1.20837l3.5812,.97607c.44142,.12031,.99284-.07964,1.20465-.51419,.58151-1.19378,1.17599-3.06295,1.17599-3.06295l1.7614-6.46261c.64462-2.36511,.54897-3.46176-.0333-5.19257ZM17.99396,6.91671c.34239-.083,2.60353,.23202,6.76611,1.36654s6.27097,2.01044,6.5239,2.25569c.14356,.63518,.28194,4.8366,.15471,6.36246-1.60607,.05251-5.31725-.62614-8.61202-1.52414s-6.83708-2.19631-8.1944-3.0565c.66455-1.37941,2.91563-4.92958,3.3617-5.40405Zm-2.65263,12.90632l-2.91366-1.07829c-.78938-.29199-1.09005-1.1426-1.02467-1.96745l.13534-.9813c.08372-.60685,.76254-.95625,1.25308-.64515l2.21396,1.40286c.46453,.36748,.73757,.9309,.75121,1.54843l-.04033,1.45371c-.00518,.19295-.20115,.33231-.37493,.26719Zm8.79676,5.19701l-7.33444-1.99902,.36924-1.35475,7.33444,1.99902-.36924,1.35475Zm8.20325-3.55413l-.38136,.91425c-.36213,.74397-1.05283,1.32437-1.8812,1.17544l-3.05791-.54928c-.18273-.03205-.28088-.25157-.1875-.42048l.70288-1.27313c.32509-.5252,.84632-.87215,1.43307-.95309l2.61961-.08546c.58055-.01918,.98821,.62634,.75242,1.19175Z"/>
  <g>
    <path d="M56.04494,53.77612c-4.40628-4.81384-11.53532-7.08819-17.80593-8.22452-.06268,.45245-.14008,.90448-.24872,1.35364-.30774,1.27222-.78406,2.453-1.41736,3.53882,5.85718,1.41278,12.46102,3.77935,15.14236,9.18346h7.87013c-.73981-2.16946-1.98044-4.14705-3.54048-5.85139Z"/>
    <path d="M29.05011,47.19643c.58417-.81647,.80377-1.85138,.7915-2.93884-2.06818-.27093-4.13855-.52692-6.20477-.80957-4.41498-.60394-9.28973-1.99152-11.12311-6.51617-.52124-1.28632-.70081-2.70587-.53802-4.08301,.03192-.2699,.16589-1.17554,.91754-3.0578h-4.2962c-.75769,1.8407-.9566,3.47961-.97394,3.81921-.07349,1.43817,.21448,2.89099,.77081,4.21576,2.76202,6.57757,9.7395,8.80493,16.1134,10.25311,.12939,.02942,.25885,.05841,.38843,.08698,.68909,.1521,1.41034,.29358,2.14441,.43201,.83649-.33197,1.56415-.77856,2.00995-1.40167Z"/>
    <path d="M32.55481,35.0472c-.20221-.17364-.4397-.41342-.87439-.70645h-4.58484c1.23315,1.32977,2.54199,3.05942,3.38385,4.67557,.83569,1.60431,1.41443,3.59851,1.37341,5.51709-.02936,1.37115-.37286,2.70398-1.17615,3.82678-.20282,.28345-.43567,.53735-.68837,.77003-1.97353,1.817-4.87976,2.09525-7.41493,2.42724-3.42441,.44844-6.98056,.5495-10.31313,1.51265-1.80748,.52238-3.5328,1.32651-5.09743,2.37114-1.59583,1.06546-2.69241,2.5012-3.59795,4.18627h7.47088c.25653-.30109,.5376-.56683,.85022-.76544,1.13593-.72168,2.4444-1.12964,3.75409-1.39893,3.63489-.74725,7.3739-.9491,10.93457-2.0611,3.23535-1.01038,6.1225-2.74646,7.91827-5.42535,.69452-1.03613,1.23102-2.20874,1.55347-3.54175,.09821-.40607,.15674-.81677,.21161-1.22736,.50458-3.77734-.79602-7.66363-3.70319-10.1604Z"/>
  </g>
</svg>