<?xml version="1.0" encoding="utf-8"?>
<!-- Generator: Adobe Illustrator 27.8.1, SVG Export Plug-In . SVG Version: 6.00 Build 0)  -->
<svg version="1.2" baseProfile="tiny" xmlns="http://www.w3.org/2000/svg" xmlns:xlink="http://www.w3.org/1999/xlink" x="0px"
	 y="0px" width="64px" height="64px" viewBox="0 0 64 64" overflow="visible" xml:space="preserve">
<g id="box">
	<rect x="0" fill="none" width="64" height="64"/>
</g>
<g id="icon">
	<g>
		<path fill="#FFB612" d="M12.729,27.42c-0.543-0.298-1.056-0.672-1.516-1.132c-2.608-2.608-2.608-6.837,0-9.445
			s6.837-2.608,9.445,0c0.187,0.187,0.357,0.385,0.518,0.588c0.958-0.344,1.968-0.574,3.017-0.665
			c0.246-1.876,1.675-4.371,2.497-5.675c0.135-0.215-0.104-0.468-0.324-0.341c-1.759,1.016-5.591,3.067-6.966,2.463
			c-1.606-0.602-2.735-4.624-3.202-6.599c-0.059-0.248-0.413-0.248-0.471,0c-0.456,1.951-1.573,5.901-3.219,6.599
			c-1.562,0.71-5.214-1.331-6.94-2.397c-0.217-0.134-0.468,0.117-0.333,0.333c1.057,1.702,3.064,5.28,2.395,6.938l0.012-0.001
			C7.164,19.95,3.01,20.92,0.939,21.314c-0.26,0.049-0.263,0.415-0.005,0.471c2.002,0.438,6.115,1.647,6.701,3.192
			C8.616,26.633,6.359,30.256,5.173,32c-0.149,0.219,0.107,0.48,0.329,0.337c1.171-0.751,3.287-1.939,4.996-2.413
			C11.101,28.982,11.854,28.14,12.729,27.42z"/>
		<path fill="#696969" d="M46.72,25.05C46.271,19.435,41.566,15,35.837,15c-3.457,0-6.538,1.618-8.542,4.131
			c-0.661-0.139-1.344-0.214-2.046-0.214c-5.277,0-9.593,4.141-9.898,9.343C12.757,29.716,11,32.49,11,35.678
			c0,2.488,1.068,4.726,2.771,6.28C15.977,43.972,19.172,45,31.144,45c9.141,0,13.569-0.597,16.29-1.86
			C51.433,41.283,53,37.299,53,34.269C53,30.077,50.396,26.501,46.72,25.05z M46.17,40.419C43.783,41.527,39.289,42,31.144,42
			c-11.892,0-14.047-1.068-15.35-2.257C14.637,38.687,14,37.243,14,35.678c0-2.682,1.929-4.92,4.472-5.405
			c-0.097-0.461-0.149-0.939-0.149-1.429c0-3.826,3.101-6.927,6.927-6.927c1.203,0,2.334,0.308,3.32,0.847
			C29.792,19.961,32.584,18,35.837,18c4.378,0,7.927,3.549,7.927,7.927c0,3.016-1.685,5.638-4.164,6.978c0,0,0,0,0,0
			c0.044,0.155,0.298,0.235,0.525,0.247c2.082,0.106,4.934-2.378,6.165-5.007c2.202,1.158,3.71,3.466,3.71,6.122
			C50,36.286,48.997,39.106,46.17,40.419z"/>
	</g>
</g>
</svg>
