<?xml version="1.0" encoding="UTF-8"?>
<svg id="uuid-f98952a4-bf69-4e6c-ad5d-a74dc343a430" data-name="Iconen Weerfenomenen" xmlns="http://www.w3.org/2000/svg" viewBox="0 0 64 64">
  <path d="M29.39424,40.93502V12.40769c-.00625-3.26013-2.64755-5.90452-5.90769-5.90769-3.30665-.00322-5.98721,2.6804-5.9873,5.98705v28.44797c-3.98455,3.28469-4.55181,9.17757-1.26712,13.16212s9.17757,4.5519,13.16212,1.26721,4.55189-9.17757,1.26721-13.16212c-.38085-.462-.8052-.88635-1.26721-1.26721Zm.29538,9.97491c-.93729,2.18577-2.97911,3.6752-5.33964,3.96497-.51193,.06284-.56805-.06817-.54532-.21586,3.38093-1.34649,5.03017-5.17883,3.68368-8.55976-.47559-1.19416-1.29005-2.22314-2.34309-2.96024v-5.21467h-2.54485v-1.69278h2.54485v-4.24899h-2.54485v-1.69278h2.54485v-4.24899h-2.54485v-1.70414h2.54485v-4.06722h-5.0897v-7.82769c0-1.88234,1.52594-3.40828,3.40828-3.40828,1.88234,0,3.40828,1.52594,3.40828,3.40828v29.79976c3.01096,1.74369,4.22541,5.47519,2.81752,8.65704v.01136Z"/>
  <path d="M49.73394,25.4225c-1.80406-.39016-6.5603-1.30508-7.10201-2.83814-.56438-1.59775,1.22966-4.75072,2.1522-6.21397,.12036-.19067-.09217-.41533-.28755-.3025-1.56244,.90278-4.97198,2.7241-6.19321,2.1877-1.23196-.54101-2.37536-5.92421-2.84084-7.63178-.05847-.21464-.36218-.21022-.41513,.00582-.3691,1.50949-1.24139,5.90967-2.43383,7.27723v2.80744c.77621-.41202,1.66054-.64742,2.60053-.64742,3.06942,0,5.55742,2.4882,5.55742,5.55742s-2.488,5.55752-5.55742,5.55752c-.93999,0-1.82432-.2355-2.60053-.64742v2.84466c1.11943,1.23989,2.01669,5.0138,2.37456,6.61516,.05165,.23089,.38274,.22768,.42185-.00572,.29137-1.73907,1.46987-6.21417,2.8934-6.95377,1.28472-.66748,4.75172,1.07199,6.22029,2.13274,.19337,.13972,.43449-.09037,.3035-.29006-1.01-1.54078-2.8609-4.58282-2.19523-6.17144,.70048-1.67087,5.33656-2.51819,7.09679-2.86482,.23008-.04513,.2343-.3692,.00522-.41864Z"/>
</svg>