<?xml version="1.0" encoding="UTF-8"?>
<svg id="uuid-e43cc430-1a50-4ec0-8dd9-643443d34b44" data-name="Iconen Weerfenomenen" xmlns="http://www.w3.org/2000/svg" viewBox="0 0 64 64">
  <path d="M27.22981,9.29287c-8.17876,2.40426-9.41059,6.46273-6.86209,8.66187,5.118-4.39852,13.97878-3.57355,14.86785-3.49672,.29046,.02506,.37503,.16695,.33907,.26084-4.57294,.59033-9.96075,2.25311-12.17341,4.83817,1.76397,.60088,4.10683,1.02937,7.03915,1.08554,10.94501,.2095,15.5976-5.34517,16.29273-6.26605,.12774-.00088,.15991,.23499,.09556,.49231-.29222,1.1688-1.43657,4.78156-7.08196,6.82772-7.36961,2.67113-19.43173,2.34208-23.123-3.10938-2.2735-3.35755,.49336-7.88205,4.9493-9.98584-7.04038,1.20456-14.20797,8.26478-8.50597,14.79307,6.56776,7.51942,18.63867,5.79167,23.42225,5.05523,.09336,.0822,.08404,.29644-.31235,.54506-2.12414,1.33231-11.30018,3.67043-19.08913,.28844,1.03569,1.60968,2.56475,5.02745,3.07403,8.19502-1.22462,.54743-1.65864,1.39447-1.64862,1.97311,.05196,2.97927,7.55819,4.01892,10.62369,3.96925,.03262,.09486-.03604,.21055-.34427,.31332-.51253,.17081-3.90279,.85003-8.25251,.05547,.35411,2.47702,1.55271,4.94305,5.75132,7.65586,2.91474,1.88317,7.03256,3.62278,10.70317,4.33707,.84431,.16431,1.45574-.78989,.96897-1.499-.68-.99042-1.57873-2.36027-2.36581-3.83492-3.11439,.55209-5.26077,.04501-6.03194-.1847-.17732-.05284-.39182-.16308-.32774-.28712,2.13021-.01785,6.38965-.42347,6.84038-2.46761,.12414-.56282-.40378-1.56475-2.22788-2.00027-.35314-3.91993,3.33944-6.53137,5.81233-8.42984-6.15809,.9855-11.45798-.57969-12.21227-.78312-.28202-.07604-.34892-.22602-.29829-.30664,4.05672,.0611,9.22967,.07288,13.39716-1.07438,8.16918-1.99421,9.08619-4.91879,6.11633-6.12934,1.27605-2.72889,1.57592-4.72195,1.57592-4.72195,0,0,4.97901-3.87747,4.75061-7.7028-.39174-6.56197-15.48006-10.09035-25.76257-7.06766Z"/>
</svg>