<?xml version="1.0" encoding="UTF-8"?>
<svg id="uuid-3c980edd-a2ce-4e7f-9bd9-243b26e26cf8" data-name="Iconen Weerfenomenen" xmlns="http://www.w3.org/2000/svg" viewBox="0 0 64 64">
  <path d="M29.40507,40.93502V12.40769c-.00625-3.26013-2.64755-5.90452-5.90769-5.90769-3.30665-.00322-5.98721,2.6804-5.9873,5.98705v28.44797c-3.98455,3.28469-4.55181,9.17757-1.26712,13.16212,3.28469,3.98455,9.17757,4.5519,13.16212,1.26721s4.55189-9.17757,1.26721-13.16212c-.38085-.462-.8052-.88635-1.26721-1.26721Zm.29538,9.97491c-.93729,2.18577-2.97911,3.6752-5.33964,3.96497-.51193,.06284-.56805-.06817-.54532-.21586,3.38093-1.34649,5.03017-5.17883,3.68368-8.55976-.47559-1.19416-1.29005-2.22314-2.34309-2.96024v-5.21467h-2.54485v-1.69278h2.54485v-4.24899h-2.54485v-1.69278h2.54485v-4.24899h-2.54485v-1.70414h2.54485v-4.06722h-5.0897v-7.82769c0-1.88234,1.52594-3.40828,3.40828-3.40828,1.88234,0,3.40828,1.52594,3.40828,3.40828v29.79976c3.01096,1.74369,4.22541,5.47519,2.81752,8.65704v.01136Z"/>
  <path d="M49.86433,26.66247c-.09278-.34643-.39668-.57982-.74251-.57982l-.06299-.00431c-.05577-.00772-.11153-.00863-.1669-.00291l-4.15796,1.10779-5.35722-3.09199,5.35793-3.09219,4.11613,1.10799c.05516,.00532,.11063,.00461,.16639-.00291l.06309-.00431c.34573,0,.64963-.23339,.7388-.56729,.05867-.201,.03129-.40761-.07201-.57712-.10712-.18896-.27622-.32065-.4716-.37411l-2.71086-.72435,1.9528-1.10398c.52265-.30551,.7068-.98994,.4052-1.52232-.19749-.35014-.56608-.56538-.96798-.55234-.20451,.0009-.39949,.05236-.5713,.14834l-1.93114,1.11943,.72485-2.68859c.05797-.19999,.02698-.40467-.07272-.57681-.10526-.18176-.25586-.30942-.4369-.36378-.05667-.00572-.11424-.00411-.17071,.00321l-.03149,.00371h-.03179c-.35305-.00913-.64762,.22818-.73398,.56297l-1.13176,4.19457-5.35732,3.09179v-6.19812l3.05959-3.05959c.28956-.28906,.29909-.75384,.02808-1.05393l-.0342-.03561c-.13671-.14192-.32998-.22146-.52566-.21684-.22457-.01304-.42085,.07863-.56558,.22346l-1.96223,1.96183v-2.22391c0-.61272-.49828-1.111-1.1107-1.111-.61272,0-1.1111,.49828-1.1111,1.111v2.22391l-1.96243-1.96223c-.14463-.14403-.34733-.22447-.54933-.22306-.23059,.00341-.4051,.07813-.54472,.22005-.14784,.14764-.22768,.33961-.22788,.54382-.0002,.20431,.07903,.39648,.22346,.54091l3.0609,3.0612v6.20314l-3.3642-1.96584v2.57194l2.33665,1.34861-2.33665,1.34851v2.50976l3.41956-1.9841v6.20254l-3.10342,3.05979c-.29849,.29979-.29849,.79266,.00321,1.09566,.14323,.14032,.3379,.22076,.54452,.22236,.20521-.0011,.40561-.08275,.55826-.22938l1.95581-1.97938v2.24738c0,.61242,.49838,1.1108,1.111,1.1108s1.1111-.49838,1.1111-1.1108v-2.24738l1.96424,1.98781c.15626,.15967,.38525,.25576,.59256,.24864,.20381-.00301,.39828-.08666,.54342-.2358,.14483-.14904,.22296-.34553,.22005-.55345-.00281-.2012-.08184-.39076-.22266-.53459l-3.05608-3.05608v-6.22811l5.35702,3.10824,1.13066,4.17521c.08706,.3377,.38555,.56819,.72826,.56819h.03861l.03149,.00371c.05697,.00732,.11414,.00893,.17141,.00321,.18054-.05346,.3362-.17612,.43008-.33961,.10943-.18024,.13691-.38705,.08134-.57812l-.72435-2.71016,1.93455,1.12183c.16549,.09227,.36037,.14373,.55716,.14463,.28926-.00321,.56719-.12176,.7746-.33389,.20772-.21203,.32015-.49216,.31694-.78905-.00411-.38504-.21223-.74632-.54342-.943l-1.92723-1.11722,2.69641-.72074c.19729-.05075,.35836-.18187,.45816-.35415,.1111-.19179,.14313-.39417,.08666-.58363Z"/>
</svg>