<?xml version="1.0" encoding="utf-8"?>
<!-- Generator: Adobe Illustrator 27.8.1, SVG Export Plug-In . SVG Version: 6.00 Build 0)  -->
<svg version="1.2" baseProfile="tiny" xmlns="http://www.w3.org/2000/svg" xmlns:xlink="http://www.w3.org/1999/xlink" x="0px"
	 y="0px" width="64px" height="64px" viewBox="0 0 64 64" overflow="visible" xml:space="preserve">
<g id="box">
	<rect x="0" fill="none" width="64" height="64"/>
</g>
<g id="icon">
	<g>
		<path d="M12.906,10.906c0-0.781-0.874-0.781-1.953-0.781c-1.079,0-1.953,0-1.953,0.781V57h3.906L12.906,10.906z"/>
		<path d="M19.422,34.243l-7.4-9.819c-0.456-0.604-0.456-1.438,0-2.042l7.4-9.818l1.917,1.444l-7.081,9.395l7.081,9.396
			L19.422,34.243z"/>
		<g>
			<path d="M55.92,17.684c-0.355-1.133-1.327-1.964-2.502-2.139l-30.714-4.568c-0.344-0.051-0.991-0.087-1.71,0.231
				c-2.04,0.902-4.235,5.104-4.235,12.198c0,5.933,1.69,10.921,4.111,12.13c0.503,0.251,1.171,0.41,1.915,0.281l30.721-5.33
				c1.131-0.196,2.061-1.001,2.417-2.092c0.417-1.277,0.708-3.447,0.708-5.279C56.631,21.038,56.274,18.811,55.92,17.684z
				 M27.723,31.814l-5.468,0.949c-0.689-0.344-2.396-3.511-2.396-9.356c0-5.904,1.739-9.075,2.389-9.363l5.544,0.824
				c-0.968,1.845-1.566,4.976-1.566,8.538C26.227,26.88,26.795,29.952,27.723,31.814z M41.194,29.477l-6.917,1.2
				c-0.677-1.86-1.136-4.42-1.136-7.263c0-3.004,0.51-5.686,1.253-7.564l6.99,1.04c-0.689,1.502-1.134,3.865-1.134,6.524
				C40.25,25.818,40.615,27.974,41.194,29.477z M52.976,27.432l-4.994,0.866c-0.472-1.238-0.78-2.984-0.78-4.926
				c0-2.245,0.411-4.229,1.011-5.467l4.748,0.706c0.264,0.841,0.569,2.747,0.569,4.505C53.531,24.834,53.236,26.638,52.976,27.432z"
				/>
		</g>
	</g>
</g>
</svg>
