<?xml version="1.0" encoding="utf-8"?>
<!-- Generator: Adobe Illustrator 27.8.1, SVG Export Plug-In . SVG Version: 6.00 Build 0)  -->
<svg version="1.2" baseProfile="tiny" xmlns="http://www.w3.org/2000/svg" xmlns:xlink="http://www.w3.org/1999/xlink" x="0px"
	 y="0px" width="64px" height="64px" viewBox="0 0 64 64" overflow="visible" xml:space="preserve">
<g id="box">
	<rect fill="none" width="64" height="64"/>
</g>
<g id="icon">
	<g>
		<path d="M33.833,24.5c0-0.829-0.671-1.5-1.5-1.5H6c-0.829,0-1.5,0.671-1.5,1.5S5.171,26,6,26h26.333
			C33.162,26,33.833,25.329,33.833,24.5z"/>
		<path d="M46,24.5c0,0.829,0.671,1.5,1.5,1.5h8.667c0.829,0,1.5-0.671,1.5-1.5s-0.671-1.5-1.5-1.5H47.5
			C46.671,23,46,23.671,46,24.5z"/>
		<path d="M59.625,30H16.5c-0.829,0-1.5,0.671-1.5,1.5s0.671,1.5,1.5,1.5h43.125c0.829,0,1.5-0.671,1.5-1.5S60.454,30,59.625,30z"/>
		<path d="M20.75,38.5c0-0.829-0.671-1.5-1.5-1.5H10.5C9.671,37,9,37.671,9,38.5S9.671,40,10.5,40h8.75
			C20.079,40,20.75,39.329,20.75,38.5z"/>
		<path d="M47,40c0.829,0,1.5-0.671,1.5-1.5S47.829,37,47,37H26.75c-0.829,0-1.5,0.671-1.5,1.5s0.671,1.5,1.5,1.5H47z"/>
		<path d="M53,44H19.5c-0.829,0-1.5,0.671-1.5,1.5s0.671,1.5,1.5,1.5H53c0.829,0,1.5-0.671,1.5-1.5S53.829,44,53,44z"/>
		<path d="M13.833,19h32.542c0.829,0,1.5-0.671,1.5-1.5s-0.671-1.5-1.5-1.5H13.833c-0.829,0-1.5,0.671-1.5,1.5S13.005,19,13.833,19z
			"/>
	</g>
</g>
</svg>
