<?xml version="1.0" encoding="utf-8"?>
<!-- Generator: Adobe Illustrator 27.8.1, SVG Export Plug-In . SVG Version: 6.00 Build 0)  -->
<svg version="1.2" baseProfile="tiny" xmlns="http://www.w3.org/2000/svg" xmlns:xlink="http://www.w3.org/1999/xlink" x="0px"
	 y="0px" width="64px" height="64px" viewBox="0 0 64 64" overflow="visible" xml:space="preserve">
<g id="box">
	<rect fill="none" width="64" height="64"/>
</g>
<g id="icon">
	<g>
		<path d="M44.485,49.332c-2.487,2.116-5.824,2.857-9.155,2.034c-3.338-0.825-5.949-3.046-7.164-6.094
			c-1.038-2.603-0.956-5.518,0.231-8.207c2.38-5.391,9.016-9.581,14.547-16.487c1.675,8.665,5.607,15.529,5.185,21.355
			C47.916,44.886,46.621,47.514,44.485,49.332z"/>
		<path d="M25.575,30.557c-1.628,1.385-3.813,1.871-5.994,1.331c-2.186-0.54-3.895-1.995-4.691-3.99
			c-0.68-1.704-0.626-3.613,0.151-5.374c1.558-3.53,5.904-6.273,9.525-10.795c1.097,5.673,3.671,10.168,3.395,13.983
			C27.822,27.646,26.974,29.366,25.575,30.557z"/>
	</g>
</g>
</svg>
