<svg xmlns="http://www.w3.org/2000/svg" width="121" height="121" viewBox="0 0 121 121"><g fill="none" fill-rule="evenodd" transform="translate(12 12)"><path fill="#000" d="M48,0 C21.490332,0 0,21.490332 0,48 C0,74.509668 21.490332,96 48,96 C74.509668,96 96,74.509668 96,48 C96,21.490332 74.509668,0 48,0 Z M48,6 C71.1959595,6 90,24.8040405 90,48 C90,71.1959595 71.1959595,90 48,90 C24.8040405,90 6,71.1959595 6,48 C6,24.8040405 24.8040405,6 48,6 Z"/><circle cx="48" cy="48" r="42" fill="#FFF"/><path fill="#000" d="M62.4000001,27.6 L56.4000001,17.0999999 L42,25.4999999 L42,8.99999989 L30,8.99999989 L30,25.4999999 L15.5999999,17.3999999 L9.59999989,27.9 L23.9999999,35.9999999 L9.59999989,44.4 L15.5999999,54.9000001 L30,46.4999999 L30,62.9999999 L42,62.9999999 L42,46.4999999 L56.4000001,54.9000001 L62.4000001,44.4 L48,35.9999999 L62.4000001,27.6 Z M36,17.6999999 C36.3,17.6999999 36.9,17.6999999 37.2,17.9999999 C37.5,18.2999999 37.8,18.2999999 37.8,18.8999999 L37.8,22.4999999 C37.2,21.8999999 36.6,21.5999999 35.7,21.5999999 C35.4,21.5999999 35.4,21.5999999 35.4,21.2999999 C35.4,21.2999999 35.4,21.2999999 35.4,21.2999999 L35.4,18.8999999 C35.1,18.2999999 35.4,17.9999999 36,17.6999999 Z M37.5,23.3999999 L37.5,23.3999999 C37.5,27.3 37.2,31.2 37.2,34.8 L37.2,35.1 L35.7,36.6 L35.4,36.6 L35.4,36.3 C35.4,32.3999999 35.1,28.8 35.1,24.8999999 C35.1,24.6 35.1,24.6 35.4,24.6 C36.3,24.6 36.9,24 37.5,23.3999999 Z M35.1,21.8999999 C35.7,21.8999999 36.3,21.8999999 36.6,22.1999999 C37.2,22.4999999 37.5,23.0999999 36.9,23.3999999 C36.6,24 36,24.3 35.4,24.3 L34.8,24.3 C33.9,24.3 33,25.2 33.3,26.1 C33.3,26.3999999 33.3,26.3999999 33.3,26.7 C33.6,27.3 33.9,27.6 34.2,28.2 L34.5,28.5 L34.5,31.8 L33.9,31.2 C32.4,29.7 31.5,27.8999999 31.5,25.8 C31.8,23.6999999 33.3,22.1999999 35.1,21.8999999 L35.1,21.8999999 L35.1,21.8999999 Z M38.1,54.0000001 C37.8,54.9000001 37.2,56.1000001 36.6,56.7000001 C36.3,57.0000001 36.3,57.0000001 36,57.0000001 C36,57.0000001 35.7,56.7000001 36,56.7000001 C36.3,56.1000001 36.6,55.5000001 37.2,54.9000001 C37.5,54.6000001 37.5,54.3000001 37.5,54.0000001 L37.5,52.5000001 C37.8,52.5000001 38.1,53.1000001 38.1,54.0000001 L38.1,54.0000001 L38.1,54.0000001 Z M36,49.8000001 L36,49.8000001 C36.3,49.2000001 36.6,48.6000001 37.2,48.3000001 L37.2,54.6000001 C36.9,54.9000001 36.6,55.5000001 36.6,56.1000001 L36.6,55.8000001 C36,53.7000001 36,51.9000001 36,49.8000001 Z M39,45.6 C38.7,46.2 38.7,46.5 38.1,46.8 L36.3,48.6000001 C35.7,49.2 35.4,49.8000001 35.1,50.4000001 L35.1,51.3000001 C34.5,51.0000001 34.2,50.7 34.2,50.1000001 C34.2,48.9000001 34.8,47.7 35.7,46.8 C36,46.5 36.6,46.2 36.9,45.9 C37.5,45.3 37.8,44.4 38.1,43.5 L38.1,41.7 L38.7,42.3 C39,42.9 39,43.5 39.3,44.1 C39,44.7 39,45 39,45.6 L39,45.6 Z M35.7,40.8 L35.7,40.5 C36,39.9 36.6,39.6 37.2,39 L37.2,44.7 C37.2,45 37.2,45 36.9,45.3 L35.7,46.5 C35.7,46.5 35.7,40.8 35.7,40.8 Z M39,37.2 C38.4,37.8 37.5,38.4 36.9,39 C36.3,39.6 36,39.9 35.4,40.2 C35.1,40.5 34.8,41.1 34.8,41.7 L34.8,41.7 C33.9,40.8 33.6,39.6 34.2,38.4 L37.8,34.8 C38.1,34.5 38.4,34.2 38.4,33.6 L38.4,30.9 L38.7,30.9 C39.6,31.5 40.2,32.4 40.2,33.6 C40.2,35.4 39.9,36.6 39,37.2 Z" transform="translate(12 12)"/></g></svg>