<svg xmlns="http://www.w3.org/2000/svg" width="121" height="121" viewBox="0 0 121 121"><g fill="none" fill-rule="evenodd" transform="translate(12 12)"><path fill="#000" d="M48,0 C21.490332,0 0,21.490332 0,48 C0,74.509668 21.490332,96 48,96 C74.509668,96 96,74.509668 96,48 C96,21.490332 74.509668,0 48,0 Z M48,6 C71.1959595,6 90,24.8040405 90,48 C90,71.1959595 71.1959595,90 48,90 C24.8040405,90 6,71.1959595 6,48 C6,24.8040405 24.8040405,6 48,6 Z"/><circle cx="48" cy="48" r="42" fill="#FFF"/><g fill="#000" fill-rule="nonzero" transform="translate(13.318 36.164)"><path d="M12.4453125,24.2578125 C11.0390625,24.2578125 9.75585938,24.09375 8.59570312,23.765625 C7.43554687,23.4375 6.39257812,22.9892578 5.46679688,22.4208984 C4.54101562,21.8525391 3.73828125,21.1816406 3.05859375,20.4082031 C2.37890625,19.6347656 1.81054688,18.7998047 1.35351562,17.9033203 C0.896484375,17.0068359 0.556640625,16.0664062 0.333984375,15.0820312 C0.111328125,14.0976563 0,13.1132812 0,12.1289062 C0,11.1445312 0.111328125,10.1601562 0.333984375,9.17578125 C0.556640625,8.19140625 0.896484375,7.24804688 1.35351562,6.34570312 C1.81054688,5.44335938 2.37890625,4.60546875 3.05859375,3.83203125 C3.73828125,3.05859375 4.54101562,2.38769531 5.46679688,1.81933594 C6.39257812,1.25097656 7.43554687,0.805664062 8.59570312,0.483398437 C9.75585938,0.161132813 11.0390625,0 12.4453125,0 C13.8515625,0 15.1376953,0.161132813 16.3037109,0.483398437 C17.4697266,0.805664062 18.5126953,1.25097656 19.4326172,1.81933594 C20.3525391,2.38769531 21.1552734,3.05859375 21.8408203,3.83203125 C22.5263672,4.60546875 23.0947266,5.44335938 23.5458984,6.34570312 C23.9970703,7.24804688 24.3339844,8.19140625 24.5566406,9.17578125 C24.7792969,10.1601562 24.890625,11.1445312 24.890625,12.1289062 C24.890625,13.1132812 24.7792969,14.0976563 24.5566406,15.0820312 C24.3339844,16.0664062 23.9970703,17.0068359 23.5458984,17.9033203 C23.0947266,18.7998047 22.5263672,19.6347656 21.8408203,20.4082031 C21.1552734,21.1816406 20.3525391,21.8525391 19.4326172,22.4208984 C18.5126953,22.9892578 17.4697266,23.4375 16.3037109,23.765625 C15.1376953,24.09375 13.8515625,24.2578125 12.4453125,24.2578125 Z M12.4453125,18.703125 C13.2304688,18.703125 13.9658203,18.5654297 14.6513672,18.2900391 C15.3369141,18.0146484 15.9345703,17.6015625 16.4443359,17.0507812 C16.9541016,16.5 17.3525391,15.8144531 17.6396484,14.9941406 C17.9267578,14.1738281 18.0703125,13.21875 18.0703125,12.1289062 C18.0703125,11.0390625 17.9267578,10.0839844 17.6396484,9.26367188 C17.3525391,8.44335938 16.9541016,7.7578125 16.4443359,7.20703125 C15.9345703,6.65625 15.3369141,6.24316406 14.6513672,5.96777344 C13.9658203,5.69238281 13.2304688,5.5546875 12.4453125,5.5546875 C11.6601562,5.5546875 10.9277344,5.69238281 10.2480469,5.96777344 C9.56835938,6.24316406 8.97363281,6.65625 8.46386719,7.20703125 C7.95410156,7.7578125 7.55273438,8.44335938 7.25976562,9.26367188 C6.96679688,10.0839844 6.8203125,11.0390625 6.8203125,12.1289062 C6.8203125,13.21875 6.96679688,14.1738281 7.25976562,14.9941406 C7.55273438,15.8144531 7.95410156,16.5 8.46386719,17.0507812 C8.97363281,17.6015625 9.56835938,18.0146484 10.2480469,18.2900391 C10.9277344,18.5654297 11.6601562,18.703125 12.4453125,18.703125 Z"/><polygon points="26.227 6.258 32.941 6.258 36.141 17.473 39.27 6.258 45.352 6.258 39.34 23.836 32.238 23.836"/><path d="M47.9179688,0.421875 L57.4804688,0.421875 C59.4140625,0.421875 61.1191406,0.703125 62.5957031,1.265625 C64.0722656,1.828125 65.3115234,2.62207031 66.3134766,3.64746094 C67.3154297,4.67285156 68.0742188,5.90625 68.5898438,7.34765625 C69.1054688,8.7890625 69.3632812,10.3828125 69.3632812,12.1289062 C69.3632812,13.875 69.1054688,15.46875 68.5898438,16.9101562 C68.0742188,18.3515625 67.3154297,19.5849609 66.3134766,20.6103516 C65.3115234,21.6357422 64.0722656,22.4296875 62.5957031,22.9921875 C61.1191406,23.5546875 59.4140625,23.8359375 57.4804688,23.8359375 L47.9179688,23.8359375 L47.9179688,0.421875 Z M57.1992188,18.5625 C58.2070312,18.5625 59.0566406,18.3779297 59.7480469,18.0087891 C60.4394531,17.6396484 60.9960938,17.1533203 61.4179688,16.5498047 C61.8398438,15.9462891 62.1445312,15.2578125 62.3320312,14.484375 C62.5195312,13.7109375 62.6132812,12.9257812 62.6132812,12.1289062 C62.6132812,11.3320312 62.5195312,10.546875 62.3320312,9.7734375 C62.1445312,9 61.8398438,8.31152344 61.4179688,7.70800781 C60.9960938,7.10449219 60.4394531,6.61816406 59.7480469,6.24902344 C59.0566406,5.87988281 58.2070312,5.6953125 57.1992188,5.6953125 L54.3867188,5.6953125 L54.3867188,18.5625 L57.1992188,18.5625 Z"/></g></g></svg>