<svg xmlns="http://www.w3.org/2000/svg" width="121" height="121" viewBox="0 0 121 121"><g fill="none" fill-rule="evenodd" transform="translate(19)"><path fill="#000" d="M72,0 L12,0 C5.3862915,0 0,5.3862915 0,12 L0,75.6 C0,78.7415427 1.26817355,81.7534549 3.55735931,84.0426407 L37.4387106,118.22391 C39.771575,120.577419 43.5706542,120.594082 45.9240736,118.261127 L80.4240736,84.0611269 C82.7318264,81.7534549 84,78.7415427 84,75.6 L84,12 C84,5.3862915 78.6137085,0 72,0 Z M72,6 C75.3,6 78,8.7 78,12 L78,75.6 C78,77.1 77.4,78.6 76.2,79.8 L41.7,114 L7.8,79.8 C6.6,78.6 6,77.1 6,75.6 L6,12 C6,8.7 8.7,6 12,6 L72,6 Z"/><path fill="#D5D5D5" d="M76.2,79.8 L41.7,114 L7.8,79.8 C6.6,78.6 6,77.1 6,75.6 L6,12 C6,8.7 8.7,6 12,6 L72,6 C75.3,6 78,8.7 78,12 L78,75.6 C78,77.1 77.4,78.6 76.2,79.8 Z"/><path fill="#000" d="M49.4999999,8.99999989 C44.4,8.99999989 39.3,11.3999999 35.9999999,15.2999999 C32.7,11.3999999 27.6,8.99999989 22.4999999,8.99999989 C13.1999999,8.99999989 5.99999987,16.1999999 5.99999987,25.4999999 C5.99999987,36.9 16.1999999,46.2 31.4999999,59.9999999 L35.9999999,63.9000001 L40.4999999,59.9999999 C55.8000001,45.9 65.9999999,36.6 65.9999999,25.4999999 C65.9999999,16.1999999 58.8000001,8.99999989 49.4999999,8.99999989 Z M48,38.9999999 L39,38.9999999 L39,47.9999999 L33,47.9999999 L33,38.9999999 L23.9999999,38.9999999 L23.9999999,32.9999999 L33,32.9999999 L33,23.9999999 L39,23.9999999 L39,32.9999999 L48,32.9999999 L48,38.9999999 Z" transform="translate(6 12)"/></g></svg>