<svg xmlns="http://www.w3.org/2000/svg" width="121" height="121" viewBox="0 0 121 121"><g fill="none" fill-rule="evenodd" transform="translate(19)"><path fill="#000" d="M72,0 L12,0 C5.3862915,0 0,5.3862915 0,12 L0,75.6 C0,78.7415427 1.26817355,81.7534549 3.55735931,84.0426407 L37.4387106,118.22391 C39.771575,120.577419 43.5706542,120.594082 45.9240736,118.261127 L80.4240736,84.0611269 C82.7318264,81.7534549 84,78.7415427 84,75.6 L84,12 C84,5.3862915 78.6137085,0 72,0 Z M72,6 C75.3,6 78,8.7 78,12 L78,75.6 C78,77.1 77.4,78.6 76.2,79.8 L41.7,114 L7.8,79.8 C6.6,78.6 6,77.1 6,75.6 L6,12 C6,8.7 8.7,6 12,6 L72,6 Z"/><path fill="#D5D5D5" d="M76.2,79.8 L41.7,114 L7.8,79.8 C6.6,78.6 6,77.1 6,75.6 L6,12 C6,8.7 8.7,6 12,6 L72,6 C75.3,6 78,8.7 78,12 L78,75.6 C78,77.1 77.4,78.6 76.2,79.8 Z"/><path fill="#000" d="M66.6000001,27.5999999 C66.6000001,15.8999999 57.3000001,6.59999988 45.6,6.59999988 C33.9,6.59999988 24.6,15.8999999 24.6,27.5999999 C24.6,38.0999999 32.1,46.5 41.9999999,48.3000001 L41.9999999,60.0000001 L17.9999999,60.0000001 L17.9999999,51.0000001 L20.9999999,51.0000001 L20.9999999,39 C20.9999999,37.2 19.7999999,36 17.9999999,36 L8.99999987,36 C7.49999987,36 5.99999987,37.2 5.99999987,39 L5.99999987,51.0000001 L8.99999987,51.0000001 L8.99999987,66.0000001 L56.9999999,66.0000001 L56.9999999,60.0000001 L47.9999999,60.0000001 L47.9999999,48.3000001 C58.4999999,47.0999999 66.6000001,38.4 66.6000001,27.5999999 Z M13.4999999,32.9999999 C15.8999999,32.9999999 17.9999999,30.9 17.9999999,28.4999999 C17.9999999,26.1 15.8999999,23.9999999 13.4999999,23.9999999 C11.0999999,23.9999999 8.99999989,26.1 8.99999989,28.4999999 C8.99999989,30.9 11.0999999,32.9999999 13.4999999,32.9999999 Z" transform="translate(6 12)"/></g></svg>