<svg xmlns="http://www.w3.org/2000/svg" width="121" height="121" viewBox="0 0 121 121"><g fill="none" fill-rule="evenodd" transform="translate(19)"><path fill="#000" d="M72,0 L12,0 C5.3862915,0 0,5.3862915 0,12 L0,75.6 C0,78.7415427 1.26817355,81.7534549 3.55735931,84.0426407 L37.4387106,118.22391 C39.771575,120.577419 43.5706542,120.594082 45.9240736,118.261127 L80.4240736,84.0611269 C82.7318264,81.7534549 84,78.7415427 84,75.6 L84,12 C84,5.3862915 78.6137085,0 72,0 Z M72,6 C75.3,6 78,8.7 78,12 L78,75.6 C78,77.1 77.4,78.6 76.2,79.8 L41.7,114 L7.8,79.8 C6.6,78.6 6,77.1 6,75.6 L6,12 C6,8.7 8.7,6 12,6 L72,6 Z"/><path fill="#D5D5D5" d="M76.2,79.8 L41.7,114 L7.8,79.8 C6.6,78.6 6,77.1 6,75.6 L6,12 C6,8.7 8.7,6 12,6 L72,6 C75.3,6 78,8.7 78,12 L78,75.6 C78,77.1 77.4,78.6 76.2,79.8 Z"/><path fill="#000" d="M14.9999999,42 L14.9999999,51 L23.9999999,48 L20.9999999,60 L29.9999999,54 L35.9999999,63 L38.9999999,54 L38.9999999,69 L26.9999999,60 L16.7999999,64.8000001 L17.9999999,54 L5.99999987,51 L14.9999999,42 Z M39,5.99999987 L39.1905339,6.00456438 C40.8841837,6.08647947 42,7.26428559 42,8.99999987 L42,17.9999999 C42,19.1999999 41.4,20.0999999 40.5,20.6999999 L36,23.3999999 L42.9,34.8 L49.2000001,30.6 C50.4000001,29.7 52.2000001,29.9999999 53.1000001,30.9 L65.1000001,42.9 C66.3000001,44.1 66.3000001,45.9 64.8000001,46.8 L64.6589441,46.9331361 C63.4624261,47.9982247 61.7538463,47.953846 60.6000001,46.8 L50.4000001,36.6 L44.1,40.8 L48.3000001,41.9999999 C48.9000001,42.3 49.5000001,42.6 49.8000001,42.9 L58.8000001,51.9000001 C60.0000001,53.1000001 60.0000001,54.9000001 58.8000001,56.1000001 L58.6589441,56.2331362 C57.4624261,57.2982249 55.7538462,57.2538462 54.6000001,56.1000001 L46.2,47.7 L35.1,44.9999999 C34.2,44.7 33.6,44.4 33.3,43.8 L24.3,31.8 L20.3999999,37.8 C19.7999999,38.4 18.8999999,38.9999999 17.9999999,38.9999999 C17.3999999,38.9999999 16.7999999,38.7 16.1999999,38.4 L7.19999988,32.4 C5.99999987,31.4999999 5.69999987,29.7 6.59999988,28.2 L6.70777184,28.0655496 C7.63801763,26.9786981 9.3576922,26.7346153 10.7999999,27.6 L17.3999999,31.8 L21.5999999,25.2 C21.5999999,24.9 22.1999999,24.6 22.4999999,24.3 L36,16.1999999 L36,8.99999987 C36,7.19999988 37.2,5.99999987 39,5.99999987 Z M23.9999999,8.99999989 C27.315,8.99999989 29.9999999,11.6849999 29.9999999,14.9999999 C29.9999999,18.3149999 27.315,20.9999999 23.9999999,20.9999999 C20.6849999,20.9999999 17.9999999,18.3149999 17.9999999,14.9999999 C17.9999999,11.6849999 20.6849999,8.99999989 23.9999999,8.99999989 Z" transform="translate(6 12)"/></g></svg>