<svg xmlns="http://www.w3.org/2000/svg" width="121" height="121" viewBox="0 0 121 121"><g fill="none" fill-rule="evenodd" transform="translate(19)"><path fill="#000" d="M72,0 L12,0 C5.3862915,0 0,5.3862915 0,12 L0,75.6 C0,78.7415427 1.26817355,81.7534549 3.55735931,84.0426407 L37.4387106,118.22391 C39.771575,120.577419 43.5706542,120.594082 45.9240736,118.261127 L80.4240736,84.0611269 C82.7318264,81.7534549 84,78.7415427 84,75.6 L84,12 C84,5.3862915 78.6137085,0 72,0 Z M72,6 C75.3,6 78,8.7 78,12 L78,75.6 C78,77.1 77.4,78.6 76.2,79.8 L41.7,114 L7.8,79.8 C6.6,78.6 6,77.1 6,75.6 L6,12 C6,8.7 8.7,6 12,6 L72,6 Z"/><path fill="#D5D5D5" d="M76.2,79.8 L41.7,114 L7.8,79.8 C6.6,78.6 6,77.1 6,75.6 L6,12 C6,8.7 8.7,6 12,6 L72,6 C75.3,6 78,8.7 78,12 L78,75.6 C78,77.1 77.4,78.6 76.2,79.8 Z"/><path fill="#000" d="M35.9999999,2.99999986 L8.99999989,14.9999999 L8.99999989,32.9999999 C8.99999989,49.4999999 20.3999999,65.1000001 35.9999999,68.9999999 C51.6000001,65.1000001 62.9999999,49.4999999 62.9999999,32.9999999 L62.9999999,14.9999999 L35.9999999,2.99999986 Z M56.9999999,41.4 C55.2000001,46.8 35.9999999,68.9999999 20.9999999,50.9999999 C17.9999999,44.9999999 17.9999999,38.9999999 17.9999999,38.9999999 L17.9999999,21.5999999 C17.9999999,20.3999999 19.4999999,19.1999999 20.6999999,19.1999999 C21.8999999,19.1999999 22.7999999,20.0999999 22.7999999,21.2999999 L22.7999999,32.9999999 L25.4999999,32.9999999 L25.4999999,16.7999999 C25.4999999,15.5999999 26.7,14.3999999 27.9,14.3999999 C29.1,14.3999999 30.3,15.5999999 30.3,16.7999999 L30.3,31.4999999 L32.7,31.4999999 L32.7,14.3999999 C32.7,13.1999999 33.9,11.9999999 35.1,11.9999999 C36.3,11.9999999 37.4999999,13.1999999 37.4999999,14.3999999 L37.4999999,31.2 L39.9,31.2 L39.9,16.7999999 C39.9,15.5999999 41.1,14.3999999 42.3,14.3999999 C43.4999999,14.3999999 44.9999999,15.5999999 44.9999999,16.7999999 L44.9999999,42.3 C47.7,40.4999999 47.7,40.4999999 50.7000001,38.4 C51.9000001,37.8 53.4000001,37.4999999 54.3000001,37.8 C55.4999999,38.4 57.9000001,38.9999999 56.9999999,41.4 L56.9999999,41.4 Z" transform="translate(6 12)"/></g></svg>