<svg xmlns="http://www.w3.org/2000/svg" width="121" height="121" viewBox="0 0 121 121"><g fill="none" fill-rule="evenodd" transform="translate(19)"><path fill="#000" d="M72,0 L12,0 C5.3862915,0 0,5.3862915 0,12 L0,75.6 C0,78.7415427 1.26817355,81.7534549 3.55735931,84.0426407 L37.4387106,118.22391 C39.771575,120.577419 43.5706542,120.594082 45.9240736,118.261127 L80.4240736,84.0611269 C82.7318264,81.7534549 84,78.7415427 84,75.6 L84,12 C84,5.3862915 78.6137085,0 72,0 Z M72,6 C75.3,6 78,8.7 78,12 L78,75.6 C78,77.1 77.4,78.6 76.2,79.8 L41.7,114 L7.8,79.8 C6.6,78.6 6,77.1 6,75.6 L6,12 C6,8.7 8.7,6 12,6 L72,6 Z"/><path fill="#D5D5D5" d="M76.2,79.8 L41.7,114 L7.8,79.8 C6.6,78.6 6,77.1 6,75.6 L6,12 C6,8.7 8.7,6 12,6 L72,6 C75.3,6 78,8.7 78,12 L78,75.6 C78,77.1 77.4,78.6 76.2,79.8 Z"/><path fill="#000" d="M35.9999999,11.9999999 L14.9999999,11.9999999 C9.89999989,11.9999999 5.99999987,15.8999999 5.99999987,20.9999999 L5.99999987,44.9999999 C5.99999987,50.1000001 9.89999989,53.9999999 14.9999999,53.9999999 L11.9999999,56.9999999 L11.9999999,59.9999999 L14.9999999,59.9999999 L20.9999999,53.9999999 L26.9999999,53.9999999 L26.9999999,38.9999999 L11.9999999,38.9999999 L11.9999999,17.9999999 L38.9999999,17.9999999 L38.9999999,23.9999999 L44.9999999,23.9999999 L44.9999999,20.9999999 C44.9999999,15.8999999 41.1,11.9999999 35.9999999,11.9999999 Z M14.9999999,42 C16.7999999,42 17.9999999,43.2 17.9999999,45 C17.9999999,46.8 16.7999999,48 14.9999999,48 C13.1999999,48 11.9999999,46.8 11.9999999,45 C11.9999999,43.2 13.1999999,42 14.9999999,42 Z M61.8000001,29.1 C61.2000001,27.9 60,27 58.8000001,27 L37.2,27 C35.7,27 34.8,27.9 34.2,29.1 L30,41.4 L30,57.9000001 C30,59.1000001 30.9,60 32.1,60 L33.9,60 C35.1,60 36,58.8000001 36,57.6000001 L36,54 L60,54 L60,57.6000001 C60,58.8000001 60.9000001,60 62.1000001,60 L63.9000001,60 C65.1000001,60 66,59.1000001 66,57.9000001 L66,41.4 C66,41.4 61.8000001,29.1 61.8000001,29.1 Z M37.2,30 L58.8000001,30 L61.8000001,39 L34.2,39 C34.2,39 37.2,30 37.2,30 Z M36,48 C34.2,48 33,46.8 33,45 C33,43.2 34.2,42 36,42 C37.8,42 39,43.2 39,45 C39,46.8 37.8,48 36,48 Z M60.0000001,48 C58.5000001,48 57.0000001,46.8 57.0000001,45 C57.0000001,43.2 58.5000001,42 60.0000001,42 C61.5000001,42 63.0000001,43.2 63.0000001,45 C63.0000001,46.8 61.5000001,48 60.0000001,48 Z" transform="translate(6 12)"/></g></svg>