<svg xmlns="http://www.w3.org/2000/svg" width="121" height="121" viewBox="0 0 121 121"><g fill="none" transform="translate(12 12)"><path fill="#000" d="M48,0 C21.490332,0 0,21.490332 0,48 C0,74.509668 21.490332,96 48,96 C74.509668,96 96,74.509668 96,48 C96,21.490332 74.509668,0 48,0 Z M48,6 C71.1959595,6 90,24.8040405 90,48 C90,71.1959595 71.1959595,90 48,90 C24.8040405,90 6,71.1959595 6,48 C6,24.8040405 24.8040405,6 48,6 Z"/><circle cx="48" cy="48" r="42" fill="#FFF329" fill-rule="evenodd"/><path fill="#000" d="M46.4999999,57.0000001 C47.4,57.0000001 47.9999999,57.6000001 47.9999999,58.5000001 L47.9999999,60.0000001 L59.9999999,60.0000001 L62.9999999,66.0000001 L43.4999999,66.0000001 C42.6,66.0000001 41.9999999,65.4000001 41.9999999,64.5000001 L41.9999999,63.0000001 L29.9999999,63.0000001 L29.9999999,64.5000001 C29.9999999,65.4000001 29.4,66.0000001 28.4999999,66.0000001 L8.99999989,66.0000001 L11.9999999,60.0000001 L23.9999999,60.0000001 L23.9999999,58.5000001 C23.9999999,57.6000001 24.6,57.0000001 25.4999999,57.0000001 L46.4999999,57.0000001 Z M16.7999999,21.5999999 L19.7999999,22.7999999 L17.9999999,27 L14.9999999,27 L20.9999999,33 L20.9999999,36 L23.9999999,39 L23.9999999,42 L23.9761049,41.976591 C23.4653999,41.4816 14.9099999,33.45 11.9999999,48 L8.99999986,51.0000001 L8.99999986,54.0000001 L11.9999999,54.0000001 L11.9999999,57.0000001 L8.99999986,57.0000001 C7.19999988,57.0000001 5.99999986,55.8000001 5.99999986,54.0000001 L5.99999986,48 L8.99999986,45 L4.49999986,45 C3.59999986,45 2.99999986,44.4 2.99999986,43.5 L2.99999986,42 L5.99999986,36 L2.99999986,36 L2.99999986,33 L7.49999986,33 C8.39999988,33 8.99999986,33.6 8.99999986,34.5 L8.99999986,36 L5.99999986,42 L8.99999986,42 L11.9999999,36 L9.59999989,28.8 C8.69999989,26.4 9.29999989,23.6999999 11.3999999,22.1999999 C12.8999999,20.9999999 14.9999999,20.9999999 16.7999999,21.5999999 Z M60.6000001,22.1999999 C62.7000001,23.6999999 63.3000001,26.4 62.4000001,28.8 L60.0000001,36 L63.0000001,42 L66,42 L63.0000001,36 L63.0000001,34.5 C63.0000001,33.6 63.6000001,33 64.5,33 L69,33 L69,36 L66,36 L69,42 L69,43.5 C69,44.4 68.4000001,45 67.5,45 L63.0000001,45 L66,48 L66,54.0000001 C66,55.8000001 64.8000001,57.0000001 63.0000001,57.0000001 L60.0000001,57.0000001 L60.0000001,54.0000001 L63.0000001,54.0000001 L63.0000001,51.0000001 L60.0000001,48 C57.0900001,33.45 48.5346001,41.4816 48.0238951,41.976591 L48.0026851,41.997333 L48.0000001,39 L51.0000001,36 L51.0000001,33 L57.0000001,27 L54.0000001,27 L52.2000001,22.7999999 L55.2000001,21.5999999 C57.0000001,20.9999999 59.1000001,20.9999999 60.6000001,22.1999999 Z M47.9629418,26.0873116 L47.9958525,26.0985588 L47.9999999,42.3 C47.9999999,44.4 46.8,46.8 44.9999999,48.3000001 L35.9999999,54.0000001 L26.9999999,48.3000001 C25.2,46.8 23.9999999,44.7 23.9999999,42.3 L23.9999999,26.1 C35.6129032,22.0354838 47.2258064,25.8377731 47.9629418,26.0873116 Z M17.9999999,42 L20.9999999,45 L20.9999999,51 L23.9999999,51 L23.9999999,54 L20.9999999,54 C19.1999999,54 17.9999999,52.8000001 17.9999999,51 L17.9999999,48 L14.9999999,48 L17.9999999,42 Z M54.0000001,42 L57.0000001,48 L54.0000001,48 L54.0000001,51 C54.0000001,52.8000001 52.8000001,54 51.0000001,54 L48.0000001,54 L48.0000001,51 L51.0000001,51 L51.0000001,45 L54.0000001,42 Z M45,10.4999999 C44.4,9.89999989 43.5,9.59999989 42.6,9.59999989 C41.4,9.59999989 40.5,10.1999999 39,11.0999999 C38.4,9.89999989 37.8,8.99999987 36.6,8.69999989 C36.9,8.09999988 36.9,7.49999987 36.9,7.19999988 C37.2,6.59999988 36.6,5.99999987 36,5.99999987 C35.4,5.99999987 34.8,6.59999988 34.8,7.19999988 C34.8,7.49999987 34.8,7.79999988 35.1,8.69999989 C34.2,8.99999987 33.3,9.89999989 32.7,11.0999999 C31.8,10.1999999 30.3,9.59999989 29.1,9.59999989 C28.5,9.59999989 27.6,9.89999989 27,10.4999999 C25.5,11.9999999 25.8,14.3999999 27.6,16.7999999 C27.9,17.0999999 28.2,17.0999999 28.2,17.3999999 L28.2,20.9999999 L42.9,20.9999999 L42.9,17.3999999 C43.2,17.0999999 43.5,17.0999999 43.5,16.7999999 C46.2,14.6999999 46.5,11.9999999 45,10.4999999 L45,10.4999999 Z M32.4,15.5999999 C31.8,16.1999999 30.6,15.5999999 29.7,14.6999999 C28.8,13.7999999 28.2,12.5999999 28.8,12.2999999 C29.4,11.6999999 30.6,12.2999999 31.5,13.1999999 C32.4,14.3999999 32.7,15.2999999 32.4,15.5999999 Z M36,15.8999999 C35.4,15.8999999 34.8,14.9999999 34.8,13.4999999 C34.8,11.9999999 35.4,11.0999999 36,11.0999999 C36.6,11.0999999 37.2,11.9999999 37.2,13.4999999 C37.2,14.9999999 36.6,15.8999999 36,15.8999999 Z M42.6,14.9999999 C41.7,15.8999999 40.2,16.1999999 39.9,15.8999999 C39.3,15.5999999 39.9,14.0999999 40.8,13.1999999 C41.7,12.2999999 42.9,11.9999999 43.5,12.2999999 C44.1,12.5999999 43.5,14.0999999 42.6,14.9999999 Z" transform="translate(12 12)"/></g></svg>