<svg xmlns="http://www.w3.org/2000/svg" width="121" height="121" viewBox="0 0 121 121"><g fill="none" fill-rule="evenodd" transform="translate(12 12)"><path fill="#000" d="M48,0 C21.490332,0 0,21.490332 0,48 C0,74.509668 21.490332,96 48,96 C74.509668,96 96,74.509668 96,48 C96,21.490332 74.509668,0 48,0 Z M48,6 C71.1959595,6 90,24.8040405 90,48 C90,71.1959595 71.1959595,90 48,90 C24.8040405,90 6,71.1959595 6,48 C6,24.8040405 24.8040405,6 48,6 Z"/><circle cx="48" cy="48" r="42" fill="#FFF329"/><path fill="#000" d="M62.9999999,29.9999999 L56.9999999,29.9999999 L47.9999999,17.9999999 L38.9999999,17.9999999 L38.9999999,16.4999999 C38.9999999,15.6719999 38.328,14.9999999 37.4999999,14.9999999 C36.672,14.9999999 35.9999999,15.6719999 35.9999999,16.4999999 L35.9999999,16.4999999 L35.9999999,17.9999999 L17.9999999,17.9999999 L8.99999986,29.9999999 C5.68499987,29.9999999 2.99999986,32.685 2.99999986,35.9999999 L2.99999986,35.9999999 L2.99999986,44.9999999 L8.99999986,44.9999999 C8.99999986,49.9710001 13.0289999,53.9999999 17.9999999,53.9999999 L17.9999999,53.9999999 C22.9709999,53.9999999 26.9999999,49.9710001 26.9999999,44.9999999 L26.9999999,44.9999999 L44.9999999,44.9999999 C44.9999999,49.9710001 49.0290001,53.9999999 53.9999999,53.9999999 C58.9710001,53.9999999 62.9999999,49.9710001 62.9999999,44.9999999 L62.9999999,44.9999999 L68.9999999,44.9999999 L68.9999999,35.9999999 C68.9999999,32.685 66.3150001,29.9999999 62.9999999,29.9999999 L62.9999999,29.9999999 Z M17.9999999,49.5 C15.5159999,49.5 13.4999999,47.484 13.4999999,45 C13.4999999,42.516 15.5159999,40.5 17.9999999,40.5 L17.9999999,40.5 C20.4839999,40.5 22.4999999,42.516 22.4999999,45 C22.4999999,47.484 20.4839999,49.5 17.9999999,49.5 L17.9999999,49.5 Z M31.5,29.9999999 L14.6999999,29.9999999 L20.3999999,22.4999999 L31.5,22.4999999 L31.5,29.9999999 Z M36,29.9999999 L36,22.4999999 L45.6,22.4999999 L51.3000001,29.9999999 L36,29.9999999 Z M54.0000001,49.5 C51.5160001,49.5 49.5000001,47.484 49.5000001,45 C49.5000001,42.516 51.5160001,40.5 54.0000001,40.5 C56.4840001,40.5 58.5000001,42.516 58.5000001,45 L58.5000001,45 C58.4340001,47.46 56.4600001,49.4340001 54.0060001,49.5 L54.0000001,49.5 Z M31.8,16.1999999 L27.3,11.6999999 L29.4,9.59999989 L33.9,14.0999999 L31.8,16.1999999 Z M36,5.99999987 L39,5.99999987 L39,11.9999999 L36,11.9999999 L36,5.99999987 Z M43.2,16.1999999 L41.1,14.0999999 L46.05,9.14999989 L48.1500001,11.2499999 L43.2,16.1999999 Z" transform="translate(12 12)"/></g></svg>