<svg xmlns="http://www.w3.org/2000/svg" width="121" height="121" viewBox="0 0 121 121"><g fill="none" fill-rule="evenodd" transform="translate(13 7)"><path fill="#FFF" fill-rule="nonzero" d="M83,0 C90.1637085,0 96,5.8362915 96,13 L96,83 C96,90.1637085 90.1637085,96 83,96 L60.011,96 L48,108.012641 L35.988,96 L13,96 C5.93863019,96 0.167022087,90.3292686 0.00356009429,83.3061902 L0,83 L0,13 C0,5.8362915 5.8362915,0 13,0 Z"/><path fill="#009EE0" d="M83,6 C86.85,6 90,9.15 90,13 L90,83 C90,86.85 86.85,90 83,90 L57.522,90 L48,99.5226407 L38.478,90 L13,90 C9.15,90 6,86.85 6,83 L6,13 C6,9.15 9.15,6 13,6 L83,6 Z"/><path fill="#FFF" fill-rule="nonzero" d="M31.8487035,43.6170213 C32.082746,45.893617 35.0614694,50.0425532 36.6572141,51.6595745 C38.2316822,53.2765957 39.9338098,54.5744681 41.8487035,55.7659574 C39.7848737,55.1276596 37.976363,54.3191489 35.9125332,52.4893617 C34.2529588,51 33.1678524,49.2765957 32.7210439,48.3191489 C32.7635971,51.4680851 35.0614694,56.2765957 39.8912566,57.5531915 C35.1040226,57.1914894 30.1252992,53.7234043 31.8487035,43.6170213 Z M64.189129,43.6170213 C65.9125332,53.7234043 60.9125332,57.1914894 56.1465758,57.5531915 C60.976363,56.2765957 63.2742354,51.4680851 63.3167886,48.3191489 C62.8912566,49.2765957 61.8061503,51 60.1252992,52.4893617 C58.082746,54.3191489 56.2529588,55.1276596 54.189129,55.7659574 C56.1040226,54.5744681 57.7848737,53.2765957 59.3806184,51.6595745 C60.9550864,50.0425532 63.9550864,45.893617 64.189129,43.6170213 Z M48.0189162,12 C51.9976396,12 52.9338098,15.5531915 52.9338098,20.4893617 C52.9338098,25.4042553 51.1465758,39.1702128 50.082746,55.1914894 C49.5508311,47.893617 49.976363,37.0638298 50.7210439,28.3829787 C51.6997673,16.6170213 50.9338098,13.4680851 48.5082779,12.893617 C48.9212414,15.7040628 48.8950937,23.5735638 48.7032591,31.6138287 L48.6794611,32.5791673 C48.671275,32.9010115 48.6628414,33.2228161 48.6541776,33.5442682 L48.622743,34.6743752 C48.4557086,40.5005029 48.2192933,46.0883383 48.0189162,49.5531915 C47.4870013,40.7446809 46.7635971,18.106383 47.5295545,12.893617 C45.1040226,13.4680851 44.3380652,16.6170213 45.3380652,28.3829787 C46.0614694,37.0638298 46.4870013,47.8723404 45.9550864,55.1702128 C44.8912566,39.1489362 43.1040226,25.3829787 43.1040226,20.4680851 C43.1040226,15.5531915 44.0401928,12 48.0189162,12 Z M35.5933843,24.1489362 C34.2529588,28.0425532 35.1252992,34.9361702 37.189129,40.0638298 C39.2742354,45.1914894 41.8912566,49.5106383 43.5508311,54.9148936 C40.3593418,49.7446809 37.4231715,44.893617 35.9125332,41.0212766 C34.4018949,37.1276596 34.0401928,33.8510638 34.0401928,30.0638298 C32.8274269,33.6170213 33.0614694,38.3617021 34.4657247,42.6595745 C35.5508311,45.9148936 37.7635971,49.212766 40.4870013,52.9148936 C36.8912566,49.8510638 34.1040226,46.6595745 32.5295545,41.4468085 C30.4444481,34.5319149 32.6572141,28.1702128 35.5933843,24.1489362 Z M60.4444481,24.1489362 C63.3806184,28.1702128 65.5933843,34.5319149 63.5082779,41.4468085 C61.9338098,46.6595745 59.1678524,49.8510638 55.5508311,52.9148936 C58.2742354,49.212766 60.4657247,45.9148936 61.5508311,42.6595745 C62.976363,38.3617021 63.2104056,33.6170213 61.9976396,30.0638298 C61.9976396,33.8510638 61.6359375,37.1276596 60.1465758,41.0212766 C58.6359375,44.893617 55.6997673,49.7446809 52.5082779,54.9148936 C54.1465758,49.5106383 56.7635971,45.1914894 58.8274269,40.0638298 C60.9125332,34.9361702 61.7635971,28.0425532 60.4444481,24.1489362 Z M42.3806184,15.5319149 C41.4018949,18.106383 41.2104056,22.5744681 41.8487035,27.7446809 C42.7423205,35.1276596 44.2742354,44.106383 43.9125332,51.2340426 C43.1252992,43.9787234 41.1678524,35.5744681 40.295512,28.8297872 C39.8487035,25.4255319 39.976363,21.8085106 40.6997673,19.7659574 C38.295512,22.8297872 38.1252992,26.4255319 38.5295545,30.8723404 C38.9338098,35.3191489 41.1465758,40.7234043 41.8912566,47.212766 C38.2104056,39.2340426 36.5508311,33.6808511 36.5508311,28.6808511 C36.5508311,23.6808511 38.0189162,19.7446809 42.3806184,15.5319149 Z M53.6572141,15.5319149 C58.0189162,19.7446809 59.4870013,23.6808511 59.4870013,28.6808511 C59.4870013,33.6808511 57.8274269,39.2340426 54.1465758,47.212766 C54.8912566,40.7234043 57.1040226,35.3191489 57.5082779,30.8723404 C57.9125332,26.4255319 57.7210439,22.8297872 55.3380652,19.7659574 C56.082746,21.8085106 56.189129,25.4255319 55.7423205,28.8297872 C54.8699801,35.5744681 52.9125332,43.9787234 52.1252992,51.2340426 C51.7635971,44.106383 53.295512,35.1276596 54.189129,27.7446809 C54.8274269,22.5744681 54.6359375,18.106383 53.6572141,15.5319149 Z M54.3167886,63.1276596 C53.5295545,62.5957447 53.2529588,61.9361702 53.2529588,61.3829787 C53.2529588,60.8297872 53.5082779,60.5957447 53.8487035,60.2765957 C54.2529588,59.9148936 54.5721077,59.5319149 54.5721077,59 C54.5721077,58.5319149 54.1465758,57.9148936 53.5295545,57.9148936 L42.5295545,57.9148936 C41.9125332,57.9148936 41.4870013,58.5319149 41.4870013,59 C41.4870013,59.5319149 41.8061503,59.9148936 42.2104056,60.2765957 C42.5508311,60.5957447 42.8061503,60.8297872 42.8061503,61.3829787 C42.8061503,61.9361702 42.5295545,62.5957447 41.7423205,63.1276596 C38.5721077,65.2553191 36.3806184,68.5744681 36.3806184,72.6595745 C36.3806184,79 40.9550864,84 48.0401928,84 C55.1252992,84 59.6997673,79 59.6997673,72.6595745 C59.6784907,68.5957447 57.4870013,65.2553191 54.3167886,63.1276596 Z M51.0614694,58.787234 L53.1040226,58.787234 C53.3167886,58.787234 53.4870013,58.9574468 53.4870013,59.1914894 C53.4870013,59.4042553 53.3167886,59.5957447 53.1040226,59.5957447 L50.9338098,59.5957447 L51.0614694,58.787234 Z M50.7423205,60.8297872 L51.9125332,60.8297872 C52.1040226,60.8297872 52.2529588,60.9787234 52.2529588,61.1702128 C52.2529588,61.3617021 52.1040226,61.5319149 51.9125332,61.5319149 L50.6146609,61.5319149 L50.7423205,60.8297872 Z M46.976363,61.5319149 L44.082746,61.5319149 C43.8912566,61.5319149 43.7210439,61.3829787 43.7210439,61.1702128 C43.7210439,60.9787234 43.8912566,60.8297872 44.082746,60.8297872 L46.9125332,60.8297872 L46.976363,61.5319149 Z M42.5082779,59.1702128 C42.5082779,58.9574468 42.6784907,58.7659574 42.9125332,58.7659574 L46.6784907,58.7659574 L46.7848737,59.5531915 L42.9125332,59.5531915 C42.6784907,59.5744681 42.5082779,59.4042553 42.5082779,59.1702128 Z M48.0189162,82.3829787 C42.2104056,82.3829787 38.3806184,78.1276596 38.3806184,72.4893617 C38.3806184,68.7659574 39.8274269,65.893617 43.8061503,63.3617021 L44.4231715,64.1489362 C42.2104056,65.4255319 40.7210439,67.8723404 40.7210439,70.6808511 C40.7210439,74.8085106 43.9550864,78.1702128 47.9338098,78.1702128 C49.8061503,78.1702128 51.5082779,77.4468085 52.7848737,76.2340426 L51.8699801,79.0425532 C55.2529588,77.0638298 55.9338098,73.5319149 55.9338098,70.9361702 C55.9338098,68.0851064 54.0189162,65.8297872 51.9976396,64.3829787 L52.5933843,63.5744681 C56.3167886,66.0638298 57.6572141,68.9574468 57.6572141,72.3829787 C57.6572141,78.0425532 53.8274269,82.3829787 48.0189162,82.3829787 Z"/></g></svg>