<svg xmlns="http://www.w3.org/2000/svg" width="121" height="121" viewBox="0 0 121 121"><g fill="none" fill-rule="evenodd" transform="translate(13 7)"><path fill="#FFF" fill-rule="nonzero" d="M83,0 C90.1637085,0 96,5.8362915 96,13 L96,83 C96,90.1637085 90.1637085,96 83,96 L60.011,96 L48,108.012641 L35.988,96 L13,96 C5.93863019,96 0.167022087,90.3292686 0.00356009429,83.3061902 L0,83 L0,13 C0,5.8362915 5.8362915,0 13,0 Z"/><path fill="#009EE0" d="M83,6 C86.85,6 90,9.15 90,13 L90,83 C90,86.85 86.85,90 83,90 L57.522,90 L48,99.5226407 L38.478,90 L13,90 C9.15,90 6,86.85 6,83 L6,13 C6,9.15 9.15,6 13,6 L83,6 Z"/><path fill="#FFF" d="M48,15 L75,27 L75,45 C74.9984114,49.1155173 74.3089108,53.2018224 72.96,57.09 C71.6395776,60.9336224 69.7264881,64.5472359 67.29,67.8 C64.9119174,70.9986129 62.035239,73.7942581 58.77,76.08 C55.5318629,78.4008991 51.8743327,80.0717486 48,81 C44.1252571,80.0267278 40.4705384,78.3266219 37.23,75.99 C33.964761,73.7042581 31.0880826,70.9086129 28.71,67.71 C26.2735119,64.4572359 24.3604224,60.8436224 23.04,57 C21.693859,53.1421907 21.0042935,49.0859234 21,45 L21,27 L48,15 Z M47.9989484,27 L27,45.9293405 L33.3097802,45.9293405 L33.3097802,62.7890731 L62.6902198,62.7890731 L62.6902198,45.9293405 L69,45.9293405 L47.9989484,27 Z"/></g></svg>