<svg xmlns="http://www.w3.org/2000/svg" width="121" height="121" viewBox="0 0 121 121"><g fill="none" fill-rule="evenodd" transform="translate(11 1)"><path fill="#FFF" d="M49.4394392,0.0320036075 C22.3057387,1.05669484 0,24.0131209 0,51.0634245 C0,74.1582672 15.7531577,94.1842269 37.6796234,100.284324 L39.123,100.665 L42.9875735,113.982841 L43.1785408,114.538029 C46.0893205,121.820657 56.3606795,121.820657 59.2714592,114.538029 L59.414029,114.181326 L62.886,100.713 L63.516,100.497 L63.2562825,100.568075 C85.9193193,94.8978948 102,74.3343236 102,50.6130733 C102,22.1811749 78.2198674,-0.978624028 49.4394392,0.0320036075 Z M49.65,6.02830781 C75.3,5.12760548 96,25.8437591 96,50.6130733 C96,71.7795781 81.6,89.7936248 61.8,94.7474876 L60.7909333,95.0890873 C58.9125333,95.7455993 57.8597333,96.3060363 57.4021333,97.9232973 L57.3,98.350297 L53.7,112.311183 C52.8473684,114.444425 49.9753463,114.556701 48.9101473,112.648011 L48.75,112.311183 L44.7,98.350297 C44.3210526,96.4540815 43.9421053,95.8353165 41.6820674,95.1493172 L40.742703,94.8862895 C40.5702216,94.8410509 40.3894737,94.794893 40.2,94.7474876 C20.85,89.7936248 6,72.2299293 6,51.0634245 C6,27.1948126 25.8,6.92901015 49.65,6.02830781 Z"/><path fill="#009EE0" d="M49.65,6.02830781 C75.3,5.12760548 96,25.8437591 96,50.6130733 C96,71.7795781 81.6,89.7936248 61.8,94.7474876 L60.7909333,95.0890873 C58.9125333,95.7455993 57.8597333,96.3060363 57.4021333,97.9232973 L57.3,98.350297 L53.7,112.311183 C52.8473684,114.444425 49.9753463,114.556701 48.9101473,112.648011 L48.75,112.311183 L44.7,98.350297 C44.3210526,96.4540815 43.9421053,95.8353165 41.6820674,95.1493172 L40.742703,94.8862895 C40.5702216,94.8410509 40.3894737,94.794893 40.2,94.7474876 C20.85,89.7936248 6,72.2299293 6,51.0634245 C6,27.1948126 25.8,6.92901015 49.65,6.02830781 Z"/><path fill="#FFF" fill-rule="nonzero" d="M34.8487035,46.6170213 C35.082746,48.893617 38.0614694,53.0425532 39.6572141,54.6595745 C41.2316822,56.2765957 42.9338098,57.5744681 44.8487035,58.7659574 C42.7848737,58.1276596 40.976363,57.3191489 38.9125332,55.4893617 C37.2529588,54 36.1678524,52.2765957 35.7210439,51.3191489 C35.7635971,54.4680851 38.0614694,59.2765957 42.8912566,60.5531915 C38.1040226,60.1914894 33.1252992,56.7234043 34.8487035,46.6170213 Z M67.189129,46.6170213 C68.9125332,56.7234043 63.9125332,60.1914894 59.1465758,60.5531915 C63.976363,59.2765957 66.2742354,54.4680851 66.3167886,51.3191489 C65.8912566,52.2765957 64.8061503,54 63.1252992,55.4893617 C61.082746,57.3191489 59.2529588,58.1276596 57.189129,58.7659574 C59.1040226,57.5744681 60.7848737,56.2765957 62.3806184,54.6595745 C63.9550864,53.0425532 66.9550864,48.893617 67.189129,46.6170213 Z M51.0189162,15 C54.9976396,15 55.9338098,18.5531915 55.9338098,23.4893617 C55.9338098,28.4042553 54.1465758,42.1702128 53.082746,58.1914894 C52.5508311,50.893617 52.976363,40.0638298 53.7210439,31.3829787 C54.6997673,19.6170213 53.9338098,16.4680851 51.5082779,15.893617 C51.9212414,18.7040628 51.8950937,26.5735638 51.7032591,34.6138287 L51.6794611,35.5791673 C51.671275,35.9010115 51.6628414,36.2228161 51.6541776,36.5442682 L51.622743,37.6743752 C51.4557086,43.5005029 51.2192933,49.0883383 51.0189162,52.5531915 C50.4870013,43.7446809 49.7635971,21.106383 50.5295545,15.893617 C48.1040226,16.4680851 47.3380652,19.6170213 48.3380652,31.3829787 C49.0614694,40.0638298 49.4870013,50.8723404 48.9550864,58.1702128 C47.8912566,42.1489362 46.1040226,28.3829787 46.1040226,23.4680851 C46.1040226,18.5531915 47.0401928,15 51.0189162,15 Z M38.5933843,27.1489362 C37.2529588,31.0425532 38.1252992,37.9361702 40.189129,43.0638298 C42.2742354,48.1914894 44.8912566,52.5106383 46.5508311,57.9148936 C43.3593418,52.7446809 40.4231715,47.893617 38.9125332,44.0212766 C37.4018949,40.1276596 37.0401928,36.8510638 37.0401928,33.0638298 C35.8274269,36.6170213 36.0614694,41.3617021 37.4657247,45.6595745 C38.5508311,48.9148936 40.7635971,52.212766 43.4870013,55.9148936 C39.8912566,52.8510638 37.1040226,49.6595745 35.5295545,44.4468085 C33.4444481,37.5319149 35.6572141,31.1702128 38.5933843,27.1489362 Z M63.4444481,27.1489362 C66.3806184,31.1702128 68.5933843,37.5319149 66.5082779,44.4468085 C64.9338098,49.6595745 62.1678524,52.8510638 58.5508311,55.9148936 C61.2742354,52.212766 63.4657247,48.9148936 64.5508311,45.6595745 C65.976363,41.3617021 66.2104056,36.6170213 64.9976396,33.0638298 C64.9976396,36.8510638 64.6359375,40.1276596 63.1465758,44.0212766 C61.6359375,47.893617 58.6997673,52.7446809 55.5082779,57.9148936 C57.1465758,52.5106383 59.7635971,48.1914894 61.8274269,43.0638298 C63.9125332,37.9361702 64.7635971,31.0425532 63.4444481,27.1489362 Z M45.3806184,18.5319149 C44.4018949,21.106383 44.2104056,25.5744681 44.8487035,30.7446809 C45.7423205,38.1276596 47.2742354,47.106383 46.9125332,54.2340426 C46.1252992,46.9787234 44.1678524,38.5744681 43.295512,31.8297872 C42.8487035,28.4255319 42.976363,24.8085106 43.6997673,22.7659574 C41.295512,25.8297872 41.1252992,29.4255319 41.5295545,33.8723404 C41.9338098,38.3191489 44.1465758,43.7234043 44.8912566,50.212766 C41.2104056,42.2340426 39.5508311,36.6808511 39.5508311,31.6808511 C39.5508311,26.6808511 41.0189162,22.7446809 45.3806184,18.5319149 Z M56.6572141,18.5319149 C61.0189162,22.7446809 62.4870013,26.6808511 62.4870013,31.6808511 C62.4870013,36.6808511 60.8274269,42.2340426 57.1465758,50.212766 C57.8912566,43.7234043 60.1040226,38.3191489 60.5082779,33.8723404 C60.9125332,29.4255319 60.7210439,25.8297872 58.3380652,22.7659574 C59.082746,24.8085106 59.189129,28.4255319 58.7423205,31.8297872 C57.8699801,38.5744681 55.9125332,46.9787234 55.1252992,54.2340426 C54.7635971,47.106383 56.295512,38.1276596 57.189129,30.7446809 C57.8274269,25.5744681 57.6359375,21.106383 56.6572141,18.5319149 Z M57.3167886,66.1276596 C56.5295545,65.5957447 56.2529588,64.9361702 56.2529588,64.3829787 C56.2529588,63.8297872 56.5082779,63.5957447 56.8487035,63.2765957 C57.2529588,62.9148936 57.5721077,62.5319149 57.5721077,62 C57.5721077,61.5319149 57.1465758,60.9148936 56.5295545,60.9148936 L45.5295545,60.9148936 C44.9125332,60.9148936 44.4870013,61.5319149 44.4870013,62 C44.4870013,62.5319149 44.8061503,62.9148936 45.2104056,63.2765957 C45.5508311,63.5957447 45.8061503,63.8297872 45.8061503,64.3829787 C45.8061503,64.9361702 45.5295545,65.5957447 44.7423205,66.1276596 C41.5721077,68.2553191 39.3806184,71.5744681 39.3806184,75.6595745 C39.3806184,82 43.9550864,87 51.0401928,87 C58.1252992,87 62.6997673,82 62.6997673,75.6595745 C62.6784907,71.5957447 60.4870013,68.2553191 57.3167886,66.1276596 Z M54.0614694,61.787234 L56.1040226,61.787234 C56.3167886,61.787234 56.4870013,61.9574468 56.4870013,62.1914894 C56.4870013,62.4042553 56.3167886,62.5957447 56.1040226,62.5957447 L53.9338098,62.5957447 L54.0614694,61.787234 Z M53.7423205,63.8297872 L54.9125332,63.8297872 C55.1040226,63.8297872 55.2529588,63.9787234 55.2529588,64.1702128 C55.2529588,64.3617021 55.1040226,64.5319149 54.9125332,64.5319149 L53.6146609,64.5319149 L53.7423205,63.8297872 Z M49.976363,64.5319149 L47.082746,64.5319149 C46.8912566,64.5319149 46.7210439,64.3829787 46.7210439,64.1702128 C46.7210439,63.9787234 46.8912566,63.8297872 47.082746,63.8297872 L49.9125332,63.8297872 L49.976363,64.5319149 Z M45.5082779,62.1702128 C45.5082779,61.9574468 45.6784907,61.7659574 45.9125332,61.7659574 L49.6784907,61.7659574 L49.7848737,62.5531915 L45.9125332,62.5531915 C45.6784907,62.5744681 45.5082779,62.4042553 45.5082779,62.1702128 Z M51.0189162,85.3829787 C45.2104056,85.3829787 41.3806184,81.1276596 41.3806184,75.4893617 C41.3806184,71.7659574 42.8274269,68.893617 46.8061503,66.3617021 L47.4231715,67.1489362 C45.2104056,68.4255319 43.7210439,70.8723404 43.7210439,73.6808511 C43.7210439,77.8085106 46.9550864,81.1702128 50.9338098,81.1702128 C52.8061503,81.1702128 54.5082779,80.4468085 55.7848737,79.2340426 L54.8699801,82.0425532 C58.2529588,80.0638298 58.9338098,76.5319149 58.9338098,73.9361702 C58.9338098,71.0851064 57.0189162,68.8297872 54.9976396,67.3829787 L55.5933843,66.5744681 C59.3167886,69.0638298 60.6572141,71.9574468 60.6572141,75.3829787 C60.6572141,81.0425532 56.8274269,85.3829787 51.0189162,85.3829787 Z"/></g></svg>