<svg xmlns="http://www.w3.org/2000/svg" width="121" height="121" viewBox="0 0 121 121"><g fill="none" fill-rule="evenodd" transform="translate(11 1)"><path fill="#FFF" fill-rule="nonzero" d="M49.4394392,0.0318675407 C22.3057387,1.05655877 0,24.0129849 0,51.0632884 C0,74.1581311 15.7531577,94.1840908 37.6796234,100.284188 L39.123,100.664864 L42.9875735,113.982705 L43.1785408,114.537893 C46.0893205,121.820521 56.3606795,121.820521 59.2714592,114.537893 L59.414029,114.18119 L62.886,100.712864 L63.516,100.496864 L63.2562825,100.567939 C85.9193193,94.8977587 102,74.3341875 102,50.6129372 C102,22.1810388 78.2198674,-0.978760095 49.4394392,0.0318675407 Z M49.65,6.02817175 C75.3,5.12746941 96,25.8436231 96,50.6129372 C96,71.7794421 81.6,89.7934887 61.8,94.7473516 L60.7909333,95.0889513 C58.9125333,95.7454632 57.8597333,96.3059002 57.4021333,97.9231613 L57.3,98.3501609 L53.7,112.311047 C52.8473684,114.444289 49.9753463,114.556565 48.9101473,112.647875 L48.75,112.311047 L44.7,98.3501609 C44.3210526,96.4539455 43.9421053,95.8351804 41.6820674,95.1491811 L40.742703,94.8861535 C40.5702216,94.8409148 40.3894737,94.7947569 40.2,94.7473516 C20.85,89.7934887 6,72.2297932 6,51.0632884 C6,27.1946766 25.8,6.92887408 49.65,6.02817175 Z"/><path fill="#009EE0" d="M49.65,6.02817175 C75.3,5.12746941 96,25.8436231 96,50.6129372 C96,71.7794421 81.6,89.7934887 61.8,94.7473516 L60.7909333,95.0889513 C58.9125333,95.7454632 57.8597333,96.3059002 57.4021333,97.9231613 L57.3,98.3501609 L53.7,112.311047 C52.8473684,114.444289 49.9753463,114.556565 48.9101473,112.647875 L48.75,112.311047 L44.7,98.3501609 C44.3210526,96.4539455 43.9421053,95.8351804 41.6820674,95.1491811 L40.742703,94.8861535 C40.5702216,94.8409148 40.3894737,94.7947569 40.2,94.7473516 C20.85,89.7934887 6,72.2297932 6,51.0632884 C6,27.1946766 25.8,6.92887408 49.65,6.02817175 Z"/><path fill="#FFF" fill-rule="nonzero" d="M37.8750002,0 L40.5,13.8750001 L51,17.6250001 L56.6250002,25.1250001 L57,35.2500001 L68.2500003,46.5 L60.3750003,54.3750002 L48,42 L46.1250002,34.1250001 C41.2500002,36.3750002 28.1250001,42.3750002 19.8750001,47.2500002 C20.1000001,48.8250002 20.5950001,51.6150002 21.1170001,54.4860002 L21.2916668,55.4444446 C21.5833334,57.0416668 21.8750001,58.6250001 22.1250001,60 L22.5,61.5 L10.875,65.2500003 L7.87500003,43.1250002 L18,37.8750002 L14.2500001,30.7500001 L3.75000002,36 L0,24.3750001 L18.7500001,18.3750001 L24,28.5 L35.6250001,22.1250001 L29.2500001,18.7500001 L29.2500001,0 L37.8750002,0 Z M34.8750001,3.75000002 L33,3.75000002 L33,16.5000001 L43.8750002,22.1250001 L22.5,33.3750001 L16.8750001,22.8750001 L4.50000002,27.0000001 L6.00000002,31.1250001 L15.7500001,25.8750001 L22.8750001,39.75 L11.625,45.3750002 L13.8750001,60.3750003 L18,58.8750002 C15.9088236,48.0705883 15.7612111,46.9839967 15.7507914,46.5833688 L15.7500001,45.3750002 L16.5,45.0000002 C26.6250001,39.0000002 45.7500002,30.3750001 46.5,30.0000001 L48.7500002,28.8750001 L51.3750002,40.1250002 L60.3750003,49.1250002 L63,46.5000002 L53.2500002,36.75 L52.8750002,26.25 L48.7500002,20.6250001 L37.5,16.5000001 L34.8750001,3.75000002 Z M57.3750002,13.1250001 C60.0000002,10.125 64.8750003,10.125 67.8750003,13.1250001 C70.8750003,16.1250001 70.8750003,20.6250001 67.8750003,23.6250001 C65.2500003,26.6250001 60.3750003,26.6250001 57.3750002,23.6250001 C54.3750002,21.0000001 54.3750002,16.1250001 57.3750002,13.1250001 Z M62.6250003,14.6250001 C61.5000003,14.6250001 60.7500003,15.0000001 60.0000002,15.7500001 C58.5000002,16.8750001 58.5000002,19.5000001 60.0000002,21.0000001 C61.5000003,22.5000001 63.7500003,22.5000001 65.2500003,21.0000001 C66.7500003,19.5000001 66.7500003,17.2500001 65.2500003,15.7500001 C64.5000003,15.0000001 63.7500003,14.6250001 62.6250003,14.6250001 Z" transform="translate(14.625 17.625)"/></g></svg>