<svg xmlns="http://www.w3.org/2000/svg" width="121" height="121" viewBox="0 0 121 121"><g fill="none" fill-rule="evenodd" transform="translate(11 1)"><path fill="#FFF" fill-rule="nonzero" d="M49.4394392,0.0320036075 C22.3057387,1.05669484 0,24.0131209 0,51.0634245 C0,74.1582672 15.7531577,94.1842269 37.6796234,100.284324 L39.123,100.665 L42.9875735,113.982841 L43.1785408,114.538029 C46.0893205,121.820657 56.3606795,121.820657 59.2714592,114.538029 L59.414029,114.181326 L62.886,100.713 L63.516,100.497 L63.2562825,100.568075 C85.9193193,94.8978948 102,74.3343236 102,50.6130733 C102,22.1811749 78.2198674,-0.978624028 49.4394392,0.0320036075 Z M49.65,6.02830781 C75.3,5.12760548 96,25.8437591 96,50.6130733 C96,71.7795781 81.6,89.7936248 61.8,94.7474876 L60.7909333,95.0890873 C58.9125333,95.7455993 57.8597333,96.3060363 57.4021333,97.9232973 L57.3,98.350297 L53.7,112.311183 C52.8473684,114.444425 49.9753463,114.556701 48.9101473,112.648011 L48.75,112.311183 L44.7,98.350297 C44.3210526,96.4540815 43.9421053,95.8353165 41.6820674,95.1493172 L40.742703,94.8862895 C40.5702216,94.8410509 40.3894737,94.794893 40.2,94.7474876 C20.85,89.7936248 6,72.2299293 6,51.0634245 C6,27.1948126 25.8,6.92901015 49.65,6.02830781 Z"/><path fill="#009EE0" d="M49.65,6.02830781 C75.3,5.12760548 96,25.8437591 96,50.6130733 C96,71.7795781 81.6,89.7936248 61.8,94.7474876 L60.7909333,95.0890873 C58.9125333,95.7455993 57.8597333,96.3060363 57.4021333,97.9232973 L57.3,98.350297 L53.7,112.311183 C52.8473684,114.444425 49.9753463,114.556701 48.9101473,112.648011 L48.75,112.311183 L44.7,98.350297 C44.3210526,96.4540815 43.9421053,95.8353165 41.6820674,95.1493172 L40.742703,94.8862895 C40.5702216,94.8410509 40.3894737,94.794893 40.2,94.7474876 C20.85,89.7936248 6,72.2299293 6,51.0634245 C6,27.1948126 25.8,6.92901015 49.65,6.02830781 Z"/><path fill="#FFF" fill-rule="nonzero" d="M32.0976562,66 L32.0976562,47.6581395 L23.7445313,40.0604651 L20.4960938,54.4883721 L0,50.2674419 L0.85078125,45.9697674 L16.2421875,49.0395349 L21.8882812,20.7209302 L14.1539062,24.327907 L14.1539062,34.6116279 L9.51328125,34.6116279 L9.51328125,21.1813953 L22.1976562,15.8860465 C23.8476562,15.1697674 25.0207031,14.722093 25.7167969,14.5430233 C26.4128906,14.3639535 27.121875,14.2744186 27.84375,14.2744186 C28.875,14.2744186 29.7902344,14.4918605 30.5894531,14.9267442 C31.3886719,15.3616279 32.071875,16.0139535 32.6390625,16.8837209 L35.8875,22.0255814 C37.228125,24.1744186 39.0585938,26.0418605 41.3789062,27.627907 C43.6992188,29.2139535 46.40625,30.0069767 49.5,30.0069767 L49.5,34.6116279 C46.0453125,34.6116279 42.9644531,33.8186047 40.2574219,32.2325581 C37.5503906,30.6465116 35.0367187,28.2674419 32.7164062,25.0953488 L29.7,37.2209302 L36.7382812,43.6674419 L36.7382812,66 L32.0976562,66 Z M32.484375,11.2046512 C30.9375,11.2046512 29.6097656,10.6546512 28.5011719,9.55465116 C27.3925781,8.45465116 26.8382813,7.1372093 26.8382813,5.60232558 C26.8382813,4.06744186 27.3925781,2.75 28.5011719,1.65 C29.6097656,0.55 30.9375,0 32.484375,0 C34.03125,0 35.3589844,0.55 36.4675781,1.65 C37.5761719,2.75 38.1304688,4.06744186 38.1304688,5.60232558 C38.1304688,7.1372093 37.5761719,8.45465116 36.4675781,9.55465116 C35.3589844,10.6546512 34.03125,11.2046512 32.484375,11.2046512 Z" transform="translate(27 18)"/></g></svg>