<?xml version="1.0" encoding="UTF-8"?>
<svg width="1200pt" height="1200pt" version="1.1" viewBox="0 0 1200 1200" xmlns="http://www.w3.org/2000/svg">
 <path d="m64.801 385.2h-19.199c-16.801 0-31.199 14.398-31.199 31.199v129.6c0 16.801 14.398 31.199 31.199 31.199h18c16.801 0 31.199-14.398 31.199-31.199v-129.6c0-16.797-13.199-31.199-30-31.199z"/>
 <path d="m1154.4 405.6h-18c-16.801 0-31.199 14.398-31.199 31.199v129.6c0 16.801 14.398 31.199 31.199 31.199h18c16.801 0 31.199-14.398 31.199-31.199l0.003906-129.6c0-18-14.402-31.199-31.203-31.199z"/>
 <path d="m985.2 160.8c-109.2-40.801-385.2-43.199-385.2-43.199s-277.2 2.3984-386.4 43.199c-109.2 40.801-92.398 120-92.398 120v663.6c0 51.602 42 92.398 92.398 92.398h10.801v42c0 16.801 14.398 31.199 31.199 31.199h121.2c16.801 0 31.199-14.398 31.199-31.199v-42h384v42c0 16.801 14.398 31.199 31.199 31.199h121.2c16.801 0 31.199-14.398 31.199-31.199v-42h10.801c51.602 0 92.398-42 92.398-92.398l0.003906-664.8c-1.1992 0 15.598-78-93.602-118.8zm-481.2 36c0-7.1992 6-13.199 13.199-13.199h165.6c7.1992 0 13.199 6 13.199 13.199v36c0 7.1992-6 13.199-13.199 13.199h-165.6c-7.1992 0-13.199-6-13.199-13.199zm-127.2 651.6c0 15.602-12 27.602-27.602 27.602h-106.8c-15.602 0-27.602-12-27.602-27.602v-57.602c0-8.3984 3.6016-16.801 10.801-21.602 7.1992-4.8008 15.602-7.1992 24-4.8008l106.8 28.801c12 3.6016 20.398 14.398 20.398 26.398zm-144-162c-9.6016 0-16.801-7.1992-16.801-16.801v-337.2c0-9.6016 7.1992-16.801 16.801-16.801h730.8c9.6016 0 16.801 7.1992 16.801 16.801v337.2c0 9.6016-7.1992 16.801-16.801 16.801zm751.2 162c0 15.602-12 27.602-27.602 27.602h-106.8c-15.602 0-27.602-12-27.602-27.602v-28.801c0-12 8.3984-22.801 20.398-26.398l106.8-28.801c8.3984-2.3984 16.801 0 24 4.8008 7.1992 4.8008 10.801 13.199 10.801 21.602z"/>
</svg>
