<?xml version="1.0" encoding="UTF-8"?>
<svg xmlns="http://www.w3.org/2000/svg" viewBox="0 0 120 120" width="120" height="120">
  <path fill="#000000" d="M 58.2342978123,77.7110091743 l 4.15384615385,0 c 6.87226534933,0 12.4488355681,5.57657021877 12.4488355681,12.4488355681 l 0,3.78546224418 c 0,2.0705716302 -1.6894848271,3.7600564573 -3.7600564573,3.7600564573 l -21.518701482,0 c -2.0705716302,0 -3.7600564573,-1.6894848271 -3.7600564573,-3.7600564573 l 0,-3.78546224418 c 0,-6.87226534933 5.57657021877,-12.4488355681 12.4488355681,-12.4488355681 l -0.0127028934368,0 Z"/>
  <path fill="#000000" d="M 79.9943542696,94.1485532816 c -0.711362032463,-0.139731827805 0.622441778405,-3.60762173606 -0.457304163726,-7.9647141849 c -1.105151729,-4.47141848977 -4.03952011291,-6.22441778405 -3.21383203952,-7.6217360621 c 0.292166549047,-0.495412844037 0.889202540579,-0.660550458716 6.47847565279,-0.571630204658 c 5.70359915314,0.0889202540578 6.30063514467,0.27946365561 6.87226534933,0.571630204658 c 3.06139731828,1.52434721242 4.17925194072,4.89061397318 4.70007057163,6.47847565279 c 0.635144671842,1.90543401553 1.32110091743,8.24417784051 0.0635144671842,8.35850388144 c -5.22088920254,0.470007057163 -8.94283697953,1.77840508116 -14.4431898377,0.749470712773 Z"/>
  <path fill="#000000" d="M 40.1834862385,94.2120677488 c 0.711362032463,-0.139731827805 -0.622441778405,-3.60762173606 0.457304163726,-7.9647141849 c 1.105151729,-4.47141848977 4.03952011291,-6.22441778405 3.21383203952,-7.6217360621 c -0.292166549047,-0.495412844037 -0.889202540579,-0.660550458716 -6.47847565279,-0.571630204658 c -5.70359915314,0.0889202540579 -6.30063514467,0.27946365561 -6.87226534933,0.571630204658 c -3.06139731828,1.52434721242 -4.17925194072,4.89061397318 -4.70007057163,6.47847565279 c -0.635144671842,1.90543401553 -1.32110091743,8.24417784051 -0.0635144671842,8.35850388144 c 5.22088920254,0.470007057163 8.94283697953,1.77840508116 14.4431898377,0.749470712773 Z"/>
  <circle fill="#000000" cx="37.745" cy="68.717" r="7.558"/>
  <circle fill="#000000" cx="60.94" cy="67.257" r="8.765"/>
  <circle fill="#000000" cx="82.941" cy="68.717" r="7.558"/>
  <path fill="none" stroke="#000" stroke-width="9.019" stroke-miterlimit="10" d="M 10.5095271701,57.1577275935 l 48.4488355681,-36.9654199012 c 0.495412844037,-0.381086803105 1.19407198306,-0.381086803105 1.6894848271,0 l 48.8426252646,37.3465067043"/>
  <rect fill="#000000" x="84.478" y="22.479" width="10.137" height="20.757" rx="4.344" ry="4.344"/>
  <polyline fill="none" stroke="#000" stroke-width="3.379" stroke-miterlimit="10" points="16.416,53.194 16.416,102.914 103.838,102.914 103.838,56.739"/>
</svg>
