<?xml version="1.0" encoding="UTF-8"?>
<svg xmlns="http://www.w3.org/2000/svg" viewBox="0 0 120 120" width="120" height="120">
  <path fill="#000000" d="M 60.226747848,22.0197354608 c 1.23577577157,-0.181398278396 2.19945412555,-0.102036531598 2.86836027714,0 c 0.623556581986,0.102036531598 0.782280075583,0.192735670796 1.88200713836,0.396808733991 c 0.691580936385,0.124711316397 1.33781230317,0.249422632795 2.19945412555,0.306109594793 c 0.44215830359,0.0340121771992 1.30380012597,0.090699139198 2.41486458115,0 c 1.45118622717,-0.124711316397 1.55322275877,-0.362796556792 1.92735670796,-0.226747847995 c 1.72328364476,0.634893974386 1.89334453076,6.53033802225 -0.045349569599,7.43732941423 c -0.136048708797,0.0566869619988 -0.578207012387,0.090699139198 -1.47386101197,0.136048708797 c -1.34914969557,0.0680243543985 -2.02939323955,0.102036531598 -2.91370984674,0.045349569599 c -0.45349569599,-0.0340121771993 -1.21310098677,-0.090699139198 -2.19945412555,-0.306109594793 c -0.89565399958,-0.204073063195 -1.08838967038,-0.340121771992 -1.70060885996,-0.487507873189 c -0.657568759185,-0.147386101197 -1.60990972076,-0.260760025194 -2.86836027714,-0.045349569599"/>
  <path fill="#000000" d="M 43.8555532228,26.7701028763 c 1.23577577157,-0.181398278396 2.19945412555,-0.102036531598 2.86836027714,0 c 0.623556581986,0.102036531598 0.782280075583,0.192735670796 1.88200713836,0.396808733991 c 0.691580936385,0.124711316397 1.33781230317,0.249422632795 2.19945412555,0.306109594793 c 0.44215830359,0.0340121771993 1.30380012597,0.090699139198 2.41486458115,0 c 1.45118622717,-0.124711316397 1.55322275877,-0.362796556792 1.92735670796,-0.226747847995 c 1.72328364476,0.634893974386 1.89334453076,6.53033802225 -0.045349569599,7.43732941423 c -0.136048708797,0.0566869619988 -0.578207012387,0.090699139198 -1.47386101197,0.136048708797 c -1.34914969557,0.0680243543985 -2.02939323955,0.102036531598 -2.91370984674,0.045349569599 c -0.45349569599,-0.0340121771992 -1.21310098677,-0.090699139198 -2.19945412555,-0.306109594793 c -0.89565399958,-0.204073063195 -1.08838967038,-0.340121771992 -1.70060885996,-0.487507873189 c -0.657568759185,-0.147386101197 -1.60990972076,-0.260760025194 -2.86836027714,-0.045349569599"/>
  <rect fill="none" stroke="#000" stroke-width="3.027" stroke-miterlimit="10" x="17.043" y="58.832" width="86.482" height="29.035"/>
  <rect fill="#000000" x="6" y="93.241" width="108" height="5.306"/>
  <rect fill="#000000" x="11.317" y="87.754" width="97.377" height="5.487"/>
  <line fill="none" x1="51.089" y1="87.607" x2="53.311" y2="87.607"/>
  <polyline fill="#000000" points="16.85,59.036 13.789,59.036 11.431,54.003 60.057,44.082 108.569,54.173 106.381,59.014 103.332,59.014"/>
  <rect fill="#000000" x="60.125" y="21.453" width="1.213" height="23.593" rx="0.601" ry="0.601"/>
  <rect fill="#000000" x="43.13" y="26.215" width="1.213" height="23.593" rx="0.601" ry="0.601"/>
  <rect fill="#000000" x="76.394" y="26.158" width="1.213" height="23.593" rx="0.601" ry="0.601"/>
  <path fill="#000000" d="M 76.6659668276,26.7134159143 c 1.23577577157,-0.181398278396 2.19945412555,-0.102036531598 2.86836027714,0 c 0.623556581986,0.102036531598 0.782280075583,0.192735670796 1.88200713836,0.396808733991 c 0.691580936385,0.124711316397 1.33781230317,0.249422632795 2.19945412555,0.306109594793 c 0.44215830359,0.0340121771992 1.30380012597,0.090699139198 2.41486458115,0 c 1.45118622717,-0.124711316397 1.55322275877,-0.362796556792 1.92735670796,-0.226747847995 c 1.72328364476,0.634893974386 1.89334453076,6.53033802225 -0.045349569599,7.43732941423 c -0.136048708797,0.0566869619988 -0.578207012387,0.090699139198 -1.47386101197,0.136048708797 c -1.34914969557,0.0680243543985 -2.02939323955,0.102036531598 -2.91370984674,0.0453495695991 c -0.45349569599,-0.0340121771993 -1.21310098677,-0.090699139198 -2.19945412555,-0.306109594793 c -0.89565399958,-0.204073063195 -1.08838967038,-0.340121771992 -1.70060885996,-0.487507873189 c -0.657568759185,-0.147386101197 -1.60990972076,-0.260760025194 -2.86836027714,-0.045349569599"/>
</svg>
