<?xml version="1.0" encoding="UTF-8"?>
<svg xmlns="http://www.w3.org/2000/svg" viewBox="0 0 120 120" width="120" height="120">
  <rect fill="#000000" x="16.845" y="63.151" width="86.487" height="29.04"/>
  <rect fill="#000000" x="6" y="97.361" width="108" height="5.311"/>
  <rect fill="#000000" x="11.311" y="91.874" width="97.378" height="5.487"/>
  <line fill="none" x1="51.09" y1="91.733" x2="53.317" y2="91.733"/>
  <path fill="#000000" d="M 16.8445505862,63.1507815892 l -1.26617455493,0 c -1.09031697785,0 -2.07511940947,-0.633087277464 -2.54407294833,-1.61788970908 l -0.0937907077725,-0.187581415545 c -0.773773339123,-1.64133738602 0.199305254016,-3.57577073383 1.98132870169,-3.93920972644 l 44.5740338689,-9.08597481546 c 0.37516283109,-0.0703430308294 0.762049500651,-0.0703430308294 1.13721233174,0 l 44.527138515,9.26183239253 c 1.75857577073,0.363438992618 2.7199305254,2.26270082501 1.98132870169,3.90403821103 l 0,0 c -0.457229700391,1.00825010855 -1.45375597047,1.65306122449 -2.5557967868,1.65306122449 l -1.24272687799,0"/>
  <path fill="none" stroke="#000" stroke-width="1.325" stroke-miterlimit="10" d="M 59.3082935302,17.9905557968 l 0,0 c 0.117238384716,0 0.22275293096,0.105514546244 0.22275293096,0.22275293096 l 0,33.6943117673 c 0,0.117238384716 -0.105514546244,0.22275293096 -0.22275293096,0.22275293096 l 0,0 c -0.117238384716,0 -0.22275293096,-0.105514546244 -0.22275293096,-0.22275293096 l 0,-33.6943117673 c 0,-0.117238384716 0.105514546244,-0.22275293096 0.22275293096,-0.22275293096 Z"/>
  <path fill="#000000" d="M 59.4724272688,18.7995006513 c 1.78202344768,-0.269648284846 3.18888406426,-0.15240990013 4.15023881893,0 c 0.90273556231,0.140686061659 1.13721233174,0.281372123317 2.7199305254,0.574468085106 c 0.996526270082,0.187581415545 1.93443334781,0.351715154147 3.17716022579,0.445505861919 c 0.633087277464,0.0468953538862 1.88753799392,0.140686061659 3.505427703,0 c 2.09856708641,-0.175857577073 2.25097698654,-0.515848892749 2.79027355623,-0.316543638732 c 2.48545375597,0.914459400782 2.74337820234,9.44941380808 -0.0703430308293,10.7624837169 c -0.187581415545,0.0937907077725 -0.844116369952,0.128962223187 -2.1454624403,0.187581415545 c -1.95788102475,0.105514546244 -2.93095961789,0.15240990013 -4.22058184976,0.0586191923578 c -0.656534954407,-0.0468953538863 -1.75857577073,-0.128962223187 -3.17716022579,-0.445505861919 c -1.28962223187,-0.293095961789 -1.57099435519,-0.492401215806 -2.46200607903,-0.703430308294 c -0.949630916196,-0.22275293096 -2.33304385584,-0.386886669561 -4.15023881893,-0.0586191923578"/>
  <rect fill="none" stroke="#000" stroke-width="1.196" stroke-miterlimit="10" x="31.23" y="27.241" width="0.41" height="30.869" rx="0.199" ry="0.199"/>
  <path fill="#000000" d="M 31.5814155449,27.9792661746 c 1.61788970908,-0.234476769431 2.884064264,-0.140686061659 3.7516283109,0 c 0.808944854538,0.128962223187 1.01997394703,0.257924446374 2.46200607903,0.515848892749 c 0.90273556231,0.164133738602 1.74685193226,0.316543638732 2.87234042553,0.410334346505 c 0.574468085106,0.0468953538863 1.71168041685,0.117238384716 3.16543638732,0 c 1.89926183239,-0.164133738602 2.02822405558,-0.468953538862 2.52062527139,-0.293095961789 c 2.25097698654,0.832392531481 2.48545375597,8.53495440729 -0.0586191923578,9.73078593139 c -0.175857577073,0.0820668693009 -0.762049500651,0.117238384716 -1.93443334781,0.175857577073 c -1.77029960921,0.0937907077725 -2.64958749457,0.140686061659 -3.81024750326,0.0586191923578 c -0.586191923578,-0.0468953538863 -1.59444203213,-0.117238384716 -2.87234042553,-0.410334346505 c -1.17238384716,-0.269648284846 -1.41858445506,-0.445505861919 -2.2275293096,-0.633087277464 c -0.855840208424,-0.199305254017 -2.11029092488,-0.339991315675 -3.7516283109,-0.0586191923578"/>
  <rect fill="none" stroke="#000" stroke-width="1.208" stroke-miterlimit="10" x="85.3" y="27.592" width="0.41" height="31.162" rx="0.199" ry="0.199"/>
  <path fill="#000000" d="M 85.6517585758,28.3309813287 c 1.62961354755,-0.246200607903 2.90751194095,-0.140686061659 3.78679982631,0 c 0.820668693009,0.128962223187 1.0316977855,0.257924446374 2.48545375597,0.52757273122 c 0.914459400782,0.164133738602 1.75857577073,0.328267477204 2.89578810248,0.410334346505 c 0.586191923578,0.0468953538863 1.72340425532,0.128962223187 3.20060790274,0 c 1.91098567086,-0.164133738602 2.05167173252,-0.468953538862 2.54407294833,-0.293095961789 c 2.27442466348,0.844116369952 2.50890143291,8.6170212766 -0.0586191923578,9.82457663917 c -0.175857577073,0.0820668693009 -0.773773339123,0.117238384716 -1.95788102475,0.175857577073 c -1.78202344768,0.0937907077725 -2.67303517152,0.140686061659 -3.84541901867,0.0586191923578 c -0.59791576205,-0.0468953538862 -1.6061658706,-0.117238384716 -2.89578810248,-0.410334346505 c -1.18410768563,-0.269648284846 -1.43030829353,-0.457229700391 -2.25097698654,-0.644811115936 c -0.867564046895,-0.199305254017 -2.12201476335,-0.351715154147 -3.78679982631,-0.0586191923578"/>
</svg>
