<?xml version="1.0" encoding="UTF-8"?>
<svg xmlns="http://www.w3.org/2000/svg" viewBox="0 0 120 120" width="120" height="120">
  <path fill="#000000" d="M 92.9264757759,51.412870315 l 1.43273886401,7.08926632713 c 0.0372139964679,0.148855985871 0.0372139964679,0.297711971743 0,0.446567957614 l -1.41413186578,7.36837130063 c -0.186069982339,0.930349911696 0.762886927591,1.67462984105 1.61880884635,1.26527587991 l 16.3927654441,-7.66608327238 c 0.893135915228,-0.409353961146 0.893135915228,-1.67462984105 0,-2.10259080043 l -16.4113724423,-7.70329726885 c -0.855921918761,-0.409353961146 -1.82348582692,0.353532966445 -1.61880884635,1.28388287814 l 0,0 Z"/>
  <path fill="#000000" d="M 26.9088460419,66.4659318863 l -1.26527587991,-7.12648032359 l 0,-0.446567957614 l 1.60020184812,-7.33115730417 c 0.204676980573,-0.930349911696 -0.725672931123,-1.69323683929 -1.60020184812,-1.30248987637 l -16.5788354264,7.238122313 c -0.893135915228,0.390746962912 -0.930349911696,1.65602284282 -0.0558209947018,2.10259080043 l 16.22530246,8.13125822823 c 0.855921918761,0.42796095938 1.82348582692,-0.297711971743 1.65602284282,-1.22806188344 l 0,-0.0372139964678 l 0,0 Z"/>
  <path fill="#000000" d="M 23.8759053298,95.39981414 l 7.10787332536,1.33970387284 c 0.148855985871,0.0372139964678 0.297711971743,0.0186069982338 0.446567957614,0 l 7.3497643024,-1.50716685695 c 0.930349911696,-0.186069982339 1.67462984105,0.744279929357 1.28388287814,1.60020184812 l -7.44279929357,16.4858004353 c -0.409353961146,0.893135915228 -1.67462984105,0.911742913462 -2.10259080043,0.0372139964679 l -7.92658124765,-16.3183374512 c -0.409353961146,-0.855921918761 0.316318969977,-1.82348582692 1.26527587991,-1.63741584459 l 0,0 Z"/>
  <path fill="#000000" d="M 80.0318259998,94.8974251877 l 7.10787332536,1.33970387284 c 0.148855985871,0.0372139964678 0.297711971743,0.018606998234 0.446567957614,0 l 7.3497643024,-1.50716685695 c 0.930349911696,-0.186069982339 1.67462984105,0.744279929357 1.28388287814,1.60020184812 l -7.44279929357,16.4858004353 c -0.409353961146,0.893135915228 -1.67462984105,0.911742913462 -2.10259080043,0.0372139964677 l -7.92658124765,-16.3183374512 c -0.409353961146,-0.855921918761 0.316318969977,-1.82348582692 1.26527587991,-1.63741584459 l 0,0 Z"/>
  <line fill="none" stroke="#000" stroke-width="7.052" stroke-miterlimit="10" x1="25.644" y1="59.339" x2="95.085" y2="59.339"/>
  <path fill="none" stroke="#000" stroke-width="6.364" stroke-miterlimit="10" d="M 31.5047746057,96.7395180129 l 0,-9.93613705692 c 0,-4.03771861676 2.93990572096,-7.2939433077 6.58687737481,-7.2939433077 l 42.796095938,0 c 3.62836465562,0 6.58687737481,3.27483168917 6.58687737481,7.2939433077 l 0,9.95474405515"/>
  <path fill="#000000" d="M 23.8759053298,24.60018586 l 7.10787332536,-1.33970387284 c 0.148855985871,-0.0372139964678 0.297711971743,-0.0186069982338 0.446567957614,0 l 7.3497643024,1.50716685695 c 0.930349911696,0.186069982339 1.67462984105,-0.744279929357 1.28388287814,-1.60020184812 l -7.44279929357,-16.4858004353 c -0.409353961146,-0.893135915229 -1.67462984105,-0.911742913462 -2.10259080043,-0.0372139964678 l -7.92658124765,16.3183374512 c -0.409353961146,0.855921918761 0.316318969977,1.82348582692 1.26527587991,1.63741584459 l 0,0 Z"/>
  <path fill="#000000" d="M 80.0318259998,25.1025748123 l 7.10787332536,-1.33970387284 c 0.148855985871,-0.0372139964678 0.297711971743,-0.0186069982338 0.446567957614,0 l 7.3497643024,1.50716685695 c 0.930349911696,0.186069982339 1.67462984105,-0.744279929357 1.28388287814,-1.60020184812 l -7.44279929357,-16.4858004353 c -0.409353961146,-0.893135915228 -1.67462984105,-0.911742913462 -2.10259080043,-0.0372139964678 l -7.92658124765,16.3183374512 c -0.409353961146,0.85592191876 0.316318969977,1.82348582692 1.26527587991,1.63741584459 l 0,0 Z"/>
  <path fill="none" stroke="#000" stroke-width="6.364" stroke-miterlimit="10" d="M 31.5047746057,23.2604819871 l 0,9.93613705692 c 0,4.03771861676 2.93990572096,7.2939433077 6.58687737481,7.2939433077 l 42.796095938,0 c 3.62836465562,0 6.58687737481,-3.27483168917 6.58687737481,-7.2939433077 l 0,-9.95474405515"/>
  <line fill="none" stroke="#000" stroke-width="7.052" stroke-miterlimit="10" x1="59.75" y1="43.654" x2="59.75" y2="77.425"/>
</svg>
