<?xml version="1.0" encoding="UTF-8"?>
<svg xmlns="http://www.w3.org/2000/svg" viewBox="0 0 120 120" width="120" height="120">
  <polygon fill="#878787" points="52.203,73.337 52.203,101.51 68.2,101.51 68.2,72.805 52.203,72.805 52.203,73.337"/>
  <rect fill="#259155" x="6" y="18.49" width="108" height="57.427" rx="13.417" ry="13.417"/>
  <rect fill="none" stroke="#fff" stroke-width="1.629" stroke-miterlimit="10" x="8.854" y="21.199" width="102.694" height="52.234" rx="10.934" ry="10.934"/>
  <rect fill="#f1bb1d" x="81.747" y="50.743" width="18.723" height="16.852"/>
  <rect fill="#fb0d01" stroke="#fff" stroke-width="1.209" stroke-miterlimit="10" x="16.821" y="28.892" width="41.204" height="18.723"/>
  <path fill="#fff" d="M 26.8517246528,62.8060325519 l -0.612811706734,1.80618187248 l -1.66104225773,0 l 2.64476631327,-7.78915932507 l 2.11258772585,0 l 2.7576526803,7.78915932507 l -1.77392862476,0 l -0.645064954457,-1.80618187248 l -2.83828579961,0 l 0.0161266238614,0 Z M 29.3352247275,61.4191428998 c -0.548305211289,-1.64491563387 -0.90309093624,-2.69314618486 -1.09661042258,-3.3865910109 l 0,0 c -0.193519486337,0.774077945349 -0.580558459012,1.98357473496 -1.03210392713,3.3865910109 l 2.12871434971,0 Z"/>
  <path fill="#fff" d="M 33.0927280872,56.8069284754 l 3.40271763476,0 c 1.88681499179,0 2.59638644169,0.983724055547 2.59638644169,1.99970135882 c 0,0.870837688517 -0.467672091982,1.45139614753 -0.983724055547,1.69329550545 c 0.532178587427,0.193519486337 1.20949678961,0.757951321487 1.20949678961,1.77392862476 c 0,1.3385097805 -1.04823055099,2.33836045991 -2.70927280872,2.33836045991 l -3.51560400179,0 l 0,-7.78915932507 l 0,0 Z M 36.3019262356,59.887113633 c 0.806331193072,0 1.1288636703,-0.354785724952 1.1288636703,-0.90309093624 s -0.435418844259,-0.870837688517 -1.08048379872,-0.870837688517 l -1.61266238614,0 l 0,1.77392862476 l 1.56428251456,0 Z M 34.7537703449,63.3059578916 l 1.51590264297,0 c 0.90309093624,0 1.32238315664,-0.387038972674 1.32238315664,-1.08048379872 c 0,-0.628938330596 -0.403165596536,-1.03210392713 -1.3385097805,-1.03210392713 l -1.51590264297,0 l 0,2.11258772585 l 0,0 Z"/>
  <path fill="#fff" d="M 47.3325369568,62.1932208452 c -0.306405853367,1.45139614753 -1.40301627594,2.51575332238 -3.35433776318,2.51575332238 c -2.4673734508,0 -3.62849036882,-1.74167537703 -3.62849036882,-3.96714946991 s 1.20949678961,-4.04778258922 3.72525011199,-4.04778258922 c 2.08033447812,0 3.08018515753,1.20949678961 3.27370464387,2.51575332238 l -1.67716888159,0 c -0.161266238614,-0.596685082873 -0.580558459012,-1.19337016575 -1.64491563387,-1.19337016575 c -1.38688965208,0 -1.91906823951,1.24175003733 -1.91906823951,2.66089293714 c 0,1.32238315664 0.467672091982,2.70927280872 1.96744811109,2.70927280872 c 1.09661042258,0 1.45139614753,-0.741824697626 1.59653576228,-1.19337016575 l 1.69329550545,0 l -0.0322532477228,0 Z"/>
  <path fill="#fff" d="M 48.6226668658,56.8069284754 l 3.09631178139,0 c 2.27385396446,0 3.75750335971,1.49977601911 3.75750335971,3.78975660744 s -1.43526952367,3.98327609377 -3.82200985516,3.98327609377 l -3.01567866209,0 l 0,-7.78915932507 l -0.0161266238614,0 Z M 50.2998357473,63.2414513961 l 1.25787666119,0 c 1.49977601911,0 2.14484097357,-1.11273704644 2.14484097357,-2.62863968941 c 0,-1.27400328505 -0.612811706734,-2.43512020308 -2.14484097357,-2.43512020308 l -1.27400328505,0 l 0,5.06375989249 l 0.0161266238614,0 Z"/>
</svg>
