<?xml version="1.0" encoding="UTF-8"?>
<svg xmlns="http://www.w3.org/2000/svg" viewBox="0 0 120 120" width="120" height="120">
  <path fill="#000000" d="M 17.1078992602,16.0195142552 l 3.82790318514,-0.722535942576 l 0.245969682579,0 l 3.96626113159,0.814774573543 c 0.491939365158,0.107611736128 0.90701320451,-0.399700734191 0.691789732253,-0.860893889026 l -4.01238044707,-8.88565478317 c -0.215223472257,-0.476566259997 -0.891640099349,-0.491939365158 -1.12223667677,-0.0153731051611 l -4.27372323481,8.7934161522 c -0.230596577418,0.461193154836 0.169104156773,0.983878730316 0.676416627092,0.891640099349 l 0,0 Z"/>
  <rect fill="none" stroke="#000" stroke-width="2.906" stroke-miterlimit="10" x="38.953" y="7.78" width="55.435" height="104.675"/>
  <line fill="none" stroke="#000" stroke-width="2.906" stroke-miterlimit="10" x1="30.898" y1="112.547" x2="102.183" y2="112.547"/>
  <line fill="none" stroke="#000" stroke-width="1.46" stroke-miterlimit="10" x1="20.951" y1="11.807" x2="20.951" y2="104.861"/>
  <path fill="#000000" d="M 17.1232723653,100.663831273 l 3.82790318514,0.722535942576 l 0.245969682579,0 l 3.96626113159,-0.814774573543 c 0.491939365158,-0.107611736128 0.90701320451,0.399700734191 0.691789732253,0.860893889026 l -4.01238044707,8.88565478317 c -0.215223472257,0.476566259997 -0.891640099349,0.491939365158 -1.12223667677,0.0153731051612 l -4.27372323481,-8.7934161522 c -0.230596577418,-0.461193154836 0.169104156773,-0.983878730316 0.676416627092,-0.891640099349 l 0,0 Z"/>
  <rect fill="none" stroke="#000" stroke-width="2.183" stroke-miterlimit="10" x="49.084" y="14.805" width="13.513" height="13.513"/>
  <rect fill="none" stroke="#000" stroke-width="2.183" stroke-miterlimit="10" x="49.284" y="36.389" width="13.513" height="13.513"/>
  <rect fill="none" stroke="#000" stroke-width="2.183" stroke-miterlimit="10" x="70.852" y="36.389" width="13.513" height="13.513"/>
  <rect fill="none" stroke="#000" stroke-width="2.183" stroke-miterlimit="10" x="70.852" y="14.805" width="13.513" height="13.513"/>
  <path fill="none" stroke="#000" stroke-width="3.982" stroke-miterlimit="10" d="M 46.1630680148,96.4669735637 l 18.6322034554,-32.6985946778 c 0.737909047737,-1.29134083354 2.59805477224,-1.3067139387 3.33596381998,-0.0153731051612 l 19.3854856083,33.0829223069 c 0.753282152898,1.29134083354 -0.184477261934,2.92088998063 -1.69104156773,2.90551687546 l -38.0176890636,-0.38432762903 c -1.47581809547,0 -2.38283129998,-1.59880293676 -1.66029535741,-2.8901437703 l 0.0153731051612,0 Z"/>
  <path fill="#000000" d="M 66.301835776,89.057136876 l 0,0 c 1.42969877999,0 2.58268166708,1.15298288709 2.58268166708,2.58268166708 l 0,0 c 0,1.42969877999 -1.15298288709,2.58268166708 -2.58268166708,2.58268166708 l 0,0 c -1.42969877999,0 -2.58268166708,-1.15298288709 -2.58268166708,-2.58268166708 l 0,0 c 0,-1.42969877999 1.15298288709,-2.58268166708 2.58268166708,-2.58268166708 Z"/>
  <path fill="#000000" d="M 64.7491521547,87.8119153579 l 3.5665603974,0 c 0.215223472257,0 0.399700734191,-0.169104156773 0.415073839352,-0.368954523869 l 1.26059462322,-11.6835599225 c 0.0307462103223,-0.245969682579 -0.169104156773,-0.476566259997 -0.430446944513,-0.461193154836 l -6.08774964383,0.122984841289 c -0.245969682579,0 -0.430446944513,0.215223472257 -0.415073839352,0.461193154836 l 1.26059462322,11.5605750812 c 0.0307462103223,0.215223472257 0.199850367095,0.368954523868 0.415073839352,0.368954523868 l 0,0 Z"/>
</svg>
