<?xml version="1.0" encoding="UTF-8"?>
<svg xmlns="http://www.w3.org/2000/svg" viewBox="0 0 244.16 376.79" width="244.16" height="376.79">
  <g fill="#231F20" fill-rule="evenodd" clip-rule="evenodd">
    <path d="M 92.266,23.536 c -12.207,-18.261 -32.351,-3.299 -32.839,0.969 c -7.647,-0.553 -29.117,0.365 -28.978,0 c 0.33,-5.841 16.99,-11.651 20.283,-10.625 c 17.639,-16.368 29.867,-2.203 29.942,-1.931 C 96.535,5.699 92.447,23.28 92.266,23.536 L 92.266,23.536 z"/>
    <path d="M 71.983,44.785 c -0.191,-1.698 1.011,-1.572 0.965,-1.931 c 5.078,0.171 6.811,-0.837 8.696,-0.964 c 1.461,-0.742 2.69,3.136 0.962,3.865 c -1.088,-0.152 -3.059,-1.385 -6.762,-0.97 C 73.783,44.972 71.953,45.877 71.983,44.785 L 71.983,44.785 z"/>
    <path d="M 79.71,54.446 c 1.092,0.626 -0.02,1.85 -0.962,1.932 c -0.463,0.757 -1.013,0.68 -1.934,0 c -0.298,-0.057 -1.071,-0.275 -0.97,-0.962 c -0.243,-0.678 0.652,-1.151 0.97,-0.97 C 78.178,54.679 79.531,54.26 79.71,54.446 L 79.71,54.446 z"/>
    <path d="M 85.504,67.004 c 6.125,-4.895 26.361,-10.496 37.673,-9.661 c 16.274,2.218 21.809,7.281 24.148,7.731 c 1.865,-0.307 7.161,-2.955 20.284,-0.97 c 5.459,0.579 9.971,2.076 15.459,3.869 c -9.337,1.072 -30.859,1.608 -38.637,4.827 c -2.733,0.908 -12.308,-8.313 -26.083,-5.797 c 15.703,3.097 15.305,8.768 22.217,9.657 c 2.548,0.455 11.291,-1.047 21.251,0.97 c -9.335,2.712 -19.764,7.781 -19.318,7.726 c 18.328,2.584 56.262,19.389 58.92,22.215 c 0.156,-0.29 -8.704,3.693 -8.688,3.868 c 26.302,12.296 46.321,32.69 45.402,42.499 c -1.769,12.683 -30.275,12.195 -39.61,11.592 c -33.544,-3.427 -63.094,-18.853 -114.95,-34.772 l -14.483,53.125 l 28.01,46.361 l 54.094,123.644 c 13.885,30.523 -90.381,16.053 -82.104,-14.491 c -1.441,-0.455 27.327,-106.721 27.045,-106.251 c -23.878,-29.887 -47.687,-41.35 -56.994,-42.497 c 3.749,11.391 28.757,107.345 28.979,107.216 c 5.341,21.167 -67.373,2.384 -61.816,-13.524 c -0.986,0.294 30.852,-95.223 30.906,-95.625 l 29.946,-4.831 l -4.829,-37.671 c -0.784,-2.576 -14.522,-7.473 -12.556,-18.352 c 0.845,-3.887 1.445,-6.434 3.86,-9.659 c 0.288,8.531 3.235,13.513 14.488,16.423 c 7.747,1.562 16.005,-13.245 28.98,-12.562 c 15.472,0.562 40.03,27.966 51.193,29.947 c 15.211,2.844 24.245,-1.753 27.05,-9.659 c 8.828,-20.787 -35.286,-34.381 -80.179,-35.741 L 139.6,84.393 c -18.364,-9.573 -48.404,-10.582 -48.299,-10.627 L 85.504,67.004 L 85.504,67.004 z"/>
    <path d="M 76.813,49.616 c 1.197,-0.025 2.87,-0.863 2.896,-0.964 c 1.065,0.45 1.349,0.737 1.934,0.964 c 0.471,-0.132 0.719,-0.238 0.962,0 c 0.975,-0.374 0.352,0.948 0,1.934 c -0.03,1.301 -3.154,-0.52 -4.827,0 c -2.789,0.613 -6.982,1.885 -6.765,0 C 70.618,51.496 74.054,50.415 76.813,49.616 L 76.813,49.616 z"/>
    <path d="M 52.664,79.565 l -1.932,-16.423 c -19.331,1.971 -17.765,-11.116 -17.386,-11.592 c -14.448,-3.339 -10.071,-17.433 -9.661,-17.388 c -4.412,-10.829 6.129,-8.975 5.795,-8.695 l 25.119,19.318 c -2.548,23.663 27.647,17.832 28.006,17.392 l 2.899,4.826 c -34.902,20.097 -60.737,54.61 -60.856,55.059 c -24.051,-28.005 27.815,-40.491 28.016,-40.571 C 53.386,80.866 53.099,79.733 52.664,79.565 L 52.664,79.565 z"/>
  </g>
</svg>
