<?xml version="1.0" encoding="UTF-8"?>
<svg xmlns="http://www.w3.org/2000/svg" viewBox="0 0 120 120" width="120" height="120">
  <path fill="#000000" d="M 55.614700652,109.182572614 l 10.1950207469,0.144042679312 c 0.3841138115,0 0.704208654416,-0.304090100771 0.704208654416,-0.704208654416 l -0.160047421458,-58.4333135744 c 0,-0.3841138115 0.304090100771,-0.704208654416 0.704208654416,-0.704208654416 l 4.76941315945,0 c 0.368109069354,-0.0320094842916 0.68820391227,-0.320094842916 0.704208654416,-0.704208654416 l 0.640189685833,-16.8689982217 c 0,-0.128037937166 -0.0160047421458,-0.240071132187 -0.0800237107291,-0.352104327208 l -2.16064018969,-4.16123295791 s -0.0640189685833,-0.128037937167 -0.0640189685833,-0.208061647896 l -1.64848844102,-9.85892116183 c -1.82454060462,-3.61707172496 -4.609365738,-6.33787788975 -8.6265560166,-6.25785417902 c -3.841138115,0.0800237107292 -7.34617664493,2.32068761114 -9.10669828097,5.77771191464 l -1.87255483106,10.2430349733 s -0.0480142264375,0.144042679312 -0.0800237107291,0.224066390042 l -2.38470657973,4.24125666864 c -0.0640189685833,0.112033195021 -0.0960284528749,0.240071132187 -0.0960284528749,0.352104327208 l 0.368109069354,16.8689982217 c 0,0.3841138115 0.320094842916,0.68820391227 0.704208654416,0.68820391227 l 5.31357439241,0 c 0.3841138115,0 0.704208654416,0.304090100771 0.704208654416,0.68820391227 l 0.768227622999,58.3372851215 c 0,0.3841138115 0.304090100771,0.68820391227 0.68820391227,0.68820391227 l 0,0 Z"/>
  <circle fill="#000000" cx="21.749" cy="26.422" r="15.749"/>
  <circle fill="#000000" cx="98.251" cy="26.662" r="15.749"/>
  <polyline fill="#000000" points="70.595,26.822 82.823,29.431 82.711,24.197 69.651,21.717 70.595,26.454"/>
  <polyline fill="#000000" points="51.229,26.646 37.081,29.255 37.209,24.021 52.318,21.541 51.229,26.278"/>
</svg>
