<?xml version="1.0" encoding="UTF-8"?>
<svg xmlns="http://www.w3.org/2000/svg" viewBox="0 0 120 120" width="120" height="120">
  <line fill="none" stroke="#000" stroke-width="3.809" stroke-miterlimit="10" x1="7.904" y1="106.952" x2="112.096" y2="106.952"/>
  <line fill="none" stroke="#000" stroke-width="2.539" stroke-miterlimit="10" x1="19.051" y1="105.314" x2="19.051" y2="52.565"/>
  <line fill="none" stroke="#000" stroke-width="3.809" stroke-miterlimit="10" x1="49.228" y1="105.263" x2="57.467" y2="54.812"/>
  <line fill="none" stroke="#000" stroke-width="3.859" stroke-miterlimit="10" x1="59.549" y1="106.127" x2="59.308" y2="55.319"/>
  <line fill="none" stroke="#000" stroke-width="3.923" stroke-miterlimit="10" x1="69.998" y1="106.368" x2="61.022" y2="55.066"/>
  <ellipse fill="none" stroke="#000" stroke-width="3.923" stroke-miterlimit="10" cx="59.46" cy="48.502" rx="5.078" ry="5.408"/>
  <path fill="#000000" d="M 64.3735747032,53.6944734966 l 38.0355001763,16.2882332197 c 0.444339955331,0.190431409428 0.952157047138,-0.0126954272952 1.14258845657,-0.457035382626 l 1.85353238509,-4.30374985306 c 0.190431409427,-0.444339955331 -0.0126954272952,-0.952157047138 -0.457035382626,-1.14258845657 l -38.3528858587,-16.5421417656 c -0.469730809921,-0.203126836723 -1.00293875632,0.0380862818855 -1.16797931116,0.520512519102 l -1.53614670272,4.55765839897 c -0.139649700247,0.431644528036 0.0634771364759,0.901375337957 0.482426237216,1.07911132009 Z"/>
  <path fill="#000000" d="M 22.5675326202,50.4317486818 c -2.51369460444,2.3740449042 -4.78617609028,3.80862818855 -6.0557188198,4.01175502527 c -0.291994827789,0.0507817091807 -0.926766192547,0.139649700247 -1.5742329846,-0.139649700247 c 0,0 -0.647466792054,-0.291994827789 -1.12989302927,-1.00293875632 c -0.647466792054,-0.977547901728 -3.51663336076,-11.5655342659 3.60550135183,-25.1496414717 c 2.14552721288,-4.08792758904 6.38579992947,-10.7149406371 14.5235688257,-16.8087457388 c 0.279299400494,-0.114258845657 0.850593628776,-0.291994827789 1.49806042083,-0.139649700247 c 0.825202774186,0.190431409428 1.29493358411,0.7871164923 1.51075584813,1.06641589279 c 0.901375337957,1.14258845657 1.77735982132,4.26566357118 1.3076290114,7.04596214882 c -0.076172563771,0.495121664512 -13.6729751969,31.1291877278 -13.6729751969,31.1291877278 l -0.0126954272952,0 Z"/>
  <polygon fill="#000000" points="52.503,48.388 27.57,37.99 30.21,32.087 55.665,42.891 52.503,48.388"/>
  <path fill="#000000" d="M 98.2068884448,68.1291743312 l 0.0380862818855,27.5617726578 c 0,0.39355824615 -0.317385682379,0.710943928529 -0.698248501234,0.710943928529 l -3.27542024215,0 c -0.380862818855,0 -0.698248501234,0.317385682379 -0.698248501234,0.71094392853 l 0,8.12507346891 l 12.8985541319,0 l 0,-8.12507346891 c 0,-0.380862818855 -0.304690255084,-0.698248501234 -0.685553073939,-0.71094392853 l -3.69436934289,-0.0253908545902 c -0.380862818855,0 -0.685553073939,-0.317385682379 -0.685553073939,-0.710943928529 l 0,-26.495356765 l -3.19924767838,-1.0410250382 l 0,0 Z"/>
</svg>
